<?xml version="1.0" encoding="utf-8"?>
<!-- Generator: Adobe Illustrator 26.4.1, SVG Export Plug-In . SVG Version: 6.00 Build 0)  -->
<svg version="1.1" id="Layer_1" xmlns="http://www.w3.org/2000/svg" xmlns:xlink="http://www.w3.org/1999/xlink" x="0px" y="0px"
	 viewBox="0 0 100 100" style="enable-background:new 0 0 100 100;" xml:space="preserve">
<style type="text/css">
	.st0{fill:#80539C;}
	.st1{fill:#FCAF1A;}
	.st2{fill:#41A1CF;}
</style>
<g>
	<path class="st2" d="M83.4,100c-0.9,0-1.7-0.8-1.7-1.7v-8.8c0-0.9,0.8-1.7,1.7-1.7c0.9,0,1.7,0.8,1.7,1.7v8.8
		C85.1,99.2,84.3,100,83.4,100z"/>
	<path class="st2" d="M76.9,100c-0.9,0-1.7-0.8-1.7-1.7v-8.8c0-0.9,0.8-1.7,1.7-1.7s1.7,0.8,1.7,1.7v8.8
		C78.6,99.2,77.9,100,76.9,100z"/>
	<path class="st2" d="M69.9,100c-0.9,0-1.7-0.8-1.7-1.7v-8.8c0-0.9,0.8-1.7,1.7-1.7c0.9,0,1.7,0.8,1.7,1.7v8.8
		C71.5,99.2,70.8,100,69.9,100z"/>
	<path class="st2" d="M62.8,100c-0.9,0-1.7-0.8-1.7-1.7v-8.8c0-0.9,0.8-1.7,1.7-1.7c0.9,0,1.7,0.8,1.7,1.7v8.8
		C64.5,99.2,63.7,100,62.8,100z"/>
	<path class="st2" d="M56.3,100c-0.9,0-1.7-0.8-1.7-1.7v-8.8c0-0.9,0.8-1.7,1.7-1.7c0.9,0,1.7,0.8,1.7,1.7v8.8
		C58,99.2,57.2,100,56.3,100z"/>
	<path class="st2" d="M49.3,100c-0.9,0-1.7-0.8-1.7-1.7v-8.8c0-0.9,0.8-1.7,1.7-1.7c0.9,0,1.7,0.8,1.7,1.7v8.8
		C50.9,99.2,50.2,100,49.3,100z"/>
	<path class="st2" d="M42.2,100c-0.9,0-1.7-0.8-1.7-1.7v-8.8c0-0.9,0.8-1.7,1.7-1.7c0.9,0,1.7,0.8,1.7,1.7v8.8
		C43.9,99.2,43.1,100,42.2,100z"/>
	<path class="st2" d="M35.7,100c-0.9,0-1.7-0.8-1.7-1.7v-8.8c0-0.9,0.8-1.7,1.7-1.7c0.9,0,1.7,0.8,1.7,1.7v8.8
		C37.4,99.2,36.6,100,35.7,100z"/>
	<path class="st2" d="M28.7,100c-0.9,0-1.7-0.8-1.7-1.7v-8.8c0-0.9,0.8-1.7,1.7-1.7c0.9,0,1.7,0.8,1.7,1.7v8.8
		C30.3,99.2,29.6,100,28.7,100z"/>
	<path class="st2" d="M21.6,100c-0.9,0-1.7-0.8-1.7-1.7v-8.8c0-0.9,0.8-1.7,1.7-1.7c0.9,0,1.7,0.8,1.7,1.7v8.8
		C23.3,99.2,22.5,100,21.6,100z"/>
	<path class="st2" d="M15.1,100c-0.9,0-1.7-0.8-1.7-1.7v-8.8c0-0.9,0.8-1.7,1.7-1.7c0.9,0,1.7,0.8,1.7,1.7v8.8
		C16.8,99.2,16,100,15.1,100z"/>
	<path class="st2" d="M83.4,12.2c-0.9,0-1.7-0.8-1.7-1.7V1.7c0-0.9,0.8-1.7,1.7-1.7c0.9,0,1.7,0.8,1.7,1.7v8.8
		C85.1,11.5,84.3,12.2,83.4,12.2z"/>
	<path class="st2" d="M76.9,12.2c-0.9,0-1.7-0.8-1.7-1.7V1.7C75.3,0.8,76,0,76.9,0s1.7,0.8,1.7,1.7v8.8
		C78.6,11.5,77.9,12.2,76.9,12.2z"/>
	<path class="st2" d="M69.9,12.2c-0.9,0-1.7-0.8-1.7-1.7V1.7c0-0.9,0.8-1.7,1.7-1.7c0.9,0,1.7,0.8,1.7,1.7v8.8
		C71.5,11.5,70.8,12.2,69.9,12.2z"/>
	<path class="st2" d="M62.8,12.2c-0.9,0-1.7-0.8-1.7-1.7V1.7c0-0.9,0.8-1.7,1.7-1.7c0.9,0,1.7,0.8,1.7,1.7v8.8
		C64.5,11.5,63.7,12.2,62.8,12.2z"/>
	<path class="st2" d="M56.3,12.2c-0.9,0-1.7-0.8-1.7-1.7V1.7c0-0.9,0.8-1.7,1.7-1.7C57.2,0,58,0.8,58,1.7v8.8
		C58,11.5,57.2,12.2,56.3,12.2z"/>
	<path class="st2" d="M49.3,12.2c-0.9,0-1.7-0.8-1.7-1.7V1.7c0-0.9,0.8-1.7,1.7-1.7c0.9,0,1.7,0.8,1.7,1.7v8.8
		C50.9,11.5,50.2,12.2,49.3,12.2z"/>
	<path class="st2" d="M42.2,12.2c-0.9,0-1.7-0.8-1.7-1.7V1.7c0-0.9,0.8-1.7,1.7-1.7c0.9,0,1.7,0.8,1.7,1.7v8.8
		C43.9,11.5,43.1,12.2,42.2,12.2z"/>
	<path class="st2" d="M35.7,12.2c-0.9,0-1.7-0.8-1.7-1.7V1.7C34,0.8,34.8,0,35.7,0c0.9,0,1.7,0.8,1.7,1.7v8.8
		C37.4,11.5,36.6,12.2,35.7,12.2z"/>
	<path class="st2" d="M28.7,12.2c-0.9,0-1.7-0.8-1.7-1.7V1.7C27,0.8,27.7,0,28.7,0c0.9,0,1.7,0.8,1.7,1.7v8.8
		C30.3,11.5,29.6,12.2,28.7,12.2z"/>
	<path class="st2" d="M21.6,12.2c-0.9,0-1.7-0.8-1.7-1.7V1.7c0-0.9,0.8-1.7,1.7-1.7c0.9,0,1.7,0.8,1.7,1.7v8.8
		C23.3,11.5,22.5,12.2,21.6,12.2z"/>
	<path class="st2" d="M15.1,12.2c-0.9,0-1.7-0.8-1.7-1.7V1.7c0-0.9,0.8-1.7,1.7-1.7c0.9,0,1.7,0.8,1.7,1.7v8.8
		C16.8,11.5,16,12.2,15.1,12.2z"/>
	<path class="st2" d="M10.5,85.8H1.7c-0.9,0-1.7-0.8-1.7-1.7c0-0.9,0.8-1.7,1.7-1.7h8.8c0.9,0,1.7,0.8,1.7,1.7
		C12.2,85.1,11.4,85.8,10.5,85.8z"/>
	<path class="st2" d="M10.5,79.3H1.7c-0.9,0-1.7-0.8-1.7-1.7C0,76.7,0.8,76,1.7,76h8.8c0.9,0,1.7,0.8,1.7,1.7
		C12.2,78.6,11.4,79.3,10.5,79.3z"/>
	<path class="st2" d="M10.5,72.3H1.7c-0.9,0-1.7-0.8-1.7-1.7s0.8-1.7,1.7-1.7h8.8c0.9,0,1.7,0.8,1.7,1.7
		C12.2,71.5,11.4,72.3,10.5,72.3z"/>
	<path class="st2" d="M10.5,65.2H1.7c-0.9,0-1.7-0.8-1.7-1.7c0-0.9,0.8-1.7,1.7-1.7h8.8c0.9,0,1.7,0.8,1.7,1.7
		C12.2,64.5,11.4,65.2,10.5,65.2z"/>
	<path class="st2" d="M10.5,58.7H1.7C0.8,58.7,0,58,0,57.1s0.8-1.7,1.7-1.7h8.8c0.9,0,1.7,0.8,1.7,1.7S11.4,58.7,10.5,58.7z"/>
	<path class="st2" d="M10.5,51.7H1.7C0.8,51.7,0,50.9,0,50s0.8-1.7,1.7-1.7h8.8c0.9,0,1.7,0.8,1.7,1.7
		C12.2,50.9,11.4,51.7,10.5,51.7z"/>
	<path class="st2" d="M10.5,44.6H1.7c-0.9,0-1.7-0.8-1.7-1.7c0-0.9,0.8-1.7,1.7-1.7h8.8c0.9,0,1.7,0.8,1.7,1.7
		C12.2,43.9,11.4,44.6,10.5,44.6z"/>
	<path class="st2" d="M10.5,38.1H1.7c-0.9,0-1.7-0.8-1.7-1.7s0.8-1.7,1.7-1.7h8.8c0.9,0,1.7,0.8,1.7,1.7
		C12.2,37.4,11.4,38.1,10.5,38.1z"/>
	<path class="st2" d="M10.5,31.1H1.7c-0.9,0-1.7-0.8-1.7-1.7c0-0.9,0.8-1.7,1.7-1.7h8.8c0.9,0,1.7,0.8,1.7,1.7
		C12.2,30.3,11.4,31.1,10.5,31.1z"/>
	<path class="st2" d="M10.5,24H1.7C0.8,24,0,23.3,0,22.3s0.8-1.7,1.7-1.7h8.8c0.9,0,1.7,0.8,1.7,1.7S11.4,24,10.5,24z"/>
	<path class="st2" d="M10.5,17.5H1.7c-0.9,0-1.7-0.8-1.7-1.7c0-0.9,0.8-1.7,1.7-1.7h8.8c0.9,0,1.7,0.8,1.7,1.7
		C12.2,16.8,11.4,17.5,10.5,17.5z"/>
	<path class="st2" d="M98.3,85.8h-8.8c-0.9,0-1.7-0.8-1.7-1.7c0-0.9,0.8-1.7,1.7-1.7h8.8c0.9,0,1.7,0.8,1.7,1.7
		C100,85.1,99.2,85.8,98.3,85.8z"/>
	<path class="st2" d="M98.3,79.3h-8.8c-0.9,0-1.7-0.8-1.7-1.7c0-0.9,0.8-1.7,1.7-1.7h8.8c0.9,0,1.7,0.8,1.7,1.7
		C100,78.6,99.2,79.3,98.3,79.3z"/>
	<path class="st2" d="M98.3,72.3h-8.8c-0.9,0-1.7-0.8-1.7-1.7s0.8-1.7,1.7-1.7h8.8c0.9,0,1.7,0.8,1.7,1.7S99.2,72.3,98.3,72.3z"/>
	<path class="st2" d="M98.3,65.2h-8.8c-0.9,0-1.7-0.8-1.7-1.7c0-0.9,0.8-1.7,1.7-1.7h8.8c0.9,0,1.7,0.8,1.7,1.7
		C100,64.5,99.2,65.2,98.3,65.2z"/>
	<path class="st2" d="M98.3,58.7h-8.8c-0.9,0-1.7-0.8-1.7-1.7s0.8-1.7,1.7-1.7h8.8c0.9,0,1.7,0.8,1.7,1.7S99.2,58.7,98.3,58.7z"/>
	<path class="st2" d="M98.3,51.7h-8.8c-0.9,0-1.7-0.8-1.7-1.7s0.8-1.7,1.7-1.7h8.8c0.9,0,1.7,0.8,1.7,1.7S99.2,51.7,98.3,51.7z"/>
	<path class="st2" d="M98.3,44.6h-8.8c-0.9,0-1.7-0.8-1.7-1.7c0-0.9,0.8-1.7,1.7-1.7h8.8c0.9,0,1.7,0.8,1.7,1.7
		C100,43.9,99.2,44.6,98.3,44.6z"/>
	<path class="st2" d="M98.3,38.1h-8.8c-0.9,0-1.7-0.8-1.7-1.7s0.8-1.7,1.7-1.7h8.8c0.9,0,1.7,0.8,1.7,1.7S99.2,38.1,98.3,38.1z"/>
	<path class="st2" d="M98.3,31.1h-8.8c-0.9,0-1.7-0.8-1.7-1.7c0-0.9,0.8-1.7,1.7-1.7h8.8c0.9,0,1.7,0.8,1.7,1.7
		C100,30.3,99.2,31.1,98.3,31.1z"/>
	<path class="st2" d="M98.3,24h-8.8c-0.9,0-1.7-0.8-1.7-1.7s0.8-1.7,1.7-1.7h8.8c0.9,0,1.7,0.8,1.7,1.7S99.2,24,98.3,24z"/>
	<path class="st2" d="M98.3,17.5h-8.8c-0.9,0-1.7-0.8-1.7-1.7c0-0.9,0.8-1.7,1.7-1.7h8.8c0.9,0,1.7,0.8,1.7,1.7
		C100,16.8,99.2,17.5,98.3,17.5z"/>
	<path class="st0" d="M89.3,90.5H11c-0.9,0-1.7-0.8-1.7-1.7V10.6c0-0.9,0.8-1.7,1.7-1.7h78.3c0.9,0,1.7,0.8,1.7,1.7v78.3
		C91,89.8,90.2,90.5,89.3,90.5z M12.7,87.2h74.9V12.2H12.7V87.2z"/>
	<path class="st1" d="M80.5,81.7H19.8c-0.9,0-1.7-0.8-1.7-1.7V19.4c0-0.9,0.8-1.7,1.7-1.7h60.6c0.9,0,1.7,0.8,1.7,1.7V80
		C82.1,81,81.4,81.7,80.5,81.7z M21.5,78.4h57.3V21.1H21.5V78.4z"/>
</g>
<rect x="28" y="28.3" class="st0" width="11" height="11"/>
<rect x="44.5" y="28.3" class="st0" width="11" height="11"/>
<rect x="61" y="28.3" class="st0" width="11" height="11"/>
<rect x="28" y="44.3" class="st0" width="11" height="11"/>
<rect x="44.5" y="44.3" class="st0" width="11" height="11"/>
<rect x="61" y="44.3" class="st0" width="11" height="11"/>
<rect x="28" y="60.3" class="st0" width="11" height="11"/>
<rect x="44.5" y="60.3" class="st0" width="11" height="11"/>
<rect x="61" y="60.3" class="st0" width="11" height="11"/>
</svg>
