<?xml version="1.0" encoding="utf-8"?>
<!-- Generator: Adobe Illustrator 26.4.1, SVG Export Plug-In . SVG Version: 6.00 Build 0)  -->
<svg version="1.1" id="Layer_1" xmlns="http://www.w3.org/2000/svg" xmlns:xlink="http://www.w3.org/1999/xlink" x="0px" y="0px"
	 viewBox="0 0 100 100" style="enable-background:new 0 0 100 100;" xml:space="preserve">
<style type="text/css">
	.st0{fill:#80539C;}
	.st1{fill:#FCAF1A;}
	.st2{fill:#41A1CF;}
</style>
<g>
	<g>
		<g>
			
				<rect x="-2.1" y="90.8" transform="matrix(0.7071 -0.7071 0.7071 0.7071 -62.7332 32.5944)" class="st0" width="20.1" height="2.4"/>
		</g>
	</g>
	<g>
		<g>
			
				<rect x="82.7" y="81.6" transform="matrix(0.7071 -0.7071 0.7071 0.7071 -40.2526 86.1679)" class="st0" width="2.4" height="20.1"/>
		</g>
	</g>
	<g>
		<g>
			<g>
				<path class="st1" d="M84.7,27.5l-11.5-0.6l-0.6-11.5L87.8,0l-0.6,12.8l12.8-0.6L84.7,27.5z M75.5,24.5l8.3,0.5l10.1-10.1
					l-9.2,0.4l0.4-9.2L75,16.2L75.5,24.5z"/>
			</g>
		</g>
		<g>
			<g>
				
					<rect x="38.4" y="30" transform="matrix(0.7071 -0.7071 0.7071 0.7071 -1.9275 57.7795)" class="st1" width="60.7" height="2.4"/>
			</g>
		</g>
		<g>
			<g>
				<path class="st2" d="M45.8,58.5c-1.1,0-2.2-0.4-3-1.3s-1.3-1.9-1.3-3c0-1.1,0.4-2.2,1.3-3c1.6-1.6,4.4-1.6,6,0
					c0.8,0.8,1.3,1.9,1.3,3c0,1.1-0.4,2.2-1.3,3S46.9,58.5,45.8,58.5z M45.8,52.4c-0.5,0-0.9,0.2-1.3,0.5c-0.7,0.7-0.7,1.9,0,2.6
					c0.7,0.7,1.9,0.7,2.6,0c0.7-0.7,0.7-1.9,0-2.6C46.7,52.6,46.2,52.4,45.8,52.4z"/>
			</g>
		</g>
		<g>
			<g>
				
					<rect x="78.8" y="13.5" transform="matrix(0.7052 -0.7091 0.7091 0.7052 13.2204 61.3074)" class="st1" width="3" height="2.4"/>
			</g>
		</g>
		<g>
			<g>
				<rect x="84" y="18.7" transform="matrix(0.7091 -0.7052 0.7052 0.7091 10.8236 66.0855)" class="st1" width="3" height="2.4"/>
			</g>
		</g>
	</g>
	<g>
		<g>
			<path class="st0" d="M45.8,100c-11.7,0-23.4-4.5-32.4-13.4c-17.9-17.9-17.9-46.9,0-64.7C28.7,6.6,52.8,4.1,70.9,16l1,0.7l-1.3,2
				l-1-0.7c-17.1-11.2-40-8.9-54.4,5.6C-1.8,40.5-1.8,68,15.1,84.9c16.9,16.9,44.4,16.9,61.3,0c14.8-14.8,16.9-38,5.1-55.2l-0.7-1
				l2-1.4l0.7,1C96,46.5,93.7,71,78.1,86.6C69.2,95.5,57.5,100,45.8,100z"/>
		</g>
	</g>
	<g>
		<g>
			<path class="st0" d="M45.8,92.6c-9.8,0-19.6-3.7-27.1-11.2C11.4,74.1,7.4,64.5,7.4,54.2c0-10.2,4-19.9,11.2-27.1
				c13.4-13.4,35-14.9,50.2-3.5l1,0.7l-1.5,1.9l-1-0.7c-14.2-10.7-34.4-9.3-47,3.3C13.6,35.6,9.8,44.6,9.8,54.2
				c0,9.6,3.7,18.6,10.5,25.4c14,14,36.8,14,50.8,0c12.8-12.8,14-33.1,3-47.4l-0.7-1l1.9-1.5l0.7,1c11.8,15.2,10.4,37-3.2,50.6
				C65.4,88.8,55.6,92.6,45.8,92.6z"/>
		</g>
	</g>
	<g>
		<g>
			<path class="st0" d="M45.8,85C37.9,85,30,82,24,76c-5.8-5.8-9-13.5-9-21.8c0-8.2,3.2-15.9,9-21.8c10.6-10.6,27.1-12,39.4-3.4
				l1,0.7l-1.4,2L62,31c-11.3-7.9-26.5-6.6-36.3,3.2c-5.4,5.4-8.3,12.5-8.3,20.1c0,7.6,3,14.7,8.3,20.1c5.4,5.4,12.5,8.3,20.1,8.3
				c7.6,0,14.7-3,20.1-8.3c9.9-9.9,11.1-25.3,2.9-36.7l-0.7-1l2-1.4l0.7,1c8.9,12.3,7.6,29-3.1,39.8C61.5,82,53.6,85,45.8,85z"/>
		</g>
	</g>
	<g>
		<g>
			<path class="st0" d="M45.8,77.4c-5.9,0-11.9-2.3-16.4-6.8c-9-9-9-23.7,0-32.8c7.6-7.6,19.3-9,28.5-3.4l1,0.6l-1.3,2.1l-1-0.6
				c-8.2-5-18.7-3.8-25.5,3c-8.1,8.1-8.1,21.3,0,29.4c8.1,8.1,21.3,8.1,29.4,0c6.9-6.9,8-17.8,2.8-25.9l-0.7-1l2-1.3l0.7,1
				c5.9,9.1,4.6,21.3-3.1,28.9C57.6,75.2,51.7,77.4,45.8,77.4z"/>
		</g>
	</g>
	<g>
		<g>
			<path class="st2" d="M45.8,69.1c-3.8,0-7.6-1.5-10.5-4.4c-5.8-5.8-5.8-15.3,0-21.1c4.3-4.3,10.7-5.6,16.3-3.2l1.1,0.5l-0.9,2.2
				l-1.1-0.5c-4.7-2-10.1-0.9-13.7,2.7c-2.4,2.4-3.7,5.5-3.7,8.8c0,3.3,1.3,6.5,3.7,8.8c2.4,2.4,5.5,3.7,8.8,3.7
				c3.3,0,6.5-1.3,8.8-3.7c3.7-3.7,4.7-9.4,2.5-14.1l-0.5-1.1l2.2-1l0.5,1.1c2.6,5.7,1.5,12.4-3,16.8C53.4,67.7,49.6,69.1,45.8,69.1
				z"/>
		</g>
	</g>
</g>
</svg>
