<?xml version="1.0" encoding="utf-8"?>
<!-- Generator: Adobe Illustrator 22.1.0, SVG Export Plug-In . SVG Version: 6.00 Build 0)  -->
<svg version="1.1" id="Layer_1" xmlns="http://www.w3.org/2000/svg" xmlns:xlink="http://www.w3.org/1999/xlink" x="0px" y="0px"
	 viewBox="0 0 1600 960" style="enable-background:new 0 0 1600 960;" xml:space="preserve">
<style type="text/css">
	.st0{fill:#8347AD;}
	.st1{fill:#52C7F3;}
	.st2{fill:#E97D21;}
</style>
<g>
	<rect x="406.3" y="617.1" class="st0" width="795.8" height="23.3"/>
	<path class="st1" d="M1053.8,722.7H574.4c-6.2,0-11.3-5.2-11.3-11.7s5.1-11.7,11.3-11.7h479.3c6.2,0,11.3,5.2,11.3,11.7
		S1060,722.7,1053.8,722.7z"/>
	<path class="st0" d="M1122.2,728.6c-4.4,0-8.5-1.7-11.9-5.3c-3.4-3.1-5.1-7.7-5.1-12.3c0-4.9,2.1-9.5,5.1-12.6
		c4.4-4.6,12.2-6.3,18.3-3.5c2,0.7,4.1,2.1,5.8,3.5c1.4,1.7,2.7,3.9,3.4,6c1,2.1,1.4,4.2,1.4,6.7c0,4.6-1.7,9.1-5.1,12.3
		c-1.3,1.7-3.4,2.8-5.4,3.9C1126.6,727.9,1124.6,728.6,1122.2,728.6z"/>
	<polygon class="st0" points="467.1,681.1 467.1,740.9 518.5,711 	"/>
	<path class="st0" d="M1164.4,805H435.6c-21.7,0-39.4-18.2-39.4-40.6V195.6c0-4.8,0.9-9.6,2.6-14.3c5.8-15.7,20.6-26.3,36.8-26.3
		h728.9c16.2,0,31,10.6,36.8,26.3v0c1.7,4.7,2.6,9.5,2.6,14.3v568.8C1203.8,786.8,1186.1,805,1164.4,805z M435.6,178.3
		c-7,0-13.1,4.4-15.6,11.2c-0.8,2.1-1.1,4-1.1,6v568.8c0,9.5,7.5,17.3,16.7,17.3h728.9c9.2,0,16.7-7.7,16.7-17.3V195.6
		c0-2-0.4-4-1.1-6.1c-2.5-6.8-8.6-11.2-15.6-11.2H435.6z"/>
	<polygon class="st2" points="741.7,299.7 741.7,505.3 905.8,402.4 	"/>
</g>
</svg>
