<?xml version="1.0" encoding="utf-8"?>
<!-- Generator: Adobe Illustrator 22.1.0, SVG Export Plug-In . SVG Version: 6.00 Build 0)  -->
<svg version="1.1" id="Layer_1" xmlns="http://www.w3.org/2000/svg" xmlns:xlink="http://www.w3.org/1999/xlink" x="0px" y="0px"
	 viewBox="0 0 1600 960" style="enable-background:new 0 0 1600 960;" xml:space="preserve">
<style type="text/css">
	.st0{fill:#55C7F3;}
	.st1{fill:#8347AD;}
	.st2{fill:none;}
	.st3{fill:#FDB71A;}
</style>
<g>
	<path class="st0" d="M934,264.9c-7.5-3.2-16.1,0.3-19.3,7.7L817,500.3c-5.6-1.2-11.4-2-17.3-2c-44.1,0-79.8,36-79.2,80.3
		c0.6,42,36,77.4,78,78c44.2,0.6,80.3-35.1,80.3-79.1c0-27.3-13.8-51.4-34.9-65.6l97.8-227.7C944.9,276.7,941.5,268.1,934,264.9z
		 M843.2,588c-3.7,16.1-16.8,29.3-33,33c-29.2,6.7-55.3-15.4-55.3-43.5c0-24.7,20.1-44.7,44.7-44.7
		C827.8,532.7,849.9,558.8,843.2,588z"/>
	<path class="st1" d="M863.6,289.3c-20.4-4.8-41.7-7.5-63.6-7.5c-152.6,0-276.7,124.1-276.7,276.7c0,48.2,12.5,95,36.1,136.5h11.8
		h15.7c-26.2-40.8-40.1-87.9-40.1-136.5c0-139.6,113.6-253.2,253.2-253.2c18.6,0,36.7,2.2,54.2,6c1.5-3.5,2.8-6.6,4.1-9.5
		C860.4,296.9,862.1,292.8,863.6,289.3z"/>
	<g>
		<path class="st2" d="M1040.2,695h-27.5c26.4-40.9,40.5-88,40.5-136.5c0-82-39.3-154.7-99.9-201.1c3.8-8.9,6.9-16.3,9.5-22.5
			c14.5,10.6,27.9,22.6,40,35.7l80.1-71.3c-48-50.1-109.2-87.4-177.8-106.5l-46.8,108.9c2.1-4.9,3.9-9.1,5.4-12.5
			c-20.4-4.8-41.7-7.5-63.6-7.5c-152.6,0-276.7,124.1-276.7,276.7c0,48.2,12.5,95,36.1,136.5H428.2c10.1,30.2,23.7,59.3,41.1,86.5
			h660.9c34.6-53.7,55.1-114.4,60.5-177.4h-117.9C1067.4,636,1056.4,666.7,1040.2,695z"/>
		<path class="st2" d="M1098.7,316.8l-80.6,71.8c36.7,46.9,58.6,105.9,58.6,169.9c0,7.4-0.4,14.8-1,22.1h116.2
			c0.1-3.3,0.4-6.6,0.4-10C1192.3,473.9,1157,385.3,1098.7,316.8z"/>
		<path class="st3" d="M523.3,558.5c0-152.6,124.1-276.7,276.7-276.7c21.9,0,43.2,2.6,63.6,7.5c-1.5,3.4,41.4-96.4,41.4-96.4
			c-33.5-9.3-68.7-14.4-105.1-14.4c-216.3,0-392.3,175.9-392.3,392.2c0,42.7,7.1,84.5,20.4,124.4h131.2
			C535.7,653.5,523.3,606.7,523.3,558.5z"/>
		<path class="st1" d="M800,155c-229.2,0-415.7,186.5-415.7,415.7c0,81.8,23.8,161,68.9,229.1l3.5,5.3h686.2l3.5-5.2
			c45.5-68.3,69.5-147.5,69.5-229.1C1215.7,341.5,1029.2,155,800,155z M1130.1,781.5H469.3c-17.4-27.2-31-56.3-41.1-86.5
			c-13.3-39.8-20.4-81.7-20.4-124.4c0-216.3,176-392.2,392.3-392.2c36.4,0,71.6,5.1,105.1,14.4c68.7,19.1,129.8,56.5,177.8,106.5
			l-80.1,71.3c-12.2-13.1-25.5-25.2-40-35.7c-2.6,6.2-5.7,13.6-9.5,22.5c60.6,46.3,99.9,119.1,99.9,201.1
			c0,48.5-14.1,95.6-40.5,136.5h27.5c16.2-28.3,27.2-59,32.5-90.9h117.9C1185.3,667.1,1164.7,727.8,1130.1,781.5z M1075.8,580.6
			c0.6-7.3,1-14.7,1-22.1c0-64-21.9-123-58.6-169.9l80.6-71.8c58.3,68.5,93.6,157.1,93.6,253.9c0,3.3-0.3,6.6-0.4,10H1075.8z"/>
	</g>
</g>
</svg>
