<?xml version="1.0" encoding="utf-8"?>
<!-- Generator: Adobe Illustrator 22.0.1, SVG Export Plug-In . SVG Version: 6.00 Build 0)  -->
<svg version="1.1" id="Layer_1" xmlns="http://www.w3.org/2000/svg" xmlns:xlink="http://www.w3.org/1999/xlink" x="0px" y="0px"
	 viewBox="0 0 1600 960" style="enable-background:new 0 0 1600 960;" xml:space="preserve">
<style type="text/css">
	.st0{fill:#E17727;}
	.st1{fill:#8347AD;}
	.st2{fill:#50C7F3;}
	.st3{fill:#52C7F3;}
</style>
<g>
	<path class="st0" d="M880.2,519.5H713.7l0.3-9c0.5-17.8,1.3-36.2,2.4-55.2l17.5,1c-0.9,15.7-1.5,31-2.1,45.8h130.3
		c-0.5-14.8-1.2-30.1-2.1-45.8l17.5-1c1.1,19,1.8,37.4,2.4,55.2L880.2,519.5z"/>
	<path class="st0" d="M936.6,519.5H658l-0.8-7.8c-2.2-20.6-2.3-45.4-0.4-71.7c1.9-26.2,17.6-70.2,99.7-80.9
		C740.5,345.8,731,325.4,731,303c0-39.2,29.5-71.1,65.9-71.1s65.9,31.9,65.9,71.1c0,22.3-9.4,42.7-25.3,56c78,9.8,97.5,48.9,99.6,81
		c1.9,28.5,2,51.9,0.3,71.4L936.6,519.5z M673.8,502h246.6c1-17,0.7-37-0.9-60.8c-2.7-39.5-35.8-61.7-98.4-66.2l-8.1-0.6v-20.6
		l4.7-2.5c16.7-8.9,27.5-27.8,27.5-48.3c0-29.5-21.7-53.5-48.4-53.5c-26.7,0-48.3,24-48.3,53.5c0,20.5,10.8,39.4,27.5,48.3l4.7,2.5
		v20.7l-8.1,0.6c-43,3.2-94.9,17.3-98.4,66.2C672.6,463.3,672.5,484.1,673.8,502z"/>
	<path class="st1" d="M1003,561.1H590.8V502H1003V561.1z M608.3,543.5h377.1v-24H608.3V543.5z"/>
	<polygon class="st1" points="934.8,629.4 917.3,628 922.5,561.1 671.3,561.1 676.5,628 659,629.4 652.4,543.5 941.4,543.5 	"/>
	<polygon class="st2" points="903.3,629.2 891.6,628.3 894.6,589.1 699.2,589.1 702.2,628.3 690.5,629.2 686.6,577.5 907.2,577.5 	
		"/>
	<rect x="393.8" y="617.1" class="st1" width="820.9" height="23.3"/>
	<path class="st3" d="M1061.8,722.7H567.3c-6.4,0-11.7-5.2-11.7-11.7s5.2-11.7,11.7-11.7h494.4c6.4,0,11.7,5.2,11.7,11.7
		S1068.2,722.7,1061.8,722.7z"/>
	<path class="st1" d="M1132.4,728.6c-4.6,0-8.8-1.7-12.3-5.3c-3.5-3.1-5.3-7.7-5.3-12.3c0-4.9,2.1-9.5,5.3-12.6
		c4.6-4.6,12.6-6.3,18.9-3.5c2.1,0.7,4.2,2.1,6,3.5c1.4,1.7,2.8,3.9,3.5,6c1.1,2.1,1.4,4.2,1.4,6.7c0,4.6-1.7,9.1-5.3,12.3
		c-1.4,1.7-3.5,2.8-5.6,3.9C1136.9,727.9,1134.8,728.6,1132.4,728.6z"/>
	<polygon class="st1" points="456.6,681.1 456.6,740.9 509.6,711 	"/>
	<path class="st1" d="M1175.9,805H424.1c-22.4,0-40.6-18.2-40.6-40.6V195.6c0-4.8,0.9-9.6,2.7-14.3c6-15.7,21.2-26.3,37.9-26.3
		h751.9c16.7,0,31.9,10.6,37.9,26.3v0c1.8,4.7,2.7,9.5,2.7,14.3v568.8C1216.5,786.8,1198.3,805,1175.9,805z M424.1,178.3
		c-7.2,0-13.5,4.4-16.1,11.2c-0.8,2.1-1.2,4-1.2,6v568.8c0,9.5,7.7,17.3,17.3,17.3h751.9c9.5,0,17.3-7.7,17.3-17.3V195.6
		c0-2-0.4-4-1.2-6.1c-2.6-6.8-8.9-11.2-16.1-11.2H424.1z"/>
</g>
</svg>
