<?xml version="1.0" encoding="utf-8"?>
<!-- Generator: Adobe Illustrator 22.0.1, SVG Export Plug-In . SVG Version: 6.00 Build 0)  -->
<svg version="1.1" id="Layer_1" xmlns="http://www.w3.org/2000/svg" xmlns:xlink="http://www.w3.org/1999/xlink" x="0px" y="0px"
	 viewBox="0 0 1600 960" style="enable-background:new 0 0 1600 960;" xml:space="preserve">
<style type="text/css">
	.st0{fill:#80549C;}
	.st1{fill:#5AC5F1;}
</style>
<g>
	<path class="st0" d="M1035.9,805.7H565.7c-6,0-10.8-4.8-10.8-10.8V166.5c0-6,4.8-10.8,10.8-10.8h343.6c6,0,10.8,4.8,10.8,10.8
		v127.1h115.8c6,0,10.8,4.8,10.8,10.8v490.5C1046.6,800.9,1041.8,805.7,1035.9,805.7z M576.5,784.2h448.6v-469H909.3
		c-6,0-10.8-4.8-10.8-10.8V177.3h-322V784.2z"/>
	<path class="st0" d="M1035.9,315.2c-2.9,0-5.8-1.2-8-3.5L901.3,173.8c-4-4.4-3.7-11.2,0.7-15.3c4.4-4,11.2-3.7,15.2,0.6
		l126.6,137.9c4,4.4,3.7,11.2-0.7,15.3C1041.1,314.3,1038.5,315.2,1035.9,315.2z"/>
	<path class="st1" d="M947.7,389.8H653.8c-6,0-10.8-4.8-10.8-10.8c0-6,4.8-10.8,10.8-10.8h293.9c6,0,10.8,4.8,10.8,10.8
		C958.5,385,953.7,389.8,947.7,389.8z"/>
	<path class="st1" d="M947.7,462.2H653.8c-6,0-10.8-4.8-10.8-10.8c0-6,4.8-10.8,10.8-10.8h293.9c6,0,10.8,4.8,10.8,10.8
		C958.5,457.3,953.7,462.2,947.7,462.2z"/>
	<path class="st1" d="M947.7,534.5H653.8c-6,0-10.8-4.8-10.8-10.8c0-6,4.8-10.8,10.8-10.8h293.9c6,0,10.8,4.8,10.8,10.8
		C958.5,529.6,953.7,534.5,947.7,534.5z"/>
	<path class="st1" d="M879.9,611.3h-226c-6,0-10.8-4.8-10.8-10.8c0-6,4.8-10.8,10.8-10.8h226c6,0,10.8,4.8,10.8,10.8
		C890.7,606.5,885.8,611.3,879.9,611.3z"/>
</g>
</svg>
