<?xml version="1.0" encoding="utf-8"?>
<!-- Generator: Adobe Illustrator 22.0.1, SVG Export Plug-In . SVG Version: 6.00 Build 0)  -->
<svg version="1.1" id="Layer_1" xmlns="http://www.w3.org/2000/svg" xmlns:xlink="http://www.w3.org/1999/xlink" x="0px" y="0px"
	 viewBox="0 0 1600 960" style="enable-background:new 0 0 1600 960;" xml:space="preserve">
<style type="text/css">
	.st0{fill:#E37827;}
	.st1{fill:#8347AD;}
</style>
<g>
	<path class="st0" d="M757.9,607.1H425.8V352.3h332.2V607.1z M450.7,582.1H733V377.3H450.7V582.1z"/>
	<path class="st1" d="M818.2,805.8H432.3v-34.2h-13.6c-43.7,0-79.2-35.5-79.2-79.1V442H337l-90.7,66.3V269.9l93.2,66.3
		c1.7-42.2,36.5-76,79.1-76h271.1v-7.9h-30.4c-26.6,0-48.3-21.6-48.3-48.3s21.6-48.3,48.3-48.3h443.8c26.6,0,48.3,21.6,48.3,48.3
		s-21.6,48.3-48.3,48.3h-289v7.9h167.5c43.6,0,79.1,35.5,79.1,79.1V368h36c14.4-17,44-17,58.4,0h48.3l150.9-106v455.2l-150.9-106
		h-52.5c-13.8,12-36.1,12-50,0H1061v81.2c0,43.6-35.5,79.1-79.1,79.1H818.2V805.8z M457.3,780.8h335.9v-34.2h188.6
		c29.9,0,54.2-24.3,54.2-54.2V586.2h76.3l3.7,4.5c5.1,6.1,15.3,6.1,20.4,0l3.7-4.5h71.5l118,82.8V310.2L1211.7,393h-70.2l-3.6-6.5
		c-4.6-8.6-18.7-8.6-23.3,0l-3.6,6.5h-75v-53.6c0-29.9-24.3-54.2-54.2-54.2H789.4v-57.8h314c12.8,0,23.3-10.5,23.3-23.3
		s-10.5-23.3-23.3-23.3H659.5c-12.8,0-23.3,10.5-23.3,23.3s10.5,23.3,23.3,23.3h55.3v57.8H418.7c-29.9,0-54.2,24.3-54.2,54.2v21.8
		h-35.7l-57.5-42V459l57.6-42h35.6v275.4c0,29.9,24.3,54.2,54.2,54.2h38.6V780.8z"/>
</g>
</svg>
