<?xml version="1.0" encoding="utf-8"?>
<!-- Generator: Adobe Illustrator 23.0.4, SVG Export Plug-In . SVG Version: 6.00 Build 0)  -->
<svg version="1.1" id="Layer_1" xmlns="http://www.w3.org/2000/svg" xmlns:xlink="http://www.w3.org/1999/xlink" x="0px" y="0px"
	 viewBox="0 0 1600 960" style="enable-background:new 0 0 1600 960;" xml:space="preserve">
<style type="text/css">
	.st0{fill:#8347AD;}
	.st1{fill:#E17727;}
</style>
<g>
	<path class="st0" d="M1068.7,515l-10.7-10.7c15.6-15.6,24.1-36.2,24.1-58.2s-8.6-42.7-24.1-58.2L930.9,260.7
		c-15.6-15.6-36.2-24.1-58.2-24.1c-22,0-42.7,8.6-58.3,24.1L803.7,250c18.4-18.4,42.9-28.5,68.9-28.5c26,0,50.5,10.1,68.9,28.5
		l127.1,127.1c18.4,18.4,28.5,42.9,28.5,68.9S1087.1,496.5,1068.7,515z"/>
	<path class="st1" d="M1052.3,614.6c-13.4,0-26.9-5.1-37.1-15.3l-93.4-93.4c-9.9-9.9-15.4-23.1-15.4-37.1c0-14,5.5-27.2,15.4-37.1
		c20.5-20.4,53.8-20.4,74.2,0l93.4,93.4c9.9,9.9,15.4,23.1,15.4,37.1c0,14-5.5,27.2-15.4,37.1
		C1079.2,609.5,1065.8,614.6,1052.3,614.6z M1025.9,588.6c14.1,14.2,38.8,14.2,52.9,0c7.1-7.1,11-16.5,11-26.4
		c0-10-3.9-19.4-11-26.4l-93.4-93.4c-14.1-14.2-38.8-14.1-52.9,0c-7.1,7.1-11,16.5-11,26.4c0,10,3.9,19.4,11,26.4L1025.9,588.6z"/>
	<path class="st0" d="M615.1,691.6c-13.5,0-25.9-5.3-36.1-15.5c-13.3-13.3-23.1-34.2-5.9-63.2c-15.3,1.7-31.3-3.3-43-15
		c-20.5-20.5-20.5-53.8,0-74.3l182.5-182.5l10.7,10.7L540.8,534.4c-7.1,7.1-11,16.5-11,26.4s3.9,19.4,11,26.4
		c14.2,14.2,38.8,14.2,52.9,0l0,0l10.7,10.7c-41.1,41.1-21.2,61-14.7,67.6c8.2,8.2,18.3,11.8,29.2,10.8c10-1,20.2-6.1,28-13.9
		l10.7,10.7c-10.4,10.4-23.6,16.9-37.2,18.2C618.6,691.5,616.8,691.6,615.1,691.6z"/>
	<path class="st0" d="M763.1,798.8c-13.4,0-26.9-5.1-37.1-15.3c-34.3-34.3-12.8-61.4,14.2-88.5l10.7,10.7
		c-31.9,31.9-35,46.3-14.2,67.1c14.6,14.6,38.3,14.6,52.9,0l12-12l10.7,10.7l-12,12C790,793.7,776.5,798.8,763.1,798.8z"/>
	<path class="st1" d="M988.8,678.2c-14,0-27.2-5.5-37.1-15.4L835.5,546.8c-20.5-20.5-20.5-53.8,0-74.3c20.5-20.4,53.8-20.4,74.2,0
		l116.1,116.1c20.5,20.5,20.5,53.8,0,74.3C1016,672.8,1002.8,678.2,988.8,678.2z M872.7,472.2c-10,0-19.4,3.9-26.5,11
		c-7.1,7.1-11,16.5-11,26.4c0,10,3.9,19.4,11,26.4l116.1,116.1c14.1,14.1,38.8,14.1,52.9,0c7.1-7.1,11-16.5,11-26.4
		c0-10-3.9-19.4-11-26.4L899.1,483.2C892,476.1,882.6,472.2,872.7,472.2z"/>
	<path class="st1" d="M925.2,741.8c-13.4,0-26.9-5.1-37.1-15.3L772,610.3c-9.9-9.9-15.4-23.1-15.4-37.1c0-14,5.5-27.2,15.4-37.1
		c20.5-20.5,53.8-20.5,74.2,0l116.1,116.1c20.5,20.5,20.5,53.8,0,74.3C952.1,736.7,938.6,741.8,925.2,741.8z M898.7,715.7
		c14.6,14.6,38.3,14.6,52.9,0c14.6-14.6,14.6-38.3,0-52.9L835.5,546.8c-14.1-14.2-38.8-14.1-52.9,0c-7.1,7.1-11,16.5-11,26.4
		s3.9,19.4,11,26.4L898.7,715.7z"/>
	<path class="st1" d="M516,402.2L447.9,334l178.7-178.7l68.1,68.1L516,402.2z M469.2,334l46.8,46.8l157.3-157.3l-46.8-46.8
		L469.2,334z"/>
	<path class="st0" d="M1084.8,414.5L906.1,235.9l68.1-68.1l178.7,178.7L1084.8,414.5z M927.5,235.9l157.3,157.3l46.8-46.8
		L974.3,189.1L927.5,235.9z"/>
	<path class="st1" d="M549.9,504.2l-23.7-23.7c-14.7-14.7-22.8-34.2-22.8-55c0-20.8,8.1-40.3,22.8-55l155-155
		c26.4-26.3,72.4-26.4,98.7,0l105.7,105.7c20.9,20.9,20.9,54.9,0,75.8l-11.5,11.5c-26.4,26.3-72.4,26.3-98.7,0l-76.6-76.6l10.7-10.7
		l76.6,76.6c20.6,20.7,56.7,20.7,77.4,0l11.5-11.5c15-15,15-39.4,0-54.4L769.3,226.3c-20.7-20.7-56.7-20.7-77.4,0l-155,155
		c-11.8,11.8-18.4,27.5-18.4,44.3c0,16.8,6.5,32.5,18.4,44.3l23.7,23.7L549.9,504.2z"/>
	
		<rect x="568.9" y="562.4" transform="matrix(0.7078 -0.7065 0.7065 0.7078 -221.028 605.6893)" class="st0" width="105.4" height="15.1"/>
	<path class="st0" d="M688.8,746.3c-13.4,0-26.9-5.1-37.1-15.3c-20.5-20.5-20.5-53.8,0-74.2l60-60l10.7,10.7l-60,60
		c-14.6,14.6-14.6,38.3,0,52.9c14.6,14.5,38.3,14.6,52.9,0l24.9-25.2l10.8,10.6L726,730.9C715.7,741.2,702.2,746.3,688.8,746.3z"/>
	<path class="st1" d="M861.6,805.3c-13.4,0-26.9-5.1-37.1-15.3l-93.4-93.4c-9.9-9.9-15.4-23.1-15.4-37.1s5.5-27.2,15.4-37.1
		c20.5-20.4,53.8-20.4,74.2,0l93.4,93.4c9.9,9.9,15.4,23.1,15.4,37.1c0,14-5.5,27.2-15.4,37.1C888.5,800.2,875.1,805.3,861.6,805.3z
		 M835.2,779.3c14.2,14.2,38.8,14.2,52.9,0c7.1-7.1,11-16.5,11-26.4s-3.9-19.4-11-26.4L794.7,633c-14.1-14.2-38.8-14.1-52.9,0
		c-7.1,7.1-11,16.5-11,26.4s3.9,19.4,11,26.4L835.2,779.3z"/>
</g>
</svg>
