<?xml version="1.0" encoding="utf-8"?>
<!-- Generator: Adobe Illustrator 25.4.1, SVG Export Plug-In . SVG Version: 6.00 Build 0)  -->
<svg version="1.1" id="Layer_1" xmlns="http://www.w3.org/2000/svg" xmlns:xlink="http://www.w3.org/1999/xlink" x="0px" y="0px"
	 viewBox="0 0 1600 960" style="enable-background:new 0 0 1600 960;" xml:space="preserve">
<style type="text/css">
	.st0{fill:#E37828;}
	.st1{fill:#8347AD;}
</style>
<g>
	<path class="st0" d="M762.4,598.5h-322V351.5h322V598.5z M464.6,574.3h273.6V375.8H464.6V574.3z"/>
	<path class="st1" d="M820.9,791.1H446.8v-33.1h-13.2c-42.4,0-76.8-34.4-76.8-76.7V438.5h-2.4l-87.9,64.2V271.6l90.4,64.2
		c1.6-40.9,35.4-73.6,76.7-73.6h262.8v-7.6H667c-25.8,0-46.8-21-46.8-46.8s21-46.8,46.8-46.8h430.3c25.8,0,46.8,21,46.8,46.8
		s-21,46.8-46.8,46.8H817.1v7.6h162.4c42.3,0,76.7,34.4,76.7,76.7v27.8h34.9c14-16.5,42.6-16.5,56.6,0h46.9L1340.9,264v441.3
		l-146.3-102.8h-50.9c-13.4,11.6-35,11.6-48.4,0h-39v78.8c0,42.3-34.4,76.7-76.7,76.7H820.9V791.1z M471,766.9h325.7v-33.1h182.8
		c29,0,52.5-23.5,52.5-52.5v-103h74l3.6,4.3c4.9,5.9,14.8,5.9,19.8,0l3.6-4.3h69.3l114.4,80.3V310.7L1202.3,391h-68.1l-3.5-6.3
		c-4.5-8.4-18.1-8.4-22.6,0l-3.5,6.3H1032v-52c0-29-23.5-52.5-52.5-52.5H792.9v-56.1h304.3c12.4,0,22.6-10.2,22.6-22.6
		s-10.2-22.6-22.6-22.6H667c-12.4,0-22.6,10.2-22.6,22.6s10.2,22.6,22.6,22.6h53.7v56.1H433.6c-29,0-52.6,23.5-52.6,52.5v21.1h-34.6
		l-55.7-40.7v135.5l55.8-40.7H381v267c0,29,23.6,52.5,52.6,52.5H471V766.9z"/>
</g>
</svg>
