<?xml version="1.0" encoding="utf-8"?>
<!-- Generator: Adobe Illustrator 25.2.0, SVG Export Plug-In . SVG Version: 6.00 Build 0)  -->
<svg version="1.1" xmlns="http://www.w3.org/2000/svg" xmlns:xlink="http://www.w3.org/1999/xlink" x="0px" y="0px"
	 viewBox="0 0 529.4 583.2" style="enable-background:new 0 0 529.4 583.2;" xml:space="preserve">
<style type="text/css">
	.st0{fill:#FFFFFF;}
	.st1{fill:#FBFAFA;}
	.st2{fill:none;stroke:#D6D9DE;stroke-width:0.7;stroke-miterlimit:10;}
	.st3{fill:none;stroke:#5C5C5C;stroke-width:2.68;stroke-miterlimit:10;}
	.st4{fill:none;}
	.st5{fill:#3779A2;}
	.st6{fill:#ADBAC4;}
	.st7{fill:#A4A4A4;}
	.st8{fill:none;stroke:#A4A4A4;stroke-width:1.28;stroke-miterlimit:10;}
	.st9{fill:none;stroke:#A4A4A4;stroke-width:1.5;stroke-miterlimit:10;}
	.st10{fill:#5C5C5C;}
</style>
<g id="Layer_2">
	<rect class="st0" width="529.4" height="583.2"/>
</g>
<g id="Layer_1">
	<g id="light_gray_square">
		<rect x="30.3" y="285.2" class="st1" width="239.6" height="239.6"/>
		<rect x="270.5" y="45.5" class="st1" width="239.6" height="239.6"/>
	</g>
	<g id="squares">
		<rect x="30.2" y="285.2" class="st2" width="239.5" height="240.1"/>
		<rect x="269.9" y="43.9" class="st2" width="240.4" height="241.4"/>
		<g id="borders">
			<rect x="30.1" y="44.4" class="st3" width="480.7" height="480.9"/>
		</g>
	</g>
	<g id="_2023_dots_Gartner">
		<rect x="29" y="45.9" class="st4" width="481.2" height="480.7"/>
		<rect x="29" y="45.9" class="st4" width="481.2" height="480.7"/>
		<path d="M15.8,23v-9.2H22v1.5h-4.4v2.2h3.8V19h-3.8v4H15.8L15.8,23z"/>
		<path d="M23.5,15.3v-1.6h1.7v1.6H23.5z M23.5,23v-6.7h1.7V23H23.5z"/>
		<path d="M26.9,23.4l2,0.2c0,0.2,0.1,0.4,0.2,0.5s0.5,0.2,0.8,0.2c0.5,0,0.8-0.1,1-0.2c0.1-0.1,0.2-0.2,0.4-0.5
			c0-0.1,0.1-0.5,0.1-0.8v-0.9c-0.6,0.7-1.1,1-2,1c-0.9,0-1.6-0.4-2.1-1.2c-0.5-0.6-0.6-1.3-0.6-2.2c0-1.2,0.2-2,0.8-2.6
			s1.1-0.9,2-0.9s1.5,0.4,2,1v-0.8h1.6v6c0,0.8-0.1,1.4-0.2,1.8s-0.3,0.7-0.6,0.9s-0.6,0.4-0.9,0.5c-0.4,0.1-0.9,0.2-1.5,0.2
			c-1.1,0-2-0.2-2.4-0.6c-0.5-0.4-0.7-0.9-0.7-1.5C26.8,23.5,26.9,23.5,26.9,23.4L26.9,23.4z M28.4,19.4c0,0.7,0.1,1.2,0.5,1.5
			c0.2,0.4,0.6,0.5,1,0.5s0.8-0.1,1-0.5c0.4-0.4,0.5-0.8,0.5-1.5s-0.1-1.2-0.5-1.5s-0.7-0.5-1-0.5c-0.5,0-0.8,0.1-1,0.5
			C28.6,18.3,28.3,18.9,28.4,19.4z"/>
		<path d="M39,23V22c-0.2,0.4-0.6,0.6-0.9,0.8c-0.5,0.1-0.8,0.2-1.3,0.2s-0.8-0.1-1.2-0.4s-0.6-0.5-0.8-0.8s-0.2-0.8-0.2-1.5v-4.1
			h1.7v3c0,0.9,0,1.5,0.1,1.8s0.2,0.4,0.3,0.5c0.2,0.1,0.3,0.2,0.7,0.2s0.6-0.1,0.8-0.2s0.3-0.4,0.5-0.6s0.1-0.8,0.1-1.8v-2.9h1.7
			v6.7L39,23L39,23z"/>
		<path d="M44.1,23h-1.7v-6.7H44v0.9c0.2-0.5,0.6-0.7,0.7-0.9c0.2-0.1,0.5-0.2,0.8-0.2s0.8,0.1,1.2,0.4L46.1,18
			c-0.3-0.2-0.6-0.2-0.8-0.2s-0.5,0.1-0.6,0.2c-0.1,0.1-0.3,0.4-0.3,0.7c-0.1,0.4-0.1,1-0.1,2.2L44.1,23L44.1,23L44.1,23z"/>
		<path d="M51.3,20.8l1.7,0.2c-0.2,0.7-0.6,1.2-1,1.5s-1,0.5-1.8,0.5c-1.2,0-2-0.4-2.5-1.2c-0.5-0.6-0.7-1.4-0.7-2.3
			c0-1,0.2-2,0.8-2.6S49,16,49.9,16s1.7,0.4,2.3,0.9c0.6,0.7,0.8,1.6,0.8,3h-4.4c0,0.5,0.1,0.9,0.5,1.2c0.3,0.5,0.6,0.6,1,0.6
			c0.2,0,0.5-0.1,0.7-0.2C51,21.4,51.2,21.2,51.3,20.8L51.3,20.8z M51.3,19.1c0-0.5-0.1-0.9-0.3-1.2s-0.6-0.4-0.9-0.4
			s-0.7,0.1-0.9,0.5c-0.2,0.4-0.3,0.7-0.3,1.2h2.5L51.3,19.1L51.3,19.1z"/>
		<path d="M62.1,23h-1.7v-6.7c-0.7,0.6-1.4,1-2.2,1.3V16c0.5-0.1,0.9-0.5,1.5-0.8c0.6-0.5,0.9-0.9,1.2-1.5h1.4L62.1,23L62.1,23
			L62.1,23z"/>
		<path d="M65.3,18v-1.8H67V18H65.3z M65.3,23v-1.8H67V23H65.3z"/>
		<path d="M72.8,23v-9.2h2.8l1.6,6.3l1.6-6.3h2.8V23h-1.7v-7.3L78,23h-1.7l-1.8-7.3V23H72.8L72.8,23z"/>
		<path d="M84.6,18.3L83,18c0.2-0.7,0.5-1.2,0.9-1.4s1-0.5,2-0.5c0.8,0,1.4,0.1,1.7,0.2c0.3,0.2,0.7,0.5,0.8,0.7
			c0.1,0.4,0.2,0.8,0.2,1.6v2.1c0,0.6,0,1,0.1,1.3c0,0.2,0.1,0.6,0.3,0.9h-1.7c0-0.1-0.1-0.2-0.1-0.5c0-0.1,0-0.2-0.1-0.2
			c-0.3,0.4-0.6,0.5-0.9,0.7s-0.7,0.2-1,0.2c-0.7,0-1.2-0.2-1.6-0.6c-0.3-0.4-0.6-0.8-0.6-1.4c0-0.4,0.1-0.7,0.2-1
			c0.2-0.4,0.5-0.5,0.7-0.7c0.3-0.1,0.8-0.4,1.4-0.5c0.8-0.1,1.4-0.4,1.7-0.5v-0.2c0-0.4-0.1-0.6-0.2-0.7c-0.1-0.1-0.5-0.2-0.9-0.2
			c-0.3,0-0.6,0.1-0.7,0.2C84.9,17.8,84.6,18,84.6,18.3z M86.9,19.8c-0.2,0.1-0.6,0.1-1,0.2s-0.8,0.2-0.9,0.4
			c-0.2,0.1-0.3,0.4-0.3,0.6s0.1,0.5,0.2,0.6s0.5,0.2,0.7,0.2c0.3,0,0.6-0.1,0.9-0.4c0.2-0.1,0.3-0.4,0.5-0.6c0-0.1,0.1-0.5,0.1-0.8
			L86.9,19.8L86.9,19.8L86.9,19.8z"/>
		<path d="M90.2,23.4l2,0.2c0,0.2,0.1,0.4,0.2,0.5c0.1,0.1,0.5,0.2,0.8,0.2c0.5,0,0.8-0.1,1-0.2c0.1-0.1,0.2-0.2,0.3-0.5
			c0-0.1,0.1-0.5,0.1-0.8v-0.9c-0.6,0.7-1.2,1-2,1c-0.9,0-1.6-0.4-2.1-1.2c-0.5-0.6-0.6-1.3-0.6-2.2c0-1.2,0.2-2,0.8-2.6
			s1.2-0.9,2-0.9s1.5,0.4,2,1v-0.8h1.6v6c0,0.8-0.1,1.4-0.2,1.8s-0.3,0.7-0.6,0.9s-0.6,0.4-0.9,0.5c-0.3,0.1-0.9,0.2-1.5,0.2
			c-1.2,0-2-0.2-2.4-0.6s-0.7-0.9-0.7-1.5C90.1,23.5,90.2,23.5,90.2,23.4L90.2,23.4z M91.8,19.4c0,0.7,0.1,1.2,0.5,1.5
			c0.2,0.4,0.6,0.5,1,0.5s0.8-0.1,1-0.5c0.3-0.4,0.5-0.8,0.5-1.5s-0.1-1.2-0.5-1.5s-0.7-0.5-1-0.5c-0.5,0-0.8,0.1-1,0.5
			C91.9,18.3,91.8,18.9,91.8,19.4z"/>
		<path d="M98.1,15.3v-1.6h1.7v1.6H98.1z M98.1,23v-6.7h1.7V23H98.1z"/>
		<path d="M107.3,18.3l-1.7,0.4c-0.1-0.4-0.2-0.6-0.3-0.8c-0.2-0.2-0.5-0.2-0.8-0.2c-0.5,0-0.8,0.1-1,0.5c-0.2,0.4-0.3,0.8-0.3,1.5
			c0,0.8,0.1,1.4,0.3,1.6c0.2,0.4,0.6,0.5,1,0.5c0.3,0,0.6-0.1,0.8-0.2c0.2-0.2,0.3-0.5,0.5-0.9l1.7,0.4c-0.2,0.8-0.5,1.4-1,1.8
			s-1.2,0.6-2.1,0.6s-1.7-0.4-2.3-0.9s-0.8-1.5-0.8-2.6s0.2-2,0.8-2.6s1.4-0.9,2.3-0.9c0.8,0,1.4,0.1,2,0.5
			C106.7,17,107.1,17.6,107.3,18.3z"/>
		<path d="M119.4,21.8c0.5,0.4,0.9,0.6,1.5,0.8l-0.7,1.3c-0.2-0.1-0.6-0.2-0.8-0.4c-0.1,0-0.5-0.4-1.3-0.8c-0.5,0.2-1.2,0.4-1.8,0.4
			c-1.4,0-2.5-0.5-3.2-1.3c-0.8-0.8-1.2-2-1.2-3.5s0.3-2.7,1.2-3.5c0.7-0.7,1.7-1.2,3.1-1.2s2.4,0.5,3.2,1.3c0.8,0.8,1.2,2,1.2,3.5
			c0,0.8-0.1,1.5-0.3,2.1C120.1,21,119.9,21.3,119.4,21.8L119.4,21.8z M118,20.7c0.2-0.2,0.5-0.6,0.6-1c0.1-0.4,0.2-0.8,0.2-1.4
			c0-1-0.2-1.9-0.7-2.3s-1-0.8-1.8-0.8s-1.5,0.4-2,0.8c-0.5,0.6-0.7,1.3-0.7,2.3s0.2,1.9,0.7,2.5s1,0.8,1.7,0.8c0.2,0,0.5,0,0.7-0.1
			c-0.3-0.2-0.7-0.5-1.2-0.6l0.7-1C116.9,20,117.5,20.4,118,20.7L118,20.7z"/>
		<path d="M126.3,23V22c-0.2,0.4-0.6,0.6-0.9,0.8s-0.8,0.4-1.3,0.4s-0.8-0.1-1.2-0.4s-0.6-0.5-0.8-0.8s-0.2-0.8-0.2-1.5v-4.2h1.7v3
			c0,0.9,0,1.5,0.1,1.8s0.2,0.4,0.3,0.5c0.2,0.1,0.3,0.2,0.7,0.2s0.6-0.1,0.8-0.2s0.3-0.4,0.5-0.6s0.1-0.8,0.1-1.8v-2.9h1.7v6.7
			L126.3,23L126.3,23z"/>
		<path d="M131,18.3l-1.6-0.2c0.2-0.7,0.5-1.2,0.9-1.4s1-0.5,2-0.5c0.8,0,1.4,0.1,1.7,0.2c0.4,0.2,0.7,0.5,0.8,0.7s0.2,0.8,0.2,1.6
			v2.1c0,0.6,0,1,0.1,1.3c0,0.2,0.1,0.6,0.4,0.9h-1.7c0-0.1-0.1-0.2-0.1-0.5c0-0.1,0-0.2-0.1-0.2c-0.4,0.4-0.6,0.5-0.9,0.7
			s-0.7,0.2-1,0.2c-0.7,0-1.1-0.2-1.6-0.6c-0.4-0.4-0.6-0.8-0.6-1.4c0-0.4,0.1-0.7,0.2-1c0.2-0.4,0.5-0.5,0.7-0.7
			c0.4-0.1,0.8-0.4,1.4-0.5c0.8-0.1,1.4-0.4,1.7-0.5v-0.2c0-0.4-0.1-0.6-0.2-0.7s-0.5-0.2-0.9-0.2c-0.4,0-0.6,0.1-0.7,0.2
			C131.3,17.8,131.2,18,131,18.3L131,18.3z M133.3,19.8c-0.2,0.1-0.6,0.1-1,0.2s-0.8,0.2-0.9,0.4c-0.2,0.1-0.4,0.4-0.4,0.6
			s0.1,0.5,0.2,0.6s0.5,0.2,0.7,0.2c0.4,0,0.6-0.1,0.9-0.4c0.2-0.1,0.4-0.4,0.5-0.6c0-0.1,0.1-0.5,0.1-0.8L133.3,19.8L133.3,19.8
			L133.3,19.8z"/>
		<path d="M142.8,23h-1.6V22c-0.2,0.4-0.6,0.7-0.9,0.8c-0.4,0.2-0.7,0.2-1.1,0.2c-0.8,0-1.4-0.4-2-0.9s-0.8-1.5-0.8-2.6
			c0-1.2,0.2-2,0.8-2.6s1.1-0.9,2-0.9c0.7,0,1.4,0.4,2,0.9v-3.3h1.7L142.8,23L142.8,23z M138.2,19.4c0,0.7,0.1,1.2,0.4,1.5
			c0.2,0.5,0.7,0.7,1.1,0.7c0.4,0,0.7-0.1,1-0.5c0.2-0.4,0.5-0.8,0.5-1.5c0-0.8-0.1-1.3-0.5-1.6c-0.2-0.4-0.6-0.5-1-0.5
			s-0.8,0.1-1,0.5C138.3,18.3,138.2,18.9,138.2,19.4z"/>
		<path d="M146.1,23h-1.7v-6.7h1.6v0.9c0.2-0.5,0.6-0.7,0.7-0.9c0.2-0.1,0.5-0.2,0.8-0.2s0.8,0.1,1.1,0.4l-0.6,1.5
			c-0.4-0.2-0.6-0.2-0.8-0.2s-0.5,0.1-0.6,0.2c-0.1,0.1-0.4,0.4-0.4,0.7c-0.1,0.4-0.1,1-0.1,2.2L146.1,23L146.1,23L146.1,23z"/>
		<path d="M150.7,18.3l-1.6-0.2c0.2-0.7,0.5-1.2,0.9-1.4s1-0.5,2-0.5c0.8,0,1.4,0.1,1.7,0.2c0.4,0.2,0.7,0.5,0.8,0.7
			s0.2,0.8,0.2,1.6v2.1c0,0.6,0,1,0.1,1.3c0,0.2,0.1,0.6,0.4,0.9h-1.7c0-0.1-0.1-0.2-0.1-0.5c0-0.1,0-0.2-0.1-0.2
			c-0.4,0.4-0.6,0.5-0.9,0.7s-0.7,0.2-1,0.2c-0.7,0-1.1-0.2-1.6-0.6c-0.4-0.4-0.6-0.8-0.6-1.4c0-0.4,0.1-0.7,0.2-1
			c0.2-0.4,0.5-0.5,0.7-0.7c0.4-0.1,0.8-0.4,1.4-0.5c0.8-0.1,1.4-0.4,1.7-0.5v-0.2c0-0.4-0.1-0.6-0.2-0.7s-0.5-0.2-0.9-0.2
			c-0.4,0-0.6,0.1-0.7,0.2C151,17.8,150.8,18,150.7,18.3L150.7,18.3z M153,19.8c-0.2,0.1-0.6,0.1-1,0.2s-0.8,0.2-0.9,0.4
			c-0.2,0.1-0.4,0.4-0.4,0.6s0.1,0.5,0.2,0.6s0.5,0.2,0.7,0.2c0.4,0,0.6-0.1,0.9-0.4c0.2-0.1,0.4-0.4,0.5-0.6c0-0.1,0.1-0.5,0.1-0.8
			L153,19.8L153,19.8L153,19.8z"/>
		<path d="M162.5,23h-1.7v-3.4c0-0.7,0-1.2-0.1-1.4s-0.2-0.4-0.4-0.5c-0.1-0.1-0.4-0.2-0.6-0.2c-0.4,0-0.6,0.1-0.8,0.2
			s-0.5,0.4-0.5,0.7c-0.1,0.2-0.1,0.8-0.1,1.5v3h-1.7v-6.7h1.6v0.9c0.6-0.7,1.3-1.2,2.2-1.2c0.4,0,0.7,0.1,1,0.2
			c0.4,0.1,0.6,0.4,0.7,0.6s0.2,0.5,0.4,0.7s0.1,0.7,0.1,1.2v4.2L162.5,23L162.5,23z"/>
		<path d="M167.2,16.3v1.4H166v3.6c0,0.1,0.1,0.1,0.1,0.2c0.1,0.1,0.2,0.1,0.4,0.1s0.4,0,0.7-0.1l0.1,1.4c-0.5,0.2-0.8,0.2-1.4,0.2
			c-0.4,0-0.6,0-0.8-0.1s-0.5-0.2-0.6-0.5c-0.1-0.1-0.2-0.4-0.2-0.7v-4.2h-0.8v-1.4h0.8V15l1.7-1.1v2.3L167.2,16.3L167.2,16.3z"/>
		<path d="M171.2,16.3h0.9v-0.5c0-0.6,0.1-0.9,0.2-1.3c0.1-0.2,0.4-0.5,0.7-0.7c0.4-0.1,0.7-0.2,1.1-0.2s1,0.1,1.5,0.2l-0.2,1.3
			c-0.2-0.1-0.6-0.1-0.8-0.1s-0.5,0.1-0.6,0.2s-0.1,0.4-0.1,0.7v0.5h1.3v1.4h-1.4v5.1h-1.7v-5.3h-0.9L171.2,16.3L171.2,16.3z"/>
		<path d="M175.8,19.5c0-0.6,0.1-1.2,0.5-1.8s0.7-0.9,1.3-1.3c0.6-0.2,1.1-0.5,1.7-0.5c1,0,1.8,0.4,2.4,0.9c0.7,0.7,0.9,1.5,0.9,2.5
			c0,1-0.4,1.9-0.9,2.5c-0.7,0.7-1.5,1-2.4,1c-0.6,0-1.1-0.1-1.7-0.5c-0.6-0.2-0.9-0.7-1.3-1.2C175.9,20.9,175.8,20.2,175.8,19.5
			L175.8,19.5z M177.5,19.7c0,0.7,0.1,1.2,0.5,1.5s0.7,0.6,1.1,0.6s0.8-0.2,1.1-0.6s0.5-0.8,0.5-1.5s-0.1-1.2-0.5-1.5
			c-0.4-0.4-0.7-0.6-1.1-0.6s-0.8,0.2-1.1,0.6S177.5,19,177.5,19.7z"/>
		<path d="M185.6,23h-1.7v-6.7h1.6v0.9c0.2-0.5,0.6-0.7,0.7-0.9c0.2-0.1,0.5-0.2,0.8-0.2s0.8,0.1,1.1,0.4l-0.6,1.5
			c-0.4-0.2-0.6-0.2-0.8-0.2s-0.5,0.1-0.6,0.2c-0.1,0.1-0.4,0.4-0.4,0.7c-0.1,0.4-0.1,1-0.1,2.2L185.6,23L185.6,23L185.6,23z"/>
		<path d="M200.1,23H198l-0.8-2.1h-3.6l-0.8,2.1h-2l3.6-9.2h2L200.1,23L200.1,23z M196.7,19.3l-1.1-3.4l-1.3,3.4H196.7z"/>
		<path d="M201,16.3h1.6v0.9c0.2-0.4,0.5-0.6,0.8-0.8s0.8-0.4,1.1-0.4c0.8,0,1.4,0.4,2,0.9s0.8,1.4,0.8,2.6s-0.2,2-0.8,2.6
			s-1.1,0.9-2,0.9c-0.4,0-0.7-0.1-1-0.2c-0.4-0.1-0.6-0.4-0.9-0.7v3.4h-1.7v-9.2L201,16.3L201,16.3z M202.6,19.6
			c0,0.7,0.1,1.3,0.5,1.6c0.4,0.4,0.7,0.6,1,0.6c0.5,0,0.7-0.1,1-0.5c0.2-0.4,0.4-0.8,0.4-1.6c0-0.7-0.1-1.2-0.5-1.5s-0.6-0.5-1-0.5
			s-0.8,0.1-1,0.5C202.9,18.4,202.6,18.9,202.6,19.6L202.6,19.6z"/>
		<path d="M208.7,16.3h1.6v0.9c0.2-0.4,0.5-0.6,0.8-0.8s0.8-0.4,1.1-0.4c0.8,0,1.4,0.4,2,0.9s0.8,1.4,0.8,2.6s-0.2,2-0.8,2.6
			s-1.1,0.9-2,0.9c-0.4,0-0.7-0.1-1-0.2c-0.4-0.1-0.6-0.4-0.9-0.7v3.4h-1.7v-9.2L208.7,16.3L208.7,16.3z M210.5,19.6
			c0,0.7,0.1,1.3,0.5,1.6c0.4,0.4,0.7,0.6,1,0.6c0.5,0,0.7-0.1,1-0.5c0.2-0.4,0.4-0.8,0.4-1.6c0-0.7-0.1-1.2-0.5-1.5s-0.6-0.5-1-0.5
			s-0.8,0.1-1,0.5C210.6,18.4,210.5,18.9,210.5,19.6L210.5,19.6z"/>
		<path d="M216.4,23v-9.2h1.7V23H216.4z"/>
		<path d="M220,15.3v-1.6h1.7v1.6H220z M220,23v-6.7h1.7V23H220z"/>
		<path d="M229.2,18.3l-1.7,0.4c-0.1-0.4-0.2-0.6-0.4-0.8c-0.2-0.2-0.5-0.2-0.8-0.2c-0.5,0-0.8,0.1-1,0.5s-0.4,0.8-0.4,1.5
			c0,0.8,0.1,1.4,0.4,1.6c0.2,0.4,0.6,0.5,1,0.5c0.4,0,0.6-0.1,0.8-0.2c0.2-0.2,0.4-0.5,0.5-0.9l1.7,0.4c-0.2,0.8-0.5,1.4-1,1.8
			s-1.1,0.6-2.1,0.6s-1.7-0.4-2.3-0.9s-0.8-1.5-0.8-2.6s0.2-2,0.8-2.6s1.4-0.9,2.3-0.9c0.8,0,1.4,0.1,2,0.5
			C228.7,17,229,17.6,229.2,18.3z"/>
		<path d="M231.9,18.3l-1.6-0.2c0.2-0.7,0.5-1.2,0.9-1.4s1-0.5,2-0.5c0.8,0,1.4,0.1,1.7,0.2c0.4,0.2,0.7,0.5,0.8,0.7
			c0.1,0.2,0.2,0.8,0.2,1.6v2.1c0,0.6,0,1,0.1,1.3c0,0.2,0.1,0.6,0.4,0.9h-1.7c0-0.1-0.1-0.2-0.1-0.5c0-0.1,0-0.2-0.1-0.2
			c-0.4,0.4-0.6,0.5-0.9,0.7s-0.7,0.2-1,0.2c-0.7,0-1.1-0.2-1.6-0.6c-0.4-0.4-0.6-0.8-0.6-1.4c0-0.4,0.1-0.7,0.2-1
			c0.2-0.4,0.5-0.5,0.7-0.7c0.4-0.1,0.8-0.4,1.4-0.5c0.8-0.1,1.4-0.4,1.7-0.5v-0.2c0-0.4-0.1-0.6-0.2-0.7c-0.1-0.1-0.5-0.2-0.9-0.2
			c-0.4,0-0.6,0.1-0.7,0.2C232.1,17.8,232,18,231.9,18.3L231.9,18.3z M234.2,19.8c-0.2,0.1-0.6,0.1-1,0.2s-0.8,0.2-0.9,0.4
			c-0.2,0.1-0.4,0.4-0.4,0.6s0.1,0.5,0.2,0.6s0.5,0.2,0.7,0.2c0.4,0,0.6-0.1,0.9-0.4c0.2-0.1,0.4-0.4,0.5-0.6c0-0.1,0.1-0.5,0.1-0.8
			v-0.2H234.2L234.2,19.8z"/>
		<path d="M240.6,16.3v1.4h-1.1v3.6c0,0.1,0.1,0.1,0.1,0.2c0.1,0.1,0.2,0.1,0.4,0.1s0.4,0,0.7-0.1l0.1,1.4c-0.5,0.2-0.8,0.2-1.4,0.2
			c-0.4,0-0.6,0-0.8-0.1s-0.5-0.2-0.6-0.5c-0.1-0.1-0.2-0.4-0.2-0.7v-4.2H237v-1.4h0.8V15l1.7-1.1v2.3L240.6,16.3L240.6,16.3z"/>
		<path d="M241.8,15.3v-1.6h1.7v1.6H241.8z M241.8,23v-6.7h1.7V23H241.8z"/>
		<path d="M245,19.5c0-0.6,0.1-1.2,0.5-1.8s0.7-0.9,1.3-1.3c0.6-0.2,1.1-0.5,1.7-0.5c1,0,1.8,0.4,2.4,0.9c0.7,0.7,0.9,1.5,0.9,2.5
			c0,1-0.4,1.9-0.9,2.5c-0.7,0.7-1.5,1-2.4,1c-0.6,0-1.1-0.1-1.7-0.5c-0.6-0.2-0.9-0.7-1.3-1.2C245.1,20.9,245,20.2,245,19.5
			L245,19.5z M246.7,19.7c0,0.7,0.1,1.2,0.5,1.5s0.7,0.6,1.1,0.6s0.8-0.2,1.1-0.6s0.5-0.8,0.5-1.5s-0.1-1.2-0.5-1.5
			c-0.4-0.4-0.7-0.6-1.1-0.6s-0.8,0.2-1.1,0.6S246.7,19,246.7,19.7z"/>
		<path d="M259,23h-1.7v-3.4c0-0.7,0-1.2-0.1-1.4s-0.2-0.4-0.4-0.5c-0.1-0.1-0.4-0.2-0.6-0.2c-0.4,0-0.6,0.1-0.8,0.2
			S255,18,255,18.4c-0.1,0.2-0.1,0.8-0.1,1.5v3h-1.7v-6.7h1.6v0.9c0.6-0.7,1.3-1.2,2.2-1.2c0.4,0,0.7,0.1,1,0.2
			c0.4,0.1,0.6,0.4,0.7,0.6s0.2,0.5,0.4,0.7s0.1,0.7,0.1,1.2L259,23L259,23L259,23z"/>
		<path d="M263.9,19.9l1.7-0.2c0.1,0.6,0.4,1,0.7,1.3s0.8,0.5,1.4,0.5s1-0.1,1.4-0.4c0.4-0.2,0.5-0.6,0.5-0.9c0-0.2-0.1-0.4-0.2-0.6
			c-0.1-0.1-0.4-0.2-0.7-0.4c-0.2-0.1-0.7-0.2-1.5-0.4c-1-0.2-1.7-0.6-2.1-0.9c-0.6-0.5-0.8-1.2-0.8-1.9c0-0.5,0.1-0.9,0.4-1.3
			s0.7-0.7,1.1-0.9s1-0.4,1.7-0.4c1.1,0,2,0.2,2.5,0.7c0.6,0.5,0.9,1.2,0.9,2l-1.8,0.1c-0.1-0.5-0.2-0.8-0.5-1.1s-0.7-0.4-1.1-0.4
			c-0.6,0-0.9,0.1-1.3,0.4c-0.2,0.1-0.4,0.4-0.4,0.6c0,0.2,0.1,0.3,0.2,0.6c0.2,0.2,0.8,0.4,1.7,0.6s1.5,0.5,2,0.7
			c0.5,0.2,0.8,0.6,1,0.9s0.4,0.9,0.4,1.5s-0.1,1-0.5,1.5s-0.7,0.8-1.3,1s-1.1,0.4-2,0.4c-1.1,0-2.1-0.2-2.6-0.8
			C264.3,21.8,264,21,263.9,19.9L263.9,19.9z"/>
		<path d="M276.5,20.8l1.7,0.4c-0.2,0.7-0.6,1.2-1,1.5s-1,0.5-1.8,0.5c-1.1,0-2-0.4-2.5-1.2c-0.5-0.6-0.7-1.4-0.7-2.3
			c0-1,0.2-2,0.8-2.6s1.3-0.9,2.2-0.9s1.7,0.4,2.3,0.9c0.6,0.7,0.8,1.6,0.8,3H274c0,0.5,0.1,0.9,0.5,1.2c0.2,0.2,0.6,0.5,1,0.5
			c0.2,0,0.5-0.1,0.7-0.2S276.6,21.2,276.5,20.8L276.5,20.8z M276.7,19.1c0-0.5-0.1-0.9-0.4-1.2s-0.6-0.4-0.9-0.4s-0.7,0.1-0.9,0.5
			c-0.2,0.4-0.4,0.7-0.4,1.2h2.5L276.7,19.1L276.7,19.1L276.7,19.1z"/>
		<path d="M285.5,18.3l-1.7,0.4c-0.1-0.4-0.2-0.6-0.4-0.8c-0.2-0.2-0.5-0.2-0.8-0.2c-0.5,0-0.8,0.1-1,0.5s-0.4,0.8-0.4,1.5
			c0,0.8,0.1,1.4,0.4,1.6c0.2,0.4,0.6,0.5,1,0.5c0.4,0,0.6-0.1,0.8-0.2c0.2-0.2,0.4-0.5,0.5-0.9l1.7,0.4c-0.2,0.8-0.5,1.4-1,1.8
			s-1.1,0.6-2.1,0.6s-1.7-0.4-2.3-0.9s-0.8-1.5-0.8-2.6s0.2-2,0.8-2.6s1.4-0.9,2.3-0.9c0.8,0,1.4,0.1,2,0.5
			C285.1,17,285.3,17.6,285.5,18.3L285.5,18.3z"/>
		<path d="M291.2,23V22c-0.2,0.4-0.6,0.6-0.9,0.8s-0.8,0.4-1.3,0.4s-0.8-0.1-1.1-0.4s-0.6-0.5-0.8-0.8s-0.2-0.8-0.2-1.5v-4.2h1.7v3
			c0,0.9,0,1.5,0.1,1.8s0.2,0.4,0.4,0.5s0.4,0.2,0.7,0.2s0.6-0.1,0.8-0.2s0.4-0.4,0.5-0.6c0.1-0.2,0.1-0.8,0.1-1.8v-2.9h1.7v6.7
			L291.2,23L291.2,23z"/>
		<path d="M296.2,23h-1.7v-6.7h1.6v0.9c0.2-0.5,0.6-0.7,0.7-0.9c0.2-0.1,0.5-0.2,0.8-0.2s0.8,0.1,1.1,0.4l-0.6,1.5
			c-0.4-0.2-0.6-0.2-0.8-0.2s-0.5,0.1-0.6,0.2c-0.1,0.1-0.4,0.4-0.4,0.7c-0.1,0.4-0.1,1-0.1,2.2L296.2,23L296.2,23L296.2,23z"/>
		<path d="M299.6,15.3v-1.6h1.7v1.6H299.6z M299.6,23v-6.7h1.7V23H299.6z"/>
		<path d="M306,16.3v1.4h-1.1v3.6c0,0.1,0.1,0.1,0.1,0.2c0.1,0.1,0.2,0.1,0.4,0.1s0.4,0,0.7-0.1l0.1,1.4c-0.5,0.2-0.8,0.2-1.4,0.2
			c-0.4,0-0.6,0-0.8-0.1s-0.5-0.2-0.6-0.5c-0.1-0.1-0.2-0.4-0.2-0.7v-4.2h-0.8v-1.4h0.8V15l1.7-1.1v2.3L306,16.3L306,16.3z"/>
		<path d="M306.5,16.3h1.8l1.6,4.7l1.5-4.7h1.8l-2.3,6.4l-0.5,1.2c-0.1,0.4-0.4,0.7-0.5,0.9s-0.4,0.4-0.5,0.5
			c-0.2,0.1-0.4,0.2-0.7,0.4c-0.2,0.1-0.6,0.1-0.9,0.1s-0.7,0-1-0.1l-0.1-1.4c0.2,0,0.5,0.1,0.7,0.1c0.5,0,0.7-0.1,0.9-0.4
			s0.4-0.6,0.5-0.9L306.5,16.3L306.5,16.3z"/>
		<path d="M319.8,23v-7.6h-2.6v-1.6h7.2v1.5h-2.6v7.7L319.8,23L319.8,23z"/>
		<path d="M328.5,20.8l1.7,0.4c-0.2,0.7-0.6,1.2-1,1.5s-1,0.5-1.8,0.5c-1.1,0-2-0.4-2.5-1.2c-0.5-0.6-0.7-1.4-0.7-2.3
			c0-1,0.2-2,0.8-2.6s1.3-0.9,2.2-0.9s1.7,0.4,2.3,0.9c0.6,0.7,0.8,1.6,0.8,3h-4.4c0,0.5,0.1,0.9,0.5,1.2c0.2,0.2,0.6,0.5,1,0.5
			c0.2,0,0.5-0.1,0.7-0.2S328.4,21.2,328.5,20.8L328.5,20.8z M328.6,19.1c0-0.5-0.1-0.9-0.4-1.2s-0.6-0.4-0.9-0.4s-0.7,0.1-0.9,0.5
			c-0.2,0.4-0.4,0.7-0.4,1.2h2.5L328.6,19.1L328.6,19.1L328.6,19.1z"/>
		<path d="M331.1,21.1l1.7-0.2c0.1,0.4,0.2,0.6,0.5,0.8c0.2,0.2,0.6,0.2,0.9,0.2c0.5,0,0.8-0.1,1-0.2c0.1-0.1,0.2-0.2,0.2-0.5
			c0-0.1,0-0.2-0.1-0.4s-0.2-0.1-0.6-0.2c-1.4-0.4-2.3-0.6-2.6-0.8c-0.6-0.4-0.8-0.8-0.8-1.5c0-0.6,0.2-1,0.7-1.4s1.1-0.6,2.1-0.6
			s1.6,0.1,2,0.5s0.7,0.7,0.9,1.3l-1.6,0.4c-0.1-0.2-0.2-0.5-0.4-0.6s-0.5-0.2-0.8-0.2c-0.5,0-0.8,0.1-1,0.2
			c-0.1,0.1-0.2,0.2-0.2,0.4s0,0.2,0.2,0.4c0.1,0.1,0.7,0.2,1.6,0.5s1.6,0.5,2,0.8s0.6,0.7,0.6,1.3s-0.2,1.2-0.8,1.5
			s-1.3,0.7-2.2,0.7s-1.6-0.2-2.1-0.6S331.2,21.7,331.1,21.1L331.1,21.1z"/>
		<path d="M341.7,16.3v1.4h-1.1v3.6c0,0.1,0.1,0.1,0.1,0.2c0.1,0.1,0.2,0.1,0.4,0.1s0.4,0,0.7-0.1l0.1,1.4c-0.5,0.2-0.8,0.2-1.4,0.2
			c-0.4,0-0.6,0-0.8-0.1s-0.5-0.2-0.6-0.5c-0.1-0.1-0.2-0.4-0.2-0.7v-4.2H338v-1.4h0.8V15l1.7-1.1v2.3L341.7,16.3L341.7,16.3z"/>
		<path d="M343,15.3v-1.6h1.7v1.6H343z M343,23v-6.7h1.7V23H343z"/>
		<path d="M352.4,23h-1.7v-3.4c0-0.7,0-1.2-0.1-1.4s-0.2-0.4-0.4-0.5c-0.1-0.1-0.4-0.2-0.6-0.2c-0.4,0-0.6,0.1-0.8,0.2
			c-0.2,0.1-0.4,0.4-0.5,0.7s-0.1,0.8-0.1,1.5v3h-1.7v-6.7h1.6v0.9c0.6-0.7,1.3-1.2,2.2-1.2c0.4,0,0.7,0.1,1,0.2
			c0.4,0.1,0.6,0.4,0.7,0.6s0.2,0.5,0.4,0.7s0.1,0.7,0.1,1.2L352.4,23L352.4,23L352.4,23z"/>
		<path d="M354,23.4l2,0.2c0,0.2,0.1,0.4,0.2,0.5c0.1,0.1,0.5,0.2,0.8,0.2c0.5,0,0.8-0.1,1-0.2c0.1-0.1,0.2-0.2,0.4-0.5
			c0-0.1,0.1-0.5,0.1-0.8v-0.9c-0.6,0.7-1.1,1-2,1c-0.9,0-1.6-0.4-2.1-1.2c-0.5-0.6-0.6-1.3-0.6-2.2c0-1.2,0.2-2,0.8-2.6
			s1.1-0.9,2-0.9s1.5,0.4,2,1v-0.8h1.6v6c0,0.8-0.1,1.4-0.2,1.8s-0.4,0.7-0.6,0.9s-0.6,0.4-0.9,0.5s-0.9,0.2-1.5,0.2
			c-1.1,0-2-0.2-2.4-0.6S353.9,24.1,354,23.4C354,23.5,354,23.5,354,23.4L354,23.4z M355.5,19.4c0,0.7,0.1,1.2,0.5,1.5
			c0.2,0.4,0.6,0.5,1,0.5s0.8-0.1,1-0.5c0.4-0.4,0.5-0.8,0.5-1.5s-0.1-1.2-0.5-1.5s-0.7-0.5-1-0.5c-0.5,0-0.8,0.1-1,0.5
			C355.7,18.3,355.5,18.9,355.5,19.4z"/>
		<circle class="st5" cx="414.9" cy="92.1" r="5.5"/>
		<circle class="st5" cx="344.4" cy="201.8" r="5.5"/>
		<circle class="st5" cx="300.1" cy="176.9" r="5.5"/>
		<circle class="st5" cx="358.3" cy="296.1" r="5.5"/>
		<circle class="st5" cx="389.9" cy="223.9" r="5.5"/>
		<path class="st6" d="M440.7,65.9H341c-1.1,0-2-0.9-2-2v-15c0-1.1,0.9-2,2-2h99.7c1.1,0,2,0.9,2,2v15
			C442.7,65,441.8,65.9,440.7,65.9z"/>
		<path class="st6" d="M199.8,66h-99.7c-1.1,0-2-0.9-2-2V49c0-1.1,0.9-2,2-2h99.7c1.1,0,2,0.9,2,2v15C201.8,65.1,200.9,66,199.8,66z
			"/>
		<circle class="st5" cx="173.8" cy="297" r="5.5"/>
		<circle class="st5" cx="237.4" cy="275.3" r="5.5"/>
		<circle class="st5" cx="186.1" cy="301" r="5.5"/>
		<circle class="st5" cx="286" cy="240.3" r="5.5"/>
		<circle class="st5" cx="297.6" cy="333" r="5.5"/>
		<circle class="st5" cx="256.9" cy="189.4" r="5.5"/>
		<path class="st6" d="M199.9,522.7h-99.7c-1.1,0-2-0.9-2-2v-15c0-1.1,0.9-2,2-2h99.7c1.1,0,2,0.9,2,2v15
			C201.9,521.8,201,522.7,199.9,522.7z"/>
		<path class="st6" d="M440.6,523.2h-99.7c-1.1,0-2-0.9-2-2v-15c0-1.1,0.9-2,2-2h99.7c1.1,0,2,0.9,2,2v15
			C442.6,522.3,441.7,523.2,440.6,523.2L440.6,523.2z"/>
		<polygon class="st7" points="18.4,352.3 14,362 18.5,359.5 22.4,361.6 		"/>
		<line class="st8" x1="18.5" y1="358.8" x2="18.5" y2="393.6"/>
		<polygon class="st7" points="234.3,539.7 225,535.6 227,539.6 224.7,543.5 		"/>
		<line class="st9" x1="228.4" y1="539.5" x2="193.1" y2="539.5"/>
		<circle class="st5" cx="255.6" cy="231.1" r="5.5"/>
	</g>
	<g id="Text">
		<path class="st5" d="M419.6,102.9l0.8-0.1c0,0.4,0.1,0.7,0.3,1c0.1,0.2,0.4,0.4,0.6,0.6s0.6,0.2,0.9,0.2c0.5,0,0.9-0.1,1.1-0.4
			c0.3-0.2,0.4-0.5,0.4-0.9c0-0.2,0-0.4-0.1-0.6c-0.1-0.2-0.2-0.3-0.4-0.4s-0.6-0.2-1.3-0.4c-0.6-0.2-1-0.3-1.2-0.5
			c-0.2-0.2-0.4-0.4-0.6-0.7c-0.1-0.3-0.2-0.6-0.2-0.9c0-0.6,0.2-1.1,0.6-1.5c0.4-0.4,0.9-0.6,1.6-0.6c0.5,0,0.9,0.1,1.2,0.3
			c0.3,0.2,0.6,0.4,0.8,0.8s0.3,0.7,0.3,1.2l-0.8,0.1c0-0.5-0.2-0.8-0.4-1.1s-0.6-0.3-1.1-0.3s-0.8,0.1-1.1,0.3
			c-0.2,0.2-0.4,0.5-0.4,0.8c0,0.3,0.1,0.5,0.3,0.7s0.6,0.3,1.2,0.5c0.6,0.2,1,0.3,1.3,0.4c0.4,0.2,0.7,0.4,0.9,0.8
			c0.2,0.3,0.3,0.7,0.3,1.1s-0.1,0.8-0.3,1.2c-0.2,0.3-0.5,0.6-0.8,0.8s-0.8,0.3-1.2,0.3c-0.8,0-1.4-0.2-1.8-0.7
			S419.6,103.7,419.6,102.9L419.6,102.9z"/>
		<path class="st5" d="M425.2,107.4l-0.1-0.9c0.2,0.1,0.3,0.1,0.4,0.1c0.2,0,0.3,0,0.4-0.1c0.1-0.1,0.2-0.2,0.3-0.3
			c0-0.1,0.1-0.3,0.3-0.9l-1.7-5.4h0.8l0.9,3.2c0.1,0.4,0.2,0.8,0.3,1.3c0.1-0.4,0.2-0.8,0.3-1.2l1-3.2h0.8l-1.7,5.5
			c-0.2,0.7-0.4,1.2-0.5,1.4c-0.1,0.2-0.3,0.4-0.4,0.5c-0.2,0.1-0.4,0.2-0.5,0.2C425.5,107.5,425.4,107.5,425.2,107.4L425.2,107.4z"
			/>
		<path class="st5" d="M429.3,105.3v-5.4h0.7v0.8c0.2-0.3,0.4-0.5,0.6-0.7s0.5-0.2,0.8-0.2c0.2,0,0.5,0.1,0.7,0.1s0.4,0.2,0.5,0.4
			s0.2,0.3,0.3,0.6s0.1,0.6,0.1,1.1v3.3h-0.8V102c0-0.4,0-0.7-0.1-0.9c-0.1-0.2-0.2-0.3-0.3-0.4s-0.3-0.2-0.5-0.2
			c-0.4,0-0.6,0.1-0.9,0.4c-0.2,0.3-0.3,0.7-0.3,1.4v3L429.3,105.3L429.3,105.3z"/>
		<path class="st5" d="M433.5,102.6c0-0.9,0.2-1.7,0.6-2.1c0.4-0.5,0.9-0.7,1.5-0.7s1.1,0.2,1.5,0.7s0.6,1.2,0.6,2.1
			c0,1-0.2,1.7-0.6,2.2c-0.4,0.5-0.9,0.7-1.5,0.7s-1.1-0.2-1.5-0.7C433.7,104.2,433.5,103.5,433.5,102.6L433.5,102.6z M434.2,102.6
			c0,0.7,0.1,1.2,0.4,1.6c0.3,0.3,0.6,0.5,1,0.5c0.4,0,0.7-0.2,0.9-0.5c0.2-0.3,0.4-0.9,0.4-1.6s-0.1-1.2-0.4-1.6
			c-0.3-0.3-0.6-0.5-1-0.5c-0.4,0-0.7,0.2-0.9,0.5S434.2,101.9,434.2,102.6z"/>
		<path class="st5" d="M438.3,107.4v-7.5h0.7v0.7c0.2-0.3,0.4-0.5,0.6-0.6s0.5-0.2,0.7-0.2c0.4,0,0.7,0.1,1,0.3s0.5,0.5,0.7,0.9
			c0.2,0.4,0.3,0.9,0.3,1.5c0,0.9-0.2,1.6-0.6,2.1c-0.4,0.5-0.8,0.8-1.4,0.8c-0.2,0-0.5-0.1-0.6-0.2c-0.2-0.1-0.4-0.3-0.5-0.5v2.7
			L438.3,107.4L438.3,107.4z M439,102.6c0,0.7,0.1,1.2,0.4,1.6c0.2,0.3,0.5,0.5,0.9,0.5s0.6-0.2,0.8-0.5s0.4-0.9,0.4-1.6
			s-0.1-1.2-0.4-1.6s-0.5-0.5-0.9-0.5c-0.3,0-0.6,0.2-0.8,0.6S439,101.9,439,102.6L439,102.6z"/>
		<path class="st5" d="M442.5,103.7l0.8-0.1c0,0.4,0.2,0.7,0.4,0.9c0.2,0.2,0.5,0.3,0.8,0.3s0.6-0.1,0.8-0.2
			c0.2-0.2,0.3-0.4,0.3-0.6c0-0.2-0.1-0.4-0.2-0.5c-0.1-0.1-0.4-0.2-0.8-0.3c-0.6-0.2-1-0.3-1.2-0.5s-0.4-0.3-0.5-0.5
			s-0.2-0.4-0.2-0.7c0-0.5,0.1-0.8,0.5-1.1s0.7-0.4,1.2-0.4c0.3,0,0.6,0.1,0.9,0.2s0.4,0.3,0.6,0.5s0.2,0.5,0.3,0.9l-0.7,0.1
			c-0.1-0.6-0.4-0.9-1-0.9c-0.3,0-0.6,0.1-0.7,0.2s-0.2,0.3-0.2,0.5s0.1,0.4,0.2,0.5c0.1,0.1,0.4,0.2,0.8,0.3c0.6,0.2,1,0.4,1.2,0.5
			s0.3,0.3,0.4,0.5c0.1,0.2,0.1,0.4,0.1,0.7c0,0.5-0.2,0.9-0.5,1.3s-0.8,0.5-1.4,0.5C443.3,105.5,442.6,104.9,442.5,103.7
			L442.5,103.7z"/>
		<path class="st5" d="M446.8,107.4l-0.1-0.9c0.2,0.1,0.3,0.1,0.4,0.1c0.2,0,0.3,0,0.4-0.1c0.1-0.1,0.2-0.2,0.3-0.3
			c0-0.1,0.1-0.3,0.3-0.9l-1.7-5.4h0.8l0.9,3.2c0.1,0.4,0.2,0.8,0.3,1.3c0.1-0.4,0.2-0.8,0.3-1.2l1-3.2h0.8l-1.7,5.5
			c-0.2,0.7-0.4,1.2-0.5,1.4c-0.1,0.2-0.3,0.4-0.4,0.5c-0.2,0.1-0.4,0.2-0.5,0.2C447.1,107.5,446.9,107.5,446.8,107.4L446.8,107.4z"
			/>
		<path class="st5" d="M450.5,103.7l0.8-0.1c0,0.4,0.2,0.7,0.4,0.9c0.2,0.2,0.5,0.3,0.8,0.3s0.6-0.1,0.8-0.2
			c0.2-0.2,0.3-0.4,0.3-0.6c0-0.2-0.1-0.4-0.2-0.5c-0.1-0.1-0.4-0.2-0.8-0.3c-0.6-0.2-1-0.3-1.2-0.5s-0.4-0.3-0.5-0.5
			s-0.2-0.4-0.2-0.7c0-0.5,0.1-0.8,0.5-1.1s0.7-0.4,1.2-0.4c0.3,0,0.6,0.1,0.9,0.2s0.4,0.3,0.6,0.5s0.2,0.5,0.3,0.9l-0.7,0.1
			c-0.1-0.6-0.4-0.9-1-0.9c-0.3,0-0.6,0.1-0.7,0.2s-0.2,0.3-0.2,0.5s0.1,0.4,0.2,0.5c0.1,0.1,0.4,0.2,0.8,0.3c0.6,0.2,1,0.4,1.2,0.5
			s0.3,0.3,0.4,0.5c0.1,0.2,0.1,0.4,0.1,0.7c0,0.5-0.2,0.9-0.5,1.3s-0.8,0.5-1.4,0.5C451.3,105.5,450.7,104.9,450.5,103.7
			L450.5,103.7z"/>
		<path class="st5" d="M309.2,185.4l-2.4-7.5h0.9l1.6,5.5c0.1,0.4,0.2,0.8,0.3,1.2c0.1-0.4,0.2-0.8,0.3-1.2l1.7-5.5h0.8l-2.4,7.5
			H309.2L309.2,185.4z"/>
		<path class="st5" d="M315.5,183.6l0.8,0.1c-0.1,0.6-0.4,1-0.7,1.3s-0.8,0.4-1.3,0.4c-0.6,0-1.1-0.2-1.5-0.7
			c-0.4-0.5-0.6-1.2-0.6-2.1s0.2-1.7,0.6-2.1c0.4-0.5,0.9-0.7,1.5-0.7s1.1,0.2,1.5,0.7c0.4,0.5,0.6,1.2,0.6,2.1v0.2h-3.3
			c0,0.6,0.2,1.1,0.4,1.4c0.2,0.3,0.6,0.5,0.9,0.5C314.9,184.7,315.2,184.4,315.5,183.6L315.5,183.6z M313,182.1h2.5
			c0-0.5-0.1-0.8-0.3-1.1c-0.2-0.3-0.5-0.5-0.9-0.5c-0.3,0-0.6,0.1-0.9,0.4S313,181.6,313,182.1L313,182.1z"/>
		<path class="st5" d="M317,185.4v-5.4h0.7v0.8c0.2-0.4,0.3-0.6,0.5-0.8c0.1-0.1,0.3-0.2,0.5-0.2c0.2,0,0.5,0.1,0.8,0.3l-0.3,0.9
			c-0.2-0.1-0.4-0.2-0.5-0.2c-0.2,0-0.3,0.1-0.4,0.2s-0.2,0.3-0.3,0.5c-0.1,0.4-0.1,0.7-0.1,1.1v2.9L317,185.4L317,185.4z"/>
		<path class="st5" d="M322.5,184.7c-0.2,0.3-0.5,0.5-0.8,0.6c-0.3,0.1-0.6,0.2-0.9,0.2c-0.5,0-0.8-0.1-1.1-0.4
			c-0.3-0.3-0.4-0.7-0.4-1.1c0-0.3,0.1-0.6,0.2-0.8s0.3-0.4,0.5-0.6s0.6-0.2,1-0.3c0.6-0.1,1.1-0.2,1.4-0.3v-0.2
			c0-0.4-0.1-0.6-0.2-0.8c-0.2-0.2-0.5-0.3-0.9-0.3c-0.4,0-0.6,0.1-0.8,0.2s-0.3,0.4-0.4,0.8l-0.7-0.1c0.1-0.6,0.3-1,0.6-1.3
			s0.8-0.4,1.4-0.4c0.5,0,0.8,0.1,1.1,0.3c0.3,0.2,0.4,0.4,0.5,0.6s0.1,0.6,0.1,1.1v1.2c0,0.9,0,1.4,0,1.6c0,0.2,0.1,0.4,0.2,0.6
			h-0.8C322.6,185.2,322.6,184.9,322.5,184.7L322.5,184.7z M322.5,182.6c-0.3,0.1-0.7,0.2-1.2,0.4c-0.3,0.1-0.5,0.1-0.7,0.2
			s-0.2,0.2-0.3,0.3s-0.1,0.3-0.1,0.4c0,0.3,0.1,0.5,0.2,0.6c0.2,0.2,0.4,0.2,0.7,0.2c0.3,0,0.5-0.1,0.7-0.2s0.4-0.3,0.5-0.6
			s0.2-0.6,0.2-1L322.5,182.6L322.5,182.6z"/>
		<path class="st5" d="M327.1,183.4l0.7,0.1c-0.1,0.6-0.3,1.1-0.6,1.5s-0.8,0.5-1.2,0.5c-0.6,0-1.1-0.2-1.4-0.7
			c-0.4-0.5-0.6-1.2-0.6-2.1s0.2-1.7,0.6-2.1s0.9-0.7,1.5-0.7c0.5,0,0.9,0.1,1.2,0.4s0.5,0.7,0.6,1.3l-0.7,0.1
			c-0.1-0.4-0.2-0.6-0.4-0.8s-0.4-0.3-0.6-0.3c-0.4,0-0.7,0.2-0.9,0.5c-0.2,0.3-0.4,0.9-0.4,1.6s0.1,1.3,0.4,1.6s0.5,0.5,0.9,0.5
			c0.3,0,0.5-0.1,0.7-0.3C326.9,184.2,327.1,183.8,327.1,183.4L327.1,183.4z"/>
		<path class="st5" d="M328,182.6c0-0.9,0.2-1.6,0.6-2.1c0.4-0.5,0.9-0.7,1.5-0.7s1.1,0.2,1.5,0.7s0.6,1.2,0.6,2.1
			c0,1-0.2,1.7-0.6,2.2c-0.4,0.5-0.9,0.7-1.5,0.7s-1.1-0.2-1.5-0.7C328.2,184.3,328,183.6,328,182.6L328,182.6z M328.8,182.6
			c0,0.7,0.1,1.2,0.4,1.6c0.3,0.3,0.6,0.5,1,0.5c0.4,0,0.7-0.2,0.9-0.5c0.2-0.4,0.4-0.9,0.4-1.6s-0.1-1.2-0.4-1.6
			c-0.3-0.3-0.6-0.5-1-0.5c-0.4,0-0.7,0.2-0.9,0.5S328.8,181.9,328.8,182.6z"/>
		<path class="st5" d="M335.8,185.4v-0.7c-0.1,0.3-0.3,0.5-0.5,0.6c-0.2,0.1-0.5,0.2-0.7,0.2c-0.5,0-1-0.2-1.4-0.8
			c-0.4-0.5-0.6-1.2-0.6-2.1c0-0.6,0.1-1.1,0.3-1.6c0.2-0.4,0.4-0.8,0.7-1c0.3-0.2,0.6-0.3,1-0.3c0.2,0,0.5,0.1,0.7,0.2
			c0.2,0.1,0.4,0.3,0.5,0.6v-2.7h0.8v7.5H335.8L335.8,185.4z M333.4,182.6c0,0.7,0.1,1.2,0.4,1.6s0.5,0.5,0.9,0.5s0.6-0.2,0.8-0.5
			s0.4-0.8,0.4-1.5c0-0.8-0.1-1.3-0.4-1.7c-0.2-0.4-0.5-0.5-0.9-0.5c-0.3,0-0.6,0.2-0.8,0.5C333.5,181.4,333.4,181.9,333.4,182.6
			L333.4,182.6z"/>
		<path class="st5" d="M340.5,183.6l0.8,0.1c-0.1,0.6-0.4,1-0.7,1.3s-0.8,0.4-1.3,0.4c-0.6,0-1.1-0.2-1.5-0.7
			c-0.4-0.5-0.6-1.2-0.6-2.1s0.2-1.7,0.6-2.1c0.4-0.5,0.9-0.7,1.5-0.7s1.1,0.2,1.5,0.7c0.4,0.5,0.6,1.2,0.6,2.1v0.2h-3.3
			c0,0.6,0.2,1.1,0.4,1.4c0.2,0.3,0.6,0.5,0.9,0.5C339.9,184.7,340.2,184.4,340.5,183.6L340.5,183.6z M338,182.1h2.5
			c0-0.5-0.1-0.8-0.3-1.1c-0.2-0.3-0.5-0.5-0.9-0.5c-0.3,0-0.6,0.1-0.9,0.4S338,181.6,338,182.1L338,182.1z"/>
		<path class="st5" d="M355.4,209.2l0.8,0.2c-0.2,0.8-0.5,1.5-1,1.9s-1,0.6-1.6,0.6c-0.6,0-1.1-0.1-1.5-0.4s-0.7-0.7-1-1.3
			c-0.3-0.6-0.4-1.3-0.4-2.2s0.1-1.5,0.4-2.1s0.6-1,1-1.3c0.4-0.3,0.9-0.4,1.5-0.4c0.6,0,1.1,0.2,1.5,0.6c0.4,0.4,0.7,0.9,0.9,1.6
			l-0.8,0.2c-0.3-1-0.8-1.6-1.6-1.6c-0.4,0-0.8,0.1-1.1,0.3c-0.3,0.2-0.5,0.5-0.7,1s-0.3,1-0.3,1.7c0,1,0.2,1.8,0.5,2.3
			c0.4,0.5,0.8,0.8,1.5,0.8c0.4,0,0.8-0.2,1.1-0.5C355.1,210.4,355.3,209.9,355.4,209.2L355.4,209.2z"/>
		<path class="st5" d="M356.8,211.9v-7.5h0.8v2.7c0.2-0.2,0.4-0.4,0.6-0.6s0.5-0.2,0.7-0.2c0.5,0,0.9,0.1,1.1,0.4
			c0.3,0.3,0.4,0.9,0.4,1.7v3.4h-0.8v-3.4c0-0.5-0.1-0.8-0.2-1s-0.4-0.3-0.7-0.3c-0.3,0-0.6,0.1-0.8,0.4c-0.2,0.3-0.4,0.7-0.4,1.4v3
			L356.8,211.9L356.8,211.9z"/>
		<path class="st5" d="M364.4,210.1l0.8,0.1c-0.1,0.6-0.4,1-0.7,1.3s-0.8,0.4-1.3,0.4c-0.6,0-1.1-0.2-1.5-0.7
			c-0.4-0.5-0.6-1.2-0.6-2.1s0.2-1.7,0.6-2.1c0.4-0.5,0.9-0.7,1.5-0.7s1.1,0.2,1.5,0.7c0.4,0.5,0.6,1.2,0.6,2.1v0.2h-3.3
			c0,0.6,0.2,1.1,0.4,1.4c0.2,0.3,0.6,0.5,0.9,0.5C363.8,211.2,364.2,210.9,364.4,210.1L364.4,210.1z M361.9,208.6h2.5
			c0-0.5-0.1-0.8-0.3-1.1c-0.2-0.3-0.5-0.5-0.9-0.5c-0.3,0-0.6,0.1-0.9,0.4S361.9,208.1,361.9,208.6L361.9,208.6z"/>
		<path class="st5" d="M368.8,209.9l0.7,0.1c-0.1,0.6-0.3,1.1-0.6,1.5s-0.8,0.5-1.2,0.5c-0.6,0-1.1-0.2-1.4-0.7
			c-0.4-0.5-0.6-1.2-0.6-2.1s0.2-1.7,0.6-2.1s0.9-0.7,1.5-0.7c0.5,0,0.9,0.1,1.2,0.4s0.5,0.7,0.6,1.3l-0.7,0.1
			c-0.1-0.4-0.2-0.6-0.4-0.8s-0.4-0.3-0.6-0.3c-0.4,0-0.7,0.2-0.9,0.5c-0.2,0.3-0.4,0.9-0.4,1.6s0.1,1.3,0.4,1.6s0.5,0.5,0.9,0.5
			c0.3,0,0.5-0.1,0.7-0.3C368.6,210.7,368.7,210.3,368.8,209.9L368.8,209.9z"/>
		<path class="st5" d="M369.9,211.9v-7.5h0.8v4.3l1.8-2.2h1l-1.7,2l1.9,3.4h-0.9l-1.5-2.8l-0.5,0.6v2.2L369.9,211.9L369.9,211.9z"/>
		<path class="st5" d="M373.9,211.9v-5.4h0.7v0.8c0.1-0.3,0.3-0.5,0.6-0.6s0.5-0.2,0.8-0.2c0.3,0,0.6,0.1,0.8,0.2s0.4,0.4,0.5,0.7
			c0.2-0.3,0.4-0.6,0.6-0.7s0.5-0.2,0.8-0.2c0.4,0,0.8,0.1,1,0.4c0.2,0.3,0.4,0.8,0.4,1.4v3.7h-0.8v-3.4c0-0.4,0-0.7-0.1-0.8
			c-0.1-0.2-0.1-0.3-0.3-0.4c-0.1-0.1-0.3-0.1-0.4-0.1c-0.3,0-0.6,0.1-0.8,0.4s-0.3,0.7-0.3,1.2v3.2h-0.8v-3.5
			c0-0.4-0.1-0.8-0.2-0.9s-0.3-0.3-0.6-0.3c-0.4,0-0.6,0.1-0.8,0.4s-0.3,0.8-0.3,1.5v2.8L373.9,211.9L373.9,211.9z"/>
		<path class="st5" d="M383.7,211.2c-0.2,0.3-0.5,0.5-0.8,0.6c-0.3,0.1-0.6,0.2-0.9,0.2c-0.5,0-0.8-0.1-1.1-0.4
			c-0.3-0.3-0.4-0.7-0.4-1.1c0-0.3,0.1-0.6,0.2-0.8s0.3-0.4,0.5-0.6s0.6-0.2,1-0.3c0.6-0.1,1.1-0.2,1.4-0.3v-0.2
			c0-0.4-0.1-0.6-0.2-0.8c-0.2-0.2-0.5-0.3-0.9-0.3c-0.4,0-0.6,0.1-0.8,0.2s-0.3,0.4-0.4,0.8l-0.7-0.1c0.1-0.6,0.3-1,0.6-1.3
			s0.8-0.4,1.4-0.4c0.5,0,0.8,0.1,1.1,0.3c0.3,0.2,0.4,0.4,0.5,0.6s0.1,0.6,0.1,1.1v1.2c0,0.9,0,1.4,0,1.6c0,0.2,0.1,0.4,0.2,0.6
			h-0.8C383.7,211.7,383.7,211.4,383.7,211.2L383.7,211.2z M383.6,209.1c-0.3,0.1-0.7,0.2-1.2,0.4c-0.3,0.1-0.5,0.1-0.7,0.2
			s-0.2,0.2-0.3,0.3s-0.1,0.3-0.1,0.4c0,0.3,0.1,0.5,0.2,0.6c0.2,0.2,0.4,0.2,0.7,0.2c0.3,0,0.5-0.1,0.7-0.2s0.4-0.3,0.5-0.6
			s0.2-0.6,0.2-1L383.6,209.1L383.6,209.1z"/>
		<path class="st5" d="M385.3,211.9v-5.4h0.7v0.8c0.2-0.4,0.3-0.6,0.5-0.8c0.1-0.1,0.3-0.2,0.5-0.2c0.2,0,0.5,0.1,0.8,0.3l-0.3,0.9
			c-0.2-0.1-0.4-0.2-0.5-0.2c-0.2,0-0.3,0.1-0.4,0.2s-0.2,0.3-0.3,0.5c-0.1,0.4-0.1,0.7-0.1,1.1v2.9L385.3,211.9L385.3,211.9z"/>
		<path class="st5" d="M387.4,211.9l1.6-2.8l-1.5-2.6h0.9l0.7,1.3c0.1,0.2,0.2,0.4,0.3,0.6c0.1-0.2,0.2-0.4,0.3-0.6l0.8-1.3h0.9
			l-1.5,2.6l1.7,2.9h-0.9l-0.9-1.7l-0.2-0.5l-1.2,2.1H387.4L387.4,211.9z"/>
		<path class="st5" d="M392.3,233.2c0-1.3,0.3-2.3,0.9-3c0.6-0.7,1.3-1,2.1-1c0.5,0,1,0.1,1.5,0.5c0.5,0.3,0.8,0.8,1.1,1.3
			s0.4,1.3,0.4,2.1c0,1.1-0.2,2-0.8,2.7c-0.6,0.8-1.3,1.2-2.2,1.2s-1.6-0.4-2.2-1.2C392.5,235.1,392.3,234.2,392.3,233.2
			L392.3,233.2z M393.1,233.2c0,0.9,0.2,1.6,0.6,2.2c0.4,0.5,0.9,0.8,1.5,0.8s1.1-0.3,1.5-0.8c0.4-0.5,0.6-1.3,0.6-2.3
			c0-0.6-0.1-1.2-0.3-1.7c-0.2-0.4-0.4-0.7-0.7-0.9c-0.3-0.2-0.7-0.4-1.1-0.4c-0.6,0-1.1,0.3-1.5,0.8S393.1,232.2,393.1,233.2
			L393.1,233.2z"/>
		<path class="st5" d="M398.9,239v-7.5h0.7v0.7c0.2-0.3,0.4-0.5,0.6-0.6s0.5-0.2,0.7-0.2c0.4,0,0.7,0.1,1,0.3s0.5,0.5,0.7,0.9
			c0.2,0.4,0.3,0.9,0.3,1.5c0,0.9-0.2,1.6-0.6,2.1c-0.4,0.5-0.8,0.8-1.4,0.8c-0.2,0-0.5-0.1-0.6-0.2c-0.2-0.1-0.4-0.3-0.5-0.5v2.6
			H398.9L398.9,239z M399.6,234.2c0,0.7,0.1,1.2,0.4,1.6c0.2,0.3,0.5,0.5,0.9,0.5s0.6-0.2,0.8-0.5s0.4-0.9,0.4-1.6s-0.1-1.2-0.4-1.6
			s-0.5-0.5-0.9-0.5c-0.3,0-0.6,0.2-0.8,0.6C399.7,233,399.6,233.5,399.6,234.2L399.6,234.2z"/>
		<path class="st5" d="M406.5,235.1l0.8,0.1c-0.1,0.6-0.4,1-0.7,1.3s-0.8,0.4-1.3,0.4c-0.6,0-1.1-0.2-1.5-0.7
			c-0.4-0.5-0.6-1.2-0.6-2.1s0.2-1.7,0.6-2.1c0.4-0.5,0.9-0.7,1.5-0.7s1.1,0.2,1.5,0.7c0.4,0.5,0.6,1.2,0.6,2.1v0.2H404
			c0,0.6,0.2,1.1,0.4,1.4c0.2,0.3,0.6,0.5,0.9,0.5C405.9,236.3,406.3,235.9,406.5,235.1L406.5,235.1z M404,233.6h2.5
			c0-0.5-0.1-0.8-0.3-1.1c-0.2-0.3-0.5-0.5-0.9-0.5c-0.3,0-0.6,0.1-0.9,0.4S404,233.2,404,233.6L404,233.6z"/>
		<path class="st5" d="M408,236.9v-5.4h0.7v0.8c0.2-0.3,0.4-0.5,0.6-0.7s0.5-0.2,0.8-0.2c0.2,0,0.5,0.1,0.7,0.1s0.4,0.2,0.5,0.4
			s0.2,0.4,0.3,0.6c0.1,0.2,0.1,0.6,0.1,1.1v3.4h-0.8v-3.3c0-0.4,0-0.7-0.1-0.9c-0.1-0.2-0.2-0.3-0.3-0.4c-0.1-0.1-0.3-0.1-0.5-0.1
			c-0.4,0-0.6,0.1-0.9,0.4s-0.3,0.7-0.3,1.4v3L408,236.9L408,236.9z"/>
		<path class="st5" d="M414.3,236.9v-6.6h-2v-0.9h4.9v0.9h-2v6.6H414.3L414.3,236.9z"/>
		<path class="st5" d="M419.7,235.1l0.8,0.1c-0.1,0.6-0.4,1-0.7,1.3s-0.8,0.4-1.3,0.4c-0.6,0-1.1-0.2-1.5-0.7
			c-0.4-0.5-0.6-1.2-0.6-2.1s0.2-1.7,0.6-2.1c0.4-0.5,0.9-0.7,1.5-0.7s1.1,0.2,1.5,0.7c0.4,0.5,0.6,1.2,0.6,2.1v0.2h-3.3
			c0,0.6,0.2,1.1,0.4,1.4c0.2,0.3,0.6,0.5,0.9,0.5C419.1,236.3,419.5,235.9,419.7,235.1L419.7,235.1z M417.2,233.6h2.5
			c0-0.5-0.1-0.8-0.3-1.1c-0.2-0.3-0.5-0.5-0.9-0.5c-0.3,0-0.6,0.1-0.9,0.4S417.3,233.2,417.2,233.6L417.2,233.6z"/>
		<path class="st5" d="M420.7,236.9l1.6-2.8l-1.5-2.6h0.9l0.7,1.3c0.1,0.2,0.2,0.4,0.3,0.6c0.1-0.2,0.2-0.4,0.3-0.6l0.8-1.3h0.9
			l-1.5,2.6l1.7,2.9H424l-0.9-1.7l-0.2-0.5l-1.2,2.1H420.7L420.7,236.9z"/>
		<path class="st5" d="M427,236.1l0.1,0.8c-0.2,0.1-0.4,0.1-0.6,0.1c-0.3,0-0.5-0.1-0.6-0.2c-0.2-0.1-0.3-0.2-0.3-0.4
			s-0.1-0.5-0.1-1.1v-3.1h-0.5v-0.7h0.5v-1.4l0.8-0.6v1.9h0.8v0.7h-0.8v3.2c0,0.3,0,0.5,0.1,0.6c0.1,0.1,0.2,0.2,0.4,0.2
			C426.7,236.1,426.9,236.1,427,236.1L427,236.1z"/>
		<path class="st5" d="M290.1,250.2l0.8-0.1c0,0.4,0.1,0.7,0.3,1c0.1,0.2,0.4,0.4,0.6,0.6s0.6,0.2,0.9,0.2c0.5,0,0.9-0.1,1.1-0.4
			c0.3-0.2,0.4-0.5,0.4-0.9c0-0.2,0-0.4-0.1-0.6c-0.1-0.2-0.2-0.3-0.4-0.4s-0.6-0.2-1.3-0.4c-0.6-0.2-1-0.4-1.2-0.5
			c-0.2-0.2-0.4-0.4-0.6-0.7c-0.1-0.3-0.2-0.6-0.2-0.9c0-0.6,0.2-1.1,0.6-1.5c0.4-0.4,0.9-0.6,1.6-0.6c0.5,0,0.9,0.1,1.2,0.3
			c0.3,0.2,0.6,0.4,0.8,0.8s0.3,0.7,0.3,1.2l-0.8,0.1c0-0.5-0.2-0.9-0.4-1.1s-0.6-0.4-1.1-0.4s-0.8,0.1-1.1,0.3
			c-0.2,0.2-0.4,0.5-0.4,0.8c0,0.3,0.1,0.5,0.3,0.7s0.6,0.3,1.2,0.5c0.6,0.2,1,0.3,1.3,0.4c0.4,0.2,0.7,0.4,0.9,0.8
			c0.2,0.3,0.3,0.7,0.3,1.1s-0.1,0.8-0.3,1.2c-0.2,0.4-0.5,0.6-0.8,0.8s-0.8,0.3-1.2,0.3c-0.8,0-1.4-0.2-1.8-0.7
			S290.1,251,290.1,250.2L290.1,250.2z"/>
		<path class="st5" d="M295.8,252.6v-5.4h0.7v0.8c0.2-0.3,0.4-0.5,0.6-0.7s0.5-0.2,0.8-0.2c0.2,0,0.5,0.1,0.7,0.1s0.4,0.2,0.5,0.4
			s0.2,0.4,0.3,0.6c0.1,0.2,0.1,0.6,0.1,1.1v3.4h-0.8v-3.3c0-0.4,0-0.7-0.1-0.9c-0.1-0.2-0.2-0.3-0.3-0.4c-0.1-0.1-0.3-0.1-0.5-0.1
			c-0.4,0-0.6,0.1-0.9,0.4s-0.3,0.7-0.3,1.4v3L295.8,252.6L295.8,252.6z"/>
		<path class="st5" d="M300.3,254.7l-0.1-0.9c0.2,0.1,0.3,0.1,0.4,0.1c0.2,0,0.3,0,0.4-0.1c0.1-0.1,0.2-0.2,0.3-0.3
			c0-0.1,0.1-0.4,0.3-0.9l-1.7-5.4h0.8l0.9,3.1c0.1,0.4,0.2,0.8,0.3,1.3c0.1-0.4,0.2-0.8,0.3-1.2l1-3.2h0.8l-1.7,5.5
			c-0.2,0.7-0.4,1.2-0.5,1.4s-0.3,0.4-0.4,0.5c-0.2,0.1-0.4,0.2-0.5,0.2C300.6,254.8,300.5,254.8,300.3,254.7L300.3,254.7z"/>
		<path class="st5" d="M304.4,252.6v-7.5h0.8v4.3l1.8-2.2h1l-1.7,2l1.9,3.4h-0.9l-1.5-2.8l-0.5,0.6v2.2L304.4,252.6L304.4,252.6z"/>
		<path class="st5" d="M232.4,196.6v-0.9h2.6v2.8c-0.4,0.4-0.8,0.7-1.2,0.9c-0.4,0.2-0.9,0.3-1.3,0.3c-0.6,0-1.1-0.1-1.6-0.4
			s-0.8-0.7-1.1-1.3s-0.4-1.3-0.4-2.1s0.1-1.5,0.4-2.1c0.3-0.6,0.6-1.1,1.1-1.4c0.4-0.3,1-0.4,1.6-0.4c0.4,0,0.9,0.1,1.2,0.2
			c0.3,0.2,0.6,0.4,0.8,0.7s0.4,0.7,0.5,1.3l-0.7,0.2c-0.1-0.4-0.2-0.7-0.4-0.9c-0.1-0.2-0.4-0.4-0.6-0.5c-0.2-0.1-0.5-0.2-0.8-0.2
			c-0.4,0-0.8,0.1-1.2,0.3s-0.6,0.6-0.8,1s-0.3,1-0.3,1.7c0,1,0.2,1.8,0.6,2.3s1,0.8,1.6,0.8c0.3,0,0.6-0.1,1-0.2
			c0.3-0.1,0.6-0.3,0.8-0.6v-1.4H232.4z"/>
		<path class="st5" d="M235.9,193.1v-1.1h0.8v1.1H235.9z M235.9,199.6v-5.4h0.8v5.4H235.9z"/>
		<path class="st5" d="M239.2,198.7l0.1,0.8c-0.2,0.1-0.4,0.1-0.6,0.1c-0.3,0-0.5-0.1-0.6-0.2c-0.2-0.1-0.3-0.2-0.3-0.4
			s-0.1-0.5-0.1-1.1v-3.1h-0.6v-0.7h0.6v-1.4l0.8-0.6v1.9h0.8v0.7h-0.8v3.2c0,0.3,0,0.5,0.1,0.6c0.1,0.1,0.2,0.2,0.4,0.2
			C239,198.8,239.1,198.7,239.2,198.7L239.2,198.7z"/>
		<path class="st5" d="M239.8,199.6V192h0.8v6.6h3v0.9H239.8L239.8,199.6z"/>
		<path class="st5" d="M247.2,198.9c-0.2,0.3-0.5,0.5-0.8,0.6c-0.3,0.1-0.6,0.2-0.9,0.2c-0.5,0-0.8-0.1-1.1-0.4
			c-0.3-0.3-0.4-0.7-0.4-1.1c0-0.3,0.1-0.6,0.2-0.8s0.3-0.4,0.5-0.6s0.6-0.2,1-0.3c0.6-0.1,1.1-0.2,1.4-0.3v-0.2
			c0-0.4-0.1-0.6-0.2-0.8c-0.2-0.2-0.5-0.3-0.9-0.3c-0.4,0-0.6,0.1-0.8,0.2s-0.3,0.4-0.4,0.8l-0.7-0.1c0.1-0.6,0.3-1,0.6-1.3
			c0.3-0.3,0.8-0.4,1.4-0.4c0.5,0,0.8,0.1,1.1,0.3c0.3,0.2,0.4,0.4,0.5,0.6s0.1,0.6,0.1,1.1v1.2c0,0.9,0,1.4,0.1,1.6
			c0,0.2,0.1,0.4,0.2,0.6h-0.8C247.3,199.4,247.2,199.1,247.2,198.9L247.2,198.9z M247.2,196.8c-0.3,0.1-0.7,0.2-1.2,0.4
			c-0.3,0.1-0.5,0.1-0.7,0.2s-0.2,0.2-0.3,0.3c-0.1,0.1-0.1,0.3-0.1,0.4c0,0.3,0.1,0.5,0.2,0.6c0.2,0.2,0.4,0.2,0.7,0.2
			c0.3,0,0.5-0.1,0.7-0.2s0.4-0.3,0.5-0.6s0.2-0.6,0.2-1L247.2,196.8L247.2,196.8z"/>
		<path class="st5" d="M249.6,199.6h-0.7V192h0.8v2.7c0.2-0.2,0.3-0.4,0.6-0.6c0.2-0.1,0.4-0.2,0.7-0.2c0.4,0,0.7,0.1,0.9,0.3
			c0.3,0.2,0.5,0.5,0.7,0.9s0.3,0.9,0.3,1.5c0,0.9-0.2,1.6-0.6,2.1c-0.4,0.5-0.8,0.8-1.4,0.8c-0.3,0-0.5-0.1-0.7-0.2
			c-0.2-0.1-0.4-0.3-0.5-0.6L249.6,199.6L249.6,199.6z M249.6,196.8c0,0.6,0.1,1,0.1,1.3c0.1,0.3,0.2,0.5,0.4,0.6s0.4,0.2,0.6,0.2
			c0.3,0,0.6-0.2,0.8-0.5s0.4-0.9,0.4-1.6s-0.1-1.2-0.4-1.6s-0.5-0.5-0.9-0.5c-0.3,0-0.6,0.2-0.8,0.5
			C249.7,195.6,249.6,196.1,249.6,196.8L249.6,196.8z"/>
		<path class="st5" d="M201.9,241v-7.5h0.8v3.1h3.2v-3.1h0.8v7.5h-0.8v-3.5h-3.2v3.5H201.9z"/>
		<path class="st5" d="M212.2,238.4l0.8,0.2c-0.2,0.8-0.5,1.5-0.9,1.9s-1,0.6-1.6,0.6c-0.6,0-1.1-0.1-1.5-0.4s-0.7-0.7-1-1.3
			c-0.3-0.6-0.4-1.3-0.4-2.2s0.1-1.5,0.4-2.1s0.6-1,1.1-1.3c0.4-0.3,0.9-0.4,1.5-0.4c0.6,0,1.1,0.2,1.5,0.6c0.4,0.4,0.7,0.9,0.9,1.6
			l-0.8,0.2c-0.3-1-0.8-1.6-1.6-1.6c-0.4,0-0.8,0.1-1.1,0.3s-0.5,0.5-0.7,1s-0.3,1-0.3,1.7c0,1,0.2,1.8,0.5,2.3
			c0.4,0.5,0.8,0.8,1.4,0.8c0.4,0,0.8-0.2,1.1-0.5C211.9,239.5,212.1,239.1,212.2,238.4L212.2,238.4z"/>
		<path class="st5" d="M213.8,241v-7.5h0.8v6.6h3v0.9H213.8L213.8,241z"/>
		<path class="st5" d="M218.1,238.6l0.8-0.1c0,0.4,0.1,0.7,0.3,1c0.1,0.2,0.4,0.4,0.6,0.6c0.3,0.1,0.6,0.2,0.9,0.2
			c0.5,0,0.9-0.1,1.1-0.4s0.4-0.5,0.4-0.9c0-0.2-0.1-0.4-0.1-0.6c-0.1-0.2-0.2-0.3-0.4-0.4s-0.6-0.2-1.3-0.4c-0.6-0.2-1-0.4-1.2-0.5
			c-0.2-0.2-0.4-0.4-0.6-0.7c-0.1-0.3-0.2-0.6-0.2-0.9c0-0.6,0.2-1.1,0.6-1.5c0.4-0.4,0.9-0.6,1.6-0.6c0.5,0,0.9,0.1,1.2,0.3
			c0.3,0.2,0.6,0.4,0.8,0.8s0.3,0.7,0.3,1.2l-0.8,0.1c0-0.5-0.2-0.9-0.4-1.1s-0.6-0.4-1.1-0.4s-0.8,0.1-1.1,0.3
			c-0.2,0.2-0.4,0.5-0.4,0.8c0,0.3,0.1,0.5,0.3,0.7s0.6,0.3,1.2,0.5c0.6,0.2,1,0.3,1.3,0.4c0.4,0.2,0.7,0.4,0.9,0.8
			c0.2,0.3,0.3,0.7,0.3,1.1s-0.1,0.8-0.3,1.2c-0.2,0.4-0.5,0.6-0.8,0.8s-0.8,0.3-1.2,0.3c-0.8,0-1.4-0.2-1.8-0.7
			S218.1,239.4,218.1,238.6L218.1,238.6z"/>
		<path class="st5" d="M223.5,238.3c0-0.9,0.2-1.6,0.6-2.1c0.4-0.5,0.9-0.7,1.5-0.7s1.1,0.2,1.5,0.7s0.6,1.2,0.6,2.1
			c0,1-0.2,1.7-0.6,2.2c-0.4,0.5-0.9,0.7-1.5,0.7s-1.1-0.2-1.5-0.7C223.7,239.9,223.5,239.2,223.5,238.3L223.5,238.3z M224.2,238.3
			c0,0.7,0.1,1.2,0.4,1.6c0.3,0.3,0.6,0.5,0.9,0.5c0.4,0,0.7-0.2,0.9-0.5c0.2-0.4,0.4-0.9,0.4-1.6s-0.1-1.2-0.4-1.6
			c-0.3-0.3-0.6-0.5-0.9-0.5c-0.4,0-0.7,0.2-0.9,0.5S224.2,237.6,224.2,238.3z"/>
		<path class="st5" d="M228.5,241v-4.7h-0.7v-0.7h0.7V235c0-0.4,0-0.8,0.1-1c0.1-0.2,0.2-0.4,0.4-0.5s0.4-0.2,0.7-0.2
			c0.2,0,0.4,0,0.7,0.1l-0.1,0.8c-0.2,0-0.3-0.1-0.4-0.1c-0.2,0-0.4,0.1-0.5,0.2c-0.1,0.1-0.1,0.3-0.1,0.7v0.5h0.9v0.7h-0.9v4.7
			L228.5,241L228.5,241z"/>
		<path class="st5" d="M232.1,240.2l0.1,0.8c-0.2,0.1-0.4,0.1-0.6,0.1c-0.3,0-0.5-0.1-0.6-0.2c-0.2-0.1-0.3-0.2-0.3-0.4
			s-0.1-0.5-0.1-1.1v-3.1h-0.6v-0.7h0.6v-1.4l0.8-0.6v1.9h0.8v0.7h-0.8v3.2c0,0.3,0,0.5,0.1,0.6c0.1,0.1,0.2,0.2,0.4,0.2
			C231.9,240.2,232,240.2,232.1,240.2L232.1,240.2z"/>
		<path class="st5" d="M233.4,241l-1.4-5.4h0.8l0.7,3.1l0.3,1.2l0.2-1.1l0.7-3.2h0.8l0.7,3.2l0.2,1l0.3-1.1l0.8-3.1h0.7l-1.4,5.4
			H236l-0.7-3.3l-0.2-0.9l-0.9,4.2L233.4,241L233.4,241z"/>
		<path class="st5" d="M241.5,240.4c-0.2,0.3-0.5,0.5-0.8,0.6c-0.3,0.1-0.6,0.2-0.9,0.2c-0.5,0-0.8-0.1-1.1-0.4
			c-0.3-0.3-0.4-0.7-0.4-1.1c0-0.3,0.1-0.6,0.2-0.8s0.3-0.4,0.5-0.6s0.6-0.2,1-0.3c0.6-0.1,1.1-0.2,1.4-0.3v-0.2
			c0-0.4-0.1-0.6-0.2-0.8c-0.2-0.2-0.5-0.3-0.9-0.3c-0.4,0-0.6,0.1-0.8,0.2s-0.3,0.4-0.4,0.8l-0.7-0.1c0.1-0.6,0.3-1,0.6-1.3
			c0.3-0.3,0.8-0.4,1.4-0.4c0.5,0,0.8,0.1,1.1,0.3c0.3,0.2,0.4,0.4,0.5,0.6s0.1,0.6,0.1,1.1v1.2c0,0.9,0,1.4,0.1,1.6
			c0,0.2,0.1,0.4,0.2,0.6h-0.8C241.6,240.8,241.5,240.6,241.5,240.4L241.5,240.4z M241.4,238.3c-0.3,0.1-0.7,0.2-1.2,0.4
			c-0.3,0.1-0.5,0.1-0.7,0.2s-0.2,0.2-0.3,0.3c-0.1,0.1-0.1,0.3-0.1,0.4c0,0.3,0.1,0.5,0.2,0.6c0.2,0.2,0.4,0.2,0.7,0.2
			c0.3,0,0.5-0.1,0.7-0.2s0.4-0.3,0.5-0.6s0.2-0.6,0.2-1L241.4,238.3L241.4,238.3z"/>
		<path class="st5" d="M243.1,241v-5.4h0.7v0.8c0.2-0.4,0.3-0.6,0.5-0.8s0.3-0.2,0.5-0.2c0.2,0,0.5,0.1,0.8,0.3l-0.3,0.9
			c-0.2-0.1-0.4-0.2-0.6-0.2c-0.2,0-0.3,0.1-0.4,0.2s-0.2,0.3-0.3,0.5c-0.1,0.4-0.1,0.7-0.1,1.1v2.9L243.1,241L243.1,241z"/>
		<path class="st5" d="M248.8,239.3l0.8,0.1c-0.1,0.6-0.4,1-0.7,1.3c-0.3,0.3-0.8,0.4-1.3,0.4c-0.6,0-1.1-0.2-1.5-0.7
			c-0.4-0.5-0.6-1.2-0.6-2.1s0.2-1.7,0.6-2.1c0.4-0.5,0.9-0.7,1.5-0.7s1.1,0.2,1.4,0.7c0.4,0.5,0.6,1.2,0.6,2.1v0.2h-3.3
			c0,0.6,0.2,1.1,0.4,1.4c0.2,0.3,0.6,0.5,0.9,0.5C248.2,240.4,248.6,240,248.8,239.3L248.8,239.3z M246.3,237.8h2.5
			c0-0.5-0.1-0.8-0.3-1.1c-0.2-0.3-0.6-0.5-0.9-0.5c-0.3,0-0.6,0.1-0.9,0.4C246.5,236.9,246.3,237.3,246.3,237.8L246.3,237.8z"/>
		<path class="st5" d="M243.4,265.1v-0.9h2.6v2.8c-0.4,0.4-0.8,0.7-1.2,0.9c-0.4,0.2-0.9,0.3-1.3,0.3c-0.6,0-1.1-0.1-1.6-0.5
			s-0.8-0.7-1.1-1.3s-0.4-1.3-0.4-2.1s0.1-1.5,0.4-2.1c0.3-0.6,0.6-1.1,1.1-1.4s1-0.4,1.6-0.4c0.4,0,0.9,0.1,1.2,0.2
			c0.3,0.2,0.6,0.4,0.8,0.7s0.4,0.7,0.5,1.3l-0.7,0.2c-0.1-0.4-0.2-0.7-0.4-1c-0.1-0.2-0.4-0.4-0.6-0.5c-0.2-0.1-0.5-0.2-0.8-0.2
			c-0.4,0-0.8,0.1-1.2,0.3s-0.6,0.6-0.8,1s-0.3,1-0.3,1.7c0,1,0.2,1.8,0.6,2.3s1,0.8,1.6,0.8c0.3,0,0.6-0.1,1-0.2
			c0.3-0.1,0.6-0.3,0.8-0.5v-1.4L243.4,265.1L243.4,265.1z"/>
		<path class="st5" d="M246.8,261.6v-1.1h0.8v1.1H246.8z M246.8,268.1v-5.4h0.8v5.4H246.8z"/>
		<path class="st5" d="M250.2,267.3l0.1,0.8c-0.2,0-0.4,0.1-0.6,0.1c-0.3,0-0.5,0-0.6-0.2c-0.2-0.1-0.3-0.2-0.3-0.4
			s-0.1-0.5-0.1-1.1v-3.1h-0.6v-0.7h0.6v-1.4l0.8-0.5v1.9h0.8v0.7h-0.8v3.2c0,0.3,0,0.5,0.1,0.6c0.1,0.1,0.2,0.2,0.4,0.2
			C249.9,267.3,250.1,267.3,250.2,267.3L250.2,267.3z"/>
		<path class="st5" d="M250.8,268.1v-7.5h0.8v3.1h3.2v-3.1h0.8v7.5h-0.8v-3.5h-3.2v3.5H250.8z"/>
		<path class="st5" d="M259.6,268.1v-0.8c-0.2,0.3-0.4,0.5-0.6,0.7s-0.5,0.2-0.8,0.2c-0.4,0-0.6-0.1-0.9-0.3s-0.4-0.4-0.5-0.7
			s-0.1-0.7-0.1-1.2v-3.4h0.8v3c0,0.6,0,0.9,0.1,1.1c0.1,0.2,0.2,0.3,0.3,0.5c0.1,0.1,0.3,0.2,0.5,0.2c0.4,0,0.7-0.1,0.9-0.5
			c0.2-0.3,0.3-0.7,0.3-1.4v-2.9h0.8v5.4L259.6,268.1L259.6,268.1z"/>
		<path class="st5" d="M262,268.1h-0.7v-7.5h0.8v2.7c0.2-0.2,0.3-0.4,0.5-0.5c0.2-0.1,0.4-0.2,0.7-0.2c0.4,0,0.7,0.1,1,0.3
			s0.5,0.5,0.7,1s0.3,0.9,0.3,1.5c0,0.9-0.2,1.6-0.6,2.1c-0.4,0.5-0.8,0.8-1.4,0.8c-0.3,0-0.5-0.1-0.7-0.2c-0.2-0.1-0.4-0.3-0.5-0.6
			V268.1L262,268.1z M261.9,265.3c0,0.6,0,1,0.1,1.3s0.2,0.5,0.4,0.6c0.2,0.1,0.4,0.2,0.6,0.2c0.3,0,0.6-0.2,0.8-0.5
			s0.4-0.9,0.4-1.6s-0.1-1.2-0.4-1.6c-0.2-0.3-0.5-0.5-0.9-0.5c-0.3,0-0.6,0.2-0.8,0.5C262.1,264.2,261.9,264.7,261.9,265.3
			L261.9,265.3z"/>
		<path class="st5" d="M136.3,290c0-1.3,0.3-2.3,0.9-3c0.6-0.7,1.3-1,2.1-1c0.5,0,1,0.1,1.5,0.5c0.4,0.3,0.8,0.8,1.1,1.3
			s0.4,1.3,0.4,2.1c0,1.1-0.2,2-0.8,2.7c-0.6,0.8-1.3,1.2-2.2,1.2s-1.6-0.4-2.2-1.2C136.6,291.9,136.4,291,136.3,290L136.3,290z
			 M137.2,290c0,0.9,0.2,1.6,0.6,2.2s0.9,0.8,1.5,0.8s1.1-0.3,1.5-0.8c0.4-0.5,0.6-1.3,0.6-2.3c0-0.6-0.1-1.2-0.3-1.7
			c-0.2-0.4-0.4-0.7-0.7-0.9c-0.3-0.2-0.7-0.4-1.1-0.4c-0.6,0-1.1,0.3-1.5,0.8S137.2,288.9,137.2,290L137.2,290z"/>
		<path class="st5" d="M142.9,293.7v-5.4h0.7v0.8c0.2-0.3,0.4-0.5,0.6-0.7s0.5-0.2,0.8-0.2c0.2,0,0.5,0,0.7,0.1
			c0.2,0.1,0.4,0.2,0.5,0.4c0.1,0.1,0.2,0.4,0.3,0.6s0.1,0.6,0.1,1.1v3.4h-0.8v-3.3c0-0.4,0-0.7-0.1-0.9c-0.1-0.2-0.2-0.3-0.3-0.4
			c-0.1-0.1-0.3-0.1-0.5-0.1c-0.4,0-0.6,0.1-0.9,0.4s-0.3,0.7-0.3,1.4v3L142.9,293.7L142.9,293.7z"/>
		<path class="st5" d="M150.4,293c-0.2,0.3-0.5,0.5-0.8,0.6c-0.3,0.1-0.6,0.2-0.9,0.2c-0.5,0-0.8-0.1-1.1-0.4
			c-0.3-0.3-0.4-0.7-0.4-1.1c0-0.3,0.1-0.6,0.2-0.8s0.3-0.4,0.5-0.6s0.6-0.2,1-0.3c0.6-0.1,1.1-0.2,1.4-0.3V290
			c0-0.4-0.1-0.6-0.2-0.8c-0.2-0.2-0.5-0.3-0.9-0.3c-0.4,0-0.6,0.1-0.8,0.2s-0.3,0.4-0.4,0.8l-0.7-0.1c0.1-0.6,0.3-1,0.6-1.3
			c0.3-0.3,0.8-0.4,1.4-0.4c0.5,0,0.8,0.1,1.1,0.3c0.3,0.2,0.4,0.4,0.5,0.6c0.1,0.3,0.1,0.6,0.1,1.1v1.2c0,0.9,0,1.4,0.1,1.6
			c0,0.2,0.1,0.4,0.2,0.6h-0.8C150.5,293.5,150.4,293.2,150.4,293L150.4,293z M150.4,290.9c-0.3,0.1-0.7,0.2-1.2,0.4
			c-0.3,0-0.5,0.1-0.7,0.2s-0.2,0.2-0.3,0.3c-0.1,0.1-0.1,0.3-0.1,0.4c0,0.3,0.1,0.5,0.2,0.6c0.2,0.2,0.4,0.2,0.7,0.2
			c0.3,0,0.5-0.1,0.7-0.2c0.2-0.1,0.4-0.3,0.5-0.6s0.2-0.6,0.2-1L150.4,290.9L150.4,290.9z"/>
		<path class="st5" d="M152.1,295.8v-7.5h0.7v0.7c0.2-0.3,0.4-0.5,0.6-0.6s0.4-0.2,0.7-0.2c0.4,0,0.7,0.1,0.9,0.3s0.5,0.5,0.7,1
			c0.2,0.4,0.3,0.9,0.3,1.5c0,0.9-0.2,1.6-0.6,2.1s-0.8,0.8-1.4,0.8c-0.2,0-0.4-0.1-0.6-0.2s-0.4-0.3-0.5-0.5v2.6H152.1L152.1,295.8
			z M152.8,291c0,0.7,0.1,1.2,0.4,1.6c0.2,0.3,0.5,0.5,0.9,0.5s0.6-0.2,0.8-0.5s0.4-0.9,0.4-1.6s-0.1-1.2-0.4-1.6s-0.5-0.5-0.9-0.5
			c-0.3,0-0.6,0.2-0.8,0.5S152.8,290.3,152.8,291L152.8,291z"/>
		<path class="st5" d="M156.4,292l0.8-0.1c0,0.4,0.2,0.7,0.4,0.9c0.2,0.2,0.5,0.3,0.8,0.3s0.6-0.1,0.8-0.2s0.3-0.4,0.3-0.6
			c0-0.2-0.1-0.4-0.2-0.5c-0.1-0.1-0.4-0.2-0.8-0.3c-0.6-0.2-1-0.3-1.2-0.5s-0.4-0.3-0.5-0.5c-0.1-0.2-0.2-0.5-0.2-0.7
			c0-0.5,0.1-0.8,0.4-1.1s0.7-0.4,1.2-0.4c0.3,0,0.6,0.1,0.9,0.2s0.4,0.3,0.6,0.5s0.2,0.5,0.3,0.9l-0.7,0.1c-0.1-0.6-0.4-0.9-1-0.9
			c-0.3,0-0.6,0.1-0.7,0.2c-0.2,0.1-0.2,0.3-0.2,0.5s0.1,0.4,0.2,0.5c0.1,0.1,0.4,0.2,0.8,0.3c0.6,0.2,1,0.4,1.2,0.5
			c0.2,0.1,0.3,0.3,0.4,0.5c0.1,0.2,0.1,0.5,0.1,0.7c0,0.5-0.2,0.9-0.5,1.3s-0.8,0.5-1.4,0.5C157.1,293.8,156.5,293.2,156.4,292
			L156.4,292z"/>
		<path class="st5" d="M160.7,287.2v-1.1h0.8v1.1H160.7z M160.7,293.7v-5.4h0.8v5.4H160.7z"/>
		<path class="st5" d="M162.1,292l0.8-0.1c0,0.4,0.2,0.7,0.4,0.9c0.2,0.2,0.5,0.3,0.8,0.3s0.6-0.1,0.8-0.2s0.3-0.4,0.3-0.6
			c0-0.2-0.1-0.4-0.2-0.5c-0.1-0.1-0.4-0.2-0.8-0.3c-0.6-0.2-1-0.3-1.2-0.5s-0.4-0.3-0.5-0.5c-0.1-0.2-0.2-0.5-0.2-0.7
			c0-0.5,0.1-0.8,0.4-1.1s0.7-0.4,1.2-0.4c0.3,0,0.6,0.1,0.9,0.2s0.4,0.3,0.6,0.5s0.2,0.5,0.3,0.9l-0.7,0.1c-0.1-0.6-0.4-0.9-1-0.9
			c-0.3,0-0.6,0.1-0.7,0.2c-0.2,0.1-0.2,0.3-0.2,0.5s0.1,0.4,0.2,0.5c0.1,0.1,0.4,0.2,0.8,0.3c0.6,0.2,1,0.4,1.2,0.5
			c0.2,0.1,0.3,0.3,0.4,0.5c0.1,0.2,0.1,0.5,0.1,0.7c0,0.5-0.2,0.9-0.5,1.3s-0.8,0.5-1.4,0.5C162.9,293.8,162.3,293.2,162.1,292
			L162.1,292z"/>
		<path class="st5" d="M192.7,306.5l0.8-0.1c0,0.4,0.1,0.7,0.3,1c0.1,0.2,0.4,0.4,0.6,0.6c0.3,0.1,0.6,0.2,0.9,0.2
			c0.5,0,0.9-0.1,1.1-0.4s0.4-0.5,0.4-0.9c0-0.2-0.1-0.4-0.1-0.6c-0.1-0.2-0.2-0.3-0.4-0.4c-0.2-0.1-0.6-0.2-1.3-0.5
			c-0.6-0.2-1-0.4-1.2-0.5c-0.2-0.2-0.4-0.4-0.6-0.7s-0.2-0.6-0.2-0.9c0-0.6,0.2-1.1,0.6-1.5c0.4-0.4,0.9-0.6,1.6-0.6
			c0.5,0,0.9,0.1,1.2,0.3s0.6,0.4,0.8,0.8s0.3,0.7,0.3,1.2l-0.8,0.1c0-0.5-0.2-0.9-0.4-1.1s-0.6-0.4-1.1-0.4s-0.8,0.1-1.1,0.3
			c-0.2,0.2-0.4,0.5-0.4,0.8c0,0.3,0.1,0.5,0.3,0.7c0.2,0.2,0.6,0.3,1.2,0.5c0.6,0.2,1,0.3,1.3,0.4c0.4,0.2,0.7,0.4,0.9,0.8
			c0.2,0.3,0.3,0.7,0.3,1.1s-0.1,0.8-0.3,1.2s-0.5,0.6-0.8,0.8s-0.8,0.3-1.2,0.3c-0.8,0-1.4-0.2-1.8-0.7S192.7,307.2,192.7,306.5
			L192.7,306.5z"/>
		<path class="st5" d="M198.1,306.1c0-0.9,0.2-1.6,0.6-2.1s0.9-0.7,1.5-0.7s1.1,0.2,1.5,0.7s0.6,1.2,0.6,2.1c0,1-0.2,1.7-0.6,2.2
			c-0.4,0.5-0.9,0.7-1.5,0.7s-1.1-0.2-1.5-0.7C198.3,307.8,198.1,307.1,198.1,306.1L198.1,306.1z M198.9,306.1
			c0,0.7,0.1,1.2,0.4,1.6c0.3,0.3,0.6,0.5,0.9,0.5c0.4,0,0.7-0.2,0.9-0.5c0.2-0.4,0.4-0.9,0.4-1.6s-0.1-1.2-0.4-1.6
			c-0.3-0.3-0.6-0.5-0.9-0.5c-0.4,0-0.7,0.2-0.9,0.5C199,304.9,198.9,305.4,198.9,306.1z"/>
		<path class="st5" d="M202.9,308.9v-5.4h0.7v0.8c0.2-0.3,0.4-0.5,0.6-0.7c0.2-0.1,0.5-0.2,0.8-0.2c0.2,0,0.5,0,0.7,0.1
			s0.4,0.2,0.5,0.4s0.2,0.4,0.3,0.6s0.1,0.6,0.1,1.1v3.4h-0.8v-3.3c0-0.4,0-0.7-0.1-0.9c-0.1-0.2-0.2-0.3-0.3-0.4
			c-0.1-0.1-0.3-0.1-0.5-0.1c-0.4,0-0.6,0.1-0.9,0.4s-0.3,0.7-0.3,1.4v3L202.9,308.9L202.9,308.9z"/>
		<path class="st5" d="M210.4,308.2c-0.2,0.3-0.5,0.5-0.8,0.6c-0.3,0.1-0.6,0.2-0.9,0.2c-0.5,0-0.8-0.1-1.1-0.4
			c-0.3-0.3-0.4-0.7-0.4-1.1c0-0.3,0.1-0.6,0.2-0.8c0.1-0.2,0.3-0.4,0.5-0.6s0.6-0.2,1-0.3c0.6-0.1,1.1-0.2,1.4-0.3v-0.2
			c0-0.4-0.1-0.6-0.2-0.8c-0.2-0.2-0.5-0.3-0.9-0.3c-0.4,0-0.6,0.1-0.8,0.2s-0.3,0.4-0.4,0.8l-0.7-0.1c0.1-0.6,0.3-1,0.6-1.3
			c0.3-0.3,0.8-0.4,1.4-0.4c0.5,0,0.8,0.1,1.1,0.3c0.3,0.2,0.4,0.4,0.5,0.6c0.1,0.3,0.1,0.6,0.1,1.1v1.2c0,0.9,0,1.4,0.1,1.6
			s0.1,0.4,0.2,0.6h-0.8C210.5,308.7,210.4,308.5,210.4,308.2L210.4,308.2z M210.4,306.1c-0.3,0.1-0.7,0.2-1.2,0.4
			c-0.3,0-0.5,0.1-0.7,0.2s-0.2,0.2-0.3,0.3c-0.1,0.1-0.1,0.3-0.1,0.4c0,0.3,0.1,0.5,0.2,0.6c0.2,0.2,0.4,0.2,0.7,0.2
			c0.3,0,0.5-0.1,0.7-0.2c0.2-0.1,0.4-0.3,0.5-0.6s0.2-0.6,0.2-1L210.4,306.1L210.4,306.1z"/>
		<path class="st5" d="M213.8,308l0.1,0.8c-0.2,0-0.4,0.1-0.6,0.1c-0.3,0-0.5,0-0.6-0.2c-0.2-0.1-0.3-0.2-0.3-0.4s-0.1-0.5-0.1-1.1
			v-3.1h-0.6v-0.7h0.6v-1.4l0.8-0.5v1.9h0.8v0.7H213v3.2c0,0.3,0,0.5,0.1,0.6c0.1,0.1,0.2,0.2,0.4,0.2
			C213.5,308.1,213.6,308.1,213.8,308L213.8,308z"/>
		<path class="st5" d="M214.2,311l-0.1-0.9c0.2,0,0.3,0.1,0.4,0.1c0.2,0,0.3,0,0.4-0.1c0.1-0.1,0.2-0.2,0.3-0.3c0,0,0.1-0.4,0.3-0.9
			l-1.7-5.5h0.8l0.9,3.1c0.1,0.4,0.2,0.8,0.3,1.3c0.1-0.4,0.2-0.8,0.3-1.2l0.9-3.2h0.8l-1.7,5.5c-0.2,0.7-0.4,1.2-0.5,1.4
			s-0.3,0.4-0.4,0.5c-0.2,0.1-0.4,0.2-0.6,0.2C214.6,311.1,214.4,311,214.2,311L214.2,311z"/>
		<path class="st5" d="M218.3,311v-7.5h0.7v0.7c0.2-0.3,0.4-0.5,0.6-0.6s0.4-0.2,0.7-0.2c0.4,0,0.7,0.1,0.9,0.3s0.5,0.5,0.7,1
			c0.2,0.4,0.3,0.9,0.3,1.5c0,0.9-0.2,1.6-0.6,2.1s-0.8,0.8-1.4,0.8c-0.2,0-0.4-0.1-0.6-0.2s-0.4-0.3-0.5-0.5v2.6H218.3L218.3,311z
			 M219,306.2c0,0.7,0.1,1.2,0.4,1.6c0.2,0.3,0.5,0.5,0.9,0.5s0.6-0.2,0.8-0.5c0.2-0.3,0.4-0.9,0.4-1.6s-0.1-1.2-0.4-1.6
			s-0.5-0.5-0.9-0.5c-0.3,0-0.6,0.2-0.8,0.5S219,305.5,219,306.2L219,306.2z"/>
		<path class="st5" d="M225.9,307.1l0.8,0.1c-0.1,0.6-0.4,1-0.7,1.3s-0.8,0.4-1.3,0.4c-0.6,0-1.1-0.2-1.5-0.7
			c-0.4-0.5-0.6-1.2-0.6-2.1s0.2-1.7,0.6-2.1s0.9-0.7,1.5-0.7s1.1,0.2,1.4,0.7c0.4,0.5,0.6,1.2,0.6,2.1v0.2h-3.3
			c0,0.6,0.2,1.1,0.4,1.4c0.2,0.3,0.6,0.5,0.9,0.5C225.3,308.3,225.7,307.9,225.9,307.1L225.9,307.1z M223.5,305.6h2.5
			c0-0.5-0.1-0.8-0.3-1.1c-0.2-0.3-0.6-0.5-0.9-0.5c-0.3,0-0.6,0.1-0.9,0.4S223.5,305.1,223.5,305.6L223.5,305.6z"/>
		<path class="st5" d="M304.4,343.9v-7.5h1.2l1.5,5.3l0.3,1.1c0.1-0.3,0.2-0.7,0.3-1.2l1.5-5.2h1.1v7.5h-0.8v-6.3l-1.8,6.3H307
			l-1.8-6.4v6.4L304.4,343.9L304.4,343.9z"/>
		<path class="st5" d="M314.4,342.2l0.8,0.1c-0.1,0.6-0.4,1-0.7,1.3s-0.8,0.4-1.3,0.4c-0.6,0-1.1-0.2-1.5-0.7
			c-0.4-0.5-0.6-1.2-0.6-2.1s0.2-1.7,0.6-2.1c0.4-0.5,0.9-0.7,1.5-0.7s1.1,0.2,1.5,0.7c0.4,0.5,0.6,1.2,0.6,2.1v0.2h-3.3
			c0,0.6,0.2,1.1,0.4,1.4c0.2,0.3,0.6,0.5,0.9,0.5C313.7,343.3,314.1,342.9,314.4,342.2L314.4,342.2z M311.9,340.7h2.5
			c0-0.5-0.1-0.8-0.3-1.1c-0.2-0.3-0.5-0.5-0.9-0.5c-0.3,0-0.6,0.1-0.9,0.4S311.9,340.2,311.9,340.7L311.9,340.7z"/>
		<path class="st5" d="M315.9,343.9v-5.4h0.7v0.8c0.2-0.3,0.4-0.5,0.6-0.7c0.2-0.1,0.5-0.2,0.8-0.2c0.2,0,0.5,0,0.7,0.1
			s0.4,0.2,0.5,0.4s0.2,0.4,0.3,0.6s0.1,0.6,0.1,1.1v3.4h-0.8v-3.3c0-0.4,0-0.7-0.1-0.9c-0.1-0.2-0.2-0.3-0.3-0.4s-0.3-0.1-0.5-0.1
			c-0.4,0-0.6,0.1-0.9,0.4s-0.3,0.7-0.3,1.4v3L315.9,343.9L315.9,343.9z"/>
		<path class="st5" d="M323.3,343.9v-0.7c-0.1,0.3-0.3,0.5-0.5,0.6c-0.2,0.1-0.5,0.2-0.7,0.2c-0.5,0-1-0.2-1.4-0.8
			c-0.4-0.5-0.6-1.2-0.6-2.1c0-0.6,0.1-1.1,0.3-1.6c0.2-0.4,0.4-0.8,0.7-1c0.3-0.2,0.6-0.3,1-0.3c0.2,0,0.5,0.1,0.7,0.2
			s0.4,0.3,0.5,0.5v-2.7h0.8v7.5L323.3,343.9L323.3,343.9z M320.9,341.2c0,0.7,0.1,1.2,0.4,1.6s0.5,0.5,0.9,0.5s0.6-0.2,0.8-0.5
			s0.4-0.8,0.4-1.5c0-0.8-0.1-1.3-0.4-1.7s-0.5-0.5-0.9-0.5c-0.3,0-0.6,0.2-0.8,0.5C321.1,339.9,320.9,340.5,320.9,341.2
			L320.9,341.2z"/>
		<path class="st5" d="M325.2,343.9v-1h0.9v1H325.2z"/>
		<path class="st5" d="M327.2,337.5v-1.1h0.8v1.1H327.2z M327.2,343.9v-5.4h0.8v5.4H327.2z"/>
		<path class="st5" d="M328.6,341.2c0-0.9,0.2-1.6,0.6-2.1c0.4-0.5,0.9-0.7,1.5-0.7s1.1,0.2,1.5,0.7s0.6,1.2,0.6,2.1
			c0,1-0.2,1.7-0.6,2.2c-0.4,0.5-0.9,0.7-1.5,0.7s-1.1-0.2-1.5-0.7C328.8,342.8,328.6,342.1,328.6,341.2L328.6,341.2z M329.3,341.2
			c0,0.7,0.1,1.2,0.4,1.6c0.3,0.3,0.6,0.5,1,0.5c0.4,0,0.7-0.2,0.9-0.5c0.2-0.4,0.4-0.9,0.4-1.6s-0.1-1.2-0.4-1.6
			c-0.3-0.3-0.6-0.5-1-0.5c-0.4,0-0.7,0.2-0.9,0.5C329.5,340,329.3,340.5,329.3,341.2z"/>
		<path class="st5" d="M369.8,302.7l0.8,0.2c-0.2,0.8-0.5,1.5-1,1.9s-1,0.6-1.6,0.6c-0.6,0-1.1-0.1-1.5-0.4c-0.4-0.3-0.7-0.7-1-1.3
			c-0.3-0.6-0.4-1.3-0.4-2.2s0.1-1.5,0.4-2.1s0.6-1,1-1.3c0.4-0.3,0.9-0.4,1.5-0.4c0.6,0,1.1,0.2,1.5,0.6c0.4,0.4,0.7,0.9,0.9,1.6
			l-0.8,0.2c-0.3-1-0.8-1.6-1.6-1.6c-0.4,0-0.8,0.1-1.1,0.3c-0.3,0.2-0.5,0.5-0.7,1s-0.3,1-0.3,1.7c0,1,0.2,1.8,0.5,2.3
			c0.4,0.5,0.8,0.8,1.5,0.8c0.4,0,0.8-0.2,1.1-0.5C369.5,303.8,369.7,303.3,369.8,302.7L369.8,302.7z"/>
		<path class="st5" d="M371.1,302.6c0-0.9,0.2-1.6,0.6-2.1c0.4-0.5,0.9-0.7,1.5-0.7s1.1,0.2,1.5,0.7s0.6,1.2,0.6,2.1
			c0,1-0.2,1.7-0.6,2.2c-0.4,0.5-0.9,0.7-1.5,0.7s-1.1-0.2-1.5-0.7C371.3,304.2,371.1,303.5,371.1,302.6L371.1,302.6z M371.8,302.6
			c0,0.7,0.1,1.2,0.4,1.6c0.3,0.3,0.6,0.5,1,0.5c0.4,0,0.7-0.2,0.9-0.5c0.2-0.4,0.4-0.9,0.4-1.6s-0.1-1.2-0.4-1.6
			c-0.3-0.3-0.6-0.5-1-0.5c-0.4,0-0.7,0.2-0.9,0.5C372,301.4,371.8,301.9,371.8,302.6z"/>
		<path class="st5" d="M375.9,305.3v-5.4h0.7v0.8c0.2-0.3,0.4-0.5,0.6-0.7s0.5-0.2,0.8-0.2c0.2,0,0.5,0,0.7,0.1
			c0.2,0.1,0.4,0.2,0.5,0.4s0.2,0.4,0.3,0.6s0.1,0.6,0.1,1.1v3.4h-0.8V302c0-0.4,0-0.7-0.1-0.9c-0.1-0.2-0.2-0.3-0.3-0.4
			s-0.3-0.1-0.5-0.1c-0.4,0-0.6,0.1-0.9,0.4s-0.3,0.7-0.3,1.4v3L375.9,305.3L375.9,305.3z"/>
		<path class="st5" d="M382.2,304.5l0.1,0.8c-0.2,0-0.4,0.1-0.6,0.1c-0.3,0-0.5,0-0.6-0.2c-0.2-0.1-0.3-0.2-0.3-0.4
			s-0.1-0.5-0.1-1.1v-3.1h-0.5v-0.7h0.5v-1.4l0.8-0.5v1.9h0.8v0.7h-0.8v3.2c0,0.3,0,0.5,0.1,0.6c0.1,0.1,0.2,0.2,0.4,0.2
			C381.9,304.5,382,304.5,382.2,304.5L382.2,304.5z"/>
		<path class="st5" d="M382.7,305.3v-5.4h0.7v0.8c0.2-0.4,0.3-0.6,0.5-0.8c0.1-0.1,0.3-0.2,0.5-0.2c0.2,0,0.5,0.1,0.8,0.3l-0.3,0.9
			c-0.2-0.1-0.4-0.2-0.5-0.2c-0.2,0-0.3,0.1-0.4,0.2c-0.1,0.1-0.2,0.3-0.3,0.5c-0.1,0.4-0.1,0.7-0.1,1.1v2.9L382.7,305.3
			L382.7,305.3z"/>
		<path class="st5" d="M388.2,304.6c-0.2,0.3-0.5,0.5-0.8,0.6c-0.3,0.1-0.6,0.2-0.9,0.2c-0.5,0-0.8-0.1-1.1-0.4
			c-0.3-0.3-0.4-0.7-0.4-1.1c0-0.3,0.1-0.6,0.2-0.8s0.3-0.4,0.5-0.6s0.6-0.2,1-0.3c0.6-0.1,1.1-0.2,1.4-0.3v-0.2
			c0-0.4-0.1-0.6-0.2-0.8c-0.2-0.2-0.5-0.3-0.9-0.3c-0.4,0-0.6,0.1-0.8,0.2s-0.3,0.4-0.4,0.8l-0.7-0.1c0.1-0.6,0.3-1,0.6-1.3
			s0.8-0.4,1.4-0.4c0.5,0,0.8,0.1,1.1,0.3c0.3,0.2,0.4,0.4,0.5,0.6c0.1,0.3,0.1,0.6,0.1,1.1v1.2c0,0.9,0,1.4,0,1.6s0.1,0.4,0.2,0.6
			h-0.8C388.3,305.1,388.2,304.9,388.2,304.6L388.2,304.6z M388.2,302.6c-0.3,0.1-0.7,0.2-1.2,0.4c-0.3,0-0.5,0.1-0.7,0.2
			s-0.2,0.2-0.3,0.3c-0.1,0.1-0.1,0.3-0.1,0.4c0,0.3,0.1,0.5,0.2,0.6c0.2,0.2,0.4,0.2,0.7,0.2c0.3,0,0.5-0.1,0.7-0.2
			c0.2-0.1,0.4-0.3,0.5-0.6s0.2-0.6,0.2-1L388.2,302.6L388.2,302.6z"/>
		<path class="st5" d="M389.6,303.7l0.8-0.1c0,0.4,0.2,0.7,0.4,0.9c0.2,0.2,0.5,0.3,0.8,0.3s0.6-0.1,0.8-0.2s0.3-0.4,0.3-0.6
			c0-0.2-0.1-0.4-0.2-0.5c-0.1-0.1-0.4-0.2-0.8-0.3c-0.6-0.2-1-0.3-1.2-0.5s-0.4-0.3-0.5-0.5c-0.1-0.2-0.2-0.5-0.2-0.7
			c0-0.5,0.1-0.8,0.5-1.1s0.7-0.4,1.2-0.4c0.3,0,0.6,0.1,0.9,0.2s0.4,0.3,0.6,0.5s0.2,0.5,0.3,0.9l-0.7,0.1c-0.1-0.6-0.4-0.9-1-0.9
			c-0.3,0-0.6,0.1-0.7,0.2s-0.2,0.3-0.2,0.5s0.1,0.4,0.2,0.5c0.1,0.1,0.4,0.2,0.8,0.3c0.6,0.2,1,0.4,1.2,0.5
			c0.2,0.1,0.3,0.3,0.4,0.5s0.1,0.5,0.1,0.7c0,0.5-0.2,0.9-0.5,1.3s-0.8,0.5-1.4,0.5C390.4,305.4,389.7,304.9,389.6,303.7
			L389.6,303.7z"/>
		<path class="st5" d="M395.6,304.5l0.1,0.8c-0.2,0-0.4,0.1-0.6,0.1c-0.3,0-0.5,0-0.6-0.2c-0.2-0.1-0.3-0.2-0.3-0.4
			s-0.1-0.5-0.1-1.1v-3.1h-0.5v-0.7h0.5v-1.4l0.8-0.5v1.9h0.8v0.7h-0.8v3.2c0,0.3,0,0.5,0.1,0.6c0.1,0.1,0.2,0.2,0.4,0.2
			C395.4,304.5,395.5,304.5,395.6,304.5L395.6,304.5z"/>
		<path class="st5" d="M398.1,302.9l0.8-0.1c0,0.4,0.1,0.7,0.3,1c0.1,0.2,0.4,0.4,0.6,0.6c0.3,0.1,0.6,0.2,0.9,0.2
			c0.5,0,0.9-0.1,1.1-0.4c0.3-0.2,0.4-0.5,0.4-0.9c0-0.2,0-0.4-0.1-0.6c-0.1-0.2-0.2-0.3-0.4-0.4c-0.2-0.1-0.6-0.2-1.3-0.5
			c-0.6-0.2-1-0.4-1.2-0.5c-0.2-0.2-0.4-0.4-0.6-0.7c-0.1-0.3-0.2-0.6-0.2-0.9c0-0.6,0.2-1.1,0.6-1.5c0.4-0.4,0.9-0.6,1.6-0.6
			c0.5,0,0.9,0.1,1.2,0.3c0.3,0.2,0.6,0.4,0.8,0.8s0.3,0.7,0.3,1.2l-0.8,0.1c0-0.5-0.2-0.9-0.4-1.1s-0.6-0.4-1.1-0.4
			s-0.8,0.1-1.1,0.3c-0.2,0.2-0.4,0.5-0.4,0.8c0,0.3,0.1,0.5,0.3,0.7s0.6,0.3,1.2,0.5c0.6,0.2,1,0.3,1.3,0.4
			c0.4,0.2,0.7,0.4,0.9,0.8c0.2,0.3,0.3,0.7,0.3,1.1s-0.1,0.8-0.3,1.2c-0.2,0.4-0.5,0.6-0.8,0.8s-0.8,0.3-1.2,0.3
			c-0.8,0-1.4-0.2-1.8-0.7S398.2,303.7,398.1,302.9L398.1,302.9z"/>
		<path class="st5" d="M406.9,303.5l0.8,0.1c-0.1,0.6-0.4,1-0.7,1.3s-0.8,0.4-1.3,0.4c-0.6,0-1.1-0.2-1.5-0.7
			c-0.4-0.5-0.6-1.2-0.6-2.1s0.2-1.7,0.6-2.1c0.4-0.5,0.9-0.7,1.5-0.7s1.1,0.2,1.5,0.7c0.4,0.5,0.6,1.2,0.6,2.1v0.2h-3.3
			c0,0.6,0.2,1.1,0.4,1.4c0.2,0.3,0.6,0.5,0.9,0.5C406.3,304.7,406.6,304.3,406.9,303.5L406.9,303.5z M404.4,302.1h2.5
			c0-0.5-0.1-0.8-0.3-1.1c-0.2-0.3-0.5-0.5-0.9-0.5c-0.3,0-0.6,0.1-0.9,0.4S404.4,301.6,404.4,302.1L404.4,302.1z"/>
		<path class="st5" d="M411.3,303.3l0.7,0.1c-0.1,0.6-0.3,1.1-0.6,1.5s-0.8,0.5-1.2,0.5c-0.6,0-1.1-0.2-1.4-0.7
			c-0.4-0.5-0.6-1.2-0.6-2.1s0.2-1.7,0.6-2.1s0.9-0.7,1.5-0.7c0.5,0,0.9,0.1,1.2,0.4s0.5,0.7,0.6,1.3l-0.7,0.1
			c-0.1-0.4-0.2-0.6-0.4-0.8s-0.4-0.3-0.6-0.3c-0.4,0-0.7,0.2-0.9,0.5c-0.2,0.3-0.4,0.9-0.4,1.6s0.1,1.3,0.4,1.6s0.5,0.5,0.9,0.5
			c0.3,0,0.5-0.1,0.7-0.3C411.1,304.1,411.3,303.8,411.3,303.3L411.3,303.3z"/>
		<path class="st5" d="M415.4,305.3v-0.8c-0.2,0.3-0.4,0.5-0.6,0.7s-0.5,0.2-0.8,0.2c-0.4,0-0.6-0.1-0.9-0.3s-0.4-0.4-0.5-0.7
			s-0.1-0.7-0.1-1.2v-3.4h0.8v3c0,0.6,0,0.9,0.1,1.1c0.1,0.2,0.2,0.3,0.3,0.5c0.1,0.1,0.3,0.2,0.5,0.2c0.4,0,0.7-0.1,0.9-0.5
			c0.2-0.3,0.3-0.7,0.3-1.4v-2.9h0.8v5.4L415.4,305.3L415.4,305.3z"/>
		<path class="st5" d="M417.1,305.3v-5.4h0.7v0.8c0.2-0.4,0.3-0.6,0.5-0.8c0.1-0.1,0.3-0.2,0.5-0.2c0.2,0,0.5,0.1,0.8,0.3l-0.3,0.9
			c-0.2-0.1-0.4-0.2-0.5-0.2c-0.2,0-0.3,0.1-0.4,0.2c-0.1,0.1-0.2,0.3-0.3,0.5c-0.1,0.4-0.1,0.7-0.1,1.1v2.9L417.1,305.3
			L417.1,305.3z"/>
		<path class="st5" d="M419.7,298.8v-1.1h0.8v1.1H419.7z M419.7,305.3v-5.4h0.8v5.4H419.7z"/>
		<path class="st5" d="M423.1,304.5l0.1,0.8c-0.2,0-0.4,0.1-0.6,0.1c-0.3,0-0.5,0-0.6-0.2c-0.2-0.1-0.3-0.2-0.3-0.4
			s-0.1-0.5-0.1-1.1v-3.1H421v-0.7h0.5v-1.4l0.8-0.5v1.9h0.8v0.7h-0.8v3.2c0,0.3,0,0.5,0.1,0.6c0.1,0.1,0.2,0.2,0.4,0.2
			C422.8,304.5,422.9,304.5,423.1,304.5L423.1,304.5z"/>
		<path class="st5" d="M423.5,307.4l-0.1-0.9c0.2,0,0.3,0.1,0.4,0.1c0.2,0,0.3,0,0.4-0.1c0.1-0.1,0.2-0.2,0.3-0.3
			c0,0,0.1-0.4,0.3-0.9l-1.7-5.5h0.8l0.9,3.1c0.1,0.4,0.2,0.8,0.3,1.3c0.1-0.4,0.2-0.8,0.3-1.2l1-3.2h0.8l-1.7,5.5
			c-0.2,0.7-0.4,1.2-0.5,1.4s-0.3,0.4-0.4,0.5c-0.2,0.1-0.4,0.2-0.5,0.2C423.9,307.5,423.7,307.5,423.5,307.4L423.5,307.4z"/>
		<path class="st0" d="M111.8,519.3v-7.5h0.8l3.2,5.9v-5.9h0.8v7.5h-0.8l-3.2-5.9v5.9H111.8L111.8,519.3z"/>
		<path class="st0" d="M118.2,519.3v-7.5h0.8v7.5H118.2z"/>
		<path class="st0" d="M124.7,516.7l0.8,0.2c-0.2,0.8-0.5,1.5-0.9,1.9c-0.4,0.4-1,0.6-1.7,0.6c-0.6,0-1.1-0.1-1.5-0.4
			c-0.4-0.3-0.7-0.7-1-1.3c-0.3-0.6-0.4-1.3-0.4-2.2s0.1-1.5,0.4-2.1c0.3-0.6,0.6-1,1.1-1.3c0.4-0.3,0.9-0.4,1.5-0.4
			c0.6,0,1.1,0.2,1.5,0.5s0.7,0.9,0.9,1.6l-0.8,0.2c-0.3-1-0.8-1.6-1.7-1.6c-0.4,0-0.8,0.1-1.1,0.3s-0.5,0.5-0.7,1s-0.3,1-0.3,1.7
			c0,1,0.2,1.8,0.5,2.3s0.8,0.8,1.4,0.8c0.4,0,0.8-0.2,1.2-0.5C124.4,517.8,124.6,517.3,124.7,516.7L124.7,516.7z"/>
		<path class="st0" d="M126.5,519.3v-7.5h0.8v3.1h3.2v-3.1h0.8v7.5h-0.8v-3.5h-3.2v3.5H126.5z"/>
		<path class="st0" d="M132.7,519.3v-7.5h4.5v0.9h-3.6v2.3h3.4v0.9h-3.4v2.6h3.8v0.9L132.7,519.3L132.7,519.3z"/>
		<path class="st0" d="M140.6,519.3v-7.5h2.3c0.6,0,0.9,0,1.2,0.1c0.4,0.1,0.6,0.4,0.9,0.7s0.3,0.8,0.3,1.3c0,0.7-0.2,1.2-0.5,1.7
			s-0.9,0.6-1.8,0.6h-1.6v3.1H140.6L140.6,519.3z M141.5,515.4h1.6c0.5,0,0.9-0.1,1.1-0.3c0.2-0.2,0.4-0.6,0.4-1
			c0-0.3-0.1-0.5-0.2-0.8s-0.2-0.4-0.4-0.4c-0.2-0.1-0.5-0.1-0.9-0.1h-1.6L141.5,515.4L141.5,515.4z"/>
		<path class="st0" d="M146.3,519.3v-7.5h0.8v6.6h3v0.9H146.3L146.3,519.3z"/>
		<path class="st0" d="M150.8,519.3l2.4-7.5h0.9l2.5,7.5h-0.9l-0.7-2.3h-2.6l-0.7,2.3H150.8L150.8,519.3z M152.5,516.2h2.1l-0.6-2.1
			c-0.2-0.6-0.3-1.2-0.4-1.6c-0.1,0.5-0.2,1-0.3,1.4L152.5,516.2L152.5,516.2z"/>
		<path class="st0" d="M158.5,519.3v-3.2l-2.4-4.3h1l1.2,2.3c0.2,0.5,0.4,0.9,0.6,1.3c0.2-0.4,0.4-0.8,0.7-1.3l1.2-2.2h0.9l-2.5,4.3
			v3.2H158.5z"/>
		<path class="st0" d="M162.5,519.3v-7.5h4.5v0.9h-3.6v2.3h3.4v0.9h-3.4v2.6h3.8v0.9L162.5,519.3L162.5,519.3z"/>
		<path class="st0" d="M168.2,519.3v-7.5h2.7c0.6,0,1,0.1,1.3,0.2c0.3,0.1,0.5,0.4,0.7,0.7c0.2,0.3,0.3,0.7,0.3,1.1
			c0,0.6-0.1,1-0.4,1.4c-0.3,0.3-0.7,0.6-1.3,0.7c0.2,0.1,0.4,0.3,0.5,0.4c0.2,0.3,0.5,0.6,0.6,1l1.1,2h-1l-0.8-1.6
			c-0.3-0.6-0.6-1-0.7-1.2c-0.2-0.2-0.3-0.3-0.5-0.4c-0.1-0.1-0.4-0.1-0.6-0.1H169v3.3L168.2,519.3L168.2,519.3z M169,515.1h1.8
			c0.4,0,0.7,0,0.9-0.1s0.4-0.2,0.5-0.4s0.2-0.4,0.2-0.7c0-0.4-0.1-0.7-0.3-0.9c-0.2-0.2-0.6-0.3-1-0.3H169L169,515.1L169,515.1z"/>
		<path class="st0" d="M173.7,516.9l0.8-0.1c0,0.4,0.1,0.7,0.3,1s0.4,0.4,0.6,0.6c0.3,0.1,0.6,0.2,0.9,0.2c0.5,0,0.9-0.1,1.1-0.4
			s0.4-0.5,0.4-0.9c0-0.2-0.1-0.4-0.1-0.6c-0.1-0.2-0.2-0.3-0.4-0.4s-0.6-0.3-1.3-0.5c-0.6-0.2-1-0.3-1.2-0.5
			c-0.2-0.2-0.4-0.4-0.6-0.7s-0.2-0.6-0.2-0.9c0-0.6,0.2-1.1,0.6-1.5c0.4-0.4,0.9-0.6,1.6-0.6c0.5,0,0.9,0.1,1.2,0.3
			s0.6,0.4,0.8,0.8s0.3,0.7,0.3,1.2l-0.8,0.1c0-0.5-0.2-0.8-0.4-1.1c-0.2-0.2-0.6-0.3-1.1-0.3s-0.8,0.1-1.1,0.3
			c-0.2,0.2-0.4,0.5-0.4,0.8c0,0.3,0.1,0.5,0.3,0.7c0.2,0.2,0.6,0.3,1.2,0.5c0.6,0.2,1,0.3,1.3,0.4c0.4,0.2,0.7,0.5,0.9,0.8
			s0.3,0.7,0.3,1.1s-0.1,0.8-0.3,1.2s-0.5,0.6-0.8,0.8c-0.4,0.2-0.8,0.3-1.2,0.3c-0.8,0-1.4-0.2-1.8-0.7
			C173.9,518.3,173.7,517.7,173.7,516.9L173.7,516.9z"/>
		<path class="st0" d="M363.1,519.3l-2.4-7.5h0.9l1.6,5.5c0.1,0.4,0.2,0.8,0.3,1.2c0.1-0.4,0.2-0.8,0.3-1.2l1.7-5.5h0.8l-2.4,7.5
			H363.1L363.1,519.3z"/>
		<path class="st0" d="M367.1,519.3v-7.5h0.8v7.5H367.1z"/>
		<path class="st0" d="M369,516.9l0.8-0.1c0,0.4,0.1,0.7,0.3,1s0.4,0.4,0.6,0.6s0.6,0.2,0.9,0.2c0.5,0,0.9-0.1,1.1-0.4
			c0.3-0.2,0.4-0.5,0.4-0.9c0-0.2,0-0.4-0.1-0.6c-0.1-0.2-0.2-0.3-0.4-0.4s-0.6-0.3-1.3-0.5c-0.6-0.2-1-0.3-1.2-0.5
			c-0.2-0.2-0.4-0.4-0.6-0.7s-0.2-0.6-0.2-0.9c0-0.6,0.2-1.1,0.6-1.5c0.4-0.4,0.9-0.6,1.6-0.6c0.5,0,0.9,0.1,1.2,0.3
			c0.3,0.2,0.6,0.4,0.8,0.8s0.3,0.7,0.3,1.2L373,514c0-0.5-0.2-0.8-0.4-1.1s-0.6-0.3-1.1-0.3s-0.8,0.1-1.1,0.3
			c-0.2,0.2-0.4,0.5-0.4,0.8c0,0.3,0.1,0.5,0.3,0.7c0.2,0.2,0.6,0.3,1.2,0.5c0.6,0.2,1,0.3,1.3,0.4c0.4,0.2,0.7,0.5,0.9,0.8
			s0.3,0.7,0.3,1.1s-0.1,0.8-0.3,1.2c-0.2,0.3-0.5,0.6-0.8,0.8c-0.4,0.2-0.8,0.3-1.2,0.3c-0.8,0-1.4-0.2-1.8-0.7
			S369.1,517.7,369,516.9L369,516.9z"/>
		<path class="st0" d="M375.1,519.3v-7.5h0.8v7.5H375.1z"/>
		<path class="st0" d="M377.1,515.7c0-1.3,0.3-2.3,0.9-3c0.6-0.7,1.3-1,2.1-1c0.5,0,1,0.1,1.5,0.5c0.5,0.3,0.8,0.8,1.1,1.3
			s0.4,1.3,0.4,2.1c0,1.1-0.2,2-0.8,2.7c-0.6,0.8-1.3,1.2-2.2,1.2s-1.6-0.4-2.2-1.2C377.3,517.5,377.1,516.7,377.1,515.7
			L377.1,515.7z M377.9,515.7c0,0.9,0.2,1.7,0.6,2.2c0.4,0.5,0.9,0.8,1.5,0.8s1.1-0.3,1.5-0.8c0.4-0.5,0.6-1.3,0.6-2.3
			c0-0.7-0.1-1.2-0.3-1.7c-0.2-0.4-0.4-0.7-0.7-0.9c-0.3-0.2-0.7-0.3-1.1-0.3c-0.6,0-1.1,0.3-1.5,0.8S377.9,514.6,377.9,515.7
			L377.9,515.7z"/>
		<path class="st0" d="M383.9,519.3v-7.5h0.8l3.2,5.9v-5.9h0.8v7.5H388l-3.2-5.9v5.9H383.9L383.9,519.3z"/>
		<path class="st0" d="M390.1,519.3l2.4-7.5h0.9l2.5,7.5h-0.9l-0.7-2.3h-2.6l-0.7,2.3H390.1z M391.8,516.2h2.1l-0.6-2.1
			c-0.2-0.6-0.3-1.2-0.4-1.6c-0.1,0.5-0.2,1-0.3,1.4L391.8,516.2L391.8,516.2z"/>
		<path class="st0" d="M396.8,519.3v-7.5h2.7c0.6,0,1,0.1,1.3,0.2c0.3,0.1,0.5,0.4,0.7,0.7c0.2,0.3,0.3,0.7,0.3,1.1
			c0,0.6-0.1,1-0.4,1.4c-0.3,0.3-0.7,0.6-1.3,0.7c0.2,0.1,0.4,0.3,0.5,0.4c0.2,0.3,0.5,0.6,0.6,1l1.1,2h-1l-0.8-1.6
			c-0.3-0.6-0.6-1-0.7-1.2c-0.2-0.2-0.3-0.3-0.5-0.4c-0.1-0.1-0.4-0.1-0.6-0.1h-0.9v3.3L396.8,519.3L396.8,519.3z M397.6,515.1h1.8
			c0.4,0,0.7,0,0.9-0.1c0.2-0.1,0.4-0.2,0.5-0.4s0.2-0.4,0.2-0.7c0-0.4-0.1-0.7-0.3-0.9c-0.2-0.2-0.5-0.3-1-0.3h-2L397.6,515.1
			L397.6,515.1z"/>
		<path class="st0" d="M402.9,519.3v-7.5h0.8v7.5H402.9z"/>
		<path class="st0" d="M405.1,519.3v-7.5h4.5v0.9h-3.6v2.3h3.4v0.9h-3.4v2.6h3.8v0.9L405.1,519.3L405.1,519.3z"/>
		<path class="st0" d="M410.1,516.9l0.8-0.1c0,0.4,0.1,0.7,0.3,1s0.4,0.4,0.6,0.6s0.6,0.2,0.9,0.2c0.5,0,0.9-0.1,1.1-0.4
			c0.3-0.2,0.4-0.5,0.4-0.9c0-0.2,0-0.4-0.1-0.6c-0.1-0.2-0.2-0.3-0.4-0.4s-0.6-0.3-1.3-0.5c-0.6-0.2-1-0.3-1.2-0.5
			c-0.2-0.2-0.4-0.4-0.6-0.7s-0.2-0.6-0.2-0.9c0-0.6,0.2-1.1,0.6-1.5c0.4-0.4,0.9-0.6,1.6-0.6c0.5,0,0.9,0.1,1.2,0.3
			c0.3,0.2,0.6,0.4,0.8,0.8s0.3,0.7,0.3,1.2L414,514c0-0.5-0.2-0.8-0.4-1.1s-0.6-0.3-1.1-0.3s-0.8,0.1-1.1,0.3
			c-0.2,0.2-0.4,0.5-0.4,0.8c0,0.3,0.1,0.5,0.3,0.7c0.2,0.2,0.6,0.3,1.2,0.5c0.6,0.2,1,0.3,1.3,0.4c0.4,0.2,0.7,0.5,0.9,0.8
			s0.3,0.7,0.3,1.1s-0.1,0.8-0.3,1.2c-0.2,0.3-0.5,0.6-0.8,0.8c-0.4,0.2-0.8,0.3-1.2,0.3c-0.8,0-1.4-0.2-1.8-0.7
			S410.1,517.7,410.1,516.9L410.1,516.9z"/>
		<path class="st0" d="M118,57.4l0.8,0.2c-0.2,0.8-0.5,1.5-0.9,1.9s-1,0.6-1.7,0.6c-0.6,0-1.1-0.1-1.5-0.4c-0.4-0.3-0.7-0.7-1-1.3
			c-0.3-0.6-0.4-1.3-0.4-2.2s0.1-1.5,0.4-2.1s0.6-1,1.1-1.3c0.4-0.3,0.9-0.4,1.5-0.4c0.6,0,1.1,0.2,1.5,0.5s0.7,0.9,0.9,1.6
			l-0.8,0.2c-0.3-1-0.8-1.6-1.7-1.6c-0.4,0-0.8,0.1-1.1,0.3s-0.5,0.5-0.7,1s-0.3,1-0.3,1.7c0,1,0.2,1.8,0.5,2.3s0.8,0.8,1.4,0.8
			c0.4,0,0.8-0.2,1.2-0.5C117.7,58.5,117.9,58,118,57.4L118,57.4z"/>
		<path class="st0" d="M119.9,60v-7.5h0.8v3.1h3.2v-3.1h0.8V60h-0.8v-3.5h-3.2V60H119.9z"/>
		<path class="st0" d="M125.7,60l2.4-7.5h0.9l2.5,7.5h-0.9l-0.7-2.3h-2.6l-0.7,2.3C126.6,60,125.7,60,125.7,60z M127.5,56.9h2.1
			l-0.6-2.1c-0.2-0.6-0.3-1.2-0.4-1.6c-0.1,0.5-0.2,1-0.3,1.4L127.5,56.9L127.5,56.9z"/>
		<path class="st0" d="M132.5,60v-7.5h0.8v6.6h3V60H132.5L132.5,60z"/>
		<path class="st0" d="M137.3,60v-7.5h0.8v6.6h3V60H137.3L137.3,60z"/>
		<path class="st0" d="M142.1,60v-7.5h4.5v0.9H143v2.3h3.4v0.9H143v2.6h3.8V60L142.1,60L142.1,60z"/>
		<path class="st0" d="M147.9,60v-7.5h0.8l3.2,5.9v-5.9h0.8V60h-0.8l-3.2-5.9V60H147.9L147.9,60z"/>
		<path class="st0" d="M157,57.1v-0.9h2.6V59c-0.4,0.4-0.8,0.7-1.2,0.9c-0.4,0.2-0.9,0.3-1.3,0.3c-0.6,0-1.1-0.2-1.6-0.5
			s-0.9-0.7-1.1-1.3c-0.3-0.6-0.4-1.3-0.4-2.1s0.1-1.5,0.4-2.1s0.6-1.1,1.1-1.3s1-0.4,1.6-0.4c0.4,0,0.9,0.1,1.2,0.2
			c0.3,0.2,0.6,0.4,0.8,0.7s0.4,0.7,0.5,1.3l-0.7,0.2c-0.1-0.4-0.2-0.7-0.4-1s-0.4-0.4-0.6-0.5c-0.2-0.1-0.5-0.2-0.8-0.2
			c-0.4,0-0.8,0.1-1.2,0.3c-0.3,0.2-0.6,0.6-0.8,1c-0.2,0.5-0.3,1-0.3,1.7c0,1,0.2,1.8,0.6,2.3s1,0.8,1.6,0.8c0.3,0,0.6-0.1,1-0.2
			c0.3-0.2,0.6-0.3,0.8-0.5v-1.4H157L157,57.1z"/>
		<path class="st0" d="M160.8,60v-7.5h4.5v0.9h-3.6v2.3h3.4v0.9h-3.4v2.6h3.8V60L160.8,60L160.8,60z"/>
		<path class="st0" d="M166.1,60v-7.5h2.7c0.6,0,1,0.1,1.3,0.2c0.3,0.1,0.5,0.4,0.7,0.7c0.2,0.3,0.3,0.7,0.3,1.1
			c0,0.6-0.1,1-0.4,1.4c-0.3,0.3-0.7,0.6-1.3,0.7c0.2,0.1,0.4,0.3,0.5,0.4c0.2,0.3,0.5,0.6,0.6,1l1.1,2h-1l-0.8-1.6
			c-0.3-0.6-0.6-1-0.7-1.2c-0.2-0.2-0.3-0.3-0.5-0.4c-0.1-0.1-0.4-0.1-0.6-0.1h-0.9V60L166.1,60L166.1,60z M166.9,55.8h1.8
			c0.4,0,0.7,0,0.9-0.1s0.4-0.2,0.5-0.4s0.2-0.4,0.2-0.7c0-0.4-0.1-0.7-0.3-0.9s-0.6-0.3-1-0.3h-1.9L166.9,55.8L166.9,55.8z"/>
		<path class="st0" d="M171.6,57.6l0.8-0.1c0,0.4,0.1,0.7,0.3,1s0.4,0.4,0.6,0.6c0.3,0.1,0.6,0.2,0.9,0.2c0.5,0,0.9-0.1,1.1-0.4
			s0.4-0.5,0.4-0.9c0-0.2-0.1-0.4-0.1-0.6c-0.1-0.2-0.2-0.3-0.4-0.4s-0.6-0.3-1.3-0.5c-0.6-0.2-1-0.3-1.2-0.5
			c-0.2-0.2-0.4-0.4-0.6-0.7s-0.2-0.6-0.2-0.9c0-0.6,0.2-1.1,0.6-1.5c0.4-0.4,0.9-0.6,1.6-0.6c0.5,0,0.9,0.1,1.2,0.3
			s0.6,0.4,0.8,0.8s0.3,0.7,0.3,1.2l-0.8,0.1c0-0.5-0.2-0.8-0.4-1.1s-0.6-0.3-1.1-0.3s-0.8,0.1-1.1,0.3c-0.2,0.2-0.4,0.5-0.4,0.8
			c0,0.3,0.1,0.5,0.3,0.7c0.2,0.2,0.6,0.3,1.2,0.5c0.6,0.2,1,0.3,1.3,0.4c0.4,0.2,0.7,0.5,0.9,0.8s0.3,0.7,0.3,1.1s-0.1,0.8-0.3,1.2
			s-0.5,0.6-0.8,0.8c-0.4,0.2-0.8,0.3-1.2,0.3c-0.8,0-1.4-0.2-1.8-0.7C171.9,59,171.6,58.4,171.6,57.6L171.6,57.6z"/>
		<path class="st0" d="M370.3,59.5V52h0.8v6.6h3v0.9H370.3L370.3,59.5z"/>
		<path class="st0" d="M375.1,59.5V52h4.5v0.9h-3.6v2.3h3.4v0.9h-3.4v2.6h3.8v0.9L375.1,59.5L375.1,59.5z"/>
		<path class="st0" d="M379.9,59.5l2.4-7.5h0.9l2.5,7.5h-0.9l-0.7-2.3h-2.6l-0.7,2.3H379.9z M381.7,56.4h2.1l-0.6-2.1
			c-0.2-0.6-0.3-1.2-0.4-1.6c-0.1,0.5-0.2,1-0.3,1.4L381.7,56.4L381.7,56.4z"/>
		<path class="st0" d="M386.3,59.5V52h2.1c0.5,0,0.9,0,1.2,0.1c0.4,0.1,0.7,0.3,0.9,0.7c0.3,0.3,0.5,0.7,0.6,1.2s0.2,1.1,0.2,1.7
			c0,0.8-0.1,1.6-0.4,2.2s-0.6,1-1,1.3c-0.4,0.2-0.9,0.4-1.5,0.4L386.3,59.5L386.3,59.5z M387.1,58.6h1.3c0.5,0,0.9-0.1,1.2-0.3
			c0.3-0.2,0.5-0.5,0.6-0.8c0.2-0.5,0.3-1.1,0.3-1.8c0-0.8-0.1-1.4-0.3-1.8s-0.5-0.7-0.8-0.9c-0.2-0.1-0.6-0.2-1-0.2h-1.3
			C387.1,52.9,387.1,58.6,387.1,58.6z"/>
		<path class="st0" d="M392.4,59.5V52h4.5v0.9h-3.6v2.3h3.4v0.9h-3.4v2.6h3.8v0.9L392.4,59.5L392.4,59.5z"/>
		<path class="st0" d="M397.4,59.5V52h2.7c0.6,0,1,0.1,1.3,0.2c0.3,0.1,0.5,0.4,0.7,0.7s0.3,0.7,0.3,1.1c0,0.6-0.1,1-0.4,1.4
			c-0.3,0.3-0.7,0.6-1.3,0.7c0.2,0.1,0.4,0.3,0.5,0.4c0.2,0.3,0.5,0.6,0.6,1l1.1,2h-1L401,58c-0.3-0.6-0.6-1-0.7-1.2
			c-0.2-0.2-0.3-0.3-0.5-0.4c-0.1-0.1-0.4-0.1-0.6-0.1h-0.9v3.3L397.4,59.5L397.4,59.5z M398.2,55.3h1.8c0.4,0,0.7,0,0.9-0.1
			c0.2-0.1,0.4-0.2,0.5-0.4c0.1-0.2,0.2-0.4,0.2-0.7c0-0.4-0.1-0.7-0.3-0.9s-0.5-0.3-1-0.3h-2L398.2,55.3L398.2,55.3z"/>
		<path class="st0" d="M403.3,57.1L404,57c0,0.4,0.1,0.7,0.3,1s0.4,0.4,0.6,0.6c0.3,0.1,0.6,0.2,0.9,0.2c0.5,0,0.9-0.1,1.1-0.4
			c0.3-0.2,0.4-0.5,0.4-0.9c0-0.2,0-0.4-0.1-0.6c-0.1-0.2-0.2-0.3-0.4-0.4s-0.6-0.3-1.3-0.5c-0.6-0.2-1-0.3-1.2-0.5
			c-0.2-0.2-0.4-0.4-0.6-0.7s-0.2-0.6-0.2-0.9c0-0.6,0.2-1.1,0.6-1.5c0.4-0.4,0.9-0.6,1.6-0.6c0.5,0,0.9,0.1,1.2,0.3
			c0.3,0.2,0.6,0.4,0.8,0.8s0.3,0.7,0.3,1.2l-0.8,0.1c0-0.5-0.2-0.8-0.4-1.1s-0.6-0.3-1.1-0.3s-0.8,0.1-1.1,0.3
			c-0.2,0.2-0.4,0.5-0.4,0.8c0,0.3,0.1,0.5,0.3,0.7s0.6,0.3,1.2,0.5c0.6,0.2,1,0.3,1.3,0.4c0.4,0.2,0.7,0.5,0.9,0.8
			c0.2,0.3,0.3,0.7,0.3,1.1s-0.1,0.8-0.3,1.2c-0.2,0.3-0.5,0.6-0.8,0.8s-0.8,0.3-1.2,0.3c-0.8,0-1.4-0.2-1.8-0.7
			S403.3,57.9,403.3,57.1L403.3,57.1z"/>
		<path class="st10" d="M35,539.5l0.9,0.3c-0.2,1-0.6,1.7-1.1,2.2s-1.2,0.7-1.9,0.7c-0.7,0-1.2-0.2-1.7-0.5
			c-0.5-0.3-0.8-0.8-1.1-1.5c-0.3-0.7-0.4-1.5-0.4-2.5s0.1-1.8,0.4-2.4s0.7-1.2,1.2-1.5c0.5-0.3,1.1-0.5,1.7-0.5
			c0.7,0,1.3,0.2,1.8,0.6s0.8,1,1,1.9l-0.9,0.3c-0.3-1.2-0.9-1.8-1.9-1.8c-0.5,0-0.9,0.1-1.2,0.4c-0.3,0.2-0.6,0.6-0.8,1.1
			c-0.2,0.5-0.3,1.2-0.3,1.9c0,1.2,0.2,2.1,0.6,2.7c0.4,0.6,1,0.9,1.6,0.9c0.5,0,1-0.2,1.3-0.5S34.9,540.2,35,539.5L35,539.5z"/>
		<path class="st10" d="M36.8,538.3c0-1.5,0.3-2.6,1-3.4s1.5-1.2,2.4-1.2c0.6,0,1.2,0.2,1.7,0.5s0.9,0.9,1.2,1.5s0.5,1.5,0.5,2.4
			c0,1.3-0.3,2.3-0.9,3.1c-0.6,0.9-1.5,1.3-2.5,1.3s-1.9-0.5-2.5-1.4C37.1,540.5,36.8,539.5,36.8,538.3L36.8,538.3z M37.8,538.3
			c0,1.1,0.2,1.9,0.7,2.5c0.5,0.6,1,0.9,1.7,0.9s1.3-0.3,1.7-0.9c0.5-0.6,0.7-1.5,0.7-2.6c0-0.7-0.1-1.4-0.4-2
			c-0.2-0.5-0.5-0.8-0.8-1.1c-0.4-0.3-0.8-0.4-1.2-0.4c-0.7,0-1.3,0.3-1.7,0.9C38,536.2,37.7,537.1,37.8,538.3L37.8,538.3z"/>
		<path class="st10" d="M44.6,542.5v-8.6H46l1.7,6.1l0.3,1.3c0.1-0.3,0.2-0.8,0.4-1.4l1.7-6h1.2v8.6h-0.9v-7.2l-2,7.2h-0.8l-2-7.3
			v7.3L44.6,542.5L44.6,542.5z"/>
		<path class="st10" d="M53.7,542.5v-8.6h2.7c0.6,0,1.1,0,1.4,0.2c0.4,0.2,0.7,0.4,1,0.8s0.4,0.9,0.4,1.5c0,0.8-0.2,1.4-0.6,1.9
			s-1.1,0.7-2,0.7h-1.8v3.5L53.7,542.5L53.7,542.5z M54.7,538h1.8c0.6,0,1-0.1,1.3-0.4s0.4-0.7,0.4-1.2c0-0.3-0.1-0.6-0.2-0.9
			s-0.3-0.4-0.5-0.5s-0.5-0.1-1-0.1h-1.8L54.7,538L54.7,538z"/>
		<path class="st10" d="M61,542.5v-8.6h0.9v7.6h3.5v1H61z"/>
		<path class="st10" d="M66.4,542.5v-8.6h5.1v1h-4.2v2.6h3.9v1h-3.9v2.9h4.3v1L66.4,542.5L66.4,542.5z"/>
		<path class="st10" d="M74.7,542.5v-7.6h-2.3v-1H78v1h-2.3v7.6H74.7z"/>
		<path class="st10" d="M79.4,542.5v-8.6h5.1v1h-4.2v2.6h3.9v1h-3.9v2.9h4.3v1L79.4,542.5L79.4,542.5z"/>
		<path class="st10" d="M85.9,542.5v-8.6h1l3.7,6.8v-6.8h0.9v8.6h-1l-3.7-6.8v6.8H85.9L85.9,542.5z"/>
		<path class="st10" d="M92.9,542.5v-8.6H98v1h-4.2v2.6h3.9v1h-3.9v2.9h4.3v1L92.9,542.5L92.9,542.5z"/>
		<path class="st10" d="M99.1,539.7l0.9-0.1c0.1,0.5,0.2,0.8,0.3,1.1s0.4,0.5,0.7,0.6s0.7,0.2,1,0.2c0.6,0,1-0.1,1.3-0.4
			s0.5-0.6,0.5-1.1c0-0.2-0.1-0.5-0.2-0.7s-0.3-0.3-0.5-0.5s-0.7-0.3-1.5-0.5c-0.7-0.2-1.1-0.4-1.4-0.6s-0.5-0.5-0.7-0.8
			s-0.2-0.7-0.2-1c0-0.7,0.2-1.3,0.7-1.7s1.1-0.7,1.8-0.7c0.5,0,1,0.1,1.4,0.3s0.7,0.5,0.9,0.9s0.3,0.8,0.3,1.4l-0.9,0.1
			c-0.1-0.6-0.2-1-0.5-1.2s-0.7-0.4-1.2-0.4s-0.9,0.1-1.2,0.3s-0.4,0.5-0.4,0.9c0,0.3,0.1,0.6,0.3,0.8s0.7,0.4,1.4,0.6
			c0.7,0.2,1.2,0.4,1.5,0.5c0.4,0.2,0.8,0.5,1,0.9s0.3,0.8,0.3,1.3s-0.1,0.9-0.3,1.3c-0.2,0.4-0.5,0.7-0.9,0.9
			c-0.4,0.2-0.9,0.3-1.4,0.3c-0.9,0-1.6-0.3-2.1-0.8S99.1,540.6,99.1,539.7L99.1,539.7z"/>
		<path class="st10" d="M105.6,539.7l0.9-0.1c0.1,0.5,0.2,0.8,0.3,1.1s0.4,0.5,0.7,0.6s0.7,0.2,1,0.2c0.6,0,1-0.1,1.3-0.4
			s0.5-0.6,0.5-1.1c0-0.2-0.1-0.5-0.2-0.7s-0.3-0.3-0.5-0.5s-0.7-0.3-1.5-0.5c-0.7-0.2-1.1-0.4-1.4-0.6s-0.5-0.5-0.7-0.8
			s-0.2-0.7-0.2-1c0-0.7,0.2-1.3,0.7-1.7s1.1-0.7,1.8-0.7c0.5,0,1,0.1,1.4,0.3s0.7,0.5,0.9,0.9s0.3,0.8,0.3,1.4l-0.9,0.1
			c-0.1-0.6-0.2-1-0.5-1.2s-0.7-0.4-1.2-0.4s-0.9,0.1-1.2,0.3s-0.4,0.5-0.4,0.9c0,0.3,0.1,0.6,0.3,0.8s0.7,0.4,1.4,0.6
			c0.7,0.2,1.2,0.4,1.5,0.5c0.4,0.2,0.8,0.5,1,0.9s0.3,0.8,0.3,1.3s-0.1,0.9-0.3,1.3c-0.2,0.4-0.5,0.7-0.9,0.9
			c-0.4,0.2-0.9,0.3-1.4,0.3c-0.9,0-1.6-0.3-2.1-0.8S105.6,540.6,105.6,539.7L105.6,539.7z"/>
		<path class="st10" d="M114.8,538.3c0-1.5,0.3-2.6,1-3.4s1.4-1.2,2.4-1.2c0.6,0,1.2,0.2,1.7,0.5s0.9,0.9,1.2,1.5s0.4,1.5,0.4,2.4
			c0,1.3-0.3,2.3-0.9,3.1c-0.6,0.9-1.5,1.3-2.5,1.3s-1.9-0.5-2.5-1.4C115.1,540.5,114.8,539.5,114.8,538.3L114.8,538.3z
			 M115.8,538.3c0,1.1,0.2,1.9,0.7,2.5c0.5,0.6,1,0.9,1.7,0.9s1.3-0.3,1.7-0.9c0.5-0.6,0.7-1.5,0.7-2.6c0-0.7-0.1-1.4-0.4-2
			c-0.2-0.5-0.5-0.8-0.8-1.1s-0.8-0.4-1.2-0.4c-0.7,0-1.3,0.3-1.7,0.9S115.7,537.1,115.8,538.3L115.8,538.3z"/>
		<path class="st10" d="M122.7,542.5v-8.6h4.8v1h-3.8v2.7h3.3v1h-3.3v3.9L122.7,542.5L122.7,542.5z"/>
		<path class="st10" d="M133.3,542.5l-2.7-8.6h1l1.8,6.2c0.1,0.5,0.3,1,0.4,1.4c0.1-0.5,0.2-0.9,0.4-1.4l1.9-6.2h0.9l-2.8,8.6H133.3
			L133.3,542.5z"/>
		<path class="st10" d="M137.9,542.5v-8.6h0.9v8.6H137.9z"/>
		<path class="st10" d="M140.4,539.7l0.9-0.1c0.1,0.5,0.1,0.8,0.3,1.1s0.4,0.5,0.7,0.6s0.7,0.2,1,0.2c0.6,0,1-0.1,1.3-0.4
			s0.5-0.6,0.5-1.1c0-0.2-0.1-0.5-0.2-0.7s-0.3-0.3-0.5-0.5s-0.7-0.3-1.5-0.5c-0.7-0.2-1.1-0.4-1.4-0.6s-0.5-0.5-0.7-0.8
			s-0.2-0.7-0.2-1c0-0.7,0.2-1.3,0.7-1.7s1.1-0.7,1.8-0.7c0.5,0,1,0.1,1.4,0.3s0.7,0.5,0.9,0.9s0.3,0.8,0.4,1.4l-0.9,0.1
			c-0.1-0.6-0.2-1-0.5-1.2s-0.7-0.4-1.2-0.4s-0.9,0.1-1.2,0.3s-0.4,0.5-0.4,0.9c0,0.3,0.1,0.6,0.3,0.8s0.7,0.4,1.4,0.6
			c0.7,0.2,1.2,0.4,1.5,0.5c0.4,0.2,0.8,0.5,1,0.9s0.3,0.8,0.3,1.3s-0.1,0.9-0.4,1.3c-0.2,0.4-0.5,0.7-0.9,0.9
			c-0.4,0.2-0.9,0.3-1.4,0.3c-0.9,0-1.6-0.3-2.1-0.8S140.4,540.6,140.4,539.7L140.4,539.7z"/>
		<path class="st10" d="M147.4,542.5v-8.6h0.9v8.6H147.4z"/>
		<path class="st10" d="M149.6,538.3c0-1.5,0.3-2.6,1-3.4s1.4-1.2,2.4-1.2c0.6,0,1.2,0.2,1.7,0.5s0.9,0.9,1.2,1.5s0.4,1.5,0.4,2.4
			c0,1.3-0.3,2.3-0.9,3.1c-0.6,0.9-1.5,1.3-2.5,1.3s-1.9-0.5-2.5-1.4C149.9,540.5,149.6,539.5,149.6,538.3L149.6,538.3z
			 M150.6,538.3c0,1.1,0.2,1.9,0.7,2.5c0.5,0.6,1,0.9,1.7,0.9s1.3-0.3,1.7-0.9c0.5-0.6,0.7-1.5,0.7-2.6c0-0.7-0.1-1.4-0.4-2
			c-0.2-0.5-0.5-0.8-0.8-1.1s-0.8-0.4-1.2-0.4c-0.7,0-1.3,0.3-1.7,0.9S150.6,537.1,150.6,538.3L150.6,538.3z"/>
		<path class="st10" d="M157.4,542.5v-8.6h1l3.7,6.8v-6.8h0.9v8.6h-1l-3.7-6.8v6.8H157.4L157.4,542.5z"/>
		<path class="st10" d="M23.1,525.5l-8.6-2.7v-1l8.6-2.9v1.1l-2.6,0.8v3l2.6,0.8V525.5L23.1,525.5z M19.5,523.4V521l-2.4,0.7
			c-0.7,0.2-1.3,0.4-1.8,0.5c0.6,0.1,1.1,0.2,1.6,0.4L19.5,523.4z"/>
		<path class="st10" d="M23.1,518.2h-8.6v-2.6c0-0.5,0.1-1,0.2-1.3s0.4-0.6,0.8-0.8c0.4-0.2,0.7-0.3,1.2-0.3c0.4,0,0.8,0.1,1.1,0.3
			s0.6,0.4,0.8,0.7c0.1-0.4,0.4-0.7,0.8-1c0.4-0.2,0.8-0.3,1.3-0.3s1,0.1,1.4,0.3c0.4,0.2,0.7,0.5,0.9,0.8s0.3,0.8,0.3,1.5
			L23.1,518.2L23.1,518.2z M18.1,517.3v-1.5c0-0.4,0-0.7-0.1-0.8c-0.1-0.2-0.2-0.4-0.4-0.6s-0.5-0.2-0.8-0.2c-0.3,0-0.6,0.1-0.8,0.2
			s-0.4,0.3-0.4,0.5c-0.1,0.2-0.1,0.5-0.1,1.1v1.4L18.1,517.3L18.1,517.3z M22,517.3v-1.8c0-0.4,0-0.7-0.1-0.9
			c-0.1-0.3-0.3-0.5-0.5-0.6s-0.5-0.2-0.9-0.2c-0.3,0-0.6,0.1-0.8,0.2s-0.4,0.3-0.5,0.5s-0.2,0.6-0.2,1.1v1.6H22L22,517.3z"/>
		<path class="st10" d="M23.1,511.2h-8.6v-0.9h8.6V511.2z"/>
		<path class="st10" d="M23.1,508.3h-8.6v-0.9H22v-3.5h1V508.3z"/>
		<path class="st10" d="M23.1,502.4h-8.6v-0.9h8.6V502.4z"/>
		<path class="st10" d="M23.1,497.8h-7.6v2.3h-1v-5.6h1v2.3h7.6V497.8z"/>
		<path class="st10" d="M23.1,491.5h-3.6l-4.9,2.7v-1.1l2.6-1.4c0.5-0.3,1-0.5,1.5-0.7c-0.5-0.2-1-0.5-1.5-0.8l-2.5-1.4v-1.1
			l4.9,2.8H23L23.1,491.5L23.1,491.5z"/>
		<path class="st10" d="M23.1,482.2h-7.6v2.3h-1v-5.6h1v2.3h7.6V482.2z"/>
		<path class="st10" d="M18.9,478.5c-1.5,0-2.6-0.3-3.4-1s-1.2-1.5-1.2-2.4c0-0.6,0.2-1.2,0.5-1.7s0.9-0.9,1.5-1.2
			c0.7-0.3,1.5-0.5,2.4-0.5c1.3,0,2.3,0.3,3.1,0.9c0.9,0.6,1.3,1.5,1.3,2.5s-0.5,1.9-1.4,2.5C21,478.2,20,478.5,18.9,478.5
			L18.9,478.5z M18.9,477.5c1.1,0,1.9-0.2,2.5-0.7c0.6-0.5,0.9-1,0.9-1.7s-0.3-1.3-0.9-1.7c-0.6-0.5-1.5-0.7-2.6-0.7
			c-0.7,0-1.4,0.1-2,0.4c-0.5,0.2-0.8,0.5-1.1,0.8c-0.3,0.4-0.4,0.8-0.4,1.2c0,0.7,0.3,1.3,0.9,1.7
			C16.8,477.3,17.7,477.5,18.9,477.5L18.9,477.5z"/>
		<path class="st10" d="M23.1,467.7h-8.6v-5.1h1v4.2h2.6v-3.9h1v3.9H22v-4.3h1L23.1,467.7L23.1,467.7z"/>
		<path class="st10" d="M23.1,461.9l-4.5-2.7l-4.1,2.4v-1.1l2.2-1.3c0.5-0.3,0.8-0.5,1.1-0.6c-0.3-0.1-0.6-0.3-1-0.6l-2.3-1.4v-1
			l4,2.5l4.6-2.7v1.1l-3.1,1.8c-0.2,0.1-0.4,0.2-0.6,0.3c0.3,0.2,0.5,0.3,0.6,0.3l3,1.8L23.1,461.9L23.1,461.9z"/>
		<path class="st10" d="M23.1,454.7h-8.6v-5.1h1v4.2h2.6v-3.9h1v3.9H22v-4.3h1L23.1,454.7L23.1,454.7z"/>
		<path class="st10" d="M20,443.2l0.3-0.9c1,0.2,1.7,0.6,2.2,1.1s0.7,1.1,0.7,1.9c0,0.6-0.2,1.2-0.5,1.7c-0.3,0.5-0.8,0.8-1.5,1.1
			c-0.7,0.3-1.5,0.4-2.5,0.4s-1.8-0.1-2.4-0.4s-1.1-0.7-1.5-1.2s-0.5-1.1-0.5-1.7c0-0.7,0.2-1.3,0.6-1.8c0.4-0.5,1-0.8,1.9-1
			l0.3,0.9c-1.2,0.3-1.8,0.9-1.8,1.9c0,0.5,0.1,0.9,0.4,1.2s0.6,0.6,1.1,0.8c0.5,0.2,1.1,0.3,1.9,0.3c1.2,0,2.1-0.2,2.6-0.6
			s0.9-1,0.9-1.6c0-0.5-0.2-1-0.5-1.3S20.8,443.3,20,443.2L20,443.2z"/>
		<path class="st10" d="M14.5,437V436h5c0.8,0,1.5,0.1,2,0.2c0.5,0.2,1,0.5,1.3,0.9s0.5,1,0.5,1.6c0,0.9-0.3,1.6-0.8,2.1
			s-1.5,0.7-2.9,0.7h-5v-0.9h5c0.8,0,1.3-0.1,1.7-0.2s0.6-0.3,0.8-0.6s0.3-0.6,0.3-1c0-0.7-0.2-1.1-0.6-1.4s-1.1-0.5-2.2-0.5
			L14.5,437L14.5,437z"/>
		<path class="st10" d="M23.1,432.7h-7.6v2.3h-1v-5.6h1v2.3h7.6V432.7z"/>
		<path class="st10" d="M23.1,428.6h-8.6v-5.1h1v4.2h2.6v-3.9h1v3.9H22v-4.3h1L23.1,428.6L23.1,428.6z"/>
		<path class="st10" d="M318.7,540.2l2.7-8.6h1l2.9,8.6h-1.1l-0.8-2.6h-3l-0.8,2.6H318.7z M320.7,536.6h2.4l-0.7-2.4
			c-0.2-0.7-0.4-1.3-0.5-1.8c-0.1,0.5-0.2,1.1-0.4,1.6L320.7,536.6L320.7,536.6z"/>
		<path class="st10" d="M325.5,538.3l0.9-0.2c0,0.4,0.2,0.8,0.4,1c0.2,0.2,0.5,0.3,0.9,0.3s0.7-0.1,0.9-0.3c0.2-0.2,0.3-0.4,0.3-0.7
			c0-0.2-0.1-0.4-0.3-0.6c-0.1-0.1-0.4-0.2-0.9-0.3c-0.7-0.2-1.1-0.4-1.4-0.5s-0.4-0.3-0.5-0.6s-0.2-0.5-0.2-0.8
			c0-0.5,0.2-1,0.5-1.3s0.8-0.5,1.4-0.5c0.4,0,0.7,0.1,1,0.2s0.5,0.3,0.7,0.5s0.3,0.6,0.3,1l-0.8,0.1c-0.1-0.7-0.5-1-1.1-1
			c-0.4,0-0.6,0.1-0.8,0.2s-0.3,0.3-0.3,0.6s0.1,0.4,0.3,0.5c0.1,0.1,0.4,0.2,0.9,0.4c0.7,0.2,1.2,0.4,1.4,0.5s0.4,0.3,0.5,0.5
			s0.2,0.5,0.2,0.8c0,0.6-0.2,1.1-0.6,1.4s-0.9,0.5-1.5,0.5C326.5,540.3,325.8,539.6,325.5,538.3L325.5,538.3z"/>
		<path class="st10" d="M334.8,537c0-1.1,0.2-1.9,0.7-2.4s1-0.8,1.7-0.8s1.2,0.3,1.7,0.8s0.7,1.3,0.7,2.4c0,1.1-0.2,2-0.7,2.5
			s-1,0.8-1.7,0.8s-1.2-0.3-1.7-0.8S334.8,538.1,334.8,537L334.8,537z M335.6,537c0,0.8,0.1,1.4,0.4,1.8s0.7,0.6,1.1,0.6
			c0.4,0,0.8-0.2,1-0.6c0.3-0.4,0.4-1,0.4-1.8s-0.1-1.4-0.4-1.8c-0.3-0.4-0.7-0.6-1.1-0.6c-0.4,0-0.8,0.2-1,0.6
			C335.8,535.6,335.7,536.2,335.6,537L335.6,537z"/>
		<path class="st10" d="M341.6,540.2v-5.4h-0.8v-0.8h0.8v-0.7c0-0.5,0-0.8,0.1-1.1s0.3-0.4,0.5-0.6s0.5-0.2,0.8-0.2
			c0.2,0,0.5,0,0.8,0.1l-0.1,0.9c-0.2,0-0.4-0.1-0.5-0.1c-0.3,0-0.4,0.1-0.5,0.2s-0.2,0.4-0.2,0.8v0.6h1v0.8h-1v5.4L341.6,540.2
			L341.6,540.2z"/>
		<path class="st10" d="M347.6,540.2l2.7-8.6h1l2.9,8.6h-1.1l-0.8-2.6h-3l-0.8,2.6H347.6z M349.6,536.6h2.4l-0.7-2.4
			c-0.2-0.7-0.4-1.3-0.5-1.8c-0.1,0.5-0.2,1.1-0.4,1.6L349.6,536.6L349.6,536.6z"/>
		<path class="st10" d="M355.1,542.5v-8.6h0.8v0.8c0.2-0.3,0.4-0.6,0.6-0.7c0.2-0.2,0.5-0.2,0.8-0.2c0.4,0,0.8,0.1,1.1,0.4
			c0.3,0.2,0.6,0.6,0.8,1.1s0.3,1.1,0.3,1.8c0,1.1-0.2,1.9-0.7,2.5s-1,0.9-1.6,0.9c-0.3,0-0.5-0.1-0.7-0.2s-0.4-0.3-0.6-0.6v3
			L355.1,542.5L355.1,542.5z M355.9,537.1c0,0.8,0.1,1.4,0.4,1.8s0.6,0.6,1,0.6s0.7-0.2,1-0.6c0.3-0.4,0.4-1,0.4-1.8
			s-0.1-1.4-0.4-1.8s-0.6-0.6-1-0.6c-0.4,0-0.7,0.2-1,0.6S355.9,536.3,355.9,537.1z"/>
		<path class="st10" d="M360.8,540.2v-6.2h0.8v0.9c0.2-0.4,0.4-0.7,0.5-0.9s0.4-0.2,0.6-0.2c0.3,0,0.6,0.1,0.9,0.3l-0.3,1
			c-0.2-0.2-0.4-0.2-0.6-0.2c-0.2,0-0.4,0.1-0.5,0.2s-0.3,0.3-0.3,0.5c-0.1,0.4-0.2,0.8-0.2,1.3v3.3L360.8,540.2L360.8,540.2z"/>
		<path class="st10" d="M364.8,532.8v-1.2h0.9v1.2H364.8z M364.8,540.2v-6.2h0.9v6.2H364.8z"/>
		<path class="st10" d="M367.7,540.2v-8.6h0.9v8.6H367.7z"/>
		<path class="st10" d="M377.8,539.1v1h-4.7c0-0.4,0.1-0.9,0.4-1.4s0.7-1.1,1.4-1.8c0.8-0.8,1.3-1.4,1.6-1.9s0.4-0.8,0.4-1.2
			c0-0.4-0.1-0.8-0.4-1.1c-0.3-0.3-0.6-0.4-1-0.4c-0.4,0-0.7,0.2-1,0.5s-0.4,0.7-0.4,1.3l-0.9-0.1c0.1-0.8,0.3-1.4,0.7-1.9
			s0.9-0.6,1.6-0.6c0.7,0,1.3,0.2,1.6,0.7c0.4,0.5,0.5,1,0.5,1.7c0,0.5-0.1,1.1-0.4,1.6s-0.8,1.2-1.6,2c-0.5,0.5-0.9,0.9-1,1.1
			s-0.3,0.4-0.4,0.6L377.8,539.1L377.8,539.1z"/>
		<path class="st10" d="M379.1,535.9c0-1.4,0.2-2.5,0.6-3.3s1-1.1,1.7-1.1c0.7,0,1.2,0.3,1.6,0.9c0.5,0.7,0.7,1.9,0.7,3.5
			c0,1.4-0.2,2.5-0.6,3.3s-1,1.1-1.7,1.1c-0.7,0-1.2-0.3-1.6-1S379.1,537.5,379.1,535.9L379.1,535.9z M380,535.9
			c0,1.4,0.1,2.3,0.4,2.8s0.6,0.7,1,0.7c0.4,0,0.7-0.2,1-0.7c0.3-0.5,0.4-1.4,0.4-2.8s-0.1-2.3-0.4-2.8s-0.6-0.7-1-0.7
			c-0.4,0-0.7,0.2-1,0.7S380,534.5,380,535.9L380,535.9z"/>
		<path class="st10" d="M389.9,539.1v1h-4.7c0-0.4,0.1-0.9,0.4-1.4s0.7-1.1,1.4-1.8c0.8-0.8,1.3-1.4,1.6-1.9s0.4-0.8,0.4-1.2
			c0-0.4-0.1-0.8-0.4-1.1c-0.3-0.3-0.6-0.4-1-0.4c-0.4,0-0.7,0.2-1,0.5s-0.4,0.7-0.4,1.3l-0.9-0.1c0.1-0.8,0.3-1.4,0.7-1.9
			s0.9-0.6,1.6-0.6c0.7,0,1.3,0.2,1.6,0.7c0.4,0.5,0.5,1,0.5,1.7c0,0.5-0.1,1.1-0.4,1.6s-0.8,1.2-1.6,2c-0.5,0.5-0.9,0.9-1,1.1
			s-0.3,0.4-0.4,0.6L389.9,539.1L389.9,539.1z"/>
		<path class="st10" d="M391.6,537.9l0.9-0.1c0.2,1.1,0.6,1.7,1.4,1.7c0.4,0,0.7-0.2,1-0.5s0.4-0.8,0.4-1.3c0-0.5-0.1-0.9-0.4-1.2
			s-0.6-0.5-1-0.5c-0.2,0-0.4,0-0.6,0.1l0.1-0.9h0.1c0.4,0,0.8-0.1,1-0.4c0.3-0.3,0.4-0.6,0.4-1c0-0.4-0.1-0.7-0.3-1
			c-0.2-0.2-0.5-0.4-0.8-0.4s-0.6,0.1-0.8,0.4c-0.2,0.3-0.4,0.6-0.4,1.2l-0.9-0.2c0.1-0.7,0.4-1.3,0.7-1.7s0.9-0.6,1.4-0.6
			c0.6,0,1,0.2,1.5,0.6c0.4,0.4,0.6,1,0.6,1.6c0,0.4-0.1,0.7-0.2,1s-0.4,0.5-0.7,0.7c0.3,0.1,0.5,0.2,0.7,0.4s0.3,0.4,0.4,0.7
			c0.1,0.3,0.2,0.6,0.2,1c0,0.8-0.2,1.4-0.7,1.9c-0.5,0.5-1,0.8-1.7,0.8c-0.6,0-1.1-0.2-1.5-0.7S391.7,538.6,391.6,537.9
			L391.6,537.9z"/>
		<path class="st10" d="M453,536.6v-1h3v3.2c-0.5,0.5-0.9,0.8-1.4,1s-1,0.3-1.5,0.3c-0.7,0-1.3-0.2-1.8-0.5s-1-0.8-1.3-1.5
			c-0.3-0.7-0.5-1.5-0.5-2.4s0.2-1.8,0.5-2.5c0.3-0.7,0.7-1.2,1.2-1.5c0.5-0.3,1.1-0.5,1.8-0.5c0.5,0,1,0.1,1.4,0.3s0.7,0.5,1,0.8
			s0.4,0.8,0.6,1.5l-0.8,0.3c-0.1-0.5-0.3-0.8-0.4-1.1s-0.4-0.4-0.7-0.6s-0.6-0.2-1-0.2c-0.5,0-1,0.1-1.3,0.4s-0.7,0.6-0.9,1.2
			c-0.2,0.5-0.3,1.2-0.3,1.9c0,1.2,0.2,2,0.7,2.6s1.1,0.9,1.9,0.9c0.4,0,0.7-0.1,1.1-0.3s0.7-0.4,0.9-0.6v-1.6L453,536.6L453,536.6z
			"/>
		<path class="st10" d="M460.7,539.2c-0.3,0.3-0.6,0.5-0.9,0.7s-0.6,0.2-1,0.2c-0.5,0-1-0.2-1.3-0.5s-0.5-0.8-0.5-1.3
			c0-0.4,0.1-0.7,0.2-1s0.4-0.5,0.6-0.7s0.6-0.3,1.2-0.3c0.7-0.1,1.2-0.2,1.5-0.4v-0.3c0-0.4-0.1-0.7-0.2-0.9
			c-0.2-0.2-0.5-0.4-1-0.4c-0.4,0-0.7,0.1-0.9,0.2c-0.2,0.2-0.4,0.5-0.4,0.9l-0.9-0.1c0.1-0.7,0.4-1.2,0.7-1.5s0.9-0.5,1.6-0.5
			c0.5,0,1,0.1,1.3,0.3s0.5,0.5,0.6,0.8s0.1,0.7,0.1,1.3v1.4c0,1,0,1.6,0.1,1.9s0.1,0.5,0.2,0.8h-0.9
			C460.8,539.7,460.8,539.5,460.7,539.2L460.7,539.2z M460.6,536.8c-0.3,0.2-0.8,0.3-1.4,0.4c-0.4,0.1-0.6,0.1-0.8,0.2
			s-0.3,0.2-0.3,0.3s-0.1,0.3-0.1,0.5c0,0.3,0.1,0.5,0.3,0.7s0.4,0.3,0.8,0.3s0.6-0.1,0.8-0.2s0.4-0.4,0.6-0.6s0.2-0.7,0.2-1.2
			L460.6,536.8L460.6,536.8z"/>
		<path class="st10" d="M463.1,540v-6.2h0.8v0.9c0.2-0.4,0.4-0.7,0.5-0.9s0.4-0.2,0.6-0.2c0.3,0,0.6,0.1,0.9,0.3l-0.3,1
			c-0.2-0.2-0.4-0.2-0.6-0.2c-0.2,0-0.4,0.1-0.5,0.2s-0.3,0.3-0.3,0.5c-0.1,0.4-0.2,0.8-0.2,1.3v3.3L463.1,540L463.1,540z"/>
		<path class="st10" d="M469,539l0.1,0.9c-0.2,0.1-0.5,0.1-0.6,0.1c-0.3,0-0.5-0.1-0.7-0.2s-0.3-0.3-0.4-0.5s-0.1-0.6-0.1-1.2v-3.6
			h-0.6v-0.8h0.6v-1.5l0.9-0.6v2.2h0.9v0.8h-0.9v3.6c0,0.3,0,0.5,0.1,0.7c0.1,0.1,0.2,0.2,0.4,0.2C468.7,539.1,468.8,539.1,469,539
			L469,539z"/>
		<path class="st10" d="M470.9,540v-6.2h0.8v0.9c0.2-0.3,0.4-0.6,0.7-0.8c0.3-0.2,0.6-0.2,0.9-0.2c0.3,0,0.5,0,0.8,0.2
			s0.4,0.2,0.6,0.4c0.1,0.2,0.2,0.4,0.3,0.7s0.1,0.7,0.1,1.3v3.8h-0.9v-3.8c0-0.5,0-0.8-0.1-1s-0.2-0.4-0.4-0.5s-0.4-0.2-0.6-0.2
			c-0.4,0-0.7,0.2-1,0.5s-0.4,0.8-0.4,1.6v3.4L470.9,540L470.9,540z"/>
		<path class="st10" d="M480,538l0.9,0.1c-0.1,0.7-0.4,1.2-0.8,1.5s-0.9,0.5-1.4,0.5c-0.7,0-1.3-0.3-1.8-0.8s-0.7-1.3-0.7-2.4
			s0.2-1.9,0.7-2.5s1-0.8,1.7-0.8s1.2,0.3,1.6,0.8s0.7,1.4,0.7,2.4v0.3h-3.8c0,0.7,0.2,1.2,0.5,1.6s0.6,0.5,1,0.5
			C479.3,539.2,479.8,538.8,480,538L480,538z M477.2,536.3h2.9c0-0.5-0.1-0.9-0.4-1.2c-0.3-0.4-0.6-0.6-1.1-0.6
			c-0.4,0-0.7,0.2-1,0.5S477.2,535.7,477.2,536.3L477.2,536.3z"/>
		<path class="st10" d="M482.6,540v-6.2h0.8v0.9c0.2-0.4,0.4-0.7,0.5-0.9s0.4-0.2,0.6-0.2c0.3,0,0.6,0.1,0.9,0.3l-0.3,1
			c-0.2-0.2-0.4-0.2-0.6-0.2c-0.2,0-0.4,0.1-0.5,0.2s-0.3,0.3-0.3,0.5c-0.1,0.4-0.2,0.8-0.2,1.3v3.3L482.6,540L482.6,540z"/>
		<path class="st10" d="M485.5,540v-1.2h1v1.2c0,0.5-0.1,0.8-0.2,1.1s-0.3,0.5-0.6,0.6l-0.2-0.5c0.2-0.1,0.3-0.2,0.4-0.4
			s0.1-0.5,0.1-0.8H485.5L485.5,540z"/>
		<path class="st10" d="M490.9,540v-8.6h0.9v8.6H490.9z"/>
		<path class="st10" d="M494.1,540v-6.2h0.8v0.9c0.2-0.3,0.4-0.6,0.7-0.8c0.3-0.2,0.6-0.2,0.9-0.2c0.3,0,0.5,0,0.8,0.2
			s0.4,0.2,0.6,0.4s0.2,0.4,0.3,0.7c0.1,0.3,0.1,0.7,0.1,1.3v3.8h-0.9v-3.8c0-0.5,0-0.8-0.1-1s-0.2-0.4-0.4-0.5s-0.4-0.2-0.6-0.2
			c-0.4,0-0.7,0.2-1,0.5s-0.4,0.8-0.4,1.6v3.4L494.1,540L494.1,540z"/>
		<path class="st10" d="M503.4,537.7l0.9,0.1c-0.1,0.7-0.3,1.3-0.7,1.7s-0.9,0.6-1.4,0.6c-0.7,0-1.2-0.3-1.6-0.8s-0.6-1.4-0.6-2.4
			s0.2-1.9,0.6-2.4s1-0.8,1.7-0.8c0.5,0,1,0.2,1.3,0.5s0.6,0.8,0.7,1.5l-0.8,0.2c-0.1-0.4-0.2-0.7-0.4-0.9c-0.2-0.2-0.5-0.3-0.7-0.3
			c-0.4,0-0.8,0.2-1.1,0.6s-0.4,1-0.4,1.8s0.1,1.5,0.4,1.8s0.6,0.6,1,0.6c0.3,0,0.6-0.1,0.8-0.4S503.3,538.3,503.4,537.7
			L503.4,537.7z"/>
		<path class="st10" d="M441.5,531.6c0.7,0,1.5,0.2,2.2,0.6s1.3,0.9,1.6,1.6s0.6,1.5,0.6,2.2s-0.2,1.5-0.6,2.2s-0.9,1.2-1.6,1.6
			s-1.4,0.6-2.2,0.6s-1.5-0.2-2.2-0.6s-1.2-0.9-1.6-1.6s-0.6-1.4-0.6-2.2s0.2-1.5,0.6-2.2s1-1.2,1.7-1.6S440.7,531.6,441.5,531.6
			L441.5,531.6z M441.5,532.3c-0.6,0-1.2,0.2-1.8,0.5s-1,0.8-1.4,1.4s-0.5,1.2-0.5,1.8s0.2,1.2,0.5,1.8s0.8,1,1.4,1.4
			s1.2,0.5,1.8,0.5s1.2-0.2,1.8-0.5s1-0.8,1.4-1.4s0.5-1.2,0.5-1.8s-0.2-1.3-0.5-1.8s-0.8-1-1.4-1.4S442.1,532.3,441.5,532.3
			L441.5,532.3z M442.9,536.7l0.7,0.2c-0.1,0.5-0.4,0.9-0.8,1.2s-0.8,0.4-1.4,0.4c-0.7,0-1.2-0.2-1.7-0.7s-0.6-1.1-0.6-1.8
			c0-0.5,0.1-1,0.3-1.3s0.5-0.7,0.8-0.9s0.8-0.3,1.2-0.3c0.5,0,1,0.1,1.3,0.4s0.6,0.6,0.7,1l-0.7,0.2c-0.1-0.3-0.3-0.5-0.5-0.7
			s-0.5-0.2-0.8-0.2c-0.5,0-0.8,0.2-1.1,0.5s-0.4,0.8-0.4,1.4s0.1,1,0.4,1.4s0.6,0.5,1.1,0.5c0.4,0,0.7-0.1,0.9-0.3
			S442.8,537.1,442.9,536.7L442.9,536.7z"/>
	</g>
</g>
</svg>
