<?xml version="1.0" encoding="utf-8"?>
<!-- Generator: Adobe Illustrator 25.2.0, SVG Export Plug-In . SVG Version: 6.00 Build 0)  -->
<svg version="1.1" id="Layer_1" xmlns="http://www.w3.org/2000/svg" xmlns:xlink="http://www.w3.org/1999/xlink" x="0px" y="0px"
	 viewBox="0 0 1587 412.5" style="enable-background:new 0 0 1587 412.5;" xml:space="preserve">
<style type="text/css">
	.st0{fill:#231F20;}
	.st1{fill:none;stroke:#90BF3F;stroke-width:4;stroke-linecap:round;stroke-linejoin:round;}
	.st2{fill:none;stroke:#1E478B;stroke-width:4;stroke-linecap:round;stroke-linejoin:round;}
	.st3{fill:none;stroke:#5B2D82;stroke-width:3.89;stroke-miterlimit:10;}
	.st4{fill:none;stroke:#51C8F3;stroke-width:3.89;stroke-linecap:square;stroke-linejoin:round;}
	.st5{fill:none;stroke:#4B4A4B;stroke-width:3.89;stroke-miterlimit:10;}
	.st6{fill:none;}
	.st7{fill:#FBCE15;}
	.st8{fill:#5B2D82;}
	.st9{fill:none;stroke:#E37827;stroke-width:4.86;stroke-miterlimit:10;}
	.st10{fill:#8347AD;}
	.st11{font-family:'Courier-Bold';}
	.st12{font-size:17.68px;}
	.st13{fill:#FFFFFF;stroke:#FFFFFF;stroke-width:9.64;stroke-linecap:round;stroke-linejoin:round;}
	.st14{fill:#FFFFFF;stroke:#5EC4F0;stroke-width:3.29;stroke-miterlimit:10;}
	.st15{fill:#FFFFFF;stroke:#FBCE13;stroke-width:3.55;stroke-linecap:round;stroke-linejoin:round;}
	.st16{fill:none;stroke:#90BF3F;stroke-width:5.36;stroke-linecap:round;stroke-linejoin:round;}
	.st17{fill:none;stroke:#515151;stroke-width:5.36;stroke-linecap:round;stroke-linejoin:round;}
	.st18{fill:none;stroke:#5A2D83;stroke-width:5.36;stroke-linecap:round;stroke-linejoin:round;}
	.st19{fill:none;stroke:#55C7F3;stroke-width:5.5;stroke-linecap:round;stroke-linejoin:round;}
	.st20{fill:none;stroke:#515151;stroke-width:5.36;stroke-linecap:round;stroke-linejoin:round;stroke-dasharray:0.93,11.15;}
	.st21{fill:#4C4B4C;}
	.st22{fill:#FACF16;stroke:#FACF16;stroke-width:0.47;stroke-miterlimit:10;}
	.st23{fill:#55C7F3;}
</style>
<path class="st0" d="M112.1,125.4h-5v-24.1h5V125.4z"/>
<path class="st0" d="M120.9,107.4l0.1,2c1.3-1.6,3.2-2.4,5.2-2.3c2-0.2,3.9,0.9,4.8,2.7c1.2-1.8,3.2-2.8,5.4-2.7
	c1.6-0.1,3.2,0.5,4.4,1.7c1.1,1.5,1.6,3.3,1.4,5.1v11.5h-4.8v-11.4c0.1-0.8-0.1-1.6-0.6-2.2c-0.6-0.5-1.3-0.8-2.1-0.7
	c-1.3-0.1-2.6,0.8-3,2.1v12.3h-4.8V114c0.1-0.8-0.1-1.6-0.6-2.3c-0.6-0.5-1.3-0.8-2.1-0.7c-1.2-0.1-2.4,0.6-3,1.7v12.7h-4.8v-18
	L120.9,107.4z"/>
<path class="st0" d="M162,116.6c0.1,2.4-0.6,4.7-1.9,6.7c-1.2,1.6-3.1,2.6-5.1,2.5c-1.7,0.1-3.3-0.6-4.4-1.9v8.4h-4.8v-24.8h4.4
	l0.2,1.8c1.1-1.4,2.8-2.1,4.6-2.1c2-0.1,4,0.8,5.2,2.5c1.3,2,2,4.4,1.9,6.8L162,116.6z M157.2,116.2c0.1-1.3-0.2-2.7-0.9-3.9
	c-0.5-0.9-1.5-1.4-2.6-1.4c-1.3-0.1-2.5,0.6-3.1,1.7v7.4c0.6,1.2,1.8,1.9,3.1,1.8C156.1,121.9,157.2,120,157.2,116.2L157.2,116.2z"
	/>
<path class="st0" d="M175.1,111.9c-0.6-0.1-1.1-0.1-1.7-0.1c-1.8,0-3,0.6-3.6,1.9v11.8H165v-18h4.5l0.1,2.1c0.8-1.5,2.3-2.5,4-2.5
	c0.5,0,1,0.1,1.5,0.2L175.1,111.9z"/>
<path class="st0" d="M176.1,116.3c0-1.6,0.3-3.3,1-4.8c0.7-1.4,1.7-2.5,3-3.2c1.4-0.8,2.9-1.2,4.5-1.1c2.2-0.1,4.3,0.7,5.9,2.2
	c1.6,1.6,2.5,3.7,2.6,6v1.2c0.1,2.4-0.7,4.8-2.3,6.6c-3.5,3.3-8.9,3.3-12.4,0c-1.6-1.9-2.4-4.3-2.3-6.7V116.3z M180.9,116.6
	c-0.1,1.4,0.3,2.7,1,3.9c1.2,1.5,3.3,1.8,4.9,0.6c0.2-0.2,0.4-0.4,0.6-0.6c0.8-1.3,1.1-2.8,1-4.3c0.1-1.4-0.3-2.7-1-3.9
	c-0.6-0.9-1.7-1.4-2.8-1.4c-1.1,0-2.1,0.5-2.7,1.4C181.1,113.6,180.8,115.1,180.9,116.6L180.9,116.6z"/>
<path class="st0" d="M202.5,119.5l3.3-12.1h5l-6.1,18h-4.6l-6.1-18h5L202.5,119.5z"/>
<path class="st0" d="M221,125.7c-2.4,0.1-4.7-0.8-6.4-2.4c-1.7-1.7-2.6-4.1-2.5-6.5v-0.5c0-1.7,0.3-3.3,1-4.8c0.7-1.4,1.7-2.5,3-3.3
	c1.3-0.8,2.8-1.2,4.4-1.1c2.2-0.1,4.3,0.7,5.8,2.3c1.5,1.8,2.3,4.2,2.1,6.6v2h-11.4c0.1,1.1,0.6,2.1,1.4,2.8c0.8,0.7,1.9,1.1,3,1.1
	c1.7,0.1,3.3-0.7,4.3-2l2.4,2.6c-0.7,1-1.8,1.9-2.9,2.4C223.8,125.5,222.4,125.8,221,125.7z M220.4,111c-0.9,0-1.7,0.3-2.3,1
	c-0.6,0.8-1,1.8-1.1,2.8h6.7v-0.4c0-0.9-0.3-1.8-0.9-2.5C222.2,111.3,221.3,110.9,220.4,111L220.4,111z"/>
<path class="st0" d="M135.3,154.7c0,2-0.3,4-1.1,5.9c-0.6,1.6-1.7,2.9-3,4l4,3.1l-3.2,2.8l-5.1-4.1c-0.6,0.1-1.2,0.2-1.8,0.1
	c-1.9,0-3.7-0.5-5.4-1.4c-1.6-1-2.9-2.4-3.7-4.1c-0.9-1.9-1.3-4-1.3-6.2v-1.2c0-2.2,0.4-4.3,1.3-6.3c0.8-1.7,2-3.2,3.6-4.2
	c3.3-1.9,7.4-1.9,10.7,0c1.6,1,2.9,2.5,3.6,4.2c0.9,2,1.3,4.1,1.3,6.3L135.3,154.7z M130.3,153.6c0.1-2-0.3-4-1.4-5.8
	c-1.6-2.1-4.6-2.6-6.7-1c-0.4,0.3-0.8,0.6-1,1c-1,1.7-1.5,3.7-1.4,5.7v1.2c-0.1,2,0.4,4,1.4,5.8c1.5,2.2,4.5,2.7,6.6,1.2
	c0.4-0.3,0.8-0.7,1.1-1.1c1-1.7,1.5-3.7,1.4-5.7V153.6z"/>
<path class="st0" d="M149.4,164.4c-1.2,1.5-3,2.3-4.9,2.2c-1.6,0.1-3.2-0.5-4.4-1.7c-1.1-1.4-1.7-3.1-1.6-4.9v-11.7h4.8v11.6
	c0,1.9,0.9,2.8,2.6,2.8c1.4,0.1,2.7-0.5,3.4-1.7v-12.7h4.8v18h-4.5L149.4,164.4z"/>
<path class="st0" d="M168.1,166.2c-0.2-0.5-0.4-1.1-0.5-1.6c-1.1,1.3-2.8,2-4.5,1.9c-1.6,0.1-3.2-0.5-4.4-1.5
	c-1.1-1-1.8-2.4-1.7-3.9c-0.1-1.7,0.7-3.4,2.1-4.4c1.8-1.1,4-1.7,6.1-1.5h2.2v-1c0-0.7-0.2-1.4-0.6-2c-0.5-0.5-1.3-0.8-2-0.8
	c-0.7,0-1.4,0.2-1.9,0.6c-0.5,0.4-0.7,1-0.7,1.6h-4.8c0-1,0.4-2.1,1-2.9c0.7-0.9,1.6-1.6,2.7-2.1c1.3-0.5,2.6-0.8,3.9-0.8
	c1.9-0.1,3.8,0.5,5.3,1.7c1.3,1.2,2,2.9,1.8,4.7v7.8c-0.1,1.3,0.2,2.7,0.7,3.9v0.3L168.1,166.2z M164.1,162.9c0.7,0,1.4-0.1,2-0.5
	c0.6-0.3,1-0.7,1.3-1.3V158h-1.8c-2.4,0-3.7,0.8-3.8,2.5v0.3c0,0.6,0.2,1.1,0.6,1.5C162.9,162.7,163.5,162.9,164.1,162.9z"/>
<path class="st0" d="M180.9,166.2h-4.9v-25.5h4.8L180.9,166.2z"/>
<path class="st0" d="M184.9,143.6c0-0.7,0.2-1.3,0.7-1.8c1.1-0.9,2.8-0.9,3.9,0c1,1,1,2.6,0,3.6c-1.1,0.9-2.8,0.9-3.9,0
	C185.1,144.9,184.8,144.3,184.9,143.6z M190,166.2h-4.8v-17.9h4.8V166.2z"/>
<path class="st0" d="M199.6,143.8v4.5h3.1v3.5h-3.1v9c0,0.5,0.1,1,0.4,1.4c0.4,0.3,0.9,0.5,1.5,0.4c0.5,0,0.9,0,1.4-0.1v3.6
	c-0.9,0.3-1.9,0.4-2.9,0.4c-3.4,0-5.1-1.7-5.1-5.1v-9.7h-2.6v-3.6h2.6v-4.4L199.6,143.8z"/>
<path class="st0" d="M212.1,159.4l3.3-11.1h5.1l-7.2,20.8l-0.4,1c-0.8,2.2-3,3.6-5.3,3.5c-0.7,0-1.4-0.1-2.1-0.3v-3.6h0.7
	c0.7,0,1.4-0.1,2-0.4c0.5-0.3,0.9-0.8,1.1-1.4l0.6-1.5l-6.3-18h5.2L212.1,159.4z"/>
<path class="st0" d="M85.5,197.6c0-2.1,0.3-4.1,0.9-6.1c0.5-1.9,1.4-3.7,2.6-5.4c0.9-1.4,2.1-2.5,3.5-3.4l0.5,1.7
	c-1.5,1.3-2.7,2.9-3.4,4.8c-0.9,2.3-1.4,4.8-1.5,7.3v1.2c-0.1,3.3,0.6,6.5,2,9.5c0.7,1.4,1.7,2.7,2.9,3.8l-0.5,1.6
	c-1.4-0.9-2.7-2.1-3.6-3.5C86.5,205.7,85.4,201.7,85.5,197.6z"/>
<path class="st0" d="M104.4,201.9c0-0.6-0.3-1.3-0.8-1.6c-0.9-0.5-1.8-0.8-2.8-1c-1.1-0.2-2.2-0.5-3.2-1c-0.7-0.3-1.3-0.8-1.7-1.4
	c-0.4-0.6-0.6-1.3-0.6-2c0-1.3,0.6-2.4,1.6-3.2c1.2-0.9,2.6-1.4,4.1-1.3c1.5-0.1,3,0.4,4.2,1.3c1,0.8,1.6,2.1,1.6,3.4h-2.6
	c0-0.7-0.3-1.4-0.9-1.9c-0.6-0.5-1.5-0.8-2.3-0.8c-0.8,0-1.6,0.2-2.2,0.6c-0.5,0.4-0.8,1-0.8,1.6c0,0.6,0.3,1.1,0.8,1.4
	c0.9,0.4,1.8,0.8,2.7,0.9c1.1,0.2,2.2,0.6,3.2,1c0.7,0.3,1.3,0.8,1.8,1.5c0.4,0.6,0.6,1.4,0.6,2.1c0,1.3-0.6,2.5-1.6,3.3
	c-1.3,0.9-2.8,1.3-4.3,1.2c-1.1,0-2.2-0.2-3.3-0.6c-0.9-0.4-1.7-1-2.2-1.8c-0.5-0.7-0.8-1.6-0.8-2.5h2.6c0,0.8,0.4,1.6,1.1,2.1
	c0.8,0.5,1.7,0.8,2.6,0.8c0.8,0,1.7-0.2,2.4-0.6C104,203.2,104.4,202.6,104.4,201.9z"/>
<path class="st0" d="M116.8,206.3c-1.9,0.1-3.7-0.6-5.1-2c-1.4-1.5-2.1-3.5-2-5.5v-0.5c0-1.4,0.3-2.8,0.9-4.1
	c0.5-1.1,1.4-2.1,2.4-2.8c1-0.7,2.2-1,3.4-1c1.8-0.1,3.5,0.7,4.6,2c1.2,1.6,1.8,3.6,1.7,5.6v1.1h-10.3c0,1.3,0.5,2.6,1.3,3.7
	c0.8,0.9,2,1.4,3.2,1.4c0.8,0,1.6-0.2,2.4-0.6c0.6-0.4,1.2-0.9,1.7-1.5l1.6,1.2C121.3,205.3,119.1,206.4,116.8,206.3z M116.5,192.5
	c-1,0-2,0.4-2.7,1.1c-0.8,0.9-1.2,2-1.3,3.2h7.7v-0.2c0-1.1-0.4-2.2-1.1-3.1C118.4,192.9,117.5,192.5,116.5,192.5L116.5,192.5z"/>
<path class="st0" d="M131.9,204.1c0.9,0,1.8-0.3,2.4-0.9c0.7-0.5,1.1-1.3,1.2-2.1h2.5c-0.1,0.9-0.4,1.8-0.9,2.5
	c-0.6,0.8-1.3,1.5-2.2,1.9c-0.9,0.5-1.9,0.7-2.9,0.7c-1.9,0.1-3.7-0.7-5-2.1c-1.3-1.6-2-3.6-1.9-5.7V198c0-1.4,0.3-2.7,0.8-4
	c0.5-1.1,1.3-2,2.4-2.7c1.1-0.7,2.3-1,3.6-1c1.6-0.1,3.1,0.5,4.3,1.5c1.1,1,1.8,2.5,1.8,4h-2.5c0-0.9-0.5-1.8-1.1-2.5
	c-0.7-0.7-1.6-1-2.5-1c-1.2-0.1-2.4,0.5-3.1,1.4c-0.8,1.2-1.2,2.7-1.1,4.1v0.5c-0.1,1.4,0.3,2.9,1.1,4.1
	C129.6,203.6,130.7,204.2,131.9,204.1z"/>
<path class="st0" d="M150.4,204.5c-1.1,1.2-2.8,1.9-4.5,1.8c-1.4,0.1-2.8-0.4-3.7-1.4c-0.9-1.2-1.4-2.7-1.3-4.2v-10h2.6v9.9
	c0,2.3,0.9,3.5,2.8,3.5c2,0,3.3-0.7,4-2.2v-11.1h2.6V206h-2.5L150.4,204.5z"/>
<path class="st0" d="M164.4,193c-0.4-0.1-0.9-0.1-1.3-0.1c-1.5-0.1-2.9,0.8-3.5,2.2V206H157v-15.3h2.6v1.8c0.7-1.3,2.1-2.1,3.6-2
	c0.4,0,0.8,0,1.2,0.2L164.4,193z"/>
<path class="st0" d="M166.8,186.6c0-0.4,0.1-0.8,0.4-1.1c0.7-0.6,1.7-0.6,2.3,0c0.3,0.3,0.4,0.7,0.4,1.1c0,0.4-0.1,0.8-0.4,1.1
	c-0.6,0.6-1.5,0.7-2.2,0.1C167,187.5,166.8,187.1,166.8,186.6z M169.6,206H167v-15.3h2.6V206z"/>
<path class="st0" d="M177.4,187v3.7h2.9v2h-2.9v9.6c0,0.5,0.1,1,0.4,1.4c0.3,0.3,0.8,0.5,1.3,0.5c0.4,0,0.8-0.1,1.2-0.2v2.1
	c-0.7,0.2-1.3,0.3-2,0.3c-1,0.1-2-0.3-2.6-1.1c-0.6-0.9-1-1.9-0.9-3v-9.5H172v-2h2.8V187H177.4z"/>
<path class="st0" d="M188.3,202.2l3.6-11.5h2.8l-6.2,17.7c-1,2.5-2.5,3.8-4.6,3.8h-0.5l-1-0.2v-2.1l0.7,0c0.7,0,1.5-0.1,2.1-0.5
	c0.6-0.5,1-1.2,1.2-2l0.6-1.6l-5.5-15.1h2.9L188.3,202.2z"/>
<path class="st0" d="M213.6,206c-0.2-0.5-0.3-1.1-0.4-1.6c-1.1,1.2-2.7,1.9-4.4,1.9c-1.4,0.1-2.7-0.4-3.7-1.3
	c-0.9-0.8-1.5-2-1.4-3.2c-0.1-1.5,0.6-2.9,1.8-3.7c1.5-1,3.3-1.4,5.1-1.3h2.6v-1.2c0-0.8-0.3-1.6-0.8-2.2c-0.7-0.6-1.5-0.9-2.4-0.8
	c-0.8,0-1.7,0.2-2.4,0.7c-0.6,0.4-0.9,1-0.9,1.7h-2.6c0-0.8,0.3-1.6,0.8-2.2c0.6-0.7,1.3-1.3,2.2-1.7c1-0.4,2-0.6,3.1-0.6
	c1.5-0.1,3,0.4,4.1,1.3c1,0.9,1.6,2.3,1.6,3.6v7c0,1.1,0.1,2.3,0.5,3.4v0.2L213.6,206z M209.3,204c0.8,0,1.6-0.2,2.3-0.6
	c0.7-0.4,1.2-1,1.6-1.7v-3.1h-2c-3.2,0-4.8,0.9-4.8,2.8c0,0.7,0.3,1.4,0.8,1.9C207.8,203.8,208.5,204,209.3,204L209.3,204z"/>
<path class="st0" d="M222.4,190.7l0.1,1.9c1.1-1.4,2.8-2.3,4.6-2.2c3.2,0,4.9,1.8,4.9,5.5V206h-2.6v-10.1c0.1-0.9-0.2-1.8-0.8-2.5
	c-0.6-0.6-1.5-0.9-2.3-0.8c-0.8,0-1.6,0.2-2.2,0.7c-0.6,0.5-1.2,1.1-1.5,1.8V206H220v-15.3H222.4z"/>
<path class="st0" d="M235.3,198.2c-0.1-2,0.5-4,1.7-5.7c2-2.5,5.5-2.9,8-0.9c0.2,0.2,0.4,0.4,0.6,0.6v-8h2.6V206h-2.4l-0.1-1.6
	c-1.1,1.3-2.7,2-4.4,1.9c-1.7,0-3.3-0.8-4.3-2.2c-1.2-1.7-1.8-3.7-1.7-5.7V198.2z M237.9,198.5c-0.1,1.4,0.3,2.9,1.1,4.1
	c0.7,1,1.8,1.5,3,1.5c1.6,0.1,3-0.8,3.6-2.2v-7c-0.7-1.4-2.1-2.2-3.6-2.2c-1.2,0-2.3,0.5-3,1.5C238.2,195.4,237.9,197,237.9,198.5z"
	/>
<path class="st0" d="M133.3,236.7c0-0.6-0.3-1.3-0.8-1.6c-0.9-0.5-1.8-0.8-2.8-1c-1.1-0.2-2.2-0.5-3.2-1c-0.7-0.3-1.3-0.8-1.7-1.4
	c-0.4-0.6-0.6-1.3-0.6-2c0-1.3,0.6-2.4,1.6-3.2c1.2-0.9,2.6-1.4,4.1-1.3c1.5-0.1,3,0.4,4.2,1.3c1,0.8,1.6,2.1,1.6,3.4h-2.6
	c0-0.7-0.3-1.4-0.9-1.9c-0.6-0.5-1.5-0.8-2.3-0.8c-0.8,0-1.6,0.2-2.2,0.6c-0.5,0.4-0.8,1-0.8,1.6c0,0.6,0.3,1.1,0.8,1.4
	c0.8,0.4,1.8,0.8,2.7,0.9c1.1,0.2,2.2,0.6,3.2,1c0.7,0.3,1.3,0.8,1.8,1.5c0.4,0.6,0.6,1.3,0.6,2.1c0,1.3-0.6,2.5-1.6,3.3
	c-1.2,0.9-2.7,1.3-4.3,1.2c-1.1,0-2.2-0.2-3.2-0.6c-0.9-0.4-1.7-1-2.2-1.8c-0.5-0.7-0.8-1.6-0.8-2.5h2.6c0,0.8,0.4,1.6,1.1,2.1
	c0.7,0.6,1.7,0.8,2.6,0.8c0.8,0,1.7-0.2,2.4-0.6C133,238,133.3,237.4,133.3,236.7z"/>
<path class="st0" d="M148.8,240.8c-0.2-0.5-0.3-1.1-0.4-1.6c-1.1,1.2-2.7,1.9-4.4,1.9c-1.4,0.1-2.7-0.4-3.7-1.3
	c-0.9-0.8-1.5-2-1.4-3.2c-0.1-1.5,0.6-2.9,1.8-3.7c1.5-1,3.3-1.4,5.1-1.3h2.6v-1.2c0-0.8-0.3-1.6-0.8-2.2c-0.7-0.6-1.5-0.9-2.4-0.8
	c-0.8,0-1.7,0.2-2.4,0.7c-0.6,0.4-0.9,1-0.9,1.7h-2.6c0-0.8,0.3-1.6,0.8-2.2c0.6-0.7,1.3-1.3,2.2-1.7c1-0.4,2-0.6,3.1-0.6
	c1.5-0.1,3,0.4,4.1,1.3c1,0.9,1.6,2.3,1.6,3.6v7.1c0,1.1,0.1,2.3,0.5,3.4v0.2L148.8,240.8z M144.5,238.8c0.8,0,1.6-0.2,2.3-0.6
	c0.7-0.4,1.2-1,1.6-1.7v-3.1h-2.1c-3.2,0-4.8,0.9-4.8,2.8c0,0.7,0.3,1.4,0.8,1.9C142.9,238.6,143.7,238.8,144.5,238.8z"/>
<path class="st0" d="M156.4,240.8v-13.3H154v-2h2.4v-1.6c-0.1-1.4,0.4-2.8,1.3-3.8c1-0.9,2.4-1.4,3.7-1.4c0.6,0,1.2,0.1,1.8,0.2
	l-0.1,2.1c-0.5-0.1-0.9-0.1-1.4-0.1c-0.7-0.1-1.5,0.2-2,0.7c-0.5,0.6-0.8,1.4-0.7,2.1v1.6h3.3v2H159v13.3L156.4,240.8z"/>
<path class="st0" d="M171.2,241.1c-1.9,0.1-3.7-0.6-5.1-2c-1.4-1.5-2.1-3.5-2-5.5v-0.5c0-1.4,0.3-2.8,0.9-4.1
	c0.5-1.1,1.4-2.1,2.4-2.8c1-0.7,2.2-1,3.4-1c1.8-0.1,3.5,0.7,4.6,2c1.2,1.6,1.8,3.6,1.7,5.6v1.1h-10.3c0,1.3,0.4,2.6,1.3,3.7
	c0.8,0.9,2,1.4,3.2,1.4c0.8,0,1.6-0.2,2.4-0.6c0.7-0.4,1.2-0.9,1.7-1.5l1.6,1.2C175.7,240.1,173.5,241.2,171.2,241.1z M170.9,227.3
	c-1,0-2,0.4-2.7,1.1c-0.8,0.9-1.2,2-1.3,3.2h7.7v-0.2c0-1.1-0.4-2.2-1.1-3.1C172.8,227.7,171.9,227.3,170.9,227.3L170.9,227.3z"/>
<path class="st0" d="M183.8,221.8v3.7h2.9v2h-2.9v9.5c0,0.5,0.1,1,0.4,1.4c0.3,0.3,0.8,0.5,1.3,0.5c0.4,0,0.8-0.1,1.2-0.2v2.1
	c-0.7,0.2-1.3,0.3-2,0.3c-1,0.1-2-0.3-2.6-1.1c-0.6-0.9-1-1.9-0.9-3v-9.5h-2.8v-2h2.8v-3.7H183.8z"/>
<path class="st0" d="M194.7,237l3.6-11.5h2.8l-6.2,17.7c-1,2.5-2.5,3.8-4.6,3.8h-0.5l-1-0.2v-2.1l0.7,0c0.7,0,1.5-0.1,2.1-0.5
	c0.6-0.5,1-1.2,1.2-2l0.6-1.6l-5.5-15.1h2.9L194.7,237z"/>
<path class="st0" d="M209.5,232.6c0,2-0.3,4.1-0.8,6.1c-0.5,1.9-1.4,3.7-2.5,5.3c-0.9,1.4-2.1,2.6-3.6,3.5l-0.6-1.6
	c1.6-1.4,2.8-3.2,3.5-5.2c0.9-2.5,1.4-5.1,1.4-7.8v-0.5c0-1.9-0.2-3.7-0.6-5.5c-0.4-1.6-1-3.1-1.7-4.6c-0.6-1.2-1.5-2.3-2.5-3.1
	l0.6-1.6c1.4,0.9,2.7,2,3.6,3.5c1.1,1.6,2,3.4,2.5,5.3C209.2,228.4,209.5,230.5,209.5,232.6z"/>
<path class="st0" d="M535.7,120.4H527l-1.7,5H520l9-24.2h4.6l9,24.2h-5.3L535.7,120.4z M528.3,116.4h6l-3-9L528.3,116.4z"/>
<path class="st0" d="M552.1,121.9c0.8,0,1.6-0.2,2.2-0.7c0.6-0.5,0.9-1.2,0.9-1.9h4.5c0,1.2-0.4,2.4-1,3.4c-0.7,1-1.6,1.8-2.7,2.4
	c-1.2,0.6-2.5,0.9-3.8,0.8c-2.3,0.1-4.5-0.8-6.1-2.5c-1.6-1.9-2.4-4.3-2.2-6.8v-0.3c-0.1-2.4,0.7-4.8,2.2-6.6
	c1.6-1.7,3.8-2.6,6.1-2.5c2-0.1,3.9,0.6,5.4,1.9c1.4,1.3,2.1,3.2,2.1,5.1h-4.5c0-0.8-0.3-1.7-0.9-2.3c-1.3-1.2-3.3-1.2-4.5,0.1
	c-0.1,0.1-0.1,0.2-0.2,0.2c-0.7,1.2-1,2.6-0.9,4v0.5c-0.1,1.4,0.2,2.8,0.8,4C550.1,121.5,551.1,121.9,552.1,121.9z"/>
<path class="st0" d="M567.1,109.4c1.2-1.5,2.9-2.3,4.8-2.3c3.9,0,5.9,2.3,5.9,6.8v11.5H573V114c0.1-0.8-0.2-1.6-0.7-2.3
	c-0.6-0.6-1.4-0.8-2.2-0.7c-1.2-0.1-2.4,0.6-3,1.6v12.8h-4.8V99.9h4.8V109.4z"/>
<path class="st0" d="M581.4,102.8c0-0.7,0.2-1.3,0.7-1.8c1.1-0.9,2.8-0.9,3.9,0c1,1,1,2.6,0,3.6c0,0,0,0,0,0c-0.5,0.5-1.2,0.7-2,0.7
	c-0.7,0-1.5-0.2-2-0.7C581.6,104.1,581.3,103.5,581.4,102.8z M586.4,125.4h-4.8v-18h4.8V125.4z"/>
<path class="st0" d="M598.7,125.7c-2.4,0.1-4.7-0.8-6.4-2.4c-1.7-1.7-2.6-4.1-2.5-6.5v-0.5c0-1.7,0.3-3.3,1-4.8
	c0.7-1.4,1.7-2.5,3-3.3c1.3-0.8,2.8-1.2,4.4-1.1c2.2-0.1,4.3,0.7,5.8,2.3c1.5,1.8,2.3,4.2,2.1,6.6v2h-11.4c0.1,1.1,0.6,2.1,1.4,2.8
	c0.8,0.7,1.9,1.1,3,1.1c1.7,0.1,3.3-0.7,4.3-2l2.4,2.6c-0.7,1-1.8,1.9-2.9,2.4C601.5,125.5,600.1,125.8,598.7,125.7z M598.1,111
	c-0.9,0-1.7,0.3-2.3,1c-0.6,0.8-1,1.8-1.1,2.8h6.7v-0.4c0-0.9-0.3-1.8-0.9-2.5C599.8,111.3,599,110.9,598.1,111z"/>
<path class="st0" d="M615.3,119.5l3.3-12.1h5l-6.1,18H613l-6.1-18h5L615.3,119.5z"/>
<path class="st0" d="M633.8,125.7c-2.4,0.1-4.7-0.8-6.4-2.4c-1.7-1.7-2.6-4.1-2.5-6.5v-0.5c0-1.7,0.3-3.3,1-4.8
	c0.7-1.4,1.7-2.5,3-3.3c1.3-0.8,2.8-1.2,4.4-1.1c2.2-0.1,4.3,0.7,5.8,2.3c1.5,1.8,2.3,4.2,2.1,6.6v2h-11.4c0.1,1.1,0.6,2.1,1.4,2.8
	c0.8,0.7,1.9,1.1,3,1.1c1.7,0.1,3.3-0.7,4.3-2l2.4,2.6c-0.8,1-1.8,1.9-2.9,2.4C636.6,125.5,635.2,125.8,633.8,125.7z M633.2,111
	c-0.9,0-1.7,0.3-2.3,1c-0.7,0.8-1.1,1.8-1.1,2.8h6.7v-0.4c0-0.9-0.3-1.8-0.9-2.5C635,111.3,634.1,110.9,633.2,111L633.2,111z"/>
<path class="st0" d="M511.4,158.1c-0.1,2.4-1.1,4.6-2.9,6.1c-1.9,1.6-4.4,2.4-6.9,2.2c-2.8,0.1-5.5-1-7.3-3.1
	c-1.8-2.1-2.7-5-2.7-8.6v-1.5c0-2.1,0.4-4.2,1.2-6.1c0.7-1.7,2-3.1,3.5-4.1c3.8-2.2,8.6-1.8,12.1,0.8c1.8,1.6,2.9,3.9,3,6.3h-5
	c0-1.3-0.5-2.5-1.3-3.4c-1-0.8-2.2-1.1-3.4-1c-1.5-0.1-2.9,0.6-3.7,1.8c-1,1.7-1.4,3.6-1.3,5.5v1.8c0,2.6,0.4,4.5,1.2,5.7
	c0.8,1.2,2.3,1.9,3.7,1.8c1.2,0.1,2.5-0.3,3.4-1.1c0.8-0.9,1.3-2,1.3-3.3H511.4z"/>
<path class="st0" d="M513.6,157c0-1.6,0.3-3.3,1-4.8c0.7-1.4,1.7-2.5,3-3.2c1.4-0.8,2.9-1.2,4.5-1.1c2.2-0.1,4.3,0.7,5.9,2.2
	c1.6,1.6,2.5,3.7,2.6,6v1.2c0.1,2.4-0.7,4.8-2.3,6.6c-3.5,3.3-8.9,3.3-12.4,0c-1.6-1.9-2.4-4.3-2.3-6.8L513.6,157z M518.4,157.4
	c-0.1,1.4,0.3,2.7,1,3.9c1.2,1.5,3.3,1.8,4.9,0.6c0.2-0.2,0.4-0.4,0.6-0.6c0.8-1.3,1.1-2.8,1-4.3c0.1-1.4-0.3-2.7-1-3.9
	c-0.6-0.9-1.7-1.4-2.8-1.4c-1.1,0-2.1,0.5-2.7,1.4C518.6,154.4,518.3,155.9,518.4,157.4z"/>
<path class="st0" d="M538.1,148.3l0.2,2c1.3-1.6,3.2-2.4,5.2-2.3c2-0.2,3.9,0.9,4.8,2.7c1.2-1.8,3.2-2.8,5.4-2.7
	c1.6-0.1,3.2,0.5,4.3,1.7c1.1,1.5,1.6,3.3,1.4,5.1v11.5h-4.8v-11.5c0.1-0.8-0.1-1.6-0.6-2.2c-0.6-0.5-1.3-0.8-2.1-0.7
	c-1.3-0.1-2.6,0.8-3,2.1v12.3H544v-11.4c0.1-0.8-0.2-1.6-0.6-2.3c-0.6-0.5-1.3-0.8-2.1-0.7c-1.2-0.1-2.4,0.6-3,1.7v12.7h-4.8v-17.9
	H538.1z"/>
<path class="st0" d="M579.2,157.4c0.1,2.4-0.5,4.7-1.9,6.6c-1.2,1.6-3.1,2.6-5.1,2.5c-1.7,0.1-3.3-0.6-4.4-1.9v8.5H563v-24.8h4.5
	l0.2,1.8c1.1-1.4,2.8-2.1,4.5-2.1c2-0.1,4,0.8,5.2,2.5c1.3,2,2,4.4,1.8,6.8L579.2,157.4z M574.4,157c0.1-1.3-0.2-2.7-0.9-3.9
	c-0.6-0.9-1.5-1.4-2.6-1.4c-1.3-0.1-2.5,0.6-3.1,1.7v7.4c0.6,1.2,1.8,1.9,3.1,1.8C573.2,162.7,574.4,160.8,574.4,157z"/>
<path class="st0" d="M587.2,166.2h-4.8v-25.5h4.8V166.2z"/>
<path class="st0" d="M591.1,143.6c0-0.7,0.2-1.3,0.7-1.8c1.1-0.9,2.8-0.9,3.9,0c0.5,0.5,0.8,1.1,0.7,1.8c0,0.7-0.2,1.3-0.7,1.8
	c-0.5,0.5-1.2,0.7-2,0.7c-0.7,0-1.5-0.2-2-0.7C591.3,144.9,591.1,144.3,591.1,143.6z M596.2,166.2h-4.8v-17.9h4.8V166.2z"/>
<path class="st0" d="M610.6,166.2c-0.2-0.5-0.4-1.1-0.5-1.6c-1.1,1.3-2.8,2-4.5,1.9c-1.6,0.1-3.2-0.5-4.4-1.5
	c-1.1-1-1.8-2.4-1.7-3.9c-0.1-1.7,0.7-3.4,2.1-4.4c1.8-1.1,4-1.6,6.1-1.5h2.2v-1c0-0.7-0.2-1.4-0.6-2c-0.5-0.5-1.3-0.8-2-0.8
	c-0.7,0-1.4,0.2-1.9,0.6c-0.5,0.4-0.7,1-0.7,1.6h-4.8c0-1,0.4-2.1,1-2.9c0.7-0.9,1.6-1.6,2.7-2.1c1.3-0.5,2.6-0.8,4-0.8
	c1.9-0.1,3.8,0.5,5.3,1.7c1.4,1.2,2.1,2.9,2,4.7v7.8c-0.1,1.3,0.2,2.7,0.7,3.9v0.3L610.6,166.2z M606.6,162.9c0.7,0,1.4-0.1,2-0.5
	c0.6-0.3,1-0.7,1.3-1.3V158h-1.8c-2.4,0-3.7,0.8-3.8,2.5v0.3c0,0.6,0.2,1.1,0.6,1.5C605.4,162.7,606,162.9,606.6,162.9L606.6,162.9z
	"/>
<path class="st0" d="M622.8,148.3l0.2,2.1c1.2-1.6,3.2-2.5,5.2-2.4c1.6-0.1,3.2,0.5,4.2,1.7c1,1.5,1.5,3.2,1.4,5v11.6H629v-11.5
	c0.1-0.8-0.2-1.6-0.7-2.2c-0.6-0.5-1.4-0.8-2.2-0.7c-1.2,0-2.4,0.6-3,1.7v12.7h-4.8v-17.9H622.8z"/>
<path class="st0" d="M644.9,162.7c0.8,0,1.6-0.2,2.2-0.7c0.6-0.5,0.9-1.2,0.9-1.9h4.5c0,1.2-0.4,2.4-1,3.4c-0.7,1-1.6,1.8-2.7,2.4
	c-1.2,0.6-2.5,0.9-3.8,0.8c-2.3,0.1-4.5-0.8-6.1-2.5c-1.6-1.9-2.4-4.3-2.2-6.8V157c-0.1-2.4,0.7-4.8,2.2-6.6
	c1.6-1.7,3.8-2.6,6.1-2.5c2-0.1,3.9,0.6,5.4,1.9c1.4,1.3,2.1,3.2,2.1,5.1h-4.5c0-0.8-0.3-1.7-0.9-2.3c-1.3-1.2-3.3-1.2-4.5,0.1
	c-0.1,0.1-0.1,0.2-0.2,0.2c-0.7,1.2-1,2.6-0.9,4v0.5c-0.1,1.4,0.2,2.8,0.8,4C642.9,162.3,643.9,162.7,644.9,162.7z"/>
<path class="st0" d="M663.4,166.5c-2.4,0.1-4.7-0.8-6.4-2.4c-1.7-1.7-2.6-4.1-2.5-6.5v-0.5c0-1.7,0.3-3.3,1-4.8
	c0.7-1.4,1.7-2.5,3-3.3c1.3-0.8,2.8-1.2,4.4-1.1c2.2-0.1,4.3,0.7,5.8,2.3c1.5,1.8,2.3,4.2,2.1,6.6v2h-11.4c0.1,1.1,0.6,2.1,1.4,2.8
	c0.8,0.7,1.9,1.1,3,1.1c1.7,0.1,3.3-0.7,4.3-2l2.4,2.6c-0.7,1-1.8,1.9-2.9,2.4C666.3,166.3,664.9,166.6,663.4,166.5z M662.9,151.8
	c-0.9,0-1.7,0.3-2.3,1c-0.6,0.8-1,1.8-1.1,2.8h6.7v-0.4c0-0.9-0.3-1.8-0.9-2.5C664.6,152.1,663.8,151.7,662.9,151.8z"/>
<path class="st0" d="M936.9,125.4h-5v-24.1h5V125.4z"/>
<path class="st0" d="M945.7,107.4l0.2,2.1c1.2-1.6,3.2-2.5,5.2-2.4c1.6-0.1,3.2,0.5,4.2,1.7c1,1.5,1.5,3.2,1.4,5v11.6h-4.8v-11.5
	c0.1-0.8-0.2-1.6-0.7-2.2c-0.6-0.5-1.4-0.8-2.2-0.7c-1.2,0-2.4,0.6-3,1.7v12.7h-4.9v-18L945.7,107.4z"/>
<path class="st0" d="M967.8,121.9c0.8,0,1.6-0.2,2.2-0.7c0.6-0.5,0.9-1.2,0.9-1.9h4.5c0,1.2-0.4,2.4-1,3.4c-0.7,1-1.6,1.8-2.7,2.4
	c-1.2,0.6-2.5,0.9-3.8,0.8c-2.3,0.1-4.5-0.8-6.1-2.5c-1.6-1.9-2.4-4.3-2.2-6.8v-0.3c-0.1-2.4,0.7-4.8,2.2-6.6
	c1.6-1.7,3.8-2.6,6.1-2.5c2-0.1,3.9,0.6,5.4,1.9c1.4,1.3,2.1,3.2,2.1,5.1h-4.5c0-0.8-0.3-1.7-0.9-2.3c-0.6-0.6-1.4-0.9-2.2-0.9
	c-1-0.1-2,0.4-2.5,1.2c-0.7,1.2-1,2.6-0.8,4v0.5c-0.1,1.4,0.2,2.8,0.8,4C965.8,121.5,966.7,121.9,967.8,121.9z"/>
<path class="st0" d="M988.1,111.9c-0.6-0.1-1.2-0.1-1.7-0.1c-1.8,0-3,0.6-3.6,1.9v11.8H978v-18h4.5l0.1,2.1c0.8-1.5,2.3-2.5,4-2.5
	c0.5,0,1,0.1,1.5,0.2L988.1,111.9z"/>
<path class="st0" d="M998.4,125.7c-2.4,0.1-4.7-0.8-6.4-2.4c-1.7-1.7-2.6-4.1-2.5-6.5v-0.5c0-1.7,0.3-3.3,1-4.8
	c0.7-1.4,1.7-2.5,3-3.3c1.3-0.8,2.8-1.2,4.4-1.1c2.2-0.1,4.3,0.7,5.8,2.3c1.5,1.8,2.3,4.2,2.1,6.6v2h-11.4c0.1,1.1,0.6,2.1,1.4,2.8
	c0.8,0.7,1.9,1.1,3,1.1c1.7,0.1,3.3-0.7,4.3-2l2.4,2.6c-0.8,1-1.8,1.9-2.9,2.4C1001.2,125.5,999.8,125.8,998.4,125.7z M997.8,111
	c-0.9,0-1.7,0.3-2.3,1c-0.7,0.8-1.1,1.8-1.1,2.8h6.7v-0.4c0-0.9-0.3-1.8-0.9-2.5C999.5,111.3,998.7,110.9,997.8,111L997.8,111z"/>
<path class="st0" d="M1018.9,125.4c-0.2-0.5-0.4-1.1-0.5-1.6c-1.1,1.3-2.8,2-4.5,1.9c-1.6,0.1-3.2-0.5-4.4-1.5
	c-1.1-1-1.8-2.4-1.7-3.9c-0.1-1.7,0.7-3.4,2.1-4.4c1.8-1.1,4-1.7,6.1-1.5h2.2v-1c0-0.7-0.2-1.4-0.6-2c-0.5-0.5-1.3-0.8-2-0.8
	c-0.7,0-1.4,0.2-1.9,0.6c-0.5,0.4-0.7,1-0.7,1.6h-4.8c0-1,0.4-2.1,1-2.9c0.7-0.9,1.6-1.7,2.7-2.1c1.3-0.5,2.6-0.8,4-0.8
	c1.9-0.1,3.8,0.5,5.3,1.7c1.3,1.2,2.1,2.9,2,4.7v7.8c-0.1,1.3,0.2,2.7,0.7,3.9v0.3L1018.9,125.4z M1014.9,122.1c0.7,0,1.4-0.1,2-0.5
	c0.6-0.3,1-0.7,1.3-1.3v-3.1h-1.8c-2.4,0-3.7,0.8-3.8,2.5v0.3c0,0.6,0.2,1.1,0.6,1.5C1013.7,121.9,1014.3,122.1,1014.9,122.1
	L1014.9,122.1z"/>
<path class="st0" d="M1036.4,120.4c0-0.6-0.3-1.1-0.9-1.4c-0.9-0.4-1.8-0.7-2.8-0.9c-4.3-0.9-6.4-2.7-6.4-5.5c0-1.6,0.7-3.1,2-4
	c1.5-1.1,3.3-1.7,5.2-1.6c2-0.1,3.9,0.5,5.5,1.6c1.3,1,2,2.5,2,4.2h-4.8c0-0.6-0.2-1.2-0.7-1.7c-0.6-0.5-1.3-0.7-2.1-0.7
	c-0.7,0-1.3,0.1-1.9,0.5c-0.4,0.3-0.7,0.9-0.7,1.4c0,0.5,0.3,1,0.8,1.3c0.8,0.4,1.7,0.7,2.6,0.8c1,0.2,2,0.5,3,0.8
	c2.5,0.9,3.8,2.5,3.8,4.8c0,1.6-0.8,3.1-2.1,4c-1.6,1.1-3.5,1.6-5.4,1.5c-1.4,0-2.7-0.2-4-0.8c-1.1-0.5-2-1.2-2.8-2.2
	c-0.6-0.9-1-1.9-1-3h4.6c0,0.8,0.3,1.5,0.9,2c0.7,0.5,1.5,0.7,2.4,0.7c0.7,0.1,1.5-0.1,2.1-0.5
	C1036.2,121.6,1036.5,121,1036.4,120.4z"/>
<path class="st0" d="M1052.4,125.7c-2.4,0.1-4.7-0.8-6.4-2.4c-1.7-1.7-2.6-4.1-2.5-6.5v-0.5c0-1.7,0.3-3.3,1-4.8
	c0.7-1.4,1.7-2.5,3-3.3c1.3-0.8,2.8-1.2,4.4-1.1c2.2-0.1,4.3,0.7,5.8,2.3c1.5,1.8,2.3,4.2,2.1,6.6v2h-11.4c0.1,1.1,0.6,2.1,1.4,2.8
	c0.8,0.7,1.9,1.1,3,1.1c1.7,0.1,3.3-0.7,4.3-2l2.3,2.6c-0.7,1-1.8,1.9-2.9,2.4C1055.3,125.5,1053.9,125.8,1052.4,125.7z M1051.9,111
	c-0.9,0-1.7,0.3-2.3,1c-0.7,0.8-1.1,1.8-1.1,2.8h6.6v-0.4c0-0.9-0.3-1.8-0.9-2.5C1053.6,111.3,1052.8,110.9,1051.9,111L1051.9,111z"
	/>
<path class="st0" d="M910.2,157.7v8.5h-5V142h9.4c1.7,0,3.3,0.3,4.8,1c1.3,0.6,2.4,1.6,3.2,2.8c0.8,1.3,1.1,2.7,1.1,4.2
	c0.1,2.1-0.8,4.2-2.4,5.6c-1.9,1.5-4.3,2.2-6.7,2H910.2z M910.2,153.7h4.5c1.1,0.1,2.1-0.3,3-0.9c0.7-0.7,1.1-1.7,1-2.7
	c0.1-1.1-0.3-2.1-1-2.9c-0.8-0.8-1.8-1.2-2.9-1.1h-4.6L910.2,153.7z"/>
<path class="st0" d="M936.9,152.7c-0.6-0.1-1.2-0.1-1.7-0.1c-1.8,0-3,0.6-3.6,1.9v11.8h-4.8v-17.9h4.5l0.1,2.1
	c0.8-1.5,2.3-2.5,4-2.5c0.5,0,1,0.1,1.5,0.2L936.9,152.7z"/>
<path class="st0" d="M937.9,157c0-1.6,0.3-3.3,1-4.8c0.7-1.4,1.7-2.5,3-3.2c1.4-0.8,2.9-1.2,4.5-1.1c2.2-0.1,4.3,0.7,5.9,2.2
	c1.6,1.6,2.5,3.7,2.6,6v1.2c0.1,2.4-0.7,4.8-2.3,6.6c-3.5,3.3-8.9,3.3-12.4,0c-1.6-1.9-2.5-4.3-2.3-6.8L937.9,157z M942.7,157.4
	c-0.1,1.4,0.3,2.7,1,3.9c1.2,1.5,3.3,1.8,4.8,0.6c0.2-0.2,0.4-0.4,0.6-0.6c0.8-1.3,1.1-2.8,1-4.3c0.1-1.4-0.3-2.7-1-3.9
	c-0.6-0.9-1.7-1.4-2.8-1.4c-1.1,0-2.1,0.5-2.7,1.4C942.9,154.4,942.6,155.9,942.7,157.4z"/>
<path class="st0" d="M957.1,157.1c-0.1-2.4,0.5-4.7,1.9-6.7c1.2-1.6,3.1-2.6,5.2-2.5c1.7,0,3.3,0.7,4.3,2v-9.2h4.8v25.5h-4.3
	l-0.2-1.9c-1.1,1.4-2.8,2.3-4.6,2.2c-2,0.1-3.9-0.9-5.1-2.5C957.6,162,956.9,159.6,957.1,157.1z M961.9,157.4
	c-0.1,1.4,0.2,2.7,0.9,3.9c0.5,0.9,1.5,1.4,2.5,1.4c1.3,0.1,2.6-0.7,3.1-1.9v-7.1c-0.5-1.2-1.8-2-3.1-1.9
	C963.1,151.8,961.9,153.7,961.9,157.4z"/>
<path class="st0" d="M987.8,164.4c-1.2,1.5-3,2.3-4.9,2.2c-1.6,0.1-3.3-0.5-4.4-1.7c-1.1-1.4-1.7-3.1-1.5-4.9v-11.7h4.8v11.6
	c0,1.9,0.8,2.8,2.5,2.8c1.4,0.1,2.7-0.5,3.4-1.7v-12.7h4.8v18h-4.5L987.8,164.4z"/>
<path class="st0" d="M1003.5,162.7c0.8,0,1.6-0.2,2.2-0.7c0.6-0.5,0.9-1.2,0.9-1.9h4.5c0,1.2-0.3,2.4-1,3.4c-0.7,1-1.6,1.8-2.7,2.4
	c-1.2,0.6-2.5,0.9-3.8,0.8c-2.3,0.1-4.5-0.8-6.1-2.5c-1.6-1.9-2.4-4.3-2.2-6.8V157c-0.1-2.4,0.7-4.8,2.2-6.6
	c1.6-1.7,3.8-2.6,6.1-2.5c2-0.1,3.9,0.6,5.4,1.9c1.4,1.3,2.1,3.2,2.1,5.1h-4.5c0-0.8-0.3-1.7-0.9-2.3c-0.6-0.6-1.4-0.9-2.2-0.9
	c-1-0.1-2,0.4-2.5,1.2c-0.7,1.2-1,2.6-0.9,4v0.5c-0.1,1.4,0.2,2.8,0.8,4C1001.5,162.3,1002.5,162.7,1003.5,162.7z"/>
<path class="st0" d="M1019.5,143.8v4.5h3.1v3.5h-3.1v9c0,0.5,0.1,1,0.4,1.4c0.4,0.3,0.9,0.5,1.5,0.4c0.5,0,0.9,0,1.4-0.1v3.6
	c-0.9,0.3-1.9,0.4-2.9,0.4c-3.4,0-5.1-1.7-5.1-5.1v-9.7h-2.6v-3.6h2.6v-4.4L1019.5,143.8z"/>
<path class="st0" d="M1025.2,143.6c0-0.7,0.2-1.3,0.7-1.8c1.1-0.9,2.8-0.9,3.9,0c1,1,1,2.6,0,3.6c-1.1,0.9-2.8,0.9-3.9,0
	C1025.4,144.9,1025.2,144.3,1025.2,143.6z M1030.3,166.2h-4.8v-17.9h4.8V166.2z"/>
<path class="st0" d="M1041,160.3l3.3-12.1h5l-6.1,18h-4.6l-6.1-18h5L1041,160.3z"/>
<path class="st0" d="M1051.4,143.6c0-0.7,0.2-1.3,0.7-1.8c0.5-0.5,1.3-0.7,2-0.7c0.7,0,1.5,0.2,2,0.7c0.5,0.5,0.8,1.1,0.7,1.8
	c0,0.7-0.2,1.3-0.7,1.8c-1.1,0.9-2.8,0.9-3.9,0C1051.7,144.9,1051.4,144.3,1051.4,143.6z M1056.5,166.2h-4.8v-17.9h4.8V166.2z"/>
<path class="st0" d="M1066.2,143.8v4.5h3.1v3.5h-3.1v9c0,0.5,0.1,1,0.4,1.4c0.4,0.3,0.9,0.5,1.5,0.4c0.5,0,0.9,0,1.4-0.1v3.6
	c-0.9,0.3-1.9,0.4-2.9,0.4c-3.4,0-5.1-1.7-5.1-5.1v-9.7h-2.6v-3.6h2.6v-4.4L1066.2,143.8z"/>
<path class="st0" d="M1078.7,159.4l3.3-11.2h5.1l-7.2,20.8l-0.4,1c-0.8,2.2-3,3.6-5.3,3.5c-0.7,0-1.4-0.1-2.1-0.3v-3.6h0.7
	c0.7,0,1.4-0.1,2-0.4c0.5-0.3,0.8-0.8,1-1.4l0.6-1.5l-6.3-18h5.2L1078.7,159.4z"/>
<path class="st0" d="M1372.6,91.4h-4v8.9h-5V76.1h9c2.4-0.1,4.7,0.5,6.6,1.9c1.6,1.3,2.4,3.3,2.3,5.4c0.1,1.5-0.3,2.9-1.1,4.1
	c-0.8,1.2-1.9,2.1-3.2,2.6l5.2,9.9v0.3h-5.3L1372.6,91.4z M1368.6,87.4h4c1.1,0.1,2.1-0.3,2.9-1c0.7-0.7,1.1-1.7,1-2.6
	c0-1-0.3-2-1-2.7c-0.8-0.7-1.9-1.1-3-1h-4L1368.6,87.4z"/>
<path class="st0" d="M1393.3,100.6c-2.4,0.1-4.7-0.8-6.4-2.4c-1.7-1.7-2.6-4.1-2.5-6.5v-0.4c0-1.7,0.3-3.3,1-4.8
	c0.7-1.4,1.7-2.5,3-3.3c1.3-0.8,2.8-1.2,4.4-1.1c2.2-0.1,4.3,0.7,5.8,2.3c1.5,1.9,2.3,4.2,2.1,6.6v2h-11.4c0.1,1.1,0.6,2.1,1.4,2.8
	c0.8,0.7,1.9,1.1,3,1.1c1.7,0.1,3.3-0.7,4.3-2l2.4,2.6c-0.7,1-1.8,1.9-2.9,2.4C1396.1,100.4,1394.7,100.6,1393.3,100.6z
	 M1392.7,85.8c-0.9,0-1.7,0.3-2.3,1c-0.6,0.8-1,1.8-1.1,2.8h6.7v-0.4c0-0.9-0.3-1.8-0.9-2.5C1394.5,86.1,1393.6,85.8,1392.7,85.8
	L1392.7,85.8z"/>
<path class="st0" d="M1402.7,91.1c-0.1-2.4,0.5-4.7,1.9-6.7c1.2-1.6,3.1-2.6,5.2-2.5c1.7,0,3.3,0.7,4.3,2v-9.2h4.8v25.5h-4.3
	l-0.2-1.9c-1.1,1.4-2.8,2.3-4.6,2.2c-2,0.1-3.9-0.9-5.1-2.5C1403.2,96.1,1402.5,93.6,1402.7,91.1z M1407.5,91.5
	c-0.1,1.4,0.2,2.7,0.9,3.9c0.5,0.9,1.5,1.4,2.6,1.4c1.3,0.1,2.6-0.7,3.1-1.9v-7.1c-0.5-1.2-1.8-2-3.1-1.9
	C1408.6,85.8,1407.4,87.7,1407.5,91.5L1407.5,91.5z"/>
<path class="st0" d="M1433.3,98.4c-1.2,1.4-3,2.2-4.9,2.1c-1.6,0.1-3.3-0.5-4.4-1.7c-1.1-1.4-1.7-3.1-1.6-4.9V82.3h4.8v11.6
	c0,1.9,0.8,2.8,2.6,2.8c1.4,0.1,2.7-0.5,3.4-1.7V82.3h4.8v18h-4.5L1433.3,98.4z"/>
<path class="st0" d="M1449.1,96.7c0.8,0,1.6-0.2,2.2-0.7c0.6-0.5,0.9-1.2,0.9-1.9h4.5c0,1.2-0.3,2.4-1,3.4c-0.7,1-1.6,1.8-2.7,2.4
	c-1.2,0.6-2.5,0.9-3.8,0.8c-2.3,0.1-4.5-0.8-6.1-2.5c-1.6-1.9-2.4-4.3-2.2-6.8V91c-0.1-2.4,0.7-4.8,2.2-6.6c1.6-1.7,3.8-2.6,6.1-2.5
	c2-0.1,3.9,0.6,5.4,1.9c1.4,1.3,2.1,3.2,2.1,5.1h-4.5c0-0.8-0.3-1.7-0.9-2.3c-1.3-1.2-3.3-1.2-4.5,0.1c-0.1,0.1-0.1,0.2-0.2,0.2
	c-0.7,1.2-1,2.6-0.8,4v0.5c-0.1,1.4,0.2,2.8,0.8,4C1447.1,96.4,1448.1,96.8,1449.1,96.7z"/>
<path class="st0" d="M1467.6,100.6c-2.4,0.1-4.7-0.8-6.4-2.4c-1.7-1.7-2.6-4.1-2.5-6.5v-0.4c0-1.7,0.3-3.3,1-4.8
	c0.7-1.4,1.7-2.5,3-3.3c1.3-0.8,2.8-1.2,4.4-1.1c2.2-0.1,4.3,0.7,5.8,2.3c1.5,1.8,2.3,4.2,2.1,6.6v2h-11.4c0.1,1.1,0.6,2.1,1.4,2.8
	c0.8,0.7,1.9,1.1,3,1.1c1.7,0.1,3.3-0.7,4.3-2l2.3,2.6c-0.7,1-1.8,1.9-2.9,2.4C1470.4,100.4,1469,100.6,1467.6,100.6z M1467,85.8
	c-0.9,0-1.7,0.3-2.3,1c-0.7,0.8-1,1.8-1.1,2.8h6.7v-0.4c0-0.9-0.3-1.8-0.9-2.5C1468.8,86.1,1467.9,85.8,1467,85.8L1467,85.8z"/>
<path class="st0" d="M1363.4,133c-0.1,2.4-1.1,4.6-2.9,6.1c-1.9,1.6-4.4,2.4-6.8,2.2c-2.8,0.1-5.5-1-7.3-3.1c-1.8-2.1-2.7-5-2.7-8.6
	v-1.5c0-2.1,0.4-4.2,1.2-6.1c0.7-1.7,2-3.1,3.5-4.1c3.8-2.1,8.5-1.8,12,0.8c1.8,1.6,2.9,3.9,3,6.3h-5c0-1.3-0.5-2.5-1.3-3.4
	c-1-0.8-2.2-1.2-3.4-1.1c-1.5-0.1-2.9,0.6-3.7,1.8c-1,1.7-1.4,3.6-1.3,5.5v1.8c0,2.6,0.4,4.5,1.2,5.7c0.8,1.2,2.3,1.9,3.8,1.8
	c1.2,0.1,2.5-0.3,3.4-1c0.8-0.9,1.3-2,1.3-3.3L1363.4,133z"/>
<path class="st0" d="M1365.6,131.9c0-1.6,0.3-3.3,1-4.8c0.7-1.4,1.7-2.5,3-3.2c1.4-0.8,2.9-1.2,4.5-1.1c2.2-0.1,4.3,0.7,5.9,2.2
	c1.6,1.6,2.5,3.7,2.6,6v1.2c0.1,2.4-0.7,4.8-2.3,6.6c-3.5,3.3-8.9,3.3-12.4,0c-1.6-1.9-2.5-4.3-2.3-6.8L1365.6,131.9z M1370.4,132.2
	c-0.1,1.4,0.3,2.7,1,3.9c1.2,1.5,3.4,1.8,4.9,0.6c0.2-0.2,0.4-0.4,0.6-0.6c0.8-1.3,1.1-2.8,1-4.3c0.1-1.4-0.3-2.7-1-3.9
	c-0.6-0.9-1.7-1.4-2.8-1.4c-1.1,0-2.1,0.5-2.7,1.4C1370.6,129.3,1370.3,130.8,1370.4,132.2L1370.4,132.2z"/>
<path class="st0" d="M1395.3,136.1c0-0.6-0.3-1.1-0.9-1.4c-0.9-0.4-1.8-0.7-2.8-0.9c-4.3-0.9-6.4-2.7-6.4-5.5c0-1.6,0.7-3.1,2-4
	c1.5-1.1,3.3-1.7,5.2-1.6c2-0.1,3.9,0.5,5.5,1.6c1.3,1,2.1,2.5,2,4.2h-4.8c0-0.6-0.2-1.2-0.7-1.7c-0.6-0.5-1.3-0.7-2.1-0.7
	c-0.7,0-1.3,0.1-1.9,0.5c-0.4,0.3-0.7,0.9-0.7,1.4c0,0.5,0.3,1,0.8,1.3c0.8,0.4,1.7,0.7,2.6,0.9c1,0.2,2,0.5,3,0.8
	c2.5,0.9,3.8,2.5,3.8,4.8c0,1.6-0.8,3.1-2.1,4c-1.6,1.1-3.5,1.6-5.4,1.5c-1.4,0-2.7-0.2-4-0.8c-1.1-0.5-2-1.2-2.8-2.2
	c-0.6-0.9-1-1.9-1-3h4.6c0,0.8,0.4,1.5,1,2c0.7,0.5,1.5,0.7,2.4,0.7c0.7,0.1,1.5-0.1,2.1-0.5
	C1395.1,137.2,1395.3,136.7,1395.3,136.1z"/>
<path class="st0" d="M1408.8,118.7v4.4h3.1v3.5h-3.1v9c0,0.5,0.1,1,0.4,1.4c0.4,0.3,0.9,0.5,1.5,0.4c0.5,0,1-0.1,1.5-0.2v3.6
	c-0.9,0.3-1.9,0.4-2.9,0.4c-3.3,0-5-1.7-5.2-5.1v-9.7h-2.6V123h2.6v-4.4L1408.8,118.7z"/>
<path class="st0" d="M1424.3,136.1c0-0.6-0.3-1.1-0.9-1.4c-0.9-0.4-1.8-0.7-2.8-0.9c-4.3-0.9-6.4-2.7-6.4-5.5c0-1.6,0.7-3.1,2-4
	c1.5-1.1,3.3-1.7,5.2-1.6c2-0.1,3.9,0.5,5.5,1.6c1.3,1,2.1,2.5,2,4.2h-4.8c0-0.6-0.2-1.2-0.7-1.7c-0.6-0.5-1.3-0.7-2.1-0.7
	c-0.7,0-1.3,0.1-1.9,0.5c-0.4,0.3-0.7,0.9-0.7,1.4c0,0.5,0.3,1,0.8,1.3c0.8,0.4,1.7,0.7,2.6,0.9c1,0.2,2,0.5,3,0.8
	c2.5,0.9,3.8,2.5,3.8,4.8c0,1.6-0.8,3.1-2.1,4c-1.6,1.1-3.5,1.6-5.4,1.5c-1.4,0-2.7-0.2-4-0.8c-1.1-0.5-2-1.2-2.8-2.2
	c-0.6-0.9-1-1.9-1-3h4.6c0,0.8,0.4,1.5,1,2c0.7,0.5,1.5,0.7,2.3,0.7c0.7,0.1,1.5-0.1,2.1-0.5
	C1424.1,137.2,1424.3,136.6,1424.3,136.1z"/>
<path class="st0" d="M1450.9,141c-0.2-0.5-0.4-1.1-0.5-1.6c-1.1,1.3-2.8,2-4.5,1.9c-1.6,0.1-3.2-0.5-4.4-1.5c-1.1-1-1.8-2.4-1.7-3.9
	c-0.1-1.7,0.7-3.4,2.1-4.4c1.8-1.1,4-1.7,6.1-1.5h2.2v-1c0-0.7-0.2-1.4-0.6-2c-0.5-0.5-1.3-0.8-2-0.8c-0.7,0-1.4,0.2-1.9,0.6
	c-0.5,0.4-0.7,1-0.7,1.6h-4.8c0-1,0.4-2.1,1-2.9c0.7-0.9,1.6-1.6,2.7-2.1c1.3-0.5,2.6-0.8,4-0.8c1.9-0.1,3.8,0.5,5.3,1.7
	c1.3,1.2,2.1,2.9,2,4.7v7.8c-0.1,1.3,0.2,2.7,0.7,3.9v0.3L1450.9,141z M1446.9,137.7c0.7,0,1.4-0.1,2-0.5c0.6-0.3,1-0.7,1.3-1.3
	v-3.1h-1.8c-2.4,0-3.7,0.8-3.8,2.5v0.3c0,0.6,0.2,1.1,0.6,1.5C1445.7,137.5,1446.3,137.7,1446.9,137.7L1446.9,137.7z"/>
<path class="st0" d="M1463.1,123.1l0.2,2.1c1.2-1.6,3.2-2.5,5.2-2.4c1.6-0.1,3.2,0.5,4.2,1.7c1,1.5,1.5,3.2,1.4,5V141h-4.8v-11.5
	c0.1-0.8-0.2-1.6-0.7-2.2c-0.6-0.5-1.4-0.8-2.2-0.7c-1.2,0-2.4,0.6-3,1.7V141h-4.8v-18L1463.1,123.1z"/>
<path class="st0" d="M1477,131.9c-0.1-2.4,0.5-4.7,1.9-6.7c1.2-1.6,3.1-2.6,5.2-2.5c1.7,0,3.3,0.7,4.3,2v-9.2h4.8v25.5h-4.3
	l-0.2-1.9c-1.1,1.4-2.8,2.3-4.6,2.2c-2,0.1-3.9-0.9-5.1-2.5C1477.5,136.9,1476.9,134.4,1477,131.9z M1481.8,132.3
	c-0.1,1.4,0.2,2.7,0.9,3.9c0.5,0.9,1.5,1.4,2.6,1.3c1.3,0.1,2.6-0.7,3.1-1.9v-7.1c-0.5-1.2-1.8-2-3.1-1.9
	C1483,126.6,1481.8,128.5,1481.8,132.3L1481.8,132.3z"/>
<path class="st0" d="M1380.7,161.7h-7.4v20.1h-5v-20.1h-7.2v-4h19.7L1380.7,161.7z"/>
<path class="st0" d="M1383.2,159.3c0-0.7,0.2-1.3,0.7-1.8c0.5-0.5,1.3-0.7,2-0.7c0.7,0,1.5,0.2,2,0.7c0.5,0.5,0.8,1.1,0.7,1.8
	c0,0.7-0.2,1.3-0.7,1.8c-1.1,0.9-2.8,0.9-3.9,0C1383.5,160.6,1383.2,160,1383.2,159.3z M1388.3,181.9h-4.8v-18h4.8V181.9z"/>
<path class="st0" d="M1396.8,163.9l0.2,2c1.3-1.6,3.2-2.4,5.2-2.3c2-0.2,3.9,0.9,4.8,2.7c1.2-1.8,3.2-2.8,5.4-2.7
	c1.6-0.1,3.2,0.5,4.3,1.7c1.1,1.5,1.6,3.3,1.4,5.1v11.5h-4.8v-11.4c0.1-0.8-0.1-1.6-0.6-2.2c-0.6-0.5-1.3-0.8-2.1-0.7
	c-1.3-0.1-2.6,0.8-3,2.1v12.3h-4.8v-11.4c0.1-0.8-0.1-1.6-0.6-2.2c-0.6-0.5-1.3-0.8-2.1-0.7c-1.2-0.1-2.4,0.6-3,1.7v12.7h-4.8v-18
	L1396.8,163.9z"/>
<path class="st0" d="M1430,182.2c-2.4,0.1-4.7-0.8-6.4-2.4c-1.7-1.7-2.6-4.1-2.5-6.5v-0.5c0-1.7,0.3-3.3,1-4.8
	c0.7-1.4,1.7-2.5,3-3.3c1.3-0.8,2.8-1.2,4.4-1.1c2.2-0.1,4.3,0.7,5.8,2.3c1.5,1.8,2.3,4.2,2.1,6.6v2h-11.4c0.1,1.1,0.6,2.1,1.4,2.8
	c0.8,0.7,1.9,1.1,3,1.1c1.7,0.1,3.3-0.7,4.3-2l2.4,2.6c-0.7,1-1.8,1.9-2.9,2.4C1432.8,181.9,1431.4,182.2,1430,182.2z M1429.4,167.4
	c-0.9,0-1.7,0.3-2.3,1c-0.6,0.8-1,1.8-1.1,2.8h6.7v-0.4c0-0.9-0.3-1.8-0.9-2.5C1431.2,167.7,1430.3,167.4,1429.4,167.4L1429.4,167.4
	z"/>
<path class="st0" d="M1454.3,159.5v4.4h3.1v3.5h-3.1v9c0,0.5,0.1,1,0.4,1.4c0.4,0.3,0.9,0.5,1.5,0.4c0.5,0,0.9,0,1.4-0.1v3.6
	c-0.9,0.3-1.9,0.4-2.9,0.4c-3.4,0-5.1-1.7-5.1-5.1v-9.7h-2.6v-3.5h2.6v-4.4L1454.3,159.5z"/>
<path class="st0" d="M1458.8,172.7c0-1.6,0.3-3.3,1-4.8c0.7-1.4,1.7-2.5,3-3.2c1.4-0.8,2.9-1.2,4.5-1.1c2.2-0.1,4.3,0.7,5.9,2.2
	c1.6,1.6,2.5,3.7,2.6,6v1.2c0.1,2.4-0.7,4.8-2.3,6.6c-3.5,3.3-8.9,3.3-12.4,0c-1.6-1.9-2.5-4.3-2.3-6.8L1458.8,172.7z M1463.6,173
	c-0.1,1.4,0.3,2.7,1,3.9c1.2,1.5,3.3,1.8,4.9,0.6c0.2-0.2,0.4-0.4,0.6-0.6c0.8-1.3,1.1-2.8,1-4.3c0.1-1.4-0.3-2.7-1-3.9
	c-0.6-0.9-1.7-1.4-2.8-1.4c-1.1,0-2.1,0.5-2.7,1.4C1463.8,170.1,1463.5,171.5,1463.6,173z"/>
<path class="st0" d="M1373.3,198.5l6.2,17.5l6.2-17.5h6.5v24.2h-5V216l0.5-11.4l-6.5,18h-3.4l-6.5-18l0.5,11.4v6.6h-5v-24.2H1373.3z
	"/>
<path class="st0" d="M1406.6,222.6c-0.2-0.5-0.4-1.1-0.5-1.6c-1.1,1.3-2.8,2-4.5,1.9c-1.6,0.1-3.2-0.5-4.4-1.5
	c-1.1-1-1.8-2.4-1.7-3.9c-0.1-1.7,0.7-3.4,2.1-4.4c1.8-1.1,4-1.7,6.1-1.5h2.2v-1c0-0.7-0.2-1.4-0.6-2c-0.5-0.5-1.3-0.8-2-0.8
	c-0.7,0-1.4,0.2-1.9,0.6c-0.5,0.4-0.7,1-0.7,1.6h-4.8c0-1,0.4-2.1,1-2.9c0.7-0.9,1.6-1.7,2.7-2.1c1.3-0.5,2.6-0.8,4-0.8
	c1.9-0.1,3.8,0.5,5.3,1.7c1.4,1.2,2.1,2.9,2,4.7v7.8c-0.1,1.3,0.2,2.7,0.7,3.9v0.3L1406.6,222.6z M1402.6,219.3c0.7,0,1.4-0.1,2-0.5
	c0.6-0.3,1-0.7,1.3-1.3v-3.1h-1.8c-2.4,0-3.7,0.8-3.8,2.5v0.3c0,0.6,0.2,1.1,0.6,1.5C1401.4,219.1,1402.1,219.3,1402.6,219.3
	L1402.6,219.3z"/>
<path class="st0" d="M1424.5,209.2c-0.6-0.1-1.1-0.1-1.7-0.1c-1.8,0-3,0.6-3.6,1.9v11.8h-4.8v-18h4.5l0.1,2.1c0.8-1.5,2.3-2.5,4-2.5
	c0.5,0,1,0.1,1.5,0.2L1424.5,209.2z"/>
<path class="st0" d="M1433.4,215.4l-1.7,1.7v5.5h-4.8v-25.5h4.8v14.1l0.9-1.2l4.6-5.4h5.8l-6.5,7.5l7.1,10.5h-5.5L1433.4,215.4z"/>
<path class="st0" d="M1453,223c-2.4,0.1-4.7-0.8-6.4-2.4c-1.7-1.7-2.6-4.1-2.5-6.5v-0.5c0-1.7,0.3-3.3,1-4.8c0.7-1.4,1.7-2.5,3-3.3
	c1.3-0.8,2.8-1.2,4.4-1.1c2.2-0.1,4.3,0.7,5.8,2.3c1.5,1.8,2.3,4.2,2.1,6.6v2h-11.4c0.1,1.1,0.6,2.1,1.4,2.8c0.8,0.7,1.9,1.1,3,1.1
	c1.7,0.1,3.3-0.7,4.3-2l2.4,2.6c-0.8,1-1.8,1.9-2.9,2.4C1455.8,222.7,1454.4,223,1453,223z M1452.4,208.2c-0.9,0-1.7,0.3-2.3,1
	c-0.7,0.8-1.1,1.8-1.1,2.8h6.7v-0.4c0-0.9-0.3-1.8-0.9-2.5C1454.1,208.5,1453.3,208.2,1452.4,208.2z"/>
<path class="st0" d="M1468.8,200.3v4.4h3.1v3.5h-3.1v9c0,0.5,0.1,1,0.4,1.4c0.4,0.3,0.9,0.5,1.5,0.4c0.5,0,0.9,0,1.4-0.1v3.6
	c-0.9,0.3-1.9,0.4-2.9,0.4c-3.4,0-5.1-1.7-5.1-5.1v-9.7h-2.6v-3.5h2.6v-4.5H1468.8z"/>
<polygon class="st1" points="334.6,168.3 168.3,2 2,168.3 62.7,168.3 62.7,410.5 273.9,410.5 273.9,168.3 "/>
<polygon class="st1" points="747.4,168.3 581.1,2 414.9,168.3 475.5,168.3 475.5,410.5 686.7,410.5 686.7,168.3 "/>
<polygon class="st1" points="1160.3,168.3 994,2 827.7,168.3 888.4,168.3 888.4,410.5 1099.6,410.5 1099.6,168.3 "/>
<polygon class="st2" points="1252.4,244.2 1418.7,410.5 1585,244.2 1524.3,244.2 1524.3,2 1313.1,2 1313.1,244.2 "/>
<path class="st3" d="M591.7,286.7h-46.6v-12.7c0-2.3,1.9-4.2,4.2-4.2h38.1c2.3,0,4.2,1.9,4.2,4.2L591.7,286.7z"/>
<path class="st3" d="M579,269.7h-21.2v-2.1c0-5.9,4.7-10.6,10.6-10.6l0,0c5.9,0,10.6,4.7,10.6,10.6V269.7z"/>
<line class="st4" x1="545.5" y1="301" x2="591" y2="301"/>
<line class="st4" x1="545.5" y1="318.9" x2="590.8" y2="318.9"/>
<line class="st4" x1="545.5" y1="336.7" x2="582.5" y2="336.7"/>
<line class="st4" x1="545.5" y1="354.4" x2="582.5" y2="354.4"/>
<circle class="st5" cx="627.2" cy="347.9" r="32"/>
<path class="st6" d="M593.6,283.4v5.2h-50.5v-5.2h-9.8v87.1h61.2c-12.1-17.5-8.2-41.5,8.9-54.3v-32.8H593.6z"/>
<path class="st6" d="M593.6,275.9v5.6h11.7v33.3c1.8-1.1,3.6-2.2,5.6-3v-35.9H593.6z"/>
<path class="st6" d="M531.4,281.4h11.7v-5.6h-17.3v102.1h75.5c-1.9-1.7-3.7-3.5-5.3-5.6h-64.6V281.4z"/>
<path class="st7" d="M593.6,281.4v1.9h9.8v32.8c0.6-0.5,1.3-1,1.9-1.4v-33.3H593.6z"/>
<path class="st7" d="M533.3,283.4h9.8v-1.9h-11.7v90.9H596c-0.5-0.6-1-1.3-1.5-1.9h-61.2V283.4z"/>
<path class="st8" d="M589.7,272v12.7H547V272h-25.1v109.8h84.7c-1.9-1.1-3.7-2.4-5.3-3.9h-75.5V275.9h17.3v12.7h50.5v-12.7h17.3
	v35.8c1.3-0.6,2.6-1.1,3.9-1.5V272H589.7z"/>
<polyline class="st9" points="609.3,353 621.2,363.4 641.8,332.5 "/>
<text transform="matrix(1 0 0 1 96.49 299.04)" class="st10 st11 st12">0111011011000</text>
<text transform="matrix(1 0 0 1 96.49 315.11)" class="st10 st11 st12">0101110010011</text>
<text transform="matrix(1 0 0 1 96.49 331.18)" class="st10 st11 st12">0111001101001</text>
<text transform="matrix(1 0 0 1 96.49 347.25)" class="st10 st11 st12">0110111001100</text>
<text transform="matrix(1 0 0 1 96.49 363.33)" class="st10 st11 st12">1111110011001</text>
<polygon class="st13" points="188.4,298.9 193.6,293.2 186.6,290 189.3,282.7 181.6,282.4 181.3,274.7 174,277.4 170.8,270.3 
	165.1,275.6 159.4,270.3 156.2,277.4 149,274.7 148.7,282.4 140.9,282.7 143.6,290 136.6,293.2 141.8,298.9 136.6,304.5 
	143.6,307.8 140.9,315 144.2,315.1 144.2,381.1 165,365 186,381.1 186,315.1 189.3,315 186.6,307.8 193.6,304.5 "/>
<polygon class="st14" points="186,381.1 165,365 144.2,381.1 144.2,302.6 186,302.6 "/>
<polygon class="st15" points="165.1,275.6 170.8,270.3 174,277.4 181.3,274.7 181.6,282.4 189.3,282.7 186.6,290 193.6,293.2 
	188.4,298.9 193.6,304.5 186.6,307.8 189.3,315 181.6,315.3 181.3,323.1 174,320.4 170.8,327.4 165.1,322.1 159.4,327.4 
	156.2,320.4 149,323.1 148.7,315.3 140.9,315 143.6,307.8 136.6,304.5 141.8,298.9 136.6,293.2 143.6,290 140.9,282.7 148.7,282.4 
	149,274.7 156.2,277.4 159.4,270.3 "/>
<line class="st16" x1="1009.1" y1="369.6" x2="1009.1" y2="370.5"/>
<line class="st16" x1="968.6" y1="330" x2="969.5" y2="330"/>
<line class="st16" x1="1048.7" y1="330" x2="1049.5" y2="330"/>
<line class="st17" x1="1013.2" y1="325.9" x2="1028.8" y2="310.3"/>
<line class="st16" x1="980.5" y1="301.4" x2="981.1" y2="302"/>
<line class="st16" x1="1037.1" y1="358" x2="1037.7" y2="358.6"/>
<line class="st16" x1="980.5" y1="358.6" x2="981.1" y2="358"/>
<path class="st16" d="M1037.7,301.4c-7.6-7.6-17.9-11.9-28.6-11.8"/>
<path class="st17" d="M1014.9,330c0-3.2-2.6-5.8-5.8-5.8c-3.2,0-5.8,2.6-5.8,5.8c0,3.2,2.6,5.8,5.8,5.8c0,0,0,0,0,0
	C1012.3,335.8,1014.8,333.2,1014.9,330z"/>
<line class="st18" x1="971.2" y1="292.2" x2="965.2" y2="286.4"/>
<line class="st18" x1="961.8" y1="289.9" x2="968.6" y2="282.9"/>
<line class="st18" x1="1046.9" y1="292.2" x2="1052.9" y2="286.4"/>
<line class="st18" x1="1056.3" y1="289.9" x2="1049.5" y2="282.9"/>
<path class="st18" d="M1017.5,261.9h-16.8c-2,0-3.6,1.6-3.6,3.6l0,0l0,0c0,2,1.6,3.6,3.6,3.6c0,0,0,0,0,0h16.8c2,0,3.6-1.6,3.6-3.6
	c0,0,0,0,0,0l0,0C1021,263.5,1019.4,261.9,1017.5,261.9z"/>
<line class="st18" x1="1009.1" y1="276.5" x2="1009.1" y2="269"/>
<path class="st19" d="M933,310.2h26.4c11-27.4,42.1-40.8,69.5-29.8c27.4,11,40.8,42.1,29.8,69.5s-42.1,40.8-69.5,29.8
	c-13.6-5.4-24.4-16.2-29.8-29.8h-7.5"/>
<line class="st17" x1="945.3" y1="322.7" x2="958" y2="322.7"/>
<line class="st17" x1="940.2" y1="335.8" x2="958" y2="335.8"/>
<line class="st20" x1="919.7" y1="322.7" x2="937.8" y2="322.7"/>
<line class="st20" x1="938.8" y1="349.8" x2="923.7" y2="349.8"/>
<path class="st21" d="M1428.3,344.5L1428.3,344.5c-4.9-0.2-15.3-4.1-27.3-8.8c-3.9-1.5-7.3-2.9-8.7-3.2c-1.1-0.3-1.7-1.5-1.4-2.6
	c0.3-1.1,1.5-1.7,2.6-1.4c1.6,0.5,4.9,1.7,9.1,3.4c8.5,3.3,21.3,8.3,25.8,8.5h0.1c6.4,0,35-15.9,39.9-24.7c1.1-1.9,0.9-2.6,0.9-2.6
	c-2.4-1.9-21.5,5.8-24.6,8.1c-0.9,0.7-2.2,0.5-2.9-0.4c-0.7-0.9-0.5-2.2,0.3-2.9c0.9-0.7,24.2-12.9,30-8c1.3,1.1,2.4,3.3,0,7.7
	C1466.1,328.1,1436.1,344.5,1428.3,344.5z"/>
<path class="st21" d="M1435,327.8c-1.2,0-2.4-0.1-3.6-0.3l-3.1-0.6c-5.4-1-10.7-2.3-15.9-3.8c-1.1-0.3-1.7-1.5-1.4-2.6
	s1.5-1.7,2.6-1.4l0,0c5.1,1.5,10.3,2.8,15.5,3.7l3.1,0.6c5.3,1,8.8-1,9.1-2.3c0.2-1-1.3-3-6.4-4.5c-6.5-2-12.6-5.3-18-9.5
	c-2.7-2-4.8-3.5-7.1-4.3c-6-1.8-15.2,0.8-21.2,4c-1,0.6-2.3,0.2-2.8-0.8c-0.6-1-0.2-2.3,0.8-2.8c7-3.8,17.2-6.5,24.4-4.3
	c3.1,1,5.5,2.8,8.3,4.9c5,4,10.7,7,16.8,8.9c10,3,9.6,8,9.3,9.5C1444.4,325.6,1440.2,327.8,1435,327.8z"/>
<path class="st22" d="M1421.9,282.1c-4.4,0-8.4-2.7-10-6.8c-2.2-5.4,0.4-11.6,5.8-13.8c0.1,0,0.2-0.1,0.2-0.1c2.6-1.1,5.4-1.1,8,0
	c5.5,2.3,8.1,8.5,5.8,14c-1.1,2.7-3.3,4.8-5.9,5.9C1424.6,281.8,1423.3,282,1421.9,282.1z M1421.9,264.7c-0.8,0-1.6,0.2-2.4,0.5
	h-0.1c-1.6,0.6-3,1.9-3.7,3.5c-0.7,1.6-0.7,3.4,0,5.1c1.3,3.4,5.2,5,8.5,3.7s5-5.2,3.7-8.5c-0.7-1.7-2-3-3.6-3.7
	C1423.6,264.9,1422.8,264.7,1421.9,264.7L1421.9,264.7z"/>
<path class="st22" d="M1442.3,305.2c-3,0-5.9-1.3-7.9-3.5c-1.9-2.1-2.9-4.8-2.8-7.6c0.3-5.9,5.3-10.5,11.2-10.2
	c2.8,0.1,5.5,1.4,7.4,3.5l0,0c4,4.4,3.6,11.1-0.7,15.1C1447.5,304.2,1444.9,305.2,1442.3,305.2L1442.3,305.2z M1442.3,287.9
	c-1.6,0-3.2,0.6-4.3,1.7c-1.3,1.2-2.1,2.8-2.2,4.6c-0.1,1.7,0.5,3.4,1.7,4.6c2.3,2.8,6.5,3.1,9.2,0.8c2.8-2.3,3.1-6.5,0.8-9.2
	c-0.1-0.1-0.2-0.2-0.3-0.3C1445.9,288.7,1444.1,287.9,1442.3,287.9L1442.3,287.9z"/>
<path class="st22" d="M1449.6,268.5c-0.6,0-1.3-0.1-1.9-0.2c-5.8-1.1-9.7-6.6-8.7-12.4c1-5.9,6.6-9.8,12.4-8.8
	c2.8,0.5,5.3,2,6.9,4.4l0,0c3.4,4.9,2.3,11.6-2.6,15c0,0,0,0,0,0C1453.9,267.8,1451.8,268.5,1449.6,268.5z M1449.6,251.1
	c-3.2,0-6,2.3-6.5,5.5c-0.6,3.6,1.8,6.9,5.4,7.6c1.7,0.3,3.5-0.1,4.9-1.1c3-2,3.8-6.1,1.7-9.1
	C1453.9,252.1,1451.8,251.1,1449.6,251.1L1449.6,251.1z"/>
<path class="st23" d="M1375.2,340.4c-1,0-1.8-0.7-2-1.7l-7.2-34c-0.2-1.1,0.5-2.2,1.6-2.5l11.6-2.4c1.1-0.2,2.2,0.5,2.5,1.6l7.2,34
	c0.1,0.5,0,1.1-0.3,1.6c-0.3,0.5-0.8,0.8-1.3,0.9l-11.6,2.4C1375.5,340.4,1375.3,340.4,1375.2,340.4z M1370.4,305.9l6.3,30l7.5-1.6
	l-6.3-30L1370.4,305.9z"/>
</svg>
