<?xml version="1.0" encoding="utf-8"?>
<!-- Generator: Adobe Illustrator 23.0.4, SVG Export Plug-In . SVG Version: 6.00 Build 0)  -->
<svg version="1.1" id="Layer_1" xmlns="http://www.w3.org/2000/svg" xmlns:xlink="http://www.w3.org/1999/xlink" x="0px" y="0px"
	 viewBox="0 0 1600 960" style="enable-background:new 0 0 1600 960;" xml:space="preserve">
<style type="text/css">
	.st0{fill:#8347AD;}
	.st1{fill:#E17727;}
</style>
<g>
	<g>
		<path class="st0" d="M982.4,804.6H618.5l17.4-17.1c2-2,50.2-47.9,164.5-47.9s162.5,45.9,164.5,47.9L982.4,804.6z M676.8,784.6
			h247.3c-23.7-11.7-64-25.1-123.7-25.1C740.7,759.6,700.5,772.9,676.8,784.6z"/>
		<path class="st0" d="M1125.8,669.6h-649c-19,0-34-14.3-34-32.5v-450c0-17.9,14.6-32.5,32.5-32.5h649.1c17.9,0,32.5,14.6,32.5,32.5
			v450C1156.7,654.7,1142.6,669.6,1125.8,669.6z M475.2,174.5c-6.9,0-12.5,5.6-12.5,12.5v450c0,7.3,5.9,12.5,14,12.5h649
			c5.2,0,11-5.4,11-12.5v-450c0-6.9-5.6-12.5-12.5-12.5H475.2z"/>
		<polygon class="st0" points="889.2,758.2 869.2,758.2 869.2,669.6 731.6,669.6 731.6,758.2 711.7,758.2 711.7,649.6 889.2,649.6 
					"/>
		<rect x="765.2" y="276.4" class="st0" width="286.9" height="19.9"/>
		<rect x="765.2" y="365.9" class="st0" width="286.9" height="19.9"/>
		<rect x="562.5" y="455.4" class="st0" width="489.6" height="19.9"/>
		<rect x="562.5" y="544.8" class="st0" width="489.6" height="19.9"/>
		<path class="st1" d="M1108.2,619.5H492.7v-415h615.5V619.5z M502.7,609.6h595.6V214.5H502.7V609.6z"/>
	</g>
	<g>
		<path class="st1" d="M647,422.9c-20.5,0-40.5-7.3-56.2-20.5l-4-3.4l4.2-3.2c8-6,19.5-10.5,33.1-12.9c0-2.5,0-5,0-7.7
			c0-2-1.4-4.7-2.9-7.6c-1.9-3.7-4.1-7.9-4.6-12.8c-2.5-5.3-3.8-10.5-3.8-14.7c0-2.5,0.5-4.5,1.4-6.3l-1.4-8
			c-2.6-14.5,2.3-24.6,15-30.9c0.1-1,0.2-2.7,0.3-3.8c0.2-4.3,0.4-7.7,3.6-9l2.5-1l2.6,2.1c4.3,4.2,15.9,7.1,22.1,8.7
			c2.3,0.6,4.2,1.1,5.3,1.5l0,0c13.8,4.9,19.8,16.4,17,32.3l-1.4,8c1,1.7,1.4,3.8,1.4,6.3c0,4.2-1.4,9.4-3.8,14.7
			c-0.5,5-2.7,9.3-4.7,13.1c-1.4,2.8-2.8,5.5-2.8,7.3c0,2.7,0,5.2-0.1,7.6c13.7,2.5,25.2,6.9,33.2,13l4.2,3.2l-4,3.4
			C687.5,415.6,667.5,422.9,647,422.9z M600.7,399.5c26.9,19.4,65.8,19.4,92.6,0c-6.6-3.7-15.2-6.6-24.9-8.3c-4.2-0.8-7.2-4.4-7-8.7
			c0.1-2.3,0.1-4.7,0.1-7.2c0-3.8,1.8-7.4,3.8-11.1c1.8-3.5,3.6-7,3.8-10.6l0.4-1.6c2.1-4.4,3.3-8.7,3.3-11.8c0-1.3-0.2-2-0.5-2.3
			l-1.6-1.6l2.1-11.9c2.1-11.8-1.8-19.5-11.5-22.9h0c-0.9-0.3-2.5-0.7-4.5-1.2c-5.9-1.5-14.2-3.6-20.4-7c-0.2,4.1-0.7,7.5-3.7,8.8
			c-10.2,4.6-13.6,11.1-11.5,22.4l2.1,11.9l-1.6,1.6c-0.2,0.2-0.5,0.9-0.5,2.3c0,3.1,1.2,7.4,3.3,11.8l0.4,1.6
			c0.2,3.4,2,6.9,3.7,10.2c1.9,3.6,3.9,7.4,3.9,11.5c0,2.6,0,5,0.1,7.3c0.2,4.2-2.8,7.9-7,8.7C615.9,392.9,607.3,395.8,600.7,399.5z
			"/>
		<path class="st0" d="M647,422.9c-48.3,0-87.6-39.3-87.6-87.6s39.3-87.6,87.6-87.6c48.3,0,87.6,39.3,87.6,87.6
			S695.3,422.9,647,422.9z M647,256.1c-43.7,0-79.2,35.5-79.2,79.2c0,43.7,35.5,79.2,79.2,79.2c43.7,0,79.2-35.5,79.2-79.2
			C726.3,291.6,690.7,256.1,647,256.1z"/>
	</g>
</g>
</svg>
