<?xml version="1.0" encoding="utf-8"?>
<!-- Generator: Adobe Illustrator 22.0.1, SVG Export Plug-In . SVG Version: 6.00 Build 0)  -->
<svg version="1.1" id="Layer_1" xmlns="http://www.w3.org/2000/svg" xmlns:xlink="http://www.w3.org/1999/xlink" x="0px" y="0px"
	 viewBox="0 0 1600 960" style="enable-background:new 0 0 1600 960;" xml:space="preserve">
<style type="text/css">
	.st0{fill:#5AC5F1;}
	.st1{fill:#80549C;}
	.st2{fill:#FAAE1C;}
</style>
<g>
	<path class="st0" d="M1023,805.7c-6,0-10.9-4.9-10.9-10.9v-57.5c0-6,4.9-10.9,10.9-10.9s10.9,4.9,10.9,10.9v57.5
		C1033.9,800.8,1029,805.7,1023,805.7z"/>
	<path class="st0" d="M980.9,805.7c-6,0-10.9-4.9-10.9-10.9v-57.5c0-6,4.9-10.9,10.9-10.9s10.9,4.9,10.9,10.9v57.5
		C991.8,800.8,986.9,805.7,980.9,805.7z"/>
	<path class="st0" d="M934.9,805.7c-6,0-10.9-4.9-10.9-10.9v-57.5c0-6,4.9-10.9,10.9-10.9s10.9,4.9,10.9,10.9v57.5
		C945.8,800.8,940.9,805.7,934.9,805.7z"/>
	<path class="st0" d="M888.9,805.7c-6,0-10.9-4.9-10.9-10.9v-57.5c0-6,4.9-10.9,10.9-10.9c6,0,10.9,4.9,10.9,10.9v57.5
		C899.8,800.8,895,805.7,888.9,805.7z"/>
	<path class="st0" d="M846.8,805.7c-6,0-10.9-4.9-10.9-10.9v-57.5c0-6,4.9-10.9,10.9-10.9c6,0,10.9,4.9,10.9,10.9v57.5
		C857.7,800.8,852.8,805.7,846.8,805.7z"/>
	<path class="st0" d="M800.8,805.7c-6,0-10.9-4.9-10.9-10.9v-57.5c0-6,4.9-10.9,10.9-10.9s10.9,4.9,10.9,10.9v57.5
		C811.7,800.8,806.9,805.7,800.8,805.7z"/>
	<path class="st0" d="M754.9,805.7c-6,0-10.9-4.9-10.9-10.9v-57.5c0-6,4.9-10.9,10.9-10.9s10.9,4.9,10.9,10.9v57.5
		C765.8,800.8,760.9,805.7,754.9,805.7z"/>
	<path class="st0" d="M712.7,805.7c-6,0-10.9-4.9-10.9-10.9v-57.5c0-6,4.9-10.9,10.9-10.9c6,0,10.9,4.9,10.9,10.9v57.5
		C723.6,800.8,718.8,805.7,712.7,805.7z"/>
	<path class="st0" d="M666.8,805.7c-6,0-10.9-4.9-10.9-10.9v-57.5c0-6,4.9-10.9,10.9-10.9c6,0,10.9,4.9,10.9,10.9v57.5
		C677.7,800.8,672.8,805.7,666.8,805.7z"/>
	<path class="st0" d="M620.8,805.7c-6,0-10.9-4.9-10.9-10.9v-57.5c0-6,4.9-10.9,10.9-10.9s10.9,4.9,10.9,10.9v57.5
		C631.7,800.8,626.8,805.7,620.8,805.7z"/>
	<path class="st0" d="M578.7,805.7c-6,0-10.9-4.9-10.9-10.9v-57.5c0-6,4.9-10.9,10.9-10.9s10.9,4.9,10.9,10.9v57.5
		C589.6,800.8,584.7,805.7,578.7,805.7z"/>
	<path class="st0" d="M1023,235c-6,0-10.9-4.9-10.9-10.9v-57.5c0-6,4.9-10.9,10.9-10.9s10.9,4.9,10.9,10.9v57.5
		C1033.9,230.1,1029,235,1023,235z"/>
	<path class="st0" d="M980.9,235c-6,0-10.9-4.9-10.9-10.9v-57.5c0-6,4.9-10.9,10.9-10.9s10.9,4.9,10.9,10.9v57.5
		C991.8,230.1,986.9,235,980.9,235z"/>
	<path class="st0" d="M934.9,235c-6,0-10.9-4.9-10.9-10.9v-57.5c0-6,4.9-10.9,10.9-10.9s10.9,4.9,10.9,10.9v57.5
		C945.8,230.1,940.9,235,934.9,235z"/>
	<path class="st0" d="M888.9,235c-6,0-10.9-4.9-10.9-10.9v-57.5c0-6,4.9-10.9,10.9-10.9c6,0,10.9,4.9,10.9,10.9v57.5
		C899.8,230.1,895,235,888.9,235z"/>
	<path class="st0" d="M846.8,235c-6,0-10.9-4.9-10.9-10.9v-57.5c0-6,4.9-10.9,10.9-10.9c6,0,10.9,4.9,10.9,10.9v57.5
		C857.7,230.1,852.8,235,846.8,235z"/>
	<path class="st0" d="M800.8,235c-6,0-10.9-4.9-10.9-10.9v-57.5c0-6,4.9-10.9,10.9-10.9s10.9,4.9,10.9,10.9v57.5
		C811.7,230.1,806.9,235,800.8,235z"/>
	<path class="st0" d="M754.9,235c-6,0-10.9-4.9-10.9-10.9v-57.5c0-6,4.9-10.9,10.9-10.9s10.9,4.9,10.9,10.9v57.5
		C765.8,230.1,760.9,235,754.9,235z"/>
	<path class="st0" d="M712.7,235c-6,0-10.9-4.9-10.9-10.9v-57.5c0-6,4.9-10.9,10.9-10.9c6,0,10.9,4.9,10.9,10.9v57.5
		C723.6,230.1,718.8,235,712.7,235z"/>
	<path class="st0" d="M666.8,235c-6,0-10.9-4.9-10.9-10.9v-57.5c0-6,4.9-10.9,10.9-10.9c6,0,10.9,4.9,10.9,10.9v57.5
		C677.7,230.1,672.8,235,666.8,235z"/>
	<path class="st0" d="M620.8,235c-6,0-10.9-4.9-10.9-10.9v-57.5c0-6,4.9-10.9,10.9-10.9s10.9,4.9,10.9,10.9v57.5
		C631.7,230.1,626.8,235,620.8,235z"/>
	<path class="st0" d="M578.7,235c-6,0-10.9-4.9-10.9-10.9v-57.5c0-6,4.9-10.9,10.9-10.9s10.9,4.9,10.9,10.9v57.5
		C589.6,230.1,584.7,235,578.7,235z"/>
	<path class="st0" d="M544.2,713.8h-57.5c-6,0-10.9-4.9-10.9-10.9s4.9-10.9,10.9-10.9h57.5c6,0,10.9,4.9,10.9,10.9
		S550.2,713.8,544.2,713.8z"/>
	<path class="st0" d="M544.2,671.6h-57.5c-6,0-10.9-4.9-10.9-10.9c0-6,4.9-10.9,10.9-10.9h57.5c6,0,10.9,4.9,10.9,10.9
		C555.1,666.8,550.2,671.6,544.2,671.6z"/>
	<path class="st0" d="M544.2,625.7h-57.5c-6,0-10.9-4.9-10.9-10.9c0-6,4.9-10.9,10.9-10.9h57.5c6,0,10.9,4.9,10.9,10.9
		C555.1,620.8,550.2,625.7,544.2,625.7z"/>
	<path class="st0" d="M544.2,579.7h-57.5c-6,0-10.9-4.9-10.9-10.9s4.9-10.9,10.9-10.9h57.5c6,0,10.9,4.9,10.9,10.9
		S550.2,579.7,544.2,579.7z"/>
	<path class="st0" d="M544.2,537.6h-57.5c-6,0-10.9-4.9-10.9-10.9s4.9-10.9,10.9-10.9h57.5c6,0,10.9,4.9,10.9,10.9
		S550.2,537.6,544.2,537.6z"/>
	<path class="st0" d="M544.2,491.6h-57.5c-6,0-10.9-4.9-10.9-10.9c0-6,4.9-10.9,10.9-10.9h57.5c6,0,10.9,4.9,10.9,10.9
		C555.1,486.7,550.2,491.6,544.2,491.6z"/>
	<path class="st0" d="M544.2,445.7h-57.5c-6,0-10.9-4.9-10.9-10.9c0-6,4.9-10.9,10.9-10.9h57.5c6,0,10.9,4.9,10.9,10.9
		C555.1,440.8,550.2,445.7,544.2,445.7z"/>
	<path class="st0" d="M544.2,403.5h-57.5c-6,0-10.9-4.9-10.9-10.9c0-6,4.9-10.9,10.9-10.9h57.5c6,0,10.9,4.9,10.9,10.9
		C555.1,398.6,550.2,403.5,544.2,403.5z"/>
	<path class="st0" d="M544.2,357.6h-57.5c-6,0-10.9-4.9-10.9-10.9c0-6,4.9-10.9,10.9-10.9h57.5c6,0,10.9,4.9,10.9,10.9
		C555.1,352.7,550.2,357.6,544.2,357.6z"/>
	<path class="st0" d="M544.2,311.6h-57.5c-6,0-10.9-4.9-10.9-10.9s4.9-10.9,10.9-10.9h57.5c6,0,10.9,4.9,10.9,10.9
		S550.2,311.6,544.2,311.6z"/>
	<path class="st0" d="M544.2,269.5h-57.5c-6,0-10.9-4.9-10.9-10.9c0-6,4.9-10.9,10.9-10.9h57.5c6,0,10.9,4.9,10.9,10.9
		C555.1,264.6,550.2,269.5,544.2,269.5z"/>
	<path class="st0" d="M1114.9,713.8h-57.5c-6,0-10.9-4.9-10.9-10.9s4.9-10.9,10.9-10.9h57.5c6,0,10.9,4.9,10.9,10.9
		S1120.9,713.8,1114.9,713.8z"/>
	<path class="st0" d="M1114.9,671.6h-57.5c-6,0-10.9-4.9-10.9-10.9c0-6,4.9-10.9,10.9-10.9h57.5c6,0,10.9,4.9,10.9,10.9
		C1125.8,666.8,1120.9,671.6,1114.9,671.6z"/>
	<path class="st0" d="M1114.9,625.7h-57.5c-6,0-10.9-4.9-10.9-10.9c0-6,4.9-10.9,10.9-10.9h57.5c6,0,10.9,4.9,10.9,10.9
		C1125.8,620.8,1120.9,625.7,1114.9,625.7z"/>
	<path class="st0" d="M1114.9,579.7h-57.5c-6,0-10.9-4.9-10.9-10.9s4.9-10.9,10.9-10.9h57.5c6,0,10.9,4.9,10.9,10.9
		S1120.9,579.7,1114.9,579.7z"/>
	<path class="st0" d="M1114.9,537.6h-57.5c-6,0-10.9-4.9-10.9-10.9s4.9-10.9,10.9-10.9h57.5c6,0,10.9,4.9,10.9,10.9
		S1120.9,537.6,1114.9,537.6z"/>
	<path class="st0" d="M1114.9,491.6h-57.5c-6,0-10.9-4.9-10.9-10.9c0-6,4.9-10.9,10.9-10.9h57.5c6,0,10.9,4.9,10.9,10.9
		C1125.8,486.7,1120.9,491.6,1114.9,491.6z"/>
	<path class="st0" d="M1114.9,445.7h-57.5c-6,0-10.9-4.9-10.9-10.9c0-6,4.9-10.9,10.9-10.9h57.5c6,0,10.9,4.9,10.9,10.9
		C1125.8,440.8,1120.9,445.7,1114.9,445.7z"/>
	<path class="st0" d="M1114.9,403.5h-57.5c-6,0-10.9-4.9-10.9-10.9c0-6,4.9-10.9,10.9-10.9h57.5c6,0,10.9,4.9,10.9,10.9
		C1125.8,398.6,1120.9,403.5,1114.9,403.5z"/>
	<path class="st0" d="M1114.9,357.6h-57.5c-6,0-10.9-4.9-10.9-10.9c0-6,4.9-10.9,10.9-10.9h57.5c6,0,10.9,4.9,10.9,10.9
		C1125.8,352.7,1120.9,357.6,1114.9,357.6z"/>
	<path class="st0" d="M1114.9,311.6h-57.5c-6,0-10.9-4.9-10.9-10.9s4.9-10.9,10.9-10.9h57.5c6,0,10.9,4.9,10.9,10.9
		S1120.9,311.6,1114.9,311.6z"/>
	<path class="st0" d="M1114.9,269.5h-57.5c-6,0-10.9-4.9-10.9-10.9c0-6,4.9-10.9,10.9-10.9h57.5c6,0,10.9,4.9,10.9,10.9
		C1125.8,264.6,1120.9,269.5,1114.9,269.5z"/>
	<path class="st1" d="M1061.3,744.4H551.9c-6,0-10.9-4.9-10.9-10.9V224.1c0-6,4.9-10.9,10.9-10.9h509.4c6,0,10.9,4.9,10.9,10.9
		v509.4C1072.2,739.6,1067.3,744.4,1061.3,744.4z M562.8,722.6h487.6V235H562.8V722.6z"/>
	<path class="st2" d="M1003.8,687H609.3c-6,0-10.9-4.9-10.9-10.9V281.5c0-6,4.9-10.9,10.9-10.9h394.5c6,0,10.9,4.9,10.9,10.9v394.5
		C1014.7,682.1,1009.9,687,1003.8,687z M620.2,665.2h372.7V292.4H620.2V665.2z"/>
</g>
</svg>
