<?xml version="1.0" encoding="UTF-8"?><svg id="Layer_1" xmlns="http://www.w3.org/2000/svg" viewBox="0 0 100 100"><defs><style>.cls-1{fill:#00a5a8;}.cls-2{fill:#7e45af;}.cls-3{fill:#e37820;}</style></defs><g><path class="cls-1" d="M19.11,45.07H6.6c-.69,0-1.25-.56-1.25-1.25s.56-1.25,1.25-1.25h12.51c.69,0,1.25,.56,1.25,1.25s-.56,1.25-1.25,1.25Z"/><path class="cls-1" d="M93.4,45.07h-12.52c-.69,0-1.25-.56-1.25-1.25s.56-1.25,1.25-1.25h12.52c.69,0,1.25,.56,1.25,1.25s-.56,1.25-1.25,1.25Z"/><path class="cls-1" d="M28.3,23.36c-.3,0-.6-.11-.84-.32l-9.19-8.34c-.51-.46-.55-1.25-.09-1.76,.46-.51,1.25-.55,1.76-.09l9.19,8.34c.51,.46,.55,1.25,.09,1.76-.25,.27-.59,.41-.93,.41Z"/><path class="cls-1" d="M80.04,75.94c-.34,0-.68-.14-.92-.41l-8.34-9.17c-.46-.51-.43-1.3,.08-1.76,.51-.46,1.3-.43,1.76,.08l8.34,9.17c.46,.51,.43,1.3-.08,1.76-.24,.22-.54,.33-.84,.33Z"/><path class="cls-1" d="M19.11,75.94c-.32,0-.64-.12-.88-.37-.49-.49-.49-1.28,0-1.77l9.19-9.17c.49-.49,1.28-.49,1.77,0,.49,.49,.49,1.28,0,1.77l-9.19,9.17c-.24,.24-.56,.36-.88,.36Z"/><path class="cls-1" d="M71.7,23.36c-.32,0-.64-.12-.88-.37-.49-.49-.49-1.28,0-1.77l8.34-8.34c.49-.49,1.28-.49,1.77,0,.49,.49,.49,1.28,0,1.77l-8.34,8.34c-.24,.24-.56,.37-.88,.37Z"/><path class="cls-1" d="M50.01,14.19c-.69,0-1.25-.56-1.25-1.25V1.25c0-.69,.56-1.25,1.25-1.25s1.25,.56,1.25,1.25V12.94c0,.69-.56,1.25-1.25,1.25Z"/></g><path class="cls-2" d="M50.01,18.19c-14.16,0-25.68,11.53-25.68,25.71,0,5.98,.93,12.43,7.69,19.1,.38,.37,.76,.74,1.13,1.1,3.53,3.39,6.59,6.33,6.59,13.3v5.42c0,1.63,.78,3.06,1.97,4v6.84c0,3.5,2.85,6.35,6.35,6.35h3.87c3.5,0,6.35-2.85,6.35-6.35v-6.84c1.19-.94,1.97-2.38,1.97-4v-5.42c.02-6.99,3.07-9.92,6.61-13.32,.37-.35,.74-.71,1.11-1.08,6.76-6.67,7.69-13.12,7.69-19.1,0-14.17-11.51-25.71-25.66-25.71Zm1.92,79.32h-3.87c-2.12,0-3.85-1.73-3.85-3.85v-.15h11.47s.07-.02,.1-.02v.17c0,2.12-1.73,3.85-3.85,3.85Zm3.85-9.54v3.07s-.06-.02-.1-.02h-11.47v-3.05h11.57Zm10.44-26.75c-.37,.36-.73,.71-1.09,1.06-3.78,3.64-7.35,7.07-7.37,15.12v5.42c0,1.46-1.21,2.65-2.7,2.65h-10.12c-1.49,0-2.7-1.19-2.7-2.65v-5.42c0-8.04-3.57-11.47-7.35-15.1-.37-.35-.74-.71-1.11-1.08-5.77-5.69-6.95-11.04-6.95-17.32,0-12.8,10.4-23.21,23.18-23.21s23.16,10.41,23.16,23.21c0,6.28-1.18,11.63-6.95,17.32Z"/><path class="cls-3" d="M50.01,49.67c-.47,0-.95-.06-1.42-.19-1.42-.38-2.61-1.28-3.34-2.56-.73-1.28-.92-2.77-.53-4.19,.39-1.41,1.29-2.57,2.55-3.28,1.26-.74,2.73-.94,4.14-.56,1.42,.38,2.6,1.28,3.33,2.56,.74,1.26,.94,2.73,.56,4.14-.38,1.42-1.28,2.6-2.56,3.33-.84,.49-1.79,.75-2.74,.75Zm0-9.09c-.63,0-1.25,.17-1.8,.49h-.01c-.82,.47-1.42,1.24-1.67,2.16-.26,.94-.13,1.92,.35,2.76,.48,.83,1.26,1.43,2.19,1.68,.94,.25,1.91,.12,2.74-.37,.84-.49,1.44-1.26,1.69-2.19,.25-.93,.11-1.89-.37-2.72-.49-.84-1.26-1.44-2.19-1.69-.3-.08-.61-.12-.92-.12Z"/><path class="cls-3" d="M52.61,58.57h-5.22l-1.21-3.62c-1.3-.46-2.51-1.16-3.56-2.05l-3.77,.77-2.62-4.53,2.53-2.9c-.24-1.33-.24-2.72,.02-4.07l-2.56-2.9,2.62-4.54,3.77,.76c.54-.47,1.11-.87,1.71-1.19,.55-.33,1.16-.62,1.86-.87l1.24-3.64h5.22l1.21,3.64c1.27,.45,2.48,1.15,3.55,2.05l3.75-.77,2.62,4.54-2.53,2.9c.25,1.32,.25,2.72,0,4.09l2.53,2.88-2.62,4.54-3.75-.77c-1.05,.88-2.24,1.57-3.55,2.05l-1.24,3.62Zm-3.87-1.87h2.53l1.11-3.23,.45-.14c1.39-.45,2.63-1.16,3.68-2.12l.35-.32,3.35,.68,1.27-2.2-2.27-2.58,.11-.47c.32-1.41,.32-2.86,0-4.2l-.11-.47,2.27-2.61-1.28-2.21-3.35,.69-.35-.32c-1.07-.98-2.34-1.72-3.66-2.12l-.46-.14-1.09-3.26h-2.53l-1.11,3.26-.46,.14c-.73,.23-1.36,.51-1.94,.86-.63,.34-1.19,.75-1.71,1.25l-.35,.34-3.39-.69-1.27,2.21,2.3,2.61-.11,.47c-.33,1.38-.33,2.82-.02,4.17l.11,.47-2.27,2.6,1.28,2.21,3.39-.69,.35,.33c1.03,.97,2.3,1.7,3.66,2.11l.46,.14,1.09,3.24Z"/></svg>