<?xml version="1.0" encoding="UTF-8"?><svg id="Layer_1" xmlns="http://www.w3.org/2000/svg" viewBox="0 0 100 100"><defs><style>.cls-1{fill:#00a5a8;}.cls-2{fill:#7e45af;}.cls-3{fill:#e37820;}</style></defs><g><path class="cls-1" d="M18.27,69.22H6.72V30.78h11.54v38.44Zm-8.96-2.58h6.39V33.36h-6.39v33.28Z"/><path class="cls-1" d="M44.29,69.22h-11.54V30.78h11.54v38.44Zm-8.96-2.58h6.39V33.36h-6.39v33.28Z"/><path class="cls-1" d="M87.5,66.45l-10.96,3.61-12.03-36.51,10.96-3.61,12.03,36.51Zm-9.32,.36l6.07-2-10.41-31.61-6.07,2,10.41,31.61Z"/></g><g><rect class="cls-3" x="1.01" y="15.79" width="22.41" height="2.58"/><rect class="cls-3" x="1.01" y="80.79" width="22.41" height="2.58"/><rect class="cls-3" x="27.04" y="15.79" width="22.41" height="2.58"/><rect class="cls-3" x="27.04" y="80.79" width="22.41" height="2.58"/><rect class="cls-3" x="54.24" y="17.53" width="22.41" height="2.58" transform="translate(-2.6 21.42) rotate(-18.23)"/><rect class="cls-3" x="74.57" y="79.26" width="22.41" height="2.58" transform="translate(-20.9 30.88) rotate(-18.23)"/></g><g><path class="cls-2" d="M19.22,93.59H5.77c-3.18,0-5.77-2.59-5.77-5.77V12.18c0-3.18,2.59-5.77,5.77-5.77h13.45c3.18,0,5.77,2.59,5.77,5.77V87.82c0,3.18-2.59,5.77-5.77,5.77ZM5.77,8.99c-1.76,0-3.19,1.43-3.19,3.19V87.82c0,1.76,1.43,3.19,3.19,3.19h13.45c1.76,0,3.19-1.43,3.19-3.19V12.18c0-1.76-1.43-3.19-3.19-3.19H5.77Z"/><path class="cls-2" d="M45.24,93.59h-13.45c-3.18,0-5.77-2.59-5.77-5.77V12.18c0-3.18,2.59-5.77,5.77-5.77h13.45c3.18,0,5.77,2.59,5.77,5.77V87.82c0,3.18-2.59,5.77-5.77,5.77ZM31.8,8.99c-1.76,0-3.19,1.43-3.19,3.19V87.82c0,1.76,1.43,3.19,3.19,3.19h13.45c1.76,0,3.19-1.43,3.19-3.19V12.18c0-1.76-1.43-3.19-3.19-3.19h-13.45Z"/><path class="cls-2" d="M96.03,89.3l-12.77,4.21c-3.02,1-6.29-.65-7.29-3.68L52.31,17.99c-1-3.02,.65-6.29,3.68-7.29l12.77-4.21c3.02-1,6.29,.65,7.29,3.68l23.67,71.84c1,3.02-.65,6.29-3.68,7.29ZM56.79,13.15c-1.67,.55-2.58,2.36-2.03,4.03l23.67,71.84c.55,1.67,2.36,2.58,4.03,2.03l12.77-4.21c1.67-.55,2.58-2.36,2.03-4.03L73.6,10.98c-.55-1.67-2.36-2.58-4.03-2.03l-12.77,4.21Z"/></g></svg>