<?xml version="1.0" encoding="utf-8"?>
<!-- Generator: Adobe Illustrator 27.0.0, SVG Export Plug-In . SVG Version: 6.00 Build 0)  -->
<svg version="1.1" id="Layer_1" xmlns="http://www.w3.org/2000/svg" xmlns:xlink="http://www.w3.org/1999/xlink" x="0px" y="0px"
	 viewBox="0 0 100 100" style="enable-background:new 0 0 100 100;" xml:space="preserve">
<style type="text/css">
	.st0{fill:#FFFFFF;stroke:#6D3D9B;stroke-width:1.3125;stroke-linejoin:round;stroke-miterlimit:10;}
	
		.st1{fill-rule:evenodd;clip-rule:evenodd;fill:none;stroke:#7B5AA2;stroke-width:1.9108;stroke-linecap:round;stroke-linejoin:round;stroke-miterlimit:10;}
	
		.st2{fill-rule:evenodd;clip-rule:evenodd;fill:none;stroke:#7B5AA2;stroke-width:1.482;stroke-linejoin:round;stroke-miterlimit:10;}
	.st3{fill:none;stroke:#7B5AA2;stroke-width:1.9108;stroke-linecap:round;stroke-linejoin:round;stroke-miterlimit:10;}
	
		.st4{fill-rule:evenodd;clip-rule:evenodd;fill:none;stroke:#7B5AA2;stroke-width:1.5718;stroke-linejoin:round;stroke-miterlimit:10;}
	
		.st5{fill-rule:evenodd;clip-rule:evenodd;fill:none;stroke:#7B5AA2;stroke-width:1.845;stroke-linejoin:round;stroke-miterlimit:10;}
	.st6{fill:#7B5AA2;}
	
		.st7{fill-rule:evenodd;clip-rule:evenodd;fill:none;stroke:#7B5AA2;stroke-width:1.5;stroke-linecap:round;stroke-linejoin:round;stroke-miterlimit:10;}
	.st8{fill-rule:evenodd;clip-rule:evenodd;fill:none;stroke:#7B5AA2;stroke-width:1.5;stroke-linejoin:round;stroke-miterlimit:10;}
	.st9{fill:none;stroke:#7B5AA2;stroke-width:1.5;stroke-linecap:round;stroke-linejoin:round;stroke-miterlimit:10;}
	.st10{fill:none;stroke:#6D3D9B;stroke-width:1.5;stroke-linecap:round;stroke-linejoin:round;stroke-miterlimit:10;}
	
		.st11{fill-rule:evenodd;clip-rule:evenodd;fill:none;stroke:#6D3D9B;stroke-width:1.5;stroke-linecap:round;stroke-linejoin:round;stroke-miterlimit:10;}
	
		.st12{fill-rule:evenodd;clip-rule:evenodd;fill:#6D3D9B;stroke:#6D3D9B;stroke-width:1.5;stroke-linejoin:round;stroke-miterlimit:10;}
	
		.st13{fill-rule:evenodd;clip-rule:evenodd;fill:#FFFFFF;stroke:#6D3D9B;stroke-width:1.5;stroke-linejoin:round;stroke-miterlimit:10;}
	.st14{fill:#6D3D9B;}
</style>
<path class="st14" d="M96.9,45.7L60,30.3c0.2-0.2,0.3-0.4,0.3-0.6c0-0.4-0.2-0.7-0.7-0.9l-9.4-3.9c-0.2-0.1-0.5-0.1-0.8-0.1
	c-0.3,0-0.5,0-0.8,0.1l-9.4,3.9c-0.4,0.2-0.7,0.5-0.7,0.9c0,0.4,0.2,0.7,0.7,0.9l0.1,0.1L29,34.9l-1.7-0.7c-0.2-0.1-0.5-0.1-0.8-0.1
	c-0.3,0-0.6,0-0.8,0.1l-10,4.2c-0.4,0.2-0.7,0.5-0.7,0.9s0.2,0.7,0.7,0.9l0.3,0.1L3.2,45.7c-1.2,0.5-1.4,1.2-1.4,1.6
	c0,0.1,0,0.2,0.1,0.4v4c0,0,0,0.1,0,0.2c0,0,0,0.1,0,0.1c0,0.1,0,0.1,0.1,0.2c0,0.1,0.1,0.1,0.1,0.1c0,0,0.1,0.1,0.2,0.1L3,52.7
	c-0.5,0.4-0.8,1.1-0.8,1.8c0,1.3,1.1,2.4,2.4,2.4c1.3,0,2.4-1.1,2.4-2.4c0-0.1,0-0.1,0-0.2l1.4,0.6c-0.6,0.4-1,1.1-1,1.9
	c0,1.3,1.1,2.4,2.4,2.4c1.3,0,2.4-1.1,2.4-2.4c0-0.1,0-0.2,0-0.3l1.4,0.6c-0.6,0.4-0.9,1.1-0.9,1.9c0,1.3,1.1,2.4,2.4,2.4
	s2.4-1.1,2.4-2.4c0-0.1,0-0.2,0-0.3l1.5,0.6c-0.6,0.4-1.1,1.2-1.1,2c0,1.3,1.1,2.4,2.4,2.4s2.4-1.1,2.4-2.4c0-0.2,0-0.3,0-0.5
	l1.4,0.6c-0.6,0.4-1,1.1-1,1.9c0,1.3,1.1,2.4,2.4,2.4c1.3,0,2.4-1.1,2.4-2.4c0-0.1,0-0.2,0-0.4l1.5,0.6c-0.7,0.4-1.1,1.2-1.1,2
	c0,1.3,1.1,2.4,2.4,2.4c1.3,0,2.4-1.1,2.4-2.4c0-0.2,0-0.3,0-0.5l1.5,0.6c-0.6,0.4-1.1,1.2-1.1,2c0,1.3,1.1,2.4,2.4,2.4
	s2.4-1.1,2.4-2.4c0-0.2,0-0.3-0.1-0.5l1.7,0.7c-0.7,0.4-1.2,1.2-1.2,2.1c0,1.3,1.1,2.4,2.4,2.4c1.3,0,2.4-1.1,2.4-2.4
	c0-0.2,0-0.4-0.1-0.6l1.4,0.6c-0.6,0.4-0.9,1.1-0.9,1.9c0,1.3,1.1,2.4,2.4,2.4c1.3,0,2.4-1.1,2.4-2.4c0-0.2,0-0.4-0.1-0.5
	c0.5,0.1,1,0.1,1.5,0.1c0.5,0,1,0,1.5-0.1c0,0.2-0.1,0.4-0.1,0.5c0,1.3,1.1,2.4,2.4,2.4c1.3,0,2.4-1.1,2.4-2.4
	c0-0.8-0.4-1.4-0.9-1.9l1.4-0.6c0,0.2-0.1,0.4-0.1,0.6c0,1.3,1.1,2.4,2.4,2.4c1.3,0,2.4-1.1,2.4-2.4c0-0.9-0.5-1.7-1.2-2.1l1.6-0.7
	c0,0.1,0,0.3,0,0.5c0,1.3,1.1,2.4,2.4,2.4c1.3,0,2.4-1.1,2.4-2.4c0-0.8-0.4-1.6-1.1-2l1.5-0.6c0,0.2,0,0.3,0,0.5
	c0,1.3,1.1,2.4,2.4,2.4c1.3,0,2.4-1.1,2.4-2.4c0-0.8-0.4-1.6-1.1-2l1.5-0.6c0,0.1,0,0.2,0,0.3c0,1.3,1.1,2.4,2.4,2.4
	c1.3,0,2.4-1.1,2.4-2.4c0-0.8-0.4-1.5-1-1.9l1.4-0.6c0,0.1,0,0.3,0,0.4c0,1.3,1.1,2.4,2.4,2.4c1.3,0,2.4-1.1,2.4-2.4
	c0-0.8-0.4-1.5-1-2l1.5-0.6c0,0.1,0,0.2,0,0.3c0,1.3,1.1,2.4,2.4,2.4s2.4-1.1,2.4-2.4c0-0.8-0.4-1.5-0.9-1.9l1.3-0.5
	c0,0.1,0,0.2,0,0.3c0,1.3,1.1,2.4,2.4,2.4c1.3,0,2.4-1.1,2.4-2.4c0-0.8-0.4-1.5-0.9-1.9l1.3-0.5c0,0,0,0.1,0,0.2
	c0,1.3,1.1,2.4,2.4,2.4c1.3,0,2.4-1.1,2.4-2.4c0-0.7-0.3-1.4-0.8-1.8l0.7-0.3c0,0,0.1,0,0.1-0.1c0.1,0,0.1-0.1,0.1-0.1
	c0.1,0,0.1-0.1,0.1-0.2c0,0,0-0.1,0-0.1c0-0.1,0-0.1,0-0.2v-4c0-0.1,0.1-0.3,0.1-0.4C98.2,46.9,98.1,46.2,96.9,45.7z M40.9,29.7
	l8.2-3.4c0.1,0,0.3,0,0.4,0l1.5,0.6l6.8,2.8l-1.6,0.7l-4.8,2l-1,0.4l-0.8,0.3c-0.1,0-0.3,0-0.4,0l-0.8-0.3l-1-0.4l-4.2-1.7l-2-0.8
	L40.9,29.7z M75,43.1l-6.5,2.7l-1,0.4l-1,0.4l-7.9,3.3c-0.3,0.1-0.9,0.1-1.2,0l-7.9-3.3l-1-0.4l-1-0.4l-6.5-2.7l5.7-2.4l1-0.4l1-0.4
	l8.4-3.5l0.3-0.1c0.3-0.1,0.9-0.1,1.2,0l0.8,0.3l0.7,0.3L75,43.1z M17.5,39.3l8.8-3.7c0.1,0,0.3,0,0.4,0l0.3,0.1l2,0.8l6.6,2.7
	L29.1,42l-1,0.4l-1,0.4L26.7,43c-0.1,0-0.3,0-0.4,0l-0.4-0.2l-1-0.4l-1-0.4l-4-1.7l-2-0.8L17.5,39.3z M18,41.1l4,1.7l-6.2,2.6
	c-0.4,0.2-0.7,0.5-0.7,0.9s0.2,0.7,0.7,0.9l10,4.2c0.2,0.1,0.5,0.1,0.8,0.1c0.3,0,0.6,0,0.8-0.1l10-4.2c0.4-0.2,0.6-0.5,0.6-0.9
	c0-0.4-0.2-0.7-0.7-0.9l-6.2-2.6l6.2-2.6c0.4-0.2,0.6-0.5,0.6-0.9c0-0.4-0.2-0.7-0.7-0.9l-6.4-2.6l10.3-4.3l4.2,1.7l-6.3,2.6
	c-0.4,0.2-0.7,0.5-0.7,0.9c0,0.4,0.2,0.7,0.7,0.9l5.7,2.4l-5.1,2.1c-0.8,0.3-0.8,0.8-0.8,1.1c0,0.2,0.1,0.8,0.8,1.1l5.9,2.4
	l-5.9,2.4c-0.8,0.3-0.8,0.8-0.8,1.1c0,0.2,0.1,0.8,0.8,1.1L57,58.3c0.3,0.1,0.7,0.2,1.1,0.2c0.4,0,0.8-0.1,1.2-0.2l17.1-7.1
	c0.7-0.3,0.8-0.8,0.8-1c0-0.2-0.1-0.7-0.8-1.1l-5.9-2.4l5.9-2.5c0.7-0.3,0.8-0.8,0.8-1c0-0.2-0.1-0.7-0.8-1.1l-17.1-7.1
	c-0.3-0.1-0.7-0.2-1.2-0.2c-0.3,0-0.6,0-0.8,0.1l-4-1.6l4.8-2l38.2,15.9c0.2,0.1,0.3,0.2,0.4,0.2v0c-0.1,0.1-0.2,0.1-0.4,0.2L52,66
	c-1.1,0.4-2.9,0.4-3.9,0L3.7,47.6c-0.2-0.1-0.3-0.2-0.4-0.2v0c0.1,0,0.2-0.1,0.4-0.2L18,41.1z M5.7,54.5c0,0.6-0.5,1.1-1.1,1.1
	c-0.6,0-1.1-0.5-1.1-1.1c0-0.6,0.5-1.1,1.1-1.1c0.1,0,0.2,0,0.3,0.1l0.2,0.1C5.5,53.7,5.7,54.1,5.7,54.5z M9.8,57.9
	c-0.6,0-1.1-0.5-1.1-1.1c0-0.6,0.5-1.1,1.1-1.1c0.6,0,1.1,0.5,1.1,1.1C10.9,57.4,10.4,57.9,9.8,57.9z M15,60c-0.6,0-1.1-0.5-1.1-1.1
	c0-0.6,0.5-1.1,1.1-1.1c0.6,0,1.1,0.5,1.1,1.1C16.1,59.5,15.6,60,15,60z M20.2,62.3c-0.6,0-1.1-0.5-1.1-1.1c0-0.6,0.5-1.1,1.1-1.1
	c0.6,0,1.1,0.5,1.1,1.1C21.3,61.8,20.8,62.3,20.2,62.3z M25.4,64.4c-0.6,0-1.1-0.5-1.1-1.1c0-0.6,0.5-1.1,1.1-1.1
	c0.6,0,1.1,0.5,1.1,1.1C26.5,63.9,26,64.4,25.4,64.4z M30.6,66.7c-0.6,0-1.1-0.5-1.1-1.1c0-0.6,0.5-1.1,1.1-1.1
	c0.6,0,1.1,0.5,1.1,1.1C31.7,66.2,31.2,66.7,30.6,66.7z M35.8,68.9c-0.6,0-1.1-0.5-1.1-1.1c0-0.6,0.5-1.1,1.1-1.1
	c0.6,0,1.1,0.5,1.1,1.1C36.9,68.4,36.4,68.9,35.8,68.9z M41,71.2c-0.6,0-1.1-0.5-1.1-1.1c0-0.6,0.5-1.1,1.1-1.1
	c0.6,0,1.1,0.5,1.1,1.1C42.1,70.7,41.6,71.2,41,71.2z M46.2,73c-0.6,0-1.1-0.5-1.1-1.1c0-0.6,0.5-1.1,1.1-1.1c0.6,0,1.1,0.5,1.1,1.1
	C47.3,72.5,46.8,73,46.2,73z M54.9,71.9c0,0.6-0.5,1.1-1.1,1.1c-0.6,0-1.1-0.5-1.1-1.1c0-0.6,0.5-1.1,1.1-1.1
	C54.4,70.8,54.9,71.3,54.9,71.9z M60.1,70.1c0,0.6-0.5,1.1-1.1,1.1c-0.6,0-1.1-0.5-1.1-1.1c0-0.6,0.5-1.1,1.1-1.1
	C59.6,69,60.1,69.5,60.1,70.1z M65.3,67.8c0,0.6-0.5,1.1-1.1,1.1c-0.6,0-1.1-0.5-1.1-1.1c0-0.6,0.5-1.1,1.1-1.1
	C64.8,66.7,65.3,67.2,65.3,67.8z M70.5,65.6c0,0.6-0.5,1.1-1.1,1.1c-0.6,0-1.1-0.5-1.1-1.1c0-0.6,0.5-1.1,1.1-1.1
	C70,64.5,70.5,65,70.5,65.6z M75.7,63.3c0,0.6-0.5,1.1-1.1,1.1c-0.6,0-1.1-0.5-1.1-1.1c0-0.6,0.5-1.1,1.1-1.1
	C75.2,62.2,75.7,62.7,75.7,63.3z M80.9,61.2c0,0.6-0.5,1.1-1.1,1.1c-0.6,0-1.1-0.5-1.1-1.1c0-0.6,0.5-1.1,1.1-1.1
	C80.4,60.1,80.9,60.6,80.9,61.2z M86.1,59c0,0.6-0.5,1.1-1.1,1.1c-0.6,0-1.1-0.5-1.1-1.1c0-0.6,0.5-1.1,1.1-1.1
	C85.6,57.8,86.1,58.3,86.1,59z M91.3,56.8c0,0.6-0.5,1.1-1.1,1.1c-0.6,0-1.1-0.5-1.1-1.1c0-0.6,0.5-1.1,1.1-1.1
	C90.8,55.7,91.3,56.2,91.3,56.8z M52.6,69.5c-1.4,0.6-3.8,0.6-5.2,0L3.3,51.1V49l44.2,18.4c0.7,0.3,1.6,0.4,2.5,0.4s1.8-0.1,2.5-0.4
	L96.7,49v2.2L52.6,69.5z M95.4,53.4c0.6,0,1.1,0.5,1.1,1.1c0,0.6-0.5,1.1-1.1,1.1c-0.6,0-1.1-0.5-1.1-1.1c0-0.4,0.2-0.7,0.5-0.9
	l0.5-0.2C95.3,53.4,95.3,53.4,95.4,53.4z"/>
</svg>
