<svg xmlns="http://www.w3.org/2000/svg" viewBox="0 0 97.56 70.66"><defs><style>.cls-1{fill:none;}.cls-2{fill:#58c6f2;}.cls-3{fill:#7f58a1;}.cls-4{fill:#e97d21;}</style></defs><g id="Layer_2" data-name="Layer 2"><g id="Layer_1-2" data-name="Layer 1"><path class="cls-1" d="M60,67.86a2.23,2.23,0,0,0,2.09,1.65A2.09,2.09,0,0,0,64,68.25a7.54,7.54,0,0,0,.68-3.58,11.28,11.28,0,0,0-.14-1.88Z"/><path class="cls-1" d="M84.26,60.3A1.84,1.84,0,0,0,83,59.82a2.1,2.1,0,0,0-1.9,1.31,7.77,7.77,0,0,0-.68,3.54,11.57,11.57,0,0,0,.19,2.16l4.53-5.15A3.15,3.15,0,0,0,84.26,60.3Z"/><path class="cls-1" d="M73.82,42.67a1.84,1.84,0,0,0-1.27-.48,2.09,2.09,0,0,0-1.9,1.3A7.77,7.77,0,0,0,70,47a10.71,10.71,0,0,0,.19,2.16l4.53-5.14A3.25,3.25,0,0,0,73.82,42.67Z"/><path class="cls-1" d="M80.9,67.86A2.25,2.25,0,0,0,83,69.51a2.08,2.08,0,0,0,1.9-1.26,7.53,7.53,0,0,0,.69-3.58,10.22,10.22,0,0,0-.15-1.88Z"/><path class="cls-1" d="M70.46,50.22a2.24,2.24,0,0,0,2.09,1.66,2.09,2.09,0,0,0,1.9-1.26A7.6,7.6,0,0,0,75.14,47,10.3,10.3,0,0,0,75,45.15Z"/><path class="cls-1" d="M63.38,60.3a1.86,1.86,0,0,0-1.27-.48,2.1,2.1,0,0,0-1.9,1.31,7.64,7.64,0,0,0-.68,3.54,10.78,10.78,0,0,0,.19,2.16l4.53-5.15A3.35,3.35,0,0,0,63.38,60.3Z"/><path class="cls-1" d="M94.71,60.3a1.88,1.88,0,0,0-1.27-.48,2.08,2.08,0,0,0-1.9,1.31,7.63,7.63,0,0,0-.69,3.54A11.57,11.57,0,0,0,91,66.83l4.53-5.15A3.24,3.24,0,0,0,94.71,60.3Z"/><path class="cls-1" d="M91.34,67.86a2.25,2.25,0,0,0,2.1,1.65,2.1,2.1,0,0,0,1.9-1.26A7.66,7.66,0,0,0,96,64.67a10.22,10.22,0,0,0-.15-1.88Z"/><polygon class="cls-2" points="63.18 52.81 63.18 41.1 62.13 41.1 58.65 42.7 58.99 43.43 61.68 42.73 61.68 52.81 63.18 52.81"/><path class="cls-2" d="M72.55,41a3.45,3.45,0,0,0-3,1.6A7.75,7.75,0,0,0,68.43,47a7.79,7.79,0,0,0,1.07,4.43,3.77,3.77,0,0,0,6.11,0A7.8,7.8,0,0,0,76.67,47a7.83,7.83,0,0,0-1.07-4.39A3.47,3.47,0,0,0,72.55,41ZM70,47a7.77,7.77,0,0,1,.68-3.54,2.09,2.09,0,0,1,1.9-1.3,1.84,1.84,0,0,1,1.27.48,3.25,3.25,0,0,1,.87,1.38l-4.53,5.14A10.71,10.71,0,0,1,70,47Zm4.48,3.59a2.09,2.09,0,0,1-1.9,1.26,2.24,2.24,0,0,1-2.09-1.66L75,45.15A10.3,10.3,0,0,1,75.14,47,7.6,7.6,0,0,1,74.45,50.62Z"/><polygon class="cls-2" points="79.88 43.43 82.57 42.73 82.57 52.81 84.06 52.81 84.06 41.1 83.02 41.1 79.53 42.7 79.88 43.43"/><polygon class="cls-2" points="93.01 42.73 93.01 52.81 94.5 52.81 94.5 41.1 93.46 41.1 89.98 42.7 90.32 43.43 93.01 42.73"/><path class="cls-2" d="M62.11,58.68a3.46,3.46,0,0,0-3,1.59A7.78,7.78,0,0,0,58,64.67a7.82,7.82,0,0,0,1.07,4.43,3.76,3.76,0,0,0,6.1,0,7.74,7.74,0,0,0,1.07-4.43,7.78,7.78,0,0,0-1.08-4.4A3.46,3.46,0,0,0,62.11,58.68Zm-2.58,6a7.64,7.64,0,0,1,.68-3.54,2.1,2.1,0,0,1,1.9-1.31,1.86,1.86,0,0,1,1.27.48,3.35,3.35,0,0,1,.87,1.38l-4.53,5.15A10.78,10.78,0,0,1,59.53,64.67ZM64,68.25a2.09,2.09,0,0,1-1.9,1.26A2.23,2.23,0,0,1,60,67.86l4.53-5.07a11.28,11.28,0,0,1,.14,1.88A7.54,7.54,0,0,1,64,68.25Z"/><polygon class="cls-2" points="69.09 60.33 69.44 61.06 72.13 60.37 72.13 70.45 73.62 70.45 73.62 58.73 72.58 58.73 69.09 60.33"/><path class="cls-2" d="M83,58.68a3.46,3.46,0,0,0-3,1.59,7.78,7.78,0,0,0-1.08,4.4,7.82,7.82,0,0,0,1.07,4.43,3.77,3.77,0,0,0,6.11,0,7.82,7.82,0,0,0,1.07-4.43A7.78,7.78,0,0,0,86,60.27,3.48,3.48,0,0,0,83,58.68Zm-2.58,6a7.77,7.77,0,0,1,.68-3.54A2.1,2.1,0,0,1,83,59.82a1.84,1.84,0,0,1,1.27.48,3.15,3.15,0,0,1,.87,1.38L80.6,66.83A11.57,11.57,0,0,1,80.41,64.67Zm4.48,3.58A2.08,2.08,0,0,1,83,69.51a2.25,2.25,0,0,1-2.09-1.65l4.53-5.07a10.22,10.22,0,0,1,.15,1.88A7.53,7.53,0,0,1,84.89,68.25Z"/><path class="cls-2" d="M96.48,60.27a3.71,3.71,0,0,0-6.09,0,7.78,7.78,0,0,0-1.07,4.4,7.82,7.82,0,0,0,1.06,4.43,3.77,3.77,0,0,0,6.11,0,7.82,7.82,0,0,0,1.07-4.43A7.78,7.78,0,0,0,96.48,60.27Zm-5.63,4.4a7.63,7.63,0,0,1,.69-3.54,2.08,2.08,0,0,1,1.9-1.31,1.88,1.88,0,0,1,1.27.48,3.24,3.24,0,0,1,.86,1.38L91,66.83A11.57,11.57,0,0,1,90.85,64.67Zm4.49,3.58a2.1,2.1,0,0,1-1.9,1.26,2.25,2.25,0,0,1-2.1-1.65l4.53-5.07A10.22,10.22,0,0,1,96,64.67,7.66,7.66,0,0,1,95.34,68.25Z"/><rect class="cls-1" x="23.98" y="23.97" width="8.91" height="8.97"/><path class="cls-3" d="M67.61,41a1.89,1.89,0,0,0,.67-.06h-.91Z"/><path class="cls-3" d="M66.86,34.71c0,1.09,0,2-.1,2.87h2.48c.09-1.14.1-2.17.1-2.87a34.58,34.58,0,0,0-2.23-12.25H64.44A32,32,0,0,1,66.86,34.71Z"/><path class="cls-1" d="M20.39,7.83v-1c-.6.31-1.19.63-1.76,1Z"/><rect class="cls-1" x="11.48" y="23.97" width="8.9" height="8.97"/><path class="cls-1" d="M11.48,20.39h8.91v-9H13.76c-.8.72-1.57,1.48-2.28,2.26Z"/><path class="cls-1" d="M7.84,50.82V49h-1C7.14,49.63,7.48,50.23,7.84,50.82Z"/><path class="cls-1" d="M7.84,45.44V36.53H3.4a31.21,31.21,0,0,0,1.87,8.91Z"/><path class="cls-1" d="M7.84,20.39V18.56c-.37.6-.71,1.21-1,1.83Z"/><path class="cls-1" d="M7.84,32.94V24H5.24a30.83,30.83,0,0,0-1.85,9Z"/><path class="cls-1" d="M5.73,20.63l-.3.61H8.69V15.68l-.78,1.17A33.05,33.05,0,0,0,5.73,20.63Z"/><path class="cls-1" d="M13.31,10.67a32.58,32.58,0,0,0-2.57,2.55l-.12.13v7.89H21.25V10.56H13.44Z"/><path class="cls-1" d="M7.84,45.44V36.53H3.4a31.21,31.21,0,0,0,1.87,8.91Z"/><path class="cls-1" d="M16.9,7.9l-1.18.79h5.53V5.47l-.62.3A33.76,33.76,0,0,0,16.9,7.9Z"/><rect class="cls-1" x="11.48" y="23.97" width="8.9" height="8.97"/><path class="cls-1" d="M7.84,50.82V49h-1C7.14,49.63,7.48,50.23,7.84,50.82Z"/><path class="cls-1" d="M7.84,32.94V24H5.24a30.83,30.83,0,0,0-1.85,9Z"/><rect class="cls-1" x="23.98" y="36.53" width="8.91" height="8.91"/><rect class="cls-1" x="36.53" y="49.02" width="8.85" height="8.97"/><rect class="cls-1" x="23.98" y="49.02" width="8.91" height="8.97"/><rect class="cls-1" x="23.98" y="61.58" width="8.91" height="1.73"/><rect class="cls-1" x="36.53" y="61.58" width="8.85" height="1.73"/><rect class="cls-1" x="36.53" y="36.53" width="8.85" height="8.91"/><rect class="cls-1" x="23.98" y="23.97" width="8.91" height="8.97"/><rect class="cls-1" x="11.48" y="36.53" width="8.9" height="8.91"/><path class="cls-1" d="M13.7,58h6.69V49H11.48v6.74A31.16,31.16,0,0,0,13.7,58Z"/><polygon class="cls-1" points="20.39 61.58 18.53 61.58 20.39 62.53 20.39 61.58"/><path class="cls-3" d="M34.7,0A34.7,34.7,0,0,0,20.83,66.5l.28.14H48.29l.11-.08A33.38,33.38,0,0,0,56,62.05l-1.43-2c-.89.7-1.82,1.35-2.83,2l-3.56,1.89V33.8H35.67V21.24H23.12V4.69l.28-.11A32.17,32.17,0,0,1,61,16.19h3A34.63,34.63,0,0,0,34.7,0Zm-26,53.73-.78-1.19a32.24,32.24,0,0,1-2.16-3.76l-.3-.61H8.69Zm0-7.44h-4L4.57,46a32,32,0,0,1-2.05-9.9l0-.45H8.69Zm0-12.49H2.49l0-.45a31.68,31.68,0,0,1,2-10l.1-.27H8.69Zm0-12.56H5.43l.3-.61a33.05,33.05,0,0,1,2.18-3.78l.78-1.17Zm12.56,42.7-3.51-1.8-.67-.44-1.45-1h5.63Zm0-5.09H13.37l-.13-.11a33.33,33.33,0,0,1-2.51-2.53l-.11-.12V48.17H21.25Zm0-12.56H10.62V35.67H21.25Zm0-12.49H10.62V23.12H21.25Zm0-12.56H10.62V13.35l.12-.13a32.58,32.58,0,0,1,2.57-2.55l.13-.11h7.81ZM20.63,5.77l.62-.3V8.69H15.72m18,55.47H23.12V60.72H33.74Zm0-5.31H23.12V48.17H33.74Zm0-12.56H23.12V35.67H33.74Zm1.93-10.62H46.23V46.29H35.67ZM46.23,58.85H35.67V48.17H46.23M35.67,60.72H46.23v3.44H35.67Zm-1.93-37.6V33.8H23.12V23.12Z"/><rect class="cls-4" x="39.86" y="17.94" width="19.77" height="2.45"/><polygon class="cls-4" points="78.59 28.26 78.59 17.94 68.25 17.94 68.25 20.39 76.14 20.39 76.14 28.26 72.97 28.26 77.37 35.87 81.76 28.26 78.59 28.26"/><path class="cls-4" d="M66,17.94c.43.8.82,1.61,1.19,2.45h1.06V17.94Z"/><path class="cls-4" d="M61.12,17.94h-1.5v2.45h2.91C62.09,19.55,61.62,18.73,61.12,17.94Z"/><path class="cls-4" d="M63.49,20.39h2.75c-.38-.84-.78-1.65-1.22-2.45H62.14C62.62,18.73,63.07,19.55,63.49,20.39Z"/><path class="cls-4" d="M66.71,20.39h.47c-.37-.84-.76-1.65-1.19-2.45h-.48C65.94,18.74,66.34,19.55,66.71,20.39Z"/><path class="cls-4" d="M61.12,17.94c.5.79,1,1.61,1.41,2.45H63c-.43-.84-.89-1.66-1.38-2.45Z"/><path class="cls-4" d="M65,17.94c.44.8.84,1.61,1.22,2.45h.47c-.37-.84-.77-1.65-1.2-2.45Z"/><path class="cls-4" d="M62.14,17.94h-.51c.49.79.95,1.61,1.38,2.45h.48C63.07,19.55,62.62,18.73,62.14,17.94Z"/></g></g></svg>