<svg xmlns="http://www.w3.org/2000/svg" viewBox="0 0 113.74 84.53"><defs><style>.cls-1{fill:#fff;}.cls-2{fill:#7f58a1;}.cls-3{fill:none;}.cls-4{fill:#58c6f2;}.cls-5{fill:#7f59a5;}.cls-6{fill:#e97d21;}</style></defs><g id="Layer_2" data-name="Layer 2"><g id="Layer_1-2" data-name="Layer 1"><polygon class="cls-1" points="24.81 62.25 56.59 81.32 76.71 69.25 44.93 50.18 24.81 62.25"/><polygon class="cls-1" points="5.13 50.45 22.94 61.13 43.06 49.06 25.25 38.38 5.13 50.45"/><polygon class="cls-1" points="67.25 61.43 78.5 68.18 108.61 50.11 97.36 43.36 67.25 61.43"/><polygon class="cls-1" points="81.43 50.76 95.56 42.28 83.92 35.3 69.78 43.77 81.43 50.76"/><polygon class="cls-1" points="53.83 53.35 65.47 60.33 79.64 51.84 67.99 44.85 53.83 53.35"/><polygon class="cls-1" points="82.26 34.3 57.15 19.24 27.04 37.3 52.15 52.37 82.26 34.3"/><path class="cls-2" d="M56.87,16.28,0,50.41,56.87,84.53l56.87-34.12Zm.28,3L82.26,34.3,52.15,52.37,27,37.3ZM68,44.85l11.65,7L65.47,60.33l-11.64-7Zm13.44,5.91-11.64-7L83.92,35.3l11.64,7Zm-36.5-.58L76.71,69.25,56.6,81.32,24.81,62.25Zm52.43-6.82,11.25,6.75L78.5,68.18,67.25,61.43Zm-54.3,5.7L22.94,61.13,5.13,50.45,25.25,38.38Z"/><path class="cls-3" d="M68,15.64A11.72,11.72,0,0,1,67.48,17,11.72,11.72,0,0,0,68,15.64Z"/><path class="cls-3" d="M68.39,14.44a10.59,10.59,0,0,1-.35,1.2A10.59,10.59,0,0,0,68.39,14.44Z"/><path class="cls-1" d="M45.19,14.08c0-.26-.08-.53-.11-.8C45.11,13.55,45.14,13.82,45.19,14.08Z"/><path class="cls-3" d="M64.57,3.42A9.45,9.45,0,0,1,68.65,11a15.63,15.63,0,0,1-.26,3.45A15.63,15.63,0,0,0,68.65,11,9.45,9.45,0,0,0,64.57,3.42Z"/><path class="cls-4" d="M64.57,3.42a12.1,12.1,0,0,0-1.13-.73A13.31,13.31,0,0,0,56.83,1C56.42,1,56,1,55.62,1a14.28,14.28,0,0,0-2.31.39,13.29,13.29,0,0,0-2.12.75,11.16,11.16,0,0,0-1.88,1.07A9.44,9.44,0,0,0,45,11c0,.88,0,1.61.08,2.29,0,.27.06.54.11.8a12.8,12.8,0,0,0,1.5,4c.29.55.63,1.15,1,1.83.14.23.28.46.42.71.29.49.61,1,1,1.58.87,1.42,1.92,3.11,3.2,5.16s2.78,4.47,4.54,7.34c1.41-2.3,2.65-4.3,3.74-6.07l1.54-2.46c1.66-2.68,2.9-4.69,3.83-6.28.27-.46.51-.88.72-1.27.33-.59.6-1.12.82-1.6A11.72,11.72,0,0,0,68,15.64a10.59,10.59,0,0,0,.35-1.2A15.63,15.63,0,0,0,68.65,11,9.45,9.45,0,0,0,64.57,3.42ZM57,15.24a2,2,0,0,1-.35,0l-.36,0a1.65,1.65,0,0,1-1.1-.7,1.82,1.82,0,0,1-.31-1,1.35,1.35,0,0,1,.23-.88l.19-.35c.11-.22.25-.52.43-.95s.25-.63.4-1,.33-.91.52-1.48c.21.55.4,1,.56,1.43s.4,1,.55,1.3l.1.22.38.86a1.78,1.78,0,0,1,.09.23,1.66,1.66,0,0,1,.06.21c0,.12,0,.25,0,.45A1.78,1.78,0,0,1,57,15.24Zm6.79-2.68A7,7,0,0,0,63,9.31L60.74,11l-.59-.77,2.34-1.8a7.1,7.1,0,0,0-5.15-3V7.35h-1V5.48A7.11,7.11,0,0,0,51.19,8.1l2.09,1.61-.6.78-2-1.58a7.1,7.1,0,0,0-1,3.65h-2a9.06,9.06,0,0,1,18.11,0Z"/><path class="cls-1" d="M56.83,0C49.65,0,44,4.83,44,11c0,4.91.53,5.76,7,16.12,1.37,2.2,3,4.84,5,8.06l.84,1.36.83-1.36c1.89-3.07,3.47-5.62,4.8-7.77C69.09,16.74,69.63,15.87,69.63,11,69.63,4.93,63.89,0,56.83,0ZM68,15.64A11.72,11.72,0,0,1,67.48,17c-.22.48-.49,1-.82,1.6-.21.39-.45.81-.72,1.27-.93,1.59-2.17,3.6-3.83,6.28l-1.54,2.46c-1.09,1.77-2.33,3.77-3.74,6.07-1.76-2.87-3.26-5.29-4.54-7.34s-2.33-3.74-3.2-5.16c-.35-.57-.67-1.09-1-1.58-.14-.25-.28-.48-.42-.71-.39-.68-.73-1.28-1-1.83a12.8,12.8,0,0,1-1.5-4c0-.26-.08-.53-.11-.8C45,12.6,45,11.87,45,11a9.44,9.44,0,0,1,4.31-7.75,11.16,11.16,0,0,1,1.88-1.07,13.29,13.29,0,0,1,2.12-.75A14.28,14.28,0,0,1,55.62,1C56,1,56.42,1,56.83,1a13.31,13.31,0,0,1,6.61,1.71,12.1,12.1,0,0,1,1.13.73A9.45,9.45,0,0,1,68.65,11a15.63,15.63,0,0,1-.26,3.45A10.59,10.59,0,0,1,68,15.64Z"/><path class="cls-1" d="M49.31,3.24a11.16,11.16,0,0,1,1.88-1.07A11.16,11.16,0,0,0,49.31,3.24Z"/><path class="cls-1" d="M56.7,3.51a9.06,9.06,0,0,0-9.05,9.05h2a7.1,7.1,0,0,1,1-3.65l2,1.58.6-.78L51.19,8.1a7.11,7.11,0,0,1,5.17-2.62V7.35h1V5.5a7.1,7.1,0,0,1,5.15,3l-2.34,1.8.59.77L63,9.31a7,7,0,0,1,.8,3.25h2A9.06,9.06,0,0,0,56.7,3.51Z"/><path class="cls-1" d="M57.22,10.24c.22.54.4,1,.55,1.3C57.62,11.2,57.44,10.78,57.22,10.24Z"/><path class="cls-1" d="M58.42,13.51A1.78,1.78,0,0,1,57,15.24a1.78,1.78,0,0,0,1.41-1.73c0-.2,0-.33,0-.45C58.41,13.18,58.42,13.31,58.42,13.51Z"/><path class="cls-1" d="M58.42,13.51c0-.2,0-.33,0-.45a1.66,1.66,0,0,0-.06-.21,1.78,1.78,0,0,0-.09-.23l-.38-.86-.1-.22c-.15-.34-.33-.76-.55-1.3s-.35-.88-.56-1.43c-.19.57-.36,1.06-.52,1.48s-.28.75-.4,1-.32.73-.43.95l-.19.35a1.35,1.35,0,0,0-.23.88,1.82,1.82,0,0,0,.31,1,1.65,1.65,0,0,0,1.1.7l.36,0a2,2,0,0,0,.35,0A1.78,1.78,0,0,0,58.42,13.51Z"/><path class="cls-1" d="M58.34,12.85a1.66,1.66,0,0,1,.06.21A1.66,1.66,0,0,0,58.34,12.85Z"/><path class="cls-3" d="M99.81,24.92a8.75,8.75,0,0,1,.47,2A8.75,8.75,0,0,0,99.81,24.92Z"/><path class="cls-3" d="M95.13,19.6a12.71,12.71,0,0,1,1.75,1.22A12.71,12.71,0,0,0,95.13,19.6Z"/><path class="cls-3" d="M97.64,21.53A10.14,10.14,0,0,1,99.41,24,10.14,10.14,0,0,0,97.64,21.53Z"/><path class="cls-5" d="M100.28,26.88a8.75,8.75,0,0,0-.47-2,9.28,9.28,0,0,0-.4-.91,10.14,10.14,0,0,0-1.77-2.48c-.24-.24-.5-.48-.76-.71a12.71,12.71,0,0,0-1.75-1.22,13.35,13.35,0,0,0-6.62-1.71c-6.53,0-11.82,4.4-11.82,10s.55,5.3,11.82,23.67C99.79,33.2,100.34,33.43,100.34,27.9A8.6,8.6,0,0,0,100.28,26.88ZM88.7,32.15a2.1,2.1,0,0,1-.36,0,1.7,1.7,0,0,1-1.76-1.76,1.3,1.3,0,0,1,.23-.87c0-.1.11-.21.18-.36s.26-.52.44-1c.11-.28.25-.63.4-1s.32-.9.51-1.48c.26.67.48,1.2.66,1.66s.37.88.51,1.19.14.31.19.44l.12.25.08.17a1.83,1.83,0,0,1,.21,1A1.78,1.78,0,0,1,88.7,32.15Zm6.79-2.68a7,7,0,0,0-.8-3.25L92.43,28l-.6-.78,2.35-1.8a7.1,7.1,0,0,0-5.16-3v1.86H88V22.4A7,7,0,0,0,82.88,25L85,26.62l-.59.78-2.05-1.58a7,7,0,0,0-1,3.65h-2a9.06,9.06,0,0,1,18.11,0Z"/><path class="cls-1" d="M88.51,16.91c-7.18,0-12.8,4.83-12.8,11,0,4.91.53,5.76,7,16.12,1.37,2.2,3,4.84,5,8.06l.83,1.36.84-1.36c1.88-3.07,3.47-5.62,4.8-7.76,6.63-10.66,7.17-11.53,7.17-16.42C101.32,21.84,95.57,16.91,88.51,16.91Zm0,34.66C77.24,33.2,76.69,33.51,76.69,27.9s5.29-10,11.82-10a13.35,13.35,0,0,1,6.62,1.71,12.71,12.71,0,0,1,1.75,1.22c.26.23.52.47.76.71A10.14,10.14,0,0,1,99.41,24a9.28,9.28,0,0,1,.4.91,8.75,8.75,0,0,1,.47,2,8.6,8.6,0,0,1,.06,1C100.34,33.43,99.79,33.2,88.51,51.57Z"/><path class="cls-1" d="M88.39,20.42a9.06,9.06,0,0,0-9,9h2a7,7,0,0,1,1-3.65l2.05,1.58.59-.78L82.88,25A7,7,0,0,1,88,22.4v1.87h1V22.41a7.1,7.1,0,0,1,5.16,3l-2.35,1.8.6.78,2.26-1.74a7,7,0,0,1,.8,3.25h2A9.07,9.07,0,0,0,88.39,20.42Z"/><path class="cls-1" d="M88.34,25.72c.26.67.48,1.2.66,1.66C88.82,26.92,88.6,26.39,88.34,25.72Z"/><path class="cls-1" d="M87.43,28.24c.11-.28.25-.63.4-1C87.68,27.61,87.54,28,87.43,28.24Z"/><path class="cls-1" d="M86.81,29.55c0-.1.11-.21.18-.36C86.92,29.34,86.86,29.45,86.81,29.55Z"/><path class="cls-1" d="M89.82,29.26l.08.17Z"/><path class="cls-1" d="M89.51,28.57c.07.17.14.31.19.44C89.65,28.88,89.58,28.74,89.51,28.57Z"/><path class="cls-1" d="M90.11,30.42a1.78,1.78,0,0,1-1.41,1.73,1.78,1.78,0,0,0,1.41-1.73,1.83,1.83,0,0,0-.21-1A1.83,1.83,0,0,1,90.11,30.42Z"/><path class="cls-1" d="M89.7,29a2.72,2.72,0,0,1,.12.25Z"/><path class="cls-1" d="M89,27.38c.21.49.37.88.51,1.19C89.37,28.26,89.21,27.87,89,27.38Z"/><path class="cls-1" d="M90.11,30.42a1.83,1.83,0,0,0-.21-1l-.08-.17A2.72,2.72,0,0,0,89.7,29c0-.13-.12-.27-.19-.44s-.3-.7-.51-1.19-.4-1-.66-1.66c-.19.58-.36,1.06-.51,1.48s-.29.76-.4,1c-.18.43-.32.73-.44,1s-.13.26-.18.36a1.3,1.3,0,0,0-.23.87,1.7,1.7,0,0,0,1.76,1.76,2.1,2.1,0,0,0,.36,0A1.78,1.78,0,0,0,90.11,30.42Z"/><path class="cls-6" d="M25.35,18.6c-6.53,0-11.83,4.4-11.83,10s.55,5.3,11.83,23.67c2.11-3.45,3.85-6.24,5.28-8.53L32,41.61c2.66-4.3,4-6.54,4.62-8.35.1-.28.18-.55.25-.81a9.83,9.83,0,0,0,.23-1.18c.05-.39.08-.8.1-1.24s0-.9,0-1.42C37.17,23.08,31.88,18.6,25.35,18.6Zm.81,14a1.75,1.75,0,0,1-1,.3,2.19,2.19,0,0,1-.36,0,1.68,1.68,0,0,1-1.1-.7,1.81,1.81,0,0,1-.3-1,1.28,1.28,0,0,1,.15-.75c.06-.12.15-.26.26-.48s.25-.52.43-.95.54-1.37.92-2.52l.3.77c.28.71.51,1.26.69,1.69.74,1.71.77,1.51.77,2.24A1.76,1.76,0,0,1,26.16,32.59Zm6.16-2.41a7.12,7.12,0,0,0-.79-3.25l-2.27,1.73-.59-.77L31,26.09a7.08,7.08,0,0,0-5.15-3V25h-1V23.1a7.11,7.11,0,0,0-5.17,2.62l2.09,1.61-.6.77-2.05-1.57a7.08,7.08,0,0,0-1,3.65h-2a9.06,9.06,0,0,1,18.11,0Z"/><path class="cls-1" d="M25.35,17.62c-7.18,0-12.8,4.83-12.8,11,0,4.91.52,5.75,7,16.12,1.38,2.2,3,4.84,5,8.06l.83,1.36.83-1.36C28.07,49.72,29.65,47.17,31,45c6.62-10.66,7.16-11.53,7.16-16.41C38.15,22.55,32.41,17.62,25.35,17.62Zm11.7,13.65a9.83,9.83,0,0,1-.23,1.18c-.07.26-.15.53-.25.81-.65,1.81-2,4.05-4.62,8.35l-1.32,2.14c-1.43,2.29-3.17,5.08-5.28,8.53C14.07,33.91,13.52,34.22,13.52,28.61s5.3-10,11.83-10,11.82,4.48,11.82,10c0,.52,0,1,0,1.42S37.1,30.88,37.05,31.27Z"/><path class="cls-1" d="M36.82,32.45c-.07.26-.15.53-.25.81C36.67,33,36.75,32.71,36.82,32.45Z"/><path class="cls-1" d="M32,41.61l-1.32,2.14Z"/><path class="cls-1" d="M37.15,30c0,.44,0,.85-.1,1.24C37.1,30.88,37.13,30.47,37.15,30Z"/><path class="cls-1" d="M25.23,21.13a9.06,9.06,0,0,0-9.06,9.05h2a7.08,7.08,0,0,1,1-3.65L21.2,28.1l.6-.77-2.09-1.61a7.11,7.11,0,0,1,5.17-2.62V25h1V23.12a7.08,7.08,0,0,1,5.15,3l-2.34,1.8.59.77,2.27-1.73a7.12,7.12,0,0,1,.79,3.25h2A9.06,9.06,0,0,0,25.23,21.13Z"/><path class="cls-1" d="M23.57,30.38c.06-.12.15-.26.26-.48C23.72,30.12,23.63,30.26,23.57,30.38Z"/><path class="cls-1" d="M25.48,27.2l-.3-.77c-.38,1.15-.68,1.95-.92,2.52.24-.57.54-1.37.92-2.52Z"/><path class="cls-1" d="M26.94,31.13a1.76,1.76,0,0,1-.78,1.46,1.76,1.76,0,0,0,.78-1.46c0-.73,0-.53-.77-2.24C26.91,30.6,26.94,30.4,26.94,31.13Z"/><path class="cls-1" d="M23.72,32.16a1.68,1.68,0,0,0,1.1.7A1.68,1.68,0,0,1,23.72,32.16Z"/><path class="cls-1" d="M26.94,31.13c0-.73,0-.53-.77-2.24-.18-.43-.41-1-.69-1.69l-.3-.77c-.38,1.15-.68,1.95-.92,2.52s-.32.73-.43.95-.2.36-.26.48a1.28,1.28,0,0,0-.15.75,1.81,1.81,0,0,0,.3,1,1.68,1.68,0,0,0,1.1.7,2.19,2.19,0,0,0,.36,0,1.76,1.76,0,0,0,1.76-1.76Z"/></g></g></svg>