<svg xmlns="http://www.w3.org/2000/svg" viewBox="0 0 115.95 76.94"><defs><style>.cls-1{fill:#fff;}.cls-2{fill:#7f58a1;}.cls-3{fill:#58c6f2;}</style></defs><g id="Layer_2" data-name="Layer 2"><g id="Layer_1-2" data-name="Layer 1"><path class="cls-1" d="M72.42,56,77,53.27l-4.41-2.64A11.71,11.71,0,0,0,72.42,56Z"/><path class="cls-1" d="M69.36,48.72,44.87,34,24.56,46.21,56.64,65.46,69.2,57.92A15.22,15.22,0,0,1,69.36,48.72Z"/><polygon class="cls-1" points="4.7 34.29 22.68 45.08 42.98 32.89 25.01 22.11 4.7 34.29"/><path class="cls-1" d="M70.07,47a16.7,16.7,0,0,1,1.24-2.16,15.25,15.25,0,0,1,21.23-3.74,15.69,15.69,0,0,1,2,1.65L109.14,34,97.79,27.14,67.4,45.38Z"/><path class="cls-1" d="M74.26,46.9a11.29,11.29,0,0,0-1.09,1.94l5.58,3.35,12.54-7.52q-.39-.33-.81-.63A11.64,11.64,0,0,0,74.26,46.9Z"/><polygon class="cls-1" points="95.97 26.05 84.22 19 69.95 27.56 81.71 34.61 95.97 26.05"/><polygon class="cls-1" points="68.15 28.64 53.85 37.22 65.6 44.27 79.9 35.69 68.15 28.64"/><polygon class="cls-1" points="82.55 18 57.2 2.79 26.81 21.03 52.15 36.23 82.55 18"/><path class="cls-2" d="M91.5,44.84l-.21-.17L78.75,52.19l-5.58-3.35-.11.24a12.33,12.33,0,0,0-.45,1.29,2.5,2.5,0,0,1-.07.26h0L77,53.27,72.42,56h0l.06.26a12,12,0,0,0,.75,2.18l19.84-11.9A11.92,11.92,0,0,0,91.5,44.84Z"/><path class="cls-2" d="M56.87,0,0,34.12,56.87,68.25l13.25-8a15,15,0,0,1-.84-2.13,2.41,2.41,0,0,0-.08-.25h0L56.64,65.46,24.56,46.21,44.87,34l24.49,14.7h0l.09-.25c.15-.42.32-.84.51-1.25l.11-.23L67.4,45.38,97.79,27.14,109.14,34,94.5,42.74l.2.18a15,15,0,0,1,1.46,1.75l17.58-10.55ZM22.68,45.08,4.7,34.29,25,22.11,43,32.89Zm4.13-24L57.2,2.79,82.55,18,52.15,36.23ZM65.6,44.27,53.85,37.22l14.3-8.58,11.75,7Zm16.11-9.66L70,27.56,84.22,19,96,26.05Z"/><path class="cls-3" d="M97.57,60.1a15.26,15.26,0,0,0-1.41-15.43,15,15,0,0,0-1.46-1.75l-.2-.18a15.69,15.69,0,0,0-2-1.65,15.25,15.25,0,0,0-21.23,3.74A16.7,16.7,0,0,0,70.07,47l-.11.23c-.19.41-.36.83-.51,1.25l-.09.25h0a15.22,15.22,0,0,0-.16,9.2h0a2.41,2.41,0,0,1,.08.25,15,15,0,0,0,.84,2.13,15.25,15.25,0,0,0,24.52,4l1.53,1.08,2.94-4.2Zm-4.23.15a11.64,11.64,0,0,1-16.22,2.86,11.5,11.5,0,0,1-3.89-4.68,12,12,0,0,1-.75-2.18L72.42,56h0a11.71,11.71,0,0,1,.12-5.36h0a2.5,2.5,0,0,0,.07-.26,12.33,12.33,0,0,1,.45-1.29l.11-.24a11.29,11.29,0,0,1,1.09-1.94A11.64,11.64,0,0,1,90.48,44q.42.3.81.63l.21.17a11.92,11.92,0,0,1,1.57,1.69A11.66,11.66,0,0,1,93.34,60.25Z"/><path class="cls-3" d="M114.81,71.85l-14.6-10.2-3.14,4.56L111.66,76.4a2.62,2.62,0,0,0,1.49.54,2.07,2.07,0,0,0,.35,0,2.82,2.82,0,0,0,1.7-1.33l.09-.14A2.3,2.3,0,0,0,114.81,71.85Z"/></g></g></svg>