<svg xmlns="http://www.w3.org/2000/svg" viewBox="0 0 116.38 85.06"><defs><style>.cls-1{fill:none;}.cls-2{fill:#7f59a5;}.cls-3{fill:#41a2d0;}.cls-4{fill:#ea7d21;}.cls-5{fill:#8347ad;}</style></defs><g id="Layer_2" data-name="Layer 2"><g id="Layer_1-2" data-name="Layer 1"><path class="cls-1" d="M57,58.33H79.76l-6.18-7.22A2.91,2.91,0,0,0,72,50.45H42a2.94,2.94,0,0,0-1.62.66l-6.17,7.22H57Z"/><path class="cls-1" d="M70.55,44.26h7v.86h0V46h-.09A6,6,0,0,1,80,47.88l2.54,3.29h32.26V35.75H66.64v9.58h3.91Zm39.05,1.35a.87.87,0,1,1-.87.87A.87.87,0,0,1,109.6,45.61Zm-4.88,0a.87.87,0,1,1-.87.87A.87.87,0,0,1,104.72,45.61Zm-4.62,0a.87.87,0,1,1-.87.87A.87.87,0,0,1,100.1,45.61ZM70.55,41.12H84.41V42h0v.86H70.55Z"/><path class="cls-1" d="M32,55a1.55,1.55,0,0,1-.71.17H25.88c-2.27,0-3.74,1.21-3.74,3.08,0,.34.28.34.41.34h4.23a1.48,1.48,0,0,1,1.23.6,1,1,0,0,1,0,1.18l-3.41,4.45V80.91c0,1.12.87,1.84,2.22,1.84h6.65c1.35,0,2.22-.72,2.22-1.84a1.3,1.3,0,0,1,1.41-1.16H77.25a1.3,1.3,0,0,1,1.4,1.16,2.1,2.1,0,0,0,2.22,1.84h6.65c1.42,0,2.53-.81,2.53-1.84V64.81l-3.69-4.45a1,1,0,0,1-.08-1.19,1.44,1.44,0,0,1,1.24-.62h3.93c.13,0,.41-.23.41-.34,0-1.79-1.7-3.08-4-3.08H83a1.46,1.46,0,0,1-1.18-.54L80.73,53.2l-3.16-4.1a4.16,4.16,0,0,0-3.34-1.46H40.08a4.18,4.18,0,0,0-3.33,1.44L32.5,54.59a1.2,1.2,0,0,1-.41.33v.35A.81.81,0,0,0,32,55ZM43,67.63c0,1.18-1.25,1.8-2.48,1.8l-10.36-.75h0a1.87,1.87,0,0,1-2.08-1.8v-2c0-1,1.11-1.8,2.48-1.8L41,64.85h0A2,2,0,0,1,43,66.63ZM83.25,63.1c1.6-.08,2.67.79,2.67,1.78v2a2.09,2.09,0,0,1-2.18,1.8l-10.18.75h0c-2.38,0-2.56-1.38-2.56-1.8v-1a2.1,2.1,0,0,1,2.18-1.8Zm-44.31-13A5.18,5.18,0,0,1,42,48.85H72a5.18,5.18,0,0,1,3.1,1.23l7.36,8.59a.68.68,0,0,1,.07.83,1,1,0,0,1-.86.43H32.37a1,1,0,0,1-.86-.43.68.68,0,0,1,.07-.83Z"/><path class="cls-1" d="M94.67,58.21c0,1.39-1.54,2.65-3.22,2.65H90.18l2.43,2.93a1,1,0,0,1,.24.66v3.78h21.91V52.81H87.84C91.73,52.82,94.67,55.14,94.67,58.21ZM109.6,62.7a.87.87,0,1,1-.87.87A.87.87,0,0,1,109.6,62.7Zm-4.88,0a.87.87,0,1,1-.87.87A.87.87,0,0,1,104.72,62.7Zm-4.62,0a.87.87,0,1,1-.87.87A.87.87,0,0,1,100.1,62.7Z"/><path class="cls-1" d="M66.64,33v1h48.12V18.67H66.64Zm43-4.16a.87.87,0,1,1-.87.87A.87.87,0,0,1,109.6,28.82Zm-4.88,0a.87.87,0,1,1-.87.87A.87.87,0,0,1,104.72,28.82Zm-4.62,0a.87.87,0,1,1-.87.87A.87.87,0,0,1,100.1,28.82ZM71,24.35H84.86v1.72H71Zm0,3.15h7v1.71H71Z"/><path class="cls-1" d="M66.64,16V17h48.12V1.62H66.64Zm43-4.48a.87.87,0,1,1-.87.87A.87.87,0,0,1,109.6,11.55Zm-4.88,0a.87.87,0,1,1-.87.87A.87.87,0,0,1,104.72,11.55Zm-4.62,0a.87.87,0,1,1-.87.87A.87.87,0,0,1,100.1,11.55Zm-29.55-5H84.41v.86h0v.86H70.55Zm0,3.15h7v.86h0v.85h-7Z"/><path class="cls-1" d="M40.83,66.43,30.36,64.67a.49.49,0,0,0-.34.22v2s.29.19.32.2l10.27.75s.46,0,.46-.2v-1A.37.37,0,0,0,40.83,66.43Z"/><path class="cls-1" d="M72.93,66.63v1a.49.49,0,0,0,0,.14h0a2,2,0,0,0,.51,0l10.19-.74a.4.4,0,0,0,.32-.2v-2s-.16-.19-.54-.19L73.36,66.42C73.09,66.44,72.94,66.56,72.93,66.63Z"/><path class="cls-2" d="M65,17.37V13h0v4.38S65,17.36,65,17.37Z"/><path class="cls-2" d="M65,18.24a0,0,0,0,1,0,0v8.88h0Z"/><path class="cls-2" d="M65,34.33v-4.8h0v4.76S65,34.32,65,34.33Z"/><polygon class="cls-3" points="84.41 7.46 70.55 7.46 84.41 7.46 84.41 6.6 70.55 6.6 70.55 8.32 84.41 8.32 84.41 7.46"/><polygon class="cls-3" points="77.53 10.61 70.55 10.61 77.53 10.61 77.53 9.75 70.55 9.75 70.55 11.46 77.53 11.46 77.53 10.61"/><rect class="cls-3" x="71" y="24.35" width="13.86" height="1.72"/><rect class="cls-3" x="71" y="27.5" width="6.98" height="1.72"/><polygon class="cls-3" points="84.41 41.98 70.55 41.98 84.41 41.98 84.41 41.12 70.55 41.12 70.55 42.83 84.41 42.83 84.41 41.98"/><path class="cls-3" d="M77.53,45.12h0v-.86h-7v1.07h3.68a8.14,8.14,0,0,1,3.21.65h.09Z"/><path class="cls-4" d="M100.1,64.44a.87.87,0,1,0-.87-.87A.87.87,0,0,0,100.1,64.44Z"/><path class="cls-4" d="M104.72,64.44a.87.87,0,1,0-.87-.87A.87.87,0,0,0,104.72,64.44Z"/><path class="cls-4" d="M109.6,64.44a.87.87,0,1,0-.87-.87A.87.87,0,0,0,109.6,64.44Z"/><path class="cls-4" d="M100.1,47.35a.87.87,0,1,0-.87-.87A.87.87,0,0,0,100.1,47.35Z"/><path class="cls-4" d="M104.72,47.35a.87.87,0,1,0-.87-.87A.87.87,0,0,0,104.72,47.35Z"/><path class="cls-4" d="M109.6,47.35a.87.87,0,1,0-.87-.87A.87.87,0,0,0,109.6,47.35Z"/><path class="cls-4" d="M100.1,13.29a.87.87,0,1,0-.87-.87A.87.87,0,0,0,100.1,13.29Z"/><path class="cls-4" d="M104.72,13.29a.87.87,0,1,0-.87-.87A.87.87,0,0,0,104.72,13.29Z"/><path class="cls-4" d="M109.6,13.29a.87.87,0,1,0-.87-.87A.87.87,0,0,0,109.6,13.29Z"/><circle class="cls-4" cx="100.1" cy="29.69" r="0.87"/><path class="cls-4" d="M104.72,30.56a.87.87,0,1,0-.87-.87A.87.87,0,0,0,104.72,30.56Z"/><path class="cls-4" d="M109.6,30.56a.87.87,0,1,0-.87-.87A.87.87,0,0,0,109.6,30.56Z"/><path class="cls-5" d="M32.09,55.27v-.35L32,55A.81.81,0,0,1,32.09,55.27Z"/><rect class="cls-3" x="13.42" y="17.9" width="5.25" height="1.65"/><path class="cls-4" d="M41.06,64.85h0L30.56,63.08c-1.37,0-2.48.81-2.48,1.8v2a1.87,1.87,0,0,0,2.08,1.8h0l10.36.75c1.23,0,2.48-.62,2.48-1.8v-1A2,2,0,0,0,41.06,64.85Zm0,2.78c0,.16-.49.19-.46.2l-10.27-.75s-.29-.2-.32-.2v-2a.49.49,0,0,1,.34-.22l10.47,1.76a.37.37,0,0,1,.24.2Z"/><path class="cls-4" d="M83.25,63.1,73.17,64.83A2.1,2.1,0,0,0,71,66.63v1c0,.42.18,1.8,2.56,1.8h0l10.18-.75a2.09,2.09,0,0,0,2.18-1.8v-2C85.92,63.89,84.85,63,83.25,63.1ZM84,66.88a.4.4,0,0,1-.32.2l-10.19.74a2,2,0,0,1-.51,0h0a.49.49,0,0,1,0-.14v-1c0-.07.16-.19.43-.21l10.08-1.73c.38,0,.53.15.54.19Z"/><path class="cls-2" d="M31.51,59.5a1,1,0,0,0,.86.43H81.63a1,1,0,0,0,.86-.43.68.68,0,0,0-.07-.83l-7.36-8.59A5.18,5.18,0,0,0,72,48.85H42a5.18,5.18,0,0,0-3.1,1.23l-7.36,8.59A.68.68,0,0,0,31.51,59.5Zm8.91-8.39A2.94,2.94,0,0,1,42,50.45H72a2.91,2.91,0,0,1,1.62.66l6.18,7.22H34.25Z"/><polygon class="cls-2" points="44.01 45.33 59.32 45.33 62.96 45.33 65.02 45.33 65.02 45.05 44.01 45.05 44.01 45.33"/><rect class="cls-2" x="65.02" y="45.05" width="0.92" height="0.28"/><rect class="cls-3" x="47.92" y="17.94" width="13.86" height="0.86"/><rect class="cls-3" x="47.92" y="18.8" width="13.86" height="0.86"/><polygon class="cls-3" points="47.92 21.95 54.9 21.95 47.92 21.95 47.92 22.81 54.9 22.81 54.9 21.09 47.92 21.09 47.92 21.95"/><polygon class="cls-3" points="48.37 36.55 62.23 36.55 48.37 36.55 48.37 37.41 62.23 37.41 62.23 35.7 48.37 35.7 48.37 36.55"/><polygon class="cls-3" points="48.37 39.7 55.35 39.7 48.37 39.7 48.37 40.56 55.35 40.56 55.35 38.84 48.37 38.84 48.37 39.7"/><path class="cls-1" d="M19.34,58.21a4.93,4.93,0,0,1,.09-.87H1.65v8.17a1,1,0,0,0,1,1H21.75v-2a1,1,0,0,1,.22-.62l2.27-3H22.55C20.46,60.86,19.34,59.5,19.34,58.21Zm-3.29,6.33a2.63,2.63,0,1,1,2.62-2.63A2.63,2.63,0,0,1,16.05,64.54Z"/><circle class="cls-1" cx="16.05" cy="61.91" r="0.97"/><path class="cls-3" d="M16.05,59.29a2.63,2.63,0,1,0,2.62,2.62A2.62,2.62,0,0,0,16.05,59.29Zm0,3.59a1,1,0,1,1,1-1A1,1,0,0,1,16.05,62.88Z"/><path class="cls-1" d="M42.48,29.15a1.26,1.26,0,0,1,0-.28C42.44,29.05,42.46,29.21,42.48,29.15Z"/><path class="cls-1" d="M65,18.24v-.87s0,0,0,0V13H44V27.23l21-.09V18.26A0,0,0,0,0,65,18.24ZM54.9,22.81h-7V22h0v-.86h7Zm6.88-4v.86H47.92V18.8h0v-.86H61.78v.86Z"/><path class="cls-1" d="M65,34.29V29.53H44V45.05H65v-9.6s0,0,0,0V34.33S65,34.31,65,34.29Zm-9.67,6.27h-7V39.7h0v-.86h7Zm6.88-3.15H48.37v-.86h0V35.7H62.23Z"/><path class="cls-1" d="M42.54,29.05s0,.06-.06.1S42.52,29.14,42.54,29.05Z"/><path class="cls-2" d="M81.23,51.19h-.64l.59.32a9,9,0,0,1-.35,1.28h2.29l0,0h.62L82.5,51.17H81.24Z"/><polygon class="cls-2" points="66.44 29.43 66.44 27.14 66.33 27.14 66.33 29.45 66.44 29.43"/><path class="cls-1" d="M44,13V27.23l21-.09v2.39H44V45.05H42.64v1.32s-.07-.1-.1-.16a1.28,1.28,0,0,0-.15.58l.25.05v.5h23.3V47.1c.23.15.47.3.7.43v-2.2h-.7v-.28H65v-9.6s0,0,0,0v3.31h1.3V29.45h.12v-2.3h-.12V11.28H65v.06h0V13Z"/><path class="cls-1" d="M42.54,29.05s0,.06-.06.1S42.52,29.14,42.54,29.05Z"/><path class="cls-1" d="M42.48,29.15a1.26,1.26,0,0,1,0-.28C42.44,29.05,42.46,29.21,42.48,29.15Z"/><path class="cls-1" d="M70.55,46h6.89A6,6,0,0,1,80,47.88l2.54,3.29h32.26V35.75H66.64v9.58h3.91Z"/><path class="cls-1" d="M81.23,51.19h-.64l.59.32a9,9,0,0,1-.35,1.28h2.29l0,0h.62L82.5,51.17H81.24Z"/><path class="cls-1" d="M94.67,58.21c0,1.39-1.54,2.65-3.22,2.65H90.18l2.43,2.93a1,1,0,0,1,.24.66v3.78h21.91V52.81H87.84C91.73,52.82,94.67,55.14,94.67,58.21Z"/><polygon class="cls-1" points="66.64 16.03 66.64 16.95 114.76 16.95 114.76 1.62 66.64 1.62 66.64 16.03"/><path class="cls-1" d="M19.34,58.21a4.93,4.93,0,0,1,.09-.87H1.65v8.17a1,1,0,0,0,1,1H21.75v-2a1,1,0,0,1,.22-.62l2.27-3H22.55C20.46,60.86,19.34,59.5,19.34,58.21Z"/><polygon class="cls-1" points="66.64 32.98 66.64 33.99 114.76 33.99 114.76 18.66 66.64 18.66 66.64 32.98"/><path class="cls-1" d="M19.34,58.21a4.93,4.93,0,0,1,.09-.87H1.65v8.17a1,1,0,0,0,1,1H21.75v-2a1,1,0,0,1,.22-.62l2.27-3H22.55C20.46,60.86,19.34,59.5,19.34,58.21Z"/><path class="cls-1" d="M42.54,29.05s0,.06-.06.1S42.52,29.14,42.54,29.05Z"/><path class="cls-1" d="M42.48,29.15a1.26,1.26,0,0,1,0-.28C42.44,29.05,42.46,29.21,42.48,29.15Z"/><path class="cls-1" d="M19.34,58.21a4.93,4.93,0,0,1,.09-.87H1.65v8.17a1,1,0,0,0,1,1H21.75v-2a1,1,0,0,1,.22-.62l2.27-3H22.55C20.46,60.86,19.34,59.5,19.34,58.21Z"/><path class="cls-1" d="M42.54,29.05s0,.06-.06.1S42.52,29.14,42.54,29.05Z"/><path class="cls-1" d="M42.48,29.15a1.26,1.26,0,0,1,0-.28C42.44,29.05,42.46,29.21,42.48,29.15Z"/><path class="cls-2" d="M91.36,68.23v1.62h1.49V68.23Z"/><path class="cls-2" d="M65.94,46.19h0v.91c.23.15.47.3.7.43v-2.2h-.7v.86Z"/><rect class="cls-2" x="65.02" y="27.14" width="0.01" height="2.39" transform="translate(-0.34 0.8) rotate(-0.7)"/><rect class="cls-2" x="65.02" y="11.34" width="0.01" height="1.62"/><path class="cls-2" d="M42.54,46.21a1.28,1.28,0,0,0-.15.58l.25.05v-.47S42.57,46.27,42.54,46.21Z"/><path class="cls-1" d="M42.54,29.05s0,.06-.06.1S42.52,29.14,42.54,29.05Z"/><path class="cls-1" d="M30.44,52.81v1.64h.83A.82.82,0,0,1,32,55a1.55,1.55,0,0,1-.71.17H25.88c-2.27,0-3.74,1.21-3.74,3.08,0,.34.28.34.41.34h4.23a1.48,1.48,0,0,1,1.23.6,1,1,0,0,1,0,1.18l-3.41,4.45V80.91c0,1.12.87,1.84,2.22,1.84h6.65c1.35,0,2.22-.72,2.22-1.84a1.3,1.3,0,0,1,1.41-1.16H77.25a1.3,1.3,0,0,1,1.4,1.16,2.1,2.1,0,0,0,2.22,1.84h6.65c1.42,0,2.53-.81,2.53-1.84V64.81l-3.69-4.45a1,1,0,0,1-.08-1.19,1.44,1.44,0,0,1,1.24-.62h3.93c.13,0,.41-.23.41-.34,0-1.79-1.7-3.08-4-3.08H83a1.46,1.46,0,0,1-1.18-.54L80.73,53.2l-3.16-4.1a4.16,4.16,0,0,0-3.34-1.46H40.08a4.18,4.18,0,0,0-3.33,1.44L32.5,54.59a1.2,1.2,0,0,1-.41.33V50.8l-1.54,2Z"/><rect class="cls-1" x="13.42" y="17.9" width="5.25" height="1.65"/><path class="cls-1" d="M42.48,29.15a1.26,1.26,0,0,1,0-.28C42.44,29.05,42.46,29.21,42.48,29.15Z"/><path class="cls-1" d="M19.34,58.21a4.93,4.93,0,0,1,.09-.87H1.65v8.17a1,1,0,0,0,1,1H21.75v-2a1,1,0,0,1,.22-.62l2.27-3H22.55C20.46,60.86,19.34,59.5,19.34,58.21Z"/><path class="cls-1" d="M30.44,23.15H1.65V21.5H30.44V16.93a1,1,0,0,0-1-1H2.63a1,1,0,0,0-1,1V21.5h0V55.69h18.4a6.57,6.57,0,0,1,5.83-2.88h4.56V23.15Zm-17-5.25h5.25v1.66H13.42Z"/><path class="cls-2" d="M32.09,22.33h0a.86.86,0,0,0,0-.17A.86.86,0,0,1,32.09,22.33Z"/><path class="cls-2" d="M30.44,21.5h.83a.81.81,0,0,1,.58.24.81.81,0,0,0-.58-.24h-.83v1.65h0Z"/><path class="cls-2" d="M65,46.19v.31l.92.6v-.91Z"/><path class="cls-2" d="M63.28,45.47H65v-.14H63Z"/><rect class="cls-2" x="65.02" y="45.33" width="0.28" height="0.14"/><path class="cls-1" d="M32.09,22.33h0a.86.86,0,0,0,0-.17A.86.86,0,0,1,32.09,22.33Z"/><path class="cls-1" d="M65,45.47h.28v-.14H63l.31.14Z"/><path class="cls-1" d="M42.54,29.05s0,.06-.06.1S42.52,29.14,42.54,29.05Z"/><path class="cls-1" d="M42.48,29.15a1.26,1.26,0,0,1,0-.28C42.44,29.05,42.46,29.21,42.48,29.15Z"/><path class="cls-1" d="M44,13V27.23l21-.09v2.39H44v15.8H65.94v-.28H65v-9.6s0,0,0,0v3.31h1.3V29.45h.12v-2.3h-.12V11.28H65v.06h0V13Z"/><path class="cls-1" d="M81.23,51.19h-.64l.59.32a9,9,0,0,1-.35,1.28h2.29l0,0h.62L82.5,51.17H81.24Z"/><path class="cls-1" d="M94.67,58.21c0,1.39-1.54,2.65-3.22,2.65H90.18l2.43,2.93a1,1,0,0,1,.24.66v3.78h21.91V52.81H87.84C91.73,52.82,94.67,55.14,94.67,58.21Z"/><path class="cls-1" d="M42.64,46.37s-.07-.1-.1-.16a1.28,1.28,0,0,0-.15.58l.25.05Z"/><path class="cls-1" d="M70.55,46h6.89A6,6,0,0,1,80,47.88l2.54,3.29h32.26V35.75H66.64v9.58h3.91Z"/><path class="cls-1" d="M65,46.19v.31l.92.6c.23.15.47.3.7.43v-2.2h-.7v.86Z"/><polygon class="cls-1" points="66.64 32.98 66.64 33.99 114.76 33.99 114.76 18.66 66.64 18.66 66.64 32.98"/><polygon class="cls-1" points="66.64 16.03 66.64 16.95 114.76 16.95 114.76 1.62 66.64 1.62 66.64 16.03"/><path class="cls-1" d="M91.36,68.23v1.62h1.49V68.23Z"/><path class="cls-1" d="M1.65,23.15V55.69h18.4a6.57,6.57,0,0,1,5.83-2.88h4.56V23.15H1.65V21.5H30.44V16.93a1,1,0,0,0-1-1H2.63a1,1,0,0,0-1,1V21.5h0Z"/><path class="cls-1" d="M30.44,21.5h.83a.81.81,0,0,1,.58.24.81.81,0,0,0-.58-.24h-.83v1.65h0Z"/><path class="cls-1" d="M19.34,58.21a4.93,4.93,0,0,1,.09-.87H1.65v8.17a1,1,0,0,0,1,1H21.75v-2a1,1,0,0,1,.22-.62l2.27-3H22.55C20.46,60.86,19.34,59.5,19.34,58.21Z"/><path class="cls-1" d="M86.28,59.17a1.44,1.44,0,0,1,1.24-.62h3.93c.13,0,.41-.23.41-.34,0-1.79-1.7-3.08-4-3.08H83a1.46,1.46,0,0,1-1.18-.54L80.73,53.2l-3.16-4.1a4.16,4.16,0,0,0-3.34-1.46H40.08a4.18,4.18,0,0,0-3.33,1.44L32.5,54.59a1.2,1.2,0,0,1-.41.33L32,55a1.55,1.55,0,0,1-.71.17H25.88c-2.27,0-3.74,1.21-3.74,3.08,0,.34.28.34.41.34h4.23a1.48,1.48,0,0,1,1.23.6,1,1,0,0,1,0,1.18l-3.41,4.45V80.91c0,1.12.87,1.84,2.22,1.84h6.65c1.35,0,2.22-.72,2.22-1.84a1.3,1.3,0,0,1,1.41-1.16H77.25a1.3,1.3,0,0,1,1.4,1.16,2.1,2.1,0,0,0,2.22,1.84h6.65c1.42,0,2.53-.81,2.53-1.84V64.81l-3.69-4.45A1,1,0,0,1,86.28,59.17Z"/><path class="cls-2" d="M116.38,1.32A1.32,1.32,0,0,0,116,.39a1.33,1.33,0,0,0-.94-.39H66.34a1.29,1.29,0,0,0-.93.39,1.29,1.29,0,0,0-.39.93v10h0v-.06h1.3V27.14h.12v2.3h-.12v9.27H65V35.41s0,0,0,0v9.6h.92v.28h.7V35.75h48.12V51.17H82.5l1.26,1.64h31V68.23H92.85v1.62h22.21a1.3,1.3,0,0,0,1.32-1.31v-16a1.5,1.5,0,0,0-.1-.52,1.45,1.45,0,0,0,.1-.51v-16a1.41,1.41,0,0,0-.14-.58,1.41,1.41,0,0,0,.14-.58v-16a1.17,1.17,0,0,0-.09-.45,1.22,1.22,0,0,0,.09-.46ZM114.76,34H66.64V18.67h48.12Zm0-17H66.64V1.62h48.12Z"/><path class="cls-1" d="M42.48,29.15a1.26,1.26,0,0,1,0-.28C42.44,29.05,42.46,29.21,42.48,29.15Z"/><path class="cls-1" d="M42.54,29.05s0,.06-.06.1S42.52,29.14,42.54,29.05Z"/><path class="cls-1" d="M65,45.47h.28v-.14H63l.31.14Z"/><path class="cls-1" d="M42.64,46.37s-.07-.1-.1-.16a1.28,1.28,0,0,0-.15.58l.25.05Z"/><path class="cls-1" d="M32.09,22.33h0a.86.86,0,0,0,0-.17A.86.86,0,0,1,32.09,22.33Z"/><path class="cls-1" d="M87.52,58.55h3.93c.13,0,.41-.23.41-.34,0-1.79-1.7-3.08-4-3.08H83a1.46,1.46,0,0,1-1.18-.54L80.73,53.2l-3.16-4.1a4.16,4.16,0,0,0-3.34-1.46H40.08a4.18,4.18,0,0,0-3.33,1.44L32.5,54.59a1.2,1.2,0,0,1-.41.33L32,55a1.55,1.55,0,0,1-.71.17H25.88c-2.27,0-3.74,1.21-3.74,3.08,0,.34.28.34.41.34h4.23a1.48,1.48,0,0,1,1.23.6,1,1,0,0,1,0,1.18l-3.41,4.45V80.91c0,1.12.87,1.84,2.22,1.84h6.65c1.35,0,2.22-.72,2.22-1.84a1.3,1.3,0,0,1,1.41-1.16H77.25a1.3,1.3,0,0,1,1.4,1.16,2.1,2.1,0,0,0,2.22,1.84h6.65c1.42,0,2.53-.81,2.53-1.84V64.81l-3.69-4.45a1,1,0,0,1-.08-1.19A1.44,1.44,0,0,1,87.52,58.55Z"/><path class="cls-1" d="M30.44,21.5h.83a.81.81,0,0,1,.58.24.81.81,0,0,0-.58-.24h-.83v1.65h0Z"/><path class="cls-1" d="M1.65,23.15V55.69h18.4a6.57,6.57,0,0,1,5.83-2.88h4.56V23.15H1.65V21.5H30.44V16.93a1,1,0,0,0-1-1H2.63a1,1,0,0,0-1,1V21.5h0Z"/><path class="cls-1" d="M19.34,58.21a4.93,4.93,0,0,1,.09-.87H1.65v8.17a1,1,0,0,0,1,1H21.75v-2a1,1,0,0,1,.22-.62l2.27-3H22.55C20.46,60.86,19.34,59.5,19.34,58.21Z"/><path class="cls-2" d="M94.67,58.21c0-3.07-2.94-5.39-6.83-5.4h-4.7l0,0H80.83a9,9,0,0,0,.35-1.28l-.59-.32h.64v0H82.5L80,47.88A6,6,0,0,0,77.44,46a8.14,8.14,0,0,0-3.21-.65H66.64v2.2c-.23-.13-.47-.28-.7-.43L65,46.5v-.31h.92v-.86H44V29.53H65V27.14l-21,.09V13H65V11.34H43.71a1.29,1.29,0,0,0-.93.39,1.31,1.31,0,0,0-.39.93V45.33H40.08a7.16,7.16,0,0,0-5.72,2.53L32.09,50.8V22.33h0a.86.86,0,0,0,0-.17.86.86,0,0,1,0,.17v-5.4a2.62,2.62,0,0,0-2.62-2.63H2.63A2.63,2.63,0,0,0,0,16.93v5.4a.83.83,0,0,1,.83-.83h0a.83.83,0,0,0-.83.83V64H0v1.54a2.63,2.63,0,0,0,2.63,2.63H21.75V80.91c0,2.41,2.12,4.15,5,4.15h6.65c2.37,0,4.28-1.19,4.86-3H76a5.12,5.12,0,0,0,4.83,3h6.65c3,0,5.33-1.82,5.33-4.15V69.85H91.36V68.23h1.49V64.45a1,1,0,0,0-.24-.66l-2.43-2.93h1.27C93.13,60.86,94.67,59.6,94.67,58.21ZM65,45.33h.28v.14h-2L63,45.33ZM42.48,29.15s.05-.07.06-.1,0,.15-.06.1,0-.1,0-.28A1.26,1.26,0,0,0,42.48,29.15Zm.06,17.06c0,.06.07.11.1.16v.47l-.25-.05A1.28,1.28,0,0,1,42.54,46.21ZM1.65,16.93a1,1,0,0,1,1-1H29.47a1,1,0,0,1,1,1V21.5H1.65v1.65H30.44V21.5h.83a.81.81,0,0,1,.58.24.81.81,0,0,0-.58-.24h-.83v1.65h0V52.81H25.88a6.57,6.57,0,0,0-5.83,2.88H1.65V21.5h0ZM22,63.83a1,1,0,0,0-.22.62v2H2.63a1,1,0,0,1-1-1V57.34H19.43a4.93,4.93,0,0,0-.09.87c0,1.29,1.12,2.65,3.21,2.65h1.69Zm64.39-3.47,3.69,4.45v16.1c0,1-1.11,1.84-2.53,1.84H80.87a2.1,2.1,0,0,1-2.22-1.84,1.3,1.3,0,0,0-1.4-1.16H37.06a1.3,1.3,0,0,0-1.41,1.16c0,1.12-.87,1.84-2.22,1.84H26.78c-1.35,0-2.22-.72-2.22-1.84V64.78L28,60.33a1,1,0,0,0,0-1.18,1.48,1.48,0,0,0-1.23-.6H22.55c-.13,0-.41,0-.41-.34,0-1.87,1.47-3.08,3.74-3.08h5.44A1.55,1.55,0,0,0,32,55l.06,0a1.2,1.2,0,0,0,.41-.33l4.25-5.51a4.18,4.18,0,0,1,3.33-1.44H74.23a4.16,4.16,0,0,1,3.34,1.46l3.16,4.1,1.08,1.39a1.46,1.46,0,0,0,1.18.54h4.83c2.34,0,4,1.29,4,3.08,0,.11-.28.34-.41.34H87.52a1.44,1.44,0,0,0-1.24.62A1,1,0,0,0,86.36,60.36Z"/><path class="cls-2" d="M65,34.33v1.08a1.27,1.27,0,0,1,.14-.54A1.27,1.27,0,0,1,65,34.33Z"/><path class="cls-2" d="M65.11,17.81a1.32,1.32,0,0,1-.08-.44v.87A1.22,1.22,0,0,1,65.11,17.81Z"/><path class="cls-2" d="M65.3,13H65v4.4a1.32,1.32,0,0,0,.08.44,1.22,1.22,0,0,0-.08.43v8.9h1.3V11.28H65v.06h.27Z"/><path class="cls-2" d="M65,29.53v4.8a1.27,1.27,0,0,0,.14.54,1.27,1.27,0,0,0-.14.54v3.31h1.3V29.45l-1,.08Z"/><rect class="cls-2" x="65.03" y="11.34" width="0.27" height="1.62"/><polygon class="cls-2" points="65.03 29.53 65.3 29.53 66.33 29.45 66.33 27.14 65.03 27.14 65.03 29.53"/></g></g></svg>