<svg id="Layer_1" data-name="Layer 1" xmlns="http://www.w3.org/2000/svg" viewBox="0 0 60 54"><defs><style>.cls-1{fill:#4f2d82;}.cls-1,.cls-2{fill-rule:evenodd;}.cls-2{fill:#f6ac1c;}</style></defs><path class="cls-1" d="M36.25,11.19v-5a.77.77,0,0,1,.82-.69.75.75,0,0,1,.78.69v5a.75.75,0,0,1-.78.69A.77.77,0,0,1,36.25,11.19Z"/><path class="cls-2" d="M38.59,3.64A1.55,1.55,0,0,0,37.05,2.1a1.52,1.52,0,0,0-1.54,1.54,1.52,1.52,0,0,0,1.54,1.54A1.55,1.55,0,0,0,38.59,3.64Zm-5,0A3.46,3.46,0,1,1,37.05,7.1,3.45,3.45,0,0,1,33.59,3.64Z"/><path class="cls-1" d="M48.94,28.12l-4.26-2.55a.71.71,0,0,1-.23-1,.66.66,0,0,1,.91-.29l4.3,2.6a.7.7,0,0,1,.23.94A.65.65,0,0,1,48.94,28.12Z"/><path class="cls-2" d="M53.11,29.42a1.55,1.55,0,0,0-.65-2.16,1.76,1.76,0,0,0-2.25.56,1.58,1.58,0,0,0,.6,2.16A1.81,1.81,0,0,0,53.11,29.42Zm-3.3,2.2a3.3,3.3,0,0,1-1.35-4.73,3.77,3.77,0,0,1,5-1.27,3.34,3.34,0,0,1,1.35,4.73A3.81,3.81,0,0,1,49.81,31.62Z"/><path class="cls-1" d="M44.4,16.19a.8.8,0,0,1,.23-1l4.26-2.58a.76.76,0,0,1,1,.29.81.81,0,0,1-.27,1l-4.26,2.58A.68.68,0,0,1,44.4,16.19Z"/><path class="cls-2" d="M52.73,13.13a1.39,1.39,0,0,0,.56-2,1.6,1.6,0,0,0-2.11-.52,1.41,1.41,0,0,0-.61,2A1.65,1.65,0,0,0,52.73,13.13Zm-3.8.36A3.15,3.15,0,0,1,50.19,9a3.59,3.59,0,0,1,4.74,1.23,3.12,3.12,0,0,1-1.27,4.45A3.59,3.59,0,0,1,48.93,13.49Z"/><path class="cls-1" d="M21.59,29.67l-6.93-4.09-4,2.4a.69.69,0,0,1-1-.28.76.76,0,0,1,.23-1l3.91-2.3V16.2L9.61,13.71a.76.76,0,0,1-.28-1,.74.74,0,0,1,1-.28l4.22,2.48,7-4.13V6.21a.72.72,0,0,1,.69-.71.72.72,0,0,1,.73.71V11l6.89,4.08a1,1,0,0,1,.37,1.32,1,1,0,0,1-1.29.37l-6.84-4-6.38,3.75V24l6.84,4a1,1,0,0,1,.37,1.32A.92.92,0,0,1,21.59,29.67Z"/><path class="cls-2" d="M23.72,3.64A1.59,1.59,0,0,0,22.15,2.1a1.54,1.54,0,0,0,0,3.08A1.59,1.59,0,0,0,23.72,3.64Zm-5,0A3.46,3.46,0,1,1,22.15,7.1,3.44,3.44,0,0,1,18.71,3.64Z"/><path class="cls-2" d="M8.62,30.51a1.59,1.59,0,0,0,.51-2.16A1.54,1.54,0,1,0,6.46,29.9,1.61,1.61,0,0,0,8.62,30.51Zm-3.85.38A3.54,3.54,0,0,1,6.08,26.1a3.48,3.48,0,0,1,4.74,1.32,3.44,3.44,0,0,1-1.27,4.73A3.51,3.51,0,0,1,4.77,30.89Z"/><path class="cls-2" d="M8.63,12.61a1.38,1.38,0,0,0-.56-2,1.61,1.61,0,0,0-2.13.52,1.39,1.39,0,0,0,.57,2A1.56,1.56,0,0,0,8.63,12.61ZM5.52,14.72a3.17,3.17,0,0,1-1.27-4.45A3.69,3.69,0,0,1,9.06,9a3.22,3.22,0,0,1,1.27,4.49A3.72,3.72,0,0,1,5.52,14.72Z"/><path class="cls-1" d="M16.81,40.68a.72.72,0,0,1,.23-1l4.26-2.63a.71.71,0,0,1,.95.28.76.76,0,0,1-.27,1l-4.21,2.58A.7.7,0,0,1,16.81,40.68Z"/><path class="cls-2" d="M15.48,43.27A1.6,1.6,0,0,0,16,41.11a1.57,1.57,0,0,0-2.11-.56,1.59,1.59,0,0,0-.56,2.15A1.54,1.54,0,0,0,15.48,43.27Zm-3.8.37a3.49,3.49,0,0,1,6.05-3.47,3.49,3.49,0,0,1-6.05,3.47Z"/><path class="cls-1" d="M41.45,40.92l-4.26-2.58a.78.78,0,0,1-.23-1,.72.72,0,0,1,1-.28l4.26,2.63a.78.78,0,0,1,.27,1A.76.76,0,0,1,41.45,40.92Z"/><path class="cls-2" d="M45.3,42.7a1.58,1.58,0,0,0-.56-2.15,1.64,1.64,0,0,0-2.17.56,1.59,1.59,0,0,0,.61,2.16A1.56,1.56,0,0,0,45.3,42.7Zm-3.11,2.21a3.47,3.47,0,1,1,3.49-6A3.41,3.41,0,0,1,47,43.64,3.45,3.45,0,0,1,42.19,44.91Z"/><path class="cls-1" d="M28.86,47.33v-5a.78.78,0,0,1,1.55,0v5a.7.7,0,0,1-.78.69C29.17,48,28.81,47.74,28.86,47.33Z"/><path class="cls-2" d="M31.15,50.39a1.54,1.54,0,0,0-3.08,0,1.54,1.54,0,1,0,3.08,0Zm-5,0a3.46,3.46,0,1,1,3.46,3.47A3.44,3.44,0,0,1,26.15,50.39Z"/><path class="cls-1" d="M36.81,28l6.54-3.76V16.7l-6.54-3.77L30.26,16.7v7.53ZM29.32,41.12l6.55-3.77V29.68l-6.55-3.76-6.55,3.76v7.67Zm-.47,1.93-7.54-4.33a1,1,0,0,1-.47-.85V29.26a1.13,1.13,0,0,1,.47-1l7-4V16.42a.33.33,0,0,1,.05-.19,1,1,0,0,1,.47-.94L36.34,11a.93.93,0,0,1,1,0l7.48,4.28a1,1,0,0,1,.48.84v8.66a.9.9,0,0,1-.48.8l-7,4.09v8.19a.94.94,0,0,1-.47.85l-7.54,4.33A.89.89,0,0,1,28.85,43.05Z"/></svg>