<?xml version="1.0" encoding="utf-8"?>
<!-- Generator: Adobe Illustrator 26.0.2, SVG Export Plug-In . SVG Version: 6.00 Build 0)  -->
<svg version="1.1" id="Layer_1" xmlns="http://www.w3.org/2000/svg" xmlns:xlink="http://www.w3.org/1999/xlink" x="0px" y="0px"
	 viewBox="0 0 250 150" enable-background="new 0 0 250 150" xml:space="preserve">
<g>
	<rect x="124.279" y="59.829" fill="#81549C" width="3.556" height="53.065"/>
	<path fill="#81549C" d="M126.054,114.671c-14.283,0-25.36-19.181-25.36-35.68c0-20.94,19.087-20.94,25.36-20.94
		c6.273,0,25.363,0,25.363,20.94C151.417,95.49,140.34,114.671,126.054,114.671z M126.054,61.606
		c-15.283,0-21.804,5.2-21.804,17.385c0,14.461,10.062,32.124,21.804,32.124s21.807-17.664,21.807-32.124
		C147.861,66.807,141.34,61.606,126.054,61.606z"/>
	<path fill="#81549C" d="M118.883,47.819l-3.164-1.624c0.238-0.465,0.36-0.969,0.36-1.493c0-1.812-1.475-3.289-3.287-3.289v-3.556
		c3.772,0,6.843,3.07,6.843,6.845C119.634,45.783,119.376,46.861,118.883,47.819z"/>
	<path fill="#81549C" d="M133.142,47.825c-0.496-0.958-0.757-2.039-0.757-3.122c0-3.772,3.07-6.843,6.845-6.843v3.556
		c-1.814,0-3.289,1.475-3.289,3.287c0,0.525,0.123,1.026,0.36,1.488L133.142,47.825z"/>
	<path fill="#81549C" d="M142.188,65.264l-1.705-0.911c-3.449-1.848-8.166-2.746-14.427-2.746c-6.26,0-10.981,0.898-14.429,2.746
		l-1.705,0.911l-0.768-1.773c-0.726-1.673-1.091-3.402-1.091-5.138c0-8.294,8.07-15.043,17.993-15.043
		c9.921,0,17.99,6.749,17.99,15.043c0,1.736-0.365,3.464-1.091,5.138L142.188,65.264z M126.057,46.867
		c-7.96,0-14.437,5.153-14.437,11.487c0,0.658,0.076,1.316,0.225,1.968c3.712-1.527,8.388-2.271,14.213-2.271
		c5.822,0,10.498,0.744,14.21,2.271c0.149-0.653,0.225-1.311,0.225-1.968C140.491,52.02,134.014,46.867,126.057,46.867z"/>
	<path fill="#81549C" d="M102.777,112.893h-3.556v-5.623c0-3.488,1.316-6.801,3.71-9.328l2.355-2.485l2.585,2.449l-2.355,2.485
		c-1.765,1.861-2.739,4.305-2.739,6.879V112.893z"/>
	<path fill="#81549C" d="M93.864,97.166l-3.42-0.976l1.653-5.777c0.963-3.373,3.156-6.203,6.177-7.976l3.423-2.01l1.801,3.07
		l-3.423,2.01c-2.23,1.305-3.846,3.394-4.558,5.882L93.864,97.166z"/>
	<path fill="#81549C" d="M102.957,74.041l-1.579-0.303c-6.375-1.23-11.001-6.835-11.001-13.325v-0.585h3.556v0.585
		c0,4.791,3.415,8.923,8.117,9.832l1.577,0.303L102.957,74.041z"/>
	<path fill="#81549C" d="M152.889,112.893h-3.556v-5.623c0-2.574-0.971-5.018-2.736-6.882l-2.355-2.483l2.585-2.449l2.355,2.485
		c2.391,2.53,3.707,5.84,3.707,9.328V112.893z"/>
	<path fill="#81549C" d="M158.249,97.166l-1.653-5.777c-0.71-2.485-2.331-4.574-4.561-5.882l-3.423-2.01l1.801-3.07l3.423,2.01
		c3.021,1.773,5.216,4.605,6.179,7.976l1.653,5.777L158.249,97.166z"/>
	<path fill="#81549C" d="M149.159,74.041l-0.674-3.493l1.577-0.303c4.704-0.909,8.119-5.044,8.119-9.832v-0.585h3.556v0.585
		c0,6.49-4.626,12.095-11.001,13.325L149.159,74.041z"/>
	<path fill="#FBAF1C" d="M118.916,103.711c-6.125-4.276-10.571-13.724-10.571-22.468c0-10.531,3.057-13.012,10.37-14.883
		l0.663,2.585c-6.195,1.587-8.365,2.974-8.365,12.299c0,7.809,4.054,16.526,9.432,20.28L118.916,103.711z M143.794,81.244
		c0-10.531-3.057-13.012-10.37-14.883l-0.663,2.585c6.195,1.585,8.365,2.971,8.365,12.299c0,7.809-4.054,16.526-9.432,20.28
		l1.53,2.188C139.348,99.435,143.794,89.987,143.794,81.244z"/>
</g>
<g>
	<path fill="#81549C" d="M131.873,138.941l-0.365-3.982c28.263-2.588,50.653-24.983,53.241-53.252l3.982,0.365
		C185.969,112.261,162.056,136.178,131.873,138.941z"/>
</g>
<g>
	<path fill="#81549C" d="M184.749,70.822c-2.589-28.268-24.979-50.663-53.241-53.25l0.365-3.983
		c30.182,2.764,54.095,26.681,56.858,56.87L184.749,70.822z"/>
</g>
<g>
	<path fill="#81549C" d="M67.361,70.822l-3.982-0.364c2.764-30.2,26.689-54.117,56.89-56.87l0.363,3.983
		C92.354,20.15,69.95,42.545,67.361,70.822z"/>
</g>
<g>
	<path fill="#81549C" d="M120.269,138.942c-30.201-2.755-54.127-26.672-56.89-56.87l3.982-0.365
		c2.588,28.277,24.991,50.673,53.271,53.251L120.269,138.942z"/>
</g>
<g>
	<path fill="#00A9B7" d="M126.057,25.373c-1.104,0-2-0.896-2-2V7.551c0-1.104,0.896-2,2-2s2,0.896,2,2v15.821
		C128.057,24.477,127.161,25.373,126.057,25.373z"/>
</g>
<g>
	<path fill="#00A9B7" d="M126.057,146.689c-1.104,0-2-0.896-2-2v-15.821c0-1.104,0.896-2,2-2s2,0.896,2,2v15.821
		C128.057,145.794,127.161,146.689,126.057,146.689z"/>
</g>
<g>
	<path fill="#00A9B7" d="M194.626,78.264h-15.821c-1.104,0-2-0.896-2-2s0.896-2,2-2h15.821c1.104,0,2,0.896,2,2
		S195.73,78.264,194.626,78.264z"/>
</g>
<g>
	<path fill="#00A9B7" d="M73.309,78.264H57.487c-1.104,0-2-0.896-2-2s0.896-2,2-2h15.821c1.104,0,2,0.896,2,2
		S74.413,78.264,73.309,78.264z"/>
</g>
</svg>
