<?xml version="1.0" encoding="utf-8"?>
<!-- Generator: Adobe Illustrator 26.2.1, SVG Export Plug-In . SVG Version: 6.00 Build 0)  -->
<svg version="1.1" id="Layer_1" xmlns="http://www.w3.org/2000/svg" xmlns:xlink="http://www.w3.org/1999/xlink" x="0px" y="0px"
	 viewBox="0 0 50 50" style="enable-background:new 0 0 50 50;" xml:space="preserve">
<style type="text/css">
	.st0{fill:#41A1CF;}
	.st1{fill:#81549D;}
	.st2{fill:#80539C;}
	.st3{fill:#E07C05;}
	.st4{fill:#B4B4B5;}
	.st5{fill:#FFFFFF;}
	.st6{fill-rule:evenodd;clip-rule:evenodd;fill:#80539C;}
	.st7{fill-rule:evenodd;clip-rule:evenodd;fill:#41A1CF;}
	.st8{fill:#5EC4F0;}
	.st9{fill:#824F9E;}
	.st10{fill:none;stroke:#41A1CF;stroke-miterlimit:10;}
	.st11{fill:none;stroke:#E07C05;stroke-miterlimit:10;}
	.st12{fill:none;stroke:#646E81;stroke-width:0.7216;stroke-miterlimit:10;}
	.st13{fill:none;stroke:#41A1CF;stroke-width:0.5319;stroke-miterlimit:10;}
	.st14{fill:none;stroke:#E07C05;stroke-width:0.5319;stroke-miterlimit:10;}
	.st15{fill:none;stroke:#E07C05;stroke-width:1.077;stroke-miterlimit:10;}
	.st16{fill:none;stroke:#80539C;stroke-width:1.077;stroke-miterlimit:10;}
	.st17{fill:none;stroke:#80539C;stroke-width:1.5079;stroke-miterlimit:10;}
	.st18{fill:none;stroke:#E07C05;stroke-width:1.5079;stroke-miterlimit:10;}
	.st19{fill:none;stroke:#41A1CF;stroke-width:1.5079;stroke-miterlimit:10;}
	.st20{fill:none;stroke:#80539C;stroke-width:1.247;stroke-miterlimit:10;}
	.st21{fill:none;stroke:#41A1CF;stroke-width:1.077;stroke-miterlimit:10;}
	.st22{fill:none;stroke:#41A1CF;stroke-width:1.247;stroke-miterlimit:10;}
	.st23{fill:none;stroke:#80539C;stroke-width:0.98;stroke-miterlimit:10;}
	.st24{fill-rule:evenodd;clip-rule:evenodd;fill:#E07C05;}
</style>
<g>
	<g>
		<path class="st23" d="M14.4,37.3h16.5c3.8,0,6.9-3.1,6.9-6.9s-3.1-6.9-6.9-6.9l-16.5-0.2c-3.8,0-6.9-3.1-6.9-6.9s3.1-6.9,6.9-6.9
			h16.5"/>
	</g>
	<g>
		<g>
			<g>
				<path class="st24" d="M9.3,42c0-1.5,0-1.5,0-1.5c0-2.4,1.2-3.3,2.2-4.4c1.5-1.5,1.9-2.9,1.9-4.7c0-3.5-2.8-6.3-6.2-6.3
					c-3.4,0-6.1,2.8-6.1,6.3c0,1.8,0.3,3.2,1.8,4.7c1.1,1.1,2.2,2,2.2,4.4c0,1.5,0,1.5,0,1.5c0,0.4,0.3,0.7,0.7,0.7
					c2.7,0,2.7,0,2.7,0C9,42.7,9.3,42.4,9.3,42z M8.8,44.3c0-0.9,0-0.9,0-0.9c-3.1,0-3.1,0-3.1,0c0,0.8,0,0.8,0,0.8
					C8.8,44.2,8.8,44.2,8.8,44.3L8.8,44.3L8.8,44.3z M8.8,45C8.8,44.9,8.8,44.9,8.8,45L8.8,45c-3.1,0-3.1,0-3.1,0c0,0,0,0,0,0
					c0,0.6,0.5,1,1,1c1,0,1,0,1,0C8.4,46,8.8,45.5,8.8,45z M5.1,45c0-1.9,0-1.9,0-1.9c-0.3-0.2-0.5-0.6-0.5-1.1c0-1.5,0-1.5,0-1.5
					c0-2.1-1-2.8-2.1-3.9c-1.6-1.6-2-3.3-2-5.2c0-3.8,3.1-7,6.8-7c3.8,0,6.8,3.1,6.8,7c0,1.9-0.4,3.6-2,5.2c-1.1,1.1-2,1.8-2,3.9
					c0,1.5,0,1.5,0,1.5c0,0.4-0.2,0.9-0.5,1.1c0,1.9,0,1.9,0,1.9c0,0.9-0.8,1.7-1.7,1.7c-1,0-1,0-1,0C5.8,46.7,5.1,45.9,5.1,45z"/>
			</g>
		</g>
		<path class="st3" d="M9.6,31c-0.5-0.8-1.6-1.1-2.4-0.9c-0.8-0.3-1.9,0.1-2.4,0.9c-0.6,0.9-0.2,2,0,2.4c0.2,0.5,0.4,0.8,0.6,1.1
			c0.2,0.2,0.4,0.5,0.7,1c0.2,0.3,0.3,0.5,0.3,0.7c0.1,0.2,0.1,0.3,0.2,0.4c0,0.1,0.1,0.2,0.2,0.3v6c0,0.2,0.2,0.4,0.4,0.4
			c0.2,0,0.4-0.2,0.4-0.4v-6c0.1-0.1,0.1-0.2,0.2-0.3c0.1-0.1,0.1-0.3,0.2-0.4c0.1-0.2,0.2-0.4,0.3-0.7c0.3-0.5,0.5-0.8,0.7-1
			c0.2-0.3,0.5-0.6,0.6-1.1C9.7,33,10.2,31.8,9.6,31z M7.2,35.8C7.2,35.8,7.2,35.8,7.2,35.8c-0.3-0.9-0.6-2.7-0.4-3.9
			c0.1-0.4,0.2-0.8,0.4-1c0.2,0.2,0.3,0.5,0.4,1C7.8,33.2,7.5,34.9,7.2,35.8C7.2,35.8,7.2,35.8,7.2,35.8z M5.5,33.1
			c-0.1-0.3-0.4-1.1,0-1.7c0.2-0.3,0.7-0.6,1.1-0.6C6,31.6,6,32.9,6.1,34c0,0-0.1-0.1-0.1-0.1C5.8,33.6,5.6,33.5,5.5,33.1z
			 M8.9,33.1c-0.1,0.4-0.3,0.6-0.5,0.8c0,0-0.1,0.1-0.1,0.1c0.1-1.1,0.1-2.5-0.4-3.3C8.3,30.8,8.7,31,9,31.4
			C9.3,31.9,9,32.8,8.9,33.1z"/>
	</g>
</g>
<g>
	<path class="st0" d="M46.3,18c-0.2,0-0.3-0.1-0.3-0.3v-1.5c0-0.2,0.1-0.3,0.3-0.3c0.2,0,0.3,0.1,0.3,0.3v1.5
		C46.6,17.9,46.5,18,46.3,18z"/>
	<path class="st0" d="M45.2,18c-0.2,0-0.3-0.1-0.3-0.3v-1.5c0-0.2,0.1-0.3,0.3-0.3s0.3,0.1,0.3,0.3v1.5C45.5,17.9,45.4,18,45.2,18z"
		/>
	<path class="st0" d="M44,18c-0.2,0-0.3-0.1-0.3-0.3v-1.5c0-0.2,0.1-0.3,0.3-0.3s0.3,0.1,0.3,0.3v1.5C44.3,17.9,44.2,18,44,18z"/>
	<path class="st0" d="M42.9,18c-0.2,0-0.3-0.1-0.3-0.3v-1.5c0-0.2,0.1-0.3,0.3-0.3s0.3,0.1,0.3,0.3v1.5C43.1,17.9,43,18,42.9,18z"/>
	<path class="st0" d="M41.8,18c-0.2,0-0.3-0.1-0.3-0.3v-1.5c0-0.2,0.1-0.3,0.3-0.3s0.3,0.1,0.3,0.3v1.5C42.1,17.9,41.9,18,41.8,18z"
		/>
	<path class="st0" d="M40.6,18c-0.2,0-0.3-0.1-0.3-0.3v-1.5c0-0.2,0.1-0.3,0.3-0.3c0.2,0,0.3,0.1,0.3,0.3v1.5
		C40.9,17.9,40.7,18,40.6,18z"/>
	<path class="st0" d="M39.4,18c-0.2,0-0.3-0.1-0.3-0.3v-1.5c0-0.2,0.1-0.3,0.3-0.3s0.3,0.1,0.3,0.3v1.5C39.7,17.9,39.6,18,39.4,18z"
		/>
	<path class="st0" d="M38.3,18c-0.2,0-0.3-0.1-0.3-0.3v-1.5c0-0.2,0.1-0.3,0.3-0.3s0.3,0.1,0.3,0.3v1.5C38.6,17.9,38.5,18,38.3,18z"
		/>
	<path class="st0" d="M37.1,18c-0.2,0-0.3-0.1-0.3-0.3v-1.5c0-0.2,0.1-0.3,0.3-0.3s0.3,0.1,0.3,0.3v1.5C37.4,17.9,37.3,18,37.1,18z"
		/>
	<path class="st0" d="M36,18c-0.2,0-0.3-0.1-0.3-0.3v-1.5c0-0.2,0.1-0.3,0.3-0.3s0.3,0.1,0.3,0.3v1.5C36.2,17.9,36.1,18,36,18z"/>
	<path class="st0" d="M34.9,18c-0.2,0-0.3-0.1-0.3-0.3v-1.5c0-0.2,0.1-0.3,0.3-0.3s0.3,0.1,0.3,0.3v1.5C35.1,17.9,35,18,34.9,18z"/>
	<path class="st0" d="M46.3,3.3C46.2,3.3,46,3.2,46,3V1.5c0-0.2,0.1-0.3,0.3-0.3c0.2,0,0.3,0.1,0.3,0.3V3
		C46.6,3.2,46.5,3.3,46.3,3.3z"/>
	<path class="st0" d="M45.2,3.3c-0.2,0-0.3-0.1-0.3-0.3V1.5c0-0.2,0.1-0.3,0.3-0.3s0.3,0.1,0.3,0.3V3C45.5,3.2,45.4,3.3,45.2,3.3z"
		/>
	<path class="st0" d="M44,3.3c-0.2,0-0.3-0.1-0.3-0.3V1.5c0-0.2,0.1-0.3,0.3-0.3s0.3,0.1,0.3,0.3V3C44.3,3.2,44.2,3.3,44,3.3z"/>
	<path class="st0" d="M42.9,3.3c-0.2,0-0.3-0.1-0.3-0.3V1.5c0-0.2,0.1-0.3,0.3-0.3s0.3,0.1,0.3,0.3V3C43.1,3.2,43,3.3,42.9,3.3z"/>
	<path class="st0" d="M41.8,3.3c-0.2,0-0.3-0.1-0.3-0.3V1.5c0-0.2,0.1-0.3,0.3-0.3s0.3,0.1,0.3,0.3V3C42.1,3.2,41.9,3.3,41.8,3.3z"
		/>
	<path class="st0" d="M40.6,3.3c-0.2,0-0.3-0.1-0.3-0.3V1.5c0-0.2,0.1-0.3,0.3-0.3c0.2,0,0.3,0.1,0.3,0.3V3
		C40.9,3.2,40.7,3.3,40.6,3.3z"/>
	<path class="st0" d="M39.4,3.3c-0.2,0-0.3-0.1-0.3-0.3V1.5c0-0.2,0.1-0.3,0.3-0.3s0.3,0.1,0.3,0.3V3C39.7,3.2,39.6,3.3,39.4,3.3z"
		/>
	<path class="st0" d="M38.3,3.3C38.2,3.3,38,3.2,38,3V1.5c0-0.2,0.1-0.3,0.3-0.3s0.3,0.1,0.3,0.3V3C38.6,3.2,38.5,3.3,38.3,3.3z"/>
	<path class="st0" d="M37.1,3.3c-0.2,0-0.3-0.1-0.3-0.3V1.5c0-0.2,0.1-0.3,0.3-0.3s0.3,0.1,0.3,0.3V3C37.4,3.2,37.3,3.3,37.1,3.3z"
		/>
	<path class="st0" d="M36,3.3c-0.2,0-0.3-0.1-0.3-0.3V1.5c0-0.2,0.1-0.3,0.3-0.3s0.3,0.1,0.3,0.3V3C36.2,3.2,36.1,3.3,36,3.3z"/>
	<path class="st0" d="M34.9,3.3c-0.2,0-0.3-0.1-0.3-0.3V1.5c0-0.2,0.1-0.3,0.3-0.3s0.3,0.1,0.3,0.3V3C35.1,3.2,35,3.3,34.9,3.3z"/>
	<path class="st0" d="M34,15.6h-1.5c-0.2,0-0.3-0.1-0.3-0.3c0-0.2,0.1-0.3,0.3-0.3H34c0.2,0,0.3,0.1,0.3,0.3
		C34.3,15.5,34.1,15.6,34,15.6z"/>
	<path class="st0" d="M34,14.5h-1.5c-0.2,0-0.3-0.1-0.3-0.3s0.1-0.3,0.3-0.3H34c0.2,0,0.3,0.1,0.3,0.3S34.1,14.5,34,14.5z"/>
	<path class="st0" d="M34,13.4h-1.5c-0.2,0-0.3-0.1-0.3-0.3s0.1-0.3,0.3-0.3H34c0.2,0,0.3,0.1,0.3,0.3S34.1,13.4,34,13.4z"/>
	<path class="st0" d="M34,12.2h-1.5c-0.2,0-0.3-0.1-0.3-0.3c0-0.2,0.1-0.3,0.3-0.3H34c0.2,0,0.3,0.1,0.3,0.3
		C34.3,12.1,34.1,12.2,34,12.2z"/>
	<path class="st0" d="M34,11.1h-1.5c-0.2,0-0.3-0.1-0.3-0.3c0-0.2,0.1-0.3,0.3-0.3H34c0.2,0,0.3,0.1,0.3,0.3
		C34.3,11,34.1,11.1,34,11.1z"/>
	<path class="st0" d="M34,9.9h-1.5c-0.2,0-0.3-0.1-0.3-0.3c0-0.2,0.1-0.3,0.3-0.3H34c0.2,0,0.3,0.1,0.3,0.3
		C34.3,9.8,34.1,9.9,34,9.9z"/>
	<path class="st0" d="M34,8.7h-1.5c-0.2,0-0.3-0.1-0.3-0.3c0-0.2,0.1-0.3,0.3-0.3H34c0.2,0,0.3,0.1,0.3,0.3
		C34.3,8.6,34.1,8.7,34,8.7z"/>
	<path class="st0" d="M34,7.6h-1.5c-0.2,0-0.3-0.1-0.3-0.3s0.1-0.3,0.3-0.3H34c0.2,0,0.3,0.1,0.3,0.3S34.1,7.6,34,7.6z"/>
	<path class="st0" d="M34,6.5h-1.5c-0.2,0-0.3-0.1-0.3-0.3s0.1-0.3,0.3-0.3H34c0.2,0,0.3,0.1,0.3,0.3S34.1,6.5,34,6.5z"/>
	<path class="st0" d="M34,5.3h-1.5c-0.2,0-0.3-0.1-0.3-0.3s0.1-0.3,0.3-0.3H34c0.2,0,0.3,0.1,0.3,0.3S34.1,5.3,34,5.3z"/>
	<path class="st0" d="M34,4.2h-1.5c-0.2,0-0.3-0.1-0.3-0.3c0-0.2,0.1-0.3,0.3-0.3H34c0.2,0,0.3,0.1,0.3,0.3
		C34.3,4.1,34.1,4.2,34,4.2z"/>
	<path class="st0" d="M48.8,15.6h-1.5c-0.2,0-0.3-0.1-0.3-0.3c0-0.2,0.1-0.3,0.3-0.3h1.5c0.2,0,0.3,0.1,0.3,0.3
		C49.1,15.5,48.9,15.6,48.8,15.6z"/>
	<path class="st0" d="M48.8,14.5h-1.5c-0.2,0-0.3-0.1-0.3-0.3s0.1-0.3,0.3-0.3h1.5c0.2,0,0.3,0.1,0.3,0.3S48.9,14.5,48.8,14.5z"/>
	<path class="st0" d="M48.8,13.4h-1.5c-0.2,0-0.3-0.1-0.3-0.3s0.1-0.3,0.3-0.3h1.5c0.2,0,0.3,0.1,0.3,0.3S48.9,13.4,48.8,13.4z"/>
	<path class="st0" d="M48.8,12.2h-1.5c-0.2,0-0.3-0.1-0.3-0.3c0-0.2,0.1-0.3,0.3-0.3h1.5c0.2,0,0.3,0.1,0.3,0.3
		C49.1,12.1,48.9,12.2,48.8,12.2z"/>
	<path class="st0" d="M48.8,11.1h-1.5c-0.2,0-0.3-0.1-0.3-0.3c0-0.2,0.1-0.3,0.3-0.3h1.5c0.2,0,0.3,0.1,0.3,0.3
		C49.1,11,48.9,11.1,48.8,11.1z"/>
	<path class="st0" d="M48.8,9.9h-1.5c-0.2,0-0.3-0.1-0.3-0.3c0-0.2,0.1-0.3,0.3-0.3h1.5c0.2,0,0.3,0.1,0.3,0.3
		C49.1,9.8,48.9,9.9,48.8,9.9z"/>
	<path class="st0" d="M48.8,8.7h-1.5c-0.2,0-0.3-0.1-0.3-0.3c0-0.2,0.1-0.3,0.3-0.3h1.5c0.2,0,0.3,0.1,0.3,0.3
		C49.1,8.6,48.9,8.7,48.8,8.7z"/>
	<path class="st0" d="M48.8,7.6h-1.5c-0.2,0-0.3-0.1-0.3-0.3s0.1-0.3,0.3-0.3h1.5c0.2,0,0.3,0.1,0.3,0.3S48.9,7.6,48.8,7.6z"/>
	<path class="st0" d="M48.8,6.5h-1.5c-0.2,0-0.3-0.1-0.3-0.3s0.1-0.3,0.3-0.3h1.5c0.2,0,0.3,0.1,0.3,0.3S48.9,6.5,48.8,6.5z"/>
	<path class="st0" d="M48.8,5.3h-1.5C47.1,5.3,47,5.1,47,5s0.1-0.3,0.3-0.3h1.5c0.2,0,0.3,0.1,0.3,0.3S48.9,5.3,48.8,5.3z"/>
	<path class="st0" d="M48.8,4.2h-1.5c-0.2,0-0.3-0.1-0.3-0.3c0-0.2,0.1-0.3,0.3-0.3h1.5c0.2,0,0.3,0.1,0.3,0.3
		C49.1,4.1,48.9,4.2,48.8,4.2z"/>
	<path class="st2" d="M47.3,16.4H34.2c-0.2,0-0.3-0.1-0.3-0.3V3c0-0.2,0.1-0.3,0.3-0.3h13.1c0.2,0,0.3,0.1,0.3,0.3v13.1
		C47.6,16.3,47.5,16.4,47.3,16.4z M34.5,15.9H47V3.3H34.5V15.9z"/>
	<path class="st3" d="M45.8,14.9H35.7c-0.2,0-0.3-0.1-0.3-0.3V4.5c0-0.2,0.1-0.3,0.3-0.3h10.2c0.2,0,0.3,0.1,0.3,0.3v10.2
		C46.1,14.8,46,14.9,45.8,14.9z M35.9,14.4h9.6V4.8h-9.6V14.4z"/>
</g>
</svg>
