<?xml version="1.0" encoding="utf-8"?>
<!-- Generator: Adobe Illustrator 26.2.1, SVG Export Plug-In . SVG Version: 6.00 Build 0)  -->
<svg version="1.1" id="Layer_1" xmlns="http://www.w3.org/2000/svg" xmlns:xlink="http://www.w3.org/1999/xlink" x="0px" y="0px"
	 viewBox="0 0 50 50" style="enable-background:new 0 0 50 50;" xml:space="preserve">
<style type="text/css">
	.st0{fill:#41A1CF;}
	.st1{fill:#81549D;}
	.st2{fill:#80539C;}
	.st3{fill:#E07C05;}
	.st4{fill:#B4B4B5;}
	.st5{fill:#FFFFFF;}
	.st6{fill-rule:evenodd;clip-rule:evenodd;fill:#80539C;}
	.st7{fill-rule:evenodd;clip-rule:evenodd;fill:#41A1CF;}
	.st8{fill:#5EC4F0;}
	.st9{fill:#824F9E;}
	.st10{fill:none;stroke:#41A1CF;stroke-miterlimit:10;}
	.st11{fill:none;stroke:#E07C05;stroke-miterlimit:10;}
	.st12{fill:none;stroke:#646E81;stroke-width:0.7216;stroke-miterlimit:10;}
	.st13{fill:none;stroke:#41A1CF;stroke-width:0.5319;stroke-miterlimit:10;}
	.st14{fill:none;stroke:#E07C05;stroke-width:0.5319;stroke-miterlimit:10;}
</style>
<g>
	<g>
		<g>
			<g>
				<path class="st2" d="M24.8,49c-13.2,0-24-10.8-24-24c0-0.4,0.3-0.7,0.7-0.7s0.7,0.3,0.7,0.7c0,12.4,10.1,22.5,22.5,22.5
					c6.2,0,12-2.5,16.2-6.9c0.3-0.3,0.7-0.3,1,0c0.3,0.3,0.3,0.7,0,1C37.5,46.4,31.4,49,24.8,49z"/>
			</g>
		</g>
		<polygon class="st2" points="43.3,44.2 44.6,37.5 38.1,39.7 		"/>
		<g>
			<g>
				<path class="st2" d="M25.2,1c13.2,0,24,10.8,24,24c0,0.4-0.3,0.7-0.7,0.7c-0.4,0-0.7-0.3-0.7-0.7c0-12.4-10.1-22.5-22.5-22.5
					C19,2.5,13.2,4.9,9,9.4c-0.3,0.3-0.7,0.3-1,0c-0.3-0.3-0.3-0.7,0-1C12.5,3.6,18.6,1,25.2,1z"/>
			</g>
		</g>
		<polygon class="st2" points="6.7,5.8 5.4,12.5 11.9,10.3 		"/>
	</g>
	<g>
		<path class="st3" d="M25,31.8c-3.7,0-6.8-3-6.8-6.8c0-3.7,3-6.8,6.8-6.8s6.8,3,6.8,6.8C31.8,28.7,28.7,31.8,25,31.8z M25,19.2
			c-3.2,0-5.8,2.6-5.8,5.8c0,3.2,2.6,5.8,5.8,5.8s5.8-2.6,5.8-5.8C30.8,21.8,28.2,19.2,25,19.2z"/>
		<path class="st0" d="M25,28.5c-1.9,0-3.5-1.6-3.5-3.5s1.6-3.5,3.5-3.5s3.5,1.6,3.5,3.5S26.9,28.5,25,28.5z M25,22.2
			c-1.5,0-2.8,1.3-2.8,2.8c0,1.5,1.3,2.8,2.8,2.8s2.8-1.3,2.8-2.8C27.8,23.5,26.5,22.2,25,22.2z"/>
		<path class="st0" d="M27.7,40.3h-5.3L21,36.4c-0.4-0.2-0.9-0.3-1.3-0.5L16,37.7L12.3,34l1.9-3.7c-0.2-0.4-0.4-0.9-0.5-1.3
			l-3.9-1.3v-5.3l3.9-1.3c0.1-0.4,0.3-0.9,0.5-1.3L12.3,16l3.8-3.8l3.7,1.9c0.4-0.2,0.9-0.4,1.3-0.5l1.3-3.9h5.3l1.3,3.9
			c0.4,0.1,0.9,0.3,1.3,0.5l3.7-1.9l3.8,3.8l-1.9,3.7c0.2,0.4,0.4,0.9,0.5,1.3l3.9,1.3v5.3L36.4,29c-0.2,0.4-0.3,0.9-0.5,1.3
			l1.9,3.7L34,37.7l-3.7-1.9c-0.4,0.2-0.9,0.4-1.3,0.5L27.7,40.3z M23.3,39h3.4l1.2-3.7l0.3-0.1c0.6-0.2,1.1-0.4,1.7-0.7l0.3-0.2
			l3.5,1.7l2.4-2.4l-1.7-3.5l0.2-0.3c0.3-0.6,0.5-1.1,0.7-1.7l0.1-0.3l3.7-1.2v-3.4l-3.7-1.2l-0.1-0.3c-0.2-0.6-0.4-1.2-0.7-1.7
			l-0.2-0.3l1.7-3.5l-2.4-2.4l-3.5,1.7L30,15.5c-0.6-0.3-1.1-0.5-1.7-0.7l-0.3-0.1L26.7,11h-3.4l-1.2,3.7l-0.3,0.1
			c-0.6,0.2-1.1,0.4-1.7,0.7l-0.3,0.2l-3.5-1.7l-2.4,2.4l1.7,3.5L15.5,20c-0.3,0.6-0.5,1.2-0.7,1.7l-0.1,0.3L11,23.3v3.4l3.7,1.2
			l0.1,0.3c0.2,0.6,0.4,1.1,0.7,1.7l0.2,0.3l-1.7,3.5l2.4,2.4l3.5-1.7l0.3,0.2c0.6,0.3,1.1,0.5,1.7,0.7l0.3,0.1L23.3,39z"/>
	</g>
</g>
</svg>
