<?xml version="1.0" encoding="utf-8"?>
<!-- Generator: Adobe Illustrator 26.0.3, SVG Export Plug-In . SVG Version: 6.00 Build 0)  -->
<svg version="1.1" id="Layer_1" xmlns="http://www.w3.org/2000/svg" xmlns:xlink="http://www.w3.org/1999/xlink" x="0px" y="0px"
	 viewBox="0 0 54 54" style="enable-background:new 0 0 54 54;" xml:space="preserve">
<style type="text/css">
	.st0{fill:#80539C;}
	.st1{fill:#E07C05;}
</style>
<g>
	<path class="st0" d="M41.7,52.6c-0.5,0-1.1-0.2-1.6-0.5l-12.5-7.9c-0.4-0.2-0.9-0.2-1.3,0l-12.5,7.9c-1.3,0.8-3,0.5-3.9-0.7
		c-0.6-0.7-0.7-1.6-0.5-2.5L13,34.6c0.1-0.5,0-1-0.4-1.3L1.3,23.9c-0.9-0.8-1.3-2-0.9-3.1c0.4-1.2,1.4-1.9,2.6-2l14.7-1
		c0.5,0,0.9-0.3,1.1-0.8l5.5-13.7c0.5-1.1,1.5-1.8,2.7-1.8s2.3,0.7,2.7,1.8L35.2,17c0.2,0.4,0.6,0.7,1.1,0.8l14.7,1
		c1.2,0.1,2.2,0.9,2.6,2c0.4,1.2,0,2.4-0.9,3.1l-11.3,9.5c-0.4,0.3-0.5,0.8-0.4,1.3L44.6,49c0.2,0.9,0,1.8-0.5,2.5
		C43.5,52.2,42.6,52.6,41.7,52.6z M27,42.4c0.6,0,1.1,0.2,1.6,0.4l12.5,7.9c0.6,0.3,1.3,0.2,1.6-0.3c0.1-0.2,0.3-0.5,0.2-1.1
		L39.3,35c-0.3-1.1,0.1-2.2,1-3l11.3-9.5c0.6-0.5,0.4-1.1,0.4-1.3c-0.1-0.2-0.3-0.8-1.1-0.9l-14.7-1c-1.1-0.1-2.1-0.8-2.5-1.8
		L28.2,3.9c-0.3-0.7-1-0.8-1.2-0.8s-0.9,0.1-1.2,0.8l-5.5,13.7c-0.4,1-1.4,1.8-2.5,1.8l-14.7,1c-0.8,0.1-1,0.7-1.1,0.9
		c-0.1,0.2-0.2,0.8,0.4,1.3l11.3,9.5c0.9,0.7,1.2,1.9,1,3l-3.6,14.3c-0.1,0.5,0.1,0.9,0.2,1.1c0.4,0.5,1.1,0.6,1.6,0.3l12.5-7.9
		C25.9,42.6,26.4,42.4,27,42.4z"/>
</g>
<g>
	<path class="st1" d="M39.7,47.2c-0.1,0-0.2,0-0.3-0.1L29.6,41c-1.6-1-3.7-1-5.3,0l-9.8,6.2c-0.2,0.1-0.4,0.1-0.6,0
		c-0.2-0.1-0.2-0.3-0.2-0.5l2.8-11.2c0.5-1.8-0.2-3.8-1.6-5L6.1,23C6,22.8,5.9,22.6,6,22.4c0.1-0.2,0.2-0.3,0.4-0.3L18,21.3
		c1.9-0.1,3.6-1.3,4.3-3.1l4.3-10.7c0.2-0.4,0.8-0.4,0.9,0l4.3,10.7c0.7,1.8,2.4,3,4.3,3.1l11.5,0.8c0.2,0,0.4,0.2,0.4,0.3
		c0.1,0.2,0,0.4-0.2,0.5L39,30.4c-1.5,1.2-2.1,3.2-1.6,5l2.8,11.2c0,0.2,0,0.4-0.2,0.5C39.9,47.2,39.8,47.2,39.7,47.2z M27,39.3
		c1.1,0,2.2,0.3,3.2,0.9l8.7,5.5l-2.5-10c-0.6-2.2,0.2-4.6,2-6l7.9-6.6L36,22.3c-2.3-0.2-4.3-1.6-5.1-3.7L27,9l-3.8,9.6
		c-0.8,2.1-2.9,3.6-5.1,3.7L7.7,23l7.9,6.6c1.7,1.5,2.5,3.8,2,6l-2.5,10l8.7-5.5C24.8,39.6,25.9,39.3,27,39.3z"/>
</g>
</svg>
