<?xml version="1.0" encoding="utf-8"?>
<!-- Generator: Adobe Illustrator 26.0.3, SVG Export Plug-In . SVG Version: 6.00 Build 0)  -->
<svg version="1.1" id="Layer_1" xmlns="http://www.w3.org/2000/svg" xmlns:xlink="http://www.w3.org/1999/xlink" x="0px" y="0px"
	 viewBox="0 0 60 54" style="enable-background:new 0 0 60 54;" xml:space="preserve">
<style type="text/css">
	.st0{fill:#8347AD;}
	.st1{fill:#50C7F3;}
	.st2{fill:#FACE14;}
	.st3{fill:#E37827;}
</style>
<g>
	<path class="st0" d="M30.8,13.9H9.6v-6c0-1.3,1.1-2.4,2.4-2.4h16.3c1.3,0,2.4,1.1,2.4,2.4L30.8,13.9L30.8,13.9z M10.9,12.7h18.7
		V7.9c0-0.6-0.5-1.2-1.2-1.2H12c-0.6,0-1.2,0.5-1.2,1.2L10.9,12.7L10.9,12.7z"/>
	<path class="st0" d="M25.4,6.7H15V5.2C15,2.3,17.4,0,20.2,0s5.2,2.3,5.2,5.2L25.4,6.7L25.4,6.7z M16.3,5.4h7.8V5.2
		c0-2.2-1.8-3.9-3.9-3.9c-2.2,0-3.9,1.8-3.9,3.9V5.4L16.3,5.4z"/>
	<rect x="9.8" y="18.8" class="st1" width="20.7" height="1.3"/>
	<rect x="9.8" y="26.5" class="st1" width="20.6" height="1.3"/>
	<rect x="9.8" y="34.1" class="st1" width="17.1" height="1.3"/>
	<rect x="9.8" y="41.7" class="st1" width="17.1" height="1.3"/>
	<path class="st0" d="M45.4,53.8c-7.9,0-14.3-6.4-14.3-14.3s6.4-14.3,14.3-14.3s14.3,6.4,14.3,14.3S53.2,53.8,45.4,53.8z M45.4,26.7
		c-7.1,0-12.8,5.8-12.8,12.8s5.8,12.8,12.8,12.8c7.1,0,12.8-5.8,12.8-12.8S52.4,26.7,45.4,26.7z"/>
	<path class="st2" d="M31,11.1v0.8h4.2v14c0.3-0.2,0.5-0.4,0.8-0.6V11.1H31z"/>
	<path class="st2" d="M5.2,11.9h4.2v-0.8h-5V50H32c-0.2-0.3-0.4-0.5-0.6-0.8H5.2V11.9z"/>
	<path class="st0" d="M29.3,7v5.4H11.1V7H0.3v47h36.2c-0.8-0.5-1.6-1-2.3-1.7H2V8.7h7.4v2.4v0.8v2.2H31v-2.2v-0.8V8.7h7.4V24
		c0.5-0.2,1.1-0.5,1.7-0.6V7H29.3z"/>
	<polygon class="st3" points="43,47.3 37.2,42.3 38.5,40.6 42.7,44.3 50.7,32.3 52.2,33.3 	"/>
</g>
</svg>
