<?xml version="1.0" encoding="utf-8"?>
<!-- Generator: Adobe Illustrator 25.4.1, SVG Export Plug-In . SVG Version: 6.00 Build 0)  -->
<svg version="1.1" id="Layer_1" xmlns="http://www.w3.org/2000/svg" xmlns:xlink="http://www.w3.org/1999/xlink" x="0px" y="0px"
	 viewBox="0 0 1600 960" enable-background="new 0 0 1600 960" xml:space="preserve">
<g>
	<path fill="#41A1CF" d="M807.027,727.359H600.675c-4.514,0-8.806-1.955-11.77-5.359L382.863,485.315
		c-5.113-5.873-5.113-14.617,0-20.49L588.905,228.14c2.964-3.404,7.256-5.359,11.77-5.359h206.353
		c6.115,0,11.667,3.573,14.201,9.139s1.584,12.099-2.432,16.711L621.675,475.07L818.797,701.51
		c4.015,4.612,4.966,11.146,2.432,16.711S813.143,727.359,807.027,727.359z M607.779,696.15h164.976L589.217,485.315
		c-5.113-5.873-5.113-14.617,0-20.49l183.539-210.836H607.779L415.321,475.07L607.779,696.15z"/>
</g>
<g>
	<path fill="#80539C" d="M1108.58,727.359H902.228c-4.514,0-8.806-1.955-11.77-5.359L684.416,485.315
		c-5.113-5.873-5.113-14.617,0-20.49L890.458,228.14c2.964-3.404,7.256-5.359,11.77-5.359h206.353
		c6.115,0,11.667,3.573,14.201,9.139s1.583,12.099-2.432,16.711L923.227,475.07L1120.35,701.51
		c4.015,4.612,4.966,11.146,2.432,16.711S1114.695,727.359,1108.58,727.359z M909.332,696.15h164.976L890.769,485.315
		c-5.112-5.873-5.113-14.617,0-20.49l183.539-210.836H909.332L716.874,475.07L909.332,696.15z"/>
</g>
<g>
	<path fill="#FCAF1A" d="M1205.007,726.629c-4.357,0-8.691-1.814-11.776-5.359L988.678,486.265c-5.113-5.874-5.112-14.617,0-20.49
		l204.553-234.974c5.658-6.501,15.515-7.184,22.015-1.524c6.5,5.658,7.183,15.515,1.524,22.015l-195.635,224.729l195.635,224.759
		c5.658,6.501,4.976,16.357-1.524,22.015C1212.289,725.367,1208.64,726.629,1205.007,726.629z"/>
</g>
</svg>
