<?xml version="1.0" encoding="utf-8"?>
<!-- Generator: Adobe Illustrator 25.4.1, SVG Export Plug-In . SVG Version: 6.00 Build 0)  -->
<svg version="1.1" id="Layer_1" xmlns="http://www.w3.org/2000/svg" xmlns:xlink="http://www.w3.org/1999/xlink" x="0px" y="0px"
	 viewBox="0 0 1600 960" enable-background="new 0 0 1600 960" xml:space="preserve">
<g>
	<g>
		<path fill="#41A1CF" d="M728.842,612.098l-78.462-88.282c-5.33-5.996-4.789-15.178,1.208-20.507
			c5.994-5.328,15.177-4.789,20.507,1.208l55.183,62.089l167.69-217.042c4.905-6.347,14.028-7.52,20.376-2.614
			c6.349,4.905,7.519,14.027,2.614,20.376L728.842,612.098z"/>
	</g>
	<g>
		<g>
			<path fill="#80539C" d="M782.907,189.875c30.114,26.648,105.984,81.006,228.475,86.357v194.787
				c0,81.85-38.863,160.322-103.972,209.937l-124.503,94.85l-124.503-94.85c-65.099-49.615-103.972-128.087-103.972-209.937V276.232
				C676.922,270.881,752.792,216.523,782.907,189.875 M782.907,162.5c0,0-82.704,94.516-248.113,94.516v214.002
				c0,88.497,41.318,171.918,111.709,225.559L782.907,800.5L919.31,696.577c70.391-53.64,111.709-137.061,111.709-225.559V257.016
				C865.611,257.016,782.907,162.5,782.907,162.5"/>
		</g>
		<g>
			<path fill="#FCAF1A" d="M782.901,747.261l-110.742-84.375c-59.492-45.357-95.023-117.082-95.023-191.861V297.463l4.409-0.432
				c93.942-9.625,159.745-46.452,198.402-75.644l2.954-2.219l2.954,2.219c38.672,29.191,104.489,66.019,198.417,75.644l4.409,0.432
				v173.562c0,74.779-35.531,146.504-95.023,191.861L782.901,747.261z M586.962,306.31v164.716
				c0,71.753,34.076,140.539,91.161,184.023l104.777,79.88l104.792-79.88c57.086-43.484,91.161-112.27,91.161-184.023V306.31
				c-91.493-10.259-156.561-45.761-195.953-74.866C743.523,260.549,678.469,296.051,586.962,306.31z"/>
		</g>
	</g>
</g>
</svg>
