<?xml version="1.0" encoding="utf-8"?>
<!-- Generator: Adobe Illustrator 26.3.1, SVG Export Plug-In . SVG Version: 6.00 Build 0)  -->
<svg version="1.1" id="Layer_1" xmlns="http://www.w3.org/2000/svg" xmlns:xlink="http://www.w3.org/1999/xlink" x="0px" y="0px"
	 viewBox="0 0 50 50" style="enable-background:new 0 0 50 50;" xml:space="preserve">
<style type="text/css">
	.st0{fill:#80539C;}
	.st1{fill:#E07C05;}
	.st2{fill:#41A1CF;}
</style>
<g>
	<g>
		<path class="st1" d="M25.6,26.6V15.2h-1.2v11.4c-0.9,0.3-1.5,1-1.5,2c0,0.4,0.1,0.7,0.3,1l-6.6,6.6l0.8,0.8l6.6-6.6
			c0.3,0.2,0.6,0.3,1,0.3c1.1,0,2.1-0.9,2.1-2.1C27.1,27.6,26.4,26.9,25.6,26.6z"/>
		<g>
			<path class="st0" d="M24.9,8.9c-10.8,0-19.5,8.8-19.5,19.5c0,4.4,1.5,8.4,3.9,11.7l-1.6,2.8c-1,1.7-0.4,3.8,1.3,4.7
				c0.5,0.3,1.1,0.5,1.7,0.5c1.2,0,2.4-0.6,3-1.7l0.8-1.4c3,1.9,6.6,3,10.4,3c3.9,0,7.5-1.1,10.5-3.1l0.8,1.5c0.6,1.1,1.8,1.7,3,1.7
				c0.6,0,1.2-0.1,1.7-0.5c1.7-1,2.2-3.1,1.3-4.7l-1.7-2.9c2.4-3.2,3.9-7.3,3.9-11.6C44.5,17.7,35.7,8.9,24.9,8.9z M12.4,45.6
				c-0.5,0.9-1.7,1.2-2.6,0.7c-0.9-0.5-1.2-1.7-0.7-2.6l1.3-2.3c0.9,1,1.8,1.8,2.9,2.6L12.4,45.6z M7,28.5c0-9.9,8.1-18,18-18
				c9.9,0,18,8.1,18,18s-8.1,18-18,18C15,46.4,7,38.4,7,28.5z M40.9,43.7c0.5,0.9,0.2,2.1-0.7,2.6c-0.9,0.5-2.1,0.2-2.6-0.7L36.7,44
				c1-0.8,2-1.7,2.9-2.6L40.9,43.7z"/>
			<path class="st0" d="M18.9,6l-0.4-0.6c-1.2-1.8-3.1-3-5.2-3.3c-2.1-0.4-4.3,0.1-6.1,1.3c-1.8,1.2-3,3.1-3.3,5.2
				c-0.4,2.1,0.1,4.3,1.3,6.1l0.4,0.6L18.9,6z M5.3,8.9C5.6,7.1,6.6,5.6,8,4.6c1.1-0.8,2.4-1.2,3.7-1.2c0.4,0,0.8,0,1.1,0.1
				c1.5,0.3,2.8,1,3.7,2.1L6,13.1C5.3,11.8,5.1,10.3,5.3,8.9z"/>
			<path class="st0" d="M46.2,8.6c-0.4-2.1-1.6-4-3.3-5.2c-1.8-1.2-3.9-1.7-6.1-1.3c-2.1,0.4-4,1.6-5.2,3.3L31.1,6l13.3,9.3l0.4-0.6
				C46.1,12.9,46.6,10.7,46.2,8.6z M44,13.1L33.3,5.6c1-1.1,2.3-1.8,3.7-2.1c1.7-0.3,3.5,0.1,4.9,1.1c1.4,1,2.4,2.5,2.7,4.2
				C44.9,10.3,44.7,11.8,44,13.1z"/>
		</g>
		<path class="st2" d="M24.9,44.7c-9,0-16.2-7.3-16.2-16.2c0-9,7.3-16.2,16.2-16.2s16.2,7.3,16.2,16.2
			C41.2,37.4,33.9,44.7,24.9,44.7z M24.9,13c-8.5,0-15.5,6.9-15.5,15.5c0,8.5,6.9,15.5,15.5,15.5S40.4,37,40.4,28.5
			C40.4,19.9,33.5,13,24.9,13z"/>
	</g>
	<path class="st2" d="M23.3,15.1V26c-0.8,0.5-1.3,1.4-1.3,2.5H11.5C11.5,21.6,16.6,15.9,23.3,15.1z"/>
</g>
</svg>
