<?xml version="1.0" encoding="utf-8"?>
<!-- Generator: Adobe Illustrator 26.3.1, SVG Export Plug-In . SVG Version: 6.00 Build 0)  -->
<svg version="1.1" id="Layer_1" xmlns="http://www.w3.org/2000/svg" xmlns:xlink="http://www.w3.org/1999/xlink" x="0px" y="0px"
	 viewBox="0 0 50 50" style="enable-background:new 0 0 50 50;" xml:space="preserve">
<style type="text/css">
	.st0{fill:#80539C;}
	.st1{fill:#E07C05;}
	.st2{fill:#41A1CF;}
</style>
<g>
	<g>
		<path class="st2" d="M21,34.6l-5.8-6.5c-0.4-0.4-0.4-1.1,0.1-1.5c0.4-0.4,1.1-0.4,1.5,0.1l4.1,4.6l12.4-16c0.4-0.5,1-0.6,1.5-0.2
			c0.5,0.4,0.6,1,0.2,1.5L21,34.6z"/>
	</g>
	<g>
		<g>
			<path class="st0" d="M25,3.5c2.2,2,7.8,6,16.8,6.4v14.3c0,6-2.9,11.8-7.7,15.5l-9.2,7l-9.2-7C11,36,8.2,30.3,8.2,24.2V9.9
				C17.2,9.5,22.8,5.5,25,3.5 M25,1.5c0,0-6.1,7-18.3,7v15.8c0,6.5,3,12.7,8.2,16.6l10,7.7l10-7.7c5.2-4,8.2-10.1,8.2-16.6V8.5
				C31.1,8.5,25,1.5,25,1.5"/>
		</g>
		<g>
			<path class="st1" d="M25,44.6l-8.2-6.2c-4.4-3.3-7-8.6-7-14.1V11.4l0.3,0c6.9-0.7,11.8-3.4,14.6-5.6L25,5.7l0.2,0.2
				c2.8,2.2,7.7,4.9,14.6,5.6l0.3,0v12.8c0,5.5-2.6,10.8-7,14.1L25,44.6z M10.6,12.1v12.1c0,5.3,2.5,10.4,6.7,13.6l7.7,5.9l7.7-5.9
				c4.2-3.2,6.7-8.3,6.7-13.6V12.1C32.7,11.3,27.9,8.7,25,6.6C22.1,8.7,17.3,11.3,10.6,12.1z"/>
		</g>
	</g>
</g>
</svg>
