<svg id="Frame" xmlns="http://www.w3.org/2000/svg" width="34.727" height="34.403" viewBox="0 0 34.727 34.403">
  <g id="Group">
    <path id="Vector" d="M12.428,5.114,7.018.852H0V0H7.311L12.94,4.417Z" transform="translate(1.17 8.446)" fill="#b4b4b5"/>
    <path id="Vector-2" data-name="Vector" d="M7.311,5.191H0V4.417H7.018L12.428,0l.512.7Z" transform="translate(1.17 20.921)" fill="#b4b4b5"/>
    <path id="Vector-3" data-name="Vector" d="M.512,5.114,0,4.417,5.629,0H12.94V.852H5.922Z" transform="translate(20.982 8.446)" fill="#b4b4b5"/>
    <path id="Vector-4" data-name="Vector" d="M12.94,5.191H5.629l-.073-.077L0,.7.512,0l5.41,4.417H12.94Z" transform="translate(20.982 20.921)" fill="#b4b4b5"/>
    <path id="Vector-5" data-name="Vector" d="M0,0H.8V33.241H0Z" transform="translate(16.961 0.542)" fill="#8347ad"/>
    <path id="Vector-6" data-name="Vector" d="M13.086,5.114,7.676.852H0V0H7.969L13.6,4.417Z" transform="translate(0.512 8.446)" fill="#8347ad"/>
    <path id="Vector-7" data-name="Vector" d="M7.969,5.191H0V4.417H7.676L13.086,0,13.6.7Z" transform="translate(0.512 20.921)" fill="#8347ad"/>
    <path id="Vector-8" data-name="Vector" d="M0,0H33.63V.852H0Z" transform="translate(0.512 16.814)" fill="#8347ad"/>
    <path id="Vector-9" data-name="Vector" d="M.512,5.114,0,4.417,5.629,0H12.94V.852H5.922Z" transform="translate(20.982 8.446)" fill="#8347ad"/>
    <path id="Vector-10" data-name="Vector" d="M12.94,5.191H5.629l-.073-.077L0,.7.512,0l5.41,4.417H12.94Z" transform="translate(20.982 20.921)" fill="#8347ad"/>
    <path id="Vector-11" data-name="Vector" d="M31.729,34.4H3a3.057,3.057,0,0,1-3-3.177V3.177A3.057,3.057,0,0,1,3,0H31.729a3.057,3.057,0,0,1,3,3.177V31.226A3.155,3.155,0,0,1,31.729,34.4ZM3,1.085A2.027,2.027,0,0,0,1.024,3.177V31.226A2.027,2.027,0,0,0,3,33.318H31.729A2.027,2.027,0,0,0,33.7,31.226V3.177a2.027,2.027,0,0,0-1.974-2.092Z" fill="#8347ad"/>
    <g id="Group-2" data-name="Group" transform="translate(12.575 12.087)">
      <path id="Vector-12" data-name="Vector" d="M0,0H8.554V9.066H0Z" transform="translate(0.585 0.542)" fill="#fff"/>
      <path id="Vector-13" data-name="Vector" d="M9.65,10.15H0V0H9.577V10.15ZM1.1,9.066h7.53V1.085H1.1Z" fill="#8347ad"/>
    </g>
    <path id="Vector-14" data-name="Vector" d="M0,0H4.679V4.959H0Z" transform="translate(15.06 14.722)" fill="#e87d24"/>
  </g>
</svg>
