<svg id="Product_1" data-name="Product 1" xmlns="http://www.w3.org/2000/svg" width="36.017" height="34.601" viewBox="0 0 36.017 34.601">
  <g id="Frame">
    <path id="Vector" d="M27.717,30.4l-.838.84h1.827a17.593,17.593,0,0,1-3.427,2.215h-.609V17.644h-6.4V11.228h-6.4V2.215A16.3,16.3,0,0,1,17.97,1.069,17.022,17.022,0,0,1,34.951,18.1a19.755,19.755,0,0,1-.685,4.736l.914.687a18.742,18.742,0,0,0,.838-5.423A18.009,18.009,0,1,0,0,18.1,18.218,18.218,0,0,0,10.432,34.524l15.153.076.076-.076a16.549,16.549,0,0,0,4.188-2.75L29.164,30.4Zm-23-1.833a14.249,14.249,0,0,1-2.208-3.743H4.721Zm0-4.583H2.208a15.438,15.438,0,0,1-1.066-5.576H4.8v5.576Zm0-6.34H1.142a16.917,16.917,0,0,1,1.142-5.576H4.8v5.576Zm0-6.416H2.513A18.036,18.036,0,0,1,4.721,7.562v3.666Zm6.4,22.227h-.381a17.013,17.013,0,0,1-3.35-2.215h3.807v2.215Zm0-3.055H6.4a9.144,9.144,0,0,1-.838-.917V24.824h5.559V30.4Zm0-6.416H5.559V18.408h5.559Zm0-6.34H5.559V12.068h5.559Zm0-6.416H5.559V6.645a12.151,12.151,0,0,1,.99-.993h4.569Zm0-6.416H7.462A15.087,15.087,0,0,1,11.117,2.6V4.812Zm6.4,28.643H11.955V31.24h5.559Zm0-3.055H11.955V24.824h5.559Zm0-6.416H11.955V18.408h5.559Zm0-6.34H11.955V12.068h5.559Zm6.4,15.811H18.351V31.24H23.91Zm0-3.055H18.351V24.824H23.91Zm0-6.416H18.351V18.408H23.91Z" fill="#8347ad"/>
  </g>
</svg>
