<svg id="Frame" xmlns="http://www.w3.org/2000/svg" width="38.634" height="32.203" viewBox="0 0 38.634 32.203">
  <g id="Group">
    <path id="Vector" d="M0,0H38.634c-.082.433-.572,1.039-2.369,1.039H2.369C.572,1.039.082.433,0,0Z" transform="translate(0 31.164)" fill="#8347ad"/>
    <path id="Vector-2" data-name="Vector" d="M38.47,1.3H0L2.777,0h33Z" transform="translate(0.082 28.827)" fill="#8347ad"/>
    <path id="Vector-3" data-name="Vector" d="M31.446,27.1H1.389A1.446,1.446,0,0,1,0,25.537V1.558A1.5,1.5,0,0,1,1.389,0H31.446a1.446,1.446,0,0,1,1.389,1.558V25.537A1.4,1.4,0,0,1,31.446,27.1ZM1.389,1.039c-.245,0-.408.26-.408.519V25.537c0,.26.163.519.408.519H31.446c.245,0,.408-.26.408-.519V1.558c0-.26-.163-.519-.408-.519Z" transform="translate(2.859)" fill="#8347ad"/>
    <g id="Group-2" data-name="Group" transform="translate(6.453 3.895)">
      <path id="Vector-4" data-name="Vector" d="M.653,1.3H.49a.47.47,0,0,1-.327-.087A.33.33,0,0,1,.082.952.33.33,0,0,1,.163.693C.245.606.327.519.408.519L2.124,0h.163c.082,0,.163,0,.163.087a.33.33,0,0,1,.082.26V7.1h.9c.327,0,.572,0,.653.087a.459.459,0,0,1,.163.346c0,.173,0,.26-.082.346s-.163.087-.327.087H.408c-.163,0-.245,0-.327-.087S0,7.7,0,7.531a.459.459,0,0,1,.163-.346C.245,7.1.49,7.1.817,7.1H1.8V.952Z" transform="translate(7.269 10.907)" fill="#e87d24"/>
      <path id="Vector-5" data-name="Vector" d="M2.369,8.31A1.84,1.84,0,0,1,.653,7.185,6.327,6.327,0,0,1,0,4.155a6.087,6.087,0,0,1,.653-3.03A2.209,2.209,0,0,1,2.369,0,1.84,1.84,0,0,1,4.084,1.125a6.327,6.327,0,0,1,.653,3.03,6.087,6.087,0,0,1-.653,3.03A1.84,1.84,0,0,1,2.369,8.31Zm0-7.358a1.029,1.029,0,0,0-.98.866,6.592,6.592,0,0,0-.327,2.424,6.592,6.592,0,0,0,.327,2.424c.245.606.572.866.98.866A1.182,1.182,0,0,0,3.43,6.666a6.592,6.592,0,0,0,.327-2.424A6.592,6.592,0,0,0,3.43,1.818C3.185,1.212,2.859.952,2.369.952Z" transform="translate(0 10.821)" fill="#e87d24"/>
      <path id="Vector-6" data-name="Vector" d="M2.369,8.31A1.84,1.84,0,0,1,.653,7.185,6.327,6.327,0,0,1,0,4.155a6.087,6.087,0,0,1,.653-3.03A1.84,1.84,0,0,1,2.369,0,1.84,1.84,0,0,1,4.084,1.125a6.327,6.327,0,0,1,.653,3.03,6.087,6.087,0,0,1-.653,3.03A2.014,2.014,0,0,1,2.369,8.31Zm0-7.358a1.029,1.029,0,0,0-.98.866,6.592,6.592,0,0,0-.327,2.424,6.592,6.592,0,0,0,.327,2.424c.245.606.572.866.98.866A1.182,1.182,0,0,0,3.43,6.666a6.592,6.592,0,0,0,.327-2.424A6.592,6.592,0,0,0,3.43,1.818C3.1,1.212,2.777.952,2.369.952Z" transform="translate(14.212 10.821)" fill="#e87d24"/>
      <path id="Vector-7" data-name="Vector" d="M2.369,8.31A1.84,1.84,0,0,1,.653,7.185,6.327,6.327,0,0,1,0,4.155a6.087,6.087,0,0,1,.653-3.03A1.84,1.84,0,0,1,2.369,0,1.84,1.84,0,0,1,4.084,1.125a6.327,6.327,0,0,1,.653,3.03,6.087,6.087,0,0,1-.653,3.03A1.84,1.84,0,0,1,2.369,8.31Zm0-7.358a1.029,1.029,0,0,0-.98.866,6.592,6.592,0,0,0-.327,2.424,6.592,6.592,0,0,0,.327,2.424c.245.606.572.866.98.866A1.182,1.182,0,0,0,3.43,6.666a6.592,6.592,0,0,0,.327-2.424A6.592,6.592,0,0,0,3.43,1.818,1.182,1.182,0,0,0,2.369.952Z" transform="translate(6.861)" fill="#e87d24"/>
      <path id="Vector-8" data-name="Vector" d="M.572,1.3H.408a.47.47,0,0,1-.327-.087C0,1.212,0,1.039,0,.952A.33.33,0,0,1,.082.693.417.417,0,0,1,.408.519L2.042,0h.163c.082,0,.163,0,.163.087a.33.33,0,0,1,.082.26V7.1h.9c.327,0,.572,0,.653.087a.459.459,0,0,1,.163.346c0,.173,0,.26-.082.346s-.163.087-.327.087H.408c-.163,0-.245,0-.327-.087S0,7.7,0,7.531a.459.459,0,0,1,.163-.346C.245,7.1.49,7.1.817,7.1H1.8V1.039Z" transform="translate(0.49 0.087)" fill="#e87d24"/>
      <path id="Vector-9" data-name="Vector" d="M2.369,8.31A1.84,1.84,0,0,1,.653,7.185,6.327,6.327,0,0,1,0,4.155a6.087,6.087,0,0,1,.653-3.03A1.84,1.84,0,0,1,2.369,0,1.84,1.84,0,0,1,4.084,1.125a6.327,6.327,0,0,1,.653,3.03,6.087,6.087,0,0,1-.653,3.03A1.84,1.84,0,0,1,2.369,8.31Zm0-7.358a1.029,1.029,0,0,0-.98.866,6.592,6.592,0,0,0-.327,2.424,6.592,6.592,0,0,0,.327,2.424c.245.606.572.866.98.866A1.182,1.182,0,0,0,3.43,6.666a6.592,6.592,0,0,0,.327-2.424A6.592,6.592,0,0,0,3.43,1.818C3.1,1.212,2.777.952,2.369.952Z" transform="translate(20.991 10.907)" fill="#e87d24"/>
      <path id="Vector-10" data-name="Vector" d="M.653,1.3H.49a.47.47,0,0,1-.327-.087A.33.33,0,0,1,.082.952.33.33,0,0,1,.163.693C.245.606.327.519.408.519L2.124,0h.163c.082,0,.163,0,.163.087a.33.33,0,0,1,.082.26V7.185h.9c.327,0,.572,0,.653.087a.459.459,0,0,1,.163.346c0,.173,0,.26-.082.346s-.163.087-.327.087H.408c-.163,0-.245,0-.327-.087S0,7.791,0,7.618a.459.459,0,0,1,.163-.346c.082-.087.327-.087.653-.087H1.8V1.039Z" transform="translate(14.375 0.173)" fill="#e87d24"/>
      <path id="Vector-11" data-name="Vector" d="M.572,1.3H.408a.47.47,0,0,1-.327-.087A.33.33,0,0,1,0,.952.33.33,0,0,1,.082.693C.163.606.245.519.327.519L2.042,0h.163c.082,0,.163,0,.163.087q.245.13.245.26V7.185h.9c.327,0,.572,0,.653.087a.459.459,0,0,1,.163.346c0,.173,0,.26-.082.346s-.163.087-.327.087H.49c-.163,0-.245,0-.327-.087S.082,7.791.082,7.618a.459.459,0,0,1,.163-.346c.082-.087.327-.087.653-.087h.817V1.039Z" transform="translate(21.236 0.173)" fill="#e87d24"/>
    </g>
  </g>
</svg>
