<?xml version="1.0" encoding="utf-8"?>
<!-- Generator: Adobe Illustrator 25.4.1, SVG Export Plug-In . SVG Version: 6.00 Build 0)  -->
<svg version="1.1" id="Layer_1" xmlns="http://www.w3.org/2000/svg" xmlns:xlink="http://www.w3.org/1999/xlink" x="0px" y="0px"
	 viewBox="0 0 1600 960" style="enable-background:new 0 0 1600 960;" xml:space="preserve">
<style type="text/css">
	.st0{fill:#804C9D;}
	.st1{clip-path:url(#SVGID_00000168103015772717650600000009823993197527555761_);}
	.st2{clip-path:url(#SVGID_00000119108849807087766130000017665178306077365661_);}
</style>
<g>
	<g>
		<path class="st0" d="M648.4,791.2c-11.9-21-36.3-34.4-72.3-39.7c9.6-11.1,14.5-27.3,14.5-48c0-36.8-27.7-65.7-63.1-65.7
			c-33.6,0-61,29.5-61,65.7c0,20.8,4.9,36.9,14.5,48c-37.1,5.4-61.7,19.4-73.3,41.4l-0.8,1.5l18.1,9.5l0.8-1.5
			c9.8-18.7,34.9-29.6,74.4-32.4l9.5-0.7v-22.1l-5.4-2.9c-11.6-6.2-17.3-19.5-17.3-40.8c0-25.3,18.7-45.2,42.6-45.2
			c22.4,0,40.6,20.3,40.6,45.2c0,21.3-5.7,34.7-17.3,40.8l-5.4,2.9v22.1l9.5,0.7c38.7,2.8,63.5,13.3,73.8,31.3l0.8,1.5l17.7-10.1
			L648.4,791.2z"/>
		<path class="st0" d="M927.7,792.4c-12.1-20.4-36.3-33.5-71.8-38.7c9.6-11.1,14.5-27.2,14.5-48c0-36.8-27.7-65.7-63.1-65.7
			c-33.7,0-61.1,29.5-61.1,65.7c0,20.8,4.9,36.9,14.5,48c-35.5,5.3-59.7,18.3-71.7,38.7l-0.9,1.4l17.6,10.4l0.9-1.4
			c10.4-17.6,35.1-27.9,73.4-30.7l9.5-0.7v-22l-5.4-2.9c-11.6-6.2-17.3-19.5-17.3-40.8c0-25.3,18.7-45.2,42.6-45.2
			c22.4,0,40.6,20.3,40.6,45.2c0,21.3-5.7,34.6-17.3,40.8l-5.4,2.9v22l9.5,0.7c38.3,2.7,63,13.1,73.4,30.7l0.9,1.4l17.6-10.4
			L927.7,792.4z"/>
		<path class="st0" d="M1123,358.2c9.6-11.1,14.4-27.2,14.4-47.9c0-36.8-27.7-65.7-63-65.7c-33.7,0-61,29.5-61,65.7
			c0,23.9,6.1,39.6,18.7,47.9c-41.9,3.3-62.5,40.6-79.3,71.1c-5.6,10.2-10.9,19.8-16.7,28.4c-12,0.1-49.5,1-60.6,1.7l-81-191
			l-18.8,8l79.2,186.7c-5.6,2.2-15.4,8.6-18,18.3c-2.4,9.1-4.4,34.8,15.1,44.9l3.7,1c36.3,2.4,72.4,2.5,106.6,0.2l5.5-2.2l0.5-0.3
			c11-9.6,29.1-41.1,36.9-54.5c0.3-0.5,0.6-1,0.9-1.5v296.3c0,22,17.8,39.8,39.8,39.8h59.1c22,0,39.8-17.9,39.8-39.8V575.4h0.4
			c19.3,0,48-15.5,48-58.1v-81.3C1193.1,381.7,1149,361.8,1123,358.2z M1145.1,554.9h-0.4V444.4h-20.5v320.8
			c0,10.7-8.7,19.3-19.3,19.3h-22.1v-203h-20.5v203h-16.5c-10.6,0-19.3-8.7-19.3-19.3l-0.2-320.2l-28.4-0.1l-1.7,0v1.2
			c-2.2,3.2-6.2,9.9-11.1,18.3c-9.1,15.5-21.5,36.6-27.8,43c-27.6,1.7-58.1,2.9-94.2,0.6c-1.5,0-2.8-0.9-3.9-2.6
			c-3.4-5.6-3-17-1.3-20.5c3-6.4,19.2-6.3,36.4-6.2c2.5,0,5,0,7.5,0h46.4l0.5-0.8c0.2-0.3,15.7-27.2,22-38.5c1.5-2.7,3-5.5,4.5-8.3
			c14.3-26.9,29-54.7,79.4-54.7c0.1,0,0.2,0,0.3,0h1.7v-22.2l-5.4-2.9c-11.6-6.2-17.3-19.5-17.3-40.8c0-25.3,18.7-45.2,42.6-45.2
			c22.4,0,40.6,20.3,40.6,45.2c0,21.3-5.7,34.6-17.3,40.8l-5.4,2.9v22.1l9.6,0.7c33.2,0.7,68.8,19.5,68.8,59.2v81.3
			C1172.6,552.4,1145.3,554.9,1145.1,554.9z"/>
	</g>
	<g>
		<defs>
			<path id="SVGID_1_" d="M974.7,582H478.7c-21.3,0-38.7-16.6-38.7-37V192c0-20.4,17.4-37,38.7-37h598.1c21.4,0,38.7,16.6,38.7,37
				v39.2h-22.8V192c0-7.8-7.2-14.2-15.9-14.2H478.7c-8.8,0-15.9,6.4-15.9,14.2v353c0,7.9,7.1,14.2,15.9,14.2h496.1V582z"/>
		</defs>
		<use xlink:href="#SVGID_1_"  style="overflow:visible;fill:#804C9D;"/>
		<clipPath id="SVGID_00000111873543819601359370000012345350849712051843_">
			<use xlink:href="#SVGID_1_"  style="overflow:visible;"/>
		</clipPath>
		<g style="clip-path:url(#SVGID_00000111873543819601359370000012345350849712051843_);">
			<polygon class="st0" points="675.4,801.4 616.2,633.8 480.6,736.2 			"/>
			<polygon class="st0" points="440.6,975.1 480.6,736.2 404.1,836.7 			"/>
			<polygon class="st0" points="440.6,975.1 404.1,836.7 404.1,1042.8 			"/>
			<polygon class="st0" points="686.4,477.9 521.1,438.1 616.2,633.8 			"/>
			<polygon class="st0" points="686.4,477.9 558.8,315.3 521.1,438.1 			"/>
			<polygon class="st0" points="481.5,235.2 530,97.4 404.1,86.1 			"/>
			<polygon class="st0" points="521.1,438.1 481.5,235.2 403.9,398.3 			"/>
			<polygon class="st0" points="616.2,633.8 521.1,438.1 404.1,573.3 404.1,573.3 			"/>
			<polygon class="st0" points="480.6,736.2 616.2,633.8 404.1,573.3 404.1,573.3 			"/>
			<polygon class="st0" points="514.1,-11.9 501.7,-94.2 404.1,86.1 			"/>
			<polygon class="st0" points="675.4,801.4 480.6,736.2 627.7,936.9 			"/>
			<polygon class="st0" points="627.7,936.9 480.6,736.2 440.6,975.1 			"/>
			<polygon class="st0" points="713,949.9 675.4,801.4 627.7,936.9 			"/>
			<polygon class="st0" points="563,1091.1 627.7,936.9 440.6,975.1 			"/>
			<polygon class="st0" points="404.1,86.1 514.1,-11.9 530,97.4 			"/>
			<polygon class="st0" points="404.1,86.1 501.7,-94.2 404.1,-94.2 			"/>
			<polygon class="st0" points="404.1,86.1 403.9,398.3 481.5,235.2 			"/>
			<polygon class="st0" points="480.6,736.2 404.1,836.7 404.1,573.3 			"/>
			<polygon class="st0" points="687.4,14.5 773.6,74.6 743.9,-94.2 			"/>
			<polygon class="st0" points="773.6,74.6 857.9,-94.2 743.9,-94.2 			"/>
			<polygon class="st0" points="773.6,74.6 857.9,273.5 857.9,60.3 			"/>
			<polygon class="st0" points="666.6,245.6 558.8,315.3 726.3,396.6 			"/>
			<polygon class="st0" points="675.4,801.4 713,949.9 857.9,1007.2 			"/>
			<polygon class="st0" points="616.2,633.8 675.4,801.4 761.2,565.5 			"/>
			<polygon class="st0" points="686.4,477.9 761.2,565.5 726.3,396.6 			"/>
			<polygon class="st0" points="687.4,14.5 743.8,-94.2 594.4,-94.2 			"/>
			<polygon class="st0" points="514.1,-11.9 530,97.4 687.4,14.5 			"/>
			<polygon class="st0" points="687.4,14.5 594.4,-94.2 514.1,-11.9 			"/>
			<polygon class="st0" points="530,97.4 481.5,235.2 623.7,168.7 			"/>
			<polygon class="st0" points="687.4,14.5 623.7,168.7 725.5,156.5 			"/>
			<polygon class="st0" points="761.2,565.5 857.9,584.8 857.9,273.5 			"/>
			<polygon class="st0" points="726.3,396.6 761.2,565.5 857.9,273.5 			"/>
			<polygon class="st0" points="530,97.4 623.7,168.7 687.4,14.5 			"/>
			<polygon class="st0" points="857.9,1007.2 728.3,1075.6 713,949.9 			"/>
			<polygon class="st0" points="857.9,-94.2 773.6,74.6 857.9,60.3 			"/>
			<polygon class="st0" points="857.9,1007.2 857.9,842.1 675.4,801.4 			"/>
			<polygon class="st0" points="675.4,801.4 857.9,842.1 857.9,701.8 			"/>
			<polygon class="st0" points="761.2,565.5 675.4,801.4 857.9,701.8 			"/>
			<polygon class="st0" points="616.2,633.8 761.2,565.5 686.4,477.9 			"/>
			<polygon class="st0" points="686.4,477.9 558.8,315.3 726.3,396.6 			"/>
			<polygon class="st0" points="404.1,573.3 403.9,398.3 521.1,438.1 			"/>
			<polygon class="st0" points="558.8,315.3 481.5,235.2 521.1,438.1 			"/>
			<polygon class="st0" points="666.6,245.6 623.7,168.7 558.8,315.3 			"/>
			<polygon class="st0" points="666.6,245.6 857.9,273.5 726.3,396.6 			"/>
			<polygon class="st0" points="666.6,245.6 725.5,156.5 623.7,168.7 			"/>
			<polygon class="st0" points="725.5,156.5 857.9,273.5 773.6,74.6 			"/>
			<polygon class="st0" points="666.6,245.6 725.5,156.5 857.9,273.5 			"/>
			<polygon class="st0" points="640.8,1056 728.3,1075.6 713,949.9 			"/>
			<polygon class="st0" points="640.8,1056 713,949.9 627.7,936.9 			"/>
			<polygon class="st0" points="640.8,1056 627.7,936.9 563,1091.1 			"/>
			<polygon class="st0" points="481.5,235.2 623.7,168.7 558.8,315.3 			"/>
			<polygon class="st0" points="725.5,156.5 773.6,74.6 687.4,14.5 			"/>
			<polygon class="st0" points="857.9,584.8 761.2,565.5 857.9,701.8 			"/>
		</g>
		<g style="clip-path:url(#SVGID_00000111873543819601359370000012345350849712051843_);">
			<polygon class="st0" points="1011.9,801.4 1061.9,633.8 1176.3,736.2 			"/>
			<polygon class="st0" points="1210.2,975.1 1176.3,736.2 1240.9,836.7 			"/>
			<polygon class="st0" points="1210.2,975.1 1240.9,836.7 1240.9,1042.8 			"/>
			<polygon class="st0" points="1002.6,477.9 1142.2,438.1 1061.9,633.8 			"/>
			<polygon class="st0" points="1002.6,477.9 1110.4,315.3 1142.2,438.1 			"/>
			<polygon class="st0" points="1175.6,235.2 1134.7,97.4 1240.9,86.1 			"/>
			<polygon class="st0" points="1142.2,438.1 1175.6,235.2 1241.2,398.3 			"/>
			<polygon class="st0" points="1061.9,633.8 1142.2,438.1 1240.9,573.3 1240.9,573.3 			"/>
			<polygon class="st0" points="1176.3,736.2 1061.9,633.8 1240.9,573.3 1240.9,573.3 			"/>
			<polygon class="st0" points="1148,-11.9 1158.6,-94.2 1240.9,86.1 			"/>
			<polygon class="st0" points="1011.9,801.4 1176.3,736.2 1052.2,936.9 			"/>
			<polygon class="st0" points="1052.2,936.9 1176.3,736.2 1210.2,975.1 			"/>
			<polygon class="st0" points="980.1,949.9 1011.9,801.4 1052.2,936.9 			"/>
			<polygon class="st0" points="1106.8,1091.1 1052.2,936.9 1210.2,975.1 			"/>
			<polygon class="st0" points="1240.9,86.1 1148,-11.9 1134.7,97.4 			"/>
			<polygon class="st0" points="1240.9,86.1 1158.6,-94.2 1240.9,-94.2 			"/>
			<polygon class="st0" points="1240.9,86.1 1241.2,398.3 1175.6,235.2 			"/>
			<polygon class="st0" points="1176.3,736.2 1240.9,836.7 1240.9,573.3 			"/>
			<polygon class="st0" points="1001.7,14.5 928.9,74.6 954.1,-94.2 			"/>
			<polygon class="st0" points="928.9,74.6 857.8,-94.2 954.1,-94.2 			"/>
			<polygon class="st0" points="928.9,74.6 857.8,273.5 857.8,60.3 			"/>
			<polygon class="st0" points="1019.3,245.6 1110.4,315.3 968.9,396.6 			"/>
			<polygon class="st0" points="1011.9,801.4 980.1,949.9 857.8,1007.2 			"/>
			<polygon class="st0" points="1061.9,633.8 1011.9,801.4 939.4,565.5 			"/>
			<polygon class="st0" points="1002.6,477.9 939.4,565.5 968.9,396.6 			"/>
			<polygon class="st0" points="1001.7,14.5 954.1,-94.2 1080.3,-94.2 			"/>
			<polygon class="st0" points="1148,-11.9 1134.7,97.4 1001.7,14.5 			"/>
			<polygon class="st0" points="1001.7,14.5 1080.3,-94.2 1148,-11.9 			"/>
			<polygon class="st0" points="1134.7,97.4 1175.6,235.2 1055.5,168.7 			"/>
			<polygon class="st0" points="1001.7,14.5 1055.5,168.7 969.6,156.5 			"/>
			<polygon class="st0" points="939.4,565.5 857.8,584.8 857.8,273.5 			"/>
			<polygon class="st0" points="968.9,396.6 939.4,565.5 857.8,273.5 			"/>
			<polygon class="st0" points="1134.7,97.4 1055.5,168.7 1001.7,14.5 			"/>
			<polygon class="st0" points="857.8,1007.2 967.2,1075.6 980.1,949.9 			"/>
			<polygon class="st0" points="857.8,-94.2 928.9,74.6 857.8,60.3 			"/>
			<polygon class="st0" points="857.8,1007.2 857.8,842.1 1011.9,801.4 			"/>
			<polygon class="st0" points="1011.9,801.4 857.8,842.1 857.8,701.8 			"/>
			<polygon class="st0" points="939.4,565.5 1011.9,801.4 857.8,701.8 			"/>
			<polygon class="st0" points="1061.9,633.8 939.4,565.5 1002.6,477.9 			"/>
			<polygon class="st0" points="1002.6,477.9 1110.4,315.3 968.9,396.6 			"/>
			<polygon class="st0" points="1240.9,573.3 1241.2,398.3 1142.2,438.1 			"/>
			<polygon class="st0" points="1110.4,315.3 1175.6,235.2 1142.2,438.1 			"/>
			<polygon class="st0" points="1019.3,245.6 1055.5,168.7 1110.4,315.3 			"/>
			<polygon class="st0" points="1019.3,245.6 857.8,273.5 968.9,396.6 			"/>
			<polygon class="st0" points="1019.3,245.6 969.6,156.5 1055.5,168.7 			"/>
			<polygon class="st0" points="969.6,156.5 857.8,273.5 928.9,74.6 			"/>
			<polygon class="st0" points="1019.3,245.6 969.6,156.5 857.8,273.5 			"/>
			<polygon class="st0" points="1041.1,1056 967.2,1075.6 980.1,949.9 			"/>
			<polygon class="st0" points="1041.1,1056 980.1,949.9 1052.2,936.9 			"/>
			<polygon class="st0" points="1041.1,1056 1052.2,936.9 1106.8,1091.1 			"/>
			<polygon class="st0" points="1175.6,235.2 1055.5,168.7 1110.4,315.3 			"/>
			<polygon class="st0" points="969.6,156.5 928.9,74.6 1001.7,14.5 			"/>
			<polygon class="st0" points="857.8,584.8 939.4,565.5 857.8,701.8 			"/>
		</g>
	</g>
	<g>
		<defs>
			<rect id="SVGID_00000107582423435814687530000007201324462553679764_" x="509.5" y="239.6" width="490.4" height="20.6"/>
		</defs>
		<use xlink:href="#SVGID_00000107582423435814687530000007201324462553679764_"  style="overflow:visible;fill:#804C9D;"/>
		<clipPath id="SVGID_00000147177703588174718860000007479190665509130651_">
			<use xlink:href="#SVGID_00000107582423435814687530000007201324462553679764_"  style="overflow:visible;"/>
		</clipPath>
		<g style="clip-path:url(#SVGID_00000147177703588174718860000007479190665509130651_);">
			<polygon class="st0" points="1252,336.6 1159.6,434.1 1337.4,356.6 			"/>
			<polygon class="st0" points="1159.6,434.1 1337.4,463.1 1337.4,356.6 			"/>
			<polygon class="st0" points="1021.2,247 887.8,294.2 969.4,402.1 			"/>
			<polygon class="st0" points="1159.6,434.1 969.4,402.1 1049.4,463.1 			"/>
			<polygon class="st0" points="1159.6,434.1 1049.4,463.1 1213.5,463.1 			"/>
			<polygon class="st0" points="763.6,238.3 731.9,369.9 887.8,294.2 			"/>
			<polygon class="st0" points="763.6,238.3 634.1,339.9 731.9,369.9 			"/>
			<polygon class="st0" points="570.4,401.5 460.6,362.9 451.6,463.1 			"/>
			<polygon class="st0" points="731.9,369.9 570.4,401.5 700.2,463.3 			"/>
			<polygon class="st0" points="1252,336.6 1337.4,356.6 1337.4,261 			"/>
			<polygon class="st0" points="887.8,294.2 731.9,369.9 839.6,463.1 839.6,463.1 			"/>
			<polygon class="st0" points="969.4,402.1 887.8,294.2 839.6,463.1 839.6,463.1 			"/>
			<polygon class="st0" points="373.5,375.5 308,385.4 451.6,463.1 			"/>
			<polygon class="st0" points="1021.2,247 969.4,402.1 1129.1,285 			"/>
			<polygon class="st0" points="1129.1,285 969.4,402.1 1159.6,434.1 			"/>
			<polygon class="st0" points="1139.5,217.1 1021.2,247 1129.1,285 			"/>
			<polygon class="st0" points="1252,336.6 1129.1,285 1159.6,434.1 			"/>
			<polygon class="st0" points="451.6,463.1 373.5,375.5 460.6,362.9 			"/>
			<polygon class="st0" points="1337.4,261 1337.4,186.5 1239.6,204.9 			"/>
			<polygon class="st0" points="451.6,463.1 308,385.4 308,463.1 			"/>
			<polygon class="st0" points="1337.4,463.1 1159.6,434.1 1213.5,463.1 			"/>
			<polygon class="st0" points="451.6,463.1 700.2,463.3 570.4,401.5 			"/>
			<polygon class="st0" points="969.4,402.1 1049.4,463.1 839.6,463.1 			"/>
			<polygon class="st0" points="394.5,237.5 442.5,168.8 308,192.5 			"/>
			<polygon class="st0" points="442.5,168.8 308,101.7 308,192.5 			"/>
			<polygon class="st0" points="442.5,168.8 600.9,101.7 431,101.7 			"/>
			<polygon class="st0" points="578.6,254 634.1,339.9 698.9,206.5 			"/>
			<polygon class="st0" points="1021.2,247 1139.5,217.1 1185.2,101.7 			"/>
			<polygon class="st0" points="887.8,294.2 1021.2,247 833.4,178.7 			"/>
			<polygon class="st0" points="763.6,238.3 833.4,178.7 698.9,206.5 			"/>
			<polygon class="st0" points="394.5,237.5 308,192.6 308,311.5 			"/>
			<polygon class="st0" points="373.5,375.5 460.6,362.9 394.5,237.5 			"/>
			<polygon class="st0" points="394.5,237.5 308,311.5 373.5,375.5 			"/>
			<polygon class="st0" points="1337.4,186.5 1337.4,129.5 1185.2,101.7 			"/>
			<polygon class="st0" points="460.6,362.9 570.4,401.5 517.4,288.2 			"/>
			<polygon class="st0" points="394.5,237.5 517.4,288.2 507.7,207.1 			"/>
			<polygon class="st0" points="833.4,178.7 848.7,101.7 600.9,101.7 			"/>
			<polygon class="st0" points="698.9,206.5 833.4,178.7 600.9,101.7 			"/>
			<polygon class="st0" points="460.6,362.9 517.4,288.2 394.5,237.5 			"/>
			<polygon class="st0" points="1185.2,101.7 1239.6,204.9 1139.5,217.1 			"/>
			<polygon class="st0" points="308,311.5 308,385.4 373.5,375.5 			"/>
			<polygon class="st0" points="1185.2,101.7 1337.4,129.5 1337.4,101.7 			"/>
			<polygon class="st0" points="308,101.7 442.5,168.8 431,101.7 			"/>
			<polygon class="st0" points="1185.2,101.7 1053.7,101.7 1021.2,247 			"/>
			<polygon class="st0" points="1021.2,247 1053.7,101.7 941.9,101.7 			"/>
			<polygon class="st0" points="833.4,178.7 1021.2,247 941.9,101.7 			"/>
			<polygon class="st0" points="887.8,294.2 833.4,178.7 763.6,238.3 			"/>
			<polygon class="st0" points="1337.4,186.5 1239.6,204.9 1185.2,101.7 			"/>
			<polygon class="st0" points="763.6,238.3 634.1,339.9 698.9,206.5 			"/>
			<polygon class="st0" points="839.6,463.1 700.2,463.3 731.9,369.9 			"/>
			<polygon class="st0" points="634.1,339.9 570.4,401.5 731.9,369.9 			"/>
			<polygon class="st0" points="578.6,254 517.4,288.2 634.1,339.9 			"/>
			<polygon class="st0" points="578.6,254 600.9,101.7 698.9,206.5 			"/>
			<polygon class="st0" points="578.6,254 507.7,207.1 517.4,288.2 			"/>
			<polygon class="st0" points="507.7,207.1 600.9,101.7 442.5,168.8 			"/>
			<polygon class="st0" points="578.6,254 507.7,207.1 600.9,101.7 			"/>
			<polygon class="st0" points="1224,274.6 1239.6,204.9 1139.5,217.1 			"/>
			<polygon class="st0" points="1224,274.6 1139.5,217.1 1129.1,285 			"/>
			<polygon class="st0" points="1239.6,204.9 1224,274.6 1337.4,261 			"/>
			<polygon class="st0" points="1224,274.6 1129.1,285 1252,336.6 			"/>
			<polygon class="st0" points="1337.4,261 1224,274.6 1252,336.6 			"/>
			<polygon class="st0" points="570.4,401.5 517.4,288.2 634.1,339.9 			"/>
			<polygon class="st0" points="507.7,207.1 442.5,168.8 394.5,237.5 			"/>
			<polygon class="st0" points="848.7,101.7 833.4,178.7 941.9,101.7 			"/>
		</g>
	</g>
</g>
</svg>
