<?xml version="1.0" encoding="utf-8"?>
<!-- Generator: Adobe Illustrator 25.4.1, SVG Export Plug-In . SVG Version: 6.00 Build 0)  -->
<svg version="1.1" id="Layer_1" xmlns="http://www.w3.org/2000/svg" xmlns:xlink="http://www.w3.org/1999/xlink" x="0px" y="0px"
	 viewBox="0 0 1600 960" style="enable-background:new 0 0 1600 960;" xml:space="preserve">
<style type="text/css">
	.st0{fill:#804C9D;}
	.st1{clip-path:url(#SVGID_00000152942905376596524970000015047286422212990654_);}
</style>
<g>
	<g>
		<g>
			<path class="st0" d="M648,463.9c-3.9-3.8-8.9-7.2-14.8-10c-5.3-2.5-11.8-4.9-19.4-7c-5.1-1.5-9.3-2.8-12.5-4
				c4.1-0.1,9.4,0.3,15.5,1.2c5.3,0.8,11,2.2,17,4.1l5.1,1.6c2.9,0.9,5.9,0.4,8.3-1.3c2.4-1.7,3.8-4.5,3.8-7.5v-31.7
				c0-4.3-3.1-8.2-7.3-9.1l-3.1-0.6c-4.6-1-10-1.9-16.2-2.7c-6.3-0.8-13.5-1.3-21.6-1.3c-9.8,0-18.7,1.1-26.3,3.3
				c-7.9,2.3-14.8,5.6-20.4,9.7c-5.9,4.5-10.5,9.8-13.6,15.8c-3.1,6.1-4.7,12.7-4.7,19.6c0,6.6,1,12.6,3.1,17.8
				c2.1,5.4,5.3,10.3,9.5,14.4c3.9,3.8,8.8,7.1,14.5,9.8c5.1,2.4,10.9,4.5,17.4,6.3c5.7,1.6,10.7,3.2,14.3,4.5
				c0.5,0.2,1,0.4,1.4,0.5c-1.4,0.2-3.1,0.3-5.2,0.3c-5.2,0-11.2-0.6-17.5-1.8c-6.4-1.2-12.9-3.2-19.3-5.8l-5.3-2.2
				c-2.8-1.2-6.1-0.9-8.7,0.8c-2.6,1.7-4.1,4.6-4.1,7.7v34.5c0,4.3,2.9,8,7,9l2.9,0.7c6.8,1.7,14,3,21.5,3.9
				c7.5,0.9,16,1.3,25.1,1.3c7.5,0,14.9-0.8,22-2.3c7.6-1.7,14.6-4.4,20.8-8.1c6.7-4.1,12.2-9.4,16.2-15.9c4.3-6.9,6.5-15,6.5-24.3
				c0-6.1-0.9-11.7-2.6-16.6C655.4,473,652.3,468.1,648,463.9z M613.5,498c0-1.4-0.3-2.7-0.9-3.8c-0.6-1.1-1.8-2.3-3.6-3.4
				c-2-1.2-4.9-2.6-8.6-4c-3.9-1.4-9.1-3.1-15.1-4.8c-5.9-1.7-11.2-3.6-15.7-5.7c-4.6-2.2-8.5-4.8-11.6-7.7c-3.1-3-5.5-6.6-7-10.6
				c-1.5-3.9-2.3-8.6-2.3-13.9c0-5.2,1.2-10.1,3.5-14.7c2.3-4.6,5.8-8.6,10.4-12.1c4.6-3.4,10.3-6.1,16.9-8
				c6.6-1.9,14.5-2.9,23.3-2.9c7.6,0,14.4,0.4,20.2,1.2c6,0.8,11.2,1.7,15.5,2.6l1.8,0.4v28.3l-3-1c-6.6-2.1-12.9-3.7-18.7-4.5
				c-14.6-2.2-24.8-1.7-30.2,1.5c-2.9,1.7-4.2,3.8-4.2,6.8c0,1.4,0.3,2.7,0.8,3.8c0.4,0.7,1.2,1.8,3.3,3.1c1.9,1.2,4.7,2.5,8.2,3.9
				c3.6,1.4,8.4,3,14.4,4.7c6.9,2,12.9,4.1,17.7,6.4c4.9,2.3,8.9,5,11.9,8c3.1,3,5.3,6.5,6.7,10.5c1.3,3.8,2,8.2,2,13
				c0,7.2-1.6,13.5-4.8,18.6c-3.2,5.1-7.4,9.3-12.7,12.4c-5.2,3.1-11.1,5.4-17.5,6.8c-6.4,1.4-13,2.1-19.7,2.1
				c-8.7,0-16.8-0.4-23.9-1.2c-7.1-0.8-13.8-2.1-20.2-3.6l-1.7-0.4v-31l3.2,1.3c7.1,3,14.3,5.1,21.4,6.5c6.9,1.3,13.7,2,19.5,2
				c5.1,0,12.1-0.6,16.2-3.2C612,503.4,613.5,501,613.5,498z"/>
			<path class="st0" d="M785.5,429.5c-2-6.8-5.2-12.8-9.4-17.8c-4.3-5.2-9.8-9.2-16.1-12c-6.1-2.7-13.3-4.1-21.2-4.1
				c-5.5,0-10.6,0.6-15.2,1.8c-4.1,1.1-8.1,2.7-11.8,4.7c-1.7-2.5-4.5-4-7.6-4h-32.2c-5.1,0-9.3,4.1-9.3,9.3v126.4
				c0,5.1,4.1,9.3,9.3,9.3h36.2c5.1,0,9.3-4.1,9.3-9.3v-74.6c3.4-4.3,6.6-7.8,9.5-10.4c3-2.7,4.5-2.5,5.7-2.6
				c0.3,0.8,0.8,2.7,0.8,6.4v81.2c0,5.1,4.1,9.3,9.3,9.3h36.2c5.1,0,9.3-4.1,9.3-9.3v-83.5C788.3,442.8,787.4,435.7,785.5,429.5z
				 M732.2,435.5c-4.3,0-8.3,1.7-12.3,5.3c-4,3.5-8.4,8.4-12.9,14.5l-0.3,0.4v76.7h-33.1V409h29.2l0.6,13.7l3.9-3.8
				c2.7-2.6,5.7-4.8,8.9-6.7c3.2-1.8,6.7-3.3,10.4-4.3c3.7-1,7.9-1.5,12.4-1.5c6.4,0,12,1.1,16.8,3.2c4.8,2.1,8.9,5.2,12.2,9
				c3.2,3.9,5.7,8.6,7.3,13.9c1.6,5.3,2.4,11.3,2.4,17.8v82h-33.1v-79.6C744.4,435.5,735.5,435.5,732.2,435.5z"/>
		</g>
		<g>
			<path class="st0" d="M912.7,398.2h-36.2c-5.1,0-9.3,4.1-9.3,9.3V482c-3.4,4.4-6.6,7.9-9.6,10.6c-3.3,3-4.9,2.6-5.6,2.5
				c-0.6-1.4-0.9-3.7-0.9-6.5v-81.2c0-5.1-4.1-9.3-9.3-9.3h-36.2c-5.1,0-9.3,4.1-9.3,9.3V491c0,7.6,1,14.6,2.8,20.8
				c2,6.7,5.1,12.7,9.3,17.8c4.4,5.3,9.8,9.3,16.3,12.1c6.2,2.7,13.3,4.1,21.2,4.1c5.5,0,10.6-0.6,15.2-1.9
				c4.1-1.1,8.1-2.7,11.7-4.7c1.7,2.4,4.5,4,7.6,4h32.2c5.1,0,9.3-4.1,9.3-9.3V407.5C922,402.4,917.8,398.2,912.7,398.2z
				 M843.6,501.9c2,2.7,4.9,4,9.1,4c4.2,0,8.2-1.7,12.2-5.3c4-3.6,8.4-8.5,12.9-14.6l0.3-0.4V409h33.1v123.3H882l-0.5-13.8l-3.9,3.9
				c-2.7,2.6-5.7,4.9-8.8,6.7c-3.2,1.9-6.7,3.3-10.4,4.3c-3.7,1-7.9,1.5-12.4,1.5c-6.4,0-12.1-1.1-16.9-3.2c-4.9-2.1-9-5.2-12.2-9.1
				c-3.2-3.9-5.7-8.6-7.3-14c-1.6-5.3-2.4-11.2-2.4-17.8v-82h33.1v79.6C840.4,494.6,841.5,499,843.6,501.9z"/>
			<path class="st0" d="M991.1,431.2c-3.2,0-5.9,0.5-8.2,1.5c-2.3,1-4.2,2.4-5.7,4.1c-1.5,1.8-2.6,3.8-3.4,6.1
				c-0.8,2.4-1.2,5-1.2,7.6c0,5.7,1.6,10.1,4.9,13.4c3.3,3.3,7.8,4.9,13.8,4.9c3.2,0,5.9-0.5,8.2-1.6c2.3-1,4.2-2.4,5.7-4.1
				c1.5-1.7,2.6-3.7,3.4-6c0.8-2.3,1.2-4.8,1.2-7.3c0-6-1.6-10.6-4.9-13.9C1001.7,432.8,997.2,431.2,991.1,431.2z M999.1,449.9
				c0,1.4-0.2,2.7-0.6,3.9c-0.3,0.9-0.7,1.7-1.3,2.3c-0.5,0.5-1.1,1-2,1.4c-0.5,0.2-1.6,0.6-3.8,0.6c-4.5,0-5.8-1.3-6.2-1.7
				c-0.5-0.5-1.7-1.7-1.7-5.7c0-1.5,0.2-2.9,0.6-4.3c0.3-1,0.7-1.7,1.3-2.4c0.4-0.5,1.1-1,1.9-1.3c0.5-0.2,1.7-0.6,3.8-0.6
				c3,0,5.1,0.6,6.2,1.7C998.5,444.8,999.1,446.9,999.1,449.9z"/>
			<path class="st0" d="M1064.5,436v-28.5c0-5.1-4.1-9.3-9.3-9.3h-43.1c-2.9-0.8-6.1-1.4-9.3-1.7c-3.5-0.4-7.1-0.6-10.6-0.6
				c-8.7,0-16.9,1.1-23.8,3.3c-7.4,2.3-14,5.9-19.5,10.5c-5.7,4.8-10.2,10.7-13.3,17.7c-3.1,6.9-4.7,14.7-4.7,23.2
				c0,8.1,1.4,15.1,4.1,20.9c0.7,1.6,1.6,3.2,2.5,4.7c-1.3,1.8-2.5,3.8-3.6,5.8c-1.6,2.9-2.8,5.9-3.7,9c-1.1,3.5-1.6,7.3-1.6,11.2
				c0,6.2,1.6,12.1,4.7,17.5c0.2,0.4,0.5,0.9,0.8,1.3c-1.7,1.9-3.2,3.8-4.4,5.7c-2.1,3.2-3.7,6.6-4.7,10.1
				c-1.1,3.5-1.6,7.4-1.6,11.4c0,6.7,1.6,13.1,4.8,18.8c3.2,5.7,8,10.6,14.3,14.5c5.6,3.5,12.7,6.2,21,8c7.9,1.7,17.1,2.6,27.5,2.6
				c11,0,21-1.2,29.6-3.6c8.9-2.5,16.6-6.1,22.9-10.6c6.7-4.8,11.8-10.7,15.3-17.5c3.4-6.7,5.2-14,5.2-21.6c0-7-1.5-13.4-4.5-19
				c-3-5.6-7.1-10.3-12.4-14.1c-4.9-3.5-10.7-6.3-17.3-8.1c-1.6-0.5-3.4-0.9-5.1-1.2c3.4-1.7,6.5-3.8,9.3-6.1
				c5.7-4.7,10.2-10.6,13.3-17.4c3.1-6.8,4.6-14.5,4.6-22.9c0-1.6-0.1-3.1-0.2-4.6h3.7C1060.4,445.2,1064.5,441.1,1064.5,436z
				 M1038.3,436.6c0.5,1.1,1,2.3,1.3,3.4c1,3.2,1.4,6.5,1.4,9.8c0,6.9-1.2,13.1-3.6,18.5c-2.4,5.4-5.9,9.9-10.3,13.6
				c-4.4,3.6-9.7,6.4-15.7,8.2c-6,1.8-12.7,2.7-19.9,2.7c-4.3,0-8.3-0.4-12-1.3c-2.2-0.5-4.2-1.1-5.9-1.8l-1.1-0.4l-0.7,0.9
				c-0.4,0.5-0.8,1.1-1.1,1.7c-0.7,1.3-1.1,2.6-1.1,4.3c0,0.9,0.2,1.8,0.7,2.7c0.5,0.9,1.2,1.8,2.1,2.6c1,0.8,2.3,1.5,3.7,2
				c1.4,0.5,3.1,0.8,5,0.9l28.2,1.1c6.4,0.2,12.3,1,17.6,2.5c5.3,1.5,10,3.7,13.9,6.5c3.9,2.8,7,6.3,9.2,10.4
				c2.1,4.1,3.2,8.8,3.2,14c0,5.9-1.3,11.5-4,16.7c-2.7,5.2-6.7,9.8-12,13.6c-5.2,3.8-11.8,6.8-19.5,8.9c-7.7,2.1-16.6,3.2-26.7,3.2
				c-9.6,0-18.1-0.8-25.2-2.3c-7.1-1.6-13.1-3.8-17.7-6.7c-4.7-2.9-8.3-6.5-10.6-10.6c-2.3-4.1-3.5-8.7-3.5-13.6
				c0-3,0.4-5.7,1.2-8.3c0.8-2.5,1.9-5,3.4-7.3c1.5-2.3,3.4-4.5,5.6-6.7c1.1-1,2.2-2.1,3.5-3.1l1.4-1.2l-1.4-1.2
				c-2.1-1.8-3.8-3.9-5.2-6.2c-2.2-3.8-3.3-7.8-3.3-12.1c0-2.9,0.4-5.6,1.2-8.1c0.7-2.4,1.7-4.7,2.9-7c1.2-2.2,2.6-4.4,4.1-6.4
				c0.8-1.1,1.7-2.2,2.6-3.3l0.8-1l-0.8-1c-2.1-2.5-3.9-5.4-5.3-8.6c-2-4.4-3.1-9.9-3.1-16.3c0-6.9,1.3-13.2,3.8-18.6
				c2.5-5.5,6-10.2,10.5-13.9c4.4-3.7,9.7-6.6,15.8-8.5c5.9-1.8,13-2.8,20.6-2.8c3.2,0,6.4,0.2,9.5,0.5c3.1,0.3,6,0.9,8.7,1.7
				l43.3,0.1v25.4h-16.5L1038.3,436.6z"/>
			<path class="st0" d="M967.9,545.8c0,2.3,0.6,5.7,5.6,8.1c4.3,2,10.6,3,18.6,3c5.1,0,9.5-0.5,13-1.4c3.4-0.9,6.2-2.2,8.3-3.6
				c2-1.4,3.4-3,4.3-4.8c0.9-1.9,1.3-3.8,1.3-5.8c0-1.6-0.3-3-1.1-4c-0.8-1.1-1.9-2.1-3.3-2.9c-1.5-0.9-3.4-1.5-5.5-2
				c-2.2-0.5-4.7-0.8-7.6-1l-24.2-0.5l-0.4,0.3c-1.6,1.2-3.1,2.4-4.2,3.5c-1.3,1.2-2.3,2.5-3,3.7c-0.7,1.1-1.1,2.2-1.3,3.4
				C968,543,967.9,544.3,967.9,545.8z M978.8,543.9c0.1-0.1,0.5-0.7,1.3-1.5c0.2-0.2,0.5-0.4,0.7-0.6l20.4,0.4c2,0.1,4,0.4,5.6,0.7
				c0.1,0,0.3,0.1,0.4,0.1c-0.6,0.4-2.1,1.3-5,2.1c-2.5,0.7-6,1-10.1,1c-7,0-11-0.9-13.3-1.7c0-0.2,0.1-0.5,0.1-0.8
				C978.9,543.8,978.8,544,978.8,543.9C978.8,544,978.8,544,978.8,543.9z"/>
		</g>
	</g>
	<g>
		<defs>
			<path id="SVGID_1_" d="M800,805c-179.2,0-325-145.8-325-325s145.8-325,325-325s325,145.8,325,325S979.2,805,800,805z M800,172.4
				c-169.6,0-307.6,138-307.6,307.6s138,307.6,307.6,307.6c169.6,0,307.6-138,307.6-307.6S969.6,172.4,800,172.4z"/>
		</defs>
		<use xlink:href="#SVGID_1_"  style="overflow:visible;fill:#804C9D;"/>
		<clipPath id="SVGID_00000129199252825514541090000011721886301291101362_">
			<use xlink:href="#SVGID_1_"  style="overflow:visible;"/>
		</clipPath>
		<g style="clip-path:url(#SVGID_00000129199252825514541090000011721886301291101362_);">
			<polygon class="st0" points="641.5,855.5 566.9,644.5 396.3,773.5 			"/>
			<polygon class="st0" points="345.9,1074.1 396.3,773.5 300,900 			"/>
			<polygon class="st0" points="345.9,1074.1 300,900 300,1159.3 			"/>
			<polygon class="st0" points="655.3,448.2 447.3,398.2 566.9,644.5 			"/>
			<polygon class="st0" points="655.3,448.2 494.7,243.6 447.3,398.2 			"/>
			<polygon class="st0" points="397.4,142.8 458.4,-30.7 300,-44.8 			"/>
			<polygon class="st0" points="447.3,398.2 397.4,142.8 299.7,348.1 			"/>
			<polygon class="st0" points="566.9,644.5 447.3,398.2 300,568.4 300,568.4 			"/>
			<polygon class="st0" points="396.3,773.5 566.9,644.5 300,568.4 300,568.4 			"/>
			<polygon class="st0" points="641.5,855.5 396.3,773.5 581.4,1026 			"/>
			<polygon class="st0" points="581.4,1026 396.3,773.5 345.9,1074.1 			"/>
			<polygon class="st0" points="688.8,1042.4 641.5,855.5 581.4,1026 			"/>
			<polygon class="st0" points="300,-44.8 299.7,348.1 397.4,142.8 			"/>
			<polygon class="st0" points="396.3,773.5 300,900 300,568.4 			"/>
			<polygon class="st0" points="765.1,-59.3 871.2,191 871.2,-77.4 			"/>
			<polygon class="st0" points="630.4,155.9 494.7,243.6 705.6,345.9 			"/>
			<polygon class="st0" points="641.5,855.5 688.8,1042.4 871.2,1114.6 			"/>
			<polygon class="st0" points="566.9,644.5 641.5,855.5 749.5,558.6 			"/>
			<polygon class="st0" points="655.3,448.2 749.5,558.6 705.6,345.9 			"/>
			<polygon class="st0" points="458.4,-30.7 397.4,142.8 576.4,59 			"/>
			<polygon class="st0" points="656.6,-135.1 576.4,59 704.6,43.7 			"/>
			<polygon class="st0" points="749.5,558.6 871.2,582.8 871.2,191 			"/>
			<polygon class="st0" points="705.6,345.9 749.5,558.6 871.2,191 			"/>
			<polygon class="st0" points="458.4,-30.7 576.4,59 656.6,-135.1 			"/>
			<polygon class="st0" points="871.2,1114.6 871.2,906.8 641.5,855.5 			"/>
			<polygon class="st0" points="641.5,855.5 871.2,906.8 871.2,730.1 			"/>
			<polygon class="st0" points="749.5,558.6 641.5,855.5 871.2,730.1 			"/>
			<polygon class="st0" points="566.9,644.5 749.5,558.6 655.3,448.2 			"/>
			<polygon class="st0" points="655.3,448.2 494.7,243.6 705.6,345.9 			"/>
			<polygon class="st0" points="300,568.4 299.7,348.1 447.3,398.2 			"/>
			<polygon class="st0" points="494.7,243.6 397.4,142.8 447.3,398.2 			"/>
			<polygon class="st0" points="630.4,155.9 576.4,59 494.7,243.6 			"/>
			<polygon class="st0" points="630.4,155.9 871.2,191 705.6,345.9 			"/>
			<polygon class="st0" points="630.4,155.9 704.6,43.7 576.4,59 			"/>
			<polygon class="st0" points="704.6,43.7 871.2,191 765.1,-59.3 			"/>
			<polygon class="st0" points="630.4,155.9 704.6,43.7 871.2,191 			"/>
			<polygon class="st0" points="397.4,142.8 576.4,59 494.7,243.6 			"/>
			<polygon class="st0" points="704.6,43.7 765.1,-59.3 656.6,-135.1 			"/>
			<polygon class="st0" points="871.2,582.8 749.5,558.6 871.2,730.1 			"/>
		</g>
		<g style="clip-path:url(#SVGID_00000129199252825514541090000011721886301291101362_);">
			<polygon class="st0" points="1213,855.5 1138.4,644.5 967.9,773.5 			"/>
			<polygon class="st0" points="917.4,1074.1 967.9,773.5 871.6,900 			"/>
			<polygon class="st0" points="917.4,1074.1 871.6,900 871.6,1159.3 			"/>
			<polygon class="st0" points="1226.8,448.2 1018.8,398.2 1138.4,644.5 			"/>
			<polygon class="st0" points="1226.8,448.2 1066.2,243.6 1018.8,398.2 			"/>
			<polygon class="st0" points="968.9,142.8 1029.9,-30.7 871.6,-44.8 			"/>
			<polygon class="st0" points="1018.8,398.2 968.9,142.8 871.2,348.1 			"/>
			<polygon class="st0" points="1138.4,644.5 1018.8,398.2 871.6,568.4 871.6,568.4 			"/>
			<polygon class="st0" points="967.9,773.5 1138.4,644.5 871.6,568.4 871.6,568.4 			"/>
			<polygon class="st0" points="1213,855.5 967.9,773.5 1152.9,1026 			"/>
			<polygon class="st0" points="1152.9,1026 967.9,773.5 917.4,1074.1 			"/>
			<polygon class="st0" points="1260.3,1042.4 1213,855.5 1152.9,1026 			"/>
			<polygon class="st0" points="871.6,-44.8 871.2,348.1 968.9,142.8 			"/>
			<polygon class="st0" points="967.9,773.5 871.6,900 871.6,568.4 			"/>
			<polygon class="st0" points="1336.6,-59.3 1442.8,191 1442.8,-77.4 			"/>
			<polygon class="st0" points="1201.9,155.9 1066.2,243.6 1277.1,345.9 			"/>
			<polygon class="st0" points="1213,855.5 1260.3,1042.4 1442.8,1114.6 			"/>
			<polygon class="st0" points="1138.4,644.5 1213,855.5 1321,558.6 			"/>
			<polygon class="st0" points="1226.8,448.2 1321,558.6 1277.1,345.9 			"/>
			<polygon class="st0" points="1029.9,-30.7 968.9,142.8 1147.9,59 			"/>
			<polygon class="st0" points="1228.1,-135.1 1147.9,59 1276.1,43.7 			"/>
			<polygon class="st0" points="1321,558.6 1442.8,582.8 1442.8,191 			"/>
			<polygon class="st0" points="1277.1,345.9 1321,558.6 1442.8,191 			"/>
			<polygon class="st0" points="1029.9,-30.7 1147.9,59 1228.1,-135.1 			"/>
			<polygon class="st0" points="1442.8,1114.6 1442.8,906.8 1213,855.5 			"/>
			<polygon class="st0" points="1213,855.5 1442.8,906.8 1442.8,730.1 			"/>
			<polygon class="st0" points="1321,558.6 1213,855.5 1442.8,730.1 			"/>
			<polygon class="st0" points="1138.4,644.5 1321,558.6 1226.8,448.2 			"/>
			<polygon class="st0" points="1226.8,448.2 1066.2,243.6 1277.1,345.9 			"/>
			<polygon class="st0" points="871.6,568.4 871.2,348.1 1018.8,398.2 			"/>
			<polygon class="st0" points="1066.2,243.6 968.9,142.8 1018.8,398.2 			"/>
			<polygon class="st0" points="1201.9,155.9 1147.9,59 1066.2,243.6 			"/>
			<polygon class="st0" points="1201.9,155.9 1442.8,191 1277.1,345.9 			"/>
			<polygon class="st0" points="1201.9,155.9 1276.1,43.7 1147.9,59 			"/>
			<polygon class="st0" points="1276.1,43.7 1442.8,191 1336.6,-59.3 			"/>
			<polygon class="st0" points="1201.9,155.9 1276.1,43.7 1442.8,191 			"/>
			<polygon class="st0" points="968.9,142.8 1147.9,59 1066.2,243.6 			"/>
			<polygon class="st0" points="1276.1,43.7 1336.6,-59.3 1228.1,-135.1 			"/>
			<polygon class="st0" points="1442.8,582.8 1321,558.6 1442.8,730.1 			"/>
		</g>
	</g>
</g>
</svg>
