<?xml version="1.0" encoding="utf-8"?>
<!-- Generator: Adobe Illustrator 25.4.1, SVG Export Plug-In . SVG Version: 6.00 Build 0)  -->
<svg version="1.1" id="Layer_1" xmlns="http://www.w3.org/2000/svg" xmlns:xlink="http://www.w3.org/1999/xlink" x="0px" y="0px"
	 viewBox="0 0 1600 960" style="enable-background:new 0 0 1600 960;" xml:space="preserve">
<style type="text/css">
	.st0{clip-path:url(#SVGID_00000099634221386243616370000011228438614336617371_);}
	.st1{fill:#804C9D;}
	.st2{clip-path:url(#SVGID_00000172416140759268412570000016804616099605586088_);}
	.st3{clip-path:url(#SVGID_00000085932571234228439130000011175753189614308005_);}
	.st4{clip-path:url(#SVGID_00000101103179446408806440000009474093142866953651_);}
	.st5{clip-path:url(#SVGID_00000121243308093154342460000009039553919760448646_);}
	.st6{clip-path:url(#SVGID_00000111896589774779761050000001867723231812283573_);}
	.st7{clip-path:url(#SVGID_00000113326522270842694640000010219056739112284564_);}
</style>
<g>
	<g>
		<defs>
			<path id="SVGID_1_" d="M978.1,805c-45.9,0-90.7-16.3-125.9-45.8l-9.1-7.6l9.4-7.1c18-13.5,43.6-23.5,74.1-28.9
				c0.1-5.5,0.1-11.3,0.1-17.2c0-4.5-3.2-10.5-6.5-16.9c-4.4-8.3-9.2-17.7-10.2-28.7c-5.5-11.9-8.5-23.6-8.5-33
				c0-5.5,1.1-10.2,3.2-14l-3.1-17.9c-5.9-32.5,5.1-55.2,33.5-69.1c0.3-2.3,0.5-6,0.6-8.5c0.5-9.7,0.9-17.3,8-20.1l5.6-2.2l5.8,4.8
				c9.7,9.3,35.5,15.9,49.4,19.5c5.2,1.3,9.4,2.4,11.9,3.3l0,0c30.9,11,44.4,36.7,38,72.4l-3.1,18c2.2,3.8,3.2,8.5,3.2,14
				c0,9.4-3,21-8.5,33c-1,11.1-6,20.8-10.4,29.4c-3.2,6.3-6.3,12.3-6.3,16.3c0,5.9,0,11.7-0.2,17c30.8,5.5,56.4,15.5,74.4,29.1
				l9.4,7.1l-9.1,7.6C1068.7,788.7,1024,805,978.1,805z M874.4,752.7c60.2,43.4,147.3,43.4,207.5,0c-14.7-8.3-34-14.8-55.7-18.6
				c-9.5-1.7-16.1-9.9-15.7-19.4c0.2-5.1,0.2-10.5,0.2-16.2c0-8.5,4.1-16.5,8.4-24.9c4-7.7,8.1-15.8,8.5-23.6l0.9-3.6
				c4.7-9.9,7.5-19.5,7.5-26.5c0-3-0.5-4.5-1-5.1l-3.5-3.5l4.7-26.7c4.7-26.3-4-43.6-25.8-51.4h0c-2.1-0.8-5.7-1.6-10.2-2.8
				c-13.3-3.4-31.7-8.1-45.7-15.6c-0.5,9.1-1.7,16.7-8.4,19.7c-22.9,10.3-30.4,24.8-25.8,50.1l4.7,26.7l-3.5,3.5
				c-0.5,0.5-1,2.1-1,5.1c0,7,2.7,16.6,7.5,26.5l0.9,3.6c0.3,7.7,4.4,15.4,8.3,22.8c4.2,8.1,8.6,16.5,8.6,25.7
				c0,5.7,0,11.1,0.2,16.2c0.4,9.4-6.3,17.7-15.7,19.4C908.4,737.9,889.1,744.4,874.4,752.7z"/>
		</defs>
		<use xlink:href="#SVGID_1_"  style="overflow:visible;fill:#804C9D;"/>
		<clipPath id="SVGID_00000171700365555217752920000004740910751581901450_">
			<use xlink:href="#SVGID_1_"  style="overflow:visible;"/>
		</clipPath>
		<g style="clip-path:url(#SVGID_00000171700365555217752920000004740910751581901450_);">
			<polygon class="st1" points="1008.3,976.1 974.5,880.6 897.3,939 			"/>
			<polygon class="st1" points="874.5,1075.1 897.3,939 853.7,996.3 			"/>
			<polygon class="st1" points="1014.5,791.8 920.4,769.1 974.5,880.6 			"/>
			<polygon class="st1" points="1014.5,791.8 941.8,699.1 920.4,769.1 			"/>
			<polygon class="st1" points="897.8,653.5 925.4,575 853.7,568.5 			"/>
			<polygon class="st1" points="920.4,769.1 897.8,653.5 853.6,746.4 			"/>
			<polygon class="st1" points="974.5,880.6 920.4,769.1 853.7,846.1 853.7,846.1 			"/>
			<polygon class="st1" points="897.3,939 974.5,880.6 853.7,846.1 853.7,846.1 			"/>
			<polygon class="st1" points="916.4,512.7 909.3,465.8 853.7,568.5 			"/>
			<polygon class="st1" points="1008.3,976.1 897.3,939 981.1,1053.3 			"/>
			<polygon class="st1" points="981.1,1053.3 897.3,939 874.5,1075.1 			"/>
			<polygon class="st1" points="853.7,568.5 916.4,512.7 925.4,575 			"/>
			<polygon class="st1" points="853.7,568.5 909.3,465.8 853.7,465.8 			"/>
			<polygon class="st1" points="853.7,568.5 853.6,746.4 897.8,653.5 			"/>
			<polygon class="st1" points="897.3,939 853.7,996.3 853.7,846.1 			"/>
			<polygon class="st1" points="1015.1,527.7 1064.3,562 1047.3,465.8 			"/>
			<polygon class="st1" points="1064.3,562 1112.3,465.8 1047.3,465.8 			"/>
			<polygon class="st1" points="1064.3,562 1112.3,675.3 1112.3,553.8 			"/>
			<polygon class="st1" points="1003.3,659.4 941.8,699.1 1037.3,745.4 			"/>
			<polygon class="st1" points="974.5,880.6 1008.3,976.1 1057.2,841.7 			"/>
			<polygon class="st1" points="1014.5,791.8 1057.2,841.7 1037.3,745.4 			"/>
			<polygon class="st1" points="1015.1,527.7 1047.3,465.8 962.2,465.8 			"/>
			<polygon class="st1" points="916.4,512.7 925.4,575 1015.1,527.7 			"/>
			<polygon class="st1" points="1015.1,527.7 962.2,465.8 916.4,512.7 			"/>
			<polygon class="st1" points="925.4,575 897.8,653.5 978.8,615.6 			"/>
			<polygon class="st1" points="1015.1,527.7 978.8,615.6 1036.9,608.6 			"/>
			<polygon class="st1" points="1057.2,841.7 1112.3,852.7 1112.3,675.3 			"/>
			<polygon class="st1" points="1037.3,745.4 1057.2,841.7 1112.3,675.3 			"/>
			<polygon class="st1" points="925.4,575 978.8,615.6 1015.1,527.7 			"/>
			<polygon class="st1" points="962.2,465.8 909.3,465.8 916.4,512.7 			"/>
			<polygon class="st1" points="1112.3,465.8 1064.3,562 1112.3,553.8 			"/>
			<polygon class="st1" points="1008.3,976.1 1112.3,999.4 1112.3,919.3 			"/>
			<polygon class="st1" points="1057.2,841.7 1008.3,976.1 1112.3,919.3 			"/>
			<polygon class="st1" points="974.5,880.6 1057.2,841.7 1014.5,791.8 			"/>
			<polygon class="st1" points="1014.5,791.8 941.8,699.1 1037.3,745.4 			"/>
			<polygon class="st1" points="853.7,846.1 853.6,746.4 920.4,769.1 			"/>
			<polygon class="st1" points="941.8,699.1 897.8,653.5 920.4,769.1 			"/>
			<polygon class="st1" points="1003.3,659.4 978.8,615.6 941.8,699.1 			"/>
			<polygon class="st1" points="1003.3,659.4 1112.3,675.3 1037.3,745.4 			"/>
			<polygon class="st1" points="1003.3,659.4 1036.9,608.6 978.8,615.6 			"/>
			<polygon class="st1" points="1036.9,608.6 1112.3,675.3 1064.3,562 			"/>
			<polygon class="st1" points="1003.3,659.4 1036.9,608.6 1112.3,675.3 			"/>
			<polygon class="st1" points="897.8,653.5 978.8,615.6 941.8,699.1 			"/>
			<polygon class="st1" points="1036.9,608.6 1064.3,562 1015.1,527.7 			"/>
			<polygon class="st1" points="1112.3,852.7 1057.2,841.7 1112.3,919.3 			"/>
		</g>
	</g>
	<path class="st1" d="M744.1,715h-288c-16.7,0-30.4-13.6-30.4-30.4V185.4c0-16.8,13.6-30.4,30.4-30.4h552.4
		c16.7,0,30.4,13.6,30.4,30.4v182.3h-18.3V185.4c0-6.7-5.4-12.1-12.1-12.1H456.1c-6.7,0-12.1,5.4-12.1,12.1v499.3
		c0,6.7,5.4,12.1,12.1,12.1h288V715z"/>
	<rect x="434.9" y="274.1" class="st1" width="594.9" height="13.7"/>
	<g>
		<path class="st1" d="M492.9,205.9c-9.6,0-17.5,7.9-17.5,17.5c0,9.7,7.8,17.5,17.5,17.5s17.5-7.9,17.5-17.5
			C510.3,213.8,502.5,205.9,492.9,205.9z"/>
		<path class="st1" d="M556.6,205.9c-9.6,0-17.5,7.9-17.5,17.5c0,9.7,7.8,17.5,17.5,17.5s17.5-7.9,17.5-17.5
			C574.1,213.8,566.2,205.9,556.6,205.9z"/>
		<path class="st1" d="M620.3,205.9c-9.6,0-17.5,7.9-17.5,17.5c0,9.7,7.8,17.5,17.5,17.5s17.5-7.9,17.5-17.5
			C637.8,213.8,630,205.9,620.3,205.9z"/>
	</g>
	<g>
		<defs>
			<polygon id="SVGID_00000116226927386886143380000005614905355533931408_" points="537.6,426 494,389.7 505.8,375.7 535.1,400.1 
				582.7,341.3 596.9,352.7 			"/>
		</defs>
		<use xlink:href="#SVGID_00000116226927386886143380000005614905355533931408_"  style="overflow:visible;fill:#804C9D;"/>
		<clipPath id="SVGID_00000003063456340381217730000000274564932726941597_">
			<use xlink:href="#SVGID_00000116226927386886143380000005614905355533931408_"  style="overflow:visible;"/>
		</clipPath>
		<g style="clip-path:url(#SVGID_00000003063456340381217730000000274564932726941597_);">
			<polygon class="st1" points="497.5,700.8 453.6,659.3 488.4,739.2 			"/>
			<polygon class="st1" points="453.6,659.3 440.6,739.2 488.4,739.2 			"/>
			<polygon class="st1" points="537.7,597.1 516.5,537.1 468,573.8 			"/>
			<polygon class="st1" points="453.6,659.3 468,573.8 440.6,609.8 			"/>
			<polygon class="st1" points="453.6,659.3 440.6,609.8 440.6,683.5 			"/>
			<polygon class="st1" points="541.6,481.3 482.5,467.1 516.5,537.1 			"/>
			<polygon class="st1" points="541.6,481.3 496,423.1 482.5,467.1 			"/>
			<polygon class="st1" points="468.3,394.4 485.6,345.1 440.6,341 			"/>
			<polygon class="st1" points="482.5,467.1 468.3,394.4 440.5,452.8 			"/>
			<polygon class="st1" points="497.5,700.8 488.5,739.2 531.4,739.2 			"/>
			<polygon class="st1" points="516.5,537.1 482.5,467.1 440.6,515.5 440.6,515.5 			"/>
			<polygon class="st1" points="468,573.8 516.5,537.1 440.6,515.5 440.6,515.5 			"/>
			<polygon class="st1" points="480,305.9 475.5,276.5 440.6,341 			"/>
			<polygon class="st1" points="537.7,597.1 468,573.8 520.6,645.6 			"/>
			<polygon class="st1" points="520.6,645.6 468,573.8 453.6,659.3 			"/>
			<polygon class="st1" points="551.2,650.3 537.7,597.1 520.6,645.6 			"/>
			<polygon class="st1" points="497.5,700.8 520.6,645.6 453.6,659.3 			"/>
			<polygon class="st1" points="440.6,341 480,305.9 485.6,345.1 			"/>
			<polygon class="st1" points="531.4,739.2 564.9,739.2 556.7,695.3 			"/>
			<polygon class="st1" points="440.6,341 475.5,276.5 440.6,276.5 			"/>
			<polygon class="st1" points="440.6,739.2 453.6,659.3 440.6,683.5 			"/>
			<polygon class="st1" points="440.6,341 440.5,452.8 468.3,394.4 			"/>
			<polygon class="st1" points="468,573.8 440.6,609.8 440.6,515.5 			"/>
			<polygon class="st1" points="542,315.4 572.9,336.9 562.2,276.5 			"/>
			<polygon class="st1" points="572.9,336.9 603.1,276.5 562.2,276.5 			"/>
			<polygon class="st1" points="572.9,336.9 603.1,408.1 603.1,331.8 			"/>
			<polygon class="st1" points="534.6,398.1 496,423.1 555.9,452.2 			"/>
			<polygon class="st1" points="537.7,597.1 551.2,650.3 603.1,670.8 			"/>
			<polygon class="st1" points="516.5,537.1 537.7,597.1 568.4,512.7 			"/>
			<polygon class="st1" points="541.6,481.3 568.4,512.7 555.9,452.2 			"/>
			<polygon class="st1" points="542,315.4 562.2,276.5 508.7,276.5 			"/>
			<polygon class="st1" points="480,305.9 485.6,345.1 542,315.4 			"/>
			<polygon class="st1" points="542,315.4 508.7,276.5 480,305.9 			"/>
			<polygon class="st1" points="564.9,739.2 590.5,739.2 603.1,670.8 			"/>
			<polygon class="st1" points="485.6,345.1 468.3,394.4 519.2,370.6 			"/>
			<polygon class="st1" points="542,315.4 519.2,370.6 555.7,366.2 			"/>
			<polygon class="st1" points="568.4,512.7 603.1,519.6 603.1,408.1 			"/>
			<polygon class="st1" points="555.9,452.2 568.4,512.7 603.1,408.1 			"/>
			<polygon class="st1" points="485.6,345.1 519.2,370.6 542,315.4 			"/>
			<polygon class="st1" points="603.1,670.8 556.7,695.3 551.2,650.3 			"/>
			<polygon class="st1" points="508.7,276.5 475.5,276.5 480,305.9 			"/>
			<polygon class="st1" points="603.1,670.8 590.5,739.2 603.1,739.2 			"/>
			<polygon class="st1" points="603.1,276.5 572.9,336.9 603.1,331.8 			"/>
			<polygon class="st1" points="603.1,670.8 603.1,611.7 537.7,597.1 			"/>
			<polygon class="st1" points="537.7,597.1 603.1,611.7 603.1,561.4 			"/>
			<polygon class="st1" points="568.4,512.7 537.7,597.1 603.1,561.4 			"/>
			<polygon class="st1" points="516.5,537.1 568.4,512.7 541.6,481.3 			"/>
			<polygon class="st1" points="564.9,739.2 556.7,695.3 603.1,670.8 			"/>
			<polygon class="st1" points="541.6,481.3 496,423.1 555.9,452.2 			"/>
			<polygon class="st1" points="440.6,515.5 440.5,452.8 482.5,467.1 			"/>
			<polygon class="st1" points="496,423.1 468.3,394.4 482.5,467.1 			"/>
			<polygon class="st1" points="534.6,398.1 519.2,370.6 496,423.1 			"/>
			<polygon class="st1" points="534.6,398.1 603.1,408.1 555.9,452.2 			"/>
			<polygon class="st1" points="534.6,398.1 555.7,366.2 519.2,370.6 			"/>
			<polygon class="st1" points="555.7,366.2 603.1,408.1 572.9,336.9 			"/>
			<polygon class="st1" points="534.6,398.1 555.7,366.2 603.1,408.1 			"/>
			<polygon class="st1" points="525.3,688.3 556.7,695.3 551.2,650.3 			"/>
			<polygon class="st1" points="525.3,688.3 551.2,650.3 520.6,645.6 			"/>
			<polygon class="st1" points="556.7,695.3 525.3,688.3 531.4,739.2 			"/>
			<polygon class="st1" points="525.3,688.3 520.6,645.6 497.5,700.8 			"/>
			<polygon class="st1" points="531.4,739.2 525.3,688.3 497.5,700.8 			"/>
			<polygon class="st1" points="468.3,394.4 519.2,370.6 496,423.1 			"/>
			<polygon class="st1" points="555.7,366.2 572.9,336.9 542,315.4 			"/>
			<polygon class="st1" points="603.1,519.6 568.4,512.7 603.1,561.4 			"/>
		</g>
	</g>
	<g>
		<defs>
			<rect id="SVGID_00000049907100118844633080000007836773368743120309_" x="627.6" y="377.2" width="217.3" height="18.3"/>
		</defs>
		<use xlink:href="#SVGID_00000049907100118844633080000007836773368743120309_"  style="overflow:visible;fill:#804C9D;"/>
		<clipPath id="SVGID_00000173141813507652297310000005130646645950775689_">
			<use xlink:href="#SVGID_00000049907100118844633080000007836773368743120309_"  style="overflow:visible;"/>
		</clipPath>
		<g style="clip-path:url(#SVGID_00000173141813507652297310000005130646645950775689_);">
			<polygon class="st1" points="758.5,1096.2 706.1,948 586.3,1038.6 			"/>
			<polygon class="st1" points="768.2,810.1 622.1,774.9 706.1,948 			"/>
			<polygon class="st1" points="768.2,810.1 655.4,666.3 622.1,774.9 			"/>
			<polygon class="st1" points="587,595.5 629.9,473.6 518.6,463.6 			"/>
			<polygon class="st1" points="622.1,774.9 587,595.5 518.4,739.7 			"/>
			<polygon class="st1" points="706.1,948 622.1,774.9 518.6,894.5 518.6,894.5 			"/>
			<polygon class="st1" points="586.3,1038.6 706.1,948 518.6,894.5 518.6,894.5 			"/>
			<polygon class="st1" points="615.9,376.9 604.9,304.2 518.6,463.6 			"/>
			<polygon class="st1" points="518.6,463.6 615.9,376.9 629.9,473.6 			"/>
			<polygon class="st1" points="518.6,463.6 604.9,304.2 518.6,304.2 			"/>
			<polygon class="st1" points="518.6,463.6 518.4,739.7 587,595.5 			"/>
			<polygon class="st1" points="586.3,1038.6 518.6,1127.5 518.6,894.5 			"/>
			<polygon class="st1" points="769.1,400.2 845.4,453.5 819.1,304.2 			"/>
			<polygon class="st1" points="845.4,453.5 919.9,304.2 819.1,304.2 			"/>
			<polygon class="st1" points="845.4,453.5 919.9,629.4 919.9,440.8 			"/>
			<polygon class="st1" points="750.7,604.7 655.4,666.3 803.6,738.2 			"/>
			<polygon class="st1" points="706.1,948 758.5,1096.2 834.4,887.6 			"/>
			<polygon class="st1" points="768.2,810.1 834.4,887.6 803.6,738.2 			"/>
			<polygon class="st1" points="769.1,400.2 819,304.2 686.9,304.2 			"/>
			<polygon class="st1" points="615.9,376.9 629.9,473.6 769.1,400.2 			"/>
			<polygon class="st1" points="769.1,400.2 686.9,304.2 615.9,376.9 			"/>
			<polygon class="st1" points="629.9,473.6 587,595.5 712.8,536.6 			"/>
			<polygon class="st1" points="769.1,400.2 712.8,536.6 802.9,525.9 			"/>
			<polygon class="st1" points="834.4,887.6 919.9,904.6 919.9,629.4 			"/>
			<polygon class="st1" points="803.6,738.2 834.4,887.6 919.9,629.4 			"/>
			<polygon class="st1" points="629.9,473.6 712.8,536.6 769.1,400.2 			"/>
			<polygon class="st1" points="686.9,304.2 604.9,304.2 615.9,376.9 			"/>
			<polygon class="st1" points="919.9,304.2 845.4,453.5 919.9,440.8 			"/>
			<polygon class="st1" points="834.4,887.6 758.5,1096.2 919.9,1008.1 			"/>
			<polygon class="st1" points="706.1,948 834.4,887.6 768.2,810.1 			"/>
			<polygon class="st1" points="768.2,810.1 655.4,666.3 803.6,738.2 			"/>
			<polygon class="st1" points="518.6,894.5 518.4,739.7 622.1,774.9 			"/>
			<polygon class="st1" points="655.4,666.3 587,595.5 622.1,774.9 			"/>
			<polygon class="st1" points="750.7,604.7 712.8,536.6 655.4,666.3 			"/>
			<polygon class="st1" points="750.7,604.7 919.9,629.4 803.6,738.2 			"/>
			<polygon class="st1" points="750.7,604.7 802.9,525.9 712.8,536.6 			"/>
			<polygon class="st1" points="802.9,525.9 919.9,629.4 845.4,453.5 			"/>
			<polygon class="st1" points="750.7,604.7 802.9,525.9 919.9,629.4 			"/>
			<polygon class="st1" points="587,595.5 712.8,536.6 655.4,666.3 			"/>
			<polygon class="st1" points="802.9,525.9 845.4,453.5 769.1,400.2 			"/>
			<polygon class="st1" points="919.9,904.6 834.4,887.6 919.9,1008.1 			"/>
		</g>
	</g>
	<g>
		<defs>
			<polygon id="SVGID_00000155104510484698690490000013802910047030019728_" points="537.6,531.6 494,495.4 505.7,481.3 
				535.1,505.7 582.7,446.9 596.9,458.4 			"/>
		</defs>
		<use xlink:href="#SVGID_00000155104510484698690490000013802910047030019728_"  style="overflow:visible;fill:#804C9D;"/>
		<clipPath id="SVGID_00000040548067080293874240000008489174037439348920_">
			<use xlink:href="#SVGID_00000155104510484698690490000013802910047030019728_"  style="overflow:visible;"/>
		</clipPath>
		<g style="clip-path:url(#SVGID_00000040548067080293874240000008489174037439348920_);">
			<polygon class="st1" points="505.5,748.8 451.1,697.3 494.3,796.4 			"/>
			<polygon class="st1" points="451.1,697.3 435,796.4 494.3,796.4 			"/>
			<polygon class="st1" points="555.4,620.2 529.1,545.8 468.9,591.3 			"/>
			<polygon class="st1" points="451.1,697.3 468.9,591.3 435,635.9 			"/>
			<polygon class="st1" points="451.1,697.3 435,635.9 435,727.3 			"/>
			<polygon class="st1" points="560.2,476.6 486.9,459 529.1,545.8 			"/>
			<polygon class="st1" points="560.2,476.6 503.6,404.5 486.9,459 			"/>
			<polygon class="st1" points="469.3,368.9 490.8,307.7 435,302.7 			"/>
			<polygon class="st1" points="486.9,459 469.3,368.9 434.9,441.3 			"/>
			<polygon class="st1" points="505.5,748.8 494.3,796.4 547.6,796.4 			"/>
			<polygon class="st1" points="529.1,545.8 486.9,459 435,519 435,519 			"/>
			<polygon class="st1" points="468.9,591.3 529.1,545.8 435,519 435,519 			"/>
			<polygon class="st1" points="483.8,259.2 478.3,222.7 435,302.7 			"/>
			<polygon class="st1" points="555.4,620.2 468.9,591.3 534.2,680.3 			"/>
			<polygon class="st1" points="534.2,680.3 468.9,591.3 451.1,697.3 			"/>
			<polygon class="st1" points="572.1,686.1 555.4,620.2 534.2,680.3 			"/>
			<polygon class="st1" points="505.5,748.8 534.2,680.3 451.1,697.3 			"/>
			<polygon class="st1" points="435,302.7 483.8,259.2 490.8,307.7 			"/>
			<polygon class="st1" points="547.6,796.4 589.1,796.4 578.9,741.9 			"/>
			<polygon class="st1" points="435,302.7 478.3,222.7 435,222.7 			"/>
			<polygon class="st1" points="435,796.4 451.1,697.3 435,727.3 			"/>
			<polygon class="st1" points="435,302.7 434.9,441.3 469.3,368.9 			"/>
			<polygon class="st1" points="468.9,591.3 435,635.9 435,519 			"/>
			<polygon class="st1" points="560.7,270.9 599,297.6 585.8,222.7 			"/>
			<polygon class="st1" points="599,297.6 636.4,222.7 585.8,222.7 			"/>
			<polygon class="st1" points="599,297.6 636.4,385.9 636.4,291.3 			"/>
			<polygon class="st1" points="551.5,373.5 503.6,404.5 578,440.5 			"/>
			<polygon class="st1" points="555.4,620.2 572.1,686.1 636.4,711.6 			"/>
			<polygon class="st1" points="529.1,545.8 555.4,620.2 593.5,515.5 			"/>
			<polygon class="st1" points="560.2,476.6 593.5,515.5 578,440.5 			"/>
			<polygon class="st1" points="560.7,270.9 585.7,222.7 519.4,222.7 			"/>
			<polygon class="st1" points="483.8,259.2 490.8,307.7 560.7,270.9 			"/>
			<polygon class="st1" points="560.7,270.9 519.4,222.7 483.8,259.2 			"/>
			<polygon class="st1" points="589.1,796.4 620.9,796.4 636.4,711.6 			"/>
			<polygon class="st1" points="490.8,307.7 469.3,368.9 532.4,339.4 			"/>
			<polygon class="st1" points="560.7,270.9 532.4,339.4 577.6,334 			"/>
			<polygon class="st1" points="593.5,515.5 636.4,524 636.4,385.9 			"/>
			<polygon class="st1" points="578,440.5 593.5,515.5 636.4,385.9 			"/>
			<polygon class="st1" points="490.8,307.7 532.4,339.4 560.7,270.9 			"/>
			<polygon class="st1" points="636.4,711.6 578.9,741.9 572.1,686.1 			"/>
			<polygon class="st1" points="519.4,222.7 478.3,222.7 483.8,259.2 			"/>
			<polygon class="st1" points="636.4,711.6 620.9,796.4 636.4,796.4 			"/>
			<polygon class="st1" points="636.4,222.7 599,297.6 636.4,291.3 			"/>
			<polygon class="st1" points="636.4,711.6 636.4,638.3 555.4,620.2 			"/>
			<polygon class="st1" points="555.4,620.2 636.4,638.3 636.4,576 			"/>
			<polygon class="st1" points="593.5,515.5 555.4,620.2 636.4,576 			"/>
			<polygon class="st1" points="529.1,545.8 593.5,515.5 560.2,476.6 			"/>
			<polygon class="st1" points="589.1,796.4 578.9,741.9 636.4,711.6 			"/>
			<polygon class="st1" points="560.2,476.6 503.6,404.5 578,440.5 			"/>
			<polygon class="st1" points="435,519 434.9,441.3 486.9,459 			"/>
			<polygon class="st1" points="503.6,404.5 469.3,368.9 486.9,459 			"/>
			<polygon class="st1" points="551.5,373.5 532.4,339.4 503.6,404.5 			"/>
			<polygon class="st1" points="551.5,373.5 636.4,385.9 578,440.5 			"/>
			<polygon class="st1" points="551.5,373.5 577.6,334 532.4,339.4 			"/>
			<polygon class="st1" points="577.6,334 636.4,385.9 599,297.6 			"/>
			<polygon class="st1" points="551.5,373.5 577.6,334 636.4,385.9 			"/>
			<polygon class="st1" points="540,733.2 578.9,741.9 572.1,686.1 			"/>
			<polygon class="st1" points="540,733.2 572.1,686.1 534.2,680.3 			"/>
			<polygon class="st1" points="578.9,741.9 540,733.2 547.6,796.4 			"/>
			<polygon class="st1" points="540,733.2 534.2,680.3 505.5,748.8 			"/>
			<polygon class="st1" points="547.6,796.4 540,733.2 505.5,748.8 			"/>
			<polygon class="st1" points="469.3,368.9 532.4,339.4 503.6,404.5 			"/>
			<polygon class="st1" points="577.6,334 599,297.6 560.7,270.9 			"/>
			<polygon class="st1" points="636.4,524 593.5,515.5 636.4,576 			"/>
		</g>
	</g>
	<g>
		<defs>
			<rect id="SVGID_00000155863285481787687460000004527737113748367294_" x="627.6" y="483.4" width="144" height="18.3"/>
		</defs>
		<use xlink:href="#SVGID_00000155863285481787687460000004527737113748367294_"  style="overflow:visible;fill:#804C9D;"/>
		<clipPath id="SVGID_00000099662762332938871880000015645655622813453708_">
			<use xlink:href="#SVGID_00000155863285481787687460000004527737113748367294_"  style="overflow:visible;"/>
		</clipPath>
		<g style="clip-path:url(#SVGID_00000099662762332938871880000015645655622813453708_);">
			<polygon class="st1" points="607.6,1048.9 499.3,946.4 585.3,1143.8 			"/>
			<polygon class="st1" points="499.3,946.4 467.1,1143.8 585.3,1143.8 			"/>
			<polygon class="st1" points="707,792.7 654.6,644.5 534.8,735.1 			"/>
			<polygon class="st1" points="499.3,946.4 534.8,735.1 467.1,824 			"/>
			<polygon class="st1" points="499.3,946.4 467.1,824 467.1,1006.2 			"/>
			<polygon class="st1" points="716.7,506.6 570.6,471.5 654.6,644.5 			"/>
			<polygon class="st1" points="716.7,506.6 603.9,362.9 570.6,471.5 			"/>
			<polygon class="st1" points="535.5,292 578.4,170.1 467.1,160.2 			"/>
			<polygon class="st1" points="570.6,471.5 535.5,292 466.9,436.2 			"/>
			<polygon class="st1" points="654.6,644.5 570.6,471.5 467.1,591 467.1,591 			"/>
			<polygon class="st1" points="534.8,735.1 654.6,644.5 467.1,591 467.1,591 			"/>
			<polygon class="st1" points="564.4,73.5 553.3,0.7 467.1,160.2 			"/>
			<polygon class="st1" points="707,792.7 534.8,735.1 664.8,912.5 			"/>
			<polygon class="st1" points="664.8,912.5 534.8,735.1 499.3,946.4 			"/>
			<polygon class="st1" points="740.3,924.1 707,792.7 664.8,912.5 			"/>
			<polygon class="st1" points="607.6,1048.9 664.8,912.5 499.3,946.4 			"/>
			<polygon class="st1" points="467.1,160.2 564.4,73.5 578.4,170.1 			"/>
			<polygon class="st1" points="467.1,160.2 553.3,0.7 467.1,0.7 			"/>
			<polygon class="st1" points="467.1,1143.8 499.3,946.4 467.1,1006.2 			"/>
			<polygon class="st1" points="467.1,160.2 466.9,436.2 535.5,292 			"/>
			<polygon class="st1" points="534.8,735.1 467.1,824 467.1,591 			"/>
			<polygon class="st1" points="717.6,96.8 793.9,150 767.6,0.7 			"/>
			<polygon class="st1" points="793.9,150 868.4,0.7 767.6,0.7 			"/>
			<polygon class="st1" points="793.9,150 868.4,325.9 868.4,137.3 			"/>
			<polygon class="st1" points="699.2,301.2 603.9,362.9 752,434.7 			"/>
			<polygon class="st1" points="707,792.7 740.3,924.1 868.4,974.8 			"/>
			<polygon class="st1" points="654.6,644.5 707,792.7 782.9,584.1 			"/>
			<polygon class="st1" points="716.7,506.6 782.9,584.1 752,434.7 			"/>
			<polygon class="st1" points="717.6,96.8 767.5,0.7 635.4,0.7 			"/>
			<polygon class="st1" points="564.4,73.5 578.4,170.1 717.6,96.8 			"/>
			<polygon class="st1" points="717.6,96.8 635.4,0.7 564.4,73.5 			"/>
			<polygon class="st1" points="578.4,170.1 535.5,292 661.3,233.2 			"/>
			<polygon class="st1" points="717.6,96.8 661.3,233.2 751.3,222.4 			"/>
			<polygon class="st1" points="782.9,584.1 868.4,601.2 868.4,325.9 			"/>
			<polygon class="st1" points="752,434.7 782.9,584.1 868.4,325.9 			"/>
			<polygon class="st1" points="578.4,170.1 661.3,233.2 717.6,96.8 			"/>
			<polygon class="st1" points="868.4,974.8 753.8,1035.2 740.3,924.1 			"/>
			<polygon class="st1" points="635.4,0.7 553.3,0.7 564.4,73.5 			"/>
			<polygon class="st1" points="868.4,0.7 793.9,150 868.4,137.3 			"/>
			<polygon class="st1" points="868.4,974.8 868.4,828.8 707,792.7 			"/>
			<polygon class="st1" points="707,792.7 868.4,828.8 868.4,704.6 			"/>
			<polygon class="st1" points="782.9,584.1 707,792.7 868.4,704.6 			"/>
			<polygon class="st1" points="654.6,644.5 782.9,584.1 716.7,506.6 			"/>
			<polygon class="st1" points="716.7,506.6 603.9,362.9 752,434.7 			"/>
			<polygon class="st1" points="467.1,591 466.9,436.2 570.6,471.5 			"/>
			<polygon class="st1" points="603.9,362.9 535.5,292 570.6,471.5 			"/>
			<polygon class="st1" points="699.2,301.2 661.3,233.2 603.9,362.9 			"/>
			<polygon class="st1" points="699.2,301.2 868.4,325.9 752,434.7 			"/>
			<polygon class="st1" points="699.2,301.2 751.3,222.4 661.3,233.2 			"/>
			<polygon class="st1" points="751.3,222.4 868.4,325.9 793.9,150 			"/>
			<polygon class="st1" points="699.2,301.2 751.3,222.4 868.4,325.9 			"/>
			<polygon class="st1" points="676.4,1017.9 753.8,1035.2 740.3,924.1 			"/>
			<polygon class="st1" points="676.4,1017.9 740.3,924.1 664.8,912.5 			"/>
			<polygon class="st1" points="676.4,1017.9 664.8,912.5 607.6,1048.9 			"/>
			<polygon class="st1" points="535.5,292 661.3,233.2 603.9,362.9 			"/>
			<polygon class="st1" points="751.3,222.4 793.9,150 717.6,96.8 			"/>
			<polygon class="st1" points="868.4,601.2 782.9,584.1 868.4,704.6 			"/>
		</g>
	</g>
	<g>
		<defs>
			<polygon id="SVGID_00000050626934168302075860000008328405835329359517_" points="537.6,637.3 494,601 505.8,586.9 535.1,611.4 
				582.7,552.5 596.9,564 			"/>
		</defs>
		<use xlink:href="#SVGID_00000050626934168302075860000008328405835329359517_"  style="overflow:visible;fill:#804C9D;"/>
		<clipPath id="SVGID_00000130627735550081059700000013261971017886195100_">
			<use xlink:href="#SVGID_00000050626934168302075860000008328405835329359517_"  style="overflow:visible;"/>
		</clipPath>
		<g style="clip-path:url(#SVGID_00000130627735550081059700000013261971017886195100_);">
			<polygon class="st1" points="545,771.7 492.7,722.2 534.3,817.6 			"/>
			<polygon class="st1" points="492.7,722.2 477.2,817.6 534.3,817.6 			"/>
			<polygon class="st1" points="593.1,647.9 567.8,576.3 509.9,620.1 			"/>
			<polygon class="st1" points="492.7,722.2 509.9,620.1 477.2,663 			"/>
			<polygon class="st1" points="492.7,722.2 477.2,663 477.2,751.1 			"/>
			<polygon class="st1" points="597.8,509.7 527.2,492.7 567.8,576.3 			"/>
			<polygon class="st1" points="597.8,509.7 543.3,440.2 527.2,492.7 			"/>
			<polygon class="st1" points="510.2,406 530.9,347.1 477.2,342.3 			"/>
			<polygon class="st1" points="527.2,492.7 510.2,406 477.1,475.7 			"/>
			<polygon class="st1" points="545,771.7 534.3,817.6 585.6,817.6 			"/>
			<polygon class="st1" points="567.8,576.3 527.2,492.7 477.2,550.5 477.2,550.5 			"/>
			<polygon class="st1" points="509.9,620.1 567.8,576.3 477.2,550.5 477.2,550.5 			"/>
			<polygon class="st1" points="524.2,300.4 518.8,265.3 477.2,342.3 			"/>
			<polygon class="st1" points="593.1,647.9 509.9,620.1 572.7,705.8 			"/>
			<polygon class="st1" points="572.7,705.8 509.9,620.1 492.7,722.2 			"/>
			<polygon class="st1" points="609.2,711.4 593.1,647.9 572.7,705.8 			"/>
			<polygon class="st1" points="545,771.7 572.7,705.8 492.7,722.2 			"/>
			<polygon class="st1" points="477.2,342.3 524.2,300.4 530.9,347.1 			"/>
			<polygon class="st1" points="585.6,817.6 625.6,817.6 615.7,765.1 			"/>
			<polygon class="st1" points="477.2,342.3 518.8,265.3 477.2,265.3 			"/>
			<polygon class="st1" points="477.2,817.6 492.7,722.2 477.2,751.1 			"/>
			<polygon class="st1" points="477.2,342.3 477.1,475.7 510.2,406 			"/>
			<polygon class="st1" points="509.9,620.1 477.2,663 477.2,550.5 			"/>
			<polygon class="st1" points="598.2,311.7 635.1,337.4 622.3,265.3 			"/>
			<polygon class="st1" points="635.1,337.4 671.1,265.3 622.3,265.3 			"/>
			<polygon class="st1" points="635.1,337.4 671.1,422.4 671.1,331.3 			"/>
			<polygon class="st1" points="589.3,410.5 543.3,440.2 614.8,475 			"/>
			<polygon class="st1" points="593.1,647.9 609.2,711.4 671.1,735.9 			"/>
			<polygon class="st1" points="567.8,576.3 593.1,647.9 629.8,547.2 			"/>
			<polygon class="st1" points="597.8,509.7 629.8,547.2 614.8,475 			"/>
			<polygon class="st1" points="598.2,311.7 622.3,265.3 558.5,265.3 			"/>
			<polygon class="st1" points="524.2,300.4 530.9,347.1 598.2,311.7 			"/>
			<polygon class="st1" points="598.2,311.7 558.5,265.3 524.2,300.4 			"/>
			<polygon class="st1" points="625.6,817.6 656.1,817.6 671.1,735.9 			"/>
			<polygon class="st1" points="530.9,347.1 510.2,406 571,377.6 			"/>
			<polygon class="st1" points="598.2,311.7 571,377.6 614.5,372.4 			"/>
			<polygon class="st1" points="629.8,547.2 671.1,555.4 671.1,422.4 			"/>
			<polygon class="st1" points="614.8,475 629.8,547.2 671.1,422.4 			"/>
			<polygon class="st1" points="530.9,347.1 571,377.6 598.2,311.7 			"/>
			<polygon class="st1" points="671.1,735.9 615.7,765.1 609.2,711.4 			"/>
			<polygon class="st1" points="558.5,265.3 518.8,265.3 524.2,300.4 			"/>
			<polygon class="st1" points="671.1,735.9 656.1,817.6 671.1,817.6 			"/>
			<polygon class="st1" points="671.1,265.3 635.1,337.4 671.1,331.3 			"/>
			<polygon class="st1" points="671.1,735.9 671.1,665.4 593.1,647.9 			"/>
			<polygon class="st1" points="593.1,647.9 671.1,665.4 671.1,605.4 			"/>
			<polygon class="st1" points="629.8,547.2 593.1,647.9 671.1,605.4 			"/>
			<polygon class="st1" points="567.8,576.3 629.8,547.2 597.8,509.7 			"/>
			<polygon class="st1" points="625.6,817.6 615.7,765.1 671.1,735.9 			"/>
			<polygon class="st1" points="597.8,509.7 543.3,440.2 614.8,475 			"/>
			<polygon class="st1" points="477.2,550.5 477.1,475.7 527.2,492.7 			"/>
			<polygon class="st1" points="543.3,440.2 510.2,406 527.2,492.7 			"/>
			<polygon class="st1" points="589.3,410.5 571,377.6 543.3,440.2 			"/>
			<polygon class="st1" points="589.3,410.5 671.1,422.4 614.8,475 			"/>
			<polygon class="st1" points="589.3,410.5 614.5,372.4 571,377.6 			"/>
			<polygon class="st1" points="614.5,372.4 671.1,422.4 635.1,337.4 			"/>
			<polygon class="st1" points="589.3,410.5 614.5,372.4 671.1,422.4 			"/>
			<polygon class="st1" points="578.3,756.7 615.7,765.1 609.2,711.4 			"/>
			<polygon class="st1" points="578.3,756.7 609.2,711.4 572.7,705.8 			"/>
			<polygon class="st1" points="615.7,765.1 578.3,756.7 585.6,817.6 			"/>
			<polygon class="st1" points="578.3,756.7 572.7,705.8 545,771.7 			"/>
			<polygon class="st1" points="585.6,817.6 578.3,756.7 545,771.7 			"/>
			<polygon class="st1" points="510.2,406 571,377.6 543.3,440.2 			"/>
			<polygon class="st1" points="614.5,372.4 635.1,337.4 598.2,311.7 			"/>
			<polygon class="st1" points="671.1,555.4 629.8,547.2 671.1,605.4 			"/>
		</g>
	</g>
	<g>
		<defs>
			<rect id="SVGID_00000094594059334321252260000000899308978130960513_" x="627.6" y="589.6" width="99.2" height="18.3"/>
		</defs>
		<use xlink:href="#SVGID_00000094594059334321252260000000899308978130960513_"  style="overflow:visible;fill:#804C9D;"/>
		<clipPath id="SVGID_00000165205597508673936830000002665608769397008783_">
			<use xlink:href="#SVGID_00000094594059334321252260000000899308978130960513_"  style="overflow:visible;"/>
		</clipPath>
		<g style="clip-path:url(#SVGID_00000165205597508673936830000002665608769397008783_);">
			<polygon class="st1" points="650.2,983.7 541.9,881.1 627.9,1078.5 			"/>
			<polygon class="st1" points="541.9,881.1 509.7,1078.5 627.9,1078.5 			"/>
			<polygon class="st1" points="749.6,727.5 697.2,579.2 577.4,669.9 			"/>
			<polygon class="st1" points="541.9,881.1 577.4,669.9 509.7,758.7 			"/>
			<polygon class="st1" points="541.9,881.1 509.7,758.7 509.7,941 			"/>
			<polygon class="st1" points="759.3,441.4 613.2,406.2 697.2,579.2 			"/>
			<polygon class="st1" points="759.3,441.4 646.5,297.6 613.2,406.2 			"/>
			<polygon class="st1" points="578.1,226.8 621,104.9 509.7,94.9 			"/>
			<polygon class="st1" points="613.2,406.2 578.1,226.8 509.5,371 			"/>
			<polygon class="st1" points="697.2,579.2 613.2,406.2 509.7,525.8 509.7,525.8 			"/>
			<polygon class="st1" points="577.4,669.9 697.2,579.2 509.7,525.8 509.7,525.8 			"/>
			<polygon class="st1" points="607,8.2 596,-64.6 509.7,94.9 			"/>
			<polygon class="st1" points="749.6,727.5 577.4,669.9 707.4,847.3 			"/>
			<polygon class="st1" points="707.4,847.3 577.4,669.9 541.9,881.1 			"/>
			<polygon class="st1" points="782.9,858.8 749.6,727.5 707.4,847.3 			"/>
			<polygon class="st1" points="650.2,983.7 707.4,847.3 541.9,881.1 			"/>
			<polygon class="st1" points="509.7,94.9 607,8.2 621,104.9 			"/>
			<polygon class="st1" points="509.7,94.9 596,-64.6 509.7,-64.6 			"/>
			<polygon class="st1" points="509.7,1078.5 541.9,881.1 509.7,941 			"/>
			<polygon class="st1" points="509.7,94.9 509.5,371 578.1,226.8 			"/>
			<polygon class="st1" points="577.4,669.9 509.7,758.7 509.7,525.8 			"/>
			<polygon class="st1" points="760.2,31.5 836.5,84.7 810.2,-64.6 			"/>
			<polygon class="st1" points="836.5,84.7 911,-64.6 810.2,-64.6 			"/>
			<polygon class="st1" points="836.5,84.7 911,260.6 911,72 			"/>
			<polygon class="st1" points="741.9,236 646.5,297.6 794.7,369.5 			"/>
			<polygon class="st1" points="749.6,727.5 782.9,858.8 911,909.5 			"/>
			<polygon class="st1" points="697.2,579.2 749.6,727.5 825.5,518.9 			"/>
			<polygon class="st1" points="759.3,441.4 825.5,518.9 794.7,369.5 			"/>
			<polygon class="st1" points="760.2,31.5 810.1,-64.6 678,-64.6 			"/>
			<polygon class="st1" points="607,8.2 621,104.9 760.2,31.5 			"/>
			<polygon class="st1" points="760.2,31.5 678,-64.6 607,8.2 			"/>
			<polygon class="st1" points="816.9,1078.5 880.1,1078.5 911,909.5 			"/>
			<polygon class="st1" points="621,104.9 578.1,226.8 703.9,167.9 			"/>
			<polygon class="st1" points="760.2,31.5 703.9,167.9 794,157.1 			"/>
			<polygon class="st1" points="825.5,518.9 911,535.9 911,260.6 			"/>
			<polygon class="st1" points="794.7,369.5 825.5,518.9 911,260.6 			"/>
			<polygon class="st1" points="621,104.9 703.9,167.9 760.2,31.5 			"/>
			<polygon class="st1" points="911,909.5 796.4,970 782.9,858.8 			"/>
			<polygon class="st1" points="678,-64.6 596,-64.6 607,8.2 			"/>
			<polygon class="st1" points="911,909.5 880.1,1078.5 911,1078.5 			"/>
			<polygon class="st1" points="911,-64.6 836.5,84.7 911,72 			"/>
			<polygon class="st1" points="911,909.5 911,763.5 749.6,727.5 			"/>
			<polygon class="st1" points="749.6,727.5 911,763.5 911,639.4 			"/>
			<polygon class="st1" points="825.5,518.9 749.6,727.5 911,639.4 			"/>
			<polygon class="st1" points="697.2,579.2 825.5,518.9 759.3,441.4 			"/>
			<polygon class="st1" points="816.9,1078.5 796.4,970 911,909.5 			"/>
			<polygon class="st1" points="759.3,441.4 646.5,297.6 794.7,369.5 			"/>
			<polygon class="st1" points="509.7,525.8 509.5,371 613.2,406.2 			"/>
			<polygon class="st1" points="646.5,297.6 578.1,226.8 613.2,406.2 			"/>
			<polygon class="st1" points="741.9,236 703.9,167.9 646.5,297.6 			"/>
			<polygon class="st1" points="741.9,236 911,260.6 794.7,369.5 			"/>
			<polygon class="st1" points="741.9,236 794,157.1 703.9,167.9 			"/>
			<polygon class="st1" points="794,157.1 911,260.6 836.5,84.7 			"/>
			<polygon class="st1" points="741.9,236 794,157.1 911,260.6 			"/>
			<polygon class="st1" points="719,952.7 796.4,970 782.9,858.8 			"/>
			<polygon class="st1" points="719,952.7 782.9,858.8 707.4,847.3 			"/>
			<polygon class="st1" points="796.4,970 719,952.7 734.1,1078.5 			"/>
			<polygon class="st1" points="719,952.7 707.4,847.3 650.2,983.7 			"/>
			<polygon class="st1" points="734.1,1078.5 719,952.7 650.2,983.7 			"/>
			<polygon class="st1" points="578.1,226.8 703.9,167.9 646.5,297.6 			"/>
			<polygon class="st1" points="794,157.1 836.5,84.7 760.2,31.5 			"/>
			<polygon class="st1" points="911,535.9 825.5,518.9 911,639.4 			"/>
		</g>
	</g>
	<g>
		<path class="st1" d="M978.1,805C869.9,805,782,717,782,608.8s88-196.1,196.1-196.1c108.2,0,196.2,88,196.2,196.1
			S1086.3,805,978.1,805z M978.1,431.4c-97.8,0-177.4,79.6-177.4,177.4c0,97.9,79.6,177.4,177.4,177.4
			c97.8,0,177.4-79.6,177.4-177.4C1155.5,511,1075.9,431.4,978.1,431.4z"/>
	</g>
</g>
</svg>
