<?xml version="1.0" encoding="utf-8"?>
<!-- Generator: Adobe Illustrator 25.4.1, SVG Export Plug-In . SVG Version: 6.00 Build 0)  -->
<svg version="1.1" id="Layer_1" xmlns="http://www.w3.org/2000/svg" xmlns:xlink="http://www.w3.org/1999/xlink" x="0px" y="0px"
	 viewBox="0 0 1600 960" style="enable-background:new 0 0 1600 960;" xml:space="preserve">
<style type="text/css">
	.st0{fill:#804C9D;}
	.st1{clip-path:url(#SVGID_00000049915570343692636200000017132645991990534584_);}
	.st2{clip-path:url(#SVGID_00000142883961183643417870000015690827661082076862_);}
	.st3{clip-path:url(#SVGID_00000015326572163271165420000005342405294248742275_);}
	.st4{clip-path:url(#SVGID_00000098942775392733583340000002365215827064045976_);}
	.st5{clip-path:url(#SVGID_00000057125640822857029870000017223647375824653756_);}
</style>
<g>
	<path class="st0" d="M982.6,805H618.8l17.4-17.1c2-2,50.2-47.9,164.5-47.9s162.5,45.9,164.5,47.9L982.6,805z M677,785.1h247.3
		c-23.7-11.7-64-25.1-123.7-25.1C741,760,700.8,773.4,677,785.1z"/>
	<path class="st0" d="M1126,670H477c-19,0-34-14.3-34-32.5v-450c0-17.9,14.6-32.5,32.5-32.5h649.1c17.9,0,32.5,14.6,32.5,32.5v450
		C1157,655.1,1142.8,670,1126,670z M475.5,174.9c-6.9,0-12.5,5.6-12.5,12.5v450c0,7.3,5.9,12.5,14,12.5h649c5.2,0,11-5.4,11-12.5
		v-450c0-6.9-5.6-12.5-12.5-12.5H475.5z"/>
	<polygon class="st0" points="889.4,758.6 869.5,758.6 869.5,670 731.9,670 731.9,758.6 711.9,758.6 711.9,650 889.4,650 	"/>
	<g>
		<defs>
			<rect id="SVGID_1_" x="765.5" y="276.9" width="286.9" height="19.9"/>
		</defs>
		<use xlink:href="#SVGID_1_"  style="overflow:visible;fill:#804C9D;"/>
		<clipPath id="SVGID_00000023266869361194291100000015069826622475377027_">
			<use xlink:href="#SVGID_1_"  style="overflow:visible;"/>
		</clipPath>
		<g style="clip-path:url(#SVGID_00000023266869361194291100000015069826622475377027_);">
			<polygon class="st0" points="859.6,971.1 778.2,894.1 842.8,1042.4 			"/>
			<polygon class="st0" points="778.2,894.1 754.1,1042.4 842.8,1042.4 			"/>
			<polygon class="st0" points="934.2,778.7 894.9,667.4 804.9,735.4 			"/>
			<polygon class="st0" points="778.2,894.1 804.9,735.4 754.1,802.2 			"/>
			<polygon class="st0" points="778.2,894.1 754.1,802.2 754.1,939.1 			"/>
			<polygon class="st0" points="941.5,563.8 831.8,537.4 894.9,667.4 			"/>
			<polygon class="st0" points="941.5,563.8 856.8,455.9 831.8,537.4 			"/>
			<polygon class="st0" points="805.4,402.7 837.6,311.1 754.1,303.7 			"/>
			<polygon class="st0" points="831.8,537.4 805.4,402.7 753.9,511 			"/>
			<polygon class="st0" points="894.9,667.4 831.8,537.4 754.1,627.2 754.1,627.2 			"/>
			<polygon class="st0" points="804.9,735.4 894.9,667.4 754.1,627.2 754.1,627.2 			"/>
			<polygon class="st0" points="827.1,238.5 818.8,183.9 754.1,303.7 			"/>
			<polygon class="st0" points="934.2,778.7 804.9,735.4 902.5,868.7 			"/>
			<polygon class="st0" points="902.5,868.7 804.9,735.4 778.2,894.1 			"/>
			<polygon class="st0" points="959.2,877.4 934.2,778.7 902.5,868.7 			"/>
			<polygon class="st0" points="859.6,971.1 902.5,868.7 778.2,894.1 			"/>
			<polygon class="st0" points="754.1,303.7 827.1,238.5 837.6,311.1 			"/>
			<polygon class="st0" points="754.1,303.7 818.8,183.9 754.1,183.9 			"/>
			<polygon class="st0" points="754.1,1042.4 778.2,894.1 754.1,939.1 			"/>
			<polygon class="st0" points="754.1,303.7 753.9,511 805.4,402.7 			"/>
			<polygon class="st0" points="804.9,735.4 754.1,802.2 754.1,627.2 			"/>
			<polygon class="st0" points="942.2,256 999.5,296 979.7,183.9 			"/>
			<polygon class="st0" points="999.5,296 1055.5,183.9 979.7,183.9 			"/>
			<polygon class="st0" points="999.5,296 1055.5,428.1 1055.5,286.5 			"/>
			<polygon class="st0" points="928.4,409.6 856.8,455.9 968.1,509.9 			"/>
			<polygon class="st0" points="934.2,778.7 959.2,877.4 1055.5,915.5 			"/>
			<polygon class="st0" points="894.9,667.4 934.2,778.7 991.2,622.1 			"/>
			<polygon class="st0" points="941.5,563.8 991.2,622.1 968.1,509.9 			"/>
			<polygon class="st0" points="942.2,256 979.7,183.9 880.4,183.9 			"/>
			<polygon class="st0" points="827.1,238.5 837.6,311.1 942.2,256 			"/>
			<polygon class="st0" points="942.2,256 880.4,183.9 827.1,238.5 			"/>
			<polygon class="st0" points="984.7,1042.4 1032.2,1042.4 1055.5,915.5 			"/>
			<polygon class="st0" points="837.6,311.1 805.4,402.7 899.9,358.5 			"/>
			<polygon class="st0" points="942.2,256 899.9,358.5 967.5,350.4 			"/>
			<polygon class="st0" points="991.2,622.1 1055.5,634.8 1055.5,428.1 			"/>
			<polygon class="st0" points="968.1,509.9 991.2,622.1 1055.5,428.1 			"/>
			<polygon class="st0" points="837.6,311.1 899.9,358.5 942.2,256 			"/>
			<polygon class="st0" points="1055.5,915.5 969.4,960.8 959.2,877.4 			"/>
			<polygon class="st0" points="880.4,183.9 818.8,183.9 827.1,238.5 			"/>
			<polygon class="st0" points="1055.5,915.5 1032.2,1042.4 1055.5,1042.4 			"/>
			<polygon class="st0" points="1055.5,183.9 999.5,296 1055.5,286.5 			"/>
			<polygon class="st0" points="1055.5,915.5 1055.5,805.8 934.2,778.7 			"/>
			<polygon class="st0" points="934.2,778.7 1055.5,805.8 1055.5,712.6 			"/>
			<polygon class="st0" points="991.2,622.1 934.2,778.7 1055.5,712.6 			"/>
			<polygon class="st0" points="894.9,667.4 991.2,622.1 941.5,563.8 			"/>
			<polygon class="st0" points="984.7,1042.4 969.4,960.8 1055.5,915.5 			"/>
			<polygon class="st0" points="941.5,563.8 856.8,455.9 968.1,509.9 			"/>
			<polygon class="st0" points="754.1,627.2 753.9,511 831.8,537.4 			"/>
			<polygon class="st0" points="856.8,455.9 805.4,402.7 831.8,537.4 			"/>
			<polygon class="st0" points="928.4,409.6 899.9,358.5 856.8,455.9 			"/>
			<polygon class="st0" points="928.4,409.6 1055.5,428.1 968.1,509.9 			"/>
			<polygon class="st0" points="928.4,409.6 967.5,350.4 899.9,358.5 			"/>
			<polygon class="st0" points="967.5,350.4 1055.5,428.1 999.5,296 			"/>
			<polygon class="st0" points="928.4,409.6 967.5,350.4 1055.5,428.1 			"/>
			<polygon class="st0" points="911.2,947.9 969.4,960.8 959.2,877.4 			"/>
			<polygon class="st0" points="911.2,947.9 959.2,877.4 902.5,868.7 			"/>
			<polygon class="st0" points="969.4,960.8 911.2,947.9 922.6,1042.4 			"/>
			<polygon class="st0" points="911.2,947.9 902.5,868.7 859.6,971.1 			"/>
			<polygon class="st0" points="922.6,1042.4 911.2,947.9 859.6,971.1 			"/>
			<polygon class="st0" points="805.4,402.7 899.9,358.5 856.8,455.9 			"/>
			<polygon class="st0" points="967.5,350.4 999.5,296 942.2,256 			"/>
			<polygon class="st0" points="1055.5,634.8 991.2,622.1 1055.5,712.6 			"/>
		</g>
	</g>
	<g>
		<defs>
			<rect id="SVGID_00000109745376064991401780000016031466995617428120_" x="765.5" y="366.3" width="286.9" height="19.9"/>
		</defs>
		<use xlink:href="#SVGID_00000109745376064991401780000016031466995617428120_"  style="overflow:visible;fill:#804C9D;"/>
		<clipPath id="SVGID_00000012444255212712708050000001107120164472570277_">
			<use xlink:href="#SVGID_00000109745376064991401780000016031466995617428120_"  style="overflow:visible;"/>
		</clipPath>
		<g style="clip-path:url(#SVGID_00000012444255212712708050000001107120164472570277_);">
			<polygon class="st0" points="854.8,772.4 773.5,695.4 838,843.7 			"/>
			<polygon class="st0" points="773.5,695.4 749.3,843.7 838,843.7 			"/>
			<polygon class="st0" points="929.5,580 890.1,468.7 800.1,536.7 			"/>
			<polygon class="st0" points="773.5,695.4 800.1,536.7 749.3,603.5 			"/>
			<polygon class="st0" points="773.5,695.4 749.3,603.5 749.3,740.3 			"/>
			<polygon class="st0" points="936.7,365.1 827,338.7 890.1,468.7 			"/>
			<polygon class="st0" points="936.7,365.1 852,257.1 827,338.7 			"/>
			<polygon class="st0" points="800.6,204 832.8,112.4 749.3,104.9 			"/>
			<polygon class="st0" points="827,338.7 800.6,204 749.1,312.3 			"/>
			<polygon class="st0" points="854.8,772.4 838.1,843.7 917.8,843.7 			"/>
			<polygon class="st0" points="890.1,468.7 827,338.7 749.3,428.5 749.3,428.5 			"/>
			<polygon class="st0" points="800.1,536.7 890.1,468.7 749.3,428.5 749.3,428.5 			"/>
			<polygon class="st0" points="822.3,39.8 814.1,-14.9 749.3,104.9 			"/>
			<polygon class="st0" points="929.5,580 800.1,536.7 897.8,670 			"/>
			<polygon class="st0" points="897.8,670 800.1,536.7 773.5,695.4 			"/>
			<polygon class="st0" points="954.4,678.6 929.5,580 897.8,670 			"/>
			<polygon class="st0" points="854.8,772.4 897.8,670 773.5,695.4 			"/>
			<polygon class="st0" points="749.3,104.9 822.3,39.8 832.8,112.4 			"/>
			<polygon class="st0" points="917.8,843.7 980,843.7 964.6,762.1 			"/>
			<polygon class="st0" points="749.3,104.9 814.1,-14.9 749.3,-14.9 			"/>
			<polygon class="st0" points="749.3,843.7 773.5,695.4 749.3,740.3 			"/>
			<polygon class="st0" points="749.3,104.9 749.1,312.3 800.6,204 			"/>
			<polygon class="st0" points="800.1,536.7 749.3,603.5 749.3,428.5 			"/>
			<polygon class="st0" points="937.4,57.3 994.7,97.3 974.9,-14.9 			"/>
			<polygon class="st0" points="994.7,97.3 1050.7,-14.9 974.9,-14.9 			"/>
			<polygon class="st0" points="994.7,97.3 1050.7,229.4 1050.7,87.7 			"/>
			<polygon class="st0" points="923.6,210.9 852,257.1 963.3,311.1 			"/>
			<polygon class="st0" points="929.5,580 954.4,678.6 1050.7,716.7 			"/>
			<polygon class="st0" points="890.1,468.7 929.5,580 986.4,423.3 			"/>
			<polygon class="st0" points="936.7,365.1 986.4,423.3 963.3,311.1 			"/>
			<polygon class="st0" points="937.4,57.3 974.9,-14.9 875.7,-14.9 			"/>
			<polygon class="st0" points="822.3,39.8 832.8,112.4 937.4,57.3 			"/>
			<polygon class="st0" points="937.4,57.3 875.7,-14.9 822.3,39.8 			"/>
			<polygon class="st0" points="980,843.7 1027.5,843.7 1050.7,716.7 			"/>
			<polygon class="st0" points="832.8,112.4 800.6,204 895.1,159.7 			"/>
			<polygon class="st0" points="937.4,57.3 895.1,159.7 962.7,151.7 			"/>
			<polygon class="st0" points="986.4,423.3 1050.7,436.1 1050.7,229.4 			"/>
			<polygon class="st0" points="963.3,311.1 986.4,423.3 1050.7,229.4 			"/>
			<polygon class="st0" points="832.8,112.4 895.1,159.7 937.4,57.3 			"/>
			<polygon class="st0" points="1050.7,716.7 964.6,762.1 954.4,678.6 			"/>
			<polygon class="st0" points="875.7,-14.9 814.1,-14.9 822.3,39.8 			"/>
			<polygon class="st0" points="1050.7,716.7 1027.5,843.7 1050.7,843.7 			"/>
			<polygon class="st0" points="1050.7,-14.9 994.7,97.3 1050.7,87.7 			"/>
			<polygon class="st0" points="1050.7,716.7 1050.7,607.1 929.5,580 			"/>
			<polygon class="st0" points="929.5,580 1050.7,607.1 1050.7,513.8 			"/>
			<polygon class="st0" points="986.4,423.3 929.5,580 1050.7,513.8 			"/>
			<polygon class="st0" points="890.1,468.7 986.4,423.3 936.7,365.1 			"/>
			<polygon class="st0" points="980,843.7 964.6,762.1 1050.7,716.7 			"/>
			<polygon class="st0" points="936.7,365.1 852,257.1 963.3,311.1 			"/>
			<polygon class="st0" points="749.3,428.5 749.1,312.3 827,338.7 			"/>
			<polygon class="st0" points="852,257.1 800.6,204 827,338.7 			"/>
			<polygon class="st0" points="923.6,210.9 895.1,159.7 852,257.1 			"/>
			<polygon class="st0" points="923.6,210.9 1050.7,229.4 963.3,311.1 			"/>
			<polygon class="st0" points="923.6,210.9 962.7,151.7 895.1,159.7 			"/>
			<polygon class="st0" points="962.7,151.7 1050.7,229.4 994.7,97.3 			"/>
			<polygon class="st0" points="923.6,210.9 962.7,151.7 1050.7,229.4 			"/>
			<polygon class="st0" points="906.5,749.1 964.6,762.1 954.4,678.6 			"/>
			<polygon class="st0" points="906.5,749.1 954.4,678.6 897.8,670 			"/>
			<polygon class="st0" points="964.6,762.1 906.5,749.1 917.8,843.7 			"/>
			<polygon class="st0" points="906.5,749.1 897.8,670 854.8,772.4 			"/>
			<polygon class="st0" points="917.8,843.7 906.5,749.1 854.8,772.4 			"/>
			<polygon class="st0" points="800.6,204 895.1,159.7 852,257.1 			"/>
			<polygon class="st0" points="962.7,151.7 994.7,97.3 937.4,57.3 			"/>
			<polygon class="st0" points="1050.7,436.1 986.4,423.3 1050.7,513.8 			"/>
		</g>
	</g>
	<g>
		<defs>
			<rect id="SVGID_00000148661199416387926970000012255171803147545239_" x="562.8" y="455.8" width="489.6" height="19.9"/>
		</defs>
		<use xlink:href="#SVGID_00000148661199416387926970000012255171803147545239_"  style="overflow:visible;fill:#804C9D;"/>
		<clipPath id="SVGID_00000139281000440379973110000018136478257729115822_">
			<use xlink:href="#SVGID_00000148661199416387926970000012255171803147545239_"  style="overflow:visible;"/>
		</clipPath>
		<g style="clip-path:url(#SVGID_00000139281000440379973110000018136478257729115822_);">
			<polygon class="st0" points="683.2,1003.7 517.6,846.8 649.1,1148.7 			"/>
			<polygon class="st0" points="517.6,846.8 468.4,1148.7 649.1,1148.7 			"/>
			<polygon class="st0" points="835.2,611.9 755.1,385.3 571.9,523.8 			"/>
			<polygon class="st0" points="517.6,846.8 571.9,523.8 468.4,659.7 			"/>
			<polygon class="st0" points="517.6,846.8 468.4,659.7 468.4,938.4 			"/>
			<polygon class="st0" points="850,174.4 626.6,120.7 755.1,385.3 			"/>
			<polygon class="st0" points="850,174.4 677.5,-45.4 626.6,120.7 			"/>
			<polygon class="st0" points="626.6,120.7 573,-153.7 468.1,66.8 			"/>
			<polygon class="st0" points="755.1,385.3 626.6,120.7 468.4,303.5 468.4,303.5 			"/>
			<polygon class="st0" points="571.9,523.8 755.1,385.3 468.4,303.5 468.4,303.5 			"/>
			<polygon class="st0" points="835.2,611.9 571.9,523.8 770.7,795.1 			"/>
			<polygon class="st0" points="770.7,795.1 571.9,523.8 517.6,846.8 			"/>
			<polygon class="st0" points="886.1,812.7 835.2,611.9 770.7,795.1 			"/>
			<polygon class="st0" points="683.2,1003.7 770.7,795.1 517.6,846.8 			"/>
			<polygon class="st0" points="468.4,1148.7 517.6,846.8 468.4,938.4 			"/>
			<polygon class="st0" points="468.4,-355.3 468.1,66.8 573,-153.7 			"/>
			<polygon class="st0" points="571.9,523.8 468.4,659.7 468.4,303.5 			"/>
			<polygon class="st0" points="823.3,-139.6 677.5,-45.4 904.1,64.5 			"/>
			<polygon class="st0" points="835.2,611.9 886.1,812.7 1082,890.3 			"/>
			<polygon class="st0" points="755.1,385.3 835.2,611.9 951.3,293 			"/>
			<polygon class="st0" points="850,174.4 951.3,293 904.1,64.5 			"/>
			<polygon class="st0" points="938,1148.7 1034.8,1148.7 1082,890.3 			"/>
			<polygon class="st0" points="951.3,293 1082,319 1082,-101.9 			"/>
			<polygon class="st0" points="904.1,64.5 951.3,293 1082,-101.9 			"/>
			<polygon class="st0" points="1082,890.3 906.8,982.7 886.1,812.7 			"/>
			<polygon class="st0" points="1082,890.3 1034.8,1148.7 1082,1148.7 			"/>
			<polygon class="st0" points="1082,890.3 1082,667 835.2,611.9 			"/>
			<polygon class="st0" points="835.2,611.9 1082,667 1082,477.2 			"/>
			<polygon class="st0" points="951.3,293 835.2,611.9 1082,477.2 			"/>
			<polygon class="st0" points="755.1,385.3 951.3,293 850,174.4 			"/>
			<polygon class="st0" points="938,1148.7 906.8,982.7 1082,890.3 			"/>
			<polygon class="st0" points="850,174.4 677.5,-45.4 904.1,64.5 			"/>
			<polygon class="st0" points="468.4,303.5 468.1,66.8 626.6,120.7 			"/>
			<polygon class="st0" points="677.5,-45.4 573,-153.7 626.6,120.7 			"/>
			<polygon class="st0" points="823.3,-139.6 1082,-101.9 904.1,64.5 			"/>
			<polygon class="st0" points="788.4,956.2 906.8,982.7 886.1,812.7 			"/>
			<polygon class="st0" points="788.4,956.2 886.1,812.7 770.7,795.1 			"/>
			<polygon class="st0" points="906.8,982.7 788.4,956.2 811.5,1148.7 			"/>
			<polygon class="st0" points="788.4,956.2 770.7,795.1 683.2,1003.7 			"/>
			<polygon class="st0" points="811.5,1148.7 788.4,956.2 683.2,1003.7 			"/>
			<polygon class="st0" points="1082,319 951.3,293 1082,477.2 			"/>
		</g>
	</g>
	<g>
		<defs>
			<rect id="SVGID_00000010292440098762075040000005571760226496913542_" x="562.8" y="545.3" width="489.6" height="19.9"/>
		</defs>
		<use xlink:href="#SVGID_00000010292440098762075040000005571760226496913542_"  style="overflow:visible;fill:#804C9D;"/>
		<clipPath id="SVGID_00000005261377828176912900000005212633730056209849_">
			<use xlink:href="#SVGID_00000010292440098762075040000005571760226496913542_"  style="overflow:visible;"/>
		</clipPath>
		<g style="clip-path:url(#SVGID_00000005261377828176912900000005212633730056209849_);">
			<polygon class="st0" points="700,620.9 534.5,464 666,765.9 			"/>
			<polygon class="st0" points="534.5,464 485.2,765.9 666,765.9 			"/>
			<polygon class="st0" points="852.1,229.1 772,2.5 588.7,141 			"/>
			<polygon class="st0" points="534.5,464 588.7,141 485.2,276.9 			"/>
			<polygon class="st0" points="534.5,464 485.2,276.9 485.2,555.6 			"/>
			<polygon class="st0" points="866.9,-208.4 643.4,-262.1 772,2.5 			"/>
			<polygon class="st0" points="700,620.9 666.1,765.9 828.4,765.9 			"/>
			<polygon class="st0" points="772,2.5 643.4,-262.1 485.2,-79.3 485.2,-79.3 			"/>
			<polygon class="st0" points="588.7,141 772,2.5 485.2,-79.3 485.2,-79.3 			"/>
			<polygon class="st0" points="852.1,229.1 588.7,141 787.5,412.3 			"/>
			<polygon class="st0" points="787.5,412.3 588.7,141 534.5,464 			"/>
			<polygon class="st0" points="902.9,429.9 852.1,229.1 787.5,412.3 			"/>
			<polygon class="st0" points="700,620.9 787.5,412.3 534.5,464 			"/>
			<polygon class="st0" points="828.4,765.9 954.9,765.9 923.7,599.9 			"/>
			<polygon class="st0" points="485.2,765.9 534.5,464 485.2,555.6 			"/>
			<polygon class="st0" points="588.7,141 485.2,276.9 485.2,-79.3 			"/>
			<polygon class="st0" points="852.1,229.1 902.9,429.9 1098.9,507.5 			"/>
			<polygon class="st0" points="772,2.5 852.1,229.1 968.1,-89.8 			"/>
			<polygon class="st0" points="954.9,765.9 1051.6,765.9 1098.9,507.5 			"/>
			<polygon class="st0" points="1098.9,507.5 923.7,599.9 902.9,429.9 			"/>
			<polygon class="st0" points="1098.9,507.5 1051.6,765.9 1098.9,765.9 			"/>
			<polygon class="st0" points="1098.9,507.5 1098.9,284.2 852.1,229.1 			"/>
			<polygon class="st0" points="852.1,229.1 1098.9,284.2 1098.9,94.4 			"/>
			<polygon class="st0" points="968.1,-89.8 852.1,229.1 1098.9,94.4 			"/>
			<polygon class="st0" points="772,2.5 968.1,-89.8 866.9,-208.4 			"/>
			<polygon class="st0" points="954.9,765.9 923.7,599.9 1098.9,507.5 			"/>
			<polygon class="st0" points="805.3,573.4 923.7,599.9 902.9,429.9 			"/>
			<polygon class="st0" points="805.3,573.4 902.9,429.9 787.5,412.3 			"/>
			<polygon class="st0" points="923.7,599.9 805.3,573.4 828.4,765.9 			"/>
			<polygon class="st0" points="805.3,573.4 787.5,412.3 700,620.9 			"/>
			<polygon class="st0" points="828.4,765.9 805.3,573.4 700,620.9 			"/>
			<polygon class="st0" points="1098.9,-63.8 968.1,-89.8 1098.9,94.4 			"/>
		</g>
	</g>
	<path class="st0" d="M1108.5,620H493V205h615.5V620z M502.9,610h595.6V215H502.9V610z"/>
	<g>
		<defs>
			<path id="SVGID_00000179639745128722921090000016320439536965559425_" d="M734.9,335.7c0-48.3-39.3-87.6-87.6-87.6
				s-87.6,39.3-87.6,87.6c0,25.1,10.6,47.6,27.5,63.6l-0.2,0.2l4,3.4c0.1,0.1,0.2,0.1,0.2,0.2c3.6,3,7.4,5.6,11.4,7.9
				c0.5,0.3,1,0.6,1.5,0.9c3.9,2.2,8,4.1,12.3,5.7c0.6,0.2,1.1,0.4,1.7,0.6c4.3,1.5,8.6,2.7,13.2,3.5c0.6,0.1,1.2,0.2,1.8,0.3
				c4.6,0.7,9.3,1.2,14.1,1.2l0,0c0,0,0,0,0,0h0c4.8,0,9.5-0.5,14.1-1.2c0.6-0.1,1.2-0.2,1.8-0.3c4.5-0.8,8.9-2,13.1-3.5
				c0.6-0.2,1.2-0.4,1.8-0.7c4.3-1.6,8.4-3.5,12.3-5.7c0.5-0.3,1-0.6,1.5-0.9c4-2.4,7.8-5,11.4-7.9c0.1-0.1,0.2-0.1,0.2-0.2l4-3.4
				l-0.2-0.2C724.2,383.3,734.9,360.8,734.9,335.7z M568,335.7c0-43.7,35.5-79.2,79.2-79.2s79.2,35.5,79.2,79.2
				c0,23.3-10.3,44.1-26.4,58.6c-7.8-5-18-8.8-30.1-11c0.1-2.4,0.1-5,0.1-7.6c0-1.8,1.4-4.4,2.8-7.3c2-3.8,4.2-8.2,4.7-13.1
				c2.5-5.3,3.8-10.5,3.8-14.7c0-2.5-0.5-4.6-1.5-6.3l1.4-8c2.9-15.9-3.2-27.4-17-32.3c-1.1-0.4-3-0.9-5.3-1.5
				c-6.2-1.6-17.8-4.5-22.1-8.7l-2.6-2.1l-2.5,1c-3.2,1.2-3.4,4.7-3.6,9c-0.1,1.1-0.1,2.8-0.3,3.8c-12.7,6.2-17.6,16.3-14.9,30.8
				l1.4,8c-1,1.7-1.4,3.8-1.4,6.3c0,4.2,1.3,9.4,3.8,14.7c0.5,4.9,2.6,9.1,4.6,12.8c1.5,2.9,2.9,5.6,2.9,7.6c0,2.7,0,5.2,0,7.7
				c-12,2.1-22.2,5.9-29.9,10.9C578.3,379.8,568,359,568,335.7z M692.4,400.7c-1.4,1-2.9,1.7-4.3,2.6c-2.3,1.4-4.6,2.7-7.1,3.8
				c-2.6,1.2-5.2,2.3-7.9,3.1c-1,0.4-2.1,0.6-3.1,1c-14.8,4.2-30.7,4.2-45.5,0c-1-0.3-2.1-0.6-3.1-0.9c-2.7-0.9-5.4-2-8-3.2
				c-2.4-1.1-4.8-2.4-7.1-3.8c-1.4-0.9-2.9-1.6-4.3-2.6c-0.3-0.2-0.6-0.6-1-0.8c6.6-3.7,15.1-6.5,24.6-8.2c4.2-0.8,7.2-4.5,7-8.7
				c-0.1-2.3-0.1-4.7-0.1-7.3c0-4.1-2-7.8-3.9-11.5c-1.7-3.3-3.5-6.8-3.7-10.2l-0.4-1.6c-2.1-4.4-3.3-8.7-3.3-11.8
				c0-1.3,0.2-2,0.5-2.3l1.6-1.6l-2.1-11.9c-2-11.3,1.3-17.8,11.5-22.4c3-1.3,3.5-4.7,3.7-8.8c6.2,3.4,14.5,5.5,20.4,7
				c2,0.5,3.6,0.9,4.5,1.2h0c9.8,3.5,13.7,11.2,11.5,22.9l-2.1,11.9l1.6,1.6c0.2,0.2,0.5,0.9,0.5,2.3c0,3.1-1.2,7.4-3.3,11.8
				l-0.4,1.6c-0.2,3.5-2,7.1-3.8,10.6c-1.9,3.8-3.8,7.3-3.8,11.1c0,2.5,0,5-0.1,7.2c-0.2,4.3,2.8,7.9,7,8.7
				c9.6,1.7,18.1,4.6,24.6,8.2C693,400.1,692.8,400.4,692.4,400.7z"/>
		</defs>
		<use xlink:href="#SVGID_00000179639745128722921090000016320439536965559425_"  style="overflow:visible;fill:#804C9D;"/>
		<clipPath id="SVGID_00000083806182398255847520000007519625087985758650_">
			<use xlink:href="#SVGID_00000179639745128722921090000016320439536965559425_"  style="overflow:visible;"/>
		</clipPath>
		<g style="clip-path:url(#SVGID_00000083806182398255847520000007519625087985758650_);">
			<polygon class="st0" points="622,619 574,573.6 612.1,661 			"/>
			<polygon class="st0" points="574,573.6 559.8,661 612.1,661 			"/>
			<polygon class="st0" points="666,505.6 642.8,440 589.7,480.1 			"/>
			<polygon class="st0" points="574,573.6 589.7,480.1 559.8,519.5 			"/>
			<polygon class="st0" points="574,573.6 559.8,519.5 559.8,600.1 			"/>
			<polygon class="st0" points="670.3,379 605.6,363.4 642.8,440 			"/>
			<polygon class="st0" points="670.3,379 620.3,315.3 605.6,363.4 			"/>
			<polygon class="st0" points="590.1,284 609,230 559.8,225.6 			"/>
			<polygon class="st0" points="605.6,363.4 590.1,284 559.7,347.8 			"/>
			<polygon class="st0" points="622,619 612.1,661 659.1,661 			"/>
			<polygon class="st0" points="642.8,440 605.6,363.4 559.8,416.3 559.8,416.3 			"/>
			<polygon class="st0" points="589.7,480.1 642.8,440 559.8,416.3 559.8,416.3 			"/>
			<polygon class="st0" points="602.9,187.2 598,155 559.8,225.6 			"/>
			<polygon class="st0" points="666,505.6 589.7,480.1 647.3,558.7 			"/>
			<polygon class="st0" points="647.3,558.7 589.7,480.1 574,573.6 			"/>
			<polygon class="st0" points="680.7,563.8 666,505.6 647.3,558.7 			"/>
			<polygon class="st0" points="622,619 647.3,558.7 574,573.6 			"/>
			<polygon class="st0" points="559.8,225.6 602.9,187.2 609,230 			"/>
			<polygon class="st0" points="659.1,661 695.8,661 686.7,613 			"/>
			<polygon class="st0" points="559.8,225.6 598,155 559.8,155 			"/>
			<polygon class="st0" points="559.8,661 574,573.6 559.8,600.1 			"/>
			<polygon class="st0" points="559.8,225.6 559.7,347.8 590.1,284 			"/>
			<polygon class="st0" points="589.7,480.1 559.8,519.5 559.8,416.3 			"/>
			<polygon class="st0" points="670.7,197.5 704.4,221.1 692.8,155 			"/>
			<polygon class="st0" points="704.4,221.1 737.4,155 692.8,155 			"/>
			<polygon class="st0" points="704.4,221.1 737.4,299 737.4,215.5 			"/>
			<polygon class="st0" points="662.5,288 620.3,315.3 685.9,347.1 			"/>
			<polygon class="st0" points="666,505.6 680.7,563.8 737.4,586.2 			"/>
			<polygon class="st0" points="642.8,440 666,505.6 699.6,413.3 			"/>
			<polygon class="st0" points="670.3,379 699.6,413.3 685.9,347.1 			"/>
			<polygon class="st0" points="670.7,197.5 692.8,155 634.3,155 			"/>
			<polygon class="st0" points="602.9,187.2 609,230 670.7,197.5 			"/>
			<polygon class="st0" points="670.7,197.5 634.3,155 602.9,187.2 			"/>
			<polygon class="st0" points="695.8,661 723.8,661 737.4,586.2 			"/>
			<polygon class="st0" points="609,230 590.1,284 645.7,257.9 			"/>
			<polygon class="st0" points="670.7,197.5 645.7,257.9 685.6,253.1 			"/>
			<polygon class="st0" points="699.6,413.3 737.4,420.8 737.4,299 			"/>
			<polygon class="st0" points="685.9,347.1 699.6,413.3 737.4,299 			"/>
			<polygon class="st0" points="609,230 645.7,257.9 670.7,197.5 			"/>
			<polygon class="st0" points="737.4,586.2 686.7,613 680.7,563.8 			"/>
			<polygon class="st0" points="634.3,155 598,155 602.9,187.2 			"/>
			<polygon class="st0" points="737.4,586.2 723.8,661 737.4,661 			"/>
			<polygon class="st0" points="737.4,155 704.4,221.1 737.4,215.5 			"/>
			<polygon class="st0" points="737.4,586.2 737.4,521.6 666,505.6 			"/>
			<polygon class="st0" points="666,505.6 737.4,521.6 737.4,466.6 			"/>
			<polygon class="st0" points="699.6,413.3 666,505.6 737.4,466.6 			"/>
			<polygon class="st0" points="642.8,440 699.6,413.3 670.3,379 			"/>
			<polygon class="st0" points="695.8,661 686.7,613 737.4,586.2 			"/>
			<polygon class="st0" points="670.3,379 620.3,315.3 685.9,347.1 			"/>
			<polygon class="st0" points="559.8,416.3 559.7,347.8 605.6,363.4 			"/>
			<polygon class="st0" points="620.3,315.3 590.1,284 605.6,363.4 			"/>
			<polygon class="st0" points="662.5,288 645.7,257.9 620.3,315.3 			"/>
			<polygon class="st0" points="662.5,288 737.4,299 685.9,347.1 			"/>
			<polygon class="st0" points="662.5,288 685.6,253.1 645.7,257.9 			"/>
			<polygon class="st0" points="685.6,253.1 737.4,299 704.4,221.1 			"/>
			<polygon class="st0" points="662.5,288 685.6,253.1 737.4,299 			"/>
			<polygon class="st0" points="652.4,605.3 686.7,613 680.7,563.8 			"/>
			<polygon class="st0" points="652.4,605.3 680.7,563.8 647.3,558.7 			"/>
			<polygon class="st0" points="686.7,613 652.4,605.3 659.1,661 			"/>
			<polygon class="st0" points="652.4,605.3 647.3,558.7 622,619 			"/>
			<polygon class="st0" points="659.1,661 652.4,605.3 622,619 			"/>
			<polygon class="st0" points="590.1,284 645.7,257.9 620.3,315.3 			"/>
			<polygon class="st0" points="685.6,253.1 704.4,221.1 670.7,197.5 			"/>
			<polygon class="st0" points="737.4,420.8 699.6,413.3 737.4,466.6 			"/>
		</g>
	</g>
</g>
</svg>
