<?xml version="1.0" encoding="utf-8"?>
<!-- Generator: Adobe Illustrator 25.4.1, SVG Export Plug-In . SVG Version: 6.00 Build 0)  -->
<svg version="1.1" id="Layer_1" xmlns="http://www.w3.org/2000/svg" xmlns:xlink="http://www.w3.org/1999/xlink" x="0px" y="0px"
	 viewBox="0 0 1600 960" style="enable-background:new 0 0 1600 960;" xml:space="preserve">
<style type="text/css">
	.st0{fill:#804C9D;}
	.st1{clip-path:url(#SVGID_00000069371342783763752980000014928918280682329518_);}
	.st2{clip-path:url(#SVGID_00000046326534721250292740000000345255127922353837_);}
	.st3{clip-path:url(#SVGID_00000072984595276457422670000017120875215020425631_);}
</style>
<g>
	<path class="st0" d="M844.7,155c-21.1,0-39.5,11.3-49.8,28c-11.3-16.9-29-28-48.9-28H343.4v650h396.9c23.2,0,43.2-14.8,53.7-36.5
		c10.5,21.7,30.5,36.5,53.7,36.5h408.9V155H844.7z M365.1,176.7h375.3c22.1,0,40,21.9,40,48.8V697c-7.2,14.9-20.1,24.2-34.3,24.2
		h-381V176.7z M740.3,783.3H365.1v-40.4h381c12.5,0,24.3-4.4,34.3-12v3.6C780.3,761.4,762.4,783.3,740.3,783.3z M1234.9,783.3H847.7
		c-22,0-40-21.9-40-48.8v-5.3c10.2,8.4,23,13.6,37,13.6h312.4c-7.2-4.1-16.2-13.9-21-21.7H844.7c-20,0-36.6-16.2-37-36.8V225.5
		c0-26.9,17.9-48.8,40-48.8h330.2c7.2,0,13.1,5.9,13.1,13.1v471.3c8,4.4,16.8,13.2,21.7,21.7v-493c0-4.6-1-9-2.6-13.1h24.9V783.3z"
		/>
	<g>
		<defs>
			<path id="SVGID_1_" d="M442.7,362.4h51.7l9.9,29.5h31.3l-53.6-143.1h-27.3l-53.3,143.1h31.3L442.7,362.4z M468.5,285l18,53.6
				h-35.8L468.5,285z"/>
		</defs>
		<use xlink:href="#SVGID_1_"  style="overflow:visible;fill:#804C9D;"/>
		<clipPath id="SVGID_00000021816936912774970210000000277944015848584090_">
			<use xlink:href="#SVGID_1_"  style="overflow:visible;"/>
		</clipPath>
		<g style="clip-path:url(#SVGID_00000021816936912774970210000000277944015848584090_);">
			<polygon class="st0" points="509,608.5 447.8,585 508.7,646.5 			"/>
			<polygon class="st0" points="447.8,585 453.7,662.2 508.7,646.5 			"/>
			<polygon class="st0" points="528.1,500.6 488,452.8 441.9,502.3 			"/>
			<polygon class="st0" points="447.8,585 441.9,502.3 419.8,544.1 			"/>
			<polygon class="st0" points="447.8,585 419.8,544.1 439.2,611.4 			"/>
			<polygon class="st0" points="502.2,393.6 430.6,400.1 488,452.8 			"/>
			<polygon class="st0" points="502.2,393.6 434.6,355.6 430.6,400.1 			"/>
			<polygon class="st0" points="395.3,338.5 402.3,287.8 349.5,298.9 			"/>
			<polygon class="st0" points="430.6,400.1 395.3,338.5 378.7,400.9 			"/>
			<polygon class="st0" points="509,608.5 508.7,646.5 558,632.3 			"/>
			<polygon class="st0" points="488,452.8 430.6,400.1 395.2,458.1 395.2,458.1 			"/>
			<polygon class="st0" points="441.9,502.3 488,452.8 395.2,458.1 395.2,458.1 			"/>
			<polygon class="st0" points="385.6,253.9 372.7,228.5 349.5,298.9 			"/>
			<polygon class="st0" points="528.1,500.6 441.9,502.3 521.1,550.5 			"/>
			<polygon class="st0" points="521.1,550.5 441.9,502.3 447.8,585 			"/>
			<polygon class="st0" points="557.4,544.6 528.1,500.6 521.1,550.5 			"/>
			<polygon class="st0" points="509,608.5 521.1,550.5 447.8,585 			"/>
			<polygon class="st0" points="349.5,298.9 385.6,253.9 402.3,287.8 			"/>
			<polygon class="st0" points="558,632.3 596.5,621.3 575.5,583.9 			"/>
			<polygon class="st0" points="349.5,298.9 372.7,228.5 332.6,240 			"/>
			<polygon class="st0" points="453.7,662.2 447.8,585 439.2,611.4 			"/>
			<polygon class="st0" points="349.5,298.9 378.7,400.9 395.3,338.5 			"/>
			<polygon class="st0" points="441.9,502.3 419.8,544.1 395.2,458.1 			"/>
			<polygon class="st0" points="459.3,242.1 500.3,251.6 472.3,200 			"/>
			<polygon class="st0" points="500.3,251.6 519.2,186.5 472.3,200 			"/>
			<polygon class="st0" points="500.3,251.6 553.6,306.6 533.6,237 			"/>
			<polygon class="st0" points="472.4,320.1 434.6,355.6 511.1,362.3 			"/>
			<polygon class="st0" points="528.1,500.6 557.4,544.6 622.4,546.3 			"/>
			<polygon class="st0" points="488,452.8 528.1,500.6 541.2,413.4 			"/>
			<polygon class="st0" points="502.2,393.6 541.2,413.4 511.1,362.3 			"/>
			<polygon class="st0" points="459.3,242.1 472.3,200 410.8,217.6 			"/>
			<polygon class="st0" points="385.6,253.9 402.3,287.8 459.3,242.1 			"/>
			<polygon class="st0" points="459.3,242.1 410.8,217.6 385.6,253.9 			"/>
			<polygon class="st0" points="596.5,621.3 625.9,612.8 622.4,546.3 			"/>
			<polygon class="st0" points="402.3,287.8 395.3,338.5 447.5,300 			"/>
			<polygon class="st0" points="459.3,242.1 447.5,300 488.2,284 			"/>
			<polygon class="st0" points="541.2,413.4 582.8,408.3 553.6,306.6 			"/>
			<polygon class="st0" points="511.1,362.3 541.2,413.4 553.6,306.6 			"/>
			<polygon class="st0" points="402.3,287.8 447.5,300 459.3,242.1 			"/>
			<polygon class="st0" points="622.4,546.3 575.5,583.9 557.4,544.6 			"/>
			<polygon class="st0" points="410.8,217.6 372.7,228.5 385.6,253.9 			"/>
			<polygon class="st0" points="622.4,546.3 625.9,612.8 640.3,608.7 			"/>
			<polygon class="st0" points="519.2,186.5 500.3,251.6 533.6,237 			"/>
			<polygon class="st0" points="622.4,546.3 606.9,492.4 528.1,500.6 			"/>
			<polygon class="st0" points="528.1,500.6 606.9,492.4 593.8,446.5 			"/>
			<polygon class="st0" points="541.2,413.4 528.1,500.6 593.8,446.5 			"/>
			<polygon class="st0" points="488,452.8 541.2,413.4 502.2,393.6 			"/>
			<polygon class="st0" points="596.5,621.3 575.5,583.9 622.4,546.3 			"/>
			<polygon class="st0" points="502.2,393.6 434.6,355.6 511.1,362.3 			"/>
			<polygon class="st0" points="395.2,458.1 378.7,400.9 430.6,400.1 			"/>
			<polygon class="st0" points="434.6,355.6 395.3,338.5 430.6,400.1 			"/>
			<polygon class="st0" points="472.4,320.1 447.5,300 434.6,355.6 			"/>
			<polygon class="st0" points="472.4,320.1 553.6,306.6 511.1,362.3 			"/>
			<polygon class="st0" points="472.4,320.1 488.2,284 447.5,300 			"/>
			<polygon class="st0" points="488.2,284 553.6,306.6 500.3,251.6 			"/>
			<polygon class="st0" points="472.4,320.1 488.2,284 553.6,306.6 			"/>
			<polygon class="st0" points="537.7,587.8 575.5,583.9 557.4,544.6 			"/>
			<polygon class="st0" points="537.7,587.8 557.4,544.6 521.1,550.5 			"/>
			<polygon class="st0" points="575.5,583.9 537.7,587.8 558,632.3 			"/>
			<polygon class="st0" points="537.7,587.8 521.1,550.5 509,608.5 			"/>
			<polygon class="st0" points="558,632.3 537.7,587.8 509,608.5 			"/>
			<polygon class="st0" points="395.3,338.5 447.5,300 434.6,355.6 			"/>
			<polygon class="st0" points="488.2,284 500.3,251.6 459.3,242.1 			"/>
			<polygon class="st0" points="582.8,408.3 541.2,413.4 593.8,446.5 			"/>
		</g>
	</g>
	<g>
		<defs>
			<polygon id="SVGID_00000181071900004320100390000011337548357109726627_" points="1125.5,558.7 1125.5,545.7 1043.5,545.7 
				1043.5,564 1097.5,564 1043.5,641.9 1043.5,655.1 1126.7,655.1 1126.7,637 1071.6,637 			"/>
		</defs>
		<use xlink:href="#SVGID_00000181071900004320100390000011337548357109726627_"  style="overflow:visible;fill:#804C9D;"/>
		<clipPath id="SVGID_00000157285966587559526070000016991558286858314938_">
			<use xlink:href="#SVGID_00000181071900004320100390000011337548357109726627_"  style="overflow:visible;"/>
		</clipPath>
		<g style="clip-path:url(#SVGID_00000157285966587559526070000016991558286858314938_);">
			<polygon class="st0" points="1007.1,437.5 1086.8,425.8 984.6,396.5 			"/>
			<polygon class="st0" points="1086.8,425.8 1034,346.6 984.6,396.5 			"/>
			<polygon class="st0" points="1051.5,564.6 1123.2,591.7 1142.9,511 			"/>
			<polygon class="st0" points="1086.8,425.8 1142.9,511 1141.3,452.8 			"/>
			<polygon class="st0" points="1086.8,425.8 1141.3,452.8 1080.2,392.3 			"/>
			<polygon class="st0" points="1143.5,663.8 1216.4,613.7 1123.2,591.7 			"/>
			<polygon class="st0" points="1143.5,663.8 1239,663.8 1216.4,613.7 			"/>
			<polygon class="st0" points="1291.3,658.5 1314.3,717.1 1364.2,673.4 			"/>
			<polygon class="st0" points="1216.4,613.7 1291.3,658.5 1271.6,581.6 			"/>
			<polygon class="st0" points="1007.1,437.5 984.5,396.6 940.1,441.4 			"/>
			<polygon class="st0" points="1123.2,591.7 1216.4,613.7 1219.6,530.3 1219.6,530.3 			"/>
			<polygon class="st0" points="1142.9,511 1123.2,591.7 1219.6,530.3 1219.6,530.3 			"/>
			<polygon class="st0" points="1352.6,743.3 1381.7,762.8 1364.2,673.4 			"/>
			<polygon class="st0" points="1051.5,564.6 1142.9,511 1028.9,507 			"/>
			<polygon class="st0" points="1028.9,507 1142.9,511 1086.8,425.8 			"/>
			<polygon class="st0" points="993.5,535 1051.5,564.6 1028.9,507 			"/>
			<polygon class="st0" points="1007.1,437.5 1028.9,507 1086.8,425.8 			"/>
			<polygon class="st0" points="1364.2,673.4 1352.6,743.3 1314.3,717.1 			"/>
			<polygon class="st0" points="940.1,441.4 905.5,476.4 950.5,503.8 			"/>
			<polygon class="st0" points="1364.2,673.4 1381.7,762.8 1417.8,726.4 			"/>
			<polygon class="st0" points="1034,346.6 1086.8,425.8 1080.2,392.3 			"/>
			<polygon class="st0" points="1364.2,673.4 1271.6,581.6 1291.3,658.5 			"/>
			<polygon class="st0" points="1142.9,511 1141.3,452.8 1219.6,530.3 			"/>
			<polygon class="st0" points="1280.7,800.3 1231,814.8 1292.1,853.3 			"/>
			<polygon class="st0" points="1231,814.8 1249.9,896 1292.1,853.3 			"/>
			<polygon class="st0" points="1231,814.8 1140.8,787.9 1204.1,850.6 			"/>
			<polygon class="st0" points="1219.8,724.6 1239,663.8 1152.9,702.6 			"/>
			<polygon class="st0" points="1051.5,564.6 993.5,535 922.9,572.3 			"/>
			<polygon class="st0" points="1123.2,591.7 1051.5,564.6 1089.8,666 			"/>
			<polygon class="st0" points="1143.5,663.8 1089.8,666 1152.9,702.6 			"/>
			<polygon class="st0" points="1280.7,800.3 1292.1,853.3 1347.4,797.5 			"/>
			<polygon class="st0" points="1352.6,743.3 1314.3,717.1 1280.7,800.3 			"/>
			<polygon class="st0" points="1280.7,800.3 1347.4,797.5 1352.6,743.3 			"/>
			<polygon class="st0" points="905.5,476.4 879.1,503.1 922.9,572.3 			"/>
			<polygon class="st0" points="1314.3,717.1 1291.3,658.5 1258.5,731.2 			"/>
			<polygon class="st0" points="1280.7,800.3 1258.5,731.2 1224.5,772.8 			"/>
			<polygon class="st0" points="1089.8,666 1048.3,696.5 1140.8,787.9 			"/>
			<polygon class="st0" points="1152.9,702.6 1089.8,666 1140.8,787.9 			"/>
			<polygon class="st0" points="1314.3,717.1 1258.5,731.2 1280.7,800.3 			"/>
			<polygon class="st0" points="922.9,572.3 950.5,503.8 993.5,535 			"/>
			<polygon class="st0" points="1347.4,797.5 1381.7,762.8 1352.6,743.3 			"/>
			<polygon class="st0" points="922.9,572.3 879.1,503.1 866.2,516.2 			"/>
			<polygon class="st0" points="1249.9,896 1231,814.8 1204.1,850.6 			"/>
			<polygon class="st0" points="922.9,572.3 971.9,620.8 1051.5,564.6 			"/>
			<polygon class="st0" points="1051.5,564.6 971.9,620.8 1013.6,662.1 			"/>
			<polygon class="st0" points="1089.8,666 1051.5,564.6 1013.6,662.1 			"/>
			<polygon class="st0" points="1123.2,591.7 1089.8,666 1143.5,663.8 			"/>
			<polygon class="st0" points="905.5,476.4 950.5,503.8 922.9,572.3 			"/>
			<polygon class="st0" points="1143.5,663.8 1239,663.8 1152.9,702.6 			"/>
			<polygon class="st0" points="1219.6,530.3 1271.6,581.6 1216.4,613.7 			"/>
			<polygon class="st0" points="1239,663.8 1291.3,658.5 1216.4,613.7 			"/>
			<polygon class="st0" points="1219.8,724.6 1258.5,731.2 1239,663.8 			"/>
			<polygon class="st0" points="1219.8,724.6 1140.8,787.9 1152.9,702.6 			"/>
			<polygon class="st0" points="1219.8,724.6 1224.5,772.8 1258.5,731.2 			"/>
			<polygon class="st0" points="1224.5,772.8 1140.8,787.9 1231,814.8 			"/>
			<polygon class="st0" points="1219.8,724.6 1224.5,772.8 1140.8,787.9 			"/>
			<polygon class="st0" points="988.7,476.9 950.5,503.8 993.5,535 			"/>
			<polygon class="st0" points="988.7,476.9 993.5,535 1028.9,507 			"/>
			<polygon class="st0" points="950.5,503.8 988.7,476.9 940.1,441.4 			"/>
			<polygon class="st0" points="988.7,476.9 1028.9,507 1007.1,437.5 			"/>
			<polygon class="st0" points="940.1,441.4 988.7,476.9 1007.1,437.5 			"/>
			<polygon class="st0" points="1291.3,658.5 1258.5,731.2 1239,663.8 			"/>
			<polygon class="st0" points="1224.5,772.8 1231,814.8 1280.7,800.3 			"/>
			<polygon class="st0" points="1048.3,696.5 1089.8,666 1013.6,662.1 			"/>
		</g>
	</g>
	<path class="st0" d="M723.8,268.5H559.2c-3,0-5.4,2.4-5.4,5.4s2.4,5.4,5.4,5.4h164.7c3,0,5.4-2.4,5.4-5.4S726.8,268.5,723.8,268.5z
		"/>
	<path class="st0" d="M723.8,341.2H559.2c-3,0-5.4,2.4-5.4,5.4c0,3,2.4,5.4,5.4,5.4h164.7c3,0,5.4-2.4,5.4-5.4
		C729.3,343.6,726.8,341.2,723.8,341.2z"/>
	<path class="st0" d="M964.6,558.2H848.6c-3,0-5.4,2.4-5.4,5.4c0,3,2.4,5.4,5.4,5.4h115.9c3,0,5.4-2.4,5.4-5.4
		C970,560.6,967.6,558.2,964.6,558.2z"/>
	<path class="st0" d="M964.6,630.9H848.6c-3,0-5.4,2.4-5.4,5.4s2.4,5.4,5.4,5.4h115.9c3,0,5.4-2.4,5.4-5.4S967.6,630.9,964.6,630.9z
		"/>
	<path class="st0" d="M723.8,427.9H408.7c-3,0-5.4,2.4-5.4,5.4c0,3,2.4,5.4,5.4,5.4h315.1c3,0,5.4-2.4,5.4-5.4
		C729.3,430.4,726.8,427.9,723.8,427.9z"/>
	<path class="st0" d="M723.8,495.3H408.7c-3,0-5.4,2.4-5.4,5.4c0,3,2.4,5.4,5.4,5.4h315.1c3,0,5.4-2.4,5.4-5.4
		C729.3,497.7,726.8,495.3,723.8,495.3z"/>
	<path class="st0" d="M723.8,565H408.7c-3,0-5.4,2.4-5.4,5.4s2.4,5.4,5.4,5.4h315.1c3,0,5.4-2.4,5.4-5.4S726.8,565,723.8,565z"/>
	<path class="st0" d="M723.8,636.8H408.7c-3,0-5.4,2.4-5.4,5.4c0,3,2.4,5.4,5.4,5.4h315.1c3,0,5.4-2.4,5.4-5.4
		C729.3,639.2,726.8,636.8,723.8,636.8z"/>
	<path class="st0" d="M1156.9,272H841.8c-3,0-5.4,2.4-5.4,5.4c0,3,2.4,5.4,5.4,5.4h315.1c3,0,5.4-2.4,5.4-5.4
		C1162.3,274.4,1159.9,272,1156.9,272z"/>
	<path class="st0" d="M1156.9,346.2H841.8c-3,0-5.4,2.4-5.4,5.4c0,3,2.4,5.4,5.4,5.4h315.1c3,0,5.4-2.4,5.4-5.4
		C1162.3,348.6,1159.9,346.2,1156.9,346.2z"/>
	<path class="st0" d="M1156.9,413.5H841.8c-3,0-5.4,2.4-5.4,5.4c0,3,2.4,5.4,5.4,5.4h315.1c3,0,5.4-2.4,5.4-5.4
		C1162.3,416,1159.9,413.5,1156.9,413.5z"/>
	<path class="st0" d="M1156.9,483.2H841.8c-3,0-5.4,2.4-5.4,5.4c0,3,2.4,5.4,5.4,5.4h315.1c3,0,5.4-2.4,5.4-5.4
		C1162.3,485.7,1159.9,483.2,1156.9,483.2z"/>
	<g>
		<defs>
			<path id="SVGID_00000167362908428320854970000011390135319538432134_" d="M1185.5,689.8c-12.1-12.1-24.7-20.4-33.7-23.1
				c16.9-17,27.4-40.4,27.4-66.2c0-51.8-42.2-94-94-94c-51.8,0-94,42.2-94,94s42.2,94,94,94c20.4,0,39.2-6.7,54.7-17.9
				c2.1,9.1,10.7,22.5,23.5,35.4c18.5,18.5,38.5,28.5,44.6,22.4C1214,728.2,1204,708.3,1185.5,689.8z M1007.4,600.4
				c0-42.8,34.9-77.7,77.7-77.7c42.8,0,77.7,34.9,77.7,77.7c0,42.9-34.9,77.7-77.7,77.7C1042.3,678.1,1007.4,643.3,1007.4,600.4z"/>
		</defs>
		<use xlink:href="#SVGID_00000167362908428320854970000011390135319538432134_"  style="overflow:visible;fill:#804C9D;"/>
		<clipPath id="SVGID_00000029020466111914351050000015889062352155049101_">
			<use xlink:href="#SVGID_00000167362908428320854970000011390135319538432134_"  style="overflow:visible;"/>
		</clipPath>
		<g style="clip-path:url(#SVGID_00000029020466111914351050000015889062352155049101_);">
			<polygon class="st0" points="1197.7,956 1129.4,874.5 1050.7,958.9 			"/>
			<polygon class="st0" points="1060.8,1100 1050.7,958.9 1013.1,1030.2 			"/>
			<polygon class="st0" points="1153.7,773.5 1031.5,784.6 1129.4,874.5 			"/>
			<polygon class="st0" points="1153.7,773.5 1038.2,708.6 1031.5,784.6 			"/>
			<polygon class="st0" points="971.2,679.6 983.2,593 893.2,612.1 			"/>
			<polygon class="st0" points="1031.5,784.6 971.2,679.6 942.9,786 			"/>
			<polygon class="st0" points="1129.4,874.5 1031.5,784.6 971,883.5 971,883.5 			"/>
			<polygon class="st0" points="1050.7,958.9 1129.4,874.5 971,883.5 971,883.5 			"/>
			<polygon class="st0" points="954.7,535.3 932.7,492 893.2,612.1 			"/>
			<polygon class="st0" points="1197.7,956 1050.7,958.9 1185.9,1041.1 			"/>
			<polygon class="st0" points="1185.9,1041.1 1050.7,958.9 1060.8,1100 			"/>
			<polygon class="st0" points="1247.8,1031.2 1197.7,956 1185.9,1041.1 			"/>
			<polygon class="st0" points="893.2,612.1 954.7,535.3 983.2,593 			"/>
			<polygon class="st0" points="893.2,612.1 932.7,492 864.4,511.6 			"/>
			<polygon class="st0" points="893.2,612.1 942.9,786 971.2,679.6 			"/>
			<polygon class="st0" points="1050.7,958.9 1013.1,1030.2 971,883.5 			"/>
			<polygon class="st0" points="1080.4,515.2 1150.4,531.3 1102.6,443.3 			"/>
			<polygon class="st0" points="1150.4,531.3 1182.6,420.3 1102.6,443.3 			"/>
			<polygon class="st0" points="1150.4,531.3 1241.3,625.2 1207.2,506.4 			"/>
			<polygon class="st0" points="1102.7,648.1 1038.2,708.6 1168.7,720.2 			"/>
			<polygon class="st0" points="1197.7,956 1247.8,1031.2 1358.6,1034 			"/>
			<polygon class="st0" points="1129.4,874.5 1197.7,956 1220.2,807.3 			"/>
			<polygon class="st0" points="1153.7,773.5 1220.2,807.3 1168.7,720.2 			"/>
			<polygon class="st0" points="1080.4,515.2 1102.5,443.3 997.8,473.3 			"/>
			<polygon class="st0" points="954.7,535.3 983.2,593 1080.4,515.2 			"/>
			<polygon class="st0" points="1080.4,515.2 997.8,473.3 954.7,535.3 			"/>
			<polygon class="st0" points="983.2,593 971.2,679.6 1060.3,613.9 			"/>
			<polygon class="st0" points="1080.4,515.2 1060.3,613.9 1129.8,586.6 			"/>
			<polygon class="st0" points="1220.2,807.3 1291.1,798.6 1241.3,625.2 			"/>
			<polygon class="st0" points="1168.7,720.2 1220.2,807.3 1241.3,625.2 			"/>
			<polygon class="st0" points="983.2,593 1060.3,613.9 1080.4,515.2 			"/>
			<polygon class="st0" points="997.8,473.3 932.7,492 954.7,535.3 			"/>
			<polygon class="st0" points="1182.6,420.3 1150.4,531.3 1207.2,506.4 			"/>
			<polygon class="st0" points="1358.6,1034 1332.2,942 1197.7,956 			"/>
			<polygon class="st0" points="1197.7,956 1332.2,942 1309.8,863.8 			"/>
			<polygon class="st0" points="1220.2,807.3 1197.7,956 1309.8,863.8 			"/>
			<polygon class="st0" points="1129.4,874.5 1220.2,807.3 1153.7,773.5 			"/>
			<polygon class="st0" points="1153.7,773.5 1038.2,708.6 1168.7,720.2 			"/>
			<polygon class="st0" points="971,883.5 942.9,786 1031.5,784.6 			"/>
			<polygon class="st0" points="1038.2,708.6 971.2,679.6 1031.5,784.6 			"/>
			<polygon class="st0" points="1102.7,648.1 1060.3,613.9 1038.2,708.6 			"/>
			<polygon class="st0" points="1102.7,648.1 1241.3,625.2 1168.7,720.2 			"/>
			<polygon class="st0" points="1102.7,648.1 1129.8,586.6 1060.3,613.9 			"/>
			<polygon class="st0" points="1129.8,586.6 1241.3,625.2 1150.4,531.3 			"/>
			<polygon class="st0" points="1102.7,648.1 1129.8,586.6 1241.3,625.2 			"/>
			<polygon class="st0" points="971.2,679.6 1060.3,613.9 1038.2,708.6 			"/>
			<polygon class="st0" points="1129.8,586.6 1150.4,531.3 1080.4,515.2 			"/>
			<polygon class="st0" points="1291.1,798.6 1220.2,807.3 1309.8,863.8 			"/>
		</g>
	</g>
</g>
</svg>
