<?xml version="1.0" encoding="utf-8"?>
<!-- Generator: Adobe Illustrator 26.4.1, SVG Export Plug-In . SVG Version: 6.00 Build 0)  -->
<svg version="1.1" id="Layer_1" xmlns="http://www.w3.org/2000/svg" xmlns:xlink="http://www.w3.org/1999/xlink" x="0px" y="0px"
	 viewBox="0 0 50 50" style="enable-background:new 0 0 50 50;" xml:space="preserve">
<style type="text/css">
	.st0{fill:#6D3D9B;}
</style>
<g>
	<g>
		<g>
			<path class="st0" d="M21.6,15.9l6.6-6.6l2.6,2.6l-6.4,6.4l1.1,1.1l6.4-6.4l2.2,2.2l-6.5,6.5l1.1,1.1L43.4,8l-8-8L20.6,14.9
				l-0.5,0.6l0.5,0.5l0.5-0.5L21.6,15.9z M35.2,14.1L33,11.9l6.1-6.1L41.3,8L35.2,14.1z M38,4.7l-6.1,6.1l-2.6-2.6l6.1-6.1L38,4.7z"
				/>
			<path class="st0" d="M22.9,28.8l-1.1-1.1L15,34.6l-2.4-2.4l6.6-6.6l-1.1-1.1l-6.6,6.6l-2.4-2.4l6.8-6.8l-1.1-1.1L0.1,35.6l8,8
				L22.9,28.8z M14,35.6l-5.9,5.9l-2.4-2.4l5.9-5.9L14,35.6z M8.1,29.8l2.4,2.4L4.7,38l-2.4-2.4L8.1,29.8z"/>
		</g>
		<g>
			<path class="st0" d="M13.9,16.2l2.2-2.2c0.7-0.7,1.9-0.6,2.7,0.2l0.9,0.9l-1.1,1.1l-0.9-0.9C17.5,15,17.2,15,17.2,15l-2.2,2.2
				c-0.1,0.1-0.1,0.4,0.2,0.6l0.9,0.9L15,19.8L14,18.9C13.2,18.1,13.2,16.9,13.9,16.2z"/>
		</g>
		<g>
			<path class="st0" d="M32.4,34.4l1.9-1.9c0.3-0.3,0.8-0.4,1.2-0.3c0.4,0.1,0.8,0.4,0.9,0.9l0.7,2.6c0.1,0.4,0,0.9-0.3,1.2
				c-0.3,0.3-0.8,0.4-1.2,0.3L33,36.5c-0.4-0.1-0.8-0.4-0.9-0.9C32,35.2,32.1,34.8,32.4,34.4z M35.1,33.9l-1.3,1.3l1.8,0.5
				L35.1,33.9z M35.7,36.1L35.7,36.1C35.7,36.1,35.7,36.1,35.7,36.1L35.7,36.1z"/>
		</g>
		<g>
			<path class="st0" d="M35.9,35.9c0.9-0.9,2.5-0.9,3.4,0c0.9,0.9,0.9,2.5,0,3.4c-0.9,0.9-2.5,0.9-3.4,0C35,38.4,35,36.9,35.9,35.9z
				 M38.3,38.3c0.4-0.4,0.4-0.9,0-1.3c-0.4-0.4-0.9-0.4-1.3,0c-0.4,0.4-0.4,0.9,0,1.3C37.3,38.6,37.9,38.6,38.3,38.3z"/>
		</g>
		<path class="st0" d="M26,42c0.3,0.3,0.8,0.3,1.1,0l14.8-14.8c0.3-0.3,0.3-0.8,0-1.1c-3.5-3.5-8.8-4.2-13-2.1c0.4-1.4,0-3-1.1-4.1
			l-3.9-3.9c-1.7-1.7-4.4-1.7-6,0l-2,2c-1.7,1.7-1.7,4.4,0,6l3.9,3.9c1.1,1.1,2.7,1.5,4.1,1.1C21.8,33.2,22.5,38.5,26,42z
			 M16.9,22.9c-1.1-1.1-1.1-2.8,0-3.9l2-2c1.1-1.1,2.8-1.1,3.9,0l3.9,3.9c1.1,1.1,1.1,2.8,0,3.9l-2,2c-1.1,1.1-2.8,1.1-3.9,0
			L16.9,22.9z M27,27.1c3.6-3.6,9.4-3.8,13.2-0.5L26.5,40.3C23.3,36.5,23.4,30.7,27,27.1z"/>
	</g>
	<g>
		<path class="st0" d="M37.9,42.5c0.1-0.1,0.3-0.2,0.4-0.2c0.8-0.1,1.9-0.7,2.5-1.3c0.7-0.7,1.2-1.7,1.3-2.5
			c0.1-0.4,0.4-0.7,0.8-0.6c0.4,0.1,0.7,0.4,0.6,0.8c-0.2,1.1-0.9,2.5-1.8,3.4c-0.9,0.9-2.3,1.6-3.4,1.8c-0.4,0.1-0.8-0.2-0.8-0.6
			C37.6,42.9,37.7,42.6,37.9,42.5z"/>
	</g>
	<g>
		<path class="st0" d="M37.9,45.6c0.1-0.1,0.3-0.2,0.4-0.2c1.5-0.2,3.3-1.2,4.5-2.4c1.2-1.2,2.2-3.1,2.4-4.5
			c0.1-0.4,0.4-0.7,0.8-0.6c0.4,0.1,0.7,0.4,0.6,0.8c-0.2,1.8-1.4,4-2.8,5.4c-1.5,1.5-3.6,2.6-5.4,2.8c-0.4,0.1-0.8-0.2-0.8-0.6
			C37.6,46,37.7,45.8,37.9,45.6z"/>
	</g>
	<g>
		<path class="st0" d="M37.9,48.7c0.1-0.1,0.3-0.2,0.4-0.2c2.1-0.3,4.8-1.7,6.6-3.5c1.8-1.8,3.2-4.5,3.5-6.6
			c0.1-0.4,0.4-0.7,0.8-0.6c0.4,0.1,0.7,0.4,0.6,0.8c-0.3,2.4-1.9,5.4-3.9,7.4c-2,2-5,3.6-7.4,3.9c-0.4,0.1-0.8-0.2-0.8-0.6
			C37.6,49.1,37.7,48.9,37.9,48.7z"/>
	</g>
</g>
</svg>
