<?xml version="1.0" encoding="utf-8"?>
<!-- Generator: Adobe Illustrator 26.0.3, SVG Export Plug-In . SVG Version: 6.00 Build 0)  -->
<svg version="1.1" id="Layer_1" xmlns="http://www.w3.org/2000/svg" xmlns:xlink="http://www.w3.org/1999/xlink" x="0px" y="0px"
	 viewBox="0 0 50 50" style="enable-background:new 0 0 50 50;" xml:space="preserve">
<style type="text/css">
	.st0{fill:#5A2A82;}
	.st1{fill:#FFFFFF;}
</style>
<g>
	<rect x="11.7" y="0.8" class="st0" width="1.5" height="48.5"/>
</g>
<g>
	<path class="st0" d="M46.7,50H7.5C6.1,50,5,48.9,5,47.6V36.8h2.4c0.5,0,0.9-0.4,0.9-0.9S7.9,35,7.5,35H5V15h2.4
		c0.5,0,0.9-0.4,0.9-0.9c0-0.5-0.4-0.9-0.9-0.9H5V2.4c0-0.7,0.3-1.3,0.7-1.7C6.2,0.3,6.8,0,7.5,0c0,0,0,0,0,0h39.3
		c0.9,0,1.6,0.7,1.6,1.6v46.8C48.3,49.3,47.6,50,46.7,50z M6.5,38.3v9.3c0,0.5,0.4,0.9,0.9,0.9h39.3c0,0,0.1,0,0.1-0.1V1.6
		c0,0,0-0.1-0.1-0.1H7.5c0,0,0,0,0,0C7,1.5,6.5,1.9,6.5,2.4v9.3h0.9c1.3,0,2.4,1.1,2.4,2.4s-1.1,2.4-2.4,2.4H6.5v16.9h0.9
		c1.3,0,2.4,1.1,2.4,2.4c0,1.3-1.1,2.4-2.4,2.4H6.5z"/>
</g>
<g>
	<path class="st0" d="M4.1,16.6c-1.3,0-2.4-1.1-2.4-2.4c0-1.3,1.1-2.4,2.4-2.4h3.3c1.3,0,2.4,1.1,2.4,2.4s-1.1,2.4-2.4,2.4H4.1
		C4.1,16.6,4.1,16.6,4.1,16.6z M4.1,13.2c-0.5,0-0.9,0.4-0.9,0.9c0,0.5,0.4,0.9,0.9,0.9c0,0,0,0,0,0h3.3c0.5,0,0.9-0.4,0.9-0.9
		c0-0.5-0.4-0.9-0.9-0.9H4.1z"/>
</g>
<g>
	<path class="st0" d="M4.1,38.3c-1.3,0-2.4-1.1-2.4-2.4c0-1.3,1.1-2.4,2.4-2.4h3.3c1.3,0,2.4,1.1,2.4,2.4c0,1.3-1.1,2.4-2.4,2.4H4.1
		C4.1,38.3,4.1,38.3,4.1,38.3z M4.1,35c-0.5,0-0.9,0.4-0.9,0.9c0,0.5,0.4,0.9,0.9,0.9c0,0,0,0,0,0h3.3c0.5,0,0.9-0.4,0.9-0.9
		S7.9,35,7.5,35H4.1z"/>
</g>
<g>
	<path class="st0" d="M21.9,40.5c-2.5,0-4.5-2-4.5-4.5c0-2.5,2-4.5,4.5-4.5c2.5,0,4.5,2,4.5,4.5C26.4,38.5,24.4,40.5,21.9,40.5z
		 M21.9,32.2c-2.1,0-3.8,1.7-3.8,3.8c0,2.1,1.7,3.8,3.8,3.8c2.1,0,3.8-1.7,3.8-3.8C25.7,33.9,24,32.2,21.9,32.2z"/>
</g>
<g>
	
		<rect x="37.2" y="31.3" transform="matrix(0.7071 -0.7071 0.7071 0.7071 -14.4415 37.0825)" class="st0" width="0.7" height="9.3"/>
</g>
<g>
	<rect x="32.9" y="35.6" transform="matrix(0.707 -0.7072 0.7072 0.707 -14.4412 37.0925)" class="st0" width="9.3" height="0.7"/>
</g>
<g>
	<rect x="21.6" y="9.5" transform="matrix(0.7071 -0.7071 0.7071 0.7071 -3.5692 19.6562)" class="st0" width="0.7" height="9.3"/>
</g>
<g>
	<rect x="17.3" y="13.8" transform="matrix(0.7071 -0.7072 0.7072 0.7071 -3.5685 19.6594)" class="st0" width="9.3" height="0.7"/>
</g>
<g>
	<path class="st0" d="M22.3,31.9h-0.7v-4.9c0-1.3,1-2.3,2.3-2.3h11.7c0.9,0,1.6-0.7,1.6-1.6V11.6h0.7v11.4c0,1.3-1,2.3-2.3,2.3H23.9
		c-0.9,0-1.6,0.7-1.6,1.6V31.9z"/>
</g>
<g>
	<polygon class="st0" points="40.6,14.1 40,14.6 37.5,11.9 35,14.6 34.5,14.1 37.5,10.8 	"/>
</g>
</svg>
