<?xml version="1.0" encoding="utf-8"?>
<!-- Generator: Adobe Illustrator 26.0.3, SVG Export Plug-In . SVG Version: 6.00 Build 0)  -->
<svg version="1.1" xmlns="http://www.w3.org/2000/svg" xmlns:xlink="http://www.w3.org/1999/xlink" x="0px" y="0px"
	 viewBox="0 0 50 50" style="enable-background:new 0 0 50 50;" xml:space="preserve">
<style type="text/css">
	.st0{fill:none;}
	.st1{fill:#FCAF1A;}
	.st2{font-family:'Roboto-Regular';}
	.st3{font-size:6px;}
	.st4{fill:#592C82;}
	.st5{fill:#602B7D;}
	.st6{fill:#5A2A82;}
	.st7{fill:none;stroke:#602B7D;stroke-width:1.2262;stroke-linecap:round;stroke-miterlimit:10;}
	.st8{fill:none;stroke:#602B7D;stroke-width:1.5941;stroke-linecap:round;stroke-linejoin:round;stroke-miterlimit:10;}
	.st9{display:none;}
	.st10{display:inline;}
	.st11{display:inline;fill:#5A2A82;}
	.st12{display:none;fill:#602B7D;}
	.st13{fill:none;stroke:#5A2A82;stroke-miterlimit:10;}
	.st14{fill:none;stroke:#5A2A82;stroke-width:2;stroke-miterlimit:10;}
</style>
<g id="Title__x26__Guide">
</g>
<g id="Icons">
	<g>
		<path class="st6" d="M49.1,18.8h-2.9c-0.3,0-0.5,0.2-0.5,0.5c0,0.3,0.2,0.5,0.5,0.5h1.6l-4.9,4.9l0,0l-1.1,1.1l0,0l-1.9,1.9l0,0
			l-2.6,2.6h-35l2.1-2.1c0.2-0.2,0.2-0.6,0-0.8c-0.2-0.2-0.6-0.2-0.8,0l-3.1,3.1c-0.2,0.1-0.2,0.4-0.1,0.6c0.1,0.2,0.3,0.4,0.5,0.4
			h4.7V37c0,0.7,0.6,1.3,1.4,1.3s1.4-0.6,1.4-1.3v-5.3h2.1v3.1c0,0.7,0.6,1.3,1.3,1.3s1.3-0.6,1.3-1.3v-3.1h4.5V37
			c0,0.7,0.6,1.3,1.4,1.3s1.4-0.6,1.4-1.3v-5.3h1.9v3.1c0,0.7,0.6,1.3,1.3,1.3c0.7,0,1.3-0.6,1.3-1.3v-3.1h4.7V37
			c0,0.7,0.6,1.3,1.4,1.3c0.8,0,1.4-0.6,1.4-1.3v-5.3h2.6v3.2c0,0.7,0.6,1.3,1.3,1.3c0.7,0,1.3-0.6,1.3-1.3v-3.2
			c0.1,0,0.3,0,0.4-0.1l0.8-0.8v0.6c0,0.7,0.6,1.3,1.3,1.3s1.3-0.6,1.3-1.3v-3.2l1.1-1.1v0.9c0,0.7,0.6,1.3,1.3,1.3
			c0.7,0,1.3-0.6,1.3-1.3v-3.4l4.7-4.7c0.2-0.2,0.2-0.4,0.1-0.6C49.5,18.9,49.3,18.8,49.1,18.8z"/>
		<path class="st6" d="M49.1,28h-2.9c-0.3,0-0.5,0.2-0.5,0.5c0,0.3,0.2,0.5,0.5,0.5h1.6L37.2,39.7h-35l2.1-2.1
			c0.2-0.2,0.2-0.6,0-0.8c-0.2-0.2-0.6-0.2-0.8,0l-3.1,3.1c-0.1,0.1-0.2,0.4-0.1,0.6c0.1,0.2,0.3,0.4,0.5,0.4h36.5
			c0.1,0,0.3,0,0.4-0.2l11.7-11.8c0.2-0.1,0.2-0.4,0.1-0.6C49.5,28.1,49.3,28,49.1,28z"/>
		<path class="st6" d="M0.8,22h4.7v5.3c0,0.7,0.6,1.3,1.4,1.3s1.4-0.6,1.4-1.3V22h2.1v3.2c0,0.7,0.6,1.3,1.3,1.3s1.3-0.6,1.3-1.3V22
			h4.5v5.3c0,0.7,0.6,1.3,1.4,1.3s1.4-0.6,1.4-1.3V22h1.9v3.2c0,0.7,0.6,1.3,1.3,1.3c0.7,0,1.3-0.6,1.3-1.3V22h4.7v5.3
			c0,0.7,0.6,1.3,1.4,1.3c0.8,0,1.4-0.6,1.4-1.3V22h2.6v3.2c0,0.7,0.6,1.4,1.3,1.4c0.7,0,1.3-0.6,1.3-1.4V22c0.1,0,0.3,0,0.4-0.1
			l0.8-0.8v0.6c0,0.7,0.6,1.3,1.3,1.3s1.3-0.6,1.3-1.3v-3.2l1.1-1.1v0.9c0,0.7,0.6,1.3,1.3,1.3c0.7,0,1.3-0.6,1.3-1.3v-3.5l4.7-4.7
			c0.2-0.2,0.2-0.4,0.1-0.6c-0.1-0.2-0.3-0.4-0.5-0.4H12.6c-0.1,0-0.3,0-0.4,0.2L0.5,21.1c-0.2,0.2-0.2,0.4-0.1,0.6
			C0.4,21.9,0.6,22,0.8,22z M12.8,10.3h34.9L37.1,20.9H2.2L12.8,10.3z"/>
	</g>
	<g class="st9">
		<path class="st11" d="M40.1,14.8c-0.1-0.5-0.3-1.5-0.8-2.7c-0.9-2-2.3-3.2-3-3.7c-1.6-1.4-3.1-2-3.9-2.3c-0.8-0.3-3.1-1.1-6-1.1
			c-0.1,0-0.2,0-0.2,0c-1.6,0-3.1,0.3-4.6,0.7c-2.4,0.7-4,1.8-4.5,2.3c-0.6,0.5-1.8,1.4-3,3.1c-0.4,0.6-1,1.7-1.4,3
			c-0.3,0.9-0.4,1.8-0.4,2.7c0,0.8,0,2.3,0.5,3.2c0,0.1,0.1,0.1,0.1,0.2c0,0,0,0.2-0.1,0.5c-0.2,0.5-0.6,0.8-0.7,1
			c-0.4,0.4-0.7,0.6-1,0.8c-0.6,0.5-1,0.8-1.3,1.5c-0.2,0.5-0.3,1.3,0.2,1.8c0.3,0.4,0.8,0.4,1,0.4c0.5,0,1,0.1,1.4,0.1
			c0,0.4,0.1,0.8,0.1,1.2c0.2,2.1,0.3,2.8,0.3,2.9c0,0.2,0.1,0.7,0,1.2c0,0.3-0.1,0.6-0.1,0.7c0,0.2-0.1,0.3-0.1,0.4
			c0,0.1-0.1,0.3-0.1,0.5c-0.1,0.5,0,0.8,0,1c0,0.2,0.1,0.6,0.3,0.9c0.4,0.7,1.3,0.8,2.2,0.9c1.2,0.1,3.8,0.2,5.3,0.1
			c0.1,0,0.2,0,0.3,0c0,0,0,0,0,0c0.1,0.5,0.2,2.7,0.1,8.3l0,0.6h0.4l13.5,0l0.6-0.1l0-0.6c-0.1-1.7-0.2-6,0.1-9.3
			c0.2-1.7,0.5-3.2,0.5-3.3c0.2-0.9,0.4-1.7,0.7-2.6c0.3-0.9,0.5-1.3,0.8-1.8c0.2-0.4,0.5-0.9,0.9-1.9c0.5-1.3,0.8-2.3,1.2-3.7
			c0.4-1.5,0.6-2.3,0.7-3.4C40.4,16.8,40.2,15.4,40.1,14.8z M34,43.8H22.1c0.2-8-0.1-8.3-0.4-8.5c-0.2-0.2-0.4-0.3-0.4-0.3
			c-0.3-0.1-0.6-0.2-0.9-0.1c-1.3,0.1-3.9,0-5.1-0.1c-0.3,0-1.1-0.1-1.2-0.2c0-0.1-0.1-0.3-0.1-0.5c0-0.1,0-0.3,0-0.7
			c0-0.1,0-0.2,0.1-0.3c0-0.1,0.1-0.3,0.1-0.5c0-0.1,0.1-0.4,0.1-0.8c0.1-0.7,0-1.2-0.1-1.5c0,0-0.1-0.6-0.3-2.8
			c-0.1-0.6-0.1-1.1-0.1-1.7l0-0.6l-0.6,0c-0.6,0-1.2-0.1-1.9-0.1C11,25,11,25,11,25c0,0,0-0.3,0.1-0.6c0.1-0.3,0.4-0.5,0.9-1
			c0.3-0.2,0.6-0.5,1-0.9c0.2-0.2,0.7-0.7,1-1.4c0.2-0.5,0.3-0.9,0.2-1.2c0-0.2-0.1-0.5-0.3-0.7c-0.3-0.6-0.3-2-0.3-2.5
			c0-0.5,0.1-1.4,0.4-2.3c0.3-1.1,0.9-2.1,1.2-2.6c1-1.5,2.1-2.4,2.7-2.8c0.5-0.4,2-1.4,4.2-2.1c1.3-0.4,2.8-0.6,4.2-0.7
			c2.8-0.1,4.9,0.7,5.7,1c0.7,0.3,2.1,0.8,3.5,2.1c0.6,0.5,1.8,1.6,2.6,3.3c0.5,1,0.7,1.9,0.7,2.4c0.1,0.6,0.3,1.8,0.1,3.3
			c-0.1,1-0.3,1.7-0.7,3.2c-0.4,1.4-0.6,2.3-1.1,3.6c-0.4,0.9-0.6,1.3-0.8,1.7c-0.3,0.5-0.6,1-0.9,2c-0.3,1-0.5,1.8-0.7,2.8
			c0,0.1-0.3,1.6-0.5,3.4C33.8,38,33.9,42,34,43.8z"/>
		<path class="st11" d="M36,21.5c0-0.4-0.1-0.8-0.2-1.2c1.6-0.6,2.6-2.1,2.6-3.8c0-1.4-0.7-2.7-1.9-3.4c-0.2-2.4-2.2-4.4-4.7-4.4
			c-0.9,0-1.7,0.2-2.4,0.7c-0.8-1.4-2.4-2.3-4-2.3c-2.5,0-4.5,1.9-4.7,4.4c-0.3,0-0.5-0.1-0.8-0.1c-2.8,0-5.1,2.3-5.1,5.1
			s2.3,5.1,5.1,5.1c0.2,0,0.3,0,0.4,0c0.4,1.3,1.7,2.3,3.1,2.3c0.2,0,0.5,0,0.7-0.1c0.1,0.2,0.1,0.4,0.2,0.5
			c0.5,0.9,1.3,1.3,1.8,1.6c0.8,0.5,1.5,0.6,2,0.7c0.4,0.1,0.7,0.1,1,0.3c0.7,0.4,1.1,1.3,1.2,2.6l0,0.3h2.5l0-0.4
			c0-0.4,0-0.9,0.1-1.3c0.1-1.2,0.3-2.4,0.7-3.6C35,24.2,36,23,36,21.5z M33.3,23.9H33l-0.1,0.3c-0.4,1.3-0.7,2.6-0.8,4
			c0,0.3-0.1,0.7-0.1,1h-1.2c-0.2-1.4-0.7-2.4-1.5-2.9c-0.4-0.3-0.8-0.3-1.3-0.4c-0.5-0.1-1-0.2-1.7-0.6c-0.5-0.3-1.1-0.6-1.5-1.4
			c-0.1-0.2-0.2-0.5-0.3-0.7l-0.1-0.4L24.2,23c-0.3,0.1-0.5,0.1-0.8,0.1c-1.2,0-2.2-0.8-2.4-2l-0.1-0.3l-0.4,0.1
			c-0.2,0-0.4,0.1-0.7,0.1c-2.4,0-4.4-2-4.4-4.4s2-4.4,4.4-4.4c0.4,0,0.7,0,1.1,0.1l0.5,0.1l-0.1-0.5c0,0,0,0,0-0.1c0-2.2,1.8-4,4-4
			c1.5,0,2.9,0.8,3.6,2.2l0.2,0.4l0.4-0.3c0.7-0.5,1.5-0.8,2.3-0.8c2.1,0,3.9,1.7,4,3.9l0,0.2l0.2,0.1c1,0.6,1.7,1.7,1.7,2.9
			c0,1.5-1,2.8-2.5,3.2l-0.5,0.1l0.2,0.4c0.2,0.4,0.3,0.8,0.3,1.2C35.2,22.7,34.4,23.7,33.3,23.9z"/>
		<path class="st11" d="M29.9,13.1v-1.4h-0.9v1.4h-1.1v-1.4h-0.9v1.4h-1.1v-1.4h-0.9v1.4c-0.7,0-1.2,0.5-1.2,1.2h-1.4v0.9h1.4v1.1
			h-1.4v0.9h1.4v1.1h-1.4v0.9h1.4c0,0.7,0.5,1.2,1.2,1.2v1.4h0.9v-1.4h1.1v1.4h0.9v-1.4h1.1v1.4h0.9v-1.4c0.7,0,1.2-0.5,1.2-1.2h1.4
			v-0.9h-1.4v-1.1h1.4v-0.9h-1.4v-1.1h1.4v-0.9h-1.4C31.1,13.6,30.6,13.1,29.9,13.1z M30.3,19.1c0,0.2-0.2,0.4-0.4,0.4h-4.8
			c-0.2,0-0.4-0.2-0.4-0.4v-4.8c0-0.2,0.2-0.4,0.4-0.4h4.8c0.2,0,0.4,0.2,0.4,0.4V19.1z"/>
		<path class="st11" d="M29,14.3h-3c-0.5,0-0.9,0.4-0.9,0.9v3c0,0.5,0.4,0.9,0.9,0.9h3c0.5,0,0.9-0.4,0.9-0.9v-3
			C29.9,14.7,29.5,14.3,29,14.3z M29.1,18.2C29.1,18.2,29,18.3,29.1,18.2L26,18.3c0,0-0.1,0-0.1-0.1v-3c0,0,0-0.1,0.1-0.1h3
			c0,0,0.1,0,0.1,0.1V18.2z"/>
		<rect x="26.4" y="15.7" class="st11" width="2.3" height="0.7"/>
		<rect x="26.4" y="17" class="st11" width="2.3" height="0.7"/>
	</g>
	<g class="st9">
		<g class="st10">
			<path class="st6" d="M13.5,27.1h-5c-0.5,0-0.8-0.4-0.8-0.8v-5c0-0.5,0.4-0.8,0.8-0.8h5c0.5,0,0.8,0.4,0.8,0.8v5
				C14.4,26.7,14,27.1,13.5,27.1z M8.6,21.3v5h5l0-5H8.6z"/>
		</g>
		<g class="st10">
			<path class="st6" d="M21,27.1h-5c-0.5,0-0.8-0.4-0.8-0.8v-5c0-0.5,0.4-0.8,0.8-0.8h5c0.5,0,0.8,0.4,0.8,0.8v5
				C21.8,26.7,21.5,27.1,21,27.1z M16,21.3v5h5l0-5H16z"/>
		</g>
		<g class="st10">
			<path class="st6" d="M34,27.1h-5c-0.5,0-0.8-0.4-0.8-0.8v-5c0-0.5,0.4-0.8,0.8-0.8h5c0.5,0,0.8,0.4,0.8,0.8v5
				C34.8,26.7,34.5,27.1,34,27.1z M29.1,21.3v5h5l0-5H29.1z"/>
		</g>
		<g class="st10">
			<path class="st6" d="M41.5,27.1h-5c-0.5,0-0.8-0.4-0.8-0.8v-5c0-0.5,0.4-0.8,0.8-0.8h5c0.5,0,0.8,0.4,0.8,0.8v5
				C42.3,26.7,41.9,27.1,41.5,27.1z M36.5,21.3v5h5l0-5H36.5z"/>
		</g>
		<path class="st11" d="M43.5,14.7h-37c-0.8,0-1.5,0.7-1.5,1.5v12.7c0,0.8,0.7,1.5,1.5,1.5h0.8c0.1,0,0.2,0.1,0.2,0.2v3.3
			c0,0.8,0.7,1.5,1.5,1.5h11.3c0.8,0,1.5-0.7,1.5-1.5v-3.3c0-0.1,0.1-0.2,0.2-0.2h0.8c0.1,0,0.2,0.1,0.2,0.2v3.3
			c0,0.8,0.7,1.5,1.5,1.5h16.2c0.8,0,1.5-0.7,1.5-1.5v-3.3c0-0.1,0.1-0.2,0.2-0.2h1c0.8,0,1.5-0.7,1.5-1.5V16.2
			C45,15.4,44.3,14.7,43.5,14.7z M22.9,29H22c-0.8,0-1.5,0.7-1.5,1.5v3.3c0,0.1-0.1,0.2-0.2,0.2H9c-0.1,0-0.2-0.1-0.2-0.2v-3.3
			c0-0.8-0.7-1.5-1.5-1.5H6.5c-0.1,0-0.2-0.1-0.2-0.2V16.2c0-0.1,0.1-0.2,0.2-0.2h37c0.1,0,0.2,0.1,0.2,0.2v12.7
			c0,0.1-0.1,0.2-0.2,0.2h-1c-0.8,0-1.5,0.7-1.5,1.5v3.3c0,0.1-0.1,0.2-0.2,0.2H24.6c-0.1,0-0.2-0.1-0.2-0.2v-3.3
			C24.4,29.7,23.7,29,22.9,29z"/>
		<g class="st10">
			<rect x="10.3" y="31.2" class="st6" width="0.8" height="3.4"/>
		</g>
		<g class="st10">
			<rect x="12.9" y="31.2" class="st6" width="0.8" height="3.4"/>
		</g>
		<g class="st10">
			<rect x="15.5" y="31.2" class="st6" width="0.8" height="3.4"/>
		</g>
		<g class="st10">
			<rect x="18.1" y="31.2" class="st6" width="0.8" height="3.4"/>
		</g>
		<g class="st10">
			<rect x="25.9" y="31.2" class="st6" width="0.8" height="3.4"/>
		</g>
		<g class="st10">
			<rect x="28.4" y="31.2" class="st6" width="0.8" height="3.4"/>
		</g>
		<g class="st10">
			<rect x="31" y="31.2" class="st6" width="0.8" height="3.4"/>
		</g>
		<g class="st10">
			<rect x="33.6" y="31.2" class="st6" width="0.8" height="3.4"/>
		</g>
		<g class="st10">
			<rect x="36.2" y="31.2" class="st6" width="0.8" height="3.4"/>
		</g>
		<g class="st10">
			<rect x="38.7" y="31.2" class="st6" width="0.8" height="3.4"/>
		</g>
	</g>
	<g class="st9">
		<g class="st10">
			<path class="st6" d="M20.3,32L5,31.9L29.6,7.3H45L20.3,32z M8,30.7l11.9,0.1L42,8.6h-12L8,30.7z"/>
		</g>
		<g class="st10">
			<polygon class="st6" points="20.3,35.5 5,35.4 7.6,32.9 8.5,33.7 8,34.2 19.8,34.3 42,12.1 41.6,12.1 41.6,10.9 45,10.9 			"/>
		</g>
		<g class="st10">
			<polygon class="st6" points="20.3,39.1 5,39 7.6,36.4 8.5,37.3 8,37.8 19.8,37.9 42,15.7 41.6,15.7 41.6,14.5 45,14.5 			"/>
		</g>
		<g class="st10">
			<polygon class="st6" points="20.3,42.7 5,42.6 7.6,40 8.5,40.8 8,41.4 19.8,41.4 42,19.3 41.6,19.3 41.6,18 45,18 			"/>
		</g>
	</g>
</g>
</svg>
