<?xml version="1.0" encoding="utf-8"?>
<!-- Generator: Adobe Illustrator 26.0.3, SVG Export Plug-In . SVG Version: 6.00 Build 0)  -->
<svg version="1.1" xmlns="http://www.w3.org/2000/svg" xmlns:xlink="http://www.w3.org/1999/xlink" x="0px" y="0px"
	 viewBox="0 0 50 50" style="enable-background:new 0 0 50 50;" xml:space="preserve">
<style type="text/css">
	.st0{fill:none;}
	.st1{fill:#FCAF1A;}
	.st2{font-family:'Roboto-Regular';}
	.st3{font-size:6px;}
	.st4{fill:#592C82;}
	.st5{fill:#602B7D;}
	.st6{fill:#5A2A82;}
	.st7{fill:none;stroke:#602B7D;stroke-width:1.2262;stroke-linecap:round;stroke-miterlimit:10;}
	.st8{fill:none;stroke:#602B7D;stroke-width:1.5941;stroke-linecap:round;stroke-linejoin:round;stroke-miterlimit:10;}
	.st9{display:none;}
	.st10{display:inline;}
	.st11{display:inline;fill:#5A2A82;}
	.st12{display:none;fill:#602B7D;}
	.st13{fill:none;stroke:#5A2A82;stroke-miterlimit:10;}
	.st14{fill:none;stroke:#5A2A82;stroke-width:2;stroke-miterlimit:10;}
</style>
<g id="Title__x26__Guide">
</g>
<g id="Icons">
	<g class="st9">
		<g class="st10">
			<path class="st6" d="M25,41.2c-8.9,0-16.2-7.3-16.2-16.2S16.1,8.8,25,8.8S41.2,16.1,41.2,25S33.9,41.2,25,41.2z M25,10.3
				c-8.1,0-14.7,6.6-14.7,14.7S16.9,39.7,25,39.7S39.7,33.1,39.7,25S33.1,10.3,25,10.3z"/>
		</g>
		<g class="st10">
			<path class="st6" d="M25,29.8c-2.6,0-4.8-2.2-4.8-4.8s2.2-4.8,4.8-4.8s4.8,2.2,4.8,4.8S27.6,29.8,25,29.8z M25,21.6
				c-1.9,0-3.4,1.5-3.4,3.4c0,1.9,1.5,3.4,3.4,3.4c1.9,0,3.4-1.5,3.4-3.4C28.4,23.1,26.9,21.6,25,21.6z"/>
		</g>
		<g class="st10">
			<path class="st6" d="M25,45C14,45,5,36,5,25C5,14,14,5,25,5c11,0,20,9,20,20C45,36,36,45,25,45z M25,6.4
				C14.8,6.4,6.4,14.8,6.4,25c0,10.2,8.3,18.6,18.6,18.6c10.2,0,18.6-8.3,18.6-18.6C43.6,14.8,35.2,6.4,25,6.4z"/>
		</g>
		<g class="st10">
			<g>
				<circle class="st5" cx="25" cy="18.1" r="1.2"/>
			</g>
			<g>
				<circle class="st5" cx="25" cy="31.9" r="1.2"/>
			</g>
			<g>
				<circle class="st5" cx="31.9" cy="25.2" r="1.2"/>
			</g>
			<g>
				<circle class="st5" cx="18.1" cy="25.2" r="1.2"/>
			</g>
			<g>
				<circle class="st5" cx="20" cy="20.1" r="1.2"/>
			</g>
			<g>
				<circle class="st5" cx="29.8" cy="29.9" r="1.2"/>
			</g>
			<g>
				<circle class="st5" cx="30" cy="20.3" r="1.2"/>
			</g>
			<g>
				<circle class="st5" cx="20.2" cy="30.1" r="1.2"/>
			</g>
		</g>
	</g>
	<g class="st9">
		<g class="st10">
			<g>
				<path class="st6" d="M27,46.3c-8.9,0-16.2-7.3-16.2-16.2S18.1,14,27,14s16.2,7.2,16.2,16.2S36,46.3,27,46.3z M27,15.4
					c-8.1,0-14.7,6.6-14.7,14.7S18.9,44.9,27,44.9s14.7-6.6,14.7-14.7S35.2,15.4,27,15.4z"/>
			</g>
			<g>
				<path class="st6" d="M27,35c-2.6,0-4.8-2.2-4.8-4.8s2.2-4.8,4.8-4.8s4.8,2.2,4.8,4.8S29.7,35,27,35z M27,26.8
					c-1.9,0-3.4,1.5-3.4,3.4s1.5,3.4,3.4,3.4c1.9,0,3.4-1.5,3.4-3.4S28.9,26.8,27,26.8z"/>
			</g>
			<g>
				<path class="st6" d="M27,50.2c-11,0-20-9-20-20c0-11,9-20,20-20c11,0,20,9,20,20C47,41.2,38.1,50.2,27,50.2z M27,11.6
					c-10.2,0-18.6,8.3-18.6,18.6c0,10.2,8.3,18.6,18.6,18.6c10.2,0,18.6-8.3,18.6-18.6C45.6,19.9,37.3,11.6,27,11.6z"/>
			</g>
			<g>
				<g>
					<circle class="st5" cx="27" cy="23.3" r="1.2"/>
				</g>
				<g>
					<circle class="st5" cx="27" cy="37.1" r="1.2"/>
				</g>
				<g>
					<circle class="st5" cx="34" cy="30.4" r="1.2"/>
				</g>
				<g>
					<circle class="st5" cx="20.1" cy="30.4" r="1.2"/>
				</g>
				<g>
					<circle class="st5" cx="22.1" cy="25.3" r="1.2"/>
				</g>
				<g>
					<circle class="st5" cx="31.9" cy="35.1" r="1.2"/>
				</g>
				<g>
					<circle class="st5" cx="32" cy="25.5" r="1.2"/>
				</g>
				<g>
					<circle class="st5" cx="22.2" cy="35.3" r="1.2"/>
				</g>
			</g>
		</g>
		<g class="st10">
			<path class="st6" d="M27,54.9c-13.6,0-24.7-11.1-24.7-24.7C2.4,16.6,13.4,5.5,27,5.5c13.6,0,24.7,11.1,24.7,24.7
				C51.7,43.8,40.7,54.9,27,54.9z M27,7.2C14.4,7.2,4.1,17.5,4.1,30.2c0,12.6,10.3,22.9,22.9,22.9C39.7,53.1,50,42.8,50,30.2
				C50,17.5,39.7,7.2,27,7.2z"/>
		</g>
		<g class="st10">
			<path class="st6" d="M27,59.1c-16,0-28.9-13-28.9-28.9c0-16,13-28.9,28.9-28.9c16,0,28.9,13,28.9,28.9C56,46.1,43,59.1,27,59.1z
				 M27,3.3C12.2,3.3,0.2,15.4,0.2,30.2C0.2,45,12.2,57.1,27,57.1c14.8,0,26.9-12.1,26.9-26.9C53.9,15.4,41.9,3.3,27,3.3z"/>
		</g>
	</g>
	<g>
		<path class="st6" d="M27.5,36.5c5.6,0,10.2-5.2,10.2-11.5s-4.6-11.5-10.2-11.5S17.3,18.6,17.3,25S21.9,36.5,27.5,36.5z M27.5,14
			c5.3,0,9.6,4.9,9.6,10.9s-4.3,10.9-9.6,10.9c-4.3,0-8-3.3-9.2-7.8c1.1,3.4,4,5.8,7.5,5.8c4.4,0,8-3.9,8-8.6c0-4.7-3.6-8.6-8-8.6
			c-4,0-7.4,3.3-7.9,7.5C18.4,18.5,22.5,14,27.5,14z M19.5,26.1c0-2.5,1.8-4.6,4-4.6s4,2,4,4.6s-1.8,4.6-4,4.6S19.5,28.6,19.5,26.1z
			 M23.5,31.3c2.5,0,4.6-2.3,4.6-5.2c0-2.9-2.1-5.2-4.6-5.2c-1.8,0-3.4,1.2-4.2,3c0.6-3.4,3.3-6,6.6-6c3.7,0,6.7,3.3,6.7,7.4
			c0,4.1-3,7.4-6.7,7.4c-1.8,0-3.3-0.7-4.5-1.9C22,31,22.7,31.3,23.5,31.3z"/>
		<path class="st6" d="M28.6,39.2c7.1,0,12.9-6.5,12.9-14.4s-5.8-14.4-12.9-14.4c-7.1,0-12.9,6.5-12.9,14.4S21.5,39.2,28.6,39.2z
			 M28.6,10.9c6.8,0,12.2,6.2,12.2,13.8c0,7.6-5.5,13.8-12.2,13.8c-6.8,0-12.2-6.2-12.2-13.8C16.3,17.1,21.8,10.9,28.6,10.9z"/>
		<path class="st6" d="M30,42c8.2,0,14.9-7.8,14.9-17.3S38.2,7.3,30,7.3c-7.6,0-14,6.7-14.8,15.3c-0.1,0.6-0.1,1.3-0.1,1.9
			c0,0,0,0,0,0.1c0,0,0,0,0,0.1c0,0,0,0,0,0c0,0,0,0,0,0c0,0.3,0,0.6,0,0.9C15.5,34.7,22,42,30,42z M28.9,9.5
			c7.3,0,13.3,6.7,13.3,15s-5.9,15-13.3,15c-7.3,0-13.2-6.7-13.3-15c0-1.5,0.2-2.9,0.5-4.3C17.8,14.1,22.9,9.5,28.9,9.5z M28.9,40.2
			c7.7,0,13.9-7,13.9-15.7S36.6,8.9,28.9,8.9c-0.5,0-1.1,0-1.6,0.1c0.7-0.1,1.4-0.2,2.1-0.2c7.6,0,13.8,7.1,13.8,15.9
			S37,40.6,29.4,40.6c-2.6,0-5-0.8-7-2.2C24.4,39.5,26.6,40.2,28.9,40.2z M44.3,24.6c0,9.2-6.4,16.7-14.3,16.7
			c-1.3,0-2.5-0.2-3.7-0.6c1,0.3,2.1,0.4,3.1,0.4c7.9,0,14.4-7.4,14.4-16.5S37.4,8.1,29.4,8.1c-1.4,0-2.8,0.2-4,0.7
			c1.4-0.6,3-0.9,4.6-0.9C37.9,7.9,44.3,15.4,44.3,24.6z"/>
		<path class="st6" d="M49.8,25c0-12.2-8.3-22.2-18.6-22.2v0H25h-4.4h-6.2l-0.1,0C5.9,6.3,0.2,15.1,0.2,24.9
			c0,10.1,5.9,19,14.7,22.2l0.1,0h6.2H25h6.2v0C41.5,47.2,49.8,37.2,49.8,25z M1.4,24.9c0-9.2,5.3-17.5,13.2-20.8h3.4
			c-7.1,4-11.7,12-11.7,20.8c0,9,4.8,17.1,12.1,21h-3.2C7,42.8,1.4,34.4,1.4,24.9z M21.4,45.9c-8.3-3.1-13.8-11.5-13.8-21
			c0-9.2,5.3-17.5,13.2-20.8H25h0.1c-7.3,3-12.5,11.3-12.5,20.9c0,9.7,5.2,17.9,12.5,20.9H25H21.4z M31.2,45.9
			c-8,0-14.8-6.6-16.8-15.5c2.1,7.9,8.5,13.7,16.1,13.7c9.3,0,16.9-8.8,16.9-19.6S39.8,5,30.5,5c-5.4,0-10.2,3-13.3,7.6
			c3.2-5.2,8.3-8.6,14-8.6c9.6,0,17.4,9.4,17.4,20.9S40.8,45.9,31.2,45.9z M14.9,24.6c0-10.1,7-18.3,15.6-18.3s15.6,8.2,15.6,18.3
			c0,10.1-7,18.3-15.6,18.3S14.9,34.7,14.9,24.6z"/>
	</g>
</g>
</svg>
