<?xml version="1.0" encoding="utf-8"?>
<!-- Generator: Adobe Illustrator 26.0.3, SVG Export Plug-In . SVG Version: 6.00 Build 0)  -->
<svg version="1.1" xmlns="http://www.w3.org/2000/svg" xmlns:xlink="http://www.w3.org/1999/xlink" x="0px" y="0px"
	 viewBox="0 0 50 50" style="enable-background:new 0 0 50 50;" xml:space="preserve">
<style type="text/css">
	.st0{fill:none;}
	.st1{fill:#FCAF1A;}
	.st2{font-family:'Roboto-Regular';}
	.st3{font-size:6px;}
	.st4{fill:#592C82;}
	.st5{fill:#602B7D;}
	.st6{fill:#5A2A82;}
	.st7{fill:none;stroke:#602B7D;stroke-width:1.2262;stroke-linecap:round;stroke-miterlimit:10;}
	.st8{fill:none;stroke:#602B7D;stroke-width:1.5941;stroke-linecap:round;stroke-linejoin:round;stroke-miterlimit:10;}
	.st9{display:none;}
	.st10{display:inline;}
	.st11{display:inline;fill:#5A2A82;}
	.st12{display:none;fill:#602B7D;}
	.st13{fill:none;stroke:#5A2A82;stroke-miterlimit:10;}
	.st14{fill:none;stroke:#5A2A82;stroke-width:2;stroke-miterlimit:10;}
</style>
<g id="Title__x26__Guide">
</g>
<g id="Icons">
	<g>
		<g>
			<path class="st5" d="M36.3,27.9c-0.3,0-0.6-0.3-0.6-0.6c0-2.3-1.9-4.1-4.1-4.1c-0.3,0-0.6-0.3-0.6-0.6c0-0.3,0.3-0.6,0.6-0.6
				c2.9,0,5.3,2.3,5.3,5.3C36.9,27.6,36.6,27.9,36.3,27.9z"/>
			<path class="st5" d="M13.7,27.9c-0.3,0-0.6-0.3-0.6-0.6c0-2.9,2.3-5.3,5.3-5.3c0.3,0,0.6,0.3,0.6,0.6s-0.3,0.6-0.6,0.6
				c-2.2,0-4.1,1.9-4.1,4.1C14.3,27.6,14,27.9,13.7,27.9z"/>
			<path class="st5" d="M22.7,21.7c-0.2,0-0.4-0.1-0.5-0.3c-0.4-0.9-1.3-1.4-2.2-1.4c-0.3,0-0.6-0.3-0.6-0.6s0.3-0.6,0.6-0.6
				c1.4,0,2.6,0.7,3.3,2c0.2,0.3,0.1,0.6-0.3,0.8C22.9,21.7,22.8,21.7,22.7,21.7z"/>
			<path class="st5" d="M31.6,32.6H18.4c-2.9,0-5.3-2.3-5.3-5.3c0-2.1,1.2-4,3.1-4.8c0.1-2,1.7-3.6,3.7-3.6c0.6,0,1.2,0.2,1.7,0.4
				c1.1-2.1,3.3-3.5,5.7-3.5c3.5,0,6.5,2.9,6.5,6.5c0,0.1,0,0.2,0,0.3c1.9,0.9,3.1,2.7,3.1,4.8C36.9,30.2,34.6,32.6,31.6,32.6z
				 M19.9,20c-1.4,0-2.6,1.1-2.6,2.6c0,0.1,0,0.2,0,0.2l0.1,0.4L17,23.4c-1.7,0.6-2.8,2.1-2.8,3.9c0,2.3,1.9,4.1,4.1,4.1h13.3
				c2.2,0,4.1-1.9,4.1-4.1c0-1.8-1.1-3.3-2.8-3.9l-0.4-0.2l0.1-0.5c0-0.2,0.1-0.4,0.1-0.6c0-2.9-2.3-5.3-5.3-5.3
				c-2.2,0-4.2,1.4-5,3.4L22.1,21l-0.6-0.5C21.1,20.2,20.5,20,19.9,20z"/>
			<path class="st5" d="M13.8,19.5c-0.4-0.2-0.5-0.7-0.3-1.1l0,0c0.2-0.4,0.7-0.5,1-0.3l0,0c0.4,0.2,0.5,0.7,0.3,1.1l0,0
				c-0.2,0.2-0.4,0.4-0.7,0.4l0,0C14,19.6,13.9,19.5,13.8,19.5z M11.1,18c-0.4-0.2-0.5-0.7-0.3-1.1l0,0c0.2-0.4,0.7-0.5,1-0.3l0,0
				c0.4,0.2,0.5,0.7,0.3,1.1l0,0c-0.2,0.3-0.4,0.4-0.7,0.4l0,0C11.3,18.1,11.2,18,11.1,18z"/>
			<path class="st5" d="M25,6.5c-1.8,0-3.3-1.5-3.3-3.3S23.2,0,25,0c1.8,0,3.3,1.5,3.3,3.3S26.8,6.5,25,6.5z M25,1.5
				c-1,0-1.8,0.8-1.8,1.8S24,5,25,5c1,0,1.8-0.8,1.8-1.8C26.8,2.2,26,1.5,25,1.5z"/>
			<path class="st5" d="M5.8,39.1c-1.8,0-3.3-1.5-3.3-3.3c0-1.8,1.4-3.3,3.3-3.3s3.3,1.5,3.3,3.3C9.1,37.7,7.6,39.1,5.8,39.1z
				 M5.8,34.1c-1,0-1.8,0.8-1.8,1.8s0.8,1.8,1.8,1.8s1.8-0.8,1.8-1.8C7.6,34.9,6.7,34.1,5.8,34.1z"/>
			<path class="st5" d="M25,42.5c-0.2,0-0.4-0.1-0.5-0.2c-0.1-0.1-0.1-0.2-0.2-0.3c-0.1-0.1-0.1-0.2-0.1-0.3c0-0.1,0-0.2,0.1-0.3
				c0.1-0.1,0.1-0.2,0.2-0.3c0.3-0.3,0.9-0.3,1.1,0c0.2,0.2,0.2,0.3,0.2,0.5c0,0.1,0,0.2-0.1,0.3c-0.1,0.1-0.1,0.2-0.2,0.3
				C25.4,42.4,25.2,42.5,25,42.5z"/>
			<path class="st5" d="M24.3,38.4c0-0.4,0.3-0.8,0.7-0.8l0,0c0.4,0,0.7,0.4,0.7,0.8l0,0c0,0.4-0.3,0.7-0.7,0.7l0,0
				C24.6,39.1,24.3,38.8,24.3,38.4z"/>
			<path class="st5" d="M25,35.8c-0.2,0-0.4-0.1-0.5-0.2c-0.2-0.2-0.2-0.3-0.2-0.5c0-0.1,0-0.2,0.1-0.3c0.1-0.1,0.1-0.2,0.2-0.3
				c0.3-0.3,0.8-0.3,1.1,0c0.1,0.1,0.1,0.2,0.2,0.3c0,0.1,0.1,0.2,0.1,0.3c0,0.1,0,0.2-0.1,0.3c-0.1,0.1-0.1,0.2-0.2,0.3
				C25.4,35.7,25.2,35.8,25,35.8z"/>
			<path class="st5" d="M24.3,12.4c0-0.4,0.3-0.7,0.7-0.7l0,0c0.4,0,0.7,0.3,0.7,0.7l0,0c0,0.4-0.3,0.7-0.7,0.7l0,0
				C24.6,13.2,24.3,12.9,24.3,12.4z M24.3,9.3c0-0.4,0.3-0.7,0.7-0.7l0,0c0.4,0,0.7,0.3,0.7,0.7l0,0c0,0.4-0.3,0.7-0.7,0.7l0,0
				C24.6,10.1,24.3,9.8,24.3,9.3z"/>
			<path class="st5" d="M44.2,39.1c-1.8,0-3.3-1.5-3.3-3.3c0-1.8,1.4-3.3,3.3-3.3c1.8,0,3.3,1.5,3.3,3.3
				C47.5,37.7,46,39.1,44.2,39.1z M44.2,34.1c-1,0-1.8,0.8-1.8,1.8s0.8,1.8,1.8,1.8s1.8-0.8,1.8-1.8C45.9,34.9,45.1,34.1,44.2,34.1z
				"/>
			<path class="st5" d="M25,50c-1.8,0-3.3-1.5-3.3-3.3c0-1.8,1.4-3.3,3.3-3.3c1.8,0,3.3,1.5,3.3,3.3C28.3,48.6,26.8,50,25,50z
				 M25,45c-1,0-1.8,0.8-1.8,1.8s0.8,1.8,1.8,1.8c1,0,1.8-0.8,1.8-1.8S26,45,25,45z"/>
			<path class="st5" d="M5.8,17.4c-1.8,0-3.3-1.5-3.3-3.3s1.4-3.3,3.3-3.3s3.3,1.5,3.3,3.3S7.6,17.4,5.8,17.4z M5.8,12.4
				c-1,0-1.8,0.8-1.8,1.8s0.8,1.8,1.8,1.8s1.8-0.8,1.8-1.8C7.6,13.1,6.7,12.4,5.8,12.4z"/>
			<path class="st5" d="M44.2,17.4c-1.8,0-3.3-1.5-3.3-3.3s1.4-3.3,3.3-3.3c1.8,0,3.3,1.5,3.3,3.3S46,17.4,44.2,17.4z M44.2,12.4
				c-1,0-1.8,0.8-1.8,1.8s0.8,1.8,1.8,1.8s1.8-0.8,1.8-1.8C45.9,13.1,45.1,12.4,44.2,12.4z"/>
			<path class="st5" d="M12.8,32.7c-0.2,0-0.4-0.1-0.5-0.2c-0.2-0.2-0.2-0.3-0.2-0.5c0-0.2,0.1-0.4,0.2-0.5c0.2-0.2,0.5-0.3,0.9-0.2
				c0.1,0.1,0.2,0.1,0.3,0.2c0.2,0.2,0.2,0.3,0.2,0.5c0,0.2-0.1,0.4-0.2,0.5C13.2,32.6,13,32.7,12.8,32.7z"/>
			<path class="st5" d="M10.5,34c-0.2,0-0.4-0.1-0.5-0.2c-0.2-0.2-0.2-0.4-0.2-0.5c0-0.1,0-0.2,0.1-0.3c0-0.1,0.1-0.2,0.2-0.3
				c0.2-0.2,0.5-0.3,0.9-0.2c0.1,0.1,0.2,0.1,0.3,0.2c0.1,0.1,0.1,0.2,0.2,0.3c0.1,0.1,0.1,0.2,0.1,0.3c0,0.2-0.1,0.4-0.2,0.5
				C10.9,33.9,10.7,34,10.5,34z"/>
			<path class="st5" d="M35.5,19c-0.2-0.4-0.1-0.9,0.3-1.1l0,0c0.4-0.2,0.9-0.1,1,0.3l0,0c0.2,0.4,0.1,0.9-0.3,1.1l0,0
				c-0.1,0.1-0.3,0.1-0.4,0.1l0,0C35.9,19.4,35.6,19.3,35.5,19z M38.1,17.5c-0.2-0.4-0.1-0.9,0.3-1.1l0,0c0.4-0.2,0.9-0.1,1,0.3l0,0
				c0.2,0.4,0.1,0.9-0.3,1.1l0,0c-0.2,0.1-0.3,0.1-0.4,0.1l0,0C38.6,17.9,38.3,17.8,38.1,17.5z"/>
			<path class="st5" d="M37.2,32.7c-0.2,0-0.4-0.1-0.5-0.2c-0.2-0.2-0.2-0.3-0.2-0.5c0-0.1,0-0.2,0.1-0.3c0.1-0.1,0.1-0.2,0.2-0.3
				c0.1-0.1,0.2-0.1,0.3-0.2c0.3-0.1,0.6-0.1,0.9,0.2c0.2,0.2,0.2,0.3,0.2,0.5s-0.1,0.4-0.2,0.5c-0.1,0.1-0.2,0.2-0.3,0.2
				C37.4,32.6,37.3,32.7,37.2,32.7z"/>
			<path class="st5" d="M39.5,34c-0.2,0-0.4-0.1-0.5-0.2c-0.2-0.2-0.2-0.4-0.2-0.5c0-0.1,0-0.2,0.1-0.3c0.1-0.1,0.1-0.2,0.2-0.3
				c0.2-0.2,0.5-0.3,0.9-0.2c0.1,0.1,0.2,0.1,0.3,0.2c0.1,0.1,0.2,0.2,0.2,0.3c0.1,0.1,0.1,0.2,0.1,0.3c0,0.2-0.1,0.4-0.2,0.5
				C39.9,33.9,39.7,34,39.5,34z"/>
		</g>
	</g>
</g>
</svg>
