<?xml version="1.0" encoding="utf-8"?>
<!-- Generator: Adobe Illustrator 26.0.3, SVG Export Plug-In . SVG Version: 6.00 Build 0)  -->
<svg version="1.1" xmlns="http://www.w3.org/2000/svg" xmlns:xlink="http://www.w3.org/1999/xlink" x="0px" y="0px"
	 viewBox="0 0 50 50" style="enable-background:new 0 0 50 50;" xml:space="preserve">
<style type="text/css">
	.st0{fill:none;}
	.st1{fill:#FCAF1A;}
	.st2{font-family:'Roboto-Regular';}
	.st3{font-size:6px;}
	.st4{fill:#592C82;}
	.st5{fill:#602B7D;}
	.st6{fill:#5A2A82;}
	.st7{fill:none;stroke:#602B7D;stroke-width:1.2262;stroke-linecap:round;stroke-miterlimit:10;}
	.st8{fill:none;stroke:#602B7D;stroke-width:1.5941;stroke-linecap:round;stroke-linejoin:round;stroke-miterlimit:10;}
	.st9{display:none;}
	.st10{display:inline;}
	.st11{display:inline;fill:#5A2A82;}
	.st12{display:none;fill:#602B7D;}
	.st13{fill:none;stroke:#5A2A82;stroke-miterlimit:10;}
	.st14{fill:none;stroke:#5A2A82;stroke-width:2;stroke-miterlimit:10;}
</style>
<g id="Title__x26__Guide">
</g>
<g id="Icons">
	<g>
		<rect x="7.6" y="34.4" transform="matrix(0.7071 -0.7071 0.7071 0.7071 -20.9307 19.3029)" class="st5" width="10.5" height="1"/>
		<rect x="12.3" y="9.8" transform="matrix(0.7072 -0.707 0.707 0.7072 -6.905 13.4906)" class="st5" width="1" height="10.5"/>
		<rect x="36.6" y="29.7" transform="matrix(0.707 -0.7072 0.7072 0.707 -13.8042 36.5141)" class="st5" width="1" height="10.5"/>
		<rect x="31.9" y="14.6" transform="matrix(0.7071 -0.7071 0.7071 0.7071 0.221 30.6975)" class="st5" width="10.5" height="1"/>
		<path class="st5" d="M25.1,35.9c-6,0-10.9-4.9-10.9-10.9s4.9-10.9,10.9-10.9C31.1,14.1,36,19,36,25S31.1,35.9,25.1,35.9z
			 M25.1,15.2c-5.4,0-9.8,4.4-9.8,9.8s4.4,9.8,9.8,9.8c5.4,0,9.8-4.4,9.8-9.8S30.5,15.2,25.1,15.2z"/>
		<path class="st5" d="M25.9,35.8l-0.2-0.1c-1.8-1.2-3.3-2.9-4.3-4.8l-0.2-0.5l0.5-0.2c0.2-0.1,0.4-0.4,0.4-0.6
			c0-0.4-0.3-0.7-0.7-0.7c-0.1,0-0.1,0-0.2,0L20.7,29l-0.1-0.5c-0.3-1.2-0.5-2.3-0.5-3.5c0-1.2,0.2-2.4,0.5-3.5l0.1-0.5l0.5,0.2
			c0.1,0,0.1,0,0.2,0c0.4,0,0.7-0.3,0.7-0.7c0-0.3-0.2-0.5-0.4-0.6l-0.5-0.2l0.2-0.5c1-1.9,2.5-3.6,4.3-4.8l0.2-0.1l0.2,0
			C31.7,14.7,36,19.3,36,25c0,5.7-4.3,10.3-9.9,10.8L25.9,35.8z M22.6,30.8c0.9,1.6,2.1,2.9,3.6,3.9c5-0.5,8.7-4.7,8.7-9.8
			c0-5.1-3.7-9.2-8.7-9.8c-1.5,1-2.7,2.4-3.6,3.9c0.3,0.3,0.5,0.8,0.5,1.3c0,1-0.8,1.7-1.7,1.8c-0.2,0.9-0.3,1.9-0.3,2.8
			c0,0.9,0.1,1.9,0.3,2.8c1,0,1.7,0.8,1.7,1.8C23.2,30,23,30.5,22.6,30.8z"/>
		<path class="st5" d="M20.7,30.1h-0.5c-1.7,0-3.4-0.3-4.9-1L15,29l-0.1-0.2c-0.5-1.2-0.7-2.5-0.7-3.8c0-6,4.9-10.9,10.9-10.9
			c3,0,5.7,1.2,7.8,3.3l0.2,0.2l0,0.2c-0.1,2.2-0.8,4.4-2.1,6.3l-0.2,0.4l-0.4-0.2c-0.5-0.2-1,0.2-1,0.7c0,0.2,0.1,0.3,0.1,0.4
			l0.3,0.4l-0.3,0.3c-1.8,1.9-4.2,3.2-6.8,3.7l-0.5,0.1l-0.1-0.5c-0.1-0.3-0.4-0.6-0.7-0.6c-0.4,0-0.7,0.3-0.7,0.7V30.1z M15.8,28.2
			c1.2,0.5,2.5,0.8,3.9,0.8c0.2-0.7,0.9-1.2,1.7-1.2c0.7,0,1.2,0.4,1.5,0.9c2.1-0.5,4-1.5,5.5-3.1c-0.1-0.2-0.1-0.4-0.1-0.6
			c0-1.1,1-1.9,2-1.7c1-1.6,1.5-3.4,1.7-5.2c-1.9-1.8-4.3-2.8-6.9-2.8c-5.4,0-9.8,4.4-9.8,9.8C15.3,26.1,15.5,27.2,15.8,28.2z"/>
		<path class="st5" d="M25.1,35.9c-6,0-10.9-4.9-10.9-10.9c0-1.3,0.2-2.6,0.7-3.8L15,21l0.2-0.1c1.6-0.6,3.2-1,4.9-1h0.5v0.5
			c0,0.4,0.3,0.7,0.7,0.7c0.3,0,0.6-0.2,0.7-0.6l0.1-0.5l0.5,0.1c2.6,0.5,4.9,1.8,6.8,3.7l0.3,0.3l-0.3,0.4
			c-0.1,0.1-0.1,0.2-0.1,0.4c0,0.5,0.5,0.9,1,0.7l0.4-0.2l0.2,0.4c1.2,1.9,1.9,4.1,2,6.3l0,0.2l-0.2,0.2
			C30.9,34.7,28.1,35.9,25.1,35.9z M15.8,21.8c-0.4,1-0.5,2.1-0.5,3.2c0,5.4,4.4,9.8,9.8,9.8c2.6,0,5-1,6.9-2.8
			c-0.1-1.9-0.7-3.7-1.7-5.2c-1,0.1-2-0.7-2-1.7c0-0.2,0-0.4,0.1-0.7c-1.5-1.5-3.4-2.5-5.5-3c-0.3,0.5-0.9,0.9-1.5,0.9
			c-0.8,0-1.5-0.5-1.7-1.2C18.4,21,17.1,21.3,15.8,21.8z"/>
		<path class="st5" d="M21.4,22.2c-1,0-1.8-0.8-1.8-1.8c0-1,0.8-1.8,1.8-1.8c1,0,1.8,0.8,1.8,1.8C23.2,21.4,22.4,22.2,21.4,22.2z
			 M21.4,19.7c-0.4,0-0.7,0.3-0.7,0.7s0.3,0.7,0.7,0.7s0.7-0.3,0.7-0.7S21.8,19.7,21.4,19.7z"/>
		<path class="st5" d="M21.4,31.3c-1,0-1.8-0.8-1.8-1.8c0-1,0.8-1.8,1.8-1.8c1,0,1.8,0.8,1.8,1.8C23.2,30.5,22.4,31.3,21.4,31.3z
			 M21.4,28.8c-0.4,0-0.7,0.3-0.7,0.7s0.3,0.7,0.7,0.7s0.7-0.3,0.7-0.7S21.8,28.8,21.4,28.8z"/>
		<path class="st5" d="M30.1,26.8c-1,0-1.8-0.8-1.8-1.8c0-1,0.8-1.8,1.8-1.8c1,0,1.8,0.8,1.8,1.8C31.9,26,31.1,26.8,30.1,26.8z
			 M30.1,24.3c-0.4,0-0.7,0.3-0.7,0.7s0.3,0.7,0.7,0.7s0.7-0.3,0.7-0.7S30.5,24.3,30.1,24.3z"/>
		<path class="st5" d="M5.6,47.7c-3.1,0-5.6-2.5-5.6-5.6s2.5-5.6,5.6-5.6s5.6,2.5,5.6,5.6S8.7,47.7,5.6,47.7z M5.6,37.9
			c-2.3,0-4.2,1.9-4.2,4.2s1.9,4.2,4.2,4.2s4.2-1.9,4.2-4.2S7.9,37.9,5.6,37.9z"/>
		<path class="st5" d="M5.6,13.4c-3.1,0-5.6-2.5-5.6-5.6s2.5-5.6,5.6-5.6s5.6,2.5,5.6,5.6S8.7,13.4,5.6,13.4z M5.6,3.7
			c-2.3,0-4.2,1.9-4.2,4.2s1.9,4.2,4.2,4.2s4.2-1.9,4.2-4.2S7.9,3.7,5.6,3.7z"/>
		<path class="st5" d="M44.4,47.7c-3.1,0-5.6-2.5-5.6-5.6s2.5-5.6,5.6-5.6s5.6,2.5,5.6,5.6S47.4,47.7,44.4,47.7z M44.4,37.9
			c-2.3,0-4.2,1.9-4.2,4.2s1.9,4.2,4.2,4.2s4.2-1.9,4.2-4.2S46.7,37.9,44.4,37.9z"/>
		<path class="st5" d="M44.4,13.4c-3.1,0-5.6-2.5-5.6-5.6s2.5-5.6,5.6-5.6s5.6,2.5,5.6,5.6S47.4,13.4,44.4,13.4z M44.4,3.7
			c-2.3,0-4.2,1.9-4.2,4.2s1.9,4.2,4.2,4.2s4.2-1.9,4.2-4.2S46.7,3.7,44.4,3.7z"/>
	</g>
</g>
</svg>
