<?xml version="1.0" encoding="utf-8"?>
<!-- Generator: Adobe Illustrator 26.0.3, SVG Export Plug-In . SVG Version: 6.00 Build 0)  -->
<svg version="1.1" id="Layer_1" xmlns="http://www.w3.org/2000/svg" xmlns:xlink="http://www.w3.org/1999/xlink" x="0px" y="0px"
	 viewBox="0 0 50 50" style="enable-background:new 0 0 50 50;" xml:space="preserve">
<style type="text/css">
	.st0{fill:#602B7D;}
</style>
<g id="Title__x26__Guide">
</g>
<g>
	<path class="st0" d="M49.7,20.7h-2.2v-5.1c0-0.8-0.6-1.4-1.4-1.4H33.2l-0.4,1.6H45c0.5,0,0.7,0.2,0.7,0.7v20.6c0,0.5-0.2,1-0.8,1
		H25l-1.5,1.6h22.7c0.8,0,1.4-0.6,1.4-1.4V33h2.2L49.7,20.7z"/>
	<path class="st0" d="M18.5,38.1H2.7c-0.5,0-0.7-0.5-0.7-1V16.6c0-0.5,0.3-0.8,0.8-0.8l21.1,0.1H24l1.3-1.7H1.6
		c-0.8,0-1.4,0.6-1.4,1.4v22.7c0,0.8,0.6,1.4,1.4,1.4H18L18.5,38.1z"/>
	<path class="st0" d="M12.4,17.4v19.2c0,0.5,0.3,1,0.7,1h5.1l3.7-11.5l-6.2,0.1l7.8-9.8H13.1C12.7,16.4,12.4,16.9,12.4,17.4z
		 M21.5,17.4L14.7,26c-0.2,0.2-0.2,0.6,0,0.8c0.1,0.3,0.4,0.4,0.7,0.4l5.3-0.1l-3.1,9.5h-4.1l-0.1-19.2H21.5z"/>
	<path class="st0" d="M29.3,24.3l5.2-20.6l-17,21.9l5.7-0.1l-6.6,20.9l19.9-21.9L29.3,24.3z M24.5,24.4l-5,0.1L32.4,8L28,25.3
		l6.2,0.1l-15.4,17L24.5,24.4z"/>
	<path class="st0" d="M3.3,16.4c-0.4,0-0.8,0.3-0.8,0.8v19.6c0,0.4,0.3,0.8,0.8,0.8h7.4c0.4,0,0.8-0.3,0.8-0.8V17.2
		c0-0.4-0.3-0.8-0.8-0.8H3.3z M10.5,36.7h-7V17.4h7V36.7z"/>
	<path class="st0" d="M31.9,19.2l-1,4c0,0.2,0,0.3,0.1,0.4c0.1,0.1,0.2,0.2,0.4,0.2l2.9,0.1l1,0v-1v-5.7c0-0.4-0.3-0.8-0.8-0.8h-0.8
		h-1l-0.2,1L31.9,19L31.9,19.2z M33.4,17.3h0.9v5.5L32,22.8L33.4,17.3z"/>
	<path class="st0" d="M26.3,36.9c0.1,0.3,0.4,0.6,0.8,0.6h0h7.4c0.4,0,0.8-0.3,0.8-0.8v-8.2V27l-1,1.1l-7,7.7L26.3,36.9z M34.3,29.7
		v7H28L34.3,29.7z"/>
	<path class="st0" d="M36.1,26.2v1.5v9.2c0,0.4,0.3,0.8,0.8,0.8h7.4c0.4,0,0.8-0.3,0.8-0.8V17.2c0-0.4-0.3-0.8-0.8-0.8h-7.4
		c-0.4,0-0.8,0.3-0.8,0.8v5.7v1l1,0l1,0l-1,1.1L36.1,26.2z M39.6,23.8c0.1-0.1,0.2-0.4,0.1-0.5c-0.1-0.2-0.2-0.3-0.5-0.3l-2.1-0.1
		v-5.5h7v19.3h-7V26.6L39.6,23.8z"/>
</g>
</svg>
