<?xml version="1.0" encoding="utf-8"?>
<!-- Generator: Adobe Illustrator 26.0.3, SVG Export Plug-In . SVG Version: 6.00 Build 0)  -->
<svg version="1.1" xmlns="http://www.w3.org/2000/svg" xmlns:xlink="http://www.w3.org/1999/xlink" x="0px" y="0px"
	 viewBox="0 0 50 50" style="enable-background:new 0 0 50 50;" xml:space="preserve">
<style type="text/css">
	.st0{fill:none;}
	.st1{fill:#FCAF1A;}
	.st2{font-family:'Roboto-Regular';}
	.st3{font-size:6px;}
	.st4{fill:#592C82;}
	.st5{fill:#602B7D;}
	.st6{fill:#5A2A82;}
	.st7{fill:none;stroke:#602B7D;stroke-width:1.2262;stroke-linecap:round;stroke-miterlimit:10;}
	.st8{fill:none;stroke:#602B7D;stroke-width:1.5941;stroke-linecap:round;stroke-linejoin:round;stroke-miterlimit:10;}
	.st9{display:none;}
	.st10{display:inline;}
	.st11{display:inline;fill:#5A2A82;}
	.st12{display:none;fill:#602B7D;}
	.st13{fill:none;stroke:#5A2A82;stroke-miterlimit:10;}
	.st14{fill:none;stroke:#5A2A82;stroke-width:2;stroke-miterlimit:10;}
</style>
<g id="Title__x26__Guide">
</g>
<g id="Icons">
	<path class="st6" d="M49.9,26.1c0-1.6-0.6-3.1-1.7-4.3c0,0,0,0,0,0c0-0.2,0.1-0.4,0.1-0.6c0,0,0-0.1,0-0.1c0-0.2,0-0.4,0-0.5
		c0,0,0,0,0,0c0-0.4,0-0.7-0.1-1.1c0-0.1-0.1-0.2-0.1-0.3c-0.1-0.2-0.1-0.4-0.2-0.7c0-0.1-0.1-0.2-0.2-0.3c-0.1-0.2-0.2-0.4-0.3-0.5
		c-0.1-0.1-0.2-0.2-0.3-0.3c-0.1-0.1-0.1-0.2-0.2-0.3c0.1-0.3,0.1-0.5,0.1-0.6c0-3.6-2.9-6.5-6.5-6.5c-0.3,0-0.5,0-0.7,0
		c-0.7-2.1-2.6-3.6-4.9-3.6c-1,0-2.1,0.4-2.9,1c-1.1-1.6-3-2.6-5.1-2.6c0,0,0,0,0,0c0,0,0,0,0,0c-1.8,0-3.6,0.8-4.7,2.2
		c-1.1-0.8-2.2-1.2-3.3-1.2c-1.9,0-3.9,1.3-4.7,3.2c-1.9,0.2-3.6,1.9-3.8,3.9C9,13,7.7,14,7.1,15.4c-1.4,0.1-2.6,0.6-3.7,1.3
		c0,0,0,0-0.1,0c-2,1.4-3.3,3.7-3.3,6.4c0,3.1,1.9,5.9,4.8,7c1.1,2.1,3.3,3.5,5.8,3.5c1.4,0,2.7-0.4,3.7-1.2c1.1,2.9,3.8,4.7,7,4.7
		c1.7,0,3.1-0.4,4.3-1.2c0.1,3.4,2.7,6,6.1,6c2.8,0,4.2,2.5,4.5,3.1c0.1,0.2,0.3,0.3,0.5,0.3h2.6c0.2,0,0.4-0.1,0.5-0.3
		c0.1-0.2,0.1-0.4-0.1-0.6c-1.2-1.5-1.4-3.7-1-4.9c0.2,0,0.5-0.1,0.8-0.2c1-0.2,1.9-0.7,2.7-1.6c0.2,0,0.3,0,0.5-0.1
		c0.2,0,0.3,0,0.5-0.1c0.2,0,0.3-0.1,0.5-0.2c0.1,0,0.3-0.1,0.4-0.1c0.2-0.1,0.3-0.2,0.4-0.2c0.1-0.1,0.3-0.1,0.4-0.2
		c0.1-0.1,0.3-0.2,0.4-0.3c0.1-0.1,0.2-0.2,0.4-0.3c0.1-0.1,0.2-0.3,0.3-0.4c0.1-0.1,0.2-0.2,0.3-0.3c0.1-0.1,0.2-0.3,0.3-0.5
		c0.1-0.1,0.1-0.2,0.2-0.4c0.1-0.2,0.1-0.4,0.2-0.6c0-0.1,0.1-0.2,0.1-0.3c0.1-0.3,0.1-0.7,0.1-1c0-0.2,0-0.4-0.1-0.5
		c0-0.1,0-0.1,0-0.2c0-0.1-0.1-0.3-0.1-0.4c0,0,0,0,0-0.1C48.8,30.4,49.9,28.3,49.9,26.1z M46.9,18.8C46.9,18.9,46.9,18.9,46.9,18.8
		c0.1,0.3,0.2,0.5,0.2,0.7c0,0.1,0,0.1,0,0.2c0,0.3,0.1,0.5,0.1,0.8c0,0,0,0,0,0c0,0,0,0,0,0c0,0.1,0,0.3,0,0.4
		c-0.4-0.3-0.9-0.6-1.5-0.8c0.4-0.5,0.7-1.1,0.9-1.8C46.8,18.5,46.9,18.7,46.9,18.8z M45.9,33.4c0,0.1,0,0.2-0.1,0.2
		c0,0.2-0.1,0.3-0.1,0.5c0,0.1-0.1,0.2-0.1,0.2c-0.1,0.1-0.1,0.3-0.2,0.4c0,0.1-0.1,0.2-0.2,0.2c-0.1,0.1-0.2,0.2-0.3,0.3
		c-0.1,0.1-0.1,0.1-0.2,0.2c-0.1,0.1-0.2,0.2-0.4,0.3c-0.1,0-0.1,0.1-0.2,0.1c-0.2,0.1-0.4,0.3-0.6,0.3c0,0,0,0,0,0
		c-0.2,0.1-0.4,0.1-0.6,0.2c0.3-0.6,0.5-1.3,0.5-2.1c0-0.3,0-0.7-0.1-1c0,0,0-0.1,0-0.1c-0.1-0.3-0.1-0.5-0.2-0.8
		c0.9,0.1,1.9-0.1,2.9-0.5c0,0,0,0,0,0c0,0,0,0,0,0c0.1,0.2,0.1,0.4,0.1,0.6C46,32.9,45.9,33.2,45.9,33.4z M46,30.8
		C46,30.8,45.9,30.8,46,30.8C45.9,30.8,45.9,30.8,46,30.8c-1,0.6-2.1,0.8-3.1,0.7c-0.2,0-0.4-0.1-0.6-0.1c-0.9-1.1-2.2-1.9-3.7-1.9
		L37.1,28c-0.1-0.1-0.2-0.2-0.4-0.2H33c-0.2-0.5-0.7-0.8-1.2-0.8c-0.8,0-1.3,0.6-1.3,1.3s0.6,1.3,1.3,1.3c0.5,0,1-0.3,1.2-0.8h3.5
		l1.4,1.4c0.1,0.1,0.2,0.2,0.4,0.2c1.6,0,3,1,3.6,2.4c0,0,0,0,0,0.1c0.1,0.2,0.1,0.4,0.2,0.6c0,0.1,0,0.1,0,0.2
		c0,0.2,0.1,0.5,0.1,0.7c0,0,0,0,0,0c0,0.9-0.3,1.7-0.8,2.4c-0.7,0.8-1.4,1.3-2.2,1.4c-0.1,0-0.1,0-0.2,0.1
		c-0.2,0.1-0.4,0.1-0.7,0.1c-0.2,0-0.4,0.1-0.5,0.3c-0.6,1.3-0.6,3.6,0.4,5.5h-1.2c-0.6-1-2.2-3.4-5.3-3.4c-2.8,0-5.1-2.2-5.1-5.1
		V35l1.9,1.8c0.1,0.1,0.2,0.1,0.4,0.1h3.6c0.2,0.5,0.7,0.9,1.2,0.9c0.7,0,1.3-0.6,1.3-1.4c0-0.6-0.6-1.3-1.3-1.3
		c-0.5,0-1,0.3-1.2,0.7h-3.4l-2.7-2.6c0,0,0,0,0,0l-2.7-2.7c-0.1-0.1-0.2-0.2-0.4-0.2h-5.2c-0.2-0.5-0.7-0.8-1.2-0.8
		c-0.8,0-1.3,0.6-1.3,1.3c0,0.6,0.6,1.3,1.3,1.3c0.5,0,1-0.4,1.2-0.8h5l2.7,2.7c0,0,0,0-0.1,0c-1,1.1-2.5,1.7-4.4,1.7
		c-3,0-5.5-1.9-6.2-4.7c0-0.2-0.2-0.3-0.4-0.4c-0.2,0-0.4,0-0.5,0.1c-1.2,1.2-2.6,1.4-3.6,1.4c-1.7,0-3.3-0.7-4.3-2l1.2,0.2
		c0,0,0.1,0,0.1,0c0.1,0,0.3-0.1,0.4-0.2l2.2-2.4h3.2c0.2,0.5,0.7,0.8,1.2,0.8c0.8,0,1.3-0.6,1.3-1.3c0-0.8-0.6-1.3-1.3-1.3
		c-0.5,0-1,0.3-1.2,0.8H10c-0.2,0-0.3,0.1-0.4,0.2l-2.2,2.3l-1.9-0.3c0,0-0.1-0.1-0.1-0.1c-2.6-0.9-4.3-3.3-4.3-6c0-2.1,1-4,2.5-5.2
		l7.8,7.8c0.1,0.1,0.2,0.2,0.4,0.2h8c0.2,0.5,0.7,0.8,1.2,0.8c0.8,0,1.3-0.6,1.3-1.3S21.9,24,21.1,24c-0.6,0-1,0.3-1.2,0.8H12
		l-7.5-7.5c0.9-0.5,1.9-0.8,3-0.9c0.2,0,0.4-0.2,0.5-0.4c0.4-1.3,1.7-2.2,3-2.2c0,0,0.1,0,0.1,0c0.9,0,1.8,0.3,2.4,1l1.6,1.6
		c0.1,0.1,0.2,0.2,0.4,0.2h3c0.2,0.4,0.7,0.8,1.2,0.8c0.8,0,1.3-0.7,1.3-1.3c0-0.8-0.6-1.3-1.3-1.3c-0.6,0-1,0.3-1.2,0.8h-2.7
		l-1.4-1.4c-0.7-0.7-1.7-1.1-2.7-1.2c0.2-1.5,1.6-2.8,3.1-2.8c0.2,0,0.4-0.1,0.5-0.4C15.8,8,17.4,6.8,19,6.8c1,0,2,0.4,3,1.3
		c0.1,0.1,0.3,0.1,0.4,0.1c0.2,0,0.3-0.1,0.4-0.2c0.9-1.3,2.5-2.2,4.2-2.2c0,0,0,0,0,0c0.3,0,0.6,0,0.9,0.1C28,6,28.1,6,28.2,6
		c0.1,0,0.2,0.1,0.4,0.1c0.3,0.1,0.6,0.2,0.9,0.4c0.1,0,0.1,0.1,0.2,0.1c0.1,0.1,0.3,0.2,0.4,0.3c0.1,0.1,0.2,0.2,0.3,0.3
		c0.1,0.1,0.2,0.2,0.3,0.2c0.2,0.2,0.3,0.4,0.5,0.6c0.1,0.2,0.2,0.3,0.3,0.5c0,0,0,0,0,0c0.4,0.7,0.8,1.6,0.9,2.6l-2.1,2.1h-2.4
		c-0.2-0.5-0.7-0.8-1.2-0.8c-0.8,0-1.3,0.6-1.3,1.3s0.6,1.3,1.3,1.3c0.6,0,1-0.3,1.2-0.8h2.6c0.1,0,0.3-0.1,0.4-0.2l2.4-2.4
		c0.1-0.1,0.2-0.2,0.2-0.4c0-1.1-0.3-2.1-0.8-2.9c0.7-0.5,1.5-0.8,2.3-0.8c1.7,0,3.2,1.1,3.8,2.7c-2.7,0.8-4.6,3.3-4.6,6.2
		c0,0.3,0.2,0.5,0.5,0.5c0.3,0,0.5-0.2,0.5-0.5c0-2.6,1.8-4.7,4.2-5.2c0.1,0,0.2,0,0.3,0c0,0,0,0,0,0c0.3,0,0.5-0.1,0.8-0.1h0
		c3,0,5.4,2.4,5.4,5.4c0,0.1,0,0.4-0.1,0.6c0,0.1,0,0.1-0.1,0.2c0,0,0,0,0,0c-0.2,1.3-0.6,2.2-1.4,2.8c0,0,0,0,0,0c0,0,0,0,0,0
		l-1.4,1.4h-4c-0.2-0.4-0.6-0.7-1.2-0.7c-0.8,0-1.3,0.7-1.3,1.3c0,0.8,0.6,1.4,1.3,1.4c0.6,0,1-0.4,1.2-0.9h4.2
		c0.1,0,0.3-0.1,0.4-0.2l1.4-1.4c1,0.3,1.7,0.8,2.4,1.4c0,0,0,0,0,0c1,1,1.6,2.4,1.6,3.8C48.9,28.1,47.7,29.9,46,30.8z M32.1,28.4
		c0,0.1-0.2,0.3-0.3,0.3c-0.2,0-0.3-0.1-0.3-0.3c0-0.2,0.1-0.3,0.3-0.3C31.9,28.1,32.1,28.2,32.1,28.4z M33.8,36.2
		c0.1,0,0.2,0.1,0.3,0.2c0,0.1-0.1,0.3-0.3,0.3c-0.2,0-0.3-0.2-0.3-0.3C33.5,36.4,33.6,36.2,33.8,36.2z M16.9,31.2
		c-0.1,0-0.3-0.2-0.3-0.3c0-0.2,0.1-0.3,0.3-0.3c0.2,0,0.3,0.1,0.3,0.3C17.2,31,17.1,31.2,16.9,31.2z M14.4,27.6
		c0-0.1,0.2-0.3,0.3-0.3c0.2,0,0.3,0.1,0.3,0.3c0,0.2-0.1,0.3-0.3,0.3C14.6,27.8,14.4,27.7,14.4,27.6z M20.8,25.3
		c0-0.2,0.1-0.3,0.3-0.3c0.2,0,0.3,0.1,0.3,0.3C21.3,25.7,20.8,25.7,20.8,25.3z M19.4,16c0-0.2,0.1-0.3,0.3-0.3
		c0.2,0,0.3,0.1,0.3,0.3c0,0.1-0.1,0.3-0.3,0.3C19.5,16.3,19.4,16.1,19.4,16z M26.9,13.6c0,0.4-0.5,0.4-0.5,0c0-0.2,0.1-0.3,0.3-0.3
		C26.9,13.4,26.9,13.5,26.9,13.6z M38,22c0,0.1-0.1,0.3-0.3,0.3c-0.2,0-0.3-0.2-0.3-0.3c0,0,0.1-0.2,0.3-0.2
		C37.9,21.8,38,21.9,38,22z"/>
</g>
</svg>
