<?xml version="1.0" encoding="utf-8"?>
<!-- Generator: Adobe Illustrator 26.0.3, SVG Export Plug-In . SVG Version: 6.00 Build 0)  -->
<svg version="1.1" xmlns="http://www.w3.org/2000/svg" xmlns:xlink="http://www.w3.org/1999/xlink" x="0px" y="0px"
	 viewBox="0 0 50 50" style="enable-background:new 0 0 50 50;" xml:space="preserve">
<style type="text/css">
	.st0{fill:none;}
	.st1{fill:#FCAF1A;}
	.st2{font-family:'Roboto-Regular';}
	.st3{font-size:6px;}
	.st4{fill:#592C82;}
	.st5{fill:#602B7D;}
	.st6{fill:#5A2A82;}
	.st7{fill:none;stroke:#602B7D;stroke-width:1.2262;stroke-linecap:round;stroke-miterlimit:10;}
	.st8{fill:none;stroke:#602B7D;stroke-width:1.5941;stroke-linecap:round;stroke-linejoin:round;stroke-miterlimit:10;}
	.st9{display:none;}
	.st10{display:inline;}
	.st11{display:inline;fill:#5A2A82;}
	.st12{display:none;fill:#602B7D;}
	.st13{fill:none;stroke:#5A2A82;stroke-miterlimit:10;}
	.st14{fill:none;stroke:#5A2A82;stroke-width:2;stroke-miterlimit:10;}
</style>
<g id="Title__x26__Guide">
</g>
<g id="Icons">
	<path class="st12" d="M38.4,25.9c0-0.1,0-0.1,0-0.2c0,0,0,0,0,0c0-0.1-0.1-0.1-0.1-0.2l-3.7-2.8V10.3c0-0.2-0.1-0.4-0.3-0.4
		l-2.7-1.5c-0.1-0.1-0.3-0.1-0.4,0l-2.1,0.6l-6.9-3.7c-0.1-0.1-0.2-0.1-0.3-0.1l-4.8,0.7c0,0,0,0,0,0c0,0-0.1,0-0.1,0
		c0,0-0.1,0-0.1,0c0,0,0,0-0.1,0c0,0-0.1,0.1-0.1,0.1c0,0,0,0,0,0c0,0,0,0,0,0c0,0,0,0.1,0,0.1c0,0,0,0.1,0,0.1c0,0,0,0,0,0v5.6
		l-1.9,0.6c0,0,0,0-0.1,0c0,0,0,0,0,0c0,0,0,0,0,0c-0.1,0-0.1,0.1-0.2,0.1c0,0,0,0,0,0c0,0.1-0.1,0.1-0.1,0.2c0,0,0,0,0,0v8.4
		l-2.5,0.8c0,0,0,0,0,0c0,0,0,0,0,0c0,0,0,0,0,0c-0.1,0-0.1,0.1-0.2,0.1c0,0,0,0,0,0c0,0.1-0.1,0.2-0.1,0.2c0,0,0,0,0,0V28
		c0,0,0,0,0,0v6.1c0,0.1,0,0.2,0.1,0.3l9.4,10.4c0,0,0,0,0.1,0c0,0,0,0,0,0c0,0,0,0,0,0c0.1,0,0.2,0.1,0.2,0.1c0.1,0,0.1,0,0.2,0
		c0,0,0,0,0,0c0,0,0,0,0,0L38.1,38c0.2-0.1,0.3-0.3,0.3-0.5L38.4,25.9C38.4,25.9,38.4,25.9,38.4,25.9z M20.8,11.7l2.1,1.4v12.5
		l-5.2,1.5V14.5c0-0.2-0.1-0.3-0.2-0.4l-1.4-1L20.8,11.7z M23.3,26.7l3.2,2.9l-4.9,1.8l-3.3-3.2L23.3,26.7z M15.4,13.8l1.3,0.9v11.8
		l-1.3-1.3V13.8z M17.8,28.9l3.2,3.2v4.3l-3.2-3.3V28.9z M22,32.3l15.4-5.6v4.4L22,36.9V32.3z M33.1,25.1l-1.3-0.9l2.2-0.8l2.9,2.3
		l-3.5,1.3v-1.5C33.3,25.4,33.2,25.2,33.1,25.1z M31.3,9.3l2.3,1.3v11.9l-1.8,0.7V10.6c0,0,0,0,0,0c0,0,0,0,0-0.1c0,0,0-0.1,0-0.1
		c0,0,0,0,0-0.1c0-0.1-0.1-0.1-0.2-0.2c0,0,0,0,0,0l-1.1-0.6L31.3,9.3z M21.9,6.1l6.9,3.8c0,0,0,0,0,0l0.9,0.5l-3.2,0.7l-7.8-4.5
		L21.9,6.1z M30.7,11.3v12.9l-3.8,1.1V12.1L30.7,11.3z M17.8,7.2l8.1,4.7v14.1c0,0.2,0.1,0.3,0.2,0.4c0.1,0.1,0.2,0.1,0.3,0.1
		c0,0,0.1,0,0.1,0l4.6-1.3l1.2,0.8v1.6l-4.7,1.7L24,25.9v-13c0-0.2-0.1-0.3-0.2-0.4l-2.6-1.7c-0.1-0.1-0.3-0.1-0.4-0.1l-3,0.9V7.2z
		 M14.4,24.2L13,22.8l1.4-0.5V24.2z M12.6,23.8l1.8,1.8v4.1l-1.8-1.9V23.8z M12.6,29.3l2,2c0.1,0.1,0.4,0.2,0.6,0.1
		c0.2-0.1,0.3-0.3,0.3-0.5v-4.4l1.3,1.3v5.4c0,0.1,0.1,0.3,0.1,0.4l4.1,4.2v5.3l-8.4-9.3V29.3z M22,43.7V38l15.4-5.9v5.1L22,43.7z"
		/>
	<g class="st9">
		<g class="st10">
			<path class="st6" d="M29.6,29.5c-0.3,0-0.5-0.2-0.5-0.4V17.9c0-0.2,0.2-0.4,0.5-0.4s0.5,0.2,0.5,0.4v11.3
				C30.1,29.4,29.9,29.5,29.6,29.5z"/>
			<path class="st6" d="M25,29.5c-0.3,0-0.5-0.2-0.5-0.4V17.9c0-0.2,0.2-0.4,0.5-0.4s0.5,0.2,0.5,0.4v11.3
				C25.5,29.4,25.3,29.5,25,29.5z"/>
			<path class="st6" d="M20.4,29.5c-0.3,0-0.5-0.2-0.5-0.4V17.9c0-0.2,0.2-0.4,0.5-0.4c0.3,0,0.5,0.2,0.5,0.4v11.3
				C20.9,29.4,20.6,29.5,20.4,29.5z"/>
			<path class="st6" d="M25,11.1c-1.2,0-2.2-1-2.2-2.3c0-1.2,1-2.2,2.2-2.2c1.2,0,2.2,1,2.2,2.2C27.2,10,26.2,11.1,25,11.1z M25,7.6
				c-0.7,0-1.2,0.6-1.2,1.2c0,0.7,0.5,1.3,1.2,1.3c0.6,0,1.2-0.6,1.2-1.3C26.2,8.2,25.7,7.6,25,7.6z"/>
			<path class="st6" d="M31.3,18.5H18.7c-0.3,0-0.5-0.2-0.5-0.5V5.5c0-0.3,0.2-0.5,0.5-0.5h12.6c0.3,0,0.5,0.2,0.5,0.5V18
				C31.8,18.3,31.6,18.5,31.3,18.5z M19.2,17.5h11.6V6H19.2V17.5z"/>
		</g>
		<g class="st10">
			<path class="st6" d="M16.5,45c-0.3,0-0.5-0.2-0.5-0.4V33.4c0-0.2,0.2-0.4,0.5-0.4s0.5,0.2,0.5,0.4v11.3C17,44.8,16.7,45,16.5,45z
				"/>
			<path class="st6" d="M11.8,45c-0.3,0-0.5-0.2-0.5-0.4V33.4c0-0.2,0.2-0.4,0.5-0.4s0.5,0.2,0.5,0.4v11.3
				C12.3,44.8,12.1,45,11.8,45z"/>
			<path class="st6" d="M7.2,45c-0.3,0-0.5-0.2-0.5-0.4V33.4c0-0.2,0.2-0.4,0.5-0.4c0.3,0,0.5,0.2,0.5,0.4v11.3
				C7.7,44.8,7.5,45,7.2,45z"/>
			<path class="st6" d="M11.8,26.5c-1.2,0-2.2-1-2.2-2.3c0-1.2,1-2.2,2.2-2.2c1.2,0,2.2,1,2.2,2.2C14,25.5,13,26.5,11.8,26.5z
				 M11.8,23.1c-0.7,0-1.2,0.6-1.2,1.2c0,0.7,0.5,1.3,1.2,1.3c0.6,0,1.2-0.6,1.2-1.3C13,23.7,12.5,23.1,11.8,23.1z"/>
			<path class="st6" d="M18.1,34H5.5C5.2,34,5,33.8,5,33.5V21c0-0.3,0.2-0.5,0.5-0.5h12.6c0.3,0,0.5,0.2,0.5,0.5v12.5
				C18.7,33.8,18.4,34,18.1,34z M6,33h11.6V21.5H6V33z"/>
		</g>
		<g class="st10">
			<path class="st6" d="M42.8,45c-0.3,0-0.5-0.2-0.5-0.4V33.4c0-0.2,0.2-0.4,0.5-0.4s0.5,0.2,0.5,0.4v11.3
				C43.3,44.8,43.1,45,42.8,45z"/>
			<path class="st6" d="M38.2,45c-0.3,0-0.5-0.2-0.5-0.4V33.4c0-0.2,0.2-0.4,0.5-0.4s0.5,0.2,0.5,0.4v11.3
				C38.7,44.8,38.5,45,38.2,45z"/>
			<path class="st6" d="M33.5,45c-0.3,0-0.5-0.2-0.5-0.4V33.4c0-0.2,0.2-0.4,0.5-0.4c0.3,0,0.5,0.2,0.5,0.4v11.3
				C34,44.8,33.8,45,33.5,45z"/>
			<path class="st6" d="M38.2,26.5c-1.2,0-2.2-1-2.2-2.3c0-1.2,1-2.2,2.2-2.2c1.2,0,2.2,1,2.2,2.2C40.4,25.5,39.4,26.5,38.2,26.5z
				 M38.2,23.1c-0.7,0-1.2,0.6-1.2,1.2c0,0.7,0.5,1.3,1.2,1.3c0.6,0,1.2-0.6,1.2-1.3C39.4,23.7,38.9,23.1,38.2,23.1z"/>
			<path class="st6" d="M44.5,34H31.9c-0.3,0-0.5-0.2-0.5-0.5V21c0-0.3,0.2-0.5,0.5-0.5h12.6c0.3,0,0.5,0.2,0.5,0.5v12.5
				C45,33.8,44.8,34,44.5,34z M32.4,33H44V21.5H32.4V33z"/>
		</g>
	</g>
	<path class="st6" d="M41,0.2H9c-4.9,0-8.8,4-8.8,8.8v32c0,4.9,4,8.8,8.8,8.8h32c4.9,0,8.8-4,8.8-8.8V9C49.8,4.2,45.8,0.2,41,0.2z
		 M34.9,15.9c0.8,0,1.5,0.7,1.5,1.5s-0.7,1.5-1.5,1.5s-1.5-0.7-1.5-1.5S34.1,15.9,34.9,15.9z M8.8,37.1c-0.8,0-1.5-0.7-1.5-1.5
		s0.7-1.5,1.5-1.5s1.5,0.7,1.5,1.5S9.6,37.1,8.8,37.1z M41,47.8h-4V36.7l-4.5-4.5h-4.9C27.2,30.9,26,30,24.6,30c-1.7,0-3,1.4-3,3
		s1.4,3,3,3c1.4,0,2.6-1,2.9-2.2h4.3l3.5,3.5v10.5h-21v-2.6l1.7-1.7h2.6c0.3,1.3,1.5,2.3,2.9,2.3c1.7,0,3-1.4,3-3c0-1.7-1.4-3-3-3
		c-1.4,0-2.6,0.9-2.9,2.2h-3.3l-2.6,2.6v3.2H9.6v-9.3c1.3-0.3,2.2-1.5,2.2-2.9c0-1.7-1.4-3-3-3s-3,1.4-3,3c0,1.4,1,2.6,2.2,2.9v9.2
		c-3.3-0.5-5.8-3.3-5.8-6.7V21.3h11.4l1.7,1.7v2.6C14,25.9,13,27.1,13,28.5c0,1.7,1.4,3,3,3s3-1.4,3-3c0-1.4-0.9-2.6-2.2-2.9v-3.3
		l-2.6-2.6h-12v-6.4h20.1l3.6,3.5v4.3c-1.3,0.3-2.3,1.5-2.3,2.9c0,1.7,1.4,3,3,3s3-1.4,3-3c0-1.4-1-2.6-2.2-2.9v-4.9l-4.5-4.5H2.2V9
		c0-0.2,0-0.4,0.1-0.7h20.8c0.4,1.3,1.5,2.2,2.9,2.2c1.7,0,3-1.4,3-3s-1.4-3-3-3c-1.4,0-2.5,0.9-2.9,2.2H2.7c1-2.6,3.4-4.5,6.4-4.5
		h25.1v12.2c-1.3,0.3-2.3,1.5-2.3,2.9c0,1.7,1.4,3,3,3c1.7,0,3-1.4,3-3c0-1.4-1-2.6-2.2-2.9V2.2H41c3.7,0,6.8,3,6.8,6.8v17.7h-8.5
		c-0.3-1.3-1.5-2.2-2.9-2.2c-1.7,0-3,1.4-3,3s1.4,3,3,3c1.4,0,2.6-1,2.9-2.2h8.5V41C47.8,44.7,44.7,47.8,41,47.8z M26.1,33
		c0,0.8-0.7,1.5-1.5,1.5s-1.5-0.7-1.5-1.5s0.7-1.5,1.5-1.5S26.1,32.2,26.1,33z M20.1,42.7c0-0.8,0.7-1.5,1.5-1.5s1.5,0.7,1.5,1.5
		c0,0.8-0.7,1.5-1.5,1.5S20.1,43.6,20.1,42.7z M16.1,27c0.8,0,1.5,0.7,1.5,1.5S16.9,30,16.1,30c-0.8,0-1.5-0.7-1.5-1.5
		S15.3,27,16.1,27z M26.6,22.5c0.8,0,1.5,0.7,1.5,1.5s-0.7,1.5-1.5,1.5s-1.5-0.7-1.5-1.5S25.8,22.5,26.6,22.5z M24.6,7.5
		c0-0.8,0.7-1.5,1.5-1.5c0.8,0,1.5,0.7,1.5,1.5S26.8,9,26,9C25.2,9,24.6,8.3,24.6,7.5z M37.8,27.5c0,0.8-0.7,1.5-1.5,1.5
		s-1.5-0.7-1.5-1.5s0.7-1.5,1.5-1.5S37.8,26.7,37.8,27.5z"/>
</g>
</svg>
