<?xml version="1.0" encoding="utf-8"?>
<!-- Generator: Adobe Illustrator 26.0.3, SVG Export Plug-In . SVG Version: 6.00 Build 0)  -->
<svg version="1.1" id="Layer_1" xmlns="http://www.w3.org/2000/svg" xmlns:xlink="http://www.w3.org/1999/xlink" x="0px" y="0px"
	 viewBox="0 0 50 50" style="enable-background:new 0 0 50 50;" xml:space="preserve">
<style type="text/css">
	.st0{fill:#5A2A82;}
</style>
<g>
	<path class="st0" d="M7,17.1h3.4c0.6,0,1.2-0.5,1.2-1.2v-3.4c0-0.7-0.5-1.2-1.2-1.2H7c-0.7,0-1.2,0.5-1.2,1.2v3.4
		C5.8,16.5,6.3,17.1,7,17.1z M6.4,12.4c0-0.3,0.2-0.5,0.5-0.5h3.4c0.3,0,0.5,0.2,0.5,0.5v3.4c0,0.3-0.2,0.5-0.5,0.5H7
		c-0.3,0-0.5-0.2-0.5-0.5L6.4,12.4L6.4,12.4z"/>
	<rect x="5.8" y="26.6" class="st0" width="16.8" height="1.3"/>
	<rect x="5.8" y="29.9" class="st0" width="4.9" height="1.3"/>
	<rect x="5.8" y="20.1" class="st0" width="1.3" height="2.7"/>
	<rect x="9" y="20.1" class="st0" width="1.3" height="2.7"/>
	<rect x="12.3" y="20.1" class="st0" width="1.3" height="2.7"/>
	<rect x="22.2" y="20.1" class="st0" width="1.3" height="2.7"/>
	<rect x="32.1" y="20.1" class="st0" width="1.3" height="2.7"/>
	<rect x="15.6" y="20.1" class="st0" width="1.3" height="2.7"/>
	<rect x="18.9" y="20.1" class="st0" width="1.3" height="2.7"/>
	<rect x="25.5" y="20.1" class="st0" width="1.3" height="2.7"/>
	<rect x="28.8" y="20.1" class="st0" width="1.3" height="2.7"/>
	<rect x="14.1" y="29.9" class="st0" width="4.9" height="1.3"/>
	<path class="st0" d="M45.7,16.3V7.8c0-0.3-0.1-0.6-0.2-0.9c-0.4-0.8-1.2-1.4-2.1-1.4H2.3c-0.9,0-1.8,0.6-2.1,1.4
		C0.1,7.1,0,7.4,0,7.8v28C0,37,1,38,2.3,38h23.4v1.8c0,2.6,3.3,4.7,7.5,4.7c1.8,0,3.4-0.4,4.7-1c1.3,0.7,3,1,4.7,1
		c4.2,0,7.5-2.1,7.5-4.7V20.6C50,18.7,48.2,17,45.7,16.3z M42.5,37.8h-0.4c-0.1,0-0.1,0-0.2,0h-0.1c-0.1,0-0.1,0-0.2,0h-0.1
		c-0.1,0-0.2,0-0.3,0l0,0c-0.1,0-0.2,0-0.2,0h-0.1c-0.1,0-0.1,0-0.2,0h-0.1c0,0,0,0-0.1,0v-0.9v-0.6c0,0,0,0,0.1,0s0.2,0,0.3,0H41
		c0.1,0,0.3,0,0.4,0h0.1c0.1,0,0.2,0,0.3,0h0.1c0.1,0,0.3,0,0.4,0c0.1,0,0.2,0,0.4,0h0.1c0.1,0,0.2,0,0.3,0h0.1c0.1,0,0.2,0,0.3,0
		h0.1c0.1,0,0.2,0,0.3,0c0,0,0,0,0.1,0s0.1,0,0.2,0h0.1l0,0c0.1,0,0.2,0,0.3-0.1c0,0,0,0,0.1,0s0.2,0,0.3-0.1l0,0
		c0.1,0,0.2,0,0.3-0.1c0,0,0,0,0.1,0c0,0,0.1,0,0.2,0h0.1c0,0,0,0,0.1,0s0.2-0.1,0.3-0.1l0,0c0.1,0,0.2-0.1,0.3-0.1c0,0,0,0,0.1,0
		s0.2-0.1,0.3-0.1l0,0c0.1,0,0.2-0.1,0.2-0.1l0,0c0.1,0,0.2-0.1,0.2-0.1s0,0,0.1,0s0.2-0.1,0.2-0.1l0,0c0.1,0,0.2-0.1,0.2-0.1l0,0
		c0.1-0.1,0.2-0.1,0.2-0.2l0,0c0.1,0,0.1-0.1,0.2-0.1l0,0c0.1,0,0.1-0.1,0.2-0.2l0,0c0.1,0,0.1-0.1,0.2-0.2l0,0v0.1
		c0,1.5-1.7,2.7-4,3.2C44,37.7,43.3,37.8,42.5,37.8z M33.2,37.8c-1.7,0-3.3-0.4-4.4-1.1c-0.8-0.4-1.3-1-1.6-1.6
		c-0.1-0.2-0.2-0.4-0.2-0.6c0-0.1,0-0.1,0-0.2v-0.1l0,0c0.1,0.1,0.1,0.1,0.2,0.2l0,0c0,0,0.1,0,0.1,0.1c0,0,0.1,0,0.1,0.1l0,0
		c0.1,0.1,0.1,0.1,0.2,0.1l0,0c0.1,0,0.1,0.1,0.2,0.1l0,0c0.1,0,0.2,0.1,0.2,0.1l0,0c0,0,0,0,0.1,0c0,0,0.1,0,0.2,0.1l0,0
		c0.1,0,0.2,0.1,0.2,0.1l0,0c0.1,0,0.2,0.1,0.2,0.1l0,0c0.1,0,0.2,0.1,0.2,0.1s0,0,0.1,0s0.2,0.1,0.3,0.1l0,0c0.1,0,0.2,0.1,0.3,0.1
		c0,0,0,0,0.1,0s0.2,0.1,0.3,0.1c0,0,0,0,0.1,0s0.2,0,0.3,0.1l0,0c0.1,0,0.2,0,0.3,0.1c0,0,0,0,0.1,0s0.2,0,0.3,0l0,0
		c0.1,0,0.2,0,0.3,0c0,0,0,0,0.1,0s0.2,0,0.3,0c0,0,0,0,0.1,0s0.2,0,0.3,0c0,0,0,0,0.1,0s0.2,0,0.3,0h0.8c0.1,0,0.2,0,0.3,0l0,0
		c0.1,0,0.2,0,0.3,0c0,0,0,0,0.1,0s0.2,0,0.3,0c0,0,0,0,0.1,0s0.2,0,0.3,0l0,0c0.1,0,0.2,0,0.3,0c0,0,0,0,0.1,0s0.2,0,0.3-0.1l0,0
		c0.1,0,0.2,0,0.3-0.1c0,0,0,0,0.1,0s0.2,0,0.3-0.1c0,0,0,0,0.1,0s0.2,0,0.3-0.1l0,0c0.1,0,0.2-0.1,0.3-0.1c0,0,0,0,0.1,0
		s0.2-0.1,0.3-0.1l0,0c0.1,0,0.2-0.1,0.2-0.1l0,0c0.1,0,0.2-0.1,0.2-0.1s0,0,0.1,0c0,0,0.1-0.1,0.2-0.1c0,0,0,0,0.1,0l0,0
		c0.1-0.1,0.2-0.1,0.2-0.1l0,0c0.1-0.1,0.1-0.1,0.2-0.1l0,0c0.1,0,0.1-0.1,0.2-0.1l0,0c0,0,0.1,0,0.1-0.1c0,0,0.1,0,0.1-0.1l0,0
		c0.1,0,0.1-0.1,0.2-0.2l0,0l0,0v0.1c0,0.1,0,0.1,0,0.2c0,0.2-0.1,0.4-0.2,0.6c-0.3,0.6-0.8,1.1-1.6,1.6
		C36.5,37.4,34.9,37.8,33.2,37.8z M42.2,15.9c-4,0.1-7.1,2.2-7.1,4.7v2.7c0,0.4,0,0.7,0,0.9c-0.6-0.1-1.3-0.1-1.9-0.1
		c-4.2,0-7.5,2.1-7.5,4.7v5.7H4.1c-0.3,0-0.6-0.3-0.6-0.6V9.6C3.5,9.2,3.8,9,4.1,9h37.5c0.3,0,0.6,0.3,0.6,0.6
		C42.2,9.6,42.2,15.9,42.2,15.9z M39.4,28.6L39.4,28.6c0,0.1,0,0.2,0,0.2c0,1.9-2.8,3.5-6.2,3.5S27,30.7,27,28.8
		c0-1.9,2.8-3.5,6.2-3.5c1.7,0,3.2,0.4,4.3,1c0.5,0.3,1,0.6,1.3,1s0.5,0.7,0.6,1.1l0,0C39.4,28.5,39.4,28.6,39.4,28.6z M39.4,31.6
		c0,1.2-1.2,2.3-2.9,2.9c-0.5,0.2-1.2,0.3-1.8,0.5c-0.5,0.1-1,0.1-1.5,0.1s-1,0-1.5-0.1c-0.6-0.1-1.2-0.2-1.8-0.5
		c-1.7-0.6-2.9-1.7-2.9-2.9v-0.1c0.1,0,0.1,0.1,0.2,0.2l0,0c0.1,0,0.1,0.1,0.2,0.2l0,0c0.1,0,0.1,0.1,0.2,0.1l0,0
		c0.1,0,0.1,0.1,0.2,0.1l0,0c0.1,0,0.2,0.1,0.2,0.1l0,0c0.1,0,0.2,0.1,0.2,0.1s0,0,0.1,0s0.1,0.1,0.2,0.1l0,0c0.1,0,0.2,0.1,0.2,0.1
		l0,0c0.1,0,0.2,0.1,0.3,0.1c0,0,0,0,0.1,0s0.2,0.1,0.3,0.1l0,0c0.1,0,0.2,0.1,0.3,0.1c0,0,0,0,0.1,0s0.2,0.1,0.3,0.1c0,0,0,0,0.1,0
		s0.2,0,0.3,0.1l0,0c0.1,0,0.2,0,0.3,0.1c0,0,0,0,0.1,0s0.2,0,0.3,0.1l0,0c0.1,0,0.2,0,0.3,0c0,0,0,0,0.1,0s0.2,0,0.3,0
		c0,0,0,0,0.1,0c0.1,0,0.2,0,0.3,0l0,0c0.1,0,0.2,0,0.3,0h0.8c0.1,0,0.2,0,0.3,0l0,0c0.1,0,0.2,0,0.3,0c0,0,0,0,0.1,0s0.2,0,0.3,0
		c0,0,0,0,0.1,0s0.2,0,0.3,0l0,0c0.1,0,0.2,0,0.3-0.1h0.1c0.1,0,0.2,0,0.3-0.1c0,0,0,0,0.1,0s0.2,0,0.3-0.1c0,0,0,0,0.1,0
		s0.2-0.1,0.3-0.1c0,0,0,0,0.1,0s0.2-0.1,0.3-0.1l0,0c0.1,0,0.2-0.1,0.3-0.1c0,0,0,0,0.1,0s0.2-0.1,0.3-0.1l0,0
		c0.1,0,0.2-0.1,0.2-0.1s0,0,0.1,0s0.2-0.1,0.2-0.1l0,0c0.1,0,0.2-0.1,0.2-0.1l0,0c0.1,0,0.2-0.1,0.2-0.1s0,0,0.1,0s0.1-0.1,0.2-0.2
		l0,0c0.1,0,0.1-0.1,0.2-0.1l0,0c0.1,0,0.1-0.1,0.2-0.2l0,0C39.3,31.6,39.3,31.6,39.4,31.6C39.4,31.5,39.4,31.5,39.4,31.6
		C39.4,31.5,39.4,31.5,39.4,31.6L39.4,31.6z M45.7,34.5c-0.4,0.1-0.8,0.2-1.3,0.3C43.8,35,43.2,35,42.5,35h-0.4H42h-0.2
		c-0.1,0-0.1,0-0.2,0h-0.1c-0.1,0-0.2,0-0.3,0l0,0c-0.1,0-0.2,0-0.2,0h-0.1c-0.1,0-0.1,0-0.2,0h-0.1c0,0,0,0-0.1,0v-0.4v-1.1
		c0,0,0,0,0.1,0s0.2,0,0.3,0H41c0.1,0,0.3,0,0.4,0h0.1c0.1,0,0.2,0,0.3,0H42c0.1,0,0.2,0,0.4,0c0.1,0,0.2,0,0.3,0h0.2
		c0.1,0,0.2,0,0.3,0l0,0c0.1,0,0.2,0,0.3,0h0.1c0.1,0,0.2,0,0.3,0c0,0,0,0,0.1,0s0.2,0,0.3,0l0,0l0,0c0.1,0,0.2,0,0.3,0
		c0,0,0,0,0.1,0s0.2,0,0.3-0.1l0,0c0.1,0,0.2,0,0.3-0.1c0,0,0,0,0.1,0s0.1,0,0.2,0h0.1c0,0,0,0,0.1,0s0.2,0,0.3-0.1l0,0
		c0.1,0,0.2-0.1,0.3-0.1c0,0,0,0,0.1,0s0.2-0.1,0.3-0.1l0,0c0.1,0,0.2-0.1,0.2-0.1l0,0c0.1,0,0.2-0.1,0.2-0.1s0,0,0.1,0
		s0.2-0.1,0.2-0.1l0,0c0.1,0,0.2-0.1,0.2-0.1l0,0c0.1-0.1,0.2-0.1,0.2-0.2l0,0c0.1,0,0.1-0.1,0.2-0.1l0,0c0.1,0,0.1-0.1,0.2-0.2l0,0
		c0.1-0.1,0.1-0.1,0.2-0.2l0,0V32C48.7,32.8,47.5,33.9,45.7,34.5z M45.7,31.8c-0.4,0.1-0.8,0.2-1.3,0.3s-1,0.1-1.6,0.2
		c-0.1,0-0.2,0-0.3,0s-0.2,0-0.3,0h-0.1H42h-0.1c-0.1,0-0.1,0-0.2,0c0,0,0,0-0.1,0s-0.2,0-0.3,0l0,0c-0.1,0-0.2,0-0.2,0H41
		c-0.1,0-0.1,0-0.2,0h-0.1c0,0,0,0-0.1,0v-1.5c0,0,0,0,0.1,0s0.2,0,0.3,0.1h0.1c0.1,0,0.3,0,0.4,0.1h0.1c0.1,0,0.2,0,0.3,0h0.2
		c0.1,0,0.2,0,0.4,0c0.1,0,0.2,0,0.3,0H43c0.1,0,0.2,0,0.3,0l0,0c0.1,0,0.2,0,0.3,0c0,0,0,0,0.1,0s0.2,0,0.3,0c0,0,0,0,0.1,0
		s0.2,0,0.3,0l0,0l0,0c0.1,0,0.2,0,0.3-0.1c0,0,0,0,0.1,0s0.2,0,0.3-0.1l0,0c0.1,0,0.2,0,0.3-0.1c0,0,0,0,0.1,0s0.1,0,0.2,0h0.1
		c0,0,0,0,0.1,0s0.2-0.1,0.3-0.1l0,0c0.1,0,0.2-0.1,0.3-0.1c0,0,0,0,0.1,0s0.2-0.1,0.3-0.1l0,0c0.1,0,0.2-0.1,0.2-0.1l0,0
		c0.1,0,0.2-0.1,0.2-0.1s0,0,0.1,0s0.2-0.1,0.2-0.1l0,0c0.1,0,0.2-0.1,0.2-0.1l0,0c0.1,0,0.2-0.1,0.2-0.1l0,0c0.1,0,0.1-0.1,0.2-0.1
		l0,0c0.1,0,0.1-0.1,0.2-0.2l0,0c0.1-0.1,0.1-0.1,0.2-0.2l0,0v0.1C48.7,30.1,47.5,31.2,45.7,31.8z M45.7,29.1
		c-0.4,0.1-0.8,0.2-1.3,0.3c-0.5,0.1-1,0.1-1.6,0.1c-0.1,0-0.2,0-0.3,0s-0.2,0-0.3,0h-0.1H42h-0.1c-0.1,0-0.1,0-0.2,0h-0.1
		c-0.1,0-0.2,0-0.3,0l0,0c-0.1,0-0.2,0-0.2,0H41c-0.1,0-0.1,0-0.2,0h-0.1c0,0,0,0-0.1,0v-0.8c0-0.2-0.1-0.5-0.1-0.7
		c0.1,0,0.1,0,0.2,0c0.1,0,0.3,0,0.4,0.1h0.1c0.1,0,0.3,0,0.4,0h0.1c0.1,0,0.3,0,0.4,0h0.1h0.6H43c0.1,0,0.2,0,0.3,0c0,0,0,0,0.1,0
		s0.2,0,0.3,0c0,0,0,0,0.1,0s0.2,0,0.3,0c0,0,0,0,0.1,0s0.2,0,0.3,0l0,0l0,0c0.1,0,0.2,0,0.3,0c0,0,0,0,0.1,0s0.2,0,0.3-0.1l0,0
		c0.1,0,0.2,0,0.3-0.1c0,0,0,0,0.1,0s0.1,0,0.2,0h0.1c0,0,0,0,0.1,0s0.2,0,0.3-0.1l0,0c0.1,0,0.2-0.1,0.3-0.1c0,0,0,0,0.1,0
		s0.2-0.1,0.3-0.1l0,0c0.1,0,0.2-0.1,0.2-0.1l0,0c0.1,0,0.2-0.1,0.2-0.1l0,0c0.1,0,0.2-0.1,0.2-0.1l0,0c0.1,0,0.2-0.1,0.2-0.1l0,0
		c0.1,0,0.2-0.1,0.2-0.2l0,0c0.1,0,0.1-0.1,0.2-0.1l0,0c0.1,0,0.1-0.1,0.2-0.2l0,0c0.1,0,0.1-0.1,0.2-0.1l0,0l0,0v0.1
		C48.8,27.3,47.5,28.5,45.7,29.1z M45.7,26.3c-0.4,0.1-0.8,0.2-1.3,0.3c-0.5,0.1-1,0.1-1.6,0.2c-0.1,0-0.2,0-0.2,0
		c-0.1,0-0.2,0-0.4,0l0,0h-0.1c-0.1,0-0.2,0-0.3,0c0,0-0.1,0-0.2,0c-0.1,0-0.2,0-0.2,0c-0.1,0-0.1,0-0.2,0c-0.1,0-0.1,0-0.2,0
		c0,0-0.1,0-0.2,0c-0.1,0-0.1,0-0.2,0c0,0-0.1,0-0.2,0c-0.1,0-0.1,0-0.2,0c0,0-0.1,0-0.2,0c-0.1,0-0.1,0-0.2,0c-0.1,0-0.1,0-0.2,0
		h-0.1c-0.7-0.7-1.7-1.3-2.8-1.8c-0.1-0.1-0.2-0.2-0.3-0.2c-0.1-0.1-0.1-0.1-0.1-0.1c0-0.2-0.1-0.5-0.1-1v-0.1l0,0l0,0
		c0.1,0.1,0.1,0.1,0.2,0.2l0,0c0.1,0,0.1,0.1,0.2,0.1l0,0c0.1,0,0.1,0.1,0.2,0.1l0,0c0.1,0,0.1,0.1,0.2,0.1l0,0
		c0.1,0,0.2,0.1,0.2,0.1l0,0c0.1,0,0.1,0.1,0.2,0.1l0,0c0.1,0.1,0.2,0.1,0.2,0.1s0,0,0.1,0s0.2,0.1,0.2,0.1l0,0
		c0.1,0,0.2,0.1,0.3,0.1c0,0,0,0,0.1,0s0.2,0.1,0.3,0.1l0,0c0.1,0,0.2,0.1,0.3,0.1c0,0,0,0,0.1,0s0.2,0,0.3,0.1c0,0,0,0,0.1,0
		s0.2,0,0.3,0.1c0,0,0,0,0.1,0s0.2,0,0.3,0.1h0.1c0.1,0,0.2,0,0.3,0l0,0c0.1,0,0.2,0,0.3,0c0,0,0,0,0.1,0s0.2,0,0.3,0c0,0,0,0,0.1,0
		s0.2,0,0.3,0c0,0,0,0,0.1,0s0.2,0,0.3,0l0,0l0,0c0.1,0,0.2,0,0.3,0s0.2,0,0.3,0h0.2c0.1,0,0.2,0,0.3,0c0,0,0,0,0.1,0s0.2,0,0.3,0
		c0,0,0,0,0.1,0s0.2,0,0.3,0c0,0,0,0,0.1,0s0.2,0,0.3,0l0,0l0,0c0.1,0,0.2,0,0.3,0c0,0,0,0,0.1,0s0.2,0,0.3-0.1l0,0
		c0.1,0,0.2,0,0.3-0.1l0,0c0.1,0,0.1,0,0.2-0.1h0.1c0,0,0,0,0.1,0s0.2,0,0.3-0.1l0,0c0.1,0,0.2-0.1,0.3-0.1c0,0,0,0,0.1,0
		s0.2-0.1,0.3-0.1l0,0c0.1,0,0.2-0.1,0.2-0.1l0,0c0.1,0,0.2-0.1,0.2-0.1s0,0,0.1,0s0.2-0.1,0.2-0.1l0,0c0.1,0,0.2-0.1,0.2-0.1l0,0
		c0.1,0,0.1-0.1,0.2-0.1l0,0c0.1,0,0.1-0.1,0.2-0.1l0,0c0.1,0,0.1-0.1,0.2-0.2l0,0c0.1,0,0.1-0.1,0.2-0.2l0,0v0.1
		C48.8,24.6,47.5,25.7,45.7,26.3z M48.7,20.6c0,1.3-1.2,2.4-3.1,3c-0.4,0.1-0.8,0.2-1.3,0.3c-0.5,0.1-1,0.1-1.6,0.2
		c-0.1,0-0.2,0-0.3,0s-0.2,0-0.4,0c-3.2-0.1-5.8-1.7-5.8-3.5s2.6-3.4,5.8-3.5c0.1,0,0.2,0,0.4,0c0.1,0,0.2,0,0.3,0
		c0.5,0,1.1,0.1,1.6,0.2c0.4,0.1,0.9,0.2,1.3,0.3C47.5,18.2,48.7,19.3,48.7,20.6z M2.3,36.7c-0.5,0-1-0.5-1-1v-28c0-0.1,0-0.1,0-0.2
		c0.1-0.5,0.5-0.8,1-0.8h41.1c0.5,0,0.9,0.3,1,0.8c0,0.1,0,0.1,0,0.2V16c-0.5-0.1-1-0.1-1.6-0.1V9.6c0-0.7-0.5-1.2-1.2-1.2H4.1
		C3.4,8.4,2.9,9,2.9,9.6v24.3c0,0.7,0.6,1.2,1.2,1.2h21.6v1.6H2.3z M26.9,37L26.9,37L26.9,37C27,37,27,37,26.9,37
		c0.1,0,0.1,0,0.2,0.1l0,0c0.1,0.1,0.1,0.1,0.2,0.2l0,0c0.1,0.1,0.1,0.1,0.2,0.1l0,0c0.1,0,0.1,0.1,0.2,0.2l0,0
		c0.1,0,0.2,0.1,0.2,0.1l0,0c0.1,0,0.1,0.1,0.2,0.1l0,0c0.1,0,0.2,0.1,0.2,0.1l0,0c0.1,0,0.2,0.1,0.2,0.1l0,0c0.1,0,0.2,0.1,0.2,0.1
		s0,0,0.1,0s0.2,0.1,0.3,0.1l0,0c0.1,0,0.2,0.1,0.3,0.1c0,0,0,0,0.1,0s0.2,0,0.3,0.1c0,0,0,0,0.1,0s0.2,0,0.3,0.1l0,0
		c0.1,0,0.2,0,0.3,0.1c0,0,0,0,0.1,0s0.2,0,0.3,0.1l0,0c0.1,0,0.2,0,0.3,0c0,0,0,0,0.1,0s0.2,0,0.3,0h0.1c0.1,0,0.2,0,0.3,0h0.1
		c0.1,0,0.2,0,0.3,0h0.1c0.1,0,0.2,0,0.4,0s0.2,0,0.3,0h0.1c0.1,0,0.2,0,0.3,0l0,0c0.1,0,0.2,0,0.3,0H34c0.1,0,0.2,0,0.3,0
		c0,0,0,0,0.1,0s0.2,0,0.3,0l0,0c0.1,0,0.2,0,0.3-0.1c0,0,0,0,0.1,0s0.2,0,0.3-0.1l0,0c0.1,0,0.2,0,0.3-0.1c0,0,0,0,0.1,0
		s0.2-0.1,0.3-0.1c0,0,0,0,0.1,0s0.2-0.1,0.3-0.1l0,0c0.1,0,0.2-0.1,0.3-0.1c0,0,0,0,0.1,0s0.2-0.1,0.3-0.1l0,0
		c0.1,0,0.2-0.1,0.2-0.1l0,0c0.1,0,0.2-0.1,0.2-0.1s0,0,0.1,0s0.2-0.1,0.2-0.1l0,0c0.1,0,0.2-0.1,0.2-0.1s0,0,0.1,0
		c0.1-0.1,0.1-0.1,0.2-0.1l0,0c0.1,0,0.1-0.1,0.2-0.1l0,0c0.1,0,0.1-0.1,0.2-0.2l0,0c0.1,0,0.1-0.1,0.2-0.2l0,0v0.1
		c0,0.3-0.1,0.6-0.2,0.9c-0.6,1.2-2.3,2.1-4.4,2.4c-0.5,0.1-1,0.1-1.5,0.1s-1,0-1.5-0.1c-2.1-0.3-3.8-1.2-4.4-2.4
		C27,37.7,26.9,37.4,26.9,37z M37.5,42.2L37.5,42.2c-1.2,0.6-2.7,1-4.4,1c-3.4,0-6.2-1.6-6.2-3.5v-0.1l0,0c0.1,0,0.1,0.1,0.2,0.2
		l0,0c0.1,0.1,0.1,0.1,0.2,0.2l0,0c0.1,0,0.1,0.1,0.2,0.1l0,0c0.1,0,0.1,0.1,0.2,0.1l0,0c0.1,0,0.2,0.1,0.2,0.1l0,0
		c0.1,0,0.1,0.1,0.2,0.1l0,0c0.1,0,0.2,0.1,0.2,0.1l0,0c0.1,0,0.2,0.1,0.2,0.1l0,0c0.1,0,0.2,0.1,0.2,0.1s0,0,0.1,0s0.2,0.1,0.3,0.1
		l0,0c0.1,0,0.2,0.1,0.3,0.1c0,0,0,0,0.1,0s0.2,0,0.3,0.1c0,0,0,0,0.1,0s0.2,0,0.3,0.1l0,0c0.1,0,0.2,0,0.3,0.1c0,0,0,0,0.1,0
		s0.2,0,0.3,0l0,0c0.1,0,0.2,0,0.3,0c0,0,0,0,0.1,0s0.2,0,0.3,0c0,0,0,0,0.1,0s0.2,0,0.3,0c0,0,0,0,0.1,0s0.2,0,0.3,0h0.1
		c0.1,0,0.2,0,0.4,0s0.2,0,0.3,0h0.1c0.1,0,0.2,0,0.3,0l0,0c0.1,0,0.2,0,0.3,0c0,0,0,0,0.1,0s0.2,0,0.3,0c0,0,0,0,0.1,0s0.2,0,0.3,0
		l0,0c0.1,0,0.2,0,0.3,0c0,0,0,0,0.1,0s0.2,0,0.3-0.1l0,0c0.1,0,0.2,0,0.3-0.1c0,0,0,0,0.1,0s0.2-0.1,0.3-0.1c0,0,0,0,0.1,0
		s0.2,0,0.3-0.1l0,0c0.1,0,0.2-0.1,0.3-0.1c0,0,0,0,0.1,0s0.2-0.1,0.3-0.1l0,0c0.1,0,0.2-0.1,0.2-0.1l0,0c0.1,0,0.2-0.1,0.2-0.1
		s0,0,0.1,0s0.2-0.1,0.2-0.1l0,0c0.1,0,0.2-0.1,0.2-0.1l0,0c0.1,0,0.1-0.1,0.2-0.1l0,0c0.1,0,0.1-0.1,0.2-0.1l0,0
		c0.1,0,0.1-0.1,0.2-0.2l0,0c0.1,0,0.1-0.1,0.2-0.2l0,0l0,0v0.1v0.1c0,0.2-0.1,0.4-0.2,0.6C38.9,41.2,38.4,41.8,37.5,42.2z
		 M42.5,43.3c-1.2,0-2.4-0.2-3.4-0.6c0.4-0.3,0.8-0.7,1-1.1h0.1h0.1c0.1,0,0.2,0,0.3,0l0,0c0.1,0,0.2,0,0.3,0H41c0.1,0,0.2,0,0.2,0
		h0.1c0.1,0,0.2,0,0.2,0h0.1c0.1,0,0.2,0,0.2,0h0.1c0.1,0,0.2,0,0.3,0s0.2,0,0.3,0h0.1c0.1,0,0.2,0,0.3,0H43c0.1,0,0.2,0,0.3,0h0.1
		c0.1,0,0.2,0,0.3,0h0.1c0.1,0,0.2,0,0.3,0l0,0c0.1,0,0.2,0,0.3-0.1c0,0,0,0,0.1,0s0.2,0,0.3-0.1c0,0,0,0,0.1,0s0.2,0,0.3-0.1
		c0,0,0,0,0.1,0s0.2-0.1,0.3-0.1c0,0,0,0,0.1,0s0.2-0.1,0.3-0.1l0,0c0.1,0,0.2-0.1,0.3-0.1c0,0,0,0,0.1,0s0.2-0.1,0.3-0.1
		c0,0,0,0,0.1,0s0.1-0.1,0.2-0.1c0,0,0,0,0.1,0s0.2-0.1,0.2-0.1l0,0c0.1,0,0.2-0.1,0.2-0.1l0,0c0.1,0,0.1-0.1,0.2-0.1c0,0,0,0,0.1,0
		s0.1-0.1,0.2-0.1l0,0c0.1,0,0.1-0.1,0.2-0.1l0,0c0.1,0,0.1-0.1,0.2-0.2l0,0c0.1,0,0.1-0.1,0.2-0.1l0,0v0.1l0,0
		C48.7,41.7,45.9,43.3,42.5,43.3z M48.8,37c0,1.9-2.8,3.5-6.2,3.5h-0.4c-0.1,0-0.1,0-0.2,0h-0.1c-0.1,0-0.2,0-0.3,0l0,0
		c-0.1,0-0.2,0-0.3,0h-0.1c-0.1,0-0.1,0-0.2,0h-0.1c-0.1,0-0.2,0-0.3,0c0-0.1,0-0.2,0-0.4c0-0.1,0-0.1,0-0.2V39c0,0,0,0,0.1,0
		s0.2,0,0.3,0h0.1c0.1,0,0.3,0,0.4,0h0.1c0.1,0,0.2,0,0.3,0H42c0.1,0,0.3,0,0.4,0c0.1,0,0.2,0,0.3,0H43c0.1,0,0.2,0,0.3,0l0,0
		c0.1,0,0.2,0,0.3,0h0.1c0.1,0,0.2,0,0.3,0c0,0,0,0,0.1,0s0.2,0,0.3,0l0,0c0.1,0,0.2,0,0.3-0.1c0,0,0,0,0.1,0s0.2,0,0.3-0.1l0,0
		c0.1,0,0.2,0,0.3-0.1c0,0,0,0,0.1,0s0.2-0.1,0.3-0.1c0,0,0,0,0.1,0s0.2-0.1,0.3-0.1l0,0c0.1,0,0.2-0.1,0.3-0.1c0,0,0,0,0.1,0
		s0.2-0.1,0.3-0.1l0,0c0.1,0,0.2-0.1,0.2-0.1l0,0c0.1,0,0.2-0.1,0.2-0.1l0,0c0.1,0,0.2-0.1,0.2-0.1l0,0c0.1,0,0.2-0.1,0.2-0.1
		s0,0,0.1,0c0.1-0.1,0.1-0.1,0.2-0.1l0,0c0.1,0,0.1-0.1,0.2-0.1l0,0c0.1,0,0.1-0.1,0.2-0.2l0,0C48.6,37.1,48.7,37,48.8,37L48.8,37
		L48.8,37L48.8,37z"/>
</g>
</svg>
