<?xml version="1.0" encoding="utf-8"?>
<!-- Generator: Adobe Illustrator 26.0.3, SVG Export Plug-In . SVG Version: 6.00 Build 0)  -->
<svg version="1.1" id="Layer_1" xmlns="http://www.w3.org/2000/svg" xmlns:xlink="http://www.w3.org/1999/xlink" x="0px" y="0px"
	 viewBox="0 0 50 50" style="enable-background:new 0 0 50 50;" xml:space="preserve">
<style type="text/css">
	.st0{fill:#5A2A82;}
	.st1{fill:#FFFFFF;}
</style>
<g>
	<g>
		<g>
			<g>
				<path class="st0" d="M35.8,35.9C35.8,35.9,35.8,35.9,35.8,35.9c-4.9,0-8-3.6-9.6-6.6c-0.2-0.3-0.1-0.7,0.2-0.8
					c0.3-0.2,0.7-0.1,0.8,0.2c1.5,2.7,4.3,5.9,8.6,6c0,0,0,0,0,0c2.5,0,4.9-1,6.7-2.8c1.8-1.8,2.8-4.2,2.8-6.7c0-2.5-1-4.9-2.8-6.7
					c-1.8-1.8-4.2-2.8-6.7-2.8c0,0,0,0,0,0c-7.4,0-10.2,9.5-10.2,9.6c0,0.1-0.8,2.6-2.5,5.2c-2.4,3.5-5.4,5.3-8.9,5.3c0,0,0,0,0,0
					C8.3,35.8,3.5,31,3.5,25.1c0-5.9,4.8-10.7,10.7-10.7c0,0,0,0,0,0c3.2,0,6.2,1.6,8.4,4.7c0.2,0.3,0.1,0.6-0.1,0.8
					c-0.3,0.2-0.6,0.1-0.8-0.1c-2.1-2.8-4.6-4.2-7.5-4.2c0,0,0,0,0,0c-5.2,0-9.5,4.2-9.5,9.5c0,2.5,1,4.9,2.8,6.7
					c1.8,1.8,4.2,2.8,6.7,2.8c0,0,0,0,0,0c7.4,0,10.2-9.5,10.2-9.6c0-0.1,0.8-2.6,2.5-5.2c2.4-3.5,5.4-5.3,8.9-5.3c0,0,0,0,0,0
					c2.9,0,5.5,1.1,7.5,3.1c2,2,3.1,4.7,3.1,7.6c0,2.9-1.1,5.5-3.1,7.5C41.3,34.7,38.7,35.9,35.8,35.9z"/>
				<g>
					<polygon class="st0" points="23.4,18.1 23.6,21.7 20.4,20.1 					"/>
				</g>
			</g>
		</g>
		<g>
			<path class="st0" d="M35.7,33.3C35.7,33.3,35.7,33.3,35.7,33.3c-3.8,0-6.1-2.7-7.4-5c-0.1-0.1,0-0.3,0.1-0.4
				c0.1-0.1,0.3,0,0.4,0.1c1.2,2.2,3.4,4.7,6.8,4.7c0,0,0,0,0,0c2,0,3.9-0.8,5.3-2.2c1.4-1.4,2.2-3.3,2.2-5.3c0-4.2-3.4-7.6-7.5-7.6
				c0,0,0,0,0,0c-3.4,0-5.5,2.5-6.7,4.5c0,0-0.6,1.2-1.4,3.1c-0.1,0.2-0.2,0.2-0.4,0.2C27,25.4,26.9,25.2,27,25
				c0.7-1.8,1.4-3.1,1.4-3.2c1.3-2.2,3.6-4.8,7.3-4.8c0,0,0,0,0,0c4.5,0,8.1,3.7,8.1,8.2c0,2.2-0.9,4.2-2.4,5.8
				C39.9,32.5,37.9,33.3,35.7,33.3z"/>
		</g>
		<g>
			<path class="st0" d="M14.2,33.3C14.2,33.3,14.2,33.3,14.2,33.3c-2.2,0-4.2-0.9-5.8-2.4c-1.5-1.5-2.4-3.6-2.4-5.8
				c0-4.5,3.7-8.1,8.2-8.1c0,0,0,0,0,0c1.8,0,3.5,0.7,4.9,2c0.1,0.1,0.1,0.3,0,0.4c-0.1,0.1-0.3,0.1-0.4,0c-1.3-1.2-2.9-1.8-4.5-1.8
				c0,0,0,0,0,0c-4.2,0-7.5,3.4-7.6,7.5c0,4.2,3.4,7.6,7.5,7.6c0,0,0,0,0,0c3.4,0,5.5-2.5,6.8-4.5c0,0,0.6-1.2,1.4-3.1
				c0.1-0.2,0.2-0.2,0.4-0.2c0.2,0.1,0.2,0.2,0.2,0.4c-0.8,2-1.4,3.2-1.4,3.2C20.2,30.7,17.9,33.3,14.2,33.3z"/>
		</g>
	</g>
	<path class="st0" d="M36,39c-4.3,0-8.4-2-11-5.4C22.4,37,18.3,39,14,39C6.3,39,0,32.7,0,25s6.3-14,14-14c4.3,0,8.4,2,11,5.4
		C27.6,13,31.7,11,36,11c7.7,0,14,6.3,14,14S43.7,39,36,39z M25,31.2l0.6,0.9c2.3,3.5,6.2,5.6,10.4,5.6c6.9,0,12.6-5.6,12.6-12.6
		S43,12.4,36,12.4c-4.2,0-8.1,2.1-10.4,5.6L25,18.8L24.4,18c-2.3-3.5-6.3-5.6-10.4-5.6C7,12.4,1.4,18.1,1.4,25S7,37.6,14,37.6
		c4.2,0,8.1-2.1,10.4-5.6L25,31.2z"/>
</g>
</svg>
