<?xml version="1.0" encoding="utf-8"?>
<!-- Generator: Adobe Illustrator 26.0.3, SVG Export Plug-In . SVG Version: 6.00 Build 0)  -->
<svg version="1.1" xmlns="http://www.w3.org/2000/svg" xmlns:xlink="http://www.w3.org/1999/xlink" x="0px" y="0px"
	 viewBox="0 0 50 50" style="enable-background:new 0 0 50 50;" xml:space="preserve">
<style type="text/css">
	.st0{fill:none;}
	.st1{fill:#FCAF1A;}
	.st2{font-family:'Roboto-Regular';}
	.st3{font-size:6px;}
	.st4{fill:#592C82;}
	.st5{fill:#602B7D;}
	.st6{fill:#5A2A82;}
	.st7{fill:none;stroke:#602B7D;stroke-width:1.2262;stroke-linecap:round;stroke-miterlimit:10;}
	.st8{fill:none;stroke:#602B7D;stroke-width:1.5941;stroke-linecap:round;stroke-linejoin:round;stroke-miterlimit:10;}
	.st9{display:none;}
	.st10{display:inline;}
	.st11{display:inline;fill:#5A2A82;}
	.st12{display:none;fill:#602B7D;}
	.st13{fill:none;stroke:#5A2A82;stroke-miterlimit:10;}
	.st14{fill:none;stroke:#5A2A82;stroke-width:2;stroke-miterlimit:10;}
</style>
<g id="Title__x26__Guide">
</g>
<g id="Icons">
	<g>
		<path class="st6" d="M49.2,2.3c0-1.3-1-2.3-2.3-2.3H3.1C1.8,0,0.8,1,0.8,2.3v13.3c0,0.5,0.2,1,0.5,1.4c-0.3,0.4-0.5,0.9-0.5,1.4
			v13.3c0,0.5,0.2,1,0.5,1.4c-0.3,0.4-0.5,0.9-0.5,1.4v13.3c0,1.3,1,2.3,2.3,2.3h43.9c1.3,0,2.3-1,2.3-2.3V34.4c0-0.5-0.2-1-0.5-1.4
			c0.3-0.4,0.5-0.9,0.5-1.4V18.4c0-0.5-0.2-1-0.5-1.4c0.3-0.4,0.5-0.9,0.5-1.4V2.3z M2.6,2.3c0-0.3,0.2-0.5,0.5-0.5h43.9
			c0.3,0,0.5,0.2,0.5,0.5v13.3c0,0.3-0.2,0.5-0.5,0.5H3.1c-0.3,0-0.5-0.2-0.5-0.5V2.3z M47.4,31.7c0,0.3-0.2,0.5-0.5,0.5H3.1
			c-0.3,0-0.5-0.2-0.5-0.5V18.4c0-0.3,0.2-0.5,0.5-0.5h43.9c0.3,0,0.5,0.2,0.5,0.5V31.7z M47.4,47.7c0,0.3-0.2,0.5-0.5,0.5H3.1
			c-0.3,0-0.5-0.2-0.5-0.5V34.4c0-0.3,0.2-0.5,0.5-0.5h43.9c0.3,0,0.5,0.2,0.5,0.5V47.7z"/>
		<g>
			<g id="XMLID_00000176754415748874324320000009229896695707237565_">
				<circle class="st6" cx="42.7" cy="11.8" r="0.8"/>
				<circle class="st6" cx="42.7" cy="28.1" r="0.8"/>
				<path class="st6" d="M42.7,43c0.4,0,0.8,0.4,0.8,0.8c0,0.5-0.4,0.8-0.8,0.8c-0.5,0-0.8-0.4-0.8-0.8C41.8,43.4,42.2,43,42.7,43z"
					/>
				<path class="st6" d="M38.1,11c0.4,0,0.8,0.4,0.8,0.8c0,0.4-0.4,0.8-0.8,0.8c-0.5,0-0.8-0.4-0.8-0.8C37.3,11.4,37.6,11,38.1,11z"
					/>
				<path class="st6" d="M38.1,27.3c0.4,0,0.8,0.4,0.8,0.8c0,0.4-0.4,0.8-0.8,0.8c-0.5,0-0.8-0.4-0.8-0.8
					C37.3,27.6,37.6,27.3,38.1,27.3z"/>
				<path class="st6" d="M38.1,43c0.4,0,0.8,0.4,0.8,0.8c0,0.5-0.4,0.8-0.8,0.8c-0.5,0-0.8-0.4-0.8-0.8C37.3,43.4,37.6,43,38.1,43z"
					/>
				<path class="st6" d="M33.7,11c0.4,0,0.8,0.4,0.8,0.8c0,0.4-0.4,0.8-0.8,0.8c-0.5,0-0.8-0.4-0.8-0.8C32.9,11.4,33.3,11,33.7,11z"
					/>
				<path class="st6" d="M33.7,27.3c0.4,0,0.8,0.4,0.8,0.8c0,0.4-0.4,0.8-0.8,0.8c-0.5,0-0.8-0.4-0.8-0.8
					C32.9,27.6,33.3,27.3,33.7,27.3z"/>
				<path class="st6" d="M33.7,43c0.4,0,0.8,0.4,0.8,0.8c0,0.5-0.4,0.8-0.8,0.8c-0.5,0-0.8-0.4-0.8-0.8C32.9,43.4,33.3,43,33.7,43z"
					/>
				<polygon class="st6" points="32.6,17.7 32.6,17.7 2.3,17.7 2.3,17.7 				"/>
				<rect x="6.4" y="23.1" class="st6" width="13" height="1.6"/>
				<polygon class="st6" points="19,39.6 19,40.4 6,40.4 6,38.8 19,38.8 				"/>
				<rect x="6" y="38.8" class="st6" width="13" height="0"/>
				<polygon class="st6" points="6,6.4 6,7.2 6,8 19,8 19,7.2 19,6.4 				"/>
				<rect x="6.4" y="26" class="st6" width="6.6" height="1.6"/>
				<rect x="6" y="41.8" class="st6" width="6.6" height="1.6"/>
				<polygon class="st6" points="6,9.3 6,10.1 6,10.9 12.5,10.9 12.5,10.1 12.5,9.3 				"/>
			</g>
		</g>
	</g>
</g>
</svg>
