<?xml version="1.0" encoding="utf-8"?>
<!-- Generator: Adobe Illustrator 26.0.3, SVG Export Plug-In . SVG Version: 6.00 Build 0)  -->
<svg version="1.1" xmlns="http://www.w3.org/2000/svg" xmlns:xlink="http://www.w3.org/1999/xlink" x="0px" y="0px"
	 viewBox="0 0 50 50" style="enable-background:new 0 0 50 50;" xml:space="preserve">
<style type="text/css">
	.st0{fill:none;}
	.st1{fill:#FCAF1A;}
	.st2{font-family:'Roboto-Regular';}
	.st3{font-size:6px;}
	.st4{fill:#592C82;}
	.st5{fill:#602B7D;}
	.st6{fill:#5A2A82;}
	.st7{fill:none;stroke:#602B7D;stroke-width:1.2262;stroke-linecap:round;stroke-miterlimit:10;}
	.st8{fill:none;stroke:#602B7D;stroke-width:1.5941;stroke-linecap:round;stroke-linejoin:round;stroke-miterlimit:10;}
	.st9{display:none;}
	.st10{display:inline;}
	.st11{display:inline;fill:#5A2A82;}
	.st12{display:none;fill:#602B7D;}
	.st13{fill:none;stroke:#5A2A82;stroke-miterlimit:10;}
	.st14{fill:none;stroke:#5A2A82;stroke-width:2;stroke-miterlimit:10;}
</style>
<g id="Title__x26__Guide">
</g>
<g id="Icons">
	<g>
		<g>
			<g>
				<g>
					<g>
						<path class="st5" d="M39.5,50c-0.2,0-0.4-0.1-0.5-0.2l-8.6-10.4c-0.2-0.3-0.2-0.6,0.1-0.9c0.3-0.2,0.6-0.2,0.9,0.1l6.5,7.9
							L27.3,14c-0.1-0.3,0.1-0.7,0.4-0.8c0.3-0.1,0.7,0.1,0.8,0.4l11.6,35.6c0.1,0.3,0,0.6-0.3,0.7C39.7,50,39.6,50,39.5,50z"/>
					</g>
				</g>
			</g>
		</g>
		<g>
			<g>
				<g>
					<g>
						<path class="st5" d="M10.5,50c-0.1,0-0.2,0-0.3-0.1c-0.3-0.1-0.4-0.4-0.3-0.7l11.6-35.6c0.1-0.3,0.4-0.5,0.8-0.4
							c0.3,0.1,0.5,0.4,0.4,0.8L12.1,46.4l6.3-7.8c0.2-0.3,0.6-0.3,0.9-0.1c0.3,0.2,0.3,0.6,0.1,0.9l-8.4,10.4
							C10.8,49.9,10.7,50,10.5,50z"/>
					</g>
				</g>
			</g>
		</g>
		<g>
			<g>
				<g>
					<g>
						<path class="st5" d="M30.5,23.3H19.6c-0.3,0-0.5-0.2-0.6-0.4s0-0.5,0.2-0.7l4.6-3.1l-3-2c-0.2-0.1-0.3-0.4-0.2-0.7
							c0.1-0.3,0.3-0.4,0.6-0.4h7.5c0.3,0,0.5,0.2,0.6,0.4s0,0.5-0.2,0.7l-2.9,2l4.7,3.1c0.2,0.1,0.3,0.4,0.2,0.7
							C31,23.1,30.7,23.3,30.5,23.3z M21.6,22.1h6.8L25,19.9L21.6,22.1z M23.3,17.3l1.7,1.1l1.7-1.1H23.3z"/>
					</g>
				</g>
			</g>
		</g>
		<g>
			<g>
				<g>
					<g>
						<path class="st5" d="M35.6,39.3H14.5c-0.3,0-0.5-0.2-0.6-0.5c-0.1-0.3,0.1-0.6,0.4-0.7l9-3.4l-6.9-2.6
							C16.1,32,16,31.7,16,31.4c0.1-0.3,0.3-0.5,0.6-0.5h16.7c0.3,0,0.5,0.2,0.6,0.5c0.1,0.3-0.1,0.6-0.4,0.7l-6.8,2.6l9.1,3.4
							c0.3,0.1,0.4,0.4,0.4,0.7C36.2,39.1,35.9,39.3,35.6,39.3z M17.8,38.1h14.5L25,35.4L17.8,38.1z M19.9,32.2l5.1,1.9l5-1.9H19.9z
							"/>
					</g>
				</g>
			</g>
		</g>
		<g>
			<g>
				<g>
					<g>
						<g>
							<path class="st5" d="M19,12c-0.2,0-0.3-0.1-0.5-0.2c-0.8-1-1.3-2.2-1.3-3.4c0-1.2,0.5-2.5,1.3-3.4c0.2-0.3,0.6-0.3,0.9-0.1
								c0.3,0.2,0.3,0.6,0.1,0.9c-0.6,0.7-1,1.7-1,2.6c0,1,0.3,1.9,1,2.6c0.2,0.3,0.2,0.6-0.1,0.9C19.3,11.9,19.2,12,19,12z"/>
						</g>
					</g>
				</g>
			</g>
			<g>
				<g>
					<g>
						<g>
							<path class="st5" d="M16.6,14.4c-0.2,0-0.3-0.1-0.4-0.2c-1.5-1.6-2.3-3.6-2.3-5.8c0-2.2,0.8-4.2,2.3-5.8
								c0.2-0.2,0.6-0.3,0.9,0c0.2,0.2,0.3,0.6,0,0.9c-1.3,1.4-1.9,3.1-1.9,5c0,1.9,0.7,3.6,1.9,5c0.2,0.2,0.2,0.6,0,0.9
								C16.9,14.3,16.8,14.4,16.6,14.4z"/>
						</g>
					</g>
				</g>
			</g>
			<g>
				<g>
					<g>
						<g>
							<path class="st5" d="M14.3,16.8c-0.2,0-0.3-0.1-0.4-0.2c-2.1-2.2-3.3-5.1-3.3-8.2c0-3.1,1.2-6,3.3-8.2c0.2-0.2,0.6-0.3,0.9,0
								c0.2,0.2,0.3,0.6,0,0.9c-1.9,2-2.9,4.6-2.9,7.3c0,2.7,1,5.4,2.9,7.3c0.2,0.2,0.2,0.6,0,0.9C14.6,16.7,14.4,16.8,14.3,16.8z"
								/>
						</g>
					</g>
				</g>
			</g>
		</g>
		<g>
			<g>
				<g>
					<g>
						<g>
							<path class="st5" d="M30.8,12c-0.1,0-0.3,0-0.4-0.1c-0.3-0.2-0.3-0.6-0.1-0.9c0.6-0.7,1-1.7,1-2.6c0-1-0.3-1.9-1-2.6
								c-0.2-0.3-0.2-0.6,0.1-0.9c0.3-0.2,0.6-0.2,0.9,0.1c0.8,1,1.3,2.2,1.3,3.4c0,1.2-0.5,2.5-1.3,3.4C31.2,11.9,31,12,30.8,12z"
								/>
						</g>
					</g>
				</g>
			</g>
			<g>
				<g>
					<g>
						<g>
							<path class="st5" d="M33.2,14.4c-0.1,0-0.3-0.1-0.4-0.2c-0.2-0.2-0.3-0.6,0-0.9c1.3-1.4,1.9-3.1,1.9-5c0-1.8-0.7-3.6-1.9-5
								c-0.2-0.2-0.2-0.6,0-0.9c0.2-0.2,0.6-0.2,0.9,0c1.5,1.6,2.3,3.7,2.3,5.8c0,2.2-0.8,4.2-2.3,5.8
								C33.5,14.3,33.4,14.4,33.2,14.4z"/>
						</g>
					</g>
				</g>
			</g>
			<g>
				<g>
					<g>
						<g>
							<path class="st5" d="M35.6,16.8c-0.2,0-0.3-0.1-0.4-0.2c-0.2-0.2-0.3-0.6,0-0.9c1.9-2,2.9-4.6,2.9-7.3c0-2.7-1-5.3-2.9-7.3
								c-0.2-0.2-0.2-0.6,0-0.9c0.2-0.2,0.6-0.2,0.9,0c2.1,2.2,3.3,5.1,3.3,8.2c0,3.1-1.2,6-3.3,8.2C35.9,16.7,35.7,16.8,35.6,16.8z
								"/>
						</g>
					</g>
				</g>
			</g>
		</g>
		<g>
			<g>
				<g>
					<g>
						<path class="st5" d="M24.9,12.6c-2.3,0-4.2-1.9-4.2-4.2c0-2.3,1.9-4.2,4.2-4.2s4.2,1.9,4.2,4.2C29.1,10.7,27.2,12.6,24.9,12.6
							z M24.9,5.5c-1.6,0-3,1.3-3,3c0,1.6,1.3,3,3,3c1.6,0,3-1.3,3-3C27.9,6.8,26.6,5.5,24.9,5.5z"/>
					</g>
				</g>
			</g>
		</g>
	</g>
</g>
</svg>
