<?xml version="1.0" encoding="utf-8"?>
<!-- Generator: Adobe Illustrator 26.0.3, SVG Export Plug-In . SVG Version: 6.00 Build 0)  -->
<svg version="1.1" xmlns="http://www.w3.org/2000/svg" xmlns:xlink="http://www.w3.org/1999/xlink" x="0px" y="0px"
	 viewBox="0 0 50 50" style="enable-background:new 0 0 50 50;" xml:space="preserve">
<style type="text/css">
	.st0{fill:none;}
	.st1{fill:#FCAF1A;}
	.st2{font-family:'Roboto-Regular';}
	.st3{font-size:6px;}
	.st4{fill:#592C82;}
	.st5{fill:#602B7D;}
	.st6{fill:#5A2A82;}
	.st7{fill:none;stroke:#602B7D;stroke-width:1.2262;stroke-linecap:round;stroke-miterlimit:10;}
	.st8{fill:none;stroke:#602B7D;stroke-width:1.5941;stroke-linecap:round;stroke-linejoin:round;stroke-miterlimit:10;}
	.st9{display:none;}
	.st10{display:inline;}
	.st11{display:inline;fill:#5A2A82;}
	.st12{display:none;fill:#602B7D;}
	.st13{fill:none;stroke:#5A2A82;stroke-miterlimit:10;}
	.st14{fill:none;stroke:#5A2A82;stroke-width:2;stroke-miterlimit:10;}
</style>
<g id="Title__x26__Guide">
</g>
<g id="Icons">
	<g>
		<path class="st5" d="M41.8,49.9c-0.5,0-0.8-0.4-0.8-0.8v-4.4c0-0.5,0.4-0.8,0.8-0.8s0.8,0.4,0.8,0.8V49
			C42.7,49.5,42.3,49.9,41.8,49.9z"/>
		<path class="st5" d="M38.6,49.9c-0.5,0-0.8-0.4-0.8-0.8v-4.4c0-0.5,0.4-0.8,0.8-0.8s0.8,0.4,0.8,0.8l0,4.4
			C39.5,49.5,39.1,49.9,38.6,49.9z"/>
		<path class="st5" d="M35.1,49.9c-0.5,0-0.8-0.4-0.8-0.8l0-4.4c0-0.5,0.4-0.8,0.8-0.8s0.8,0.4,0.8,0.8V49
			C35.9,49.5,35.6,49.9,35.1,49.9z"/>
		<path class="st5" d="M31.6,49.9c-0.5,0-0.8-0.4-0.8-0.8v-4.4c0-0.5,0.4-0.8,0.8-0.8s0.8,0.4,0.8,0.8l0,4.4
			C32.4,49.5,32.1,49.9,31.6,49.9z"/>
		<path class="st5" d="M28.4,49.9c-0.5,0-0.8-0.4-0.8-0.8v-4.4c0-0.5,0.4-0.8,0.8-0.8c0.5,0,0.8,0.4,0.8,0.8V49
			C29.2,49.5,28.8,49.9,28.4,49.9z"/>
		<path class="st5" d="M24.9,49.9c-0.5,0-0.8-0.4-0.8-0.8l0-4.4c0-0.5,0.4-0.8,0.8-0.8s0.8,0.4,0.8,0.8V49
			C25.7,49.5,25.3,49.9,24.9,49.9z"/>
		<path class="st5" d="M21.3,49.9c-0.5,0-0.8-0.4-0.8-0.8v-4.4c0-0.5,0.4-0.8,0.8-0.8s0.8,0.4,0.8,0.8l0,4.4
			C22.2,49.5,21.8,49.9,21.3,49.9z"/>
		<path class="st5" d="M18.1,49.9c-0.5,0-0.8-0.4-0.8-0.8l0-4.4c0-0.5,0.4-0.8,0.8-0.8s0.8,0.4,0.8,0.8V49
			C19,49.5,18.6,49.9,18.1,49.9z"/>
		<path class="st5" d="M14.6,49.9c-0.5,0-0.8-0.4-0.8-0.8l0-4.4c0-0.5,0.4-0.8,0.8-0.8c0.5,0,0.8,0.4,0.8,0.8l0,4.4
			C15.4,49.5,15.1,49.9,14.6,49.9z"/>
		<path class="st5" d="M11.1,49.9c-0.5,0-0.8-0.4-0.8-0.8l0-4.4c0-0.5,0.4-0.8,0.8-0.8s0.8,0.4,0.8,0.8l0,4.4
			C11.9,49.5,11.5,49.9,11.1,49.9z"/>
		<path class="st5" d="M7.9,49.9C7.4,49.9,7,49.5,7,49l0-4.4c0-0.5,0.4-0.8,0.8-0.8s0.8,0.4,0.8,0.8V49C8.7,49.5,8.3,49.9,7.9,49.9z
			"/>
		<path class="st5" d="M41.8,6.2c-0.5,0-0.8-0.4-0.8-0.8V1c0-0.5,0.4-0.8,0.8-0.8s0.8,0.4,0.8,0.8v4.4C42.7,5.8,42.3,6.2,41.8,6.2z"
			/>
		<path class="st5" d="M38.6,6.2c-0.5,0-0.8-0.4-0.8-0.8V1c0-0.5,0.4-0.8,0.8-0.8s0.8,0.4,0.8,0.8l0,4.4C39.5,5.8,39.1,6.2,38.6,6.2
			z"/>
		<path class="st5" d="M35.1,6.2c-0.5,0-0.8-0.4-0.8-0.8V1c0-0.5,0.4-0.8,0.8-0.8s0.8,0.4,0.8,0.8v4.4C35.9,5.8,35.6,6.2,35.1,6.2z"
			/>
		<path class="st5" d="M31.6,6.2c-0.5,0-0.8-0.4-0.8-0.8l0-4.4c0-0.5,0.4-0.8,0.8-0.8s0.8,0.4,0.8,0.8l0,4.4
			C32.4,5.8,32.1,6.2,31.6,6.2z"/>
		<path class="st5" d="M28.4,6.2c-0.5,0-0.8-0.4-0.8-0.8l0-4.4c0-0.5,0.4-0.8,0.8-0.8s0.8,0.4,0.8,0.8v4.4
			C29.2,5.8,28.8,6.2,28.4,6.2z"/>
		<path class="st5" d="M24.9,6.2c-0.5,0-0.8-0.4-0.8-0.8V1c0-0.5,0.4-0.8,0.8-0.8s0.8,0.4,0.8,0.8v4.4C25.7,5.8,25.3,6.2,24.9,6.2z"
			/>
		<path class="st5" d="M21.3,6.2c-0.5,0-0.8-0.4-0.8-0.8l0-4.4c0-0.5,0.4-0.8,0.8-0.8s0.8,0.4,0.8,0.8v4.4
			C22.2,5.8,21.8,6.2,21.3,6.2z"/>
		<path class="st5" d="M18.1,6.2c-0.5,0-0.8-0.4-0.8-0.8V1c0-0.5,0.4-0.8,0.8-0.8C18.6,0.1,19,0.5,19,1l0,4.4
			C19,5.8,18.6,6.2,18.1,6.2z"/>
		<path class="st5" d="M14.6,6.2c-0.5,0-0.8-0.4-0.8-0.8V1c0-0.5,0.4-0.8,0.8-0.8s0.8,0.4,0.8,0.8l0,4.4C15.4,5.8,15.1,6.2,14.6,6.2
			z"/>
		<path class="st5" d="M11.1,6.2c-0.5,0-0.8-0.4-0.8-0.8l0-4.4c0-0.5,0.4-0.8,0.8-0.8s0.8,0.4,0.8,0.8v4.4
			C11.9,5.8,11.5,6.2,11.1,6.2z"/>
		<path class="st5" d="M7.9,6.2C7.4,6.2,7,5.8,7,5.4L7,1c0-0.5,0.4-0.8,0.8-0.8c0.5,0,0.8,0.4,0.8,0.8l0,4.4
			C8.7,5.8,8.3,6.2,7.9,6.2z"/>
		<path class="st5" d="M5.2,42.8l-4.4,0C0.4,42.8,0,42.5,0,42c0-0.5,0.4-0.8,0.8-0.8h4.4c0.5,0,0.8,0.4,0.8,0.8S5.7,42.8,5.2,42.8z"
			/>
		<path class="st5" d="M5.2,39.6H0.8c-0.5,0-0.8-0.4-0.8-0.8s0.4-0.8,0.8-0.8l4.4,0c0.5,0,0.8,0.4,0.8,0.8S5.7,39.6,5.2,39.6z"/>
		<path class="st5" d="M5.2,36.1H0.8c-0.5,0-0.8-0.4-0.8-0.8c0-0.5,0.4-0.8,0.8-0.8h4.4c0.5,0,0.8,0.4,0.8,0.8
			C6.1,35.7,5.7,36.1,5.2,36.1z"/>
		<path class="st5" d="M5.2,32.6H0.8c-0.5,0-0.8-0.4-0.8-0.8c0-0.5,0.4-0.8,0.8-0.8h4.4c0.5,0,0.8,0.4,0.8,0.8
			C6.1,32.2,5.7,32.6,5.2,32.6z"/>
		<path class="st5" d="M5.2,29.3H0.8C0.4,29.3,0,29,0,28.5c0-0.5,0.4-0.8,0.8-0.8l4.4,0c0.5,0,0.8,0.4,0.8,0.8S5.7,29.3,5.2,29.3z"
			/>
		<path class="st5" d="M5.2,25.8l-4.4,0C0.4,25.8,0,25.5,0,25c0-0.5,0.4-0.8,0.8-0.8h4.4c0.5,0,0.8,0.4,0.8,0.8
			C6.1,25.5,5.7,25.8,5.2,25.8z"/>
		<path class="st5" d="M5.2,22.3H0.8c-0.5,0-0.8-0.4-0.8-0.8c0-0.5,0.4-0.8,0.8-0.8l4.4,0c0.5,0,0.8,0.4,0.8,0.8S5.7,22.3,5.2,22.3z
			"/>
		<path class="st5" d="M5.2,19.1H0.8c-0.5,0-0.8-0.4-0.8-0.8c0-0.5,0.4-0.8,0.8-0.8h4.4c0.5,0,0.8,0.4,0.8,0.8S5.7,19.1,5.2,19.1z"
			/>
		<path class="st5" d="M5.2,15.6l-4.4,0c-0.5,0-0.8-0.4-0.8-0.8s0.4-0.8,0.8-0.8l4.4,0c0.5,0,0.8,0.4,0.8,0.8
			C6.1,15.2,5.7,15.6,5.2,15.6z"/>
		<path class="st5" d="M5.2,12.1H0.8c-0.5,0-0.8-0.4-0.8-0.8c0-0.5,0.4-0.8,0.8-0.8l4.4,0c0.5,0,0.8,0.4,0.8,0.8S5.7,12.1,5.2,12.1z
			"/>
		<path class="st5" d="M5.2,8.8l-4.4,0C0.4,8.8,0,8.5,0,8c0-0.5,0.4-0.8,0.8-0.8l4.4,0c0.5,0,0.8,0.4,0.8,0.8S5.7,8.8,5.2,8.8z"/>
		<path class="st5" d="M49.2,42.8l-4.4,0c-0.5,0-0.8-0.4-0.8-0.8s0.4-0.8,0.8-0.8h4.4c0.5,0,0.8,0.4,0.8,0.8S49.6,42.8,49.2,42.8z"
			/>
		<path class="st5" d="M49.2,39.6h-4.4c-0.5,0-0.8-0.4-0.8-0.8s0.4-0.8,0.8-0.8l4.4,0c0.5,0,0.8,0.4,0.8,0.8S49.6,39.6,49.2,39.6z"
			/>
		<path class="st5" d="M49.2,36.1h-4.4c-0.5,0-0.8-0.4-0.8-0.8s0.4-0.8,0.8-0.8h4.4c0.5,0,0.8,0.4,0.8,0.8S49.6,36.1,49.2,36.1z"/>
		<path class="st5" d="M49.2,32.6h-4.4c-0.5,0-0.8-0.4-0.8-0.8s0.4-0.8,0.8-0.8h4.4c0.5,0,0.8,0.4,0.8,0.8S49.6,32.6,49.2,32.6z"/>
		<path class="st5" d="M49.2,29.3l-4.4,0c-0.5,0-0.8-0.4-0.8-0.8s0.4-0.8,0.8-0.8h4.4c0.5,0,0.8,0.4,0.8,0.8S49.6,29.3,49.2,29.3z"
			/>
		<path class="st5" d="M49.2,25.8h-4.4c-0.5,0-0.8-0.4-0.8-0.8s0.4-0.8,0.8-0.8h4.4c0.5,0,0.8,0.4,0.8,0.8S49.6,25.8,49.2,25.8z"/>
		<path class="st5" d="M49.2,22.3l-4.4,0c-0.5,0-0.8-0.4-0.8-0.8s0.4-0.8,0.8-0.8h4.4c0.5,0,0.8,0.4,0.8,0.8S49.6,22.3,49.2,22.3z"
			/>
		<path class="st5" d="M49.2,19.1h-4.4c-0.5,0-0.8-0.4-0.8-0.8c0-0.5,0.4-0.8,0.8-0.8l4.4,0c0.5,0,0.8,0.4,0.8,0.8
			S49.6,19.1,49.2,19.1z"/>
		<path class="st5" d="M49.2,15.6l-4.4,0c-0.5,0-0.8-0.4-0.8-0.8s0.4-0.8,0.8-0.8h4.4c0.5,0,0.8,0.4,0.8,0.8S49.6,15.6,49.2,15.6z"
			/>
		<path class="st5" d="M49.2,12.1l-4.4,0c-0.5,0-0.8-0.4-0.8-0.8c0-0.5,0.4-0.8,0.8-0.8l4.4,0c0.5,0,0.8,0.4,0.8,0.8
			C50,11.7,49.6,12.1,49.2,12.1z"/>
		<path class="st5" d="M49.2,8.8l-4.4,0c-0.5,0-0.8-0.4-0.8-0.8c0-0.5,0.4-0.8,0.8-0.8l4.4,0C49.6,7.2,50,7.5,50,8
			C50,8.5,49.6,8.8,49.2,8.8z"/>
		<path class="st5" d="M44.8,45.2l-39,0c-0.5,0-0.8-0.4-0.8-0.8l0-39c0-0.5,0.4-0.8,0.8-0.8l39,0c0.5,0,0.8,0.4,0.8,0.8l0,39
			C45.6,44.8,45.2,45.2,44.8,45.2z M6.6,43.5l37.3,0l0-37.3l-37.3,0L6.6,43.5z"/>
		<path class="st5" d="M40.4,40.8l-30.2,0c-0.5,0-0.8-0.4-0.8-0.8l0-30.2c0-0.5,0.4-0.8,0.8-0.8l30.2,0c0.5,0,0.8,0.4,0.8,0.8
			l0,30.2C41.2,40.4,40.8,40.8,40.4,40.8z M11,39.1l28.5,0l0-28.5l-28.5,0L11,39.1z"/>
		<g>
			<path class="st5" d="M38.2,24.9c0-7.1-5.8-12.9-12.9-12.9c-2.5,0-4.8,0.7-6.7,1.9c-0.3-0.2-0.6-0.3-1-0.3c-1,0-1.8,0.8-1.8,1.8
				c0,0.3,0.1,0.5,0.2,0.7c-2.1,2.3-3.4,5.4-3.4,8.7c0,7.1,5.8,12.9,12.9,12.9c4.6,0,8.6-2.4,10.9-6c0.1,0,0.1,0,0.2,0
				c1,0,1.8-0.8,1.8-1.8c0-0.5-0.2-1-0.5-1.3C38,27.5,38.2,26.2,38.2,24.9z M17.5,14.6c0.4,0,0.8,0.4,0.8,0.8c0,0.2-0.1,0.3-0.2,0.4
				c-0.1,0.1-0.2,0.2-0.3,0.3c-0.1,0-0.2,0.1-0.3,0.1c-0.4,0-0.8-0.4-0.8-0.8c0-0.1,0-0.1,0-0.2C16.8,14.9,17.1,14.6,17.5,14.6z
				 M36.9,30.5c-0.1,0.1-0.3,0.2-0.5,0.2c-0.4,0-0.7-0.3-0.8-0.7c0,0,0-0.1,0-0.1c0-0.3,0.2-0.5,0.4-0.7c0.1-0.1,0.3-0.1,0.4-0.1
				c0.4,0,0.8,0.4,0.8,0.8c0,0,0,0,0,0C37.1,30.2,37,30.4,36.9,30.5z M36.3,28.1c-1,0-1.8,0.8-1.8,1.8c0,0.4,0.2,0.9,0.4,1.2
				c-2.1,3.2-5.6,5.2-9.7,5.2c-6.4,0-11.5-5.2-11.5-11.5c0-3,1.2-5.7,3.1-7.8c0.2,0.1,0.4,0.1,0.7,0.1c1,0,1.8-0.8,1.8-1.8
				c0-0.1,0-0.2,0-0.4c1.7-1.1,3.8-1.7,6-1.7c6.4,0,11.5,5.2,11.5,11.5C36.8,26,36.6,27.1,36.3,28.1C36.3,28.1,36.3,28.1,36.3,28.1z
				"/>
			<path class="st5" d="M25.3,17.2c-4.1,0-7.5,3.3-7.6,7.4c-0.7,0.3-1.1,0.9-1.1,1.7c0,1,0.8,1.8,1.8,1.8c0,0,0,0,0.1,0
				c1.2,2.6,3.8,4.3,6.9,4.3c4.2,0,7.6-3.4,7.6-7.6S29.5,17.2,25.3,17.2z M17.6,26.3c0-0.2,0.1-0.3,0.2-0.5c0.1-0.2,0.4-0.3,0.6-0.3
				c0.1,0,0.3,0,0.4,0.1c0.2,0.1,0.4,0.4,0.4,0.7c0,0.2-0.1,0.3-0.2,0.5c-0.1,0.2-0.4,0.3-0.6,0.3c-0.1,0-0.3,0-0.4-0.1
				C17.7,26.9,17.6,26.6,17.6,26.3z M25.3,31.4c-2.6,0-4.8-1.5-5.9-3.6c0.5-0.3,0.8-0.9,0.8-1.5c0-0.9-0.6-1.6-1.5-1.8
				c0.2-3.5,3.1-6.3,6.6-6.3c3.6,0,6.6,3,6.6,6.6S28.9,31.4,25.3,31.4z"/>
			<path class="st5" d="M25.3,21.9c-1.6,0-2.9,1.3-2.9,2.9c0,1.6,1.3,2.9,2.9,2.9c1.6,0,2.9-1.3,2.9-2.9
				C28.2,23.2,26.9,21.9,25.3,21.9z M25.3,26.7c-1,0-1.9-0.9-1.9-1.9c0-1,0.9-1.9,1.9-1.9c1,0,1.9,0.9,1.9,1.9
				C27.2,25.9,26.3,26.7,25.3,26.7z"/>
			<path class="st5" d="M26.2,20.4c0.8,0.3,1.5,0.7,2.1,1.3l0.5-0.5c-0.7-0.7-1.5-1.2-2.4-1.5L26.2,20.4z"/>
			<path class="st5" d="M32.1,17.7c-1.2-1.2-2.7-2.1-4.3-2.6l-0.2,0.7c1.5,0.5,2.9,1.3,4,2.4L32.1,17.7z"/>
		</g>
	</g>
</g>
</svg>
