<?xml version="1.0" encoding="utf-8"?>
<!-- Generator: Adobe Illustrator 26.0.3, SVG Export Plug-In . SVG Version: 6.00 Build 0)  -->
<svg version="1.1" xmlns="http://www.w3.org/2000/svg" xmlns:xlink="http://www.w3.org/1999/xlink" x="0px" y="0px"
	 viewBox="0 0 50 50" style="enable-background:new 0 0 50 50;" xml:space="preserve">
<style type="text/css">
	.st0{fill:none;}
	.st1{fill:#FCAF1A;}
	.st2{font-family:'Roboto-Regular';}
	.st3{font-size:6px;}
	.st4{fill:#592C82;}
	.st5{fill:#602B7D;}
	.st6{fill:#5A2A82;}
	.st7{fill:none;stroke:#602B7D;stroke-width:1.2262;stroke-linecap:round;stroke-miterlimit:10;}
	.st8{fill:none;stroke:#602B7D;stroke-width:1.5941;stroke-linecap:round;stroke-linejoin:round;stroke-miterlimit:10;}
	.st9{display:none;}
	.st10{display:inline;}
	.st11{display:inline;fill:#5A2A82;}
	.st12{display:none;fill:#602B7D;}
	.st13{fill:none;stroke:#5A2A82;stroke-miterlimit:10;}
	.st14{fill:none;stroke:#5A2A82;stroke-width:2;stroke-miterlimit:10;}
</style>
<g id="Title__x26__Guide">
</g>
<g id="Icons">
	<g>
		<g>
			<path class="st4" d="M45.5,40.9H41c-1.2,0-2.6-1-3-2.4H12.3c-0.3,1.4-1.5,2.4-3,2.4H4.9c-1.8,0-3.2-1.4-3.2-3.1V24.4
				c0-0.1,0-0.3,0.1-0.4l1.9-2.8H2c-1.2,0-1.9-1-1.9-1.9c0-2.5,1.7-4.2,4.2-4.2h3.3l2.7-4.2c0.6-1.1,2-1.9,3.6-1.9h22.8
				c1.5,0,2.8,0.7,3.6,1.9l2.7,4.2h2.8c2.5,0,4.3,1.8,4.3,4.2c0,1-0.9,1.9-1.8,1.9h-1.4l2,2.8c0.1,0.1,0.1,0.2,0.1,0.4v13.4
				C48.8,39.4,47.3,40.9,45.5,40.9z M11.7,37.1h26.9c0.4,0,0.7,0.3,0.7,0.7c0,0.9,1,1.7,1.7,1.7h4.5c1,0,2-0.8,2-1.7V24.6L44.9,21
				c-0.1-0.2-0.2-0.5,0-0.7s0.3-0.4,0.6-0.4h2.7c0.1,0,0.4-0.3,0.4-0.6c0-1.7-1.2-2.8-3-2.8h-3.2c-0.2,0-0.4-0.1-0.6-0.3L39,11.7
				c-0.5-0.8-1.4-1.3-2.5-1.3H13.8c-1.1,0-2.1,0.5-2.4,1.2l-2.9,4.5c-0.1,0.2-0.3,0.3-0.6,0.3H4.2c-1.7,0-2.8,1.1-2.8,2.8
				c0,0.2,0.2,0.6,0.6,0.6h2.9c0.2,0,0.5,0.1,0.6,0.4c0.1,0.2,0.1,0.5,0,0.7L3,24.6v13.2c0,0.9,0.9,1.7,1.9,1.7h4.4
				c1.1,0,1.7-0.9,1.7-1.7C11,37.4,11.3,37.1,11.7,37.1z"/>
		</g>
		<g>
			<path class="st4" d="M13.9,28.3c0,0-0.1,0-0.1,0L7,27.7c-0.8-0.1-1.4-0.8-1.4-1.6v-1.4c0-0.5,0.2-0.9,0.5-1.1
				c0.3-0.3,0.8-0.4,1.2-0.3l6.9,1.4c0.8,0.2,1.3,0.9,1.3,1.6v0.5c0,0.4-0.2,0.9-0.5,1.1C14.7,28.2,14.3,28.3,13.9,28.3z M7.1,24.5
				L7,24.7v1.4c0,0.2,0.1,0.3,0.2,0.3l6.7,0.6c0.1,0,0.2,0,0.3-0.1c0,0,0.1-0.1,0.1-0.2v-0.5c0-0.1-0.2-0.3-0.3-0.3L7.1,24.5z"/>
		</g>
		<g>
			<path class="st4" d="M41.5,20.7h-33c-0.3,0-0.5-0.1-0.6-0.4c-0.1-0.2-0.1-0.5,0.1-0.7l4.9-6.9c0.5-0.7,1.3-1.1,2.1-1.1h19.9
				c0.8,0,1.7,0.4,2.1,1.1l4.9,6.8c0.1,0.2,0.2,0.5,0.1,0.7C42,20.5,41.7,20.7,41.5,20.7z M9.8,19.3h30.4L36,13.5
				c-0.2-0.3-0.6-0.5-1.1-0.5H15c-0.4,0-0.8,0.2-1.1,0.5L9.8,19.3z"/>
		</g>
		<g>
			<path class="st4" d="M36.1,28.3c-0.4,0-0.8-0.2-1.1-0.4c-0.3-0.3-0.5-0.7-0.5-1.1v-0.5c0-0.8,0.7-1.5,1.3-1.6l6.9-1.4
				c0.4-0.1,0.9,0,1.2,0.3c0.3,0.3,0.5,0.7,0.5,1.2v1.4c0,0.8-0.6,1.5-1.4,1.6l-6.8,0.6C36.2,28.3,36.1,28.3,36.1,28.3z M42.9,24.5
				L36,25.9c-0.1,0-0.3,0.2-0.3,0.3v0.5c0,0.1,0,0.1,0.1,0.2C35.9,27,36,27,36.1,27l6.7-0.6c0.1,0,0.2-0.1,0.2-0.3v-1.4L42.9,24.5z"
				/>
		</g>
		<g>
			<path class="st4" d="M36.5,33.9h-23c-0.6,0-1-0.5-1-1s0.5-1,1-1h23c0.6,0,1,0.5,1,1S37.1,33.9,36.5,33.9z"/>
		</g>
	</g>
</g>
</svg>
