<?xml version="1.0" encoding="utf-8"?>
<!-- Generator: Adobe Illustrator 26.0.2, SVG Export Plug-In . SVG Version: 6.00 Build 0)  -->
<svg version="1.1" id="Layer_1" xmlns="http://www.w3.org/2000/svg" xmlns:xlink="http://www.w3.org/1999/xlink" x="0px" y="0px"
	 viewBox="0 0 250 150" style="enable-background:new 0 0 250 150;" xml:space="preserve">
<style type="text/css">
	.st0{fill:#5A2A82;}
</style>
<g>
	<path class="st0" d="M119.2,93.9H69.4V55.8h49.7V93.9z M73.2,90.2h42.3V59.5H73.2V90.2z"/>
	<path class="st0" d="M128.2,123.7H70.4v-5.1h-2c-6.5,0-11.9-5.3-11.9-11.9V69.2h-0.4l-13.6,9.9V43.4l14,9.9C56.8,47,62,42,68.4,42
		H109v-1.2h-4.5c-4,0-7.2-3.2-7.2-7.2s3.2-7.2,7.2-7.2h66.5c4,0,7.2,3.2,7.2,7.2s-3.2,7.2-7.2,7.2h-43.3V42h25.1
		c6.5,0,11.9,5.3,11.9,11.9v4.3h5.4c2.2-2.6,6.6-2.6,8.7,0h7.2l22.6-15.9v68.2l-22.6-15.9H178c-2.1,1.8-5.4,1.8-7.5,0h-6v12.2
		c0,6.5-5.3,11.9-11.9,11.9h-24.5V123.7z M74.1,119.9h50.3v-5.1h28.2c4.5,0,8.1-3.6,8.1-8.1V90.8h11.4l0.6,0.7
		c0.8,0.9,2.3,0.9,3.1,0l0.6-0.7h10.7l17.7,12.4V49.5l-17.7,12.4h-10.5l-0.5-1c-0.7-1.3-2.8-1.3-3.5,0l-0.5,1h-11.2v-8
		c0-4.5-3.6-8.1-8.1-8.1h-28.8v-8.7h47c1.9,0,3.5-1.6,3.5-3.5s-1.6-3.5-3.5-3.5h-66.5c-1.9,0-3.5,1.6-3.5,3.5s1.6,3.5,3.5,3.5h8.3
		v8.7H68.4c-4.5,0-8.1,3.6-8.1,8.1v3.3h-5.3l-8.6-6.3v20.9l8.6-6.3h5.3v41.2c0,4.5,3.6,8.1,8.1,8.1h5.8V119.9z"/>
</g>
</svg>
