<?xml version="1.0" encoding="utf-8"?>
<!-- Generator: Adobe Illustrator 22.0.1, SVG Export Plug-In . SVG Version: 6.00 Build 0)  -->
<svg version="1.1" id="Layer_1" xmlns="http://www.w3.org/2000/svg" xmlns:xlink="http://www.w3.org/1999/xlink" x="0px" y="0px"
	 viewBox="0 0 1600 960" style="enable-background:new 0 0 1600 960;" xml:space="preserve">
<style type="text/css">
	.st0{fill:#8347AD;}
	.st1{fill:#E17727;}
	.st2{fill:#55C6F2;}
</style>
<g>
	<path class="st0" d="M799.7,569.5c-36.7,0-72.3-13-100.5-36.6l-7.2-6.1l7.5-5.6c14.4-10.8,34.8-18.8,59.2-23.1c0-4.4,0-9,0.1-13.7
		c0-3.6-2.5-8.4-5.2-13.5c-3.5-6.6-7.4-14.1-8.2-22.9c-4.4-9.5-6.8-18.8-6.8-26.3c0-4.4,0.9-8.1,2.6-11.2l-2.5-14.3
		c-4.7-26,4.1-44,26.7-55.1c0.3-1.9,0.4-4.8,0.5-6.8c0.4-7.7,0.7-13.8,6.4-16.1l4.5-1.8l4.6,3.8c7.7,7.5,28.3,12.7,39.4,15.5
		c4.2,1.1,7.5,1.9,9.5,2.6l0,0c24.7,8.8,35.5,29.3,30.3,57.8l-2.5,14.3c1.7,3,2.6,6.8,2.6,11.2c0,7.5-2.4,16.8-6.8,26.3
		c-0.8,8.9-4.8,16.6-8.3,23.4c-2.6,5.1-5,9.8-5,13c0,4.7,0,9.3-0.2,13.6c24.6,4.4,45,12.4,59.4,23.2l7.5,5.6l-7.2,6.1
		C872,556.6,836.4,569.5,799.7,569.5z M716.9,527.8c48,34.6,117.5,34.6,165.6,0c-11.8-6.6-27.1-11.8-44.4-14.9
		c-7.6-1.3-12.9-7.9-12.5-15.5c0.2-4.1,0.2-8.4,0.2-12.9c0-6.8,3.3-13.2,6.7-19.9c3.2-6.2,6.5-12.6,6.8-18.9l0.7-2.9
		c3.8-7.9,6-15.6,6-21.1c0-2.4-0.4-3.6-0.8-4l-2.8-2.8l3.7-21.3c3.8-21-3.2-34.8-20.6-41h0c-1.7-0.6-4.5-1.3-8.1-2.2
		c-10.6-2.7-25.3-6.4-36.5-12.5c-0.4,7.3-1.3,13.3-6.7,15.7c-18.3,8.2-24.2,19.8-20.6,40l3.7,21.3l-2.8,2.8c-0.4,0.4-0.8,1.7-0.8,4
		c0,5.6,2.2,13.3,6,21.1l0.7,2.9c0.3,6.1,3.5,12.3,6.6,18.2c3.4,6.5,6.9,13.2,6.9,20.5c0,4.6,0,8.9,0.2,13
		c0.3,7.5-5.1,14.2-12.6,15.5C744.1,516,728.7,521.2,716.9,527.8z"/>
	<path class="st0" d="M799.7,569.5c-86.3,0-156.5-70.3-156.5-156.6s70.2-156.5,156.5-156.5c86.3,0,156.5,70.2,156.5,156.5
		S886,569.5,799.7,569.5z M799.7,271.4c-78.1,0-141.6,63.5-141.6,141.6c0,78.1,63.5,141.6,141.6,141.6
		c78.1,0,141.6-63.5,141.6-141.6C941.3,334.9,877.8,271.4,799.7,271.4z"/>
	<path class="st1" d="M799.7,592.6c-99,0-179.6-80.5-179.6-179.6c0-99,80.5-179.6,179.6-179.6S979.3,314,979.3,413
		C979.3,512,898.7,592.6,799.7,592.6z M799.7,243.4c-93.5,0-169.6,76.1-169.6,169.6c0,93.5,76.1,169.6,169.6,169.6
		S969.3,506.5,969.3,413C969.3,319.5,893.2,243.4,799.7,243.4z"/>
	<path class="st0" d="M983.4,805.8H619.5l17.4-17.1c2-2,50.2-47.9,164.5-47.9c114.3,0,162.5,45.9,164.5,47.9L983.4,805.8z
		 M677.8,785.8h247.3c-23.7-11.7-64-25.1-123.6-25.1C741.8,760.8,701.5,774.1,677.8,785.8z"/>
	<path class="st0" d="M1126.8,670.8h-649c-19.1,0-34-14.3-34-32.5v-450c0-17.9,14.6-32.5,32.5-32.5h649c17.9,0,32.5,14.6,32.5,32.5
		v450C1157.8,655.9,1143.6,670.8,1126.8,670.8z M476.3,175.7c-6.9,0-12.5,5.6-12.5,12.5v450c0,7.3,5.9,12.5,14.1,12.5h649
		c5.2,0,11-5.4,11-12.5v-450c0-6.9-5.6-12.5-12.5-12.5H476.3z"/>
	<polygon class="st0" points="890.2,759.4 870.3,759.4 870.3,670.8 732.7,670.8 732.7,759.4 712.7,759.4 712.7,650.8 890.2,650.8 	
		"/>
	<path class="st2" d="M1109.3,620.6H493.8v-415h615.5V620.6z M503.7,610.6h595.6V215.5H503.7V610.6z"/>
</g>
</svg>
