<?xml version="1.0" encoding="utf-8"?>
<!-- Generator: Adobe Illustrator 22.0.1, SVG Export Plug-In . SVG Version: 6.00 Build 0)  -->
<svg version="1.1" id="Layer_1" xmlns="http://www.w3.org/2000/svg" xmlns:xlink="http://www.w3.org/1999/xlink" x="0px" y="0px"
	 viewBox="0 0 1600 960" style="enable-background:new 0 0 1600 960;" xml:space="preserve">
<style type="text/css">
	.st0{fill:#50C7F3;}
	.st1{fill:#E37827;}
	.st2{fill:#8347AD;}
	.st3{fill:#FACE14;}
</style>
<g>
	<rect x="651.8" y="565.3" class="st0" width="299.8" height="19.9"/>
	<rect x="651.8" y="505.5" class="st0" width="299.8" height="19.9"/>
	<rect x="651.8" y="256.4" class="st1" width="235.1" height="19.9"/>
	<rect x="860.5" y="445.7" class="st0" width="91.2" height="19.9"/>
	<rect x="860.5" y="385.9" class="st0" width="91.2" height="19.9"/>
	<rect x="860.5" y="326.1" class="st0" width="91.2" height="19.9"/>
	<rect x="651.8" y="625.1" class="st0" width="299.8" height="19.9"/>
	<rect x="651.8" y="684.9" class="st0" width="200.2" height="19.9"/>
	<path class="st2" d="M1055,805H545V155h387.5L1055,277.5V805z M564.9,785.1h470.1V285.8L924.2,174.9H564.9V785.1z"/>
	<polygon class="st2" points="1045,291.6 918.4,291.6 918.4,165 938.3,165 938.3,271.7 1045,271.7 	"/>
	<polygon class="st3" points="999.8,750.2 599.8,750.2 599.8,209.1 888.5,209.1 888.5,199.2 589.9,199.2 589.9,760.2 1009.8,760.2 
		1009.8,321.5 999.8,321.5 	"/>
	<path class="st2" d="M811.7,463.3H654.3V328h157.4V463.3z M669.7,447.9h126.6V343.4H669.7V447.9z"/>
</g>
</svg>
