<?xml version="1.0" encoding="utf-8"?>
<!-- Generator: Adobe Illustrator 27.1.1, SVG Export Plug-In . SVG Version: 6.00 Build 0)  -->
<svg version="1.1" id="Layer_1" xmlns="http://www.w3.org/2000/svg" xmlns:xlink="http://www.w3.org/1999/xlink" x="0px" y="0px"
	 viewBox="0 0 1600 960" style="enable-background:new 0 0 1600 960;" xml:space="preserve">
<style type="text/css">
	.st0{fill:#7E45AF;}
	.st1{clip-path:url(#SVGID_00000009586613365064834940000014059025882060131973_);}
	.st2{clip-path:url(#SVGID_00000031197501965947256070000015125709502212982407_);}
	.st3{fill:#56C7F3;}
	.st4{clip-path:url(#SVGID_00000114769509149493312200000011965621819940306560_);}
	.st5{fill:#E37820;}
	.st6{clip-path:url(#SVGID_00000008830884240963222990000015549495943920709304_);}
	.st7{clip-path:url(#SVGID_00000051367356868577612540000001677062097027564416_);}
	.st8{clip-path:url(#SVGID_00000152944178452564110400000010389536011860727219_);}
</style>
<g>
	<g>
		<g>
			<path id="SVGID_1_" class="st0" d="M730.6,587.1c-11.1-43.3-17-92.9-17-143.4c0-50.9,6-100.8,17.2-144.3l14.5,3.8
				c-11,42.3-16.8,90.9-16.8,140.5c0,49.3,5.7,97.6,16.5,139.7L730.6,587.1z"/>
		</g>
		<g>
			<defs>
				<path id="SVGID_00000129923284573555238670000000972405468936158911_" d="M730.6,587.1c-11.1-43.3-17-92.9-17-143.4
					c0-50.9,6-100.8,17.2-144.3l14.5,3.8c-11,42.3-16.8,90.9-16.8,140.5c0,49.3,5.7,97.6,16.5,139.7L730.6,587.1z"/>
			</defs>
			<use xlink:href="#SVGID_00000129923284573555238670000000972405468936158911_"  style="overflow:visible;fill:#7E45AF;"/>
			<clipPath id="SVGID_00000166662847447973454140000008085652225302314647_">
				<use xlink:href="#SVGID_00000129923284573555238670000000972405468936158911_"  style="overflow:visible;"/>
			</clipPath>
			<g style="clip-path:url(#SVGID_00000166662847447973454140000008085652225302314647_);">
				<polygon class="st0" points="658.6,953.6 582.7,881.7 643,1020.1 				"/>
				<polygon class="st0" points="582.7,881.7 560.1,1020.1 643,1020.1 				"/>
				<polygon class="st0" points="728.4,773.9 691.6,669.9 607.6,733.5 				"/>
				<polygon class="st0" points="582.7,881.7 607.6,733.5 560.1,795.8 				"/>
				<polygon class="st0" points="582.7,881.7 560.1,795.8 560.1,923.6 				"/>
				<polygon class="st0" points="735.2,573.2 632.7,548.5 691.6,669.9 				"/>
				<polygon class="st0" points="735.2,573.2 656,472.3 632.7,548.5 				"/>
				<polygon class="st0" points="608.1,422.7 638.1,337.1 560.1,330.2 				"/>
				<polygon class="st0" points="632.7,548.5 608.1,422.7 559.9,523.8 				"/>
				<polygon class="st0" points="658.6,953.6 643,1020.1 717.5,1020.1 				"/>
				<polygon class="st0" points="691.6,669.9 632.7,548.5 560.1,632.4 560.1,632.4 				"/>
				<polygon class="st0" points="607.6,733.5 691.6,669.9 560.1,632.4 560.1,632.4 				"/>
				<polygon class="st0" points="628.3,269.3 620.6,218.3 560.1,330.2 				"/>
				<polygon class="st0" points="728.4,773.9 607.6,733.5 698.8,857.9 				"/>
				<polygon class="st0" points="698.8,857.9 607.6,733.5 582.7,881.7 				"/>
				<polygon class="st0" points="751.7,866 728.4,773.9 698.8,857.9 				"/>
				<polygon class="st0" points="658.6,953.6 698.8,857.9 582.7,881.7 				"/>
				<polygon class="st0" points="560.1,330.2 628.3,269.3 638.1,337.1 				"/>
				<polygon class="st0" points="717.5,1020.1 775.5,1020.1 761.2,944 				"/>
				<polygon class="st0" points="560.1,330.2 620.6,218.3 560.1,218.3 				"/>
				<polygon class="st0" points="560.1,1020.1 582.7,881.7 560.1,923.6 				"/>
				<polygon class="st0" points="560.1,330.2 559.9,523.8 608.1,422.7 				"/>
				<polygon class="st0" points="607.6,733.5 560.1,795.8 560.1,632.4 				"/>
				<polygon class="st0" points="735.8,285.7 789.3,323 770.9,218.3 				"/>
				<polygon class="st0" points="789.3,323 841.6,218.3 770.9,218.3 				"/>
				<polygon class="st0" points="789.3,323 841.6,446.4 841.6,314.1 				"/>
				<polygon class="st0" points="722.9,429.1 656,472.3 760,522.7 				"/>
				<polygon class="st0" points="728.4,773.9 751.7,866 841.6,901.6 				"/>
				<polygon class="st0" points="691.6,669.9 728.4,773.9 781.6,627.6 				"/>
				<polygon class="st0" points="735.2,573.2 781.6,627.6 760,522.7 				"/>
				<polygon class="st0" points="735.8,285.7 770.8,218.3 678.1,218.3 				"/>
				<polygon class="st0" points="628.3,269.3 638.1,337.1 735.8,285.7 				"/>
				<polygon class="st0" points="735.8,285.7 678.1,218.3 628.3,269.3 				"/>
				<polygon class="st0" points="775.5,1020.1 819.9,1020.1 841.6,901.6 				"/>
				<polygon class="st0" points="638.1,337.1 608.1,422.7 696.3,381.4 				"/>
				<polygon class="st0" points="735.8,285.7 696.3,381.4 759.5,373.8 				"/>
				<polygon class="st0" points="781.6,627.6 841.6,639.5 841.6,446.4 				"/>
				<polygon class="st0" points="760,522.7 781.6,627.6 841.6,446.4 				"/>
				<polygon class="st0" points="638.1,337.1 696.3,381.4 735.8,285.7 				"/>
				<polygon class="st0" points="841.6,901.6 761.2,944 751.7,866 				"/>
				<polygon class="st0" points="678.1,218.3 620.6,218.3 628.3,269.3 				"/>
				<polygon class="st0" points="841.6,901.6 819.9,1020.1 841.6,1020.1 				"/>
				<polygon class="st0" points="841.6,218.3 789.3,323 841.6,314.1 				"/>
				<polygon class="st0" points="841.6,901.6 841.6,799.2 728.4,773.9 				"/>
				<polygon class="st0" points="728.4,773.9 841.6,799.2 841.6,712.1 				"/>
				<polygon class="st0" points="781.6,627.6 728.4,773.9 841.6,712.1 				"/>
				<polygon class="st0" points="691.6,669.9 781.6,627.6 735.2,573.2 				"/>
				<polygon class="st0" points="775.5,1020.1 761.2,944 841.6,901.6 				"/>
				<polygon class="st0" points="735.2,573.2 656,472.3 760,522.7 				"/>
				<polygon class="st0" points="560.1,632.4 559.9,523.8 632.7,548.5 				"/>
				<polygon class="st0" points="656,472.3 608.1,422.7 632.7,548.5 				"/>
				<polygon class="st0" points="722.9,429.1 696.3,381.4 656,472.3 				"/>
				<polygon class="st0" points="722.9,429.1 841.6,446.4 760,522.7 				"/>
				<polygon class="st0" points="722.9,429.1 759.5,373.8 696.3,381.4 				"/>
				<polygon class="st0" points="759.5,373.8 841.6,446.4 789.3,323 				"/>
				<polygon class="st0" points="722.9,429.1 759.5,373.8 841.6,446.4 				"/>
				<polygon class="st0" points="706.9,931.8 761.2,944 751.7,866 				"/>
				<polygon class="st0" points="706.9,931.8 751.7,866 698.8,857.9 				"/>
				<polygon class="st0" points="761.2,944 706.9,931.8 717.5,1020.1 				"/>
				<polygon class="st0" points="706.9,931.8 698.8,857.9 658.6,953.6 				"/>
				<polygon class="st0" points="717.5,1020.1 706.9,931.8 658.6,953.6 				"/>
				<polygon class="st0" points="608.1,422.7 696.3,381.4 656,472.3 				"/>
				<polygon class="st0" points="759.5,373.8 789.3,323 735.8,285.7 				"/>
				<polygon class="st0" points="841.6,639.5 781.6,627.6 841.6,712.1 				"/>
			</g>
		</g>
	</g>
	<g>
		<g>
			<path id="SVGID_00000038375836028077588040000004317545614608700554_" class="st0" d="M686,567c-8.2-38.6-12.3-80.1-12.3-123.3
				c0-43.5,4.2-85.2,12.4-124l14.6,3.1c-8,37.8-12.1,78.4-12.1,120.8c0,42.2,4,82.6,12,120.2L686,567z"/>
		</g>
		<g>
			<defs>
				<path id="SVGID_00000152961206660176260240000008146777307065930141_" d="M686,567c-8.2-38.6-12.3-80.1-12.3-123.3
					c0-43.5,4.2-85.2,12.4-124l14.6,3.1c-8,37.8-12.1,78.4-12.1,120.8c0,42.2,4,82.6,12,120.2L686,567z"/>
			</defs>
			<use xlink:href="#SVGID_00000152961206660176260240000008146777307065930141_"  style="overflow:visible;fill:#7E45AF;"/>
			<clipPath id="SVGID_00000139277013323423436250000002899907423193109124_">
				<use xlink:href="#SVGID_00000152961206660176260240000008146777307065930141_"  style="overflow:visible;"/>
			</clipPath>
			<g style="clip-path:url(#SVGID_00000139277013323423436250000002899907423193109124_);">
				<polygon class="st0" points="578,940.4 502,868.4 562.3,1006.9 				"/>
				<polygon class="st0" points="502,868.4 479.4,1006.9 562.3,1006.9 				"/>
				<polygon class="st0" points="647.7,760.7 611,656.7 526.9,720.3 				"/>
				<polygon class="st0" points="502,868.4 526.9,720.3 479.4,782.6 				"/>
				<polygon class="st0" points="502,868.4 479.4,782.6 479.4,910.4 				"/>
				<polygon class="st0" points="654.5,560 552,535.3 611,656.7 				"/>
				<polygon class="st0" points="654.5,560 575.4,459.1 552,535.3 				"/>
				<polygon class="st0" points="527.4,409.5 557.5,323.9 479.4,316.9 				"/>
				<polygon class="st0" points="552,535.3 527.4,409.5 479.3,510.6 				"/>
				<polygon class="st0" points="578,940.4 562.4,1006.9 636.8,1006.9 				"/>
				<polygon class="st0" points="611,656.7 552,535.3 479.4,619.2 479.4,619.2 				"/>
				<polygon class="st0" points="526.9,720.3 611,656.7 479.4,619.2 479.4,619.2 				"/>
				<polygon class="st0" points="547.7,256.1 539.9,205.1 479.4,316.9 				"/>
				<polygon class="st0" points="647.7,760.7 526.9,720.3 618.1,844.7 				"/>
				<polygon class="st0" points="618.1,844.7 526.9,720.3 502,868.4 				"/>
				<polygon class="st0" points="671,852.8 647.7,760.7 618.1,844.7 				"/>
				<polygon class="st0" points="578,940.4 618.1,844.7 502,868.4 				"/>
				<polygon class="st0" points="479.4,316.9 547.7,256.1 557.5,323.9 				"/>
				<polygon class="st0" points="636.8,1006.9 694.9,1006.9 680.5,930.8 				"/>
				<polygon class="st0" points="479.4,316.9 539.9,205.1 479.4,205.1 				"/>
				<polygon class="st0" points="479.4,1006.9 502,868.4 479.4,910.4 				"/>
				<polygon class="st0" points="479.4,316.9 479.3,510.6 527.4,409.5 				"/>
				<polygon class="st0" points="526.9,720.3 479.4,782.6 479.4,619.2 				"/>
				<polygon class="st0" points="655.1,272.5 708.6,309.8 690.2,205.1 				"/>
				<polygon class="st0" points="708.6,309.8 760.9,205.1 690.2,205.1 				"/>
				<polygon class="st0" points="708.6,309.8 760.9,433.2 760.9,300.9 				"/>
				<polygon class="st0" points="642.3,415.9 575.4,459.1 679.3,509.5 				"/>
				<polygon class="st0" points="647.7,760.7 671,852.8 760.9,888.4 				"/>
				<polygon class="st0" points="611,656.7 647.7,760.7 700.9,614.4 				"/>
				<polygon class="st0" points="654.5,560 700.9,614.4 679.3,509.5 				"/>
				<polygon class="st0" points="655.1,272.5 690.1,205.1 597.5,205.1 				"/>
				<polygon class="st0" points="547.7,256.1 557.5,323.9 655.1,272.5 				"/>
				<polygon class="st0" points="655.1,272.5 597.5,205.1 547.7,256.1 				"/>
				<polygon class="st0" points="694.9,1006.9 739.2,1006.9 760.9,888.4 				"/>
				<polygon class="st0" points="557.5,323.9 527.4,409.5 615.6,368.2 				"/>
				<polygon class="st0" points="655.1,272.5 615.6,368.2 678.8,360.6 				"/>
				<polygon class="st0" points="700.9,614.4 760.9,626.3 760.9,433.2 				"/>
				<polygon class="st0" points="679.3,509.5 700.9,614.4 760.9,433.2 				"/>
				<polygon class="st0" points="557.5,323.9 615.6,368.2 655.1,272.5 				"/>
				<polygon class="st0" points="760.9,888.4 680.5,930.8 671,852.8 				"/>
				<polygon class="st0" points="597.5,205.1 539.9,205.1 547.7,256.1 				"/>
				<polygon class="st0" points="760.9,888.4 739.2,1006.9 760.9,1006.9 				"/>
				<polygon class="st0" points="760.9,205.1 708.6,309.8 760.9,300.9 				"/>
				<polygon class="st0" points="760.9,888.4 760.9,786 647.7,760.7 				"/>
				<polygon class="st0" points="647.7,760.7 760.9,786 760.9,698.9 				"/>
				<polygon class="st0" points="700.9,614.4 647.7,760.7 760.9,698.9 				"/>
				<polygon class="st0" points="611,656.7 700.9,614.4 654.5,560 				"/>
				<polygon class="st0" points="694.9,1006.9 680.5,930.8 760.9,888.4 				"/>
				<polygon class="st0" points="654.5,560 575.4,459.1 679.3,509.5 				"/>
				<polygon class="st0" points="479.4,619.2 479.3,510.6 552,535.3 				"/>
				<polygon class="st0" points="575.4,459.1 527.4,409.5 552,535.3 				"/>
				<polygon class="st0" points="642.3,415.9 615.6,368.2 575.4,459.1 				"/>
				<polygon class="st0" points="642.3,415.9 760.9,433.2 679.3,509.5 				"/>
				<polygon class="st0" points="642.3,415.9 678.8,360.6 615.6,368.2 				"/>
				<polygon class="st0" points="678.8,360.6 760.9,433.2 708.6,309.8 				"/>
				<polygon class="st0" points="642.3,415.9 678.8,360.6 760.9,433.2 				"/>
				<polygon class="st0" points="626.2,918.6 680.5,930.8 671,852.8 				"/>
				<polygon class="st0" points="626.2,918.6 671,852.8 618.1,844.7 				"/>
				<polygon class="st0" points="680.5,930.8 626.2,918.6 636.8,1006.9 				"/>
				<polygon class="st0" points="626.2,918.6 618.1,844.7 578,940.4 				"/>
				<polygon class="st0" points="636.8,1006.9 626.2,918.6 578,940.4 				"/>
				<polygon class="st0" points="527.4,409.5 615.6,368.2 575.4,459.1 				"/>
				<polygon class="st0" points="678.8,360.6 708.6,309.8 655.1,272.5 				"/>
				<polygon class="st0" points="760.9,626.3 700.9,614.4 760.9,698.9 				"/>
			</g>
		</g>
	</g>
	<rect x="543.6" y="591.2" class="st0" width="33.6" height="20"/>
	<rect x="543.6" y="639.6" class="st0" width="33.6" height="20"/>
	<rect x="543.6" y="688.1" class="st0" width="33.6" height="20"/>
	<path class="st0" d="M580.3,805h-75.9c-18.9,0-34.2-15.4-34.2-34.2V542.7h116.9v164.9c0,7.6,2.2,15,6.5,21.4l15.2,22.8
		c7,10.5,7.7,24,1.7,35.1C604.6,798.1,593,805,580.3,805z M490.2,562.7v208.1c0,7.9,6.4,14.3,14.2,14.3h75.9c5.3,0,10-2.8,12.6-7.5
		c2.5-4.7,2.3-10.2-0.7-14.6L577,740.1c-6.4-9.6-9.8-20.9-9.8-32.4v-145L490.2,562.7L490.2,562.7z"/>
	<g>
		<g>
			<path id="SVGID_00000100377428178197717820000011155936247812509840_" class="st3" d="M809.1,538.9l-39.3,0.7l-1.4-8.6
				c-4.4-27.8-6.9-56.7-7.4-86.1c-0.5-29.3,0.9-58.3,4.3-86.3l1-8.6l39.3-0.7c52.3-0.9,95.5,40.8,96.5,93.1S861.3,537.9,809.1,538.9
				z M786.9,519.3l21.8-0.4c41.3-0.7,74.2-34.9,73.5-76.2s-34.9-74.2-76.2-73.5l-21.8,0.4c-2.6,24.4-3.6,49.5-3.2,74.9
				C781.5,470,783.4,495,786.9,519.3z"/>
		</g>
		<g>
			<defs>
				<path id="SVGID_00000127766751668502963030000013851331977142732724_" d="M809.1,538.9l-39.3,0.7l-1.4-8.6
					c-4.4-27.8-6.9-56.7-7.4-86.1c-0.5-29.3,0.9-58.3,4.3-86.3l1-8.6l39.3-0.7c52.3-0.9,95.5,40.8,96.5,93.1
					S861.3,537.9,809.1,538.9z M786.9,519.3l21.8-0.4c41.3-0.7,74.2-34.9,73.5-76.2s-34.9-74.2-76.2-73.5l-21.8,0.4
					c-2.6,24.4-3.6,49.5-3.2,74.9C781.5,470,783.4,495,786.9,519.3z"/>
			</defs>
			<use xlink:href="#SVGID_00000127766751668502963030000013851331977142732724_"  style="overflow:visible;fill:#56C7F3;"/>
			<clipPath id="SVGID_00000040533047428731259310000002864590928818247346_">
				<use xlink:href="#SVGID_00000127766751668502963030000013851331977142732724_"  style="overflow:visible;"/>
			</clipPath>
			<g style="clip-path:url(#SVGID_00000040533047428731259310000002864590928818247346_);">
				<polygon class="st3" points="1135.2,452.1 1064.6,529.4 1202,466.6 				"/>
				<polygon class="st3" points="1064.6,529.4 1203.5,549.5 1202,466.6 				"/>
				<polygon class="st3" points="954.3,385.6 851,424.3 916,507.2 				"/>
				<polygon class="st3" points="1064.6,529.4 916,507.2 979.2,553.5 				"/>
				<polygon class="st3" points="1064.6,529.4 979.2,553.5 1107,551.2 				"/>
				<polygon class="st3" points="753.5,382.5 730.7,485.4 851,424.3 				"/>
				<polygon class="st3" points="753.5,382.5 654.1,463.4 730.7,485.4 				"/>
				<polygon class="st3" points="605.3,512.3 519.2,483.7 513.6,561.9 				"/>
				<polygon class="st3" points="730.7,485.4 605.3,512.3 707.3,558.6 				"/>
				<polygon class="st3" points="1135.2,452.1 1202,466.5 1200.7,392.1 				"/>
				<polygon class="st3" points="851,424.3 730.7,485.4 815.8,556.5 815.8,556.5 				"/>
				<polygon class="st3" points="916,507.2 851,424.3 815.8,556.5 815.8,556.5 				"/>
				<polygon class="st3" points="451.6,494.8 400.7,503.4 513.6,561.9 				"/>
				<polygon class="st3" points="954.3,385.6 916,507.2 1038.8,413.7 				"/>
				<polygon class="st3" points="1038.8,413.7 916,507.2 1064.6,529.4 				"/>
				<polygon class="st3" points="1045.9,360.7 954.3,385.6 1038.8,413.7 				"/>
				<polygon class="st3" points="1135.2,452.1 1038.8,413.7 1064.6,529.4 				"/>
				<polygon class="st3" points="513.6,561.9 451.6,494.8 519.2,483.7 				"/>
				<polygon class="st3" points="1200.7,392.1 1199.6,334 1123.7,349.7 				"/>
				<polygon class="st3" points="513.6,561.9 400.7,503.4 401.8,563.9 				"/>
				<polygon class="st3" points="1203.5,549.5 1064.6,529.4 1107,551.2 				"/>
				<polygon class="st3" points="513.6,561.9 707.3,558.6 605.3,512.3 				"/>
				<polygon class="st3" points="916,507.2 979.2,553.5 815.8,556.5 				"/>
				<polygon class="st3" points="466,387 502.4,332.9 398,353.2 				"/>
				<polygon class="st3" points="502.4,332.9 396.7,282.5 398,353.2 				"/>
				<polygon class="st3" points="502.4,332.9 624.8,278.3 492.5,280.7 				"/>
				<polygon class="st3" points="609.6,397.3 654.1,463.4 702.6,358.6 				"/>
				<polygon class="st3" points="954.3,385.6 1045.9,360.7 1079.9,270.1 				"/>
				<polygon class="st3" points="851,424.3 954.3,385.6 807,335.1 				"/>
				<polygon class="st3" points="753.5,382.5 807,335.1 702.6,358.6 				"/>
				<polygon class="st3" points="466,387 398,353.2 399.7,445.9 				"/>
				<polygon class="st3" points="451.6,494.8 519.2,483.7 466,387 				"/>
				<polygon class="st3" points="466,387 399.7,445.9 451.6,494.8 				"/>
				<polygon class="st3" points="1199.6,334 1198.8,289.7 1079.9,270.1 				"/>
				<polygon class="st3" points="519.2,483.7 605.3,512.3 562.4,424.8 				"/>
				<polygon class="st3" points="466,387 562.4,424.8 553.7,361.8 				"/>
				<polygon class="st3" points="807,335.1 817.9,274.9 624.8,278.3 				"/>
				<polygon class="st3" points="702.6,358.6 807,335.1 624.8,278.3 				"/>
				<polygon class="st3" points="519.2,483.7 562.4,424.8 466,387 				"/>
				<polygon class="st3" points="1079.9,270.1 1123.7,349.7 1045.9,360.7 				"/>
				<polygon class="st3" points="399.7,445.9 400.7,503.4 451.6,494.8 				"/>
				<polygon class="st3" points="1079.9,270.1 1198.8,289.7 1198.4,268 				"/>
				<polygon class="st3" points="396.7,282.5 502.4,332.9 492.5,280.7 				"/>
				<polygon class="st3" points="1079.9,270.1 977.5,272 954.3,385.6 				"/>
				<polygon class="st3" points="954.3,385.6 977.5,272 890.4,273.5 				"/>
				<polygon class="st3" points="807,335.1 954.3,385.6 890.4,273.5 				"/>
				<polygon class="st3" points="851,424.3 807,335.1 753.5,382.5 				"/>
				<polygon class="st3" points="1199.6,334 1123.7,349.7 1079.9,270.1 				"/>
				<polygon class="st3" points="753.5,382.5 654.1,463.4 702.6,358.6 				"/>
				<polygon class="st3" points="815.8,556.5 707.3,558.6 730.7,485.4 				"/>
				<polygon class="st3" points="654.1,463.4 605.3,512.3 730.7,485.4 				"/>
				<polygon class="st3" points="609.6,397.3 562.4,424.8 654.1,463.4 				"/>
				<polygon class="st3" points="609.6,397.3 624.8,278.3 702.6,358.6 				"/>
				<polygon class="st3" points="609.6,397.3 553.7,361.8 562.4,424.8 				"/>
				<polygon class="st3" points="553.7,361.8 624.8,278.3 502.4,332.9 				"/>
				<polygon class="st3" points="609.6,397.3 553.7,361.8 624.8,278.3 				"/>
				<polygon class="st3" points="1112.6,404.3 1123.7,349.7 1045.9,360.7 				"/>
				<polygon class="st3" points="1112.6,404.3 1045.9,360.7 1038.8,413.7 				"/>
				<polygon class="st3" points="1123.7,349.7 1112.6,404.3 1200.7,392.1 				"/>
				<polygon class="st3" points="1112.6,404.3 1038.8,413.7 1135.2,452.1 				"/>
				<polygon class="st3" points="1200.7,392.1 1112.6,404.3 1135.2,452.1 				"/>
				<polygon class="st3" points="605.3,512.3 562.4,424.8 654.1,463.4 				"/>
				<polygon class="st3" points="553.7,361.8 502.4,332.9 466,387 				"/>
				<polygon class="st3" points="817.9,274.9 807,335.1 890.4,273.5 				"/>
			</g>
		</g>
	</g>
	<path class="st0" d="M892.2,732.3c-35.7,0-68.7-29.8-93.2-83.9c-46.6-54.5-114.1-85.7-185.5-85.7H468.1c-65.6,0-119-53.4-119-119
		s53.4-119,119-119h145.4c71.4,0,138.9-31.2,185.5-85.7c24.4-54.1,57.5-83.9,93.2-83.9c73.5,0,131.1,126.8,131.1,288.6
		S965.7,732.3,892.2,732.3z M468.1,344.6c-54.6,0-99.1,44.4-99.1,99.1c0,54.6,44.4,99.1,99.1,99.1h145.4
		c77.8,0,151.3,34.2,201.7,93.8l1.5,2.4c20.8,46.7,48.3,73.4,75.5,73.4c60.3,0,111.2-123,111.2-268.7S952.4,175,892.2,175
		c-27.2,0-54.7,26.8-75.5,73.4l-1.5,2.4c-50.4,59.6-123.9,93.8-201.7,93.8L468.1,344.6L468.1,344.6z"/>
	<path class="st0" d="M897.4,732.3C823.8,733.6,764,607.8,761.1,446S813.5,156.4,887,155s133.4,124.4,136.3,286.2
		C1026.2,603.1,970.9,730.9,897.4,732.3z M887.3,175C827,176.1,778.4,300,781,445.6s55.7,267.7,116,266.6
		c60.3-1.1,108.9-125,106.3-270.6S947.6,173.9,887.3,175z"/>
	<g>
		<g>
			<path id="SVGID_00000008849364089277492650000008513579553992597905_" class="st5" d="M1062.7,364.7l-14,12.4l3,3.4
				c15.6,17.7,24.2,40.2,24.3,63.4c0.1,23.2-8.2,45.8-23.6,63.7l-3,3.4l14.2,12.2l2.9-3.4c18.3-21.3,28.3-48.3,28.1-76
				c-0.2-27.7-10.5-54.6-29-75.6L1062.7,364.7z"/>
		</g>
		<g>
			<defs>
				<path id="SVGID_00000175308403932658463960000009418549670422456509_" d="M1062.7,364.7l-14,12.4l3,3.4
					c15.6,17.7,24.2,40.2,24.3,63.4c0.1,23.2-8.2,45.8-23.6,63.7l-3,3.4l14.2,12.2l2.9-3.4c18.3-21.3,28.3-48.3,28.1-76
					c-0.2-27.7-10.5-54.6-29-75.6L1062.7,364.7z"/>
			</defs>
			<use xlink:href="#SVGID_00000175308403932658463960000009418549670422456509_"  style="overflow:visible;fill:#E37820;"/>
			<clipPath id="SVGID_00000115515809902768833030000009906482707281880222_">
				<use xlink:href="#SVGID_00000175308403932658463960000009418549670422456509_"  style="overflow:visible;"/>
			</clipPath>
			<g style="clip-path:url(#SVGID_00000115515809902768833030000009906482707281880222_);">
				<polygon class="st5" points="1661.9,494.5 1589.9,570.5 1728.4,510.2 				"/>
				<polygon class="st5" points="1589.9,570.5 1728.4,593.1 1728.4,510.2 				"/>
				<polygon class="st5" points="1482.2,424.8 1378.2,461.5 1441.7,545.6 				"/>
				<polygon class="st5" points="1589.9,570.5 1441.7,545.6 1504.1,593.1 				"/>
				<polygon class="st5" points="1589.9,570.5 1504.1,593.1 1631.9,593.1 				"/>
				<polygon class="st5" points="1281.5,418 1256.8,520.5 1378.2,461.5 				"/>
				<polygon class="st5" points="1281.5,418 1180.6,497.1 1256.8,520.5 				"/>
				<polygon class="st5" points="1130.9,545.1 1045.4,515 1038.4,593.1 				"/>
				<polygon class="st5" points="1256.8,520.5 1130.9,545.1 1232.1,593.2 				"/>
				<polygon class="st5" points="1378.2,461.5 1256.8,520.5 1340.7,593.1 1340.7,593.1 				"/>
				<polygon class="st5" points="1441.7,545.6 1378.2,461.5 1340.7,593.1 1340.7,593.1 				"/>
				<polygon class="st5" points="977.6,524.8 926.6,532.6 1038.4,593.1 				"/>
				<polygon class="st5" points="1482.2,424.8 1441.7,545.6 1566.2,454.4 				"/>
				<polygon class="st5" points="1566.2,454.4 1441.7,545.6 1589.9,570.5 				"/>
				<polygon class="st5" points="1574.3,401.5 1482.2,424.8 1566.2,454.4 				"/>
				<polygon class="st5" points="1661.9,494.5 1566.2,454.4 1589.9,570.5 				"/>
				<polygon class="st5" points="1038.4,593.1 977.6,524.8 1045.4,515 				"/>
				<polygon class="st5" points="1038.4,593.1 926.6,532.6 926.6,593.1 				"/>
				<polygon class="st5" points="1728.4,593.1 1589.9,570.5 1631.9,593.1 				"/>
				<polygon class="st5" points="1038.4,593.1 1232.1,593.2 1130.9,545.1 				"/>
				<polygon class="st5" points="1441.7,545.6 1504.1,593.1 1340.7,593.1 				"/>
				<polygon class="st5" points="994,417.4 1031.3,363.9 926.6,382.3 				"/>
				<polygon class="st5" points="1031.3,363.9 926.6,311.6 926.6,382.3 				"/>
				<polygon class="st5" points="1031.3,363.9 1154.7,311.6 1022.4,311.6 				"/>
				<polygon class="st5" points="1137.4,430.2 1180.6,497.1 1231,393.2 				"/>
				<polygon class="st5" points="1482.2,424.8 1574.3,401.5 1609.9,311.6 				"/>
				<polygon class="st5" points="1378.2,461.5 1482.2,424.8 1335.8,371.6 				"/>
				<polygon class="st5" points="1281.5,418 1335.8,371.6 1231,393.2 				"/>
				<polygon class="st5" points="994,417.4 926.6,382.4 926.6,475 				"/>
				<polygon class="st5" points="977.6,524.8 1045.4,515 994,417.4 				"/>
				<polygon class="st5" points="994,417.4 926.6,475 977.6,524.8 				"/>
				<polygon class="st5" points="1045.4,515 1130.9,545.1 1089.6,456.9 				"/>
				<polygon class="st5" points="994,417.4 1089.6,456.9 1082.1,393.7 				"/>
				<polygon class="st5" points="1335.8,371.6 1347.8,311.6 1154.7,311.6 				"/>
				<polygon class="st5" points="1231,393.2 1335.8,371.6 1154.7,311.6 				"/>
				<polygon class="st5" points="1045.4,515 1089.6,456.9 994,417.4 				"/>
				<polygon class="st5" points="1609.9,311.6 1652.3,392 1574.3,401.5 				"/>
				<polygon class="st5" points="926.6,475 926.6,532.6 977.6,524.8 				"/>
				<polygon class="st5" points="926.6,311.6 1031.3,363.9 1022.4,311.6 				"/>
				<polygon class="st5" points="1609.9,311.6 1507.5,311.6 1482.2,424.8 				"/>
				<polygon class="st5" points="1482.2,424.8 1507.5,311.6 1420.4,311.6 				"/>
				<polygon class="st5" points="1335.8,371.6 1482.2,424.8 1420.4,311.6 				"/>
				<polygon class="st5" points="1378.2,461.5 1335.8,371.6 1281.5,418 				"/>
				<polygon class="st5" points="1281.5,418 1180.6,497.1 1231,393.2 				"/>
				<polygon class="st5" points="1340.7,593.1 1232.1,593.2 1256.8,520.5 				"/>
				<polygon class="st5" points="1180.6,497.1 1130.9,545.1 1256.8,520.5 				"/>
				<polygon class="st5" points="1137.4,430.2 1089.6,456.9 1180.6,497.1 				"/>
				<polygon class="st5" points="1137.4,430.2 1154.7,311.6 1231,393.2 				"/>
				<polygon class="st5" points="1137.4,430.2 1082.1,393.7 1089.6,456.9 				"/>
				<polygon class="st5" points="1082.1,393.7 1154.7,311.6 1031.3,363.9 				"/>
				<polygon class="st5" points="1137.4,430.2 1082.1,393.7 1154.7,311.6 				"/>
				<polygon class="st5" points="1640.1,446.3 1652.3,392 1574.3,401.5 				"/>
				<polygon class="st5" points="1640.1,446.3 1574.3,401.5 1566.2,454.4 				"/>
				<polygon class="st5" points="1640.1,446.3 1566.2,454.4 1661.9,494.5 				"/>
				<polygon class="st5" points="1130.9,545.1 1089.6,456.9 1180.6,497.1 				"/>
				<polygon class="st5" points="1082.1,393.7 1031.3,363.9 994,417.4 				"/>
				<polygon class="st5" points="1347.8,311.6 1335.8,371.6 1420.4,311.6 				"/>
			</g>
		</g>
	</g>
	<g>
		<g>
			<path id="SVGID_00000054267919842336806160000014534300159008721818_" class="st5" d="M1120.4,312.3l-2.2-2.3l-14.1,13.1l2.2,2.3
				c30,32.2,46.7,74.1,47,118s-15.9,86-45.6,118.5l-2.1,2.4l14.2,13l2.1-2.4c32.9-36.1,50.9-82.9,50.6-131.6
				C1172.3,394.5,1153.8,348,1120.4,312.3z"/>
		</g>
		<g>
			<defs>
				<path id="SVGID_00000173131538891081657500000013136475181899763090_" d="M1120.4,312.3l-2.2-2.3l-14.1,13.1l2.2,2.3
					c30,32.2,46.7,74.1,47,118s-15.9,86-45.6,118.5l-2.1,2.4l14.2,13l2.1-2.4c32.9-36.1,50.9-82.9,50.6-131.6
					C1172.3,394.5,1153.8,348,1120.4,312.3z"/>
			</defs>
			<use xlink:href="#SVGID_00000173131538891081657500000013136475181899763090_"  style="overflow:visible;fill:#E37820;"/>
			<clipPath id="SVGID_00000072974440087186171400000013578921486851162294_">
				<use xlink:href="#SVGID_00000173131538891081657500000013136475181899763090_"  style="overflow:visible;"/>
			</clipPath>
			<g style="clip-path:url(#SVGID_00000072974440087186171400000013578921486851162294_);">
				<polygon class="st5" points="1619.8,486.7 1519.4,592.7 1712.6,508.5 				"/>
				<polygon class="st5" points="1519.4,592.7 1712.6,624.2 1712.6,508.5 				"/>
				<polygon class="st5" points="1369,389.4 1224,440.7 1312.7,558 				"/>
				<polygon class="st5" points="1519.4,592.7 1312.7,558 1399.7,624.2 				"/>
				<polygon class="st5" points="1519.4,592.7 1399.7,624.2 1578,624.2 				"/>
				<polygon class="st5" points="1089,379.9 1054.6,523 1224,440.7 				"/>
				<polygon class="st5" points="1089,379.9 948.3,490.4 1054.6,523 				"/>
				<polygon class="st5" points="879,557.3 759.7,515.3 750,624.2 				"/>
				<polygon class="st5" points="1054.6,523 879,557.3 1020.2,624.4 				"/>
				<polygon class="st5" points="1224,440.7 1054.6,523 1171.6,624.2 1171.6,624.2 				"/>
				<polygon class="st5" points="1312.7,558 1224,440.7 1171.6,624.2 1171.6,624.2 				"/>
				<polygon class="st5" points="665.1,529 593.9,539.8 750,624.2 				"/>
				<polygon class="st5" points="1369,389.4 1312.7,558 1486.3,430.7 				"/>
				<polygon class="st5" points="1486.3,430.7 1312.7,558 1519.4,592.7 				"/>
				<polygon class="st5" points="1497.6,356.9 1369,389.4 1486.3,430.7 				"/>
				<polygon class="st5" points="1619.8,486.7 1486.3,430.7 1519.4,592.7 				"/>
				<polygon class="st5" points="750,624.2 665.1,529 759.7,515.3 				"/>
				<polygon class="st5" points="750,624.2 593.9,539.8 593.9,624.2 				"/>
				<polygon class="st5" points="1712.6,624.2 1519.4,592.7 1578,624.2 				"/>
				<polygon class="st5" points="750,624.2 1020.2,624.4 879,557.3 				"/>
				<polygon class="st5" points="1312.7,558 1399.7,624.2 1171.6,624.2 				"/>
				<polygon class="st5" points="687.9,379 740,304.4 593.9,330.2 				"/>
				<polygon class="st5" points="740,304.4 593.9,231.4 593.9,330.2 				"/>
				<polygon class="st5" points="740,304.4 912.2,231.4 727.6,231.4 				"/>
				<polygon class="st5" points="888,397 948.3,490.4 1018.7,345.3 				"/>
				<polygon class="st5" points="1369,389.4 1497.6,356.9 1547.2,231.4 				"/>
				<polygon class="st5" points="1224,440.7 1369,389.4 1164.9,315.1 				"/>
				<polygon class="st5" points="1089,379.9 1164.9,315.1 1018.7,345.3 				"/>
				<polygon class="st5" points="687.9,379 593.9,330.2 593.9,459.5 				"/>
				<polygon class="st5" points="665.1,529 759.7,515.3 687.9,379 				"/>
				<polygon class="st5" points="687.9,379 593.9,459.5 665.1,529 				"/>
				<polygon class="st5" points="1712.6,323.6 1712.6,261.7 1547.2,231.4 				"/>
				<polygon class="st5" points="759.7,515.3 879,557.3 821.4,434.2 				"/>
				<polygon class="st5" points="687.9,379 821.4,434.2 810.9,346 				"/>
				<polygon class="st5" points="1164.9,315.1 1181.6,231.4 912.2,231.4 				"/>
				<polygon class="st5" points="1018.7,345.3 1164.9,315.1 912.2,231.4 				"/>
				<polygon class="st5" points="759.7,515.3 821.4,434.2 687.9,379 				"/>
				<polygon class="st5" points="1547.2,231.4 1606.4,343.6 1497.6,356.9 				"/>
				<polygon class="st5" points="593.9,459.5 593.9,539.8 665.1,529 				"/>
				<polygon class="st5" points="1547.2,231.4 1712.6,261.7 1712.6,231.4 				"/>
				<polygon class="st5" points="593.9,231.4 740,304.4 727.6,231.4 				"/>
				<polygon class="st5" points="1547.2,231.4 1404.3,231.4 1369,389.4 				"/>
				<polygon class="st5" points="1369,389.4 1404.3,231.4 1282.8,231.4 				"/>
				<polygon class="st5" points="1164.9,315.1 1369,389.4 1282.8,231.4 				"/>
				<polygon class="st5" points="1224,440.7 1164.9,315.1 1089,379.9 				"/>
				<polygon class="st5" points="1712.6,323.6 1606.4,343.6 1547.2,231.4 				"/>
				<polygon class="st5" points="1089,379.9 948.3,490.4 1018.7,345.3 				"/>
				<polygon class="st5" points="1171.6,624.2 1020.2,624.4 1054.6,523 				"/>
				<polygon class="st5" points="948.3,490.4 879,557.3 1054.6,523 				"/>
				<polygon class="st5" points="888,397 821.4,434.2 948.3,490.4 				"/>
				<polygon class="st5" points="888,397 912.2,231.4 1018.7,345.3 				"/>
				<polygon class="st5" points="888,397 810.9,346 821.4,434.2 				"/>
				<polygon class="st5" points="810.9,346 912.2,231.4 740,304.4 				"/>
				<polygon class="st5" points="888,397 810.9,346 912.2,231.4 				"/>
				<polygon class="st5" points="1589.4,419.4 1606.4,343.6 1497.6,356.9 				"/>
				<polygon class="st5" points="1589.4,419.4 1497.6,356.9 1486.3,430.7 				"/>
				<polygon class="st5" points="1606.4,343.6 1589.4,419.4 1712.6,404.6 				"/>
				<polygon class="st5" points="1589.4,419.4 1486.3,430.7 1619.8,486.7 				"/>
				<polygon class="st5" points="1712.6,404.6 1589.4,419.4 1619.8,486.7 				"/>
				<polygon class="st5" points="879,557.3 821.4,434.2 948.3,490.4 				"/>
				<polygon class="st5" points="810.9,346 740,304.4 687.9,379 				"/>
				<polygon class="st5" points="1181.6,231.4 1164.9,315.1 1282.8,231.4 				"/>
			</g>
		</g>
	</g>
	<g>
		<g>
			<path id="SVGID_00000045586960074006337000000011630589667559697062_" class="st5" d="M1175.4,256.5l-1.6-1.6l-14.9,14.3l1.6,1.6
				c44.6,46.7,69.4,107.8,69.8,172.2c0.4,64.3-23.7,125.8-67.7,173l-1.6,1.6l15.1,14.1l1.5-1.7c47.7-51.1,73.7-117.5,73.3-187.2
				C1250.5,373.1,1223.7,307,1175.4,256.5z"/>
		</g>
		<g>
			<defs>
				<path id="SVGID_00000067921466358244357900000009625773858744390280_" d="M1175.4,256.5l-1.6-1.6l-14.9,14.3l1.6,1.6
					c44.6,46.7,69.4,107.8,69.8,172.2c0.4,64.3-23.7,125.8-67.7,173l-1.6,1.6l15.1,14.1l1.5-1.7c47.7-51.1,73.7-117.5,73.3-187.2
					C1250.5,373.1,1223.7,307,1175.4,256.5z"/>
			</defs>
			<use xlink:href="#SVGID_00000067921466358244357900000009625773858744390280_"  style="overflow:visible;fill:#E37820;"/>
			<clipPath id="SVGID_00000054951608784624205810000007862371797276241080_">
				<use xlink:href="#SVGID_00000067921466358244357900000009625773858744390280_"  style="overflow:visible;"/>
			</clipPath>
			<g style="clip-path:url(#SVGID_00000054951608784624205810000007862371797276241080_);">
				<polygon class="st5" points="1245.7,515 1138.7,628 1344.7,538.2 				"/>
				<polygon class="st5" points="1138.7,628 1344.7,661.6 1344.7,538.2 				"/>
				<polygon class="st5" points="978.4,411.2 823.7,465.9 918.3,591 				"/>
				<polygon class="st5" points="1138.7,628 918.3,591 1011,661.6 				"/>
				<polygon class="st5" points="1138.7,628 1011,661.6 1201.2,661.6 				"/>
				<polygon class="st5" points="679.8,401.1 643.1,553.6 823.7,465.9 				"/>
				<polygon class="st5" points="679.8,401.1 529.8,518.9 643.1,553.6 				"/>
				<polygon class="st5" points="455.9,590.2 328.7,545.5 318.3,661.6 				"/>
				<polygon class="st5" points="643.1,553.6 455.9,590.2 606.4,661.8 				"/>
				<polygon class="st5" points="1245.7,515 1344.7,538.2 1344.7,427.4 				"/>
				<polygon class="st5" points="823.7,465.9 643.1,553.6 767.9,661.6 767.9,661.6 				"/>
				<polygon class="st5" points="918.3,591 823.7,465.9 767.9,661.6 767.9,661.6 				"/>
				<polygon class="st5" points="227.8,560.1 151.9,571.6 318.3,661.6 				"/>
				<polygon class="st5" points="978.4,411.2 918.3,591 1103.4,455.3 				"/>
				<polygon class="st5" points="1103.4,455.3 918.3,591 1138.7,628 				"/>
				<polygon class="st5" points="1115.4,376.5 978.4,411.2 1103.4,455.3 				"/>
				<polygon class="st5" points="1245.7,515 1103.4,455.3 1138.7,628 				"/>
				<polygon class="st5" points="318.3,661.6 227.8,560.1 328.7,545.5 				"/>
				<polygon class="st5" points="1344.7,427.4 1344.7,341.1 1231.4,362.4 				"/>
				<polygon class="st5" points="318.3,661.6 151.9,571.6 151.9,661.6 				"/>
				<polygon class="st5" points="1344.7,661.6 1138.7,628 1201.2,661.6 				"/>
				<polygon class="st5" points="318.3,661.6 606.4,661.8 455.9,590.2 				"/>
				<polygon class="st5" points="918.3,591 1011,661.6 767.9,661.6 				"/>
				<polygon class="st5" points="252.1,400.2 307.7,320.6 151.9,348 				"/>
				<polygon class="st5" points="307.7,320.6 151.9,242.8 151.9,348 				"/>
				<polygon class="st5" points="307.7,320.6 491.2,242.8 294.4,242.8 				"/>
				<polygon class="st5" points="465.5,419.3 529.8,518.9 604.8,364.2 				"/>
				<polygon class="st5" points="978.4,411.2 1115.4,376.5 1168.4,242.8 				"/>
				<polygon class="st5" points="823.7,465.9 978.4,411.2 760.7,332 				"/>
				<polygon class="st5" points="679.8,401.1 760.7,332 604.8,364.2 				"/>
				<polygon class="st5" points="252.1,400.2 151.9,348.1 151.9,486 				"/>
				<polygon class="st5" points="227.8,560.1 328.7,545.5 252.1,400.2 				"/>
				<polygon class="st5" points="252.1,400.2 151.9,486 227.8,560.1 				"/>
				<polygon class="st5" points="1344.7,341.1 1344.7,275.1 1168.4,242.8 				"/>
				<polygon class="st5" points="328.7,545.5 455.9,590.2 394.5,458.9 				"/>
				<polygon class="st5" points="252.1,400.2 394.5,458.9 383.2,365 				"/>
				<polygon class="st5" points="760.7,332 778.5,242.8 491.2,242.8 				"/>
				<polygon class="st5" points="604.8,364.2 760.7,332 491.2,242.8 				"/>
				<polygon class="st5" points="328.7,545.5 394.5,458.9 252.1,400.2 				"/>
				<polygon class="st5" points="1168.4,242.8 1231.4,362.4 1115.4,376.5 				"/>
				<polygon class="st5" points="151.9,486 151.9,571.6 227.8,560.1 				"/>
				<polygon class="st5" points="1168.4,242.8 1344.7,275.1 1344.7,242.8 				"/>
				<polygon class="st5" points="151.9,242.8 307.7,320.6 294.4,242.8 				"/>
				<polygon class="st5" points="1168.4,242.8 1016,242.8 978.4,411.2 				"/>
				<polygon class="st5" points="978.4,411.2 1016,242.8 886.4,242.8 				"/>
				<polygon class="st5" points="760.7,332 978.4,411.2 886.4,242.8 				"/>
				<polygon class="st5" points="823.7,465.9 760.7,332 679.8,401.1 				"/>
				<polygon class="st5" points="1344.7,341.1 1231.4,362.4 1168.4,242.8 				"/>
				<polygon class="st5" points="679.8,401.1 529.8,518.9 604.8,364.2 				"/>
				<polygon class="st5" points="767.9,661.6 606.4,661.8 643.1,553.6 				"/>
				<polygon class="st5" points="529.8,518.9 455.9,590.2 643.1,553.6 				"/>
				<polygon class="st5" points="465.5,419.3 394.5,458.9 529.8,518.9 				"/>
				<polygon class="st5" points="465.5,419.3 491.2,242.8 604.8,364.2 				"/>
				<polygon class="st5" points="465.5,419.3 383.2,365 394.5,458.9 				"/>
				<polygon class="st5" points="383.2,365 491.2,242.8 307.7,320.6 				"/>
				<polygon class="st5" points="465.5,419.3 383.2,365 491.2,242.8 				"/>
				<polygon class="st5" points="1213.4,443.2 1231.4,362.4 1115.4,376.5 				"/>
				<polygon class="st5" points="1213.4,443.2 1115.4,376.5 1103.4,455.3 				"/>
				<polygon class="st5" points="1231.4,362.4 1213.4,443.2 1344.7,427.4 				"/>
				<polygon class="st5" points="1213.4,443.2 1103.4,455.3 1245.7,515 				"/>
				<polygon class="st5" points="1344.7,427.4 1213.4,443.2 1245.7,515 				"/>
				<polygon class="st5" points="455.9,590.2 394.5,458.9 529.8,518.9 				"/>
				<polygon class="st5" points="383.2,365 307.7,320.6 252.1,400.2 				"/>
				<polygon class="st5" points="778.5,242.8 760.7,332 886.4,242.8 				"/>
			</g>
		</g>
	</g>
</g>
</svg>
