<?xml version="1.0" encoding="utf-8"?>
<!-- Generator: Adobe Illustrator 27.1.1, SVG Export Plug-In . SVG Version: 6.00 Build 0)  -->
<svg version="1.1" id="Layer_1" xmlns="http://www.w3.org/2000/svg" xmlns:xlink="http://www.w3.org/1999/xlink" x="0px" y="0px"
	 viewBox="0 0 1600 960" style="enable-background:new 0 0 1600 960;" xml:space="preserve">
<style type="text/css">
	.st0{fill:#7E45AF;}
	.st1{fill:#56C7F3;}
	.st2{fill:#E37820;}
</style>
<g>
	<path class="st0" d="M839,439.8c7.8-9.1,11.8-22.3,11.8-39.2c0-30.1-22.6-53.7-51.5-53.7c-27.5,0-49.9,24.1-49.9,53.7
		c0,17,4,30.2,11.8,39.2c-43.9,6.4-66.1,26.9-66.1,60.9v69.1c0,35.5,33,47.5,48,47.5h0.3v155.2c0,17.9,14.6,32.5,32.5,32.5h48.3
		c17.9,0,32.5-14.6,32.5-32.5V617.3h0.3c15,0,48-12,48-47.5v-69.1C905.1,466.7,882.9,446.2,839,439.8z M888.4,569.8
		c0,28.3-31,30.7-31.3,30.7h-0.3v-90.3h-16.7v262.2c0,8.7-7.1,15.8-15.8,15.8h-15.8V624.6h-16.7v163.7H776
		c-8.7,0-15.8-7.1-15.8-15.8V510.2h-16.7v90.3h-0.3c-0.3,0-31.3-2.4-31.3-30.7v-69.1c0-10.2,0-41.1,65.1-45.7l7.8-0.6v-18.1
		l-4.4-2.4c-9.5-5.1-14.1-16-14.1-33.4c0-20.7,15.3-37,34.8-37c18.3,0,33.2,16.6,33.2,37c0,17.4-4.6,28.3-14.1,33.4l-4.4,2.4v18.1
		l7.8,0.6c65.1,4.6,65.1,35.6,65.1,45.7v69.1H888.4z"/>
	<path class="st1" d="M783.6,280.4c-9.7-17.2-29.6-28.1-59.1-32.5c7.8-9.1,11.8-22.3,11.8-39.2c0-30.1-22.6-53.7-51.5-53.7
		c-27.5,0-49.9,24.1-49.9,53.7c0,17,4,30.2,11.8,39.2c-30.3,4.5-50.4,15.9-59.9,33.8l-0.6,1.2l14.8,7.8l0.6-1.2
		c8.1-15.3,28.5-24.2,60.8-26.5l7.8-0.6v-18.1l-4.4-2.4c-9.5-5-14.2-16-14.2-33.4c0-20.7,15.3-37,34.8-37c18.3,0,33.2,16.6,33.2,37
		c0,17.4-4.6,28.3-14.1,33.4l-4.4,2.4v18.1l7.8,0.6c31.7,2.3,52,10.9,60.3,25.6l0.7,1.2l14.6-8.3L783.6,280.4z"/>
	<path class="st1" d="M1015.3,281.4c-9.9-16.7-29.6-27.4-58.7-31.6c7.8-9.1,11.8-22.3,11.8-39.2c0-30.1-22.6-53.7-51.5-53.7
		c-27.5,0-49.9,24.1-49.9,53.7c0,17,4,30.1,11.8,39.2c-29,4.3-48.7,14.9-58.7,31.6l-0.7,1.2l14.4,8.5l0.7-1.2
		c8.5-14.4,28.7-22.8,60-25.1l7.8-0.6v-18.1l-4.4-2.4c-9.5-5.1-14.1-16-14.1-33.4c0-20.7,15.3-37,34.8-37c18.3,0,33.2,16.6,33.2,37
		c0,17.4-4.6,28.3-14.2,33.4l-4.4,2.4v18.1l7.8,0.6c31.3,2.2,51.4,10.6,60,25.1l0.7,1.2l14.4-8.5L1015.3,281.4z"/>
	<path class="st2" d="M1113.2,423.8c-9.9-16.7-29.6-27.4-58.7-31.6c7.8-9.1,11.8-22.3,11.8-39.2c0-30.1-22.6-53.7-51.5-53.7
		c-27.5,0-49.9,24.1-49.9,53.7c0,17,4,30.2,11.8,39.2c-29,4.3-48.7,14.9-58.6,31.7l-0.7,1.2l14.4,8.5l0.7-1.2
		c8.5-14.4,28.7-22.8,60-25l7.8-0.6v-18.1l-4.4-2.4c-9.5-5.1-14.2-16-14.2-33.4c0-20.7,15.3-37,34.8-37c18.3,0,33.2,16.6,33.2,37
		c0,17.4-4.6,28.3-14.2,33.4l-4.4,2.4v18.1l7.8,0.6c31.3,2.2,51.5,10.6,60,25.1l0.7,1.2l14.4-8.5L1113.2,423.8z"/>
	<path class="st2" d="M681.9,423.8c-9.9-16.7-29.6-27.4-58.7-31.7c7.8-9.1,11.8-22.3,11.8-39.2c0-30.1-22.6-53.7-51.5-53.7
		c-27.5,0-49.9,24.1-49.9,53.7c0,17,4,30.2,11.8,39.2c-29,4.3-48.7,14.9-58.7,31.6l-0.7,1.2l14.4,8.5l0.7-1.2
		c8.5-14.4,28.7-22.8,60-25.1l7.8-0.6v-18.1l-4.4-2.4c-9.5-5.1-14.1-16-14.1-33.4c0-20.7,15.3-37,34.8-37c18.3,0,33.2,16.6,33.2,37
		c0,17.4-4.6,28.3-14.1,33.4l-4.4,2.4v18.1l7.8,0.6c31.3,2.2,51.4,10.6,60,25l0.7,1.2l14.4-8.5L681.9,423.8z"/>
</g>
</svg>
